<?xml version="1.0" encoding="UTF-8"?>
<!-- Generator: visioncortex VTracer 0.6.4 -->
<svg version="1.1" xmlns="http://www.w3.org/2000/svg" width="512" height="512">
<path d="M0 0 C2.666 10.113 2.666 10.113 1 14 C-1.438 16.125 -1.438 16.125 -4 18 C-4.66 18.99 -5.32 19.98 -6 21 C-6.99 21 -7.98 21 -9 21 C-9.507 19.106 -10.006 17.21 -10.5 15.312 C-10.778 14.257 -11.057 13.201 -11.344 12.113 C-11.939 9.289 -12.128 6.872 -12 4 C-10.566 3.326 -9.127 2.661 -7.688 2 C-6.887 1.629 -6.086 1.257 -5.262 0.875 C-3 0 -3 0 0 0 Z " fill="#EBEEEF" transform="translate(368,155)"/>
</svg>
