<?xml version="1.0" encoding="UTF-8"?>
<!-- Generator: visioncortex VTracer 0.6.4 -->
<svg version="1.1" xmlns="http://www.w3.org/2000/svg" width="512" height="512">
<path d="M0 0 C4.027 3.752 7.916 7.614 11.75 11.562 C12.637 12.408 13.524 13.254 14.438 14.125 C15.201 14.929 15.964 15.734 16.75 16.562 C17.289 17.097 17.828 17.632 18.383 18.184 C22.895 23.231 23.547 27.444 23.199 34.129 C20.948 51.336 11.133 65.118 -2.355 75.602 C-11.784 81.989 -21.642 86.91 -33.25 85.562 C-44.327 82.613 -55.856 70.822 -62.25 61.562 C-64.989 54.747 -64.511 48.998 -62 42.188 C-54.089 23.817 -39.479 8.548 -21.375 0.125 C-14.524 -2.403 -6.746 -2.984 0 0 Z M-41.25 28.562 C-44.475 33.742 -45.975 38.396 -45.25 44.562 C-44.418 47.127 -43.709 48.192 -41.625 49.875 C-37.043 51.201 -33.158 50.51 -28.977 48.434 C-21.877 43.988 -15.001 37.653 -12.25 29.562 C-11.763 26.126 -11.634 22.988 -12.25 19.562 C-14.853 16.249 -16.427 15.687 -20.562 15.062 C-29.589 16.286 -35.593 21.638 -41.25 28.562 Z " fill="#252C34" transform="translate(157.25,258.4375)"/>
</svg>
