<?xml version="1.0" encoding="UTF-8"?>
<!-- Generator: visioncortex VTracer 0.6.4 -->
<svg version="1.1" xmlns="http://www.w3.org/2000/svg" width="512" height="512">
<path d="M0 0 C2.896 2.245 3.836 3.821 4.34 7.449 C4.585 14.171 4.585 14.171 2.734 16.793 C-0.34 18.933 -3.355 18.179 -7 18 C-7.33 18.66 -7.66 19.32 -8 20 C-10.848 19.692 -12.583 19.345 -14.812 17.5 C-16.633 13.668 -16.784 10.156 -16 6 C-12.368 -0.707 -7.125 -2.021 0 0 Z " fill="#747579" transform="translate(358,114)"/>
<path d="M0 0 C2.375 0.312 2.375 0.312 5 1 C7.209 4.314 7.225 5.345 7.125 9.188 C7.107 10.089 7.089 10.99 7.07 11.918 C7.036 12.949 7.036 12.949 7 14 C5.02 14.99 5.02 14.99 3 16 C2.927 15.06 2.927 15.06 2.852 14.102 C2.777 13.284 2.702 12.467 2.625 11.625 C2.555 10.813 2.486 10.001 2.414 9.164 C2.171 6.797 2.171 6.797 0 5 C-0.125 2.375 -0.125 2.375 0 0 Z " fill="#98999B" transform="translate(355,115)"/>
<path d="M0 0 C1.32 1.65 2.64 3.3 4 5 C3.34 6.32 2.68 7.64 2 9 C1.34 9 0.68 9 0 9 C0 6.03 0 3.06 0 0 Z " fill="#838589" transform="translate(358,122)"/>
<path d="M0 0 C1.32 0 2.64 0 4 0 C3.67 2.31 3.34 4.62 3 7 C2.01 6.34 1.02 5.68 0 5 C-0.188 2.375 -0.188 2.375 0 0 Z " fill="#8C8D8E" transform="translate(355,115)"/>
</svg>
