<?xml version="1.0" encoding="UTF-8"?>
<!-- Generator: visioncortex VTracer 0.6.4 -->
<svg version="1.1" xmlns="http://www.w3.org/2000/svg" width="512" height="512">
<path d="M0 0 C4.707 3.869 7.291 8.597 10.125 13.875 C10.769 15.041 10.769 15.041 11.426 16.23 C13.884 20.732 16.063 25.251 18 30 C12.079 28.299 10.343 24.358 7.258 19.336 C5.168 16.739 5.168 16.739 1.949 16.352 C-3.527 16.792 -8.45 19.638 -13.312 22 C-15.286 22.941 -17.262 23.878 -19.238 24.812 C-20.105 25.231 -20.972 25.65 -21.865 26.082 C-24 27 -24 27 -26 27 C-25.783 27.976 -25.567 28.952 -25.344 29.957 C-25.065 31.229 -24.787 32.502 -24.5 33.812 C-24.222 35.077 -23.943 36.342 -23.656 37.645 C-23 41 -23 41 -23 44 C-22.01 44 -21.02 44 -20 44 C-19.491 45.56 -18.993 47.123 -18.5 48.688 C-18.222 49.558 -17.943 50.428 -17.656 51.324 C-17.001 53.994 -16.882 56.264 -17 59 C-21.93 61.04 -25.58 62.407 -31 62 C-31.42 61.004 -31.42 61.004 -31.848 59.988 C-35.094 52.839 -37.998 49.357 -45.039 46.039 C-57.292 41.45 -74.271 42.694 -86.059 47.911 C-89.643 49.603 -93.164 51.397 -96.664 53.258 C-100 55 -100 55 -103 56 C-103.135 53.561 -103.234 51.129 -103.312 48.688 C-103.354 47.997 -103.396 47.307 -103.439 46.596 C-103.488 44.574 -103.488 44.574 -103 41 C-99 38.048 -94.238 36.208 -89.711 34.191 C-88.903 33.828 -88.095 33.466 -87.263 33.092 C-84.635 31.912 -82.005 30.737 -79.375 29.562 C-77.556 28.748 -75.738 27.933 -73.919 27.118 C-69.429 25.106 -64.938 23.099 -60.446 21.093 C-58.225 20.1 -56.004 19.107 -53.784 18.112 C-42.58 13.093 -31.366 8.103 -20.062 3.312 C-19.293 2.985 -18.523 2.657 -17.729 2.32 C-11.798 -0.168 -6.384 -2.259 0 0 Z " fill="#0058B9" transform="translate(382,132)"/>
</svg>
