<?xml version="1.0" encoding="UTF-8"?>
<!-- Generator: visioncortex VTracer 0.6.4 -->
<svg version="1.1" xmlns="http://www.w3.org/2000/svg" width="512" height="512">
<path d="M0 0 C0.175 3.228 0.281 6.456 0.375 9.688 C0.425 10.6 0.476 11.512 0.527 12.451 C0.547 13.337 0.566 14.224 0.586 15.137 C0.617 15.948 0.649 16.76 0.681 17.596 C-0.364 21.283 -2.918 22.99 -6 25 C-8.723 26.513 -11.518 27.802 -14.363 29.066 C-15.155 29.427 -15.946 29.788 -16.762 30.16 C-19.275 31.303 -21.793 32.433 -24.312 33.562 C-25.992 34.324 -27.671 35.086 -29.35 35.85 C-33.167 37.582 -36.984 39.314 -40.816 41.013 C-42.357 41.709 -43.886 42.43 -45.406 43.169 C-46.195 43.545 -46.985 43.921 -47.798 44.308 C-48.507 44.656 -49.217 45.003 -49.949 45.361 C-52.365 46.114 -53.642 45.822 -56 45 C-56.076 40.26 -56.059 35.544 -55.75 30.812 C-55.704 30.035 -55.657 29.258 -55.609 28.457 C-54.381 23.502 -51.935 20.572 -47.615 17.929 C-46.283 17.299 -44.942 16.686 -43.594 16.09 C-42.873 15.755 -42.153 15.42 -41.41 15.075 C-39.114 14.013 -36.807 12.975 -34.5 11.938 C-32.981 11.238 -31.463 10.537 -29.945 9.834 C-26.309 8.157 -22.659 6.514 -18.998 4.89 C-17.129 4.057 -15.267 3.207 -13.406 2.356 C-12.354 1.889 -11.303 1.422 -10.219 0.941 C-9.321 0.537 -8.423 0.133 -7.498 -0.283 C-4.609 -1.112 -2.86 -0.817 0 0 Z " fill="#1F1F2E" transform="translate(248,159)"/>
<path d="M0 0 C0 0.99 0 1.98 0 3 C-0.81 3.249 -0.81 3.249 -1.636 3.504 C-7.475 5.366 -12.935 7.691 -18.453 10.344 C-19.316 10.754 -20.18 11.164 -21.069 11.587 C-22.879 12.449 -24.687 13.313 -26.494 14.179 C-29.254 15.502 -32.017 16.816 -34.781 18.129 C-36.547 18.971 -38.313 19.813 -40.078 20.656 C-40.899 21.047 -41.72 21.438 -42.566 21.84 C-46.497 23.728 -50.308 25.665 -54 28 C-54 25.312 -54 25.312 -53 22 C-48.121 17.973 -41.957 15.417 -36.23 12.828 C-35.428 12.46 -34.625 12.092 -33.798 11.713 C-32.117 10.944 -30.436 10.178 -28.753 9.415 C-26.175 8.244 -23.6 7.066 -21.025 5.887 C-19.386 5.138 -17.746 4.389 -16.105 3.641 C-15.337 3.29 -14.568 2.939 -13.776 2.577 C-5.268 -1.281 -5.268 -1.281 0 0 Z " fill="#05060F" transform="translate(248,159)"/>
</svg>
