<?xml version="1.0" encoding="UTF-8"?>
<!-- Generator: visioncortex VTracer 0.6.4 -->
<svg version="1.1" xmlns="http://www.w3.org/2000/svg" width="512" height="512">
<path d="M0 0 C1.276 2.185 2.546 4.373 3.812 6.562 C4.169 7.172 4.525 7.781 4.893 8.408 C9.893 17.079 13.264 25.318 11.375 35.5 C7.712 49.124 -1.496 59.206 -13 67 C-13.882 67.599 -13.882 67.599 -14.781 68.211 C-24.159 73.681 -36.63 74.99 -47.098 72.855 C-58.412 69.521 -64.897 61.679 -71.812 52.625 C-72.533 51.707 -72.533 51.707 -73.269 50.77 C-78.1 44.252 -79.124 38.011 -79 30 C-69.767 24.961 -60.418 21.571 -50.438 18.375 C-32.574 13.108 -32.574 13.108 -16.062 4.812 C-10.212 0.981 -6.967 -0.158 0 0 Z " fill="#16181C" transform="translate(398,280)"/>
</svg>
