<?xml version="1.0" encoding="UTF-8"?>
<!-- Generator: visioncortex VTracer 0.6.4 -->
<svg version="1.1" xmlns="http://www.w3.org/2000/svg" width="512" height="512">
<path d="M0 0 C1.73 1.574 1.73 1.574 3.188 3.688 C3.92 4.714 3.92 4.714 4.668 5.762 C9.123 13.247 9.235 21.598 7.312 30.008 C2.684 43.545 -5.73 54.754 -18.328 61.777 C-25.727 65.163 -34.017 67.481 -42 65 C-52.647 60.356 -62.8 51.34 -68 41 C-69.106 37.858 -69.164 34.884 -69.188 31.562 C-69.202 30.636 -69.216 29.709 -69.23 28.754 C-68.98 25.76 -68.422 23.647 -67 21 C-63.875 20.188 -63.875 20.188 -61 20 C-59 23 -59 23 -59.25 25.562 C-60 28 -60 28 -62 30 C-62.751 33.372 -62.751 33.372 -62 37 C-58.075 41.124 -53.694 42.866 -48.062 43.312 C-40.396 43.237 -33.036 40.651 -27 36 C-26.34 36 -25.68 36 -25 36 C-24.751 35.257 -24.502 34.515 -24.246 33.75 C-22.889 30.755 -21.463 29.217 -19.062 27 C-14.977 23.212 -12.126 20.314 -11.812 14.555 C-11.874 13.34 -11.936 12.126 -12 10.875 C-12.326 4.445 -12.326 4.445 -10.617 2.113 C-7.357 -0.131 -3.877 -0.378 0 0 Z " fill="#1F252A" transform="translate(237,341)"/>
<path d="M0 0 C0.688 2.25 0.688 2.25 1 5 C0.526 5.619 0.051 6.238 -0.438 6.875 C-2.678 9.922 -2.273 12.316 -2 16 C-1.67 16.66 -1.34 17.32 -1 18 C-2.875 17.688 -2.875 17.688 -5 17 C-7.429 13.356 -7.162 11.288 -7 7 C-7.66 7 -8.32 7 -9 7 C-8.188 3.562 -8.188 3.562 -7 0 C-3.867 -1.044 -3.01 -0.934 0 0 Z " fill="#13171B" transform="translate(177,362)"/>
<path d="M0 0 C1.042 0.46 1.042 0.46 2.105 0.93 C5.187 2.069 8.069 2.626 11.312 3.125 C12.381 3.293 13.45 3.46 14.551 3.633 C15.359 3.754 16.167 3.875 17 4 C16.01 5.485 16.01 5.485 15 7 C6.067 7 6.067 7 3.504 4.598 C2.273 3.115 1.129 1.561 0 0 Z " fill="#0B0C0D" transform="translate(177,381)"/>
<path d="M0 0 C0.66 0.33 1.32 0.66 2 1 C1.34 1.66 0.68 2.32 0 3 C-0.342 7.652 -0.342 7.652 1 12 C-0.32 11.67 -1.64 11.34 -3 11 C-4.465 7.19 -3.552 4.676 -2 1 C-1.34 0.67 -0.68 0.34 0 0 Z " fill="#090B0C" transform="translate(175,368)"/>
<path d="M0 0 C0.66 0.33 1.32 0.66 2 1 C-1.3 4.3 -4.6 7.6 -8 11 C-8 6.678 -5.851 5.116 -3 2 C-2.01 1.34 -1.02 0.68 0 0 Z " fill="#0C0E10" transform="translate(221,366)"/>
</svg>
