<?xml version="1.0" encoding="UTF-8"?>
<!-- Generator: visioncortex VTracer 0.6.4 -->
<svg version="1.1" xmlns="http://www.w3.org/2000/svg" width="512" height="512">
<path d="M0 0 C2.239 4.884 2.482 9.927 0.645 15.027 C-1.473 18.978 -4.322 22.019 -7.625 25 C-8.739 26.021 -8.739 26.021 -9.875 27.062 C-17.055 32.121 -23.798 34.195 -32.625 33 C-35.986 31.735 -36.525 31.168 -38.438 27.938 C-40.103 23.435 -40.069 19.569 -38.625 15 C-34.117 6.17 -27.432 1.14 -18.625 -3 C-12.274 -4.815 -5.29 -4.031 0 0 Z " fill="#83888F" transform="translate(316.625,205)"/>
<path d="M0 0 C0.66 0.33 1.32 0.66 2 1 C-1.3 4.3 -4.6 7.6 -8 11 C-8 6.678 -5.851 5.116 -3 2 C-2.01 1.34 -1.02 0.68 0 0 Z " fill="#6C7278" transform="translate(290,206)"/>
</svg>
