<?xml version="1.0" encoding="UTF-8"?>
<!-- Generator: visioncortex VTracer 0.6.4 -->
<svg version="1.1" xmlns="http://www.w3.org/2000/svg" width="512" height="512">
<path d="M0 0 C4.117 3.438 6.02 7.255 8.43 11.988 C9.483 13.989 10.538 15.989 11.594 17.988 C12.431 19.587 12.431 19.587 13.286 21.219 C16.045 26.416 18.928 31.543 21.797 36.681 C28.606 48.895 35.106 61.25 41.454 73.71 C44.634 79.942 47.887 86.101 51.419 92.143 C55.336 98.849 58.36 105.457 60.742 112.863 C61.127 114.057 61.127 114.057 61.52 115.274 C63.747 122.785 63.747 122.785 62.055 126.551 C57.843 130.885 53.794 132.718 48.055 134.363 C47.026 134.687 47.026 134.687 45.977 135.018 C41.922 136.236 38.272 137.144 34.055 136.551 C30.669 133.674 28.611 130.416 26.402 126.59 C26.066 126.012 25.73 125.433 25.383 124.837 C24.663 123.597 23.946 122.356 23.231 121.113 C22.102 119.15 20.966 117.191 19.827 115.233 C18.29 112.587 16.754 109.94 15.222 107.291 C7.982 94.786 0.646 82.358 -7.13 70.178 C-12.58 61.616 -17.821 52.929 -23.071 44.244 C-23.42 43.667 -23.769 43.09 -24.129 42.495 C-25.133 40.834 -26.135 39.172 -27.138 37.51 C-28.676 34.992 -30.258 32.511 -31.863 30.035 C-35.285 24.582 -35.862 19.086 -36.07 12.738 C-34.36 7.892 -31.443 6.709 -26.945 4.551 C-25.859 4.009 -24.772 3.468 -23.652 2.91 C-15.699 -0.802 -8.328 -4.098 0 0 Z " fill="#8A8C8E" transform="translate(398.9453125,162.44921875)"/>
</svg>
