<?xml version="1.0" encoding="UTF-8"?>
<!-- Generator: visioncortex VTracer 0.6.4 -->
<svg version="1.1" xmlns="http://www.w3.org/2000/svg" width="512" height="512">
<path d="M0 0 C-1.766 0.699 -3.538 1.384 -5.312 2.062 C-6.792 2.637 -6.792 2.637 -8.301 3.223 C-11 4 -11 4 -14 3 C-12.234 2.301 -10.462 1.616 -8.688 0.938 C-7.208 0.363 -7.208 0.363 -5.699 -0.223 C-3 -1 -3 -1 0 0 Z " fill="#000A15" transform="translate(284,344)"/>
<path d="M0 0 C-1.266 0.532 -2.538 1.05 -3.812 1.562 C-4.52 1.853 -5.228 2.143 -5.957 2.441 C-8 3 -8 3 -11 2 C-9.734 1.468 -8.462 0.95 -7.188 0.438 C-6.48 0.147 -5.772 -0.143 -5.043 -0.441 C-3 -1 -3 -1 0 0 Z " fill="#000A15" transform="translate(264,351)"/>
<path d="M0 0 C-2.97 0.66 -5.94 1.32 -9 2 C-5.767 -1.233 -4.451 -1.113 0 0 Z " fill="#000B16" transform="translate(319,332)"/>
<path d="M0 0 C-4.625 2.125 -4.625 2.125 -8 1 C-3.375 -1.125 -3.375 -1.125 0 0 Z " fill="#000A15" transform="translate(301,338)"/>
<path d="M0 0 C2.125 0.375 2.125 0.375 4 1 C2.02 1.33 0.04 1.66 -2 2 C-1.34 1.34 -0.68 0.68 0 0 Z " fill="#000C18" transform="translate(289,340)"/>
<path d="M0 0 C3 1 3 1 3 1 Z " fill="#000913" transform="translate(264,349)"/>
<path d="M0 0 C3 1 3 1 3 1 Z " fill="#000913" transform="translate(267,348)"/>
<path d="M0 0 C3 1 3 1 3 1 Z " fill="#000810" transform="translate(284,342)"/>
<path d="M0 0 C3 1 3 1 3 1 Z " fill="#00070E" transform="translate(301,336)"/>
<path d="M0 0 C3 1 3 1 3 1 Z " fill="#000812" transform="translate(304,335)"/>
<path d="M0 0 C3 1 3 1 3 1 Z " fill="#000B16" transform="translate(307,334)"/>
<path d="M0 0 C3 1 3 1 3 1 Z " fill="#000E1D" transform="translate(319,330)"/>
</svg>
