<?xml version="1.0" encoding="UTF-8"?>
<!-- Generator: visioncortex VTracer 0.6.4 -->
<svg version="1.1" xmlns="http://www.w3.org/2000/svg" width="512" height="512">
<path d="M0 0 C-0.381 5.833 -0.827 11.662 -1.75 17.438 C-1.869 18.199 -1.987 18.961 -2.109 19.746 C-4.197 25.029 -8.844 27.725 -13.805 29.98 C-14.935 30.5 -16.066 31.02 -17.231 31.556 C-18.433 32.094 -19.636 32.633 -20.875 33.188 C-22.123 33.755 -23.37 34.323 -24.617 34.891 C-28.403 36.612 -32.2 38.309 -36 40 C-37.165 40.52 -38.329 41.04 -39.529 41.575 C-42.724 42.996 -45.923 44.408 -49.125 45.812 C-50.581 46.452 -50.581 46.452 -52.066 47.104 C-52.954 47.489 -53.843 47.873 -54.758 48.27 C-55.92 48.774 -55.92 48.774 -57.106 49.288 C-59 50 -59 50 -61 50 C-60.413 44.213 -58.847 39.224 -56.75 33.812 C-56.463 33.019 -56.175 32.226 -55.879 31.408 C-55.584 30.641 -55.289 29.873 -54.984 29.082 C-54.724 28.393 -54.463 27.705 -54.194 26.995 C-51.049 21.74 -45.293 19.497 -39.953 17.031 C-39.182 16.669 -38.412 16.307 -37.618 15.934 C-35.165 14.783 -32.707 13.641 -30.25 12.5 C-28.614 11.734 -26.979 10.967 -25.344 10.199 C-20.902 8.119 -16.457 6.047 -12 4 C-11.198 3.625 -10.396 3.25 -9.57 2.864 C-8.772 2.497 -7.974 2.13 -7.151 1.752 C-6.428 1.417 -5.705 1.081 -4.96 0.735 C-3 0 -3 0 0 0 Z " fill="#222334" transform="translate(170,193)"/>
<path d="M0 0 C0 1.32 0 2.64 0 4 C-0.797 4.315 -1.593 4.629 -2.414 4.953 C-8.053 7.231 -12.952 9.598 -18 13 C-20.541 14.091 -23.109 15.08 -25.691 16.066 C-28.095 16.969 -28.095 16.969 -30.5 18.5 C-32.895 19.937 -35.148 20.877 -37.75 21.875 C-42.776 23.824 -47.345 26.301 -52 29 C-52.66 29.33 -53.32 29.66 -54 30 C-53.213 25.769 -52.376 24.269 -48.832 21.73 C-42.543 17.99 -35.829 15.048 -29.188 12 C-27.872 11.391 -26.556 10.782 -25.24 10.172 C-22.689 8.99 -20.136 7.815 -17.58 6.645 C-15.284 5.59 -12.992 4.525 -10.706 3.449 C-9.726 2.992 -8.747 2.534 -7.738 2.062 C-6.889 1.662 -6.04 1.261 -5.165 0.848 C-3 0 -3 0 0 0 Z " fill="#04050E" transform="translate(170,193)"/>
</svg>
