<?xml version="1.0" ?>
<svg xmlns="http://www.w3.org/2000/svg" width="512" height="512" viewBox="0 0 512 512" style="background-color: transparent;">
  <path d="M 363 276 C 363 306, 364 307, 376 307 C 376 302, 377 301, 377 293 C 376 292, 376 276, 363 276 Z" fill="#fbfbfa"/>
  <path d="M 437 272 C 431 272, 430 273, 418 273 C 417 274, 407 274, 406 275 C 396 275, 395 276, 394 276 C 394 288, 395 289, 395 307 C 401 307, 402 306, 406 306 C 407 305, 411 305, 412 304 C 416 304, 417 303, 422 303 C 423 302, 427 302, 428 301 C 433 301, 434 300, 438 300 C 439 299, 439 284, 438 283 C 438 275, 437 274, 437 272 Z" fill="#fbfbfa"/>
  <path d="M 92 271 C 92 295, 99 295, 99 291 C 100 290, 100 271, 92 271 Z" fill="#fbfbfa"/>
  <path d="M 304 306 C 303 307, 301 307, 300 308 C 298 308, 296 310, 295 310 C 291 314, 291 315, 290 316 C 290 317, 289 318, 289 321 C 288 322, 288 336, 289 337 C 289 339, 290 340, 290 341 C 291 342, 291 343, 292 344 C 292 345, 297 350, 298 350 C 299 351, 300 351, 301 352 C 303 352, 304 353, 314 353 C 315 352, 317 352, 319 350 C 320 350, 324 346, 324 345 C 326 343, 326 342, 327 341 C 327 338, 328 337, 328 325 C 327 324, 327 322, 326 321 C 326 319, 325 318, 325 317 C 324 316, 324 315, 318 309 C 317 309, 316 308, 315 308 C 314 307, 311 307, 310 306 L 304 306 Z" fill="#8b867b"/>
  <path d="M 139 299 C 138 300, 137 300, 136 301 C 135 301, 132 304, 132 305 C 130 307, 130 309, 129 310 C 129 313, 128 314, 128 323 C 129 324, 129 327, 130 328 C 130 330, 131 331, 131 332 C 133 334, 133 335, 134 336 C 135 336, 137 338, 138 338 C 139 339, 140 339, 141 340 C 149 340, 150 339, 151 339 C 152 338, 153 338, 157 334 C 157 333, 158 332, 158 331 C 159 330, 159 327, 160 326 C 160 315, 159 314, 159 311 C 158 310, 158 308, 156 306 C 156 305, 151 300, 150 300 L 149 299 L 139 299 Z" fill="#8b867b"/>
  <path d="M 376 276 C 376 278, 375 279, 375 291 C 376 292, 376 299, 375 300 C 375 305, 374 306, 372 306 C 372 307, 371 308, 371 328 C 372 329, 372 335, 373 336 C 378 336, 379 337, 406 337 C 407 336, 409 336, 410 335 C 412 335, 413 334, 415 334 C 416 333, 418 333, 419 332 C 422 332, 423 331, 425 331 C 426 330, 428 330, 429 329 C 431 329, 432 328, 434 328 C 435 327, 438 327, 439 326 C 441 326, 442 325, 444 325 C 445 324, 447 324, 448 323 C 450 323, 450 321, 451 320 C 451 310, 450 309, 450 298 C 445 298, 444 297, 443 297 C 442 296, 438 296, 438 297 C 436 299, 432 299, 431 300 C 426 300, 425 301, 421 301 C 420 302, 415 302, 414 303 C 410 303, 409 304, 405 304 C 404 305, 400 305, 399 306 C 397 306, 396 305, 396 287 C 395 286, 395 276, 376 276 Z" fill="#8b867b"/>
  <path d="M 436 272 C 436 276, 440 276, 440 272 L 436 272 Z" fill="#8b867b"/>
  <path d="M 81 270 C 81 294, 80 295, 78 295 C 77 296, 74 296, 73 297 C 73 319, 78 319, 79 320 C 96 320, 97 319, 103 319 C 104 318, 111 318, 112 317 C 112 313, 98 313, 97 312 C 97 297, 96 296, 94 296 C 93 295, 93 270, 81 270 Z" fill="#8b867b"/>
  <path d="M 101 198 C 98 201, 98 202, 97 203 C 97 210, 98 211, 98 212 C 99 213, 99 214, 100 215 C 101 215, 102 216, 104 216 C 105 217, 112 217, 113 216 C 114 216, 117 213, 117 212 C 118 211, 118 203, 117 202 C 117 201, 114 198, 113 198 C 112 197, 103 197, 102 198 L 101 198 Z" fill="#8b867b"/>
  <path d="M 346 150 C 333 150, 332 151, 322 151 C 321 152, 310 152, 309 153 C 297 153, 296 154, 285 154 C 284 155, 274 155, 273 156 C 261 156, 260 157, 249 157 C 248 158, 244 158, 243 159 C 243 168, 247 168, 248 167 C 261 167, 262 166, 275 166 C 276 165, 289 165, 290 164 C 302 164, 303 163, 315 163 C 316 162, 329 162, 330 161 C 343 161, 344 160, 346 160 L 346 150 Z" fill="#8b867b"/>
  <path d="M 414 147 C 413 146, 412 146, 411 145 C 396 145, 395 146, 382 146 C 381 147, 370 147, 369 148 C 358 148, 357 149, 355 149 C 355 158, 356 159, 356 160 C 362 160, 363 161, 365 161 C 366 162, 387 162, 388 161 C 392 161, 392 160, 393 159 C 396 159, 397 160, 411 160 C 412 159, 414 159, 414 147 Z" fill="#8b867b"/>
  <path d="M 375 130 C 374 129, 373 129, 372 128 C 369 128, 368 127, 355 127 C 354 128, 344 128, 343 129 C 334 129, 333 130, 325 130 C 324 131, 315 131, 314 132 C 305 132, 304 133, 295 133 C 294 134, 285 134, 284 135 C 275 135, 274 136, 265 136 C 264 137, 255 137, 254 138 C 244 138, 243 139, 233 139 C 232 140, 223 140, 222 141 C 212 141, 211 142, 201 142 C 200 143, 190 143, 189 144 C 186 144, 185 145, 184 145 C 184 156, 185 157, 187 157 C 188 158, 199 158, 199 156 C 200 155, 202 155, 203 156 C 204 156, 205 157, 218 157 C 219 156, 230 156, 231 155 C 241 155, 242 154, 256 154 C 257 153, 268 153, 269 152 C 280 152, 281 151, 292 151 C 293 150, 305 150, 306 149 C 318 149, 319 148, 330 148 C 331 147, 343 147, 344 146 C 347 146, 347 145, 349 143 C 351 143, 352 144, 353 144 C 354 145, 368 145, 369 144 C 374 144, 374 143, 375 142 L 375 130 Z" fill="#8b867b"/>
  <path d="M 423 185 C 420 180, 413 175, 408 174 C 405 172, 403 172, 396 169 C 393 169, 386 166, 383 166 C 382 165, 380 165, 379 164 C 377 164, 364 159, 342 159 C 341 160, 328 160, 327 161 C 314 161, 313 162, 301 162 C 300 163, 288 163, 287 164 C 274 164, 273 165, 246 166 C 245 167, 237 167, 236 168 C 225 168, 224 169, 211 169 C 210 170, 197 170, 196 171 C 185 171, 184 172, 180 172 C 174 176, 167 190, 167 195 C 166 196, 166 201, 165 202 C 165 208, 164 209, 164 215 C 163 216, 163 221, 162 222 C 162 228, 161 229, 161 236 C 160 237, 160 239, 159 240 C 105 240, 104 241, 87 241 C 84 243, 81 249, 81 271 C 91 271, 92 272, 98 272 C 99 273, 99 290, 98 291 C 98 293, 97 294, 95 294 C 95 298, 96 299, 96 314 C 106 314, 106 306, 107 305 C 108 296, 110 294, 110 292 C 115 283, 123 274, 124 274 C 128 270, 134 267, 136 267 C 140 265, 149 265, 150 266 C 155 267, 162 271, 165 274 C 166 274, 173 282, 178 292 C 180 294, 180 296, 183 302 C 183 306, 184 307, 184 318 C 194 318, 195 319, 213 319 C 214 320, 233 320, 234 321 C 254 321, 255 322, 259 322 C 259 319, 260 318, 260 308 C 261 307, 261 304, 262 303 C 263 298, 269 287, 280 276 C 286 272, 295 268, 298 268 C 299 267, 305 267, 306 266 C 315 267, 316 268, 319 268 C 320 269, 327 271, 339 279 C 344 284, 344 285, 350 292 C 352 297, 355 301, 358 312 C 361 318, 361 321, 362 322 C 362 328, 363 329, 372 329 C 372 307, 369 307, 364 305 C 364 278, 365 277, 393 277 C 394 276, 405 276, 406 275 C 417 275, 418 274, 439 273 C 439 266, 438 265, 438 261 C 437 260, 437 255, 436 254 C 436 249, 435 248, 435 244 C 434 243, 433 232, 432 231 C 432 227, 431 226, 431 222 C 430 221, 430 217, 429 216 C 429 212, 428 211, 428 207 C 427 206, 427 201, 426 200 C 426 196, 425 195, 425 191 L 424 190 L 423 185 Z" fill="#005dbc"/>
  <path d="M 245 192 C 245 193, 246 194, 246 197 C 247 198, 247 211, 246 212 C 246 226, 245 227, 245 229 C 243 231, 242 231, 241 232 C 216 232, 215 233, 189 233 C 187 231, 187 230, 186 229 C 186 210, 187 209, 187 194 C 190 191, 192 191, 193 190 C 203 190, 204 189, 219 189 C 220 188, 241 188, 245 192 Z" fill="#005dbc"/>
  <path d="M 384 183 C 387 183, 388 184, 391 184 C 392 185, 395 185, 396 186 C 398 186, 399 187, 402 187 C 403 188, 406 188, 407 189 C 410 189, 411 190, 414 190 C 415 191, 416 191, 418 193 C 418 195, 419 196, 419 201 C 420 202, 420 206, 421 207 C 421 210, 422 211, 422 215 C 423 216, 423 221, 424 222 C 424 227, 425 228, 425 231 C 424 232, 418 232, 417 231 C 407 231, 406 230, 397 230 C 396 229, 392 229, 391 228 C 391 227, 390 226, 390 225 C 389 224, 389 222, 388 221 C 388 216, 387 215, 387 210 C 386 209, 386 202, 385 201 C 385 196, 384 195, 384 190 C 383 189, 383 184, 384 183 Z" fill="#005dbc"/>
  <path d="M 348 186 C 348 187, 349 188, 349 190 C 350 191, 350 198, 351 199 C 351 208, 352 209, 352 216 C 353 217, 353 226, 350 229 C 348 229, 347 230, 289 230 C 288 231, 278 231, 277 230 C 276 230, 275 229, 275 228 C 274 227, 274 225, 273 224 C 273 209, 274 208, 274 188 C 277 185, 285 185, 286 184 C 303 184, 304 183, 320 183 C 321 182, 343 182, 344 183 L 345 183 L 348 186 Z" fill="#005dbc"/>
  <path d="M 267 321 C 267 333, 268 334, 268 340 C 269 341, 269 344, 270 345 C 270 347, 271 348, 271 350 C 272 351, 272 352, 273 353 C 273 354, 274 355, 274 356 C 275 357, 275 358, 277 360 C 277 361, 287 371, 288 371 C 290 373, 291 373, 292 374 C 293 374, 294 375, 295 375 C 296 376, 297 376, 298 377 C 300 377, 301 378, 305 378 C 306 379, 318 379, 319 378 C 323 378, 324 377, 326 377 C 327 376, 329 376, 330 375 C 332 375, 333 374, 334 374 C 335 373, 337 373, 338 372 C 339 372, 340 371, 341 371 C 344 368, 345 368, 347 366 C 348 366, 354 360, 356 360 C 357 361, 370 361, 371 360 C 374 360, 375 359, 377 359 C 378 358, 380 358, 381 357 C 382 357, 383 356, 384 356 C 385 355, 386 355, 387 354 C 388 354, 389 353, 390 353 C 392 351, 393 351, 401 343 C 401 342, 403 340, 403 336 C 382 336, 382 338, 381 339 C 380 339, 380 341, 379 342 C 375 342, 375 343, 374 344 C 373 344, 370 347, 363 347 C 362 346, 362 345, 363 344 C 363 341, 364 340, 364 335 C 365 334, 365 328, 364 327 C 363 327, 361 325, 359 325 C 357 323, 357 322, 356 321 C 356 319, 355 318, 355 317 C 354 317, 351 314, 351 313 C 350 312, 350 311, 349 310 C 349 309, 348 308, 348 307 C 347 306, 347 304, 346 303 C 346 302, 345 301, 345 300 C 344 299, 344 298, 339 293 C 339 292, 338 292, 335 289 C 334 289, 332 287, 331 287 C 329 285, 328 285, 327 284 C 326 284, 325 283, 324 283 C 323 282, 322 282, 321 281 C 301 281, 300 282, 297 282 C 296 283, 293 283, 292 284 C 291 284, 290 285, 289 285 C 288 286, 287 286, 276 297 C 276 298, 275 299, 275 300 C 273 302, 273 303, 272 304 C 272 305, 271 306, 271 308 C 270 309, 270 310, 269 311 C 269 314, 268 315, 268 320 L 267 321 Z" fill="#262a35"/>
  <path d="M 306 307 C 308 307, 309 308, 312 308 C 313 309, 314 309, 315 310 C 316 310, 323 317, 323 318 C 324 319, 324 320, 325 321 C 325 323, 326 324, 326 326 C 327 327, 327 335, 326 336 C 326 339, 325 340, 325 341 C 323 343, 323 344, 318 349 C 317 349, 315 351, 313 351 C 312 352, 306 352, 305 351 C 303 351, 302 350, 301 350 C 300 349, 299 349, 293 343 C 293 342, 292 341, 292 340 C 291 339, 291 338, 290 337 C 290 335, 289 334, 289 324 C 290 323, 290 320, 291 319 C 291 318, 292 317, 292 316 C 297 311, 298 311, 300 309 C 302 309, 303 308, 305 308 L 306 307 Z" fill="#262a35"/>
  <path d="M 111 309 C 111 326, 112 327, 112 331 C 113 332, 113 334, 114 335 C 114 337, 115 338, 115 339 C 116 340, 116 341, 117 342 C 117 343, 118 344, 118 345 C 119 346, 119 347, 122 350 C 122 351, 127 356, 128 356 C 131 359, 132 359, 133 360 C 134 360, 135 361, 136 361 C 137 362, 140 362, 141 363 C 153 363, 154 362, 158 362 C 159 361, 163 361, 164 360 C 167 360, 168 359, 170 359 C 171 358, 172 358, 173 357 C 174 357, 175 356, 176 356 C 179 353, 180 353, 183 350 C 183 349, 186 346, 186 345 C 188 343, 188 342, 189 341 C 189 340, 190 339, 190 338 C 191 337, 199 345, 202 345 C 203 346, 203 347, 204 347 C 205 348, 207 348, 208 349 C 220 349, 221 348, 225 348 C 226 347, 229 347, 230 346 C 233 346, 234 345, 235 345 C 236 344, 237 344, 238 343 C 239 343, 241 341, 242 341 C 248 335, 248 334, 250 332 C 250 331, 251 330, 251 329 C 252 328, 252 327, 253 326 C 253 325, 254 324, 254 320 C 238 320, 238 322, 237 323 C 236 323, 234 325, 234 326 C 233 327, 233 328, 229 332 C 229 333, 228 334, 227 334 C 227 336, 226 337, 225 337 C 225 338, 223 340, 222 340 C 221 341, 220 341, 220 342 C 218 344, 209 344, 208 343 C 204 343, 203 342, 203 341 C 202 340, 202 339, 200 337 C 199 337, 197 335, 197 334 C 196 333, 196 332, 195 331 C 195 330, 194 330, 193 329 C 193 317, 186 317, 185 316 C 185 313, 184 312, 183 312 C 181 310, 181 309, 180 308 C 180 307, 178 305, 178 304 C 177 303, 177 302, 176 301 C 176 300, 175 299, 175 298 C 171 294, 171 293, 170 292 C 170 291, 166 287, 166 286 C 162 282, 160 282, 158 280 C 157 280, 156 279, 155 279 C 154 278, 151 278, 150 277 C 138 277, 137 278, 135 278 C 134 279, 132 279, 131 280 C 130 280, 129 281, 128 281 C 120 289, 120 290, 118 292 C 118 293, 116 295, 116 296 C 115 297, 115 298, 114 299 C 114 301, 113 302, 113 304 C 112 305, 112 308, 111 309 Z" fill="#262a35"/>
  <path d="M 141 300 C 147 300, 148 301, 149 301 C 155 307, 155 308, 157 310 C 157 312, 158 313, 158 316 C 159 317, 159 324, 158 325 C 158 328, 157 329, 157 330 C 156 331, 156 332, 151 337 C 150 337, 149 338, 148 338 C 147 339, 143 339, 142 338 C 141 338, 140 337, 139 337 C 137 335, 136 335, 134 333 C 134 332, 132 330, 132 329 C 131 328, 131 326, 130 325 C 130 322, 129 321, 129 316 C 130 315, 130 312, 131 311 C 131 309, 133 307, 133 306 C 137 302, 138 302, 139 301 L 140 301 L 141 300 Z" fill="#262a35"/>
  <path d="M 105 219 C 105 241, 114 241, 114 219 L 105 219 Z" fill="#262a35"/>
  <path d="M 247 192 C 245 192, 244 191, 223 191 C 222 192, 208 192, 207 193 C 193 193, 192 194, 188 194 C 188 195, 187 196, 186 196 C 186 207, 185 208, 185 231 C 186 232, 186 233, 187 234 C 217 234, 218 233, 243 233 C 244 232, 245 232, 246 231 C 246 229, 247 228, 247 214 C 248 213, 248 196, 247 195 L 247 192 Z" fill="#262a35"/>
  <path d="M 382 185 C 382 191, 383 192, 383 197 C 384 198, 384 203, 385 204 C 385 211, 386 212, 386 217 C 387 218, 387 223, 388 224 C 388 226, 389 227, 389 228 C 390 229, 390 230, 394 230 C 395 231, 404 231, 405 232 C 415 232, 416 233, 426 233 C 426 226, 425 225, 425 220 C 424 219, 424 214, 423 213 C 423 209, 422 208, 422 205 C 421 204, 421 200, 420 200 C 419 199, 419 198, 418 197 C 418 196, 417 195, 417 194 C 415 192, 413 192, 412 191 C 409 191, 408 190, 406 190 C 405 189, 402 189, 401 188 C 398 188, 397 187, 394 187 C 393 186, 390 186, 389 185 L 382 185 Z" fill="#262a35"/>
  <path d="M 350 186 C 348 186, 347 185, 341 185 C 340 186, 314 186, 313 187 C 296 187, 295 188, 280 188 C 279 189, 273 189, 273 206 C 272 207, 272 226, 273 227 C 273 229, 274 230, 274 231 C 275 231, 276 232, 290 232 C 291 231, 346 231, 347 230 C 352 230, 354 228, 354 215 C 353 214, 353 207, 352 206 C 352 197, 351 196, 351 189 L 350 188 L 350 186 Z" fill="#262a35"/>
  <path d="M 391 158 C 391 162, 390 163, 390 169 C 391 170, 394 170, 395 171 C 400 171, 400 167, 399 166 C 399 159, 398 158, 391 158 Z" fill="#262a35"/>
  <path d="M 198 154 C 198 158, 197 159, 197 171 C 207 171, 207 156, 206 155 C 205 155, 204 154, 198 154 Z" fill="#262a35"/>
  <path d="M 347 142 C 346 143, 346 144, 345 145 C 345 160, 356 160, 356 150 C 355 149, 355 143, 354 143 L 353 142 L 347 142 Z" fill="#262a35"/>
  <path d="M 364 328 C 364 332, 363 333, 363 338 C 362 339, 362 342, 361 343 C 361 347, 363 347, 364 348 C 372 348, 375 345, 376 345 C 376 344, 377 343, 380 343 C 380 341, 381 340, 382 340 C 382 336, 376 336, 375 335 C 374 335, 373 334, 373 333 C 372 332, 372 329, 371 329 L 370 328 L 364 328 Z" fill="#050508"/>
  <path d="M 192 331 C 193 331, 194 332, 194 333 C 195 334, 195 335, 196 336 C 196 337, 197 338, 198 338 C 201 341, 201 342, 203 344 C 209 344, 210 345, 220 345 C 221 344, 221 343, 222 342 C 223 342, 224 341, 225 341 C 226 340, 226 339, 227 338 C 228 338, 228 336, 229 335 C 230 335, 230 334, 234 330 C 234 329, 235 328, 235 327 C 238 324, 239 324, 239 320 C 229 320, 228 319, 210 319 C 209 318, 192 318, 192 331 Z" fill="#050508"/>
  <path d="M 260 303 C 260 309, 259 310, 259 322 C 265 322, 266 321, 269 321 C 269 317, 270 316, 270 313 C 271 312, 271 311, 272 310 C 272 308, 273 307, 273 306 C 274 305, 274 304, 276 302 C 276 301, 277 300, 277 299 C 289 287, 290 287, 291 286 C 292 286, 293 285, 294 285 C 295 284, 298 284, 299 283 C 302 283, 303 282, 319 282 C 320 283, 321 283, 322 284 C 323 284, 324 285, 325 285 C 326 286, 327 286, 329 288 C 330 288, 332 290, 333 290 C 336 293, 337 293, 338 294 C 338 295, 343 300, 343 301 C 344 302, 344 303, 345 304 C 345 305, 346 306, 346 308 C 347 309, 347 310, 348 311 C 348 312, 349 313, 349 314 C 350 315, 350 316, 352 318 C 353 318, 354 319, 354 320 C 355 321, 355 323, 356 324 C 356 325, 357 326, 362 326 C 362 318, 361 317, 361 314 C 360 313, 360 312, 359 311 C 359 309, 358 308, 358 307 C 357 306, 357 304, 356 303 C 356 301, 355 300, 355 298 C 353 296, 353 295, 352 294 C 352 293, 351 292, 351 291 C 349 289, 349 288, 347 286 C 347 285, 339 277, 338 277 C 336 275, 335 275, 333 273 C 332 273, 330 271, 329 271 C 328 270, 327 270, 326 269 C 324 269, 323 268, 320 268 C 319 267, 317 267, 316 266 C 299 266, 298 267, 294 267 C 293 268, 291 268, 290 269 C 289 269, 288 270, 287 270 C 286 271, 285 271, 284 272 C 283 272, 281 274, 280 274 C 277 277, 276 277, 270 283 C 270 284, 267 287, 267 288 C 266 289, 266 290, 265 291 C 265 292, 264 293, 264 294 C 263 295, 263 296, 262 297 C 262 299, 261 300, 261 302 L 260 303 Z" fill="#050508"/>
  <path d="M 105 305 C 105 313, 112 313, 112 311 C 113 310, 113 307, 114 306 C 114 304, 115 303, 115 301 C 116 300, 116 299, 117 298 C 117 297, 119 295, 119 294 C 121 292, 121 291, 130 282 C 131 282, 132 281, 133 281 C 134 280, 136 280, 137 279 C 139 279, 140 278, 148 278 C 149 279, 152 279, 153 280 C 154 280, 155 281, 156 281 C 158 283, 160 283, 165 288 C 165 289, 169 293, 169 294 C 170 295, 170 296, 174 300 C 174 301, 175 302, 175 303 C 176 304, 176 305, 177 306 C 177 307, 179 309, 179 310 C 180 311, 180 312, 181 313 C 185 313, 185 308, 184 307 C 184 302, 183 301, 183 298 C 182 297, 182 296, 181 295 C 181 293, 180 292, 180 291 C 179 290, 179 289, 178 288 C 178 287, 176 285, 176 284 C 174 282, 174 281, 172 279 C 172 278, 165 271, 164 271 C 162 269, 161 269, 159 267 C 157 267, 156 266, 154 266 C 153 265, 150 265, 149 264 C 140 264, 139 265, 136 265 C 135 266, 133 266, 132 267 C 130 267, 129 268, 128 268 C 125 271, 124 271, 116 279 C 116 280, 114 282, 114 283 C 112 285, 112 286, 111 287 C 111 288, 110 289, 110 290 C 109 291, 109 293, 108 294 C 108 296, 107 297, 107 299 C 106 300, 106 304, 105 305 Z" fill="#050508"/>
  <path d="M 105 216 C 105 220, 113 220, 113 216 L 105 216 Z" fill="#050508"/>
  <path d="M 243 188 C 242 187, 229 187, 228 188 C 212 188, 211 189, 195 189 C 194 190, 190 190, 189 191 C 189 195, 194 195, 195 194 C 209 194, 210 193, 224 193 C 225 192, 243 192, 243 188 Z" fill="#050508"/>
  <path d="M 383 182 C 383 186, 387 186, 387 182 L 383 182 Z" fill="#050508"/>
  <path d="M 346 182 C 344 182, 343 181, 330 181 C 329 182, 311 182, 310 183 C 295 183, 294 184, 276 184 C 274 186, 274 190, 278 190 C 279 189, 297 189, 298 188 C 315 188, 316 187, 342 187 C 343 186, 346 186, 346 182 Z" fill="#050508"/>
</svg>
