<?xml version="1.0" ?>
<svg xmlns="http://www.w3.org/2000/svg" width="512" height="512" viewBox="0 0 512 512" style="background-color: transparent;">
  <path d="M 414 274 C 414 294, 415 295, 415 302 C 426 302, 427 301, 428 301 C 428 279, 427 278, 427 274 L 414 274 Z" fill="#f8f8f5"/>
  <path d="M 88 273 C 88 300, 98 300, 98 296 C 99 295, 99 273, 88 273 Z" fill="#f8f8f5"/>
  <path d="M 426 274 C 426 280, 427 281, 427 302 C 441 302, 441 288, 440 287 C 440 277, 439 276, 439 274 L 426 274 Z" fill="#f0a003"/>
  <path d="M 70 273 C 70 275, 69 276, 69 297 C 70 298, 70 302, 86 302 C 87 301, 88 301, 88 298 C 89 297, 89 273, 70 273 Z" fill="#f0a003"/>
  <path d="M 354 304 C 353 305, 351 305, 350 306 C 349 306, 348 307, 347 307 C 342 312, 342 313, 341 314 C 341 316, 340 317, 340 319 C 339 320, 339 331, 340 332 C 340 334, 341 335, 341 336 C 342 337, 342 338, 344 340 C 344 341, 345 341, 349 345 C 350 345, 351 346, 354 346 C 355 347, 364 347, 365 346 C 367 346, 368 345, 369 345 C 370 344, 371 344, 373 342 C 374 342, 375 341, 375 340 C 377 338, 377 337, 378 336 C 378 335, 379 334, 379 332 C 380 331, 380 320, 379 319 C 379 317, 378 316, 378 314 C 376 312, 376 311, 372 307 C 371 307, 370 306, 369 306 C 368 305, 367 305, 366 304 L 354 304 Z" fill="#8f9295"/>
  <path d="M 158 303 C 157 304, 155 304, 154 305 C 153 305, 152 306, 151 306 C 146 311, 146 312, 145 313 C 145 315, 144 316, 144 317 C 143 318, 143 331, 144 332 C 144 334, 145 335, 145 336 C 147 338, 147 339, 150 342 C 151 342, 153 344, 154 344 C 155 345, 157 345, 158 346 C 170 346, 171 345, 173 345 C 174 344, 175 344, 176 343 C 177 343, 181 339, 181 338 C 183 336, 183 334, 184 333 C 184 331, 185 330, 185 320 C 184 319, 184 316, 183 315 C 183 314, 182 313, 182 312 C 180 310, 180 309, 178 307 C 177 307, 175 305, 174 305 C 173 304, 171 304, 170 303 L 158 303 Z" fill="#8f9295"/>
  <path d="M 61 302 C 61 304, 60 305, 60 327 C 61 328, 94 328, 96 326 C 97 326, 98 325, 99 325 C 99 321, 96 321, 95 320 C 96 319, 96 303, 95 302 C 77 302, 76 301, 64 301 L 63 302 L 61 302 Z" fill="#8f9295"/>
  <path d="M 450 301 C 448 301, 447 300, 440 300 C 439 301, 423 301, 423 320 C 424 321, 424 326, 425 327 C 436 327, 437 328, 446 328 C 447 327, 451 327, 451 303 L 450 302 L 450 301 Z" fill="#8f9295"/>
  <path d="M 382 244 C 382 246, 381 247, 381 256 C 385 260, 408 260, 409 259 C 409 258, 410 257, 410 248 C 409 247, 409 245, 408 244 C 407 244, 406 243, 384 243 L 383 244 L 382 244 Z" fill="#00a9e2"/>
  <path d="M 254 246 C 254 255, 255 256, 255 257 C 256 258, 285 258, 286 257 C 287 257, 287 256, 288 255 C 288 244, 286 242, 260 242 C 259 243, 256 243, 255 244 L 255 245 L 254 246 Z" fill="#00a9e2"/>
  <path d="M 122 201 C 120 203, 120 212, 121 213 C 121 215, 122 216, 122 218 C 123 219, 133 219, 135 217 C 136 217, 136 216, 137 215 C 137 214, 138 213, 138 207 C 137 206, 137 205, 136 204 C 136 203, 134 201, 132 201 C 131 200, 124 200, 123 201 L 122 201 Z" fill="#737476"/>
  <path d="M 96 191 C 95 192, 95 194, 94 195 C 93 195, 93 200, 94 201 C 94 205, 95 206, 95 207 C 96 208, 96 209, 97 210 C 97 211, 99 211, 100 212 C 109 212, 111 210, 112 210 C 114 208, 114 207, 115 206 C 115 197, 114 196, 114 195 C 110 191, 109 191, 108 190 C 98 190, 97 191, 96 191 Z" fill="#737476"/>
  <path d="M 391 162 C 391 168, 396 168, 396 164 C 395 163, 395 162, 391 162 Z" fill="#737476"/>
  <path d="M 214 157 C 213 158, 213 165, 214 166 C 214 168, 215 169, 224 169 C 224 162, 225 161, 225 156 C 217 156, 216 157, 214 157 Z" fill="#737476"/>
  <path d="M 206 141 C 206 151, 208 154, 225 154 C 225 153, 226 152, 229 152 C 230 153, 230 154, 277 154 C 278 155, 277 156, 231 156 C 231 168, 233 168, 234 169 C 283 169, 284 168, 309 168 C 310 169, 314 169, 315 168 C 388 168, 388 156, 390 153 C 393 153, 394 154, 394 155 C 410 155, 411 154, 412 154 C 412 151, 413 150, 413 143 C 412 142, 412 141, 409 139 C 212 139, 211 140, 207 140 L 206 141 Z" fill="#737476"/>
  <path d="M 421 178 C 418 173, 414 170, 410 168 C 402 168, 401 167, 313 167 C 312 168, 311 167, 282 167 C 281 168, 207 168, 202 170 C 199 173, 195 180, 195 182 C 193 186, 193 191, 192 192 C 192 197, 191 198, 191 203 C 190 204, 190 209, 189 210 C 189 215, 188 216, 186 233 C 184 238, 181 238, 180 239 C 76 239, 74 240, 70 247 C 70 273, 86 273, 87 274 C 98 274, 99 275, 99 280 C 98 281, 98 298, 97 299 C 92 299, 92 303, 94 303 C 95 304, 95 321, 108 321 C 109 312, 112 304, 112 301 C 115 298, 117 293, 120 290 C 123 285, 125 284, 133 276 C 146 269, 148 269, 152 267 C 155 267, 156 266, 164 266 C 165 265, 185 270, 194 276 C 205 287, 213 299, 213 301 C 215 304, 215 307, 216 308 C 216 314, 217 315, 217 321 C 261 321, 262 320, 263 321 C 268 321, 269 320, 280 321 C 281 320, 307 320, 307 311 C 308 310, 309 301, 316 288 C 327 277, 333 273, 344 268 C 352 267, 353 266, 366 266 C 367 267, 377 269, 388 275 C 393 280, 394 280, 404 292 C 404 294, 408 300, 409 305 C 411 308, 411 310, 413 314 C 413 319, 414 321, 424 322 C 424 302, 416 301, 415 300 C 415 276, 416 275, 439 274 C 439 270, 438 269, 436 252 C 435 251, 435 247, 434 246 C 433 235, 432 234, 430 220 C 429 219, 428 211, 427 210 C 427 205, 426 204, 426 200 C 425 199, 425 194, 424 193 C 424 189, 423 188, 423 184 L 422 183 L 421 178 Z" fill="#005abb"/>
  <path d="M 382 249 C 383 248, 383 246, 384 245 C 385 245, 386 244, 404 244 C 405 245, 406 245, 408 247 C 408 249, 409 250, 409 255 C 408 256, 408 257, 406 259 C 387 259, 382 254, 382 249 Z" fill="#005abb"/>
  <path d="M 255 248 C 256 247, 256 246, 258 244 C 261 244, 262 243, 284 243 C 287 246, 287 253, 286 254 C 286 255, 285 256, 284 256 C 283 257, 258 257, 256 255 C 256 254, 255 253, 255 248 Z" fill="#005abb"/>
  <path d="M 218 193 C 222 189, 224 189, 225 188 C 284 188, 285 189, 286 189 C 291 194, 291 197, 292 198 C 292 219, 291 220, 291 227 C 289 229, 289 230, 288 231 C 287 231, 286 232, 221 232 C 218 229, 218 226, 217 225 C 217 215, 218 214, 218 193 Z" fill="#005abb"/>
  <path d="M 322 191 C 325 188, 327 188, 328 187 C 331 187, 332 188, 336 188 C 337 187, 338 187, 339 188 C 359 188, 360 187, 367 187 C 368 188, 394 188, 395 189 C 396 189, 400 193, 400 194 C 401 195, 401 199, 402 200 C 402 210, 403 211, 403 217 C 404 218, 404 224, 405 225 C 405 227, 404 228, 404 229 C 402 231, 401 231, 400 232 C 350 232, 349 231, 345 231 C 344 232, 327 232, 326 231 C 325 231, 323 229, 323 228 L 322 227 L 322 191 Z" fill="#005abb"/>
  <path d="M 348 280 C 347 281, 345 281, 344 282 C 342 282, 341 283, 339 283 C 337 285, 336 285, 335 286 C 334 286, 323 297, 323 298 C 321 300, 321 301, 319 303 C 319 304, 317 306, 317 307 C 316 308, 316 310, 315 311 C 315 313, 314 314, 314 323 C 313 324, 313 329, 314 330 C 314 334, 313 335, 312 335 C 312 339, 315 342, 315 343 C 316 343, 318 345, 318 346 C 319 347, 319 348, 320 349 C 320 350, 322 352, 322 353 C 332 363, 333 363, 335 365 C 336 365, 338 367, 339 367 C 340 368, 342 368, 343 369 C 344 369, 345 370, 348 370 C 349 371, 367 371, 368 370 C 371 370, 372 369, 374 369 C 375 368, 377 368, 379 366 C 380 366, 381 365, 382 365 C 383 364, 384 364, 387 361 C 388 361, 394 355, 394 354 C 397 351, 397 350, 399 348 C 399 347, 400 346, 400 345 C 401 344, 401 343, 402 342 C 402 340, 403 339, 403 336 C 404 335, 404 331, 405 330 C 405 321, 404 320, 404 316 C 403 315, 403 313, 402 312 C 402 310, 401 309, 401 308 C 400 307, 400 306, 399 305 C 399 304, 398 303, 398 302 C 396 300, 396 299, 392 295 C 392 294, 389 291, 388 291 C 384 287, 383 287, 381 285 C 380 285, 378 283, 377 283 C 376 282, 374 282, 373 281 C 370 281, 369 280, 364 280 C 363 279, 354 279, 353 280 L 348 280 Z" fill="#282c37"/>
  <path d="M 362 304 C 363 305, 365 305, 366 306 C 367 306, 368 307, 369 307 C 370 308, 371 308, 375 312 C 375 313, 377 315, 377 316 C 378 317, 378 319, 379 320 C 379 323, 380 324, 380 326 C 379 327, 379 331, 378 332 C 378 334, 376 336, 376 337 C 370 343, 369 343, 367 345 C 365 345, 364 346, 360 346 C 359 347, 358 346, 355 346 C 354 345, 352 345, 351 344 C 350 344, 343 337, 343 336 C 342 335, 342 334, 341 333 C 341 332, 340 331, 340 319 C 341 318, 341 317, 342 316 C 342 315, 343 314, 343 313 C 348 308, 349 308, 350 307 C 351 307, 352 306, 353 306 C 354 305, 356 305, 357 304 L 362 304 Z" fill="#282c37"/>
  <path d="M 156 279 C 155 280, 152 280, 151 281 C 149 281, 148 282, 146 282 C 145 283, 144 283, 143 284 C 141 284, 139 286, 138 286 C 135 289, 134 289, 130 293 C 130 294, 124 300, 124 301 C 123 302, 123 303, 122 304 C 122 305, 121 306, 121 307 C 119 309, 119 310, 118 311 C 118 314, 117 315, 117 335 C 118 336, 118 339, 119 340 C 119 341, 120 342, 120 344 C 121 345, 121 346, 122 347 C 122 348, 124 350, 124 351 C 125 352, 125 353, 134 362 C 135 362, 137 364, 138 364 C 140 366, 141 366, 142 367 C 143 367, 144 368, 146 368 C 147 369, 148 369, 149 370 C 152 370, 153 371, 171 371 C 172 370, 175 370, 176 369 C 178 369, 179 368, 180 368 C 181 367, 182 367, 183 366 C 184 366, 185 365, 186 365 C 187 364, 188 364, 191 361 C 192 361, 199 354, 199 353 C 201 351, 201 350, 203 348 C 203 347, 204 346, 204 345 C 206 343, 206 342, 207 341 C 207 339, 209 337, 209 336 C 211 334, 211 330, 210 329 C 210 314, 208 314, 207 313 C 207 312, 206 311, 206 309 C 205 308, 205 307, 204 306 C 204 304, 202 302, 202 301 C 201 300, 201 299, 198 296 C 198 295, 190 287, 189 287 C 187 285, 186 285, 185 284 C 184 284, 183 283, 182 283 C 181 282, 180 282, 179 281 C 177 281, 176 280, 173 280 L 172 279 L 156 279 Z" fill="#282c37"/>
  <path d="M 162 303 C 167 303, 168 304, 170 304 C 171 305, 172 305, 173 306 C 174 306, 175 307, 176 307 C 178 309, 178 310, 181 313 C 181 314, 182 315, 182 316 C 183 317, 183 318, 184 319 C 184 330, 183 331, 183 333 C 182 334, 182 335, 179 338 C 179 339, 177 341, 176 341 C 174 343, 173 343, 172 344 C 171 344, 170 345, 168 345 C 167 346, 162 346, 161 345 C 158 345, 157 344, 156 344 C 155 343, 154 343, 152 341 C 151 341, 148 338, 148 337 C 146 335, 146 334, 145 333 C 145 332, 144 331, 144 328 C 143 327, 143 322, 144 321 C 144 318, 145 317, 145 316 C 146 315, 146 314, 148 312 C 148 311, 151 308, 152 308 C 154 306, 155 306, 156 305 C 157 305, 158 304, 161 304 L 162 303 Z" fill="#282c37"/>
  <path d="M 124 222 C 124 240, 132 240, 132 223 C 131 223, 130 222, 124 222 Z" fill="#282c37"/>
  <path d="M 100 215 C 100 240, 109 240, 109 216 C 105 216, 104 215, 100 215 Z" fill="#282c37"/>
  <path d="M 217 198 C 217 212, 216 213, 216 227 C 217 228, 217 231, 219 233 C 288 233, 289 232, 290 232 C 290 231, 292 229, 292 222 C 291 221, 291 199, 290 198 C 290 197, 289 196, 289 195 C 287 193, 285 193, 284 192 C 226 192, 225 193, 224 193 C 223 194, 222 194, 220 196 C 219 196, 219 197, 218 198 L 217 198 Z" fill="#282c37"/>
  <path d="M 321 193 C 321 229, 322 230, 322 231 C 323 232, 324 232, 325 233 C 346 233, 347 232, 348 233 C 402 233, 403 232, 404 232 C 405 231, 405 230, 406 229 C 406 223, 405 222, 405 216 C 404 215, 404 209, 403 208 C 403 207, 402 206, 402 202 C 401 201, 401 197, 400 196 C 400 194, 399 193, 398 193 C 397 192, 362 192, 361 191 C 354 191, 353 192, 322 192 L 321 193 Z" fill="#282c37"/>
  <path d="M 388 152 C 388 153, 387 154, 387 165 C 392 165, 392 164, 393 163 C 396 163, 396 154, 395 153 L 395 152 L 388 152 Z" fill="#282c37"/>
  <path d="M 224 151 C 224 159, 223 160, 223 169 C 232 169, 232 153, 231 152 L 231 151 L 224 151 Z" fill="#282c37"/>
  <path d="M 307 318 C 307 325, 308 326, 308 327 C 309 328, 309 329, 310 330 C 310 332, 311 333, 311 334 C 315 334, 315 328, 314 327 C 314 326, 315 325, 315 317 C 310 317, 309 318, 307 318 Z" fill="#121720"/>
  <path d="M 205 307 C 205 313, 206 314, 208 314 C 209 315, 209 328, 213 328 C 213 327, 214 326, 214 324 C 215 323, 215 316, 214 315 C 211 315, 210 314, 210 310 C 209 309, 209 307, 205 307 Z" fill="#121720"/>
  <path d="M 287 192 C 287 196, 288 197, 288 198 C 292 198, 292 193, 291 192 L 287 192 Z" fill="#121720"/>
  <path d="M 227 190 C 221 190, 220 191, 218 191 C 217 192, 217 197, 222 197 C 224 195, 225 195, 226 194 L 227 194 L 227 190 Z" fill="#121720"/>
  <path d="M 308 301 C 308 306, 307 307, 307 319 C 311 319, 312 318, 313 318 C 315 316, 315 313, 316 312 C 316 310, 317 309, 317 308 C 318 307, 318 306, 319 305 C 319 303, 320 302, 320 301 C 322 299, 322 298, 324 296 C 325 296, 325 295, 334 286 C 336 286, 337 285, 338 285 C 340 283, 342 283, 343 282 C 345 282, 346 281, 352 281 C 353 280, 365 280, 366 281 C 370 281, 371 282, 373 282 C 374 283, 375 283, 376 284 C 377 284, 379 286, 380 286 C 383 289, 384 289, 394 299 C 394 300, 396 302, 396 303 C 398 305, 398 306, 399 307 C 399 308, 400 309, 400 310 C 401 311, 401 312, 402 313 C 402 315, 403 316, 403 319 C 404 319, 405 320, 406 320 C 407 321, 407 322, 408 323 C 412 323, 413 322, 414 322 C 414 315, 413 314, 413 311 C 412 310, 412 308, 411 307 C 411 305, 410 304, 410 302 C 408 300, 408 298, 407 297 C 407 295, 406 294, 406 293 C 404 291, 404 290, 403 289 C 403 288, 400 285, 400 284 C 393 277, 392 277, 389 274 C 388 274, 387 273, 386 273 C 384 271, 383 271, 382 270 C 381 270, 380 269, 379 269 C 378 268, 376 268, 375 267 C 371 267, 370 266, 365 266 C 364 265, 355 265, 354 266 C 348 266, 347 267, 343 267 C 342 268, 340 268, 339 269 C 338 269, 337 270, 336 270 C 335 271, 334 271, 332 273 C 331 273, 330 274, 329 274 C 327 276, 326 276, 315 287 C 315 288, 314 289, 314 290 C 312 292, 312 293, 311 294 C 311 295, 310 296, 310 297 C 309 298, 309 300, 308 301 Z" fill="#020203"/>
  <path d="M 108 312 C 108 322, 109 323, 109 324 C 113 324, 115 322, 115 318 C 116 317, 118 317, 118 316 C 119 315, 119 312, 120 311 C 120 310, 121 309, 121 308 C 123 306, 123 305, 124 304 C 124 303, 125 302, 125 301 C 127 299, 127 298, 134 291 C 135 291, 139 287, 140 287 C 142 285, 143 285, 144 284 C 145 284, 146 283, 148 283 C 149 282, 151 282, 152 281 C 155 281, 156 280, 159 280 C 160 279, 167 279, 168 280 C 173 280, 174 281, 176 281 C 177 282, 178 282, 179 283 C 181 283, 182 284, 183 284 C 185 286, 186 286, 188 288 C 189 288, 196 295, 196 296 C 203 303, 203 304, 205 306 C 205 307, 206 308, 207 308 C 208 309, 208 311, 209 312 C 209 316, 212 316, 213 317 C 217 317, 217 309, 216 308 C 216 304, 215 303, 215 301 C 214 300, 214 299, 213 298 C 213 297, 212 296, 212 295 C 210 293, 210 292, 208 290 C 208 289, 206 287, 206 286 C 202 282, 202 281, 199 278 C 198 278, 194 274, 193 274 C 192 273, 191 273, 189 271 C 188 271, 187 270, 186 270 C 185 269, 184 269, 183 268 C 180 268, 179 267, 176 267 C 175 266, 171 266, 170 265 C 158 265, 157 266, 152 266 C 151 267, 148 267, 147 268 C 145 268, 144 269, 143 269 C 142 270, 141 270, 140 271 C 139 271, 138 272, 137 272 C 135 274, 134 274, 133 275 C 132 275, 129 278, 128 278 C 121 285, 121 286, 118 289 C 118 290, 116 292, 116 293 C 115 294, 115 295, 114 296 C 114 297, 112 299, 112 301 C 111 302, 111 304, 110 305 C 110 307, 109 308, 109 311 L 108 312 Z" fill="#020203"/>
  <path d="M 372 187 C 372 191, 390 191, 390 187 L 372 187 Z" fill="#020203"/>
  <path d="M 326 187 C 326 191, 359 191, 359 187 L 326 187 Z" fill="#020203"/>
</svg>
