<?xml version="1.0" ?>
<svg xmlns="http://www.w3.org/2000/svg" width="512" height="512" viewBox="0 0 512 512" style="background-color: transparent;">
  <path d="M 174 278 C 174 288, 173 289, 173 309 C 174 310, 337 310, 337 295 C 336 294, 336 280, 335 279 C 335 277, 175 277, 174 278 Z" fill="#fdfefd"/>
  <path d="M 334 277 C 334 281, 335 282, 335 296 C 336 297, 336 311, 344 311 C 345 310, 351 310, 351 277 L 334 277 Z" fill="#fba504"/>
  <path d="M 160 277 C 160 310, 174 310, 174 291 C 175 290, 175 277, 160 277 Z" fill="#fba504"/>
  <path d="M 359 310 C 358 309, 357 309, 356 308 C 350 308, 349 309, 343 309 C 342 310, 338 310, 337 309 C 154 309, 152 311, 152 339 C 153 340, 154 340, 155 341 C 356 341, 357 340, 358 340 L 359 339 L 359 310 Z" fill="#8b8d8f"/>
  <path d="M 337 126 C 335 124, 332 124, 331 123 C 315 123, 314 124, 312 124 C 310 126, 310 127, 309 128 C 309 129, 308 130, 308 132 C 307 133, 307 134, 306 135 C 306 136, 305 137, 305 138 C 304 139, 304 140, 303 141 C 303 143, 302 144, 302 145 C 301 146, 301 148, 300 149 C 300 150, 299 151, 299 153 C 298 154, 298 158, 320 158 C 320 151, 321 150, 321 142 C 322 141, 327 141, 328 142 C 328 147, 332 147, 332 146 C 334 144, 334 143, 336 141 C 336 140, 337 139, 337 126 Z" fill="#8b8d8f"/>
  <path d="M 175 125 C 175 126, 174 127, 174 137 C 175 138, 175 141, 177 143 C 177 144, 179 146, 183 146 C 183 142, 184 141, 189 141 C 190 142, 190 147, 191 148 C 191 158, 213 158, 213 153 C 212 152, 212 150, 211 149 C 211 148, 210 147, 210 146 C 209 145, 209 143, 208 142 C 208 141, 207 140, 207 139 C 206 138, 206 136, 205 135 C 205 134, 204 133, 204 132 C 203 131, 203 130, 202 129 C 202 127, 201 126, 201 125 C 200 124, 198 124, 197 123 C 179 123, 178 124, 176 124 L 175 125 Z" fill="#8b8d8f"/>
  <path d="M 165 160 C 165 161, 164 162, 164 165 C 163 166, 163 181, 162 182 C 162 219, 161 220, 161 270 C 160 271, 160 277, 351 277 C 351 269, 350 268, 350 221 C 349 220, 349 186, 348 185 C 348 167, 347 166, 347 162 C 346 161, 346 160, 344 158 C 341 158, 340 157, 171 157 C 170 158, 167 158, 165 160 Z" fill="#005fbf"/>
  <path d="M 190 183 C 192 181, 192 180, 193 179 C 194 179, 195 178, 198 178 C 199 177, 218 177, 219 178 C 223 178, 224 177, 314 177 C 315 178, 316 178, 321 183 C 321 194, 322 195, 322 206 C 323 207, 323 223, 319 227 C 193 227, 192 226, 191 226 C 190 225, 190 224, 188 222 C 188 209, 189 208, 189 188 L 190 187 L 190 183 Z" fill="#005fbf"/>
  <path d="M 295 340 C 295 345, 296 346, 296 349 C 297 350, 304 350, 305 351 C 305 354, 306 355, 306 366 C 307 367, 307 372, 308 373 C 308 376, 309 377, 310 377 C 311 378, 334 378, 335 377 C 341 377, 342 376, 342 375 C 343 374, 343 372, 344 371 C 344 366, 345 365, 345 357 C 346 356, 346 345, 347 344 L 347 340 L 295 340 Z" fill="#20232d"/>
  <path d="M 164 340 C 164 344, 165 345, 165 358 C 166 359, 166 367, 167 368 C 167 371, 168 372, 168 374 C 171 377, 176 377, 177 378 C 193 378, 194 377, 201 377 C 203 375, 203 373, 204 372 C 204 361, 205 360, 205 351 C 206 350, 214 350, 215 349 C 215 346, 216 345, 216 340 L 164 340 Z" fill="#20232d"/>
  <path d="M 189 181 C 189 188, 188 189, 188 206 C 187 207, 187 224, 189 226 C 189 227, 190 227, 191 228 C 321 228, 324 225, 324 205 C 323 204, 323 193, 322 192 C 322 181, 318 177, 317 177 C 316 176, 222 176, 221 177 C 220 176, 197 176, 196 177 C 193 177, 192 178, 191 178 L 191 179 L 189 181 Z" fill="#20232d"/>
  <path d="M 320 140 C 320 148, 319 149, 319 158 C 331 158, 331 152, 330 151 C 330 148, 329 147, 329 140 L 320 140 Z" fill="#20232d"/>
  <path d="M 182 140 C 182 147, 181 148, 180 148 C 180 158, 192 158, 192 146 C 191 145, 191 140, 182 140 Z" fill="#20232d"/>
</svg>
