<?xml version="1.0" ?>
<svg xmlns="http://www.w3.org/2000/svg" width="512" height="512" viewBox="0 0 512 512" style="background-color: transparent;">
  <path d="M 237 277 C 237 301, 238 302, 238 309 C 244 309, 245 308, 245 277 L 237 277 Z" fill="#fcfcfb"/>
  <path d="M 93 275 C 93 280, 92 281, 92 292 C 91 293, 91 304, 92 305 C 97 305, 98 306, 117 306 C 118 307, 140 307, 141 308 C 161 308, 162 309, 182 309 C 183 310, 200 310, 201 311 C 216 311, 216 296, 217 295 C 217 288, 216 287, 216 277 C 190 277, 189 276, 138 276 L 137 275 L 93 275 Z" fill="#fcfcfb"/>
  <path d="M 373 269 C 373 290, 374 291, 378 291 C 378 272, 377 271, 377 269 L 373 269 Z" fill="#fcfcfb"/>
  <path d="M 216 277 C 215 278, 215 289, 216 290 C 216 293, 215 294, 215 311 C 216 311, 217 312, 231 312 C 232 311, 239 311, 239 300 C 238 299, 238 277, 231 277 C 230 278, 229 278, 228 277 L 216 277 Z" fill="#f6a005"/>
  <path d="M 85 275 C 85 279, 84 280, 84 305 C 92 305, 92 295, 93 294 C 93 283, 94 282, 94 275 L 85 275 Z" fill="#f6a005"/>
  <path d="M 376 269 C 376 273, 377 274, 377 292 C 381 292, 382 291, 382 269 L 376 269 Z" fill="#f6a005"/>
  <path d="M 273 307 C 269 311, 269 312, 268 313 C 268 314, 267 315, 267 317 C 266 318, 266 322, 265 323 C 265 343, 266 344, 266 347 C 267 348, 267 349, 268 350 C 268 351, 271 354, 272 354 C 273 355, 277 355, 278 354 C 279 354, 282 351, 282 350 C 283 349, 283 348, 284 347 C 284 346, 285 345, 285 342 C 286 341, 286 337, 287 336 C 287 323, 286 322, 286 317 C 285 316, 285 314, 284 313 C 284 312, 283 311, 283 310 L 280 307 L 273 307 Z" fill="#848688"/>
  <path d="M 74 307 C 74 331, 76 333, 88 333 C 89 334, 101 334, 102 335 C 113 335, 114 336, 127 336 C 128 337, 142 337, 143 338 C 156 338, 157 339, 169 339 C 170 340, 182 340, 183 341 C 196 341, 197 342, 210 342 C 211 343, 234 343, 235 342 C 239 342, 240 341, 242 341 C 244 339, 244 337, 245 336 C 245 311, 244 310, 230 310 C 229 311, 219 311, 218 310 C 203 310, 202 309, 185 309 C 184 308, 164 308, 163 307 C 143 307, 142 306, 120 306 C 119 305, 100 305, 99 304 C 76 304, 75 305, 75 306 L 74 307 Z" fill="#848688"/>
  <path d="M 354 295 C 351 298, 351 299, 350 300 C 350 302, 349 303, 349 309 C 348 310, 348 323, 349 324 C 349 328, 350 329, 350 331 C 353 334, 358 334, 359 333 C 359 332, 360 331, 360 330 C 361 329, 361 327, 362 326 C 362 323, 363 322, 363 306 C 362 305, 362 301, 361 300 C 361 299, 360 298, 360 297 L 358 295 L 354 295 Z" fill="#848688"/>
  <path d="M 374 291 C 374 307, 373 308, 369 308 C 369 313, 387 313, 388 312 C 388 292, 387 291, 374 291 Z" fill="#848688"/>
  <path d="M 359 203 C 356 206, 356 208, 355 209 C 355 214, 356 215, 356 217 C 359 220, 360 220, 361 221 C 367 221, 368 220, 370 220 C 371 219, 372 219, 372 218 C 374 216, 374 207, 373 206 C 373 205, 371 203, 370 203 C 369 202, 361 202, 360 203 L 359 203 Z" fill="#848688"/>
  <path d="M 112 136 C 112 147, 114 149, 118 149 C 119 150, 127 150, 128 149 C 131 149, 133 151, 133 152 C 134 153, 138 153, 139 154 C 143 154, 144 155, 148 155 C 149 156, 153 156, 154 157 C 158 157, 159 158, 165 158 C 166 159, 169 159, 170 160 C 191 160, 192 159, 202 159 C 203 158, 215 158, 216 157 C 221 157, 221 153, 218 153 C 217 152, 214 152, 213 151 C 210 151, 209 150, 205 150 C 204 149, 201 149, 200 148 C 196 148, 195 147, 192 147 C 191 146, 188 146, 187 145 C 183 145, 182 144, 179 144 C 178 143, 175 143, 174 142 C 171 142, 170 141, 166 141 C 165 140, 162 140, 161 139 C 157 139, 156 138, 153 138 C 152 137, 149 137, 148 136 C 145 136, 144 135, 140 135 C 139 134, 136 134, 135 133 C 115 133, 114 134, 113 134 L 113 135 L 112 136 Z" fill="#848688"/>
  <path d="M 217 123 C 217 137, 218 138, 221 138 C 222 139, 225 139, 226 140 C 228 140, 229 141, 235 141 C 235 140, 237 138, 240 138 C 243 141, 243 144, 244 145 C 247 145, 248 146, 251 146 C 252 147, 255 147, 256 148 C 258 148, 259 149, 262 149 C 263 150, 266 150, 267 151 C 270 151, 271 152, 273 152 C 274 153, 277 153, 278 154 C 281 154, 282 155, 285 155 C 286 156, 289 156, 290 157 C 293 157, 294 158, 297 158 C 298 159, 300 159, 301 160 C 304 160, 305 161, 307 161 C 308 162, 316 162, 316 161 C 317 160, 320 160, 321 161 C 321 163, 326 163, 327 162 C 330 162, 331 161, 331 150 C 330 149, 328 149, 327 148 C 325 148, 324 147, 322 147 C 321 146, 318 146, 317 145 C 315 145, 314 144, 312 144 C 311 143, 309 143, 308 142 C 306 142, 305 141, 303 141 C 302 140, 299 140, 298 139 C 296 139, 295 138, 293 138 C 292 137, 290 137, 289 136 C 287 136, 286 135, 284 135 C 283 134, 281 134, 280 133 C 278 133, 277 132, 274 132 C 273 131, 271 131, 270 130 C 268 130, 267 129, 265 129 C 264 128, 262 128, 261 127 C 259 127, 258 126, 256 126 C 255 125, 253 125, 252 124 C 249 124, 248 123, 246 123 C 245 122, 242 122, 241 121 C 221 121, 220 122, 218 122 L 217 123 Z" fill="#848688"/>
  <path d="M 99 174 C 99 176, 97 180, 97 185 C 96 186, 96 191, 95 192 C 95 199, 94 200, 94 205 C 93 206, 93 213, 92 214 C 92 220, 91 221, 91 227 C 90 228, 90 234, 89 235 C 89 242, 88 243, 88 250 C 87 251, 87 260, 86 261 C 85 275, 94 275, 95 276 C 154 276, 155 277, 204 277 C 205 278, 240 278, 242 277 C 244 279, 244 307, 243 308 C 243 312, 244 313, 244 315 C 248 315, 248 312, 249 311 C 249 306, 250 305, 251 298 C 252 297, 252 295, 253 294 C 253 292, 255 289, 256 285 C 258 283, 261 277, 267 270 C 268 270, 272 267, 276 266 C 277 267, 279 267, 283 269 C 289 275, 295 286, 295 288 C 297 292, 297 295, 298 296 C 298 300, 299 301, 299 311 C 300 312, 300 320, 308 320 C 309 319, 314 319, 315 318 C 319 318, 320 317, 325 317 C 326 316, 337 315, 337 303 C 338 302, 338 296, 339 295 C 339 291, 341 287, 341 284 C 342 283, 343 278, 348 269 C 351 266, 355 264, 357 265 C 362 270, 367 280, 368 286 C 369 287, 369 290, 370 291 C 370 298, 371 299, 371 309 C 375 309, 374 271, 375 270 C 382 270, 382 250, 381 249 C 381 247, 379 243, 377 242 C 360 242, 359 241, 349 241 C 348 240, 348 233, 347 232 C 347 220, 346 219, 346 206 C 345 205, 345 195, 344 194 C 344 189, 343 188, 343 186 C 342 185, 342 183, 340 179 C 336 176, 333 176, 332 175 C 325 174, 321 172, 317 172 C 316 171, 313 171, 309 169 C 306 169, 305 168, 302 168 C 301 167, 297 167, 296 166 C 293 166, 292 165, 289 165 C 288 164, 285 164, 284 163 C 281 163, 280 162, 277 162 C 276 161, 273 161, 272 160 C 269 160, 268 159, 265 159 C 264 158, 261 158, 260 157 C 257 157, 256 156, 253 156 C 252 155, 246 155, 245 154 C 236 154, 235 155, 227 155 C 226 156, 201 157, 200 158 C 190 158, 189 159, 178 159 C 177 160, 167 160, 166 161 C 155 161, 154 162, 144 162 C 143 163, 129 163, 128 164 C 110 165, 104 168, 99 174 Z" fill="#005dbb"/>
  <path d="M 310 190 C 314 190, 315 191, 320 191 C 321 192, 325 192, 326 193 C 330 193, 331 194, 332 194 C 334 196, 334 200, 333 201 C 333 214, 334 215, 334 232 C 332 234, 323 234, 322 233 C 311 233, 309 231, 309 229 C 308 228, 308 207, 307 206 C 307 197, 308 196, 308 192 L 310 190 Z" fill="#005dbb"/>
  <path d="M 256 180 C 257 180, 258 179, 259 180 C 264 180, 265 181, 269 181 C 270 182, 274 182, 275 183 C 279 183, 280 184, 285 184 C 286 185, 290 185, 291 186 C 291 187, 292 188, 292 192 C 291 193, 291 197, 292 198 C 292 199, 291 200, 291 204 C 292 205, 292 223, 291 224 C 291 229, 290 230, 289 230 C 288 231, 285 231, 284 230 C 269 230, 268 229, 254 229 C 251 226, 251 216, 252 215 C 252 195, 253 194, 253 185 C 254 184, 254 183, 255 182 L 255 181 L 256 180 Z" fill="#005dbb"/>
  <path d="M 215 181 C 215 194, 214 195, 214 212 C 213 213, 213 222, 208 227 C 202 227, 201 228, 153 228 C 152 229, 112 229, 110 227 C 110 225, 109 224, 110 223 C 110 217, 111 216, 111 210 C 112 209, 112 204, 113 203 C 113 197, 114 196, 114 190 C 115 189, 115 188, 116 187 C 116 186, 118 184, 119 184 C 120 183, 128 183, 129 182 C 144 182, 145 181, 159 181 C 160 180, 173 180, 174 179 C 187 179, 188 178, 201 178 C 202 177, 211 177, 215 181 Z" fill="#005dbb"/>
  <path d="M 110 334 C 110 342, 111 343, 111 345 C 112 346, 112 347, 113 348 C 113 350, 114 351, 114 352 C 116 354, 116 355, 118 357 C 118 358, 125 365, 126 365 C 127 366, 128 366, 129 367 C 131 367, 132 368, 136 368 C 137 369, 143 369, 144 370 C 161 370, 162 369, 164 369 C 165 368, 166 368, 168 366 C 169 366, 170 365, 171 365 C 171 364, 175 360, 175 359 C 177 357, 177 356, 180 353 C 180 352, 181 351, 181 348 C 182 347, 182 346, 183 345 C 183 339, 172 339, 171 338 C 159 338, 158 337, 145 337 C 144 336, 130 336, 129 335 C 116 335, 115 334, 110 334 Z" fill="#1e222b"/>
  <path d="M 278 265 C 273 265, 272 266, 270 266 C 269 267, 268 267, 266 269 C 265 269, 263 271, 263 272 C 260 275, 260 276, 258 278 C 258 279, 257 280, 257 281 C 255 283, 255 284, 254 285 C 254 287, 253 288, 253 289 C 252 290, 252 292, 251 293 C 251 295, 250 296, 250 299 C 249 300, 249 303, 248 304 C 248 309, 247 310, 247 313 C 246 314, 246 320, 245 321 C 245 330, 244 331, 244 334 C 243 335, 243 337, 240 340 C 238 340, 237 341, 233 341 C 232 342, 222 342, 222 346 C 223 347, 223 350, 224 351 C 224 354, 225 355, 225 357 C 226 358, 226 360, 227 361 C 227 362, 228 363, 228 364 C 229 365, 229 366, 230 367 C 230 368, 231 369, 231 370 C 235 374, 235 375, 237 377 C 238 377, 239 378, 240 378 C 241 379, 243 379, 244 380 C 248 380, 249 381, 261 381 C 262 382, 274 382, 275 381 C 276 381, 277 380, 279 380 C 286 373, 286 372, 288 370 C 288 369, 289 368, 289 367 C 290 366, 290 365, 291 364 C 291 363, 292 362, 292 361 C 293 360, 293 358, 294 357 C 294 354, 295 353, 295 349 C 296 348, 296 344, 297 343 C 297 333, 298 332, 298 323 C 299 322, 301 322, 301 310 C 300 309, 300 299, 299 298 C 299 294, 298 293, 298 290 C 297 289, 297 287, 296 286 C 296 284, 295 283, 295 282 C 294 281, 294 280, 293 279 C 293 278, 292 277, 292 276 C 290 274, 290 273, 285 268 C 284 268, 283 267, 282 267 C 281 266, 279 266, 278 265 Z" fill="#1e222b"/>
  <path d="M 278 308 C 282 312, 282 313, 283 314 C 283 315, 284 316, 284 318 C 285 319, 285 324, 286 325 C 286 334, 285 335, 285 339 C 284 340, 284 343, 283 344 C 283 345, 282 346, 282 347 C 281 348, 281 349, 277 353 C 276 353, 275 354, 274 353 C 273 353, 269 349, 269 348 C 268 347, 268 346, 267 345 C 267 342, 266 341, 266 325 C 267 324, 267 320, 268 319 C 268 317, 269 316, 269 315 C 270 314, 270 313, 275 308 L 278 308 Z" fill="#1e222b"/>
  <path d="M 357 263 C 352 263, 350 265, 349 265 C 347 267, 347 268, 345 270 C 345 271, 344 272, 344 273 C 343 274, 343 275, 342 276 C 342 278, 341 279, 341 281 C 340 282, 340 285, 339 286 C 339 288, 338 289, 338 293 C 337 294, 337 300, 336 301 C 336 313, 335 314, 330 314 C 329 315, 324 315, 323 316 C 318 316, 317 317, 315 317 C 315 324, 316 325, 316 330 C 317 331, 317 335, 318 336 C 318 338, 319 339, 319 341 C 320 342, 320 343, 321 344 C 321 345, 322 346, 322 347 C 324 349, 324 350, 327 353 C 328 353, 329 354, 332 354 C 333 355, 345 355, 346 356 C 354 356, 355 355, 357 355 C 362 350, 362 349, 364 347 C 364 346, 365 345, 365 343 C 366 342, 366 340, 367 339 C 367 337, 368 336, 368 332 C 369 331, 369 327, 370 326 C 370 317, 371 316, 371 312 C 370 311, 370 310, 371 309 C 372 309, 372 297, 371 296 C 371 289, 370 288, 370 285 C 369 284, 369 281, 368 280 C 368 278, 367 277, 367 276 C 366 275, 366 274, 365 273 C 365 272, 364 271, 364 270 C 363 269, 363 268, 359 264 L 358 264 L 357 263 Z" fill="#1e222b"/>
  <path d="M 356 296 C 359 299, 359 300, 360 301 C 360 302, 361 303, 361 307 C 362 308, 362 320, 361 321 C 361 324, 360 325, 360 327 C 359 328, 359 329, 358 330 C 358 331, 356 333, 355 333 C 351 329, 351 327, 350 326 C 350 322, 349 321, 349 312 C 350 311, 350 305, 351 304 C 351 302, 352 301, 352 300 L 356 296 Z" fill="#1e222b"/>
  <path d="M 361 220 C 360 221, 359 221, 358 222 C 358 228, 357 229, 357 233 C 358 234, 358 242, 359 242 C 360 243, 368 243, 368 222 C 367 221, 367 220, 361 220 Z" fill="#1e222b"/>
  <path d="M 308 189 C 307 190, 307 194, 306 195 C 306 208, 307 209, 307 230 C 308 231, 308 233, 309 234 C 320 234, 321 235, 334 235 C 335 234, 335 213, 334 212 C 334 203, 335 202, 335 194 C 334 193, 333 193, 332 192 C 328 192, 327 191, 323 191 C 322 190, 317 190, 316 189 L 308 189 Z" fill="#1e222b"/>
  <path d="M 254 179 C 254 180, 253 181, 253 182 C 252 183, 252 192, 251 193 C 251 213, 250 214, 250 228 C 252 230, 266 230, 267 231 C 282 231, 283 232, 290 232 C 291 231, 292 231, 292 226 C 293 225, 293 203, 292 202 C 293 201, 293 196, 292 195 C 293 194, 293 186, 292 185 C 292 184, 288 184, 287 183 C 282 183, 281 182, 277 182 C 276 181, 272 181, 271 180 C 267 180, 266 179, 261 179 C 260 178, 256 178, 255 179 L 254 179 Z" fill="#1e222b"/>
  <path d="M 216 179 C 213 176, 200 176, 199 177 C 186 177, 185 178, 172 178 C 171 179, 158 179, 157 180 C 143 180, 142 181, 127 181 C 126 182, 118 182, 117 183 C 116 183, 115 184, 115 185 C 114 186, 114 187, 113 188 C 113 194, 112 195, 112 201 C 111 202, 111 207, 110 208 C 110 214, 109 215, 109 221 C 108 222, 108 226, 109 227 C 109 229, 110 230, 154 230 C 155 229, 203 229, 204 228 C 210 228, 214 224, 214 215 C 215 214, 215 197, 216 196 L 216 179 Z" fill="#1e222b"/>
  <path d="M 315 159 C 315 160, 313 162, 313 172 C 314 172, 315 173, 319 173 C 320 174, 324 174, 324 165 C 323 164, 323 162, 322 161 L 322 159 L 315 159 Z" fill="#1e222b"/>
  <path d="M 126 148 C 124 150, 124 153, 123 154 C 123 159, 122 160, 122 165 C 130 165, 131 164, 136 164 C 136 152, 134 150, 134 149 L 133 148 L 126 148 Z" fill="#1e222b"/>
  <path d="M 235 137 C 234 138, 234 140, 233 141 C 233 142, 232 143, 232 149 C 231 150, 231 156, 237 156 C 238 155, 246 155, 246 147 C 245 146, 245 143, 244 142 C 244 139, 242 137, 235 137 Z" fill="#1e222b"/>
</svg>
