<?xml version="1.0" ?>
<svg xmlns="http://www.w3.org/2000/svg" width="512" height="512" viewBox="0 0 512 512" style="background-color: transparent;">
  <path d="M 138 275 C 138 305, 148 305, 149 304 C 149 300, 150 299, 150 275 L 138 275 Z" fill="#f5f5f1"/>
  <path d="M 104 274 C 104 276, 103 277, 103 303 C 104 304, 107 304, 108 305 C 113 305, 113 275, 112 275 L 111 274 L 104 274 Z" fill="#f5f5f1"/>
  <path d="M 413 272 C 413 295, 414 296, 422 296 C 422 293, 423 292, 423 279 C 422 278, 422 272, 413 272 Z" fill="#f5f5f1"/>
  <path d="M 71 272 C 71 282, 70 283, 70 288 C 71 289, 71 297, 72 298 C 77 298, 77 273, 76 272 L 71 272 Z" fill="#f5f5f1"/>
  <path d="M 112 275 C 112 306, 113 307, 115 307 C 116 308, 130 308, 131 307 C 137 307, 138 306, 139 306 L 139 275 L 112 275 Z" fill="#ed9e04"/>
  <path d="M 421 272 C 421 280, 422 281, 422 297 C 426 297, 427 296, 430 296 C 430 274, 429 273, 429 272 L 421 272 Z" fill="#ed9e04"/>
  <path d="M 211 305 C 210 306, 208 306, 207 307 C 206 307, 204 309, 203 309 C 199 313, 199 314, 198 315 C 198 316, 197 317, 197 319 C 196 320, 196 322, 195 323 C 195 337, 196 338, 196 340 C 197 341, 197 342, 199 344 C 199 345, 202 348, 203 348 C 205 350, 206 350, 207 351 C 211 351, 212 352, 217 352 C 218 351, 221 351, 222 350 C 223 350, 224 349, 225 349 C 227 347, 228 347, 230 345 C 230 344, 232 342, 232 341 C 233 340, 233 339, 234 338 C 234 336, 235 335, 235 319 C 234 318, 234 317, 233 316 C 233 314, 231 312, 231 311 C 228 308, 227 308, 225 306 C 223 306, 222 305, 211 305 Z" fill="#818385"/>
  <path d="M 374 299 C 373 300, 371 300, 370 301 C 369 301, 367 303, 366 303 C 365 304, 365 305, 363 307 C 363 308, 362 309, 362 311 C 361 312, 361 318, 360 319 C 360 323, 361 324, 361 329 C 362 330, 362 331, 363 332 C 363 333, 364 334, 364 335 C 367 338, 368 338, 369 339 C 370 339, 371 340, 379 340 C 380 339, 381 339, 382 338 C 383 338, 387 334, 387 333 C 388 332, 388 331, 389 330 C 389 329, 390 328, 390 325 C 391 324, 391 314, 390 313 C 390 310, 389 309, 389 307 C 388 306, 388 305, 384 301 C 383 301, 382 300, 380 300 L 379 299 L 374 299 Z" fill="#818385"/>
  <path d="M 61 299 C 61 302, 60 303, 60 320 C 61 321, 61 324, 64 324 C 65 325, 67 325, 68 326 C 70 326, 71 327, 73 327 C 74 328, 76 328, 77 329 C 79 329, 80 330, 83 330 C 84 331, 86 331, 87 332 C 89 332, 90 333, 92 333 C 93 334, 95 334, 96 335 C 99 335, 100 336, 102 336 C 103 337, 105 337, 106 338 C 115 338, 116 339, 121 339 C 122 338, 135 338, 136 337 C 144 337, 145 336, 146 336 C 146 334, 147 333, 147 308 C 146 307, 137 307, 136 306 C 129 306, 128 307, 118 307 C 117 306, 115 306, 113 304 C 106 304, 105 305, 104 304 C 101 304, 100 303, 96 303 C 95 302, 91 302, 90 301 C 85 301, 84 300, 80 300 C 79 299, 77 299, 76 298 C 76 297, 72 297, 71 298 C 64 298, 63 299, 61 299 Z" fill="#818385"/>
  <path d="M 419 296 C 419 318, 420 318, 421 319 C 435 319, 436 318, 438 318 C 438 296, 437 295, 425 295 L 424 296 L 419 296 Z" fill="#818385"/>
  <path d="M 94 195 C 91 198, 91 200, 90 201 C 90 208, 91 209, 91 210 C 92 211, 92 212, 94 214 C 95 214, 96 215, 107 215 C 111 211, 111 210, 112 209 C 112 202, 111 201, 111 199 C 107 195, 106 195, 105 194 C 97 194, 96 195, 94 195 Z" fill="#818385"/>
  <path d="M 140 184 C 136 188, 136 190, 135 191 C 135 198, 136 199, 136 201 C 137 202, 137 203, 140 206 C 141 206, 142 207, 143 207 C 144 208, 148 208, 149 207 C 154 207, 156 205, 157 205 C 159 203, 159 202, 160 201 C 160 191, 159 190, 159 189 C 157 187, 157 186, 156 186 C 154 184, 153 184, 152 183 C 142 183, 141 184, 140 184 Z" fill="#818385"/>
  <path d="M 266 158 C 266 166, 267 167, 267 168 C 270 168, 271 169, 286 169 C 287 170, 300 170, 301 171 C 317 171, 318 172, 331 172 C 332 173, 342 173, 342 165 C 341 164, 339 164, 338 163 C 329 163, 328 162, 316 162 C 315 161, 304 161, 303 160 C 292 160, 291 159, 278 159 L 277 158 L 266 158 Z" fill="#818385"/>
  <path d="M 190 155 C 190 163, 191 164, 191 165 C 192 166, 196 166, 197 167 C 205 167, 206 166, 209 166 C 210 167, 212 167, 213 168 C 226 168, 227 169, 244 169 C 245 168, 249 168, 250 167 C 258 167, 258 166, 259 165 C 259 157, 253 157, 252 156 C 240 156, 239 155, 226 155 C 225 154, 214 154, 213 153 C 193 153, 192 154, 191 154 L 190 155 Z" fill="#818385"/>
  <path d="M 240 139 C 240 150, 241 151, 241 152 C 244 152, 245 153, 259 153 C 260 152, 265 152, 266 153 C 266 154, 268 154, 269 155 C 280 155, 281 156, 292 156 C 293 157, 302 157, 303 158 C 313 158, 314 159, 325 159 C 326 160, 335 160, 336 161 C 346 161, 347 162, 358 162 C 359 163, 370 163, 371 164 C 380 164, 381 165, 386 165 C 387 164, 388 164, 389 163 C 391 163, 392 164, 392 165 C 404 165, 405 164, 405 162 C 406 161, 406 154, 405 153 C 405 152, 404 152, 403 151 C 396 151, 395 150, 386 150 C 385 149, 374 149, 373 148 C 363 148, 362 147, 353 147 C 352 146, 341 146, 340 145 C 331 145, 330 144, 320 144 C 319 143, 311 143, 310 142 C 300 142, 299 141, 290 141 C 289 140, 280 140, 279 139 C 271 139, 270 138, 260 138 C 259 137, 253 137, 252 138 C 243 138, 242 139, 240 139 Z" fill="#818385"/>
  <path d="M 70 246 C 70 272, 72 273, 77 273 C 77 256, 79 254, 102 254 C 103 255, 103 275, 117 275 C 118 276, 131 276, 132 275 C 137 275, 138 276, 147 276 C 148 275, 150 277, 150 280 C 149 281, 149 302, 147 304 C 142 304, 142 308, 144 308 C 146 310, 146 328, 159 328 C 159 326, 160 325, 160 320 C 161 319, 161 316, 162 315 C 162 312, 163 311, 164 306 C 168 298, 174 289, 183 279 C 197 270, 199 270, 202 268 C 209 267, 210 266, 220 266 C 221 267, 224 267, 225 268 C 230 269, 239 274, 248 282 C 260 301, 261 307, 262 308 C 263 321, 280 321, 281 320 C 315 319, 316 318, 333 318 C 334 317, 337 317, 337 306 C 338 305, 338 300, 339 299 C 341 291, 343 289, 345 284 C 355 273, 365 267, 371 266 C 372 265, 379 265, 383 267 C 386 267, 395 273, 399 277 C 404 284, 408 292, 408 294 C 410 298, 410 301, 412 305 C 413 314, 420 314, 420 296 C 415 296, 414 295, 414 274 C 418 272, 429 272, 429 264 C 428 263, 428 255, 427 254 C 427 248, 426 247, 426 240 C 425 239, 425 233, 424 232 C 424 227, 423 226, 423 220 C 422 219, 420 199, 419 198 C 419 193, 418 192, 417 186 C 410 178, 408 178, 407 177 C 402 177, 401 176, 390 176 C 389 175, 375 175, 374 174 C 346 173, 345 172, 320 171 C 319 170, 303 170, 302 169 C 289 169, 288 168, 273 168 C 272 167, 248 166, 247 167 C 243 167, 238 169, 234 169 C 233 170, 230 170, 225 172 C 221 172, 220 173, 216 173 C 211 175, 207 175, 206 176 C 203 176, 198 178, 189 179 C 188 180, 186 180, 183 183 C 182 183, 177 191, 177 193 C 175 197, 175 201, 174 202 C 172 220, 171 221, 170 231 C 169 232, 169 236, 168 237 C 115 237, 114 238, 83 239 C 82 240, 75 240, 70 246 Z" fill="#005bbb"/>
  <path d="M 348 195 C 351 192, 362 192, 363 193 C 380 193, 381 194, 395 194 C 396 195, 399 195, 402 198 C 402 199, 403 200, 403 205 C 404 206, 404 214, 405 215 C 405 223, 406 224, 406 232 C 404 234, 379 234, 378 233 C 351 233, 349 231, 349 230 L 348 229 L 348 195 Z" fill="#005bbb"/>
  <path d="M 265 190 C 266 189, 267 189, 268 188 C 289 188, 290 189, 307 189 C 308 190, 317 190, 318 191 C 319 191, 321 193, 321 194 C 322 195, 322 196, 323 197 C 323 202, 324 203, 324 216 C 323 217, 323 228, 322 229 C 322 230, 319 233, 299 233 C 298 232, 267 232, 264 229 C 264 227, 263 226, 263 195 C 264 194, 264 192, 265 191 L 265 190 Z" fill="#005bbb"/>
  <path d="M 234 185 C 234 195, 233 196, 233 203 C 232 204, 232 213, 231 214 C 231 222, 230 223, 230 228 C 229 229, 229 231, 227 233 C 226 233, 225 234, 207 234 C 206 235, 190 235, 189 236 C 176 236, 175 235, 175 234 C 174 233, 174 229, 175 228 C 175 224, 176 223, 176 219 C 177 218, 177 213, 178 212 C 178 206, 179 205, 179 201 C 180 200, 180 197, 181 196 C 181 195, 183 193, 184 193 C 185 192, 189 192, 190 191 C 194 191, 195 190, 199 190 C 200 189, 204 189, 205 188 C 209 188, 210 187, 214 187 C 215 186, 220 186, 221 185 C 226 185, 227 184, 231 184 L 232 183 L 234 185 Z" fill="#005bbb"/>
  <path d="M 414 309 C 413 308, 413 303, 412 302 C 412 300, 411 299, 411 296 C 410 295, 409 290, 408 289 C 405 282, 400 276, 400 275 C 397 272, 396 272, 393 269 C 392 269, 388 266, 385 266 C 384 265, 382 265, 381 264 C 370 264, 369 265, 366 265 C 365 266, 363 266, 362 267 C 359 268, 354 272, 353 272 C 347 278, 347 279, 344 282 C 342 287, 340 289, 340 291 C 339 292, 339 294, 338 295 C 338 297, 337 298, 337 303 C 336 304, 336 315, 335 316 C 332 316, 331 317, 314 317 C 313 318, 295 318, 294 319 C 279 319, 278 320, 265 320 C 264 319, 264 314, 263 313 C 263 306, 262 305, 262 302 C 261 301, 261 299, 260 298 C 259 295, 257 293, 256 290 C 252 285, 252 284, 245 276 C 244 276, 238 271, 237 271 C 232 268, 227 267, 226 266 C 223 266, 222 265, 208 265 C 207 266, 200 267, 199 268 C 198 268, 197 269, 195 269 C 191 272, 188 273, 185 276 C 184 276, 182 278, 181 278 C 179 280, 179 281, 173 287 C 173 288, 167 296, 167 297 C 163 304, 163 306, 162 307 C 162 309, 161 310, 161 313 C 160 314, 160 317, 159 318 C 159 323, 158 324, 158 326 C 157 327, 146 327, 146 331 C 145 332, 145 334, 144 335 C 143 335, 142 336, 134 336 C 133 337, 120 337, 119 338 C 117 338, 117 342, 126 351 C 127 351, 128 352, 128 353 C 129 353, 136 357, 138 357 C 141 359, 143 359, 144 360 C 147 360, 148 361, 162 361 C 163 360, 166 360, 174 368 C 177 369, 180 372, 181 372 C 184 374, 187 374, 190 376 C 193 376, 194 377, 196 377 C 197 378, 201 378, 202 379 C 214 379, 215 378, 219 378 C 220 377, 222 377, 223 376 C 225 376, 226 375, 229 374 C 231 372, 232 372, 234 370 C 235 370, 245 360, 245 359 C 247 357, 248 354, 251 350 C 251 348, 253 345, 253 343 C 254 342, 254 340, 255 339 C 255 336, 256 335, 256 322 C 257 321, 258 321, 259 322 C 263 322, 263 321, 264 320 C 265 321, 265 326, 266 327 C 266 329, 267 330, 269 335 C 276 342, 277 342, 279 344 C 280 344, 285 347, 289 347 C 290 348, 293 348, 294 349 C 300 349, 301 350, 305 350 C 306 349, 311 349, 312 348 C 314 348, 315 347, 318 346 C 320 344, 321 344, 322 343 C 322 342, 328 336, 329 337 C 329 339, 331 341, 331 343 C 333 345, 333 347, 341 355 C 342 355, 346 359, 350 359 C 351 360, 354 360, 355 361 C 358 361, 359 362, 363 362 C 364 363, 378 363, 379 362 C 381 362, 382 361, 387 359 C 389 357, 390 357, 397 350 C 397 349, 401 344, 401 343 C 404 338, 405 333, 406 332 C 406 329, 407 328, 407 325 C 408 324, 408 316, 409 315 L 414 315 L 414 309 Z" fill="#1c1f27"/>
  <path d="M 220 306 C 221 307, 223 307, 225 309 C 226 309, 230 313, 230 314 C 232 316, 232 318, 233 319 C 233 320, 234 321, 234 333 C 233 334, 233 336, 232 337 C 232 338, 231 339, 231 340 C 229 342, 229 343, 226 346 C 225 346, 223 348, 222 348 C 221 349, 220 349, 219 350 C 216 350, 215 351, 214 351 C 213 350, 209 350, 208 349 C 207 349, 205 347, 204 347 C 200 343, 200 342, 198 340 C 198 339, 197 338, 197 336 C 196 335, 196 325, 197 324 C 197 322, 198 321, 198 319 C 199 318, 199 317, 200 316 C 200 315, 205 310, 206 310 C 208 308, 209 308, 210 307 C 212 307, 213 306, 220 306 Z" fill="#1c1f27"/>
  <path d="M 376 300 C 377 300, 378 301, 380 301 C 381 302, 382 302, 387 307 C 387 308, 388 309, 388 311 C 389 312, 389 315, 390 316 C 390 322, 389 323, 389 326 C 388 327, 388 328, 387 329 C 387 330, 386 331, 386 332 C 381 337, 380 337, 379 338 C 378 338, 377 339, 373 339 C 372 338, 371 338, 370 337 C 369 337, 365 333, 365 332 C 364 331, 364 330, 363 329 C 363 328, 362 327, 362 322 C 361 321, 362 320, 362 314 C 363 313, 363 311, 364 310 C 364 309, 366 307, 366 306 C 368 304, 369 304, 371 302 C 372 302, 373 301, 375 301 L 376 300 Z" fill="#1c1f27"/>
  <path d="M 77 253 C 76 254, 76 297, 77 297 C 78 298, 78 301, 82 301 C 83 302, 88 302, 89 303 C 93 303, 94 304, 98 304 C 99 305, 103 305, 103 302 C 104 301, 104 253, 77 253 Z" fill="#1c1f27"/>
  <path d="M 97 215 C 97 216, 96 217, 96 233 C 97 234, 97 239, 108 239 C 108 218, 106 216, 105 216 C 104 215, 104 214, 100 214 L 99 215 L 97 215 Z" fill="#1c1f27"/>
  <path d="M 152 206 C 147 206, 146 207, 145 207 C 144 208, 142 208, 142 209 C 141 210, 141 238, 153 238 C 153 237, 154 236, 154 211 C 153 210, 153 209, 152 208 L 152 206 Z" fill="#1c1f27"/>
  <path d="M 347 193 C 347 231, 348 232, 348 233 C 349 234, 376 234, 377 235 C 406 235, 407 234, 407 222 C 406 221, 406 213, 405 212 C 405 204, 404 203, 404 198 C 403 197, 403 196, 401 194 C 398 194, 397 193, 383 193 C 382 192, 365 192, 364 191 L 349 191 L 347 193 Z" fill="#1c1f27"/>
  <path d="M 264 188 C 264 189, 263 190, 263 192 C 262 193, 262 228, 263 229 C 263 231, 265 233, 296 233 C 297 234, 321 234, 323 232 C 323 231, 324 230, 324 217 C 325 216, 325 201, 324 200 C 324 195, 323 194, 323 193 C 322 192, 322 191, 321 190 C 320 190, 319 189, 310 189 C 309 188, 292 188, 291 187 C 266 187, 265 188, 264 188 Z" fill="#1c1f27"/>
  <path d="M 235 183 C 234 182, 230 182, 229 183 C 225 183, 224 184, 219 184 C 218 185, 213 185, 212 186 C 208 186, 207 187, 203 187 C 202 188, 198 188, 197 189 C 193 189, 192 190, 188 190 C 187 191, 183 191, 182 192 C 181 192, 180 193, 180 194 C 179 195, 179 198, 178 199 C 178 203, 177 204, 177 210 C 176 211, 176 216, 175 217 C 175 221, 174 222, 174 226 C 173 227, 173 235, 174 236 C 174 237, 191 237, 192 236 C 208 236, 209 235, 227 235 C 228 234, 229 234, 230 233 C 230 231, 231 230, 231 225 C 232 224, 232 216, 233 215 C 233 206, 234 205, 234 198 L 235 197 L 235 183 Z" fill="#1c1f27"/>
  <path d="M 204 165 C 203 166, 203 167, 202 168 C 202 177, 208 177, 209 176 C 212 176, 212 166, 211 165 L 204 165 Z" fill="#1c1f27"/>
  <path d="M 384 164 C 384 176, 391 176, 393 174 C 396 174, 396 170, 395 169 C 395 164, 394 164, 393 163 C 393 162, 387 162, 386 163 L 385 163 L 384 164 Z" fill="#1c1f27"/>
  <path d="M 258 151 C 258 152, 257 153, 257 158 C 258 159, 258 163, 257 164 C 257 168, 267 168, 267 160 C 268 159, 268 153, 267 152 L 267 151 L 258 151 Z" fill="#1c1f27"/>
</svg>
