<?xml version="1.0" ?>
<svg xmlns="http://www.w3.org/2000/svg" width="512" height="512" viewBox="0 0 512 512" style="background-color: transparent;">
  <path d="M 135 276 C 135 304, 136 305, 136 306 C 147 306, 147 303, 148 302 L 148 276 L 135 276 Z" fill="#fbfbf9"/>
  <path d="M 73 274 C 73 280, 72 281, 72 299 C 73 299, 74 300, 78 300 C 79 301, 83 301, 84 302 C 89 302, 90 303, 93 303 C 94 304, 99 304, 100 305 C 104 305, 105 306, 108 306 C 109 307, 115 307, 115 301 C 116 300, 116 281, 117 280 C 117 275, 106 275, 105 274 C 94 274, 93 273, 74 273 L 73 274 Z" fill="#fbfbf9"/>
  <path d="M 410 271 C 410 275, 411 276, 411 295 C 419 295, 420 294, 420 274 C 419 273, 419 271, 410 271 Z" fill="#fbfbf9"/>
  <path d="M 199 306 C 198 307, 196 307, 195 308 C 194 308, 187 315, 187 316 C 186 317, 186 318, 185 319 C 185 321, 184 322, 184 325 C 183 326, 183 336, 184 337 C 184 340, 185 341, 185 342 C 186 343, 186 344, 187 345 C 187 346, 191 350, 192 350 C 194 352, 195 352, 196 353 C 200 353, 201 354, 205 354 C 206 353, 209 353, 210 352 C 211 352, 212 351, 213 351 C 215 349, 216 349, 218 347 C 218 346, 220 344, 220 343 C 221 342, 221 341, 222 340 C 222 339, 223 338, 223 321 C 222 320, 222 319, 221 318 C 221 316, 219 314, 219 313 C 216 310, 215 310, 213 308 C 212 308, 211 307, 209 307 L 208 306 L 199 306 Z" fill="#89847a"/>
  <path d="M 362 299 C 361 300, 360 300, 355 305 C 355 306, 354 307, 354 308 C 353 309, 353 311, 352 312 C 352 316, 351 317, 351 324 C 352 325, 352 330, 353 331 C 353 332, 354 333, 354 334 C 357 337, 357 338, 358 338 C 359 339, 360 339, 361 340 C 362 340, 363 341, 370 341 C 371 340, 372 340, 373 339 C 375 339, 379 335, 379 334 C 380 333, 380 332, 381 331 C 381 330, 382 329, 382 328 C 383 327, 383 313, 382 312 C 382 309, 381 308, 381 307 C 380 306, 380 305, 375 300 C 373 300, 372 299, 362 299 Z" fill="#89847a"/>
  <path d="M 135 275 C 128 275, 127 276, 121 276 C 120 275, 116 275, 116 278 C 115 279, 115 298, 114 299 C 114 305, 113 306, 111 306 C 110 305, 107 305, 106 304 C 102 304, 101 303, 96 303 C 95 302, 92 302, 91 301 C 86 301, 85 300, 81 300 C 80 299, 76 299, 75 298 C 74 298, 73 297, 68 297 C 67 298, 61 298, 61 301 C 60 302, 60 322, 61 323 C 63 323, 64 324, 66 324 C 67 325, 69 325, 70 326 C 72 326, 73 327, 76 327 C 77 328, 79 328, 80 329 C 82 329, 83 330, 85 330 C 86 331, 88 331, 89 332 C 91 332, 92 333, 94 333 C 95 334, 98 334, 99 335 C 101 335, 102 336, 104 336 C 105 337, 110 337, 111 338 C 115 338, 116 337, 131 337 C 132 336, 137 336, 140 333 C 140 327, 141 326, 141 311 C 140 310, 141 309, 142 309 C 142 305, 138 305, 137 304 C 137 303, 136 302, 136 278 L 135 277 L 135 275 Z" fill="#89847a"/>
  <path d="M 420 270 C 419 271, 418 271, 418 275 C 419 276, 419 292, 417 294 C 415 294, 415 295, 413 297 C 413 313, 412 314, 406 314 C 405 313, 399 313, 399 317 C 400 318, 407 318, 408 319 C 414 319, 415 320, 434 320 C 435 319, 438 319, 438 297 C 437 296, 435 296, 434 295 C 431 295, 430 294, 430 270 L 420 270 Z" fill="#89847a"/>
  <path d="M 398 197 C 394 201, 394 202, 393 203 C 393 211, 394 212, 394 213 C 397 216, 398 216, 399 217 C 407 217, 408 216, 410 216 C 412 214, 412 213, 413 212 C 413 211, 414 210, 414 203 C 413 202, 413 201, 409 197 L 398 197 Z" fill="#89847a"/>
  <path d="M 165 150 C 165 160, 168 160, 169 161 C 181 161, 182 162, 195 162 C 196 163, 208 163, 209 164 C 221 164, 222 165, 235 165 C 236 166, 249 166, 250 167 C 263 167, 264 168, 268 168 C 268 167, 269 166, 269 159 C 268 158, 265 158, 264 157 C 254 157, 253 156, 242 156 C 241 155, 230 155, 229 154 C 217 154, 216 153, 204 153 C 203 152, 192 152, 191 151 C 180 151, 179 150, 165 150 Z" fill="#89847a"/>
  <path d="M 97 147 C 97 158, 99 160, 109 160 C 110 161, 114 161, 115 160 C 118 160, 119 161, 122 161 C 123 162, 145 162, 146 161 C 149 161, 150 160, 155 160 C 155 156, 156 155, 156 148 C 144 148, 143 147, 133 147 C 132 146, 120 146, 119 145 C 100 145, 99 146, 98 146 L 97 147 Z" fill="#89847a"/>
  <path d="M 136 130 C 136 143, 137 144, 142 144 C 143 145, 157 145, 159 143 C 161 143, 162 144, 163 144 C 164 145, 164 146, 166 146 C 167 147, 179 147, 180 148 C 191 148, 192 149, 203 149 C 204 150, 215 150, 216 151 C 228 151, 229 152, 239 152 C 240 153, 251 153, 252 154 C 266 154, 267 155, 278 155 C 279 156, 290 156, 291 157 C 300 157, 301 158, 306 158 C 306 157, 307 156, 311 156 C 312 157, 312 158, 324 158 C 325 157, 326 157, 326 155 C 327 154, 327 145, 326 145 C 325 144, 322 144, 321 143 C 311 143, 310 142, 300 142 C 299 141, 290 141, 289 140 C 280 140, 279 139, 269 139 C 268 138, 259 138, 258 137 C 248 137, 247 136, 238 136 C 237 135, 228 135, 227 134 C 219 134, 218 133, 208 133 C 207 132, 198 132, 197 131 C 188 131, 187 130, 178 130 C 177 129, 168 129, 167 128 C 155 128, 154 127, 147 127 C 146 128, 139 128, 138 129 L 137 129 L 136 130 Z" fill="#89847a"/>
  <path d="M 88 184 C 87 190, 86 191, 86 195 C 85 196, 85 200, 84 201 C 84 206, 83 207, 83 211 C 82 212, 80 226, 79 227 C 79 231, 78 232, 78 236 C 77 237, 76 247, 75 248 C 75 253, 74 254, 74 259 C 73 260, 73 265, 72 266 C 72 273, 79 273, 80 274 C 94 274, 95 275, 107 275 C 108 276, 118 276, 119 277 C 145 276, 147 278, 147 305 C 146 306, 143 306, 139 308 C 139 312, 140 313, 140 324 C 139 325, 139 329, 148 329 C 149 328, 151 315, 155 307 C 156 302, 161 292, 165 288 C 165 287, 174 278, 184 271 C 191 268, 199 267, 200 266 C 207 266, 208 267, 212 267 C 213 268, 219 269, 225 272 C 232 277, 241 286, 244 292 C 246 294, 247 299, 249 302 C 249 305, 250 306, 250 312 C 251 313, 251 322, 257 322 C 258 321, 277 321, 278 320 C 296 320, 297 319, 315 319 C 316 318, 327 318, 327 307 C 328 306, 328 302, 329 301 C 330 296, 336 285, 349 271 C 356 267, 358 267, 362 265 C 370 265, 371 266, 374 266 C 383 271, 397 286, 403 299 C 405 315, 414 315, 414 299 C 415 298, 415 294, 413 294 C 412 293, 412 287, 411 286 C 411 273, 412 272, 430 271 C 430 249, 426 242, 424 241 C 352 240, 351 239, 350 230 C 349 229, 349 223, 348 222 C 348 217, 347 216, 347 209 C 346 208, 346 202, 345 201 C 344 190, 339 179, 331 172 C 315 171, 314 170, 286 169 C 285 168, 275 168, 274 167 C 266 167, 265 166, 252 166 C 251 165, 238 165, 237 164 C 224 164, 223 163, 211 163 C 210 162, 198 162, 197 161 C 171 160, 170 159, 148 159 C 147 160, 144 160, 134 164 C 131 164, 118 169, 115 169 C 103 174, 100 174, 94 177 L 88 184 Z" fill="#005cb8"/>
  <path d="M 266 192 C 270 188, 271 188, 272 187 C 273 188, 286 188, 287 189 C 304 189, 305 190, 317 190 C 318 191, 320 191, 324 195 C 324 230, 321 233, 293 233 C 292 232, 271 232, 267 228 C 267 226, 266 225, 266 213 C 265 212, 265 194, 266 193 L 266 192 Z" fill="#005cb8"/>
  <path d="M 127 183 C 128 184, 128 188, 127 189 C 127 194, 126 195, 126 200 C 125 201, 125 206, 124 207 C 124 213, 123 214, 123 220 C 122 221, 122 225, 121 226 C 121 227, 119 229, 117 229 C 116 230, 105 230, 104 231 C 94 231, 93 232, 87 232 C 86 231, 86 229, 87 228 C 87 224, 88 223, 88 218 C 89 217, 89 212, 90 211 C 90 207, 91 206, 91 201 C 92 200, 92 196, 93 195 C 93 193, 95 191, 96 191 C 97 190, 100 190, 101 189 C 104 189, 105 188, 108 188 C 109 187, 112 187, 113 186 C 115 186, 116 185, 119 185 C 120 184, 122 184, 123 183 L 127 183 Z" fill="#005cb8"/>
  <path d="M 163 187 C 168 182, 188 182, 189 183 C 204 183, 205 184, 223 184 C 224 185, 233 185, 234 186 C 235 186, 236 187, 236 188 C 237 189, 237 225, 236 226 C 236 228, 234 230, 233 230 C 232 231, 217 231, 216 230 C 163 230, 162 229, 161 229 C 158 226, 158 221, 159 220 C 159 214, 160 213, 160 204 C 161 203, 161 193, 162 192 C 162 189, 163 188, 163 187 Z" fill="#005cb8"/>
  <path d="M 244 319 C 243 318, 243 314, 242 313 C 242 311, 241 310, 241 308 C 240 307, 240 306, 239 305 C 239 304, 238 303, 238 302 C 237 301, 237 300, 236 299 C 236 298, 234 296, 234 295 C 227 288, 226 288, 224 286 C 223 286, 222 285, 221 285 C 220 284, 219 284, 218 283 C 216 283, 215 282, 211 282 C 210 281, 195 281, 194 282 C 190 282, 189 283, 187 283 C 186 284, 185 284, 184 285 C 183 285, 182 286, 181 286 C 180 287, 179 287, 176 290 C 175 290, 172 293, 172 295 C 170 297, 170 298, 168 300 C 168 301, 164 305, 164 306 C 163 307, 163 308, 162 309 C 162 310, 161 311, 161 312 C 160 313, 160 314, 159 315 C 159 316, 158 317, 158 319 C 157 320, 157 321, 156 322 C 156 323, 155 324, 153 324 C 152 325, 148 325, 148 326 C 146 328, 146 335, 147 336 C 147 340, 148 341, 148 344 C 149 345, 149 347, 150 348 C 150 349, 151 350, 151 351 C 152 352, 152 353, 151 354 C 147 354, 146 353, 146 352 C 144 352, 143 351, 139 351 C 137 349, 133 349, 132 348 C 132 347, 131 346, 131 344 C 130 343, 129 343, 128 342 C 127 342, 125 340, 125 338 C 123 338, 122 337, 122 336 C 116 336, 115 337, 113 337 C 112 336, 108 336, 108 340 C 110 342, 110 343, 118 351 C 119 351, 121 353, 122 353 C 123 354, 124 354, 125 355 C 126 355, 127 356, 128 356 C 129 357, 130 357, 131 358 C 133 358, 134 359, 137 359 C 138 360, 142 360, 143 361 C 152 361, 153 360, 157 360 C 163 366, 164 366, 167 369 C 168 369, 170 371, 171 371 C 172 372, 173 372, 174 373 C 175 373, 176 374, 177 374 C 178 375, 180 375, 181 376 C 183 376, 184 377, 187 377 C 188 378, 192 378, 193 379 C 206 379, 207 378, 210 378 C 211 377, 213 377, 214 376 C 216 376, 217 375, 218 375 C 219 374, 220 374, 222 372 C 223 372, 226 369, 227 369 C 235 361, 235 360, 237 358 C 237 357, 238 356, 238 355 C 239 354, 239 353, 240 352 C 240 350, 241 349, 241 347 C 242 346, 242 344, 243 343 C 243 339, 244 338, 244 319 Z" fill="#252a35"/>
  <path d="M 206 307 C 207 308, 209 308, 210 309 C 211 309, 213 311, 214 311 C 218 315, 218 316, 220 318 C 220 320, 221 321, 221 322 C 222 323, 222 336, 221 337 C 221 338, 220 339, 220 340 C 219 341, 219 342, 217 344 C 217 345, 214 348, 213 348 C 211 350, 210 350, 209 351 C 208 351, 207 352, 204 352 C 203 353, 202 352, 198 352 C 197 351, 196 351, 194 349 C 193 349, 188 344, 188 343 C 187 342, 187 341, 186 340 C 186 339, 185 338, 185 335 C 184 334, 184 328, 185 327 C 185 324, 186 323, 186 321 C 187 320, 187 319, 188 318 C 188 317, 196 309, 197 309 C 198 308, 200 308, 201 307 L 206 307 Z" fill="#252a35"/>
  <path d="M 400 308 C 399 307, 399 305, 398 304 C 398 302, 397 301, 397 299 C 396 298, 396 297, 395 296 C 395 295, 393 293, 393 292 C 391 290, 391 289, 384 282 C 383 282, 381 280, 380 280 C 379 279, 378 279, 377 278 C 374 278, 373 277, 360 277 C 359 278, 356 278, 354 280 C 353 280, 351 282, 350 282 C 342 290, 342 291, 339 294 C 339 295, 337 297, 337 299 C 336 300, 336 301, 335 302 C 335 303, 334 304, 334 305 C 333 306, 333 307, 332 308 C 332 310, 331 311, 331 312 C 329 314, 328 314, 327 315 C 326 315, 326 316, 325 317 C 317 317, 317 329, 316 330 C 316 331, 315 332, 315 333 C 314 334, 314 335, 313 336 C 312 336, 308 340, 307 340 C 304 343, 297 343, 296 342 C 296 341, 289 341, 285 337 C 284 337, 282 335, 282 334 C 280 332, 280 331, 279 331 C 278 330, 278 329, 276 327 C 275 327, 274 326, 274 324 C 273 323, 273 322, 272 321 C 272 320, 258 320, 258 326 C 259 327, 259 328, 260 329 C 260 330, 261 331, 261 332 C 263 334, 263 335, 270 342 C 271 342, 272 343, 273 343 C 274 344, 275 344, 276 345 C 277 345, 278 346, 281 346 C 282 347, 285 347, 286 348 C 289 348, 290 349, 303 349 C 304 348, 306 348, 307 347 C 308 347, 309 346, 310 346 C 311 345, 312 345, 315 342 C 316 342, 318 340, 318 339 C 320 337, 322 339, 322 340 C 323 341, 323 342, 324 343 C 324 344, 327 347, 327 348 C 333 354, 334 354, 337 357 C 338 357, 339 358, 340 358 C 341 359, 343 359, 344 360 C 347 360, 348 361, 353 361 C 354 362, 358 362, 359 363 C 370 363, 371 362, 374 362 C 375 361, 376 361, 377 360 C 378 360, 379 359, 380 359 C 382 357, 383 357, 390 350 C 390 349, 392 347, 392 346 C 394 344, 394 343, 395 342 C 395 340, 396 339, 396 338 C 397 337, 397 335, 398 334 C 398 332, 399 331, 399 327 L 400 326 L 400 308 Z" fill="#252a35"/>
  <path d="M 364 300 C 370 300, 371 301, 373 301 C 379 307, 379 308, 380 309 C 380 310, 381 311, 381 314 C 382 315, 382 325, 381 326 C 381 327, 380 328, 380 329 C 379 330, 379 331, 378 332 C 378 333, 373 338, 371 338 C 370 339, 369 339, 368 340 C 365 340, 364 339, 363 339 C 362 338, 361 338, 360 337 C 359 337, 358 336, 358 335 C 355 332, 355 331, 354 330 C 354 329, 353 328, 353 323 C 352 322, 352 319, 353 318 C 353 314, 354 313, 354 311 C 355 310, 355 309, 356 308 C 356 307, 362 301, 363 301 L 364 300 Z" fill="#252a35"/>
  <path d="M 397 220 C 397 241, 398 241, 399 242 C 406 242, 406 220, 397 220 Z" fill="#252a35"/>
  <path d="M 264 195 C 264 214, 265 215, 265 227 C 266 228, 266 230, 269 233 C 290 233, 291 234, 323 234 C 325 232, 325 203, 324 203 C 323 202, 323 199, 321 197 C 315 197, 314 196, 301 196 C 300 195, 278 195, 277 194 C 266 194, 265 195, 264 195 Z" fill="#252a35"/>
  <path d="M 161 188 C 161 190, 160 191, 160 201 C 159 202, 159 211, 158 212 C 158 218, 157 219, 157 228 C 159 230, 160 230, 161 231 C 214 231, 215 232, 234 232 C 235 231, 236 231, 237 230 C 237 228, 238 227, 238 191 C 236 191, 235 190, 224 190 C 223 189, 195 189, 194 188 L 161 188 Z" fill="#252a35"/>
  <path d="M 129 185 C 123 185, 122 186, 118 186 C 117 187, 114 187, 113 188 C 110 188, 109 189, 107 189 C 106 190, 103 190, 102 191 C 99 191, 98 192, 96 192 C 93 195, 93 197, 91 199 C 90 199, 90 204, 89 205 C 89 209, 88 210, 88 215 C 87 216, 87 221, 86 222 C 86 226, 85 227, 85 233 C 95 233, 96 232, 106 232 C 107 231, 118 231, 119 230 C 121 230, 122 229, 122 228 C 123 227, 123 223, 124 222 C 124 216, 125 215, 125 209 C 126 208, 126 203, 127 202 C 127 197, 128 196, 128 191 L 129 190 L 129 185 Z" fill="#252a35"/>
  <path d="M 113 159 C 112 160, 112 165, 111 166 C 111 171, 116 171, 117 170 C 120 170, 121 169, 121 160 L 120 159 L 113 159 Z" fill="#252a35"/>
  <path d="M 305 155 C 305 163, 304 164, 304 171 C 315 171, 315 167, 314 166 C 314 157, 313 156, 313 155 L 305 155 Z" fill="#252a35"/>
  <path d="M 157 142 C 156 143, 156 147, 155 148 C 155 153, 154 154, 154 160 C 166 160, 166 151, 165 150 C 165 143, 164 143, 163 142 L 157 142 Z" fill="#252a35"/>
  <path d="M 124 336 C 124 340, 125 341, 125 343 C 126 343, 127 344, 128 344 C 130 346, 130 348, 131 349 C 132 349, 133 350, 135 350 C 137 352, 141 352, 142 353 C 144 353, 145 354, 145 355 C 153 355, 153 350, 152 349 C 152 348, 151 347, 151 346 C 150 345, 150 343, 149 342 C 149 339, 148 338, 148 334 C 147 333, 147 328, 141 328 C 139 330, 139 332, 136 335 C 132 335, 131 336, 124 336 Z" fill="#050508"/>
  <path d="M 318 318 C 302 318, 301 319, 284 319 C 283 320, 272 320, 272 325 C 273 326, 273 328, 274 328 C 277 331, 277 332, 278 332 C 279 333, 279 334, 281 336 C 281 337, 282 338, 283 338 C 287 342, 294 342, 295 343 C 296 343, 297 344, 306 344 C 309 341, 310 341, 314 337 C 315 337, 315 336, 316 335 C 316 334, 317 333, 317 332 L 318 331 L 318 318 Z" fill="#050508"/>
  <path d="M 149 320 C 149 326, 154 326, 155 325 C 157 325, 157 324, 158 323 C 158 322, 159 321, 159 319 C 160 318, 160 317, 161 316 C 161 315, 162 314, 162 313 C 163 312, 163 311, 164 310 C 164 309, 165 308, 165 307 C 169 303, 169 302, 171 300 C 171 299, 173 297, 173 295 C 177 291, 178 291, 181 288 C 182 288, 183 287, 184 287 C 185 286, 186 286, 187 285 C 188 285, 189 284, 191 284 C 192 283, 196 283, 197 282 C 208 282, 209 283, 213 283 C 214 284, 216 284, 217 285 C 218 285, 219 286, 220 286 C 221 287, 222 287, 224 289 C 225 289, 233 297, 233 298 C 235 300, 235 301, 236 302 C 236 303, 237 304, 237 305 C 238 306, 238 307, 239 308 C 239 309, 240 310, 240 312 C 241 313, 241 315, 242 316 C 242 320, 243 321, 243 323 C 252 323, 252 317, 251 316 C 251 306, 250 305, 250 302 C 249 301, 249 299, 248 298 C 248 296, 247 295, 247 294 C 246 293, 246 292, 245 291 C 245 290, 244 289, 244 288 C 242 286, 242 285, 239 282 C 239 281, 238 281, 237 280 C 237 279, 236 278, 235 278 C 231 274, 230 274, 229 273 C 228 273, 226 271, 225 271 C 224 270, 223 270, 222 269 C 221 269, 220 268, 218 268 C 217 267, 214 267, 213 266 C 195 266, 194 267, 191 267 C 190 268, 188 268, 187 269 C 185 269, 184 270, 183 270 C 182 271, 181 271, 179 273 C 178 273, 175 276, 174 276 C 168 282, 167 282, 167 283 C 163 287, 163 288, 160 291 C 160 292, 159 293, 159 294 C 158 295, 158 296, 157 297 C 157 298, 156 299, 156 300 C 155 301, 155 303, 154 304 C 154 306, 153 307, 153 308 C 152 309, 152 311, 151 312 C 151 314, 150 315, 150 319 L 149 320 Z" fill="#050508"/>
  <path d="M 327 301 C 327 310, 326 311, 326 315 C 331 315, 332 314, 332 313 C 333 312, 333 310, 334 309 C 334 308, 335 307, 335 306 C 336 305, 336 304, 337 303 C 337 302, 338 301, 338 299 C 340 297, 340 296, 343 293 C 343 292, 352 283, 353 283 C 355 281, 356 281, 358 279 C 361 279, 362 278, 371 278 C 372 279, 375 279, 376 280 C 377 280, 378 281, 379 281 C 381 283, 382 283, 390 291 C 390 292, 392 294, 392 295 C 394 297, 394 298, 395 299 C 395 300, 396 301, 396 303 C 397 304, 397 306, 398 307 C 398 309, 399 310, 399 314 C 405 314, 405 305, 404 304 C 404 299, 403 298, 403 295 C 402 294, 402 293, 401 292 C 401 291, 400 290, 400 289 C 399 288, 399 287, 398 286 C 398 285, 396 283, 396 282 C 394 280, 394 279, 388 273 C 387 273, 383 269, 382 269 C 381 268, 380 268, 379 267 C 378 267, 377 266, 375 266 C 374 265, 372 265, 371 264 C 362 264, 361 265, 358 265 C 357 266, 355 266, 354 267 C 353 267, 352 268, 351 268 C 350 269, 349 269, 346 272 C 345 272, 339 278, 339 279 C 337 281, 337 282, 335 284 C 335 285, 333 287, 333 288 C 332 289, 332 290, 331 291 C 331 292, 330 293, 330 295 C 329 296, 329 297, 328 298 L 328 300 L 327 301 Z" fill="#050508"/>
  <path d="M 400 217 C 400 221, 404 221, 404 217 L 400 217 Z" fill="#050508"/>
  <path d="M 265 191 C 265 195, 275 195, 276 196 C 298 196, 299 197, 314 197 C 315 198, 319 198, 320 199 C 324 199, 324 194, 320 190 C 316 190, 315 189, 298 189 C 297 188, 281 188, 280 187 C 269 187, 267 189, 266 189 L 266 190 L 265 191 Z" fill="#050508"/>
  <path d="M 128 182 C 124 182, 123 183, 120 183 C 120 187, 124 187, 125 186 L 128 186 L 128 182 Z" fill="#050508"/>
  <path d="M 163 184 C 163 189, 195 189, 196 190 C 221 190, 222 191, 237 191 C 237 186, 236 185, 232 185 C 231 184, 213 184, 212 183 C 195 183, 194 182, 178 182 C 177 181, 169 181, 168 182 C 166 182, 165 183, 164 183 L 163 184 Z" fill="#050508"/>
</svg>
