<?xml version="1.0" ?>
<svg xmlns="http://www.w3.org/2000/svg" width="512" height="512" viewBox="0 0 512 512" style="background-color: transparent;">
  <path d="M 213 276 C 213 310, 214 310, 215 311 C 234 311, 235 310, 238 310 C 239 309, 239 276, 213 276 Z" fill="#eb9c04"/>
  <path d="M 188 276 C 188 280, 192 280, 192 276 L 188 276 Z" fill="#eb9c04"/>
  <path d="M 84 274 C 84 304, 85 305, 92 305 C 93 304, 93 274, 84 274 Z" fill="#eb9c04"/>
  <path d="M 378 270 C 378 292, 382 292, 382 270 L 378 270 Z" fill="#eb9c04"/>
  <path d="M 286 305 C 281 305, 280 306, 279 306 C 276 309, 276 310, 275 311 C 275 312, 274 313, 274 315 C 273 316, 273 318, 272 319 C 272 325, 271 326, 271 335 C 272 336, 272 342, 273 343 C 273 345, 274 346, 274 347 C 275 348, 275 349, 278 352 C 284 352, 285 351, 286 351 C 288 349, 288 348, 289 347 C 289 346, 290 345, 290 344 C 291 343, 291 341, 292 340 C 292 337, 293 336, 293 318 C 292 317, 292 314, 291 313 C 291 311, 290 310, 290 309 L 286 305 Z" fill="#949697"/>
  <path d="M 357 296 C 355 298, 355 299, 354 300 C 354 302, 353 303, 353 307 C 352 308, 352 321, 353 322 C 353 327, 354 328, 354 330 C 355 331, 355 332, 356 333 C 361 333, 363 331, 363 330 C 364 329, 364 327, 365 326 C 365 323, 366 322, 366 304 C 365 303, 365 301, 364 300 C 364 299, 363 298, 363 297 L 362 296 L 357 296 Z" fill="#949697"/>
  <path d="M 74 310 C 74 328, 75 329, 75 333 C 76 333, 77 334, 91 334 C 92 335, 103 335, 104 336 C 116 336, 117 337, 130 337 C 131 338, 145 338, 146 339 C 158 339, 159 340, 172 340 C 173 341, 184 341, 185 342 C 199 342, 200 343, 212 343 C 213 344, 234 344, 235 343 C 240 343, 241 342, 244 342 C 245 341, 246 341, 246 340 C 247 339, 247 326, 248 325 C 248 311, 247 310, 238 310 C 237 309, 238 308, 244 308 C 246 306, 246 276, 238 276 C 238 308, 237 309, 233 309 C 232 310, 217 310, 214 308 C 214 276, 197 276, 196 275 C 192 275, 191 276, 191 278 C 189 281, 189 302, 188 303 C 188 307, 189 308, 188 309 C 179 309, 178 308, 161 308 C 160 307, 139 307, 138 306 C 112 306, 111 305, 112 304 C 113 304, 113 278, 110 276 C 110 274, 93 274, 92 275 C 92 302, 90 304, 80 304 C 79 305, 76 305, 75 306 L 75 309 L 74 310 Z" fill="#949697"/>
  <path d="M 374 270 C 374 274, 375 275, 375 285 C 374 286, 374 292, 375 293 C 376 293, 377 294, 377 307 C 376 308, 375 308, 375 312 C 387 312, 388 311, 388 292 C 387 291, 380 291, 379 290 L 379 270 L 374 270 Z" fill="#949697"/>
  <path d="M 107 188 C 104 191, 104 192, 103 193 C 103 194, 102 195, 102 200 C 103 201, 103 204, 104 205 C 104 206, 107 209, 108 209 C 109 210, 120 210, 121 209 C 122 209, 125 206, 125 205 C 126 204, 126 202, 127 201 C 127 196, 126 195, 126 193 C 125 192, 125 191, 123 189 C 122 189, 120 187, 109 187 L 108 188 L 107 188 Z" fill="#949697"/>
  <path d="M 231 179 C 230 180, 229 180, 228 181 C 227 181, 225 183, 225 184 C 224 185, 224 186, 223 187 C 223 197, 224 198, 224 199 C 225 200, 225 201, 227 203 C 228 203, 229 204, 230 204 C 231 205, 241 205, 242 204 C 243 204, 248 199, 248 196 C 249 195, 249 189, 248 188 C 248 187, 247 186, 247 185 C 242 180, 240 180, 239 179 L 231 179 Z" fill="#949697"/>
  <path d="M 179 150 C 179 158, 180 159, 180 161 C 181 162, 185 162, 186 163 C 191 163, 192 162, 196 162 C 197 163, 197 165, 201 165 C 202 166, 206 166, 207 167 C 210 167, 211 168, 215 168 C 216 169, 220 169, 221 170 C 225 170, 226 171, 230 171 C 231 172, 251 172, 252 171 C 264 171, 265 170, 277 170 C 277 166, 274 166, 273 165 C 270 165, 269 164, 265 164 C 264 163, 261 163, 260 162 C 257 162, 256 161, 252 161 C 251 160, 248 160, 247 159 C 243 159, 242 158, 239 158 C 238 157, 234 157, 233 156 C 230 156, 229 155, 226 155 C 225 154, 221 154, 220 153 C 216 153, 215 152, 212 152 C 211 151, 208 151, 207 150 C 203 150, 202 149, 198 149 C 197 148, 186 148, 185 149 L 180 149 L 179 150 Z" fill="#949697"/>
  <path d="M 276 140 C 276 151, 277 152, 277 153 C 279 153, 280 154, 283 154 C 284 155, 286 155, 287 156 C 291 156, 291 155, 293 153 C 296 153, 298 155, 298 156 C 299 157, 299 159, 301 159 C 302 160, 305 160, 306 161 C 308 161, 309 162, 312 162 C 313 163, 315 163, 316 164 C 319 164, 320 165, 323 165 C 324 166, 326 166, 327 167 C 330 167, 331 168, 333 168 C 334 169, 337 169, 338 170 C 341 170, 342 171, 344 171 C 345 172, 348 172, 349 173 C 353 173, 353 172, 354 171 C 357 171, 358 172, 358 173 C 365 173, 366 172, 367 172 C 367 162, 365 160, 363 160 C 362 159, 360 159, 359 158 C 356 158, 355 157, 353 157 C 352 156, 350 156, 349 155 C 346 155, 345 154, 343 154 C 342 153, 340 153, 339 152 C 337 152, 336 151, 333 151 C 332 150, 330 150, 329 149 C 327 149, 326 148, 324 148 C 323 147, 321 147, 320 146 C 318 146, 317 145, 315 145 C 314 144, 312 144, 311 143 C 309 143, 308 142, 306 142 C 305 141, 303 141, 302 140 C 299 140, 298 139, 280 139 L 279 140 L 276 140 Z" fill="#949697"/>
  <path d="M 374 292 C 374 305, 378 305, 378 292 L 374 292 Z" fill="#0059ba"/>
  <path d="M 376 190 C 371 184, 364 183, 363 182 C 357 181, 356 180, 347 179 C 346 178, 343 178, 342 177 C 339 177, 338 176, 335 176 C 334 175, 330 175, 329 174 C 326 174, 325 173, 321 173 C 320 172, 317 172, 316 171 C 313 171, 312 170, 303 169 C 302 168, 276 168, 275 169 C 263 169, 262 170, 235 171 C 234 172, 225 172, 224 173 C 193 174, 192 175, 179 175 C 178 176, 175 176, 174 177 C 172 177, 169 180, 166 185 C 166 187, 164 191, 164 194 C 163 195, 163 202, 162 203 C 162 210, 161 211, 160 227 C 159 228, 159 236, 158 237 C 126 237, 125 238, 123 238 C 122 237, 118 237, 117 238 C 91 238, 88 241, 85 246 C 85 261, 84 262, 84 266 C 85 267, 85 274, 86 275 C 113 275, 113 262, 114 261 C 114 255, 115 254, 133 254 C 134 253, 173 253, 174 254 C 187 254, 188 255, 188 276 C 194 276, 195 277, 244 277 C 245 278, 245 304, 242 307 C 240 307, 240 311, 245 311 C 247 313, 247 323, 246 324 C 246 331, 251 331, 251 329 C 252 328, 252 319, 253 318 C 253 311, 254 310, 255 303 C 256 302, 256 300, 257 299 C 259 291, 263 284, 263 282 C 268 276, 268 275, 274 269 C 280 266, 283 266, 290 270 C 293 273, 300 285, 300 288 C 302 291, 302 293, 304 297 C 304 301, 305 302, 306 319 C 314 319, 315 318, 320 318 C 321 317, 325 317, 326 316 C 331 316, 332 315, 341 314 C 341 311, 342 310, 342 297 C 343 296, 343 291, 344 290 C 344 287, 345 286, 345 283 C 346 282, 347 277, 350 273 C 351 270, 356 265, 358 265 C 359 264, 361 265, 368 273 C 368 275, 370 278, 371 284 C 376 284, 376 273, 375 272 C 376 271, 382 271, 382 264 C 381 263, 381 245, 380 244 C 380 230, 379 229, 379 215 C 378 214, 378 201, 377 200 C 377 194, 376 193, 376 190 Z" fill="#0059ba"/>
  <path d="M 348 197 C 353 197, 354 198, 358 198 C 359 199, 363 199, 364 200 C 367 200, 369 202, 369 213 C 370 214, 370 226, 371 227 C 371 234, 369 236, 364 236 C 363 235, 349 235, 347 233 L 347 198 L 348 197 Z" fill="#0059ba"/>
  <path d="M 309 190 C 315 190, 316 191, 320 191 C 321 192, 326 192, 327 193 C 331 193, 333 195, 333 196 C 334 197, 334 229, 333 230 C 333 232, 331 234, 325 234 C 324 233, 309 233, 307 231 L 307 192 L 309 190 Z" fill="#0059ba"/>
  <path d="M 282 187 C 282 189, 283 190, 283 196 C 282 197, 282 227, 281 228 C 281 229, 277 233, 274 233 C 273 234, 238 234, 238 235 C 237 236, 231 236, 230 235 C 230 234, 209 234, 208 235 C 172 235, 171 234, 170 234 C 169 233, 169 231, 168 230 C 168 225, 169 224, 169 219 C 170 218, 170 212, 171 211 C 171 204, 172 203, 172 197 C 173 196, 173 194, 174 193 C 174 192, 176 190, 177 190 C 178 189, 187 189, 188 188 C 200 188, 201 187, 217 187 C 218 186, 226 186, 226 185 C 229 182, 230 182, 231 181 C 232 181, 233 180, 237 180 C 238 181, 240 181, 244 185 C 251 185, 252 184, 271 184 C 272 183, 278 183, 282 187 Z" fill="#0059ba"/>
  <path d="M 118 336 C 118 343, 119 344, 119 346 C 120 347, 120 348, 121 349 C 121 350, 122 351, 122 352 C 123 353, 123 354, 125 356 C 125 357, 130 362, 131 362 C 133 364, 134 364, 135 365 C 137 365, 138 366, 141 366 C 142 367, 149 367, 150 368 C 167 368, 168 367, 169 367 C 170 366, 171 366, 172 365 C 173 365, 180 358, 180 357 C 182 355, 182 354, 184 352 C 184 351, 185 350, 185 349 C 186 348, 186 347, 187 346 C 187 341, 186 340, 182 340 C 182 341, 181 342, 181 344 C 179 346, 179 348, 178 349 C 178 350, 177 351, 177 352 C 176 353, 175 353, 172 356 C 171 356, 170 357, 170 358 C 168 360, 167 360, 166 361 C 164 361, 163 362, 162 362 C 161 361, 161 360, 159 358 C 158 358, 157 357, 156 357 C 155 356, 155 355, 154 354 C 154 352, 153 351, 153 349 C 151 349, 147 345, 147 344 C 146 343, 146 339, 145 338 C 145 337, 133 337, 132 336 L 118 336 Z" fill="#232731"/>
  <path d="M 286 280 C 278 280, 276 282, 275 282 C 273 284, 272 284, 270 286 C 270 287, 268 289, 268 290 C 266 292, 266 293, 265 294 C 265 295, 264 296, 264 298 C 263 299, 263 301, 261 303 C 261 304, 260 305, 260 309 C 259 310, 258 310, 257 311 C 257 313, 256 314, 256 317 C 255 318, 255 320, 254 321 C 254 322, 252 324, 252 326 C 251 327, 250 327, 250 329 C 249 330, 246 330, 246 337 C 245 338, 245 339, 244 340 C 243 340, 242 341, 239 341 C 238 342, 233 342, 232 343 C 231 343, 231 351, 232 352 C 232 355, 233 356, 233 358 C 234 359, 234 361, 235 362 C 235 363, 236 364, 236 365 C 237 366, 237 367, 239 369 C 239 370, 244 375, 245 375 C 246 376, 247 376, 248 377 C 251 377, 252 378, 260 378 C 261 379, 280 379, 281 378 C 282 378, 283 377, 284 377 C 290 371, 290 370, 292 368 C 292 367, 293 366, 293 365 C 294 364, 294 363, 295 362 C 295 361, 296 360, 296 358 C 297 357, 297 356, 298 355 C 298 353, 299 352, 299 349 C 300 348, 300 345, 301 344 C 301 339, 302 338, 302 310 C 301 309, 301 304, 300 303 C 300 300, 299 299, 299 297 C 298 296, 298 294, 297 293 C 297 292, 296 291, 296 290 C 295 289, 295 288, 293 286 C 293 285, 290 282, 289 282 C 288 281, 287 281, 286 280 Z" fill="#232731"/>
  <path d="M 284 306 C 289 311, 289 312, 290 313 C 290 315, 291 316, 291 319 C 292 320, 292 334, 291 335 C 291 338, 290 339, 290 341 C 289 342, 289 343, 288 344 C 288 345, 287 346, 287 347 C 284 350, 283 350, 282 351 C 280 351, 276 347, 276 346 C 275 345, 275 344, 274 343 C 274 341, 273 340, 273 334 C 272 333, 272 328, 273 327 C 273 321, 274 320, 274 318 C 275 317, 275 315, 276 314 C 276 313, 277 312, 277 311 C 281 307, 282 307, 283 306 L 284 306 Z" fill="#232731"/>
  <path d="M 362 276 C 352 276, 351 277, 351 278 C 350 279, 350 280, 349 281 C 349 282, 348 283, 348 285 C 347 286, 347 287, 346 288 C 346 291, 345 292, 345 295 C 344 296, 344 304, 343 305 C 343 308, 341 310, 341 311 C 339 313, 335 313, 334 314 C 330 314, 329 315, 324 315 C 323 316, 321 316, 321 324 C 322 325, 322 333, 323 334 C 323 337, 324 338, 324 340 C 325 341, 325 343, 326 344 C 326 345, 327 346, 327 347 C 332 352, 334 352, 335 353 C 343 353, 344 354, 358 354 C 359 353, 360 353, 364 349 C 364 348, 366 346, 366 345 C 367 344, 367 342, 368 341 C 368 339, 369 338, 369 336 C 370 335, 370 332, 371 331 C 371 326, 372 325, 372 316 C 373 315, 373 310, 372 309 C 372 297, 371 296, 371 292 C 370 291, 370 289, 369 288 C 369 286, 368 285, 368 283 C 367 282, 367 281, 365 279 C 365 278, 364 277, 363 277 L 362 276 Z" fill="#232731"/>
  <path d="M 360 297 C 362 299, 362 300, 363 301 C 363 302, 364 303, 364 305 C 365 306, 365 320, 364 321 C 364 324, 363 325, 363 327 C 362 328, 362 329, 359 332 C 358 332, 356 330, 356 329 C 355 328, 355 326, 354 325 C 354 320, 353 319, 353 310 C 354 309, 354 305, 355 304 C 355 302, 356 301, 356 300 L 359 297 L 360 297 Z" fill="#232731"/>
  <path d="M 112 213 C 111 214, 111 226, 112 227 C 112 239, 119 239, 120 238 C 122 238, 122 213, 112 213 Z" fill="#232731"/>
  <path d="M 346 199 C 346 235, 347 236, 361 236 C 362 237, 371 237, 372 236 C 372 225, 371 224, 371 212 C 370 211, 370 204, 369 204 C 368 203, 367 203, 366 202 C 362 202, 361 201, 357 201 C 356 200, 351 200, 350 199 L 346 199 Z" fill="#232731"/>
  <path d="M 306 192 C 306 233, 307 234, 322 234 C 323 235, 333 235, 334 234 C 334 232, 335 231, 335 202 C 334 201, 334 199, 333 199 C 332 198, 332 197, 331 196 C 328 196, 327 195, 323 195 C 322 194, 317 194, 316 193 C 311 193, 310 192, 306 192 Z" fill="#232731"/>
  <path d="M 281 187 C 279 187, 278 186, 271 186 C 270 185, 261 185, 260 186 C 247 186, 247 190, 248 191 C 248 193, 247 194, 247 197 C 241 203, 240 203, 239 204 C 233 204, 232 203, 231 203 C 230 202, 229 202, 226 199 C 226 198, 225 197, 225 196 C 224 195, 224 187, 219 187 C 218 188, 201 188, 200 189 C 190 189, 189 190, 184 190 C 183 191, 176 191, 173 194 C 173 198, 172 199, 172 205 C 171 206, 171 212, 170 213 C 170 219, 169 220, 169 226 C 168 227, 167 227, 167 232 C 168 233, 168 235, 169 235 C 170 236, 210 236, 211 235 C 228 235, 229 236, 229 237 C 239 237, 239 236, 240 235 C 275 235, 276 234, 279 234 C 279 232, 280 231, 281 231 C 281 200, 282 199, 282 191 L 281 190 L 281 187 Z" fill="#232731"/>
  <path d="M 352 170 C 352 171, 351 172, 351 181 C 354 181, 355 182, 360 182 C 360 172, 359 171, 359 170 L 352 170 Z" fill="#232731"/>
  <path d="M 190 161 C 190 163, 189 164, 189 176 C 194 176, 195 175, 198 175 L 198 161 L 190 161 Z" fill="#232731"/>
  <path d="M 291 152 C 290 153, 290 169, 300 169 C 300 155, 299 154, 299 153 L 298 152 L 291 152 Z" fill="#232731"/>
  <path d="M 145 338 C 145 345, 146 346, 146 347 C 148 349, 150 349, 152 351 C 152 353, 153 354, 153 356 C 154 357, 154 358, 155 358 C 156 359, 157 359, 160 362 C 160 363, 165 363, 166 362 C 168 362, 168 360, 169 359 C 171 359, 173 357, 174 357 C 177 354, 178 354, 178 353 C 179 352, 179 351, 180 350 C 180 348, 182 346, 182 341 C 181 341, 180 340, 169 340 C 168 339, 155 339, 154 338 L 145 338 Z" fill="#020304"/>
  <path d="M 290 268 C 289 268, 288 267, 287 267 C 286 266, 285 266, 284 265 C 280 265, 279 266, 277 266 C 276 267, 275 267, 274 268 C 273 268, 266 275, 266 276 C 264 278, 264 279, 262 281 C 262 283, 261 284, 261 285 C 260 286, 260 287, 259 288 C 259 289, 258 290, 258 292 C 257 293, 257 295, 256 296 C 256 298, 255 299, 255 302 C 254 303, 254 306, 253 307 C 253 312, 252 313, 252 319 C 251 320, 251 324, 255 324 C 255 323, 256 322, 256 320 C 257 319, 257 316, 258 315 C 258 313, 260 311, 261 311 C 261 307, 262 306, 262 305 C 264 303, 264 301, 265 300 C 265 298, 266 297, 266 296 C 267 295, 267 294, 269 292 C 269 291, 271 289, 271 288 C 274 285, 275 285, 277 283 C 278 283, 280 281, 284 281 C 285 282, 286 282, 287 283 C 288 283, 292 287, 292 288 C 294 290, 294 291, 295 292 C 295 293, 296 294, 296 295 C 297 296, 297 298, 298 299 C 298 301, 299 302, 299 305 C 300 306, 300 311, 301 312 C 301 320, 306 320, 306 303 C 305 302, 305 296, 304 295 C 304 294, 303 293, 303 291 C 302 290, 302 288, 301 287 C 301 284, 300 283, 300 282 C 299 281, 299 280, 298 279 C 298 278, 297 277, 297 276 C 295 274, 295 273, 290 268 Z" fill="#020304"/>
  <path d="M 355 264 C 353 266, 352 266, 352 267 C 350 269, 350 270, 348 272 C 348 273, 347 274, 347 275 C 346 276, 346 278, 345 279 C 345 281, 344 282, 344 285 C 343 286, 343 290, 342 291 C 342 296, 341 297, 341 306 C 345 306, 345 298, 346 297 C 346 294, 347 293, 347 290 C 348 289, 348 288, 349 287 C 349 285, 350 284, 350 283 C 351 282, 351 281, 352 280 C 352 279, 354 277, 360 277 C 361 278, 362 278, 364 280 C 364 281, 366 283, 366 284 C 367 285, 367 287, 368 288 C 368 290, 369 291, 369 293 C 370 294, 370 298, 371 299 C 371 308, 375 308, 375 297 C 374 296, 374 290, 373 289 C 373 284, 372 283, 372 281 C 371 280, 371 277, 370 276 C 370 275, 369 274, 369 272 C 367 270, 367 269, 366 268 C 366 267, 364 265, 363 265 L 362 264 L 355 264 Z" fill="#020304"/>
  <path d="M 113 254 C 113 277, 112 278, 112 295 C 113 296, 113 297, 116 300 C 115 301, 115 306, 119 306 C 119 304, 120 303, 121 304 C 121 307, 145 307, 146 308 C 166 308, 167 309, 184 309 C 184 307, 186 305, 188 305 C 188 301, 187 301, 186 300 C 187 299, 188 299, 188 285 C 186 285, 185 284, 185 280 C 186 279, 189 279, 189 275 C 188 274, 188 271, 187 271 C 186 270, 187 269, 188 269 C 188 262, 187 262, 186 261 C 187 260, 189 260, 189 254 C 188 253, 114 253, 113 254 Z" fill="#020304"/>
  <path d="M 111 210 C 111 214, 118 214, 118 210 L 111 210 Z" fill="#020304"/>
  <path d="M 346 196 C 346 200, 348 200, 349 201 C 354 201, 355 202, 359 202 C 360 203, 364 203, 365 204 C 369 204, 369 200, 368 200 C 367 199, 364 199, 363 198 C 358 198, 357 197, 353 197 L 352 196 L 346 196 Z" fill="#020304"/>
  <path d="M 307 189 C 307 193, 308 193, 309 194 C 314 194, 315 195, 320 195 C 321 196, 325 196, 326 197 C 333 197, 333 193, 330 193 C 329 192, 325 192, 324 191 C 320 191, 319 190, 315 190 L 314 189 L 307 189 Z" fill="#020304"/>
  <path d="M 179 188 C 179 192, 185 192, 185 188 L 179 188 Z" fill="#020304"/>
  <path d="M 269 183 C 269 187, 276 187, 277 188 C 282 188, 282 184, 281 183 L 269 183 Z" fill="#020304"/>
</svg>
