<?xml version="1.0" ?>
<svg xmlns="http://www.w3.org/2000/svg" width="512" height="512" viewBox="0 0 512 512" style="background-color: transparent;">
  <path d="M 272 276 C 272 309, 273 309, 274 310 C 278 310, 279 311, 295 311 C 296 310, 298 310, 299 309 L 299 276 L 272 276 Z" fill="#e99c07"/>
  <path d="M 418 274 C 418 305, 427 305, 427 274 L 418 274 Z" fill="#e99c07"/>
  <path d="M 129 270 C 129 292, 133 292, 133 270 L 129 270 Z" fill="#e99c07"/>
  <path d="M 225 305 C 224 306, 223 306, 222 307 C 222 308, 221 309, 221 310 C 220 311, 220 313, 219 314 C 219 317, 218 318, 218 335 C 219 336, 219 340, 220 341 C 220 343, 221 344, 221 346 C 222 347, 222 348, 227 353 C 233 353, 235 351, 236 351 C 236 350, 237 349, 237 348 C 238 347, 238 346, 239 345 C 239 341, 240 340, 240 324 C 239 323, 239 319, 238 318 C 238 316, 237 315, 237 313 C 236 312, 236 310, 231 305 L 225 305 Z" fill="#939597"/>
  <path d="M 149 296 C 147 298, 147 300, 146 301 C 146 303, 145 304, 145 321 C 146 322, 146 326, 147 327 C 147 329, 148 330, 148 331 C 150 333, 155 333, 157 331 C 157 329, 158 328, 158 324 C 159 323, 159 309, 158 308 C 158 304, 157 303, 157 300 C 156 299, 156 298, 154 296 L 149 296 Z" fill="#939597"/>
  <path d="M 437 308 C 436 307, 436 305, 432 305 C 431 304, 420 304, 419 303 C 419 274, 400 274, 400 277 C 399 278, 399 297, 398 298 C 398 304, 396 306, 373 306 C 372 307, 351 307, 350 308 C 335 308, 334 309, 324 309 C 323 308, 324 307, 324 301 C 323 300, 323 280, 322 279 C 322 277, 321 276, 298 276 C 298 307, 296 309, 294 309 C 293 310, 281 310, 280 309 C 276 309, 273 307, 273 276 C 265 276, 264 277, 264 303 C 265 304, 265 307, 267 307 C 269 309, 268 310, 264 310 C 263 311, 263 322, 264 323 C 264 339, 265 340, 265 341 C 267 341, 268 342, 271 342 C 272 343, 275 343, 276 344 C 298 344, 299 343, 311 343 C 312 342, 326 342, 327 341 C 339 341, 340 340, 352 340 C 353 339, 366 339, 367 338 C 380 338, 381 337, 394 337 C 395 336, 406 336, 407 335 C 419 335, 420 334, 433 334 C 434 333, 436 333, 436 332 L 437 331 L 437 308 Z" fill="#939597"/>
  <path d="M 137 270 C 132 270, 132 290, 131 291 C 123 291, 123 311, 124 312 C 133 312, 134 311, 134 293 C 135 292, 137 292, 137 270 Z" fill="#939597"/>
  <path d="M 388 189 C 386 191, 386 192, 385 193 C 385 195, 384 196, 384 202 C 385 203, 385 205, 389 209 C 390 209, 391 210, 401 210 C 402 209, 404 209, 407 206 C 407 205, 408 204, 408 202 C 409 201, 409 196, 408 195 C 408 193, 407 192, 407 191 C 405 189, 404 189, 403 188 C 402 188, 401 187, 392 187 C 391 188, 390 188, 389 189 L 388 189 Z" fill="#939597"/>
  <path d="M 271 179 C 270 180, 269 180, 268 181 C 267 181, 264 184, 264 185 C 263 186, 263 187, 262 188 C 262 195, 263 196, 263 198 C 264 199, 264 200, 268 204 C 269 204, 270 205, 281 205 C 283 203, 284 203, 286 201 C 286 200, 287 199, 287 198 C 288 197, 288 187, 287 186 C 287 185, 286 184, 286 183 C 284 181, 283 181, 282 180 C 281 180, 280 179, 271 179 Z" fill="#939597"/>
  <path d="M 332 150 C 331 149, 329 149, 328 148 C 312 148, 311 149, 307 149 C 306 150, 303 150, 302 151 C 299 151, 298 152, 294 152 C 293 153, 290 153, 289 154 C 285 154, 284 155, 281 155 C 280 156, 277 156, 276 157 C 272 157, 271 158, 268 158 C 267 159, 264 159, 263 160 C 259 160, 258 161, 255 161 C 254 162, 250 162, 249 163 C 246 163, 245 164, 241 164 C 240 165, 237 165, 236 166 C 233 166, 233 170, 244 170 C 245 171, 258 171, 259 172 C 279 172, 280 171, 284 171 C 285 170, 289 170, 290 169 C 294 169, 295 168, 299 168 C 300 167, 303 167, 304 166 C 308 166, 309 165, 313 165 C 314 164, 314 163, 315 162 C 316 162, 317 161, 318 161 C 320 163, 324 163, 325 162 C 328 162, 329 161, 331 161 C 331 160, 332 159, 332 150 Z" fill="#939597"/>
  <path d="M 235 142 C 234 141, 234 140, 229 140 C 228 139, 213 139, 212 140 C 209 140, 208 141, 206 141 C 205 142, 203 142, 202 143 C 200 143, 199 144, 197 144 C 196 145, 194 145, 193 146 C 191 146, 190 147, 187 147 C 186 148, 184 148, 183 149 C 181 149, 180 150, 178 150 C 177 151, 175 151, 174 152 C 172 152, 171 153, 168 153 C 167 154, 165 154, 164 155 C 162 155, 161 156, 159 156 C 158 157, 156 157, 155 158 C 152 158, 151 159, 149 159 C 148 160, 146 160, 144 162 C 144 172, 145 172, 146 173 C 153 173, 153 172, 154 171 C 157 171, 158 172, 158 173 C 162 173, 163 172, 166 172 C 167 171, 169 171, 170 170 C 173 170, 174 169, 177 169 C 178 168, 181 168, 182 167 C 184 167, 185 166, 188 166 C 189 165, 192 165, 193 164 C 195 164, 196 163, 199 163 C 200 162, 203 162, 204 161 C 206 161, 207 160, 209 160 C 210 159, 212 159, 213 158 C 213 155, 214 154, 215 154 C 216 153, 217 154, 218 154 C 219 155, 219 156, 224 156 C 225 155, 228 155, 229 154 C 232 154, 233 153, 234 153 C 234 150, 235 149, 235 142 Z" fill="#939597"/>
  <path d="M 133 292 C 133 309, 137 309, 137 292 L 133 292 Z" fill="#0058b8"/>
  <path d="M 134 194 C 134 201, 133 202, 133 215 C 132 216, 132 230, 131 231 C 131 245, 130 246, 130 263 C 129 264, 129 270, 133 270 C 136 272, 136 284, 140 284 C 141 278, 143 275, 143 273 C 148 266, 153 264, 159 269 C 164 278, 164 280, 166 283 C 166 286, 167 287, 168 297 C 169 298, 169 314, 174 314 C 175 315, 179 315, 180 316 C 191 317, 192 318, 196 318 C 197 319, 205 319, 205 309 C 206 308, 206 302, 207 301 C 207 297, 208 296, 209 290 C 211 287, 211 285, 218 273 C 222 269, 228 266, 233 267 C 241 274, 241 275, 246 281 C 251 291, 251 293, 253 296 C 253 298, 255 302, 255 306 C 256 307, 256 311, 257 312 C 257 317, 258 318, 258 328 C 259 329, 259 331, 265 331 C 265 321, 264 320, 264 313 C 266 311, 269 311, 269 306 C 267 306, 266 305, 266 302 C 265 301, 265 279, 267 277 C 323 277, 324 276, 324 255 C 325 254, 332 254, 333 253 C 379 253, 380 254, 396 254 C 398 256, 398 275, 425 275 C 427 274, 427 250, 426 249 C 426 246, 422 239, 420 239 C 419 238, 384 238, 383 237 C 353 237, 352 236, 352 228 C 351 227, 351 219, 350 218 C 350 211, 349 210, 349 203 C 348 202, 348 195, 347 194 C 347 190, 343 181, 337 176 C 334 176, 333 175, 321 175 C 320 174, 303 174, 302 173 C 288 173, 287 172, 276 172 C 275 171, 247 170, 246 169 C 234 169, 233 168, 209 168 C 208 169, 199 170, 198 171 C 195 171, 194 172, 191 172 C 190 173, 187 173, 186 174 C 181 174, 180 175, 177 175 C 176 176, 173 176, 172 177 C 169 177, 168 178, 165 178 C 164 179, 161 179, 160 180 C 155 180, 154 181, 151 181 C 147 183, 143 183, 142 184 C 140 184, 136 188, 136 190 L 134 194 Z" fill="#0058b8"/>
  <path d="M 163 197 C 164 198, 164 232, 163 233 C 163 234, 162 235, 150 235 C 149 236, 141 236, 140 235 C 140 227, 141 226, 141 214 C 142 213, 142 202, 144 200 C 147 200, 148 199, 152 199 C 153 198, 158 198, 159 197 L 163 197 Z" fill="#0058b8"/>
  <path d="M 201 190 C 203 192, 203 193, 204 194 C 204 227, 203 228, 203 231 C 201 233, 187 233, 186 234 C 180 234, 178 232, 178 206 C 177 205, 177 197, 178 196 C 178 195, 180 193, 185 193 C 186 192, 190 192, 191 191 C 196 191, 197 190, 201 190 Z" fill="#0058b8"/>
  <path d="M 228 187 C 229 186, 229 185, 230 184 C 231 184, 232 183, 239 183 C 240 184, 258 184, 259 185 C 266 185, 269 182, 270 182 C 271 181, 272 181, 273 180 C 278 180, 279 181, 280 181 C 281 182, 282 182, 285 185 C 285 186, 293 186, 294 187 C 309 187, 310 188, 326 188 C 327 189, 333 189, 337 193 C 337 194, 338 195, 338 200 C 339 201, 339 208, 340 209 C 340 215, 341 216, 341 219 C 342 220, 342 226, 343 227 C 343 230, 342 231, 342 232 C 339 235, 301 235, 300 234 C 282 234, 282 235, 281 236 C 274 236, 273 235, 273 234 C 242 234, 241 233, 233 233 C 230 230, 230 229, 229 228 C 229 217, 228 216, 228 187 Z" fill="#0058b8"/>
  <path d="M 393 336 C 379 336, 378 337, 366 337 C 366 339, 365 340, 365 342 C 361 346, 359 346, 358 347 C 358 348, 356 350, 356 352 C 355 353, 355 354, 354 355 C 354 356, 353 357, 351 357 C 349 359, 348 358, 346 358 C 344 356, 343 356, 340 353 C 338 353, 337 352, 335 352 C 332 349, 332 348, 331 347 C 331 346, 330 345, 330 344 C 328 342, 328 341, 323 341 C 323 345, 324 346, 324 347 C 325 348, 325 349, 326 350 C 326 351, 327 352, 327 353 C 329 355, 329 356, 331 358 C 331 359, 336 364, 337 364 C 339 366, 340 366, 341 367 C 342 367, 343 368, 361 368 C 362 367, 369 367, 370 366 C 374 366, 375 365, 376 365 C 377 364, 378 364, 381 361 C 382 361, 386 357, 386 356 C 388 354, 388 353, 389 352 C 389 351, 390 350, 390 349 C 391 348, 391 347, 392 346 C 392 344, 393 343, 393 336 Z" fill="#222630"/>
  <path d="M 310 307 C 310 311, 315 311, 315 307 L 310 307 Z" fill="#222630"/>
  <path d="M 222 281 C 218 285, 218 286, 216 288 C 216 289, 215 290, 215 291 C 214 292, 214 293, 213 294 C 213 295, 212 296, 212 298 C 211 299, 211 302, 210 303 C 210 307, 209 308, 209 316 C 208 317, 208 332, 209 333 C 209 340, 210 341, 210 345 C 211 346, 211 349, 212 350 C 212 353, 213 354, 213 356 C 214 357, 214 358, 215 359 C 215 361, 216 362, 216 363 C 217 364, 217 365, 218 366 C 218 367, 220 369, 220 370 C 223 373, 223 374, 224 375 C 225 375, 227 377, 228 377 C 229 378, 230 378, 231 379 C 233 379, 234 380, 239 380 C 240 379, 251 379, 252 378 C 260 378, 261 377, 263 377 C 264 376, 265 376, 266 375 C 267 375, 271 371, 271 370 C 273 368, 273 367, 275 365 C 275 363, 276 362, 276 361 C 277 360, 277 358, 278 357 C 278 355, 279 354, 279 351 C 280 350, 280 343, 278 343 C 277 342, 274 342, 273 341 C 270 341, 269 340, 267 340 C 266 339, 266 338, 265 337 C 265 331, 264 330, 261 330 C 260 329, 260 327, 258 325 C 258 324, 257 323, 257 322 C 256 321, 256 319, 255 318 C 255 316, 254 315, 254 312 C 253 311, 253 310, 251 308 C 251 305, 250 304, 250 303 C 249 302, 249 301, 248 300 C 248 298, 247 297, 247 296 C 246 295, 246 294, 245 293 C 245 292, 244 291, 244 290 C 241 287, 241 286, 236 281 C 235 281, 234 280, 225 280 L 224 281 L 222 281 Z" fill="#222630"/>
  <path d="M 227 306 C 229 306, 235 312, 235 314 C 236 315, 236 317, 237 318 C 237 320, 238 321, 238 325 C 239 326, 239 338, 238 339 C 238 343, 237 344, 237 345 C 236 346, 236 347, 235 348 C 235 349, 234 350, 233 350 C 231 352, 229 352, 223 346 C 223 345, 222 344, 222 342 C 221 341, 221 339, 220 338 C 220 334, 219 333, 219 320 C 220 319, 220 316, 221 315 C 221 313, 222 312, 222 311 C 223 310, 223 309, 225 307 L 226 307 L 227 306 Z" fill="#222630"/>
  <path d="M 149 276 C 148 277, 147 277, 146 278 C 146 279, 145 280, 145 281 C 144 282, 144 283, 143 284 C 143 285, 142 286, 142 288 C 141 289, 141 292, 140 293 C 140 297, 139 298, 139 309 C 138 310, 138 315, 139 316 C 139 325, 140 326, 140 331 C 141 332, 141 335, 142 336 C 142 338, 143 339, 143 341 C 144 342, 144 344, 145 345 C 145 346, 146 347, 146 348 C 152 354, 171 354, 172 353 C 178 353, 179 352, 180 352 C 184 348, 184 347, 185 346 C 185 345, 186 344, 186 343 C 187 342, 187 341, 188 340 C 188 337, 189 336, 189 332 C 190 331, 190 316, 188 316 C 187 315, 182 315, 181 314 C 177 314, 176 313, 171 313 C 170 312, 170 308, 169 307 C 169 305, 168 304, 168 298 C 167 297, 167 293, 166 292 C 166 290, 165 289, 165 287 C 164 286, 164 284, 163 283 C 163 281, 162 280, 162 279 L 159 276 L 149 276 Z" fill="#222630"/>
  <path d="M 151 297 C 152 297, 155 300, 155 301 C 156 302, 156 305, 157 306 C 157 310, 158 311, 158 321 C 157 322, 157 326, 156 327 C 156 329, 153 332, 152 332 C 149 329, 149 328, 148 327 C 148 325, 147 324, 147 320 C 146 319, 146 306, 147 305 C 147 303, 148 302, 148 300 L 151 297 Z" fill="#222630"/>
  <path d="M 391 212 C 390 213, 389 213, 389 239 C 399 239, 399 234, 400 233 C 400 213, 399 213, 398 212 L 391 212 Z" fill="#222630"/>
  <path d="M 165 200 C 161 200, 160 201, 156 201 C 155 202, 151 202, 150 203 C 147 203, 146 204, 143 204 C 142 205, 141 205, 141 211 C 140 212, 140 224, 139 225 C 139 237, 151 237, 152 236 C 164 236, 164 235, 165 234 L 165 200 Z" fill="#222630"/>
  <path d="M 205 195 C 201 195, 200 196, 191 196 C 190 197, 188 197, 187 198 C 183 198, 182 199, 179 199 C 179 200, 178 201, 178 202 C 177 203, 176 203, 176 207 C 177 208, 177 234, 178 235 C 188 235, 189 234, 203 234 C 204 233, 204 230, 205 229 L 205 195 Z" fill="#222630"/>
  <path d="M 227 190 C 227 216, 228 216, 229 217 C 229 223, 228 224, 228 230 C 229 231, 229 232, 231 234 C 239 234, 240 235, 271 235 C 272 236, 272 237, 283 237 C 283 236, 284 235, 298 235 C 299 236, 341 236, 342 235 C 342 224, 341 223, 341 217 C 340 216, 340 211, 339 210 C 339 205, 338 204, 338 199 C 337 198, 337 195, 336 194 C 336 192, 334 192, 333 191 C 329 191, 328 190, 327 190 C 326 189, 308 189, 307 188 C 293 188, 292 187, 287 187 C 287 195, 286 196, 286 197 C 285 198, 285 199, 282 202 C 281 202, 279 204, 272 204 C 271 203, 270 203, 265 198 C 265 197, 264 196, 264 194 C 263 193, 263 186, 257 186 C 256 185, 249 185, 248 186 C 230 186, 229 187, 229 189 L 228 190 L 227 190 Z" fill="#222630"/>
  <path d="M 152 170 C 152 171, 151 172, 151 182 C 156 182, 157 181, 160 181 C 160 175, 159 174, 159 170 L 152 170 Z" fill="#222630"/>
  <path d="M 313 161 C 313 167, 312 168, 312 175 C 322 175, 322 162, 320 160 C 315 160, 314 161, 313 161 Z" fill="#222630"/>
  <path d="M 212 153 C 212 156, 211 157, 211 169 C 222 169, 222 165, 221 164 C 221 155, 220 154, 220 153 C 219 153, 218 152, 214 152 L 213 153 L 212 153 Z" fill="#222630"/>
  <path d="M 366 338 C 358 338, 357 339, 344 339 C 343 340, 332 340, 331 341 C 328 341, 328 345, 329 346 C 329 347, 330 348, 330 349 C 331 350, 331 351, 333 353 C 335 353, 336 354, 338 354 C 341 357, 342 357, 344 359 C 346 359, 347 360, 351 360 C 353 358, 355 358, 355 357 C 356 356, 356 353, 359 350 C 359 349, 360 348, 360 347 C 361 346, 364 346, 364 344 C 365 343, 366 343, 366 338 Z" fill="#020304"/>
  <path d="M 221 268 C 216 273, 216 274, 214 276 C 214 277, 213 278, 213 279 C 212 280, 212 281, 211 282 C 211 283, 210 284, 210 286 C 209 287, 209 289, 208 290 C 208 293, 207 294, 207 295 C 206 296, 206 301, 205 302 C 205 320, 209 320, 209 319 C 210 318, 210 310, 211 309 C 211 305, 212 304, 212 301 C 213 300, 213 298, 214 297 C 214 296, 215 295, 215 294 C 216 293, 216 292, 217 291 C 217 290, 219 288, 219 287 C 224 282, 226 282, 227 281 C 232 281, 233 282, 234 282 C 240 288, 240 289, 243 292 C 243 293, 244 294, 244 295 C 245 296, 245 297, 246 298 C 246 299, 247 300, 247 302 C 248 303, 248 304, 249 305 C 249 306, 250 307, 250 310 C 252 312, 252 313, 253 314 C 253 317, 254 318, 254 320 C 258 320, 258 312, 257 311 C 257 306, 256 305, 256 302 C 255 301, 255 299, 254 298 C 254 296, 253 295, 253 293 C 252 292, 252 290, 251 289 C 251 288, 250 287, 250 286 C 249 285, 249 284, 248 283 C 248 282, 247 281, 247 280 C 245 278, 245 277, 243 275 C 243 274, 237 268, 236 268 C 234 266, 224 266, 222 268 L 221 268 Z" fill="#020304"/>
  <path d="M 156 264 C 149 264, 148 265, 147 265 C 145 267, 145 268, 144 269 C 144 270, 142 272, 142 274 C 141 275, 141 276, 140 277 C 140 280, 139 281, 139 283 C 138 284, 138 288, 137 289 C 137 296, 136 297, 136 308 C 140 308, 140 300, 141 299 C 141 295, 142 294, 142 291 C 143 290, 143 288, 144 287 C 144 286, 145 285, 145 284 C 146 283, 146 282, 147 281 C 147 280, 149 278, 150 278 C 151 277, 157 277, 161 281 C 161 282, 162 283, 162 285 C 163 286, 163 288, 164 289 C 164 291, 168 291, 168 287 C 167 286, 167 283, 166 282 C 166 280, 165 279, 165 277 C 164 276, 164 275, 163 274 C 163 272, 161 270, 161 269 L 156 264 Z" fill="#020304"/>
  <path d="M 323 253 C 323 305, 326 305, 327 306 C 327 309, 344 309, 345 308 C 365 308, 366 307, 391 307 C 392 306, 394 306, 394 304 C 395 303, 397 303, 398 302 C 399 302, 399 255, 397 253 L 323 253 Z" fill="#020304"/>
  <path d="M 165 197 C 164 196, 160 196, 159 197 C 155 197, 154 198, 149 198 C 148 199, 144 199, 143 200 C 142 200, 141 201, 141 205 C 148 205, 149 204, 152 204 C 153 203, 157 203, 158 202 C 162 202, 163 201, 165 201 L 165 197 Z" fill="#020304"/>
  <path d="M 204 190 C 203 189, 197 189, 196 190 C 193 190, 192 191, 187 191 C 186 192, 182 192, 181 193 C 178 193, 177 194, 177 200 C 184 200, 185 199, 189 199 C 190 198, 192 198, 193 197 C 202 197, 203 196, 204 196 L 204 190 Z" fill="#020304"/>
  <path d="M 327 188 C 327 192, 334 192, 334 188 L 327 188 Z" fill="#020304"/>
  <path d="M 229 183 C 229 187, 241 187, 241 183 L 229 183 Z" fill="#020304"/>
</svg>
