<?xml version="1.0" ?>
<svg xmlns="http://www.w3.org/2000/svg" width="512" height="512" viewBox="0 0 512 512" style="background-color: transparent;">
  <path d="M 84 274 C 84 300, 85 301, 96 301 C 96 291, 97 290, 97 274 L 84 274 Z" fill="#f7f8f6"/>
  <path d="M 411 273 C 411 299, 412 300, 424 300 C 424 276, 423 275, 423 273 L 411 273 Z" fill="#f7f8f6"/>
  <path d="M 72 274 C 72 276, 71 277, 71 287 C 70 288, 70 302, 85 302 L 85 274 L 72 274 Z" fill="#eb9902"/>
  <path d="M 423 273 C 423 301, 425 301, 426 302 C 441 302, 442 301, 442 276 C 441 275, 441 273, 423 273 Z" fill="#eb9902"/>
  <path d="M 142 305 C 141 306, 140 306, 135 311 C 135 312, 133 314, 133 316 C 132 317, 132 319, 131 320 C 131 330, 132 331, 132 334 C 133 335, 133 336, 134 337 C 134 338, 141 345, 142 345 C 143 346, 145 346, 146 347 C 158 347, 159 346, 161 346 C 162 345, 163 345, 169 339 C 169 338, 170 337, 170 336 C 171 335, 171 334, 172 333 C 172 319, 171 318, 171 317 C 170 316, 170 314, 168 312 C 168 311, 165 308, 164 308 C 162 306, 161 306, 160 305 C 158 305, 157 304, 155 304 C 154 303, 150 303, 149 304 C 145 304, 144 305, 142 305 Z" fill="#8b8e92"/>
  <path d="M 344 302 C 343 303, 340 303, 339 304 C 338 304, 337 305, 336 305 C 335 306, 334 306, 333 307 C 333 308, 329 312, 329 313 C 328 314, 328 316, 327 317 C 327 321, 326 322, 326 328 C 327 329, 327 333, 328 334 C 328 335, 329 336, 329 337 C 330 338, 330 339, 335 344 C 336 344, 337 345, 338 345 C 339 346, 341 346, 342 347 C 353 347, 354 346, 357 346 C 359 344, 360 344, 366 338 C 366 337, 367 336, 367 335 C 368 334, 368 331, 369 330 C 369 321, 368 320, 368 317 C 367 316, 367 315, 366 314 C 366 313, 365 312, 365 311 C 360 306, 359 306, 358 305 C 357 305, 356 304, 355 304 C 354 303, 351 303, 350 302 L 344 302 Z" fill="#8b8e92"/>
  <path d="M 61 301 C 61 306, 60 307, 60 327 C 63 327, 64 328, 71 328 C 72 327, 84 327, 85 326 C 86 326, 86 325, 87 324 C 87 319, 88 318, 88 302 C 87 301, 72 301, 71 300 C 64 300, 63 301, 61 301 Z" fill="#8b8e92"/>
  <path d="M 415 302 C 415 320, 414 321, 412 321 C 412 325, 413 325, 414 326 C 415 326, 417 328, 429 328 C 430 329, 447 329, 448 328 C 450 328, 450 326, 451 325 C 451 305, 450 304, 450 302 C 449 302, 448 301, 445 301 C 444 300, 440 300, 439 301 C 428 301, 427 300, 425 300 C 424 299, 418 299, 418 301 L 417 302 L 415 302 Z" fill="#8b8e92"/>
  <path d="M 376 203 C 376 207, 380 207, 381 206 C 382 206, 383 207, 386 207 C 387 208, 387 216, 391 216 C 391 215, 392 214, 392 205 C 391 205, 390 204, 390 203 C 389 202, 388 202, 387 201 C 379 201, 378 202, 377 202 L 376 203 Z" fill="#8b8e92"/>
  <path d="M 102 245 C 102 247, 101 248, 101 256 C 102 257, 102 260, 103 260 C 104 261, 126 261, 129 258 C 129 256, 130 255, 130 247 C 129 246, 129 245, 128 244 L 103 244 L 102 245 Z" fill="#00a5db"/>
  <path d="M 224 243 C 224 257, 235 257, 236 258 C 254 258, 255 257, 256 257 C 257 256, 257 246, 256 245 C 256 244, 255 243, 240 243 C 239 242, 228 242, 227 243 L 224 243 Z" fill="#00a5db"/>
  <path d="M 375 208 C 375 211, 374 212, 374 216 C 376 218, 377 218, 378 219 C 387 219, 387 215, 388 214 C 388 210, 386 210, 385 209 C 385 206, 380 206, 379 207 C 377 207, 376 208, 375 208 Z" fill="#727475"/>
  <path d="M 402 190 C 397 195, 397 196, 396 197 C 396 206, 397 207, 397 208 C 400 211, 401 211, 402 212 C 413 212, 414 211, 415 211 C 415 207, 416 206, 416 203 C 417 202, 417 201, 418 200 C 418 194, 415 191, 414 191 L 413 190 L 402 190 Z" fill="#727475"/>
  <path d="M 98 143 C 98 150, 99 151, 99 154 C 100 154, 101 155, 117 155 C 117 154, 118 153, 121 153 C 122 154, 122 155, 123 156 C 123 168, 166 168, 167 169 C 171 169, 172 168, 173 169 C 178 169, 179 168, 228 168 C 229 169, 277 169, 278 168 C 280 168, 280 163, 281 162 C 281 154, 282 153, 285 153 C 286 154, 286 155, 287 156 C 287 167, 288 168, 288 169 C 296 169, 298 167, 298 157 C 296 157, 295 156, 296 155 C 300 155, 301 154, 303 154 C 304 153, 304 150, 305 149 C 305 142, 303 140, 299 140 C 298 139, 103 139, 102 140 C 100 140, 99 141, 99 142 L 98 143 Z" fill="#727475"/>
  <path d="M 73 265 C 73 274, 95 274, 96 275 C 96 298, 94 301, 87 302 C 87 317, 86 318, 86 322 C 97 322, 98 321, 98 314 C 99 313, 99 310, 101 307 C 101 304, 107 292, 117 280 C 133 269, 143 267, 144 266 C 160 266, 161 267, 165 267 C 178 273, 184 277, 194 287 C 198 293, 198 295, 202 303 C 204 320, 295 320, 295 316 C 294 315, 295 314, 295 306 C 296 305, 296 303, 300 295 C 303 292, 304 289, 308 285 C 308 284, 313 279, 326 270 C 328 270, 331 268, 334 268 C 338 266, 343 266, 344 265 C 349 265, 350 266, 354 266 C 355 267, 358 267, 359 268 C 364 269, 379 278, 391 290 C 396 299, 398 301, 400 311 C 401 312, 402 321, 416 322 C 416 299, 413 299, 412 298 C 411 275, 412 274, 441 273 C 441 247, 437 240, 435 239 C 328 239, 326 236, 325 229 C 324 228, 324 223, 323 222 C 323 217, 322 216, 322 212 C 321 211, 321 205, 320 204 C 318 187, 313 175, 306 169 C 302 169, 301 168, 231 168 C 230 167, 181 167, 180 168 C 175 168, 174 167, 170 167 C 169 168, 168 167, 111 167 C 110 168, 102 168, 96 171 C 93 174, 90 179, 90 181 C 88 185, 86 199, 85 200 C 85 205, 84 206, 84 210 C 83 211, 83 215, 82 216 C 82 220, 81 221, 81 225 C 80 226, 80 230, 79 231 C 78 242, 77 243, 77 247 C 76 248, 75 259, 74 260 L 74 264 L 73 265 Z" fill="#0059b7"/>
  <path d="M 102 250 C 103 249, 103 247, 105 245 C 126 245, 128 247, 128 248 C 129 249, 129 253, 128 254 C 128 256, 124 260, 106 260 C 105 259, 104 259, 103 258 C 103 255, 102 254, 102 250 Z" fill="#0059b7"/>
  <path d="M 225 245 C 226 244, 229 244, 230 243 C 237 243, 238 244, 253 244 C 255 246, 255 247, 256 248 C 256 254, 254 256, 253 256 C 252 257, 238 257, 237 256 C 226 256, 225 255, 225 245 Z" fill="#0059b7"/>
  <path d="M 221 192 C 224 189, 225 189, 226 188 C 227 188, 228 187, 229 188 C 286 188, 287 189, 288 189 C 292 193, 292 195, 293 196 C 293 227, 292 228, 292 229 C 289 232, 286 232, 285 233 C 276 233, 275 232, 226 232 C 225 231, 224 231, 223 230 C 223 229, 222 228, 222 227 C 221 226, 221 220, 220 219 C 220 194, 221 193, 221 192 Z" fill="#0059b7"/>
  <path d="M 110 196 C 111 195, 111 194, 112 193 C 112 192, 116 188, 120 188 C 121 187, 184 187, 185 188 C 186 188, 188 190, 188 191 C 189 192, 189 224, 188 225 C 188 228, 184 232, 110 232 C 106 228, 106 226, 107 225 C 107 220, 108 219, 108 212 C 109 211, 109 202, 110 201 L 110 196 Z" fill="#0059b7"/>
  <path d="M 201 324 C 201 325, 200 326, 200 330 C 204 330, 204 329, 205 328 L 205 324 L 201 324 Z" fill="#252a35"/>
  <path d="M 333 280 C 332 281, 331 281, 330 282 C 329 282, 328 283, 327 283 C 326 284, 325 284, 323 286 C 322 286, 311 297, 311 298 C 309 300, 309 301, 307 303 C 307 304, 306 305, 306 306 C 305 307, 305 308, 304 309 C 304 310, 303 311, 303 312 C 301 314, 301 315, 300 316 C 300 317, 299 318, 298 318 C 297 319, 295 319, 295 325 C 296 326, 296 327, 297 328 C 297 329, 298 330, 298 331 C 299 332, 299 333, 301 335 C 301 336, 303 338, 303 339 C 304 340, 304 341, 305 342 C 305 343, 306 344, 306 345 C 307 346, 307 347, 309 349 C 309 350, 313 354, 313 355 C 317 359, 318 359, 322 363 C 323 363, 325 365, 326 365 C 327 366, 328 366, 329 367 C 330 367, 331 368, 332 368 C 333 369, 335 369, 336 370 C 338 370, 339 371, 346 371 C 347 372, 354 372, 355 371 C 359 371, 360 370, 363 370 C 364 369, 365 369, 366 368 C 368 368, 369 367, 370 367 C 372 365, 373 365, 375 363 C 376 363, 386 353, 386 352 C 388 350, 388 349, 389 348 C 389 347, 390 346, 390 345 C 391 344, 391 343, 392 342 C 392 340, 393 339, 393 337 C 394 336, 394 332, 395 331 C 395 319, 394 318, 394 313 C 393 312, 393 311, 392 310 C 392 309, 391 308, 391 307 C 390 306, 390 305, 388 303 C 388 302, 387 301, 387 300 C 384 297, 384 296, 376 288 C 375 288, 373 286, 372 286 C 370 284, 369 284, 368 283 C 367 283, 366 282, 364 282 C 363 281, 362 281, 361 280 C 358 280, 357 279, 337 279 L 336 280 L 333 280 Z" fill="#252a35"/>
  <path d="M 343 303 C 351 303, 352 304, 353 304 C 354 305, 355 305, 356 306 C 357 306, 358 307, 359 307 C 364 312, 364 313, 366 315 C 366 317, 367 318, 367 319 C 368 320, 368 331, 367 332 C 367 333, 366 334, 366 335 C 365 336, 365 337, 359 343 C 358 343, 356 345, 354 345 C 353 346, 350 346, 349 347 C 346 347, 345 346, 342 346 C 341 345, 340 345, 339 344 C 338 344, 337 343, 336 343 C 331 338, 331 337, 329 335 C 329 333, 328 332, 328 330 C 327 329, 327 321, 328 320 C 328 317, 329 316, 329 315 C 330 314, 330 313, 338 305 C 339 305, 340 304, 342 304 L 343 303 Z" fill="#252a35"/>
  <path d="M 150 279 C 149 280, 143 280, 142 281 C 139 281, 138 282, 136 282 C 135 283, 134 283, 133 284 C 132 284, 131 285, 130 285 C 127 288, 126 288, 117 297 C 117 298, 115 300, 115 301 C 112 304, 112 305, 110 307 C 110 308, 109 309, 109 311 C 108 312, 108 313, 107 314 C 107 317, 106 318, 106 331 C 107 332, 107 336, 108 337 C 108 339, 109 340, 109 342 C 110 343, 110 344, 111 345 C 111 346, 112 347, 112 348 C 113 349, 113 350, 116 353 C 116 354, 124 362, 125 362 C 127 364, 128 364, 130 366 C 131 366, 132 367, 133 367 C 134 368, 135 368, 136 369 C 138 369, 139 370, 141 370 C 142 371, 147 371, 148 372 C 158 372, 159 371, 163 371 C 164 370, 167 370, 168 369 C 169 369, 170 368, 172 368 C 173 367, 174 367, 176 365 C 177 365, 179 363, 180 363 C 183 360, 184 360, 189 355 C 189 354, 191 352, 191 351 C 192 350, 192 349, 193 348 C 193 347, 194 346, 194 345 C 195 344, 195 343, 199 339 C 199 338, 200 337, 200 333 C 199 333, 198 332, 198 312 C 197 311, 197 308, 196 307 C 196 306, 195 305, 195 304 C 194 303, 194 302, 192 300 C 192 299, 188 295, 188 294 C 185 291, 183 291, 182 290 C 181 290, 177 286, 176 286 C 175 285, 174 285, 173 284 C 172 284, 171 283, 170 283 C 169 282, 167 282, 166 281 C 164 281, 163 280, 156 280 L 155 279 L 150 279 Z" fill="#252a35"/>
  <path d="M 148 304 C 154 304, 155 305, 157 305 C 158 306, 159 306, 160 307 C 161 307, 163 309, 164 309 C 167 312, 167 313, 169 315 C 169 316, 170 317, 170 318 C 171 319, 171 322, 172 323 C 172 329, 171 330, 171 333 C 170 334, 170 335, 168 337 C 168 338, 162 344, 161 344 C 160 345, 159 345, 158 346 C 156 346, 155 347, 149 347 C 148 346, 146 346, 145 345 C 144 345, 143 344, 142 344 C 135 337, 135 336, 134 335 C 134 334, 133 333, 133 332 C 132 331, 132 327, 131 326 C 131 325, 132 324, 132 320 C 133 319, 133 317, 134 316 C 134 315, 135 314, 135 313 C 140 308, 141 308, 143 306 C 144 306, 145 305, 147 305 L 148 304 Z" fill="#252a35"/>
  <path d="M 379 221 C 379 234, 378 235, 378 240 C 387 240, 387 221, 379 221 Z" fill="#252a35"/>
  <path d="M 401 216 C 401 229, 402 230, 402 240 C 411 240, 411 228, 412 227 L 412 216 L 401 216 Z" fill="#252a35"/>
  <path d="M 219 199 C 219 212, 220 213, 220 227 C 221 228, 221 229, 222 230 C 222 231, 223 232, 224 232 C 225 233, 290 233, 291 232 C 292 232, 292 231, 293 230 C 293 226, 294 225, 294 220 C 293 219, 293 200, 292 199 C 292 198, 290 196, 290 195 C 286 195, 285 194, 223 194 C 221 196, 221 198, 220 199 L 219 199 Z" fill="#252a35"/>
  <path d="M 109 196 C 109 202, 108 203, 108 214 C 107 215, 107 220, 106 221 C 106 231, 107 232, 110 232 C 111 233, 155 233, 156 232 C 170 232, 171 233, 182 233 C 183 232, 187 232, 188 231 C 188 229, 189 228, 189 201 C 190 200, 190 193, 189 193 C 188 192, 135 192, 134 193 C 113 193, 112 194, 111 194 C 111 195, 110 196, 109 196 Z" fill="#252a35"/>
  <path d="M 280 152 C 280 160, 279 161, 279 169 C 288 169, 288 155, 287 154 L 287 152 L 280 152 Z" fill="#252a35"/>
  <path d="M 116 152 C 116 153, 115 154, 115 161 C 114 162, 114 168, 121 168 C 122 167, 124 167, 124 154 C 123 153, 123 152, 116 152 Z" fill="#252a35"/>
  <path d="M 294 308 C 294 320, 299 320, 300 319 C 301 319, 301 318, 302 317 C 302 316, 304 314, 304 313 C 305 312, 305 311, 306 310 C 306 309, 307 308, 307 307 C 308 306, 308 305, 310 303 C 310 302, 312 300, 312 299 C 324 287, 325 287, 327 285 C 328 285, 329 284, 330 284 C 331 283, 332 283, 333 282 C 334 282, 335 281, 338 281 C 339 280, 355 280, 356 281 C 359 281, 360 282, 361 282 C 362 283, 364 283, 365 284 C 366 284, 367 285, 368 285 C 370 287, 371 287, 373 289 C 374 289, 383 298, 383 299 C 386 302, 386 303, 387 304 C 387 305, 389 307, 389 308 C 390 309, 390 310, 391 311 C 391 312, 392 313, 392 314 C 393 315, 393 318, 394 318 C 395 319, 395 320, 397 322 C 397 323, 398 323, 399 324 C 403 324, 403 320, 402 319 C 402 314, 401 313, 401 309 C 400 308, 400 305, 399 304 C 399 301, 398 300, 398 299 C 397 298, 397 297, 395 295 C 395 294, 393 292, 393 291 C 392 290, 392 289, 380 277 C 379 277, 377 275, 376 275 C 374 273, 373 273, 372 272 C 371 272, 370 271, 369 271 C 368 270, 367 270, 366 269 C 365 269, 364 268, 362 268 C 361 267, 359 267, 358 266 C 354 266, 353 265, 339 265 C 338 266, 335 266, 334 267 C 331 267, 330 268, 328 268 C 327 269, 326 269, 325 270 C 324 270, 323 271, 322 271 C 320 273, 319 273, 318 274 C 317 274, 313 278, 312 278 C 307 283, 307 284, 303 288 C 303 289, 302 290, 302 291 C 300 293, 300 294, 298 296 C 298 297, 297 298, 297 299 C 296 300, 296 302, 295 303 L 295 307 L 294 308 Z" fill="#030406"/>
  <path d="M 97 317 C 97 323, 102 323, 103 322 C 107 322, 107 320, 108 319 C 108 316, 109 315, 109 314 C 110 313, 110 311, 111 310 C 111 309, 113 307, 113 306 C 116 303, 116 302, 118 300 C 118 299, 128 289, 129 289 C 132 286, 133 286, 134 285 C 135 285, 136 284, 137 284 C 138 283, 140 283, 141 282 C 144 282, 145 281, 151 281 C 152 280, 153 280, 154 281 C 161 281, 162 282, 164 282 C 165 283, 167 283, 168 284 C 169 284, 170 285, 171 285 C 172 286, 173 286, 174 287 C 175 287, 179 291, 180 291 C 181 292, 183 292, 187 296 C 187 297, 191 301, 191 302 C 193 304, 193 305, 194 306 C 194 307, 195 308, 195 309 C 196 310, 196 313, 197 314 C 197 330, 201 330, 201 328 C 202 327, 202 326, 203 325 C 203 324, 204 323, 204 310 C 203 309, 203 303, 202 302 C 202 300, 201 299, 201 297 C 200 296, 200 295, 199 294 C 199 293, 198 292, 198 291 C 197 290, 197 289, 195 287 C 195 286, 185 276, 184 276 C 182 274, 181 274, 179 272 C 178 272, 177 271, 176 271 C 175 270, 174 270, 173 269 C 172 269, 171 268, 169 268 C 168 267, 165 267, 164 266 C 159 266, 158 265, 146 265 C 145 266, 140 266, 139 267 C 136 267, 135 268, 133 268 C 132 269, 131 269, 130 270 C 129 270, 128 271, 127 271 C 126 272, 125 272, 122 275 C 121 275, 117 279, 116 279 C 112 283, 112 284, 108 288 C 108 289, 107 290, 107 291 C 105 293, 105 294, 104 295 C 104 297, 103 298, 103 299 C 102 300, 102 301, 101 302 C 101 304, 100 305, 100 306 C 99 307, 99 310, 98 311 L 98 316 L 97 317 Z" fill="#030406"/>
  <path d="M 403 213 C 403 217, 410 217, 410 212 L 404 212 L 403 213 Z" fill="#030406"/>
  <path d="M 220 192 C 220 196, 224 196, 225 195 C 283 195, 284 196, 288 196 C 289 197, 289 198, 293 198 C 293 193, 292 192, 292 191 C 290 189, 289 189, 288 188 C 284 188, 283 187, 227 187 C 226 188, 224 188, 223 189 C 222 189, 222 190, 220 192 Z" fill="#030406"/>
  <path d="M 112 190 C 112 194, 136 194, 137 193 C 188 193, 188 188, 187 188 C 186 187, 117 187, 116 188 C 115 188, 114 189, 113 189 L 112 190 Z" fill="#030406"/>
</svg>
