<?xml version="1.0" ?>
<svg xmlns="http://www.w3.org/2000/svg" width="512" height="512" viewBox="0 0 512 512" style="background-color: transparent;">
  <path d="M 398 275 C 398 295, 399 296, 399 304 C 406 304, 407 303, 408 303 L 408 275 L 398 275 Z" fill="#f3f3f0"/>
  <path d="M 360 275 C 360 302, 361 303, 361 304 C 362 305, 373 305, 374 304 C 374 299, 373 298, 373 275 L 360 275 Z" fill="#f3f3f0"/>
  <path d="M 435 272 C 435 282, 434 283, 434 298 C 440 298, 441 297, 441 275 C 440 274, 440 272, 435 272 Z" fill="#f3f3f0"/>
  <path d="M 90 271 C 89 272, 89 295, 90 296 C 97 296, 98 295, 98 271 L 90 271 Z" fill="#f3f3f0"/>
  <path d="M 288 305 C 287 306, 286 306, 284 308 C 283 308, 282 309, 282 310 C 279 313, 279 314, 278 315 C 278 316, 277 317, 277 320 C 276 321, 276 334, 277 335 C 277 337, 278 338, 278 340 C 279 341, 279 342, 281 344 C 281 345, 285 349, 286 349 C 287 350, 288 350, 289 351 C 290 351, 291 352, 304 352 C 305 351, 306 351, 307 350 C 308 350, 314 344, 314 343 C 315 342, 315 341, 316 340 C 316 336, 317 335, 317 326 C 316 325, 316 322, 315 321 C 315 319, 314 318, 314 317 C 313 316, 313 315, 311 313 C 311 312, 307 308, 306 308 C 305 307, 304 307, 303 306 C 302 306, 301 305, 298 305 C 297 304, 293 304, 292 305 L 288 305 Z" fill="#8a8479"/>
  <path d="M 131 299 C 130 300, 129 300, 128 301 C 127 301, 124 304, 124 305 C 122 307, 122 309, 121 310 C 121 312, 120 313, 120 324 C 121 325, 121 328, 122 329 C 122 330, 123 331, 123 332 C 124 333, 124 334, 128 338 C 129 338, 130 339, 131 339 C 132 340, 141 340, 142 339 C 143 339, 145 337, 146 337 C 146 336, 148 334, 148 333 C 149 332, 149 331, 150 330 C 150 326, 151 325, 151 317 C 150 316, 150 312, 149 311 C 149 310, 148 309, 148 308 C 147 307, 147 306, 142 301 C 141 301, 140 300, 139 300 L 138 299 L 131 299 Z" fill="#8a8479"/>
  <path d="M 372 275 C 372 300, 373 301, 373 302 C 371 304, 368 304, 368 306 C 367 307, 364 307, 363 308 C 363 313, 364 314, 364 333 C 365 334, 365 336, 366 336 C 367 337, 375 337, 376 338 C 388 338, 389 339, 396 339 C 397 338, 405 338, 406 337 C 408 337, 409 336, 411 336 C 412 335, 415 335, 416 334 C 418 334, 419 333, 421 333 C 422 332, 424 332, 425 331 C 427 331, 428 330, 431 330 C 432 329, 434 329, 435 328 C 437 328, 438 327, 440 327 C 441 326, 443 326, 444 325 C 446 325, 447 324, 450 324 C 450 322, 451 321, 451 303 C 450 302, 450 299, 448 299 C 447 298, 442 298, 441 297 C 434 297, 431 300, 427 300 C 426 301, 421 301, 420 302 C 416 302, 415 303, 412 303 C 411 304, 407 304, 406 305 C 402 305, 400 303, 400 294 C 399 293, 399 274, 395 274 L 394 275 L 372 275 Z" fill="#8a8479"/>
  <path d="M 90 271 C 82 271, 81 272, 81 287 C 80 288, 80 294, 79 295 C 74 295, 73 296, 73 318 C 75 318, 76 319, 85 319 C 86 318, 91 318, 92 317 C 92 295, 90 293, 90 271 Z" fill="#8a8479"/>
  <path d="M 404 195 C 400 199, 400 200, 399 201 C 399 209, 400 210, 400 211 C 403 214, 404 214, 405 215 C 414 215, 415 214, 417 214 C 419 212, 419 211, 420 210 C 420 209, 421 208, 421 201 C 420 200, 420 199, 419 198 C 419 197, 417 195, 415 195 C 414 194, 407 194, 406 195 L 404 195 Z" fill="#8a8479"/>
  <path d="M 355 185 C 353 187, 353 188, 352 189 C 352 191, 351 192, 351 200 C 352 201, 352 202, 353 203 C 353 204, 354 204, 357 207 C 358 207, 359 208, 367 208 C 368 207, 370 207, 375 202 C 375 199, 376 198, 376 191 C 375 190, 375 188, 371 184 C 370 184, 369 183, 359 183 C 358 184, 357 184, 356 185 L 355 185 Z" fill="#8a8479"/>
  <path d="M 245 158 C 233 158, 232 159, 219 159 C 218 160, 206 160, 205 161 C 194 161, 193 162, 181 162 C 180 163, 172 163, 171 164 C 170 164, 169 165, 169 173 C 179 173, 180 172, 193 172 C 194 171, 212 171, 213 170 C 225 170, 226 169, 241 169 C 242 168, 245 168, 245 158 Z" fill="#8a8479"/>
  <path d="M 321 154 C 320 154, 319 153, 295 153 C 294 154, 282 154, 281 155 C 270 155, 269 156, 258 156 C 257 157, 253 157, 253 166 C 254 167, 254 168, 266 168 C 267 169, 280 169, 281 168 C 295 168, 296 167, 301 167 C 302 166, 305 166, 306 167 C 310 167, 311 166, 319 166 C 320 165, 321 165, 321 154 Z" fill="#8a8479"/>
  <path d="M 271 141 C 270 140, 270 139, 268 139 C 267 138, 242 138, 241 139 C 233 139, 232 140, 222 140 C 221 141, 211 141, 210 142 C 201 142, 200 143, 191 143 C 190 144, 181 144, 180 145 C 170 145, 169 146, 159 146 C 158 147, 148 147, 147 148 C 138 148, 137 149, 127 149 C 126 150, 117 150, 116 151 C 109 151, 108 152, 106 152 C 106 154, 105 155, 105 161 C 106 162, 106 164, 107 165 C 118 165, 120 163, 123 163 C 125 165, 130 165, 131 164 C 140 164, 141 163, 152 163 C 153 162, 164 162, 165 161 C 176 161, 177 160, 187 160 C 188 159, 200 159, 201 158 C 211 158, 212 157, 220 157 C 221 156, 232 156, 233 155 C 244 155, 245 154, 245 153 C 246 152, 251 152, 252 153 C 252 154, 258 154, 259 153 C 268 153, 270 151, 270 150 L 271 149 L 271 141 Z" fill="#8a8479"/>
  <path d="M 82 265 C 82 272, 96 272, 97 273 C 97 294, 95 296, 91 297 C 91 314, 98 314, 98 312 C 99 311, 99 305, 101 301 C 101 298, 104 292, 104 290 C 109 281, 123 268, 131 265 C 140 265, 150 269, 157 274 C 162 279, 167 286, 173 301 C 174 317, 177 317, 178 318 C 195 318, 196 319, 214 319 C 215 320, 233 320, 234 321 C 249 321, 249 307, 250 306 C 250 303, 261 284, 263 283 C 263 282, 268 277, 275 272 C 287 267, 290 267, 291 266 C 299 266, 300 267, 304 267 C 310 270, 312 270, 316 273 C 319 274, 322 277, 327 280 C 337 291, 343 300, 344 304 C 346 307, 346 309, 348 313 C 348 317, 349 318, 349 324 C 350 325, 350 328, 365 329 C 365 316, 364 315, 364 310 C 366 308, 366 304, 363 304 C 361 302, 360 278, 362 276 C 396 276, 397 275, 408 275 C 408 255, 409 254, 432 254 C 434 256, 434 272, 441 272 C 441 247, 439 243, 436 240 C 428 240, 427 239, 413 239 C 412 238, 398 238, 397 237 C 346 237, 344 238, 342 236 C 342 232, 341 231, 341 226 C 340 225, 340 221, 339 220 C 339 214, 338 213, 338 208 C 337 207, 336 197, 332 187 C 328 182, 322 179, 318 179 C 317 178, 309 177, 304 175 C 290 173, 289 172, 281 171 C 280 170, 277 170, 276 169 C 273 169, 268 167, 240 167 C 239 168, 224 168, 223 169 C 211 169, 210 170, 178 171 C 177 172, 153 173, 152 174 C 138 174, 137 175, 109 176 C 108 177, 101 178, 96 183 C 92 193, 92 199, 91 200 C 91 205, 90 206, 90 212 C 89 213, 89 219, 88 220 C 88 226, 87 227, 87 233 C 86 234, 86 241, 85 242 C 85 248, 84 249, 83 264 L 82 265 Z" fill="#005ab7"/>
  <path d="M 163 195 C 163 227, 162 228, 162 230 C 159 233, 139 233, 138 234 C 107 234, 105 232, 105 226 C 106 225, 106 217, 107 216 C 107 208, 108 207, 108 201 C 109 200, 109 198, 112 195 C 115 195, 116 194, 132 194 C 133 193, 148 193, 149 192 L 160 192 L 163 195 Z" fill="#005ab7"/>
  <path d="M 246 192 C 246 193, 247 194, 247 227 C 246 228, 246 229, 243 232 C 224 232, 223 233, 193 233 C 190 230, 190 229, 189 228 C 189 221, 188 220, 188 200 C 187 199, 188 198, 188 195 C 193 190, 206 190, 207 189 C 223 189, 224 188, 242 188 L 246 192 Z" fill="#005ab7"/>
  <path d="M 277 184 C 278 183, 279 183, 280 184 C 283 184, 284 185, 290 185 C 291 186, 295 186, 296 187 C 301 187, 302 188, 307 188 C 308 189, 312 189, 313 190 C 316 190, 317 191, 322 191 C 323 192, 326 192, 327 193 C 328 193, 330 195, 330 196 C 331 197, 331 201, 332 202 C 332 207, 333 208, 333 213 C 334 214, 334 218, 335 219 C 335 224, 336 225, 336 229 C 337 230, 337 232, 336 233 C 336 235, 335 236, 322 236 C 321 235, 305 235, 304 234 C 286 234, 285 233, 284 233 C 282 231, 282 229, 281 228 C 281 225, 280 224, 280 217 C 279 216, 279 208, 278 207 C 278 200, 277 199, 277 191 C 276 190, 276 186, 277 185 L 277 184 Z" fill="#005ab7"/>
  <path d="M 256 317 C 256 324, 255 325, 255 329 C 256 330, 256 336, 257 337 C 257 340, 258 341, 258 343 C 259 344, 259 346, 260 347 C 260 348, 261 349, 261 350 C 262 351, 262 352, 263 353 C 263 354, 265 356, 265 357 C 268 360, 268 361, 275 368 C 276 368, 279 371, 280 371 C 282 373, 283 373, 284 374 C 286 374, 287 375, 288 375 C 289 376, 291 376, 292 377 C 296 377, 297 378, 310 378 C 311 377, 315 377, 316 376 C 318 376, 319 375, 321 375 C 322 374, 324 374, 325 373 C 326 373, 327 372, 328 372 C 329 371, 330 371, 331 370 C 332 370, 334 368, 335 368 C 338 365, 339 365, 342 362 C 342 361, 344 359, 347 359 C 348 360, 363 360, 364 359 C 367 359, 368 358, 370 358 C 371 357, 373 357, 374 356 C 375 356, 376 355, 377 355 C 378 354, 379 354, 380 353 C 381 353, 383 351, 384 351 C 393 342, 393 338, 391 338 C 390 337, 378 337, 376 339 C 374 339, 372 341, 371 341 C 370 342, 370 343, 369 344 C 368 344, 368 347, 367 348 C 366 348, 364 350, 363 350 C 362 351, 360 351, 358 353 C 354 353, 352 351, 351 351 C 350 350, 350 348, 351 347 C 351 345, 352 344, 352 341 C 353 340, 353 334, 354 333 C 354 327, 352 327, 351 326 C 351 325, 350 325, 344 319 C 344 318, 343 317, 343 316 C 342 315, 342 314, 341 313 C 341 312, 338 309, 338 308 C 337 308, 336 307, 336 306 C 335 305, 335 304, 334 303 C 334 302, 330 298, 330 297 C 322 289, 321 289, 318 286 C 317 286, 316 285, 315 285 C 313 283, 312 283, 311 282 C 309 282, 308 281, 306 281 C 305 280, 288 280, 287 281 C 284 281, 283 282, 282 282 C 281 283, 280 283, 279 284 C 278 284, 277 285, 276 285 C 273 288, 272 288, 268 292 C 268 293, 263 298, 263 299 C 262 300, 262 301, 261 302 C 261 303, 260 304, 260 306 C 259 307, 259 308, 258 309 C 258 312, 257 313, 257 316 L 256 317 Z" fill="#232833"/>
  <path d="M 290 306 C 294 306, 295 305, 296 306 C 299 306, 300 307, 301 307 C 302 308, 303 308, 304 309 C 305 309, 310 314, 310 315 C 312 317, 312 318, 313 319 C 313 320, 314 321, 314 323 C 315 324, 315 327, 316 328 C 316 333, 315 334, 315 338 C 314 339, 314 340, 313 341 C 313 342, 306 349, 305 349 C 304 350, 303 350, 302 351 C 293 351, 292 350, 291 350 C 290 349, 289 349, 288 348 C 287 348, 282 343, 282 342 C 280 340, 280 339, 279 338 C 279 336, 278 335, 278 333 C 277 332, 277 323, 278 322 C 278 319, 279 318, 279 317 C 280 316, 280 315, 283 312 C 283 311, 285 309, 286 309 C 288 307, 289 307, 290 306 Z" fill="#232833"/>
  <path d="M 104 312 C 104 324, 105 325, 105 329 C 106 330, 106 333, 107 334 C 107 336, 108 337, 108 338 C 109 339, 109 340, 110 341 C 110 342, 111 343, 111 344 C 113 346, 113 347, 115 349 C 115 350, 121 356, 122 356 C 125 359, 126 359, 127 360 C 128 360, 129 361, 131 361 C 132 362, 136 362, 137 363 C 143 363, 144 362, 149 362 C 150 361, 154 361, 155 360 C 159 360, 160 359, 162 359 C 163 358, 164 358, 165 357 C 166 357, 167 356, 168 356 C 170 354, 171 354, 177 348 C 177 347, 179 345, 179 344 C 180 343, 180 341, 181 340 C 181 339, 182 338, 182 336 C 183 335, 192 344, 193 344 C 194 345, 195 345, 196 346 C 197 346, 198 347, 200 347 C 201 348, 204 348, 205 349 C 209 349, 210 348, 216 348 C 217 347, 222 347, 223 346 C 225 346, 226 345, 228 345 C 229 344, 230 344, 232 342 C 233 342, 236 339, 237 339 C 238 338, 238 337, 241 334 C 241 333, 242 332, 242 331 C 243 330, 243 329, 244 328 C 244 326, 245 325, 245 320 C 232 320, 231 321, 231 322 C 230 323, 230 327, 229 328 C 229 329, 228 330, 225 330 C 225 331, 224 332, 223 332 C 222 333, 220 333, 220 337 C 218 339, 216 339, 215 340 C 212 340, 211 341, 211 342 C 210 343, 204 343, 203 342 C 202 342, 201 341, 201 340 C 200 340, 199 339, 198 339 C 197 338, 196 338, 194 336 C 193 336, 191 334, 190 334 C 189 333, 189 332, 188 331 C 188 330, 184 326, 184 317 C 180 317, 179 316, 176 316 C 175 315, 175 313, 174 313 C 171 310, 171 308, 170 307 C 170 304, 169 303, 169 300 C 168 299, 168 298, 167 297 C 167 296, 166 295, 166 294 C 165 293, 165 292, 163 290 C 163 289, 160 286, 160 285 C 159 284, 158 284, 156 282 C 155 282, 154 281, 153 281 C 152 280, 151 280, 150 279 C 148 279, 147 278, 128 278 C 127 279, 126 279, 125 280 C 124 280, 123 281, 122 281 C 113 290, 113 291, 111 293 C 111 294, 110 295, 110 296 C 109 297, 109 298, 108 299 C 108 300, 107 301, 107 303 C 106 304, 106 306, 105 307 L 105 311 L 104 312 Z" fill="#232833"/>
  <path d="M 133 300 C 136 300, 137 301, 138 301 C 139 302, 140 302, 146 308 C 146 309, 147 310, 147 311 C 148 312, 148 313, 149 314 C 149 318, 150 319, 150 323 C 149 324, 149 328, 148 329 C 148 330, 147 331, 147 332 C 145 334, 145 335, 144 336 C 143 336, 141 338, 140 338 C 139 339, 134 339, 133 338 C 132 338, 131 337, 130 337 C 125 332, 125 331, 124 330 C 124 329, 123 328, 123 327 C 122 326, 122 323, 121 322 C 121 315, 122 314, 122 312 C 123 311, 123 309, 125 307 C 125 306, 129 302, 130 302 C 131 301, 132 301, 133 300 Z" fill="#232833"/>
  <path d="M 405 217 C 404 218, 404 239, 413 239 C 413 230, 414 229, 414 220 C 413 219, 413 217, 405 217 Z" fill="#232833"/>
  <path d="M 358 212 C 358 234, 359 235, 359 238 C 369 238, 369 211, 362 211 L 361 212 L 358 212 Z" fill="#232833"/>
  <path d="M 164 196 C 153 196, 152 197, 135 197 C 134 198, 122 198, 121 199 C 111 199, 110 200, 109 200 C 108 201, 107 201, 107 205 C 106 206, 106 214, 105 215 C 105 223, 104 224, 104 234 C 105 235, 140 235, 141 234 C 161 234, 163 232, 163 230 L 164 229 L 164 196 Z" fill="#232833"/>
  <path d="M 248 195 C 246 195, 245 194, 230 194 C 229 195, 210 195, 209 196 C 192 196, 191 197, 190 197 C 189 198, 189 199, 188 200 C 187 200, 187 222, 188 223 C 188 230, 189 231, 189 232 C 191 234, 221 234, 222 233 C 245 233, 247 231, 247 230 L 248 229 L 248 195 Z" fill="#232833"/>
  <path d="M 275 187 C 275 192, 276 193, 276 201 C 277 202, 277 209, 278 210 C 278 218, 279 219, 279 226 C 280 227, 280 230, 281 231 C 281 233, 282 234, 283 234 C 284 235, 302 235, 303 236 C 319 236, 320 237, 336 237 C 336 225, 335 224, 335 219 C 334 218, 334 213, 333 212 C 333 207, 332 206, 332 202 C 331 201, 331 198, 330 197 C 330 196, 329 195, 327 195 C 325 193, 320 193, 319 192 C 314 192, 313 191, 309 191 C 308 190, 305 190, 304 189 C 298 189, 297 188, 293 188 L 292 187 L 275 187 Z" fill="#232833"/>
  <path d="M 300 165 C 300 170, 299 171, 299 176 C 302 176, 303 177, 308 177 C 308 166, 307 165, 300 165 Z" fill="#232833"/>
  <path d="M 118 162 C 117 163, 117 170, 116 171 C 116 177, 123 177, 124 176 C 126 176, 126 163, 125 162 L 118 162 Z" fill="#232833"/>
  <path d="M 244 151 C 244 168, 254 168, 254 158 C 253 157, 253 151, 244 151 Z" fill="#232833"/>
  <path d="M 353 328 C 353 331, 352 332, 352 338 C 351 339, 351 342, 350 343 C 350 345, 349 346, 349 352 C 350 352, 351 353, 361 353 C 362 352, 364 352, 365 351 C 366 351, 368 349, 368 348 C 369 347, 369 346, 370 345 C 371 345, 371 344, 373 342 C 374 342, 375 341, 375 337 C 373 337, 372 336, 368 336 C 365 333, 365 329, 364 328 L 353 328 Z" fill="#040406"/>
  <path d="M 183 317 C 183 328, 187 332, 187 333 C 188 334, 188 335, 189 335 C 191 337, 192 337, 194 339 C 195 339, 196 340, 197 340 C 198 341, 199 341, 200 342 C 200 343, 205 343, 206 344 C 212 344, 212 343, 215 340 C 217 340, 218 339, 221 339 C 221 335, 223 333, 226 333 C 226 332, 228 330, 230 330 C 231 329, 231 325, 232 324 C 232 320, 227 320, 226 319 C 209 319, 208 318, 191 318 L 190 317 L 183 317 Z" fill="#040406"/>
  <path d="M 248 307 C 248 322, 257 322, 257 319 C 258 318, 258 315, 259 314 C 259 311, 260 310, 260 309 C 261 308, 261 306, 262 305 C 262 304, 263 303, 263 302 C 264 301, 264 300, 269 295 C 269 294, 274 289, 275 289 C 278 286, 279 286, 280 285 C 281 285, 282 284, 283 284 C 284 283, 285 283, 286 282 C 289 282, 290 281, 303 281 C 304 282, 306 282, 307 283 C 309 283, 310 284, 311 284 C 313 286, 314 286, 315 287 C 316 287, 319 290, 320 290 C 329 299, 329 300, 333 304 C 333 305, 334 306, 334 307 C 335 308, 335 309, 336 309 C 337 310, 337 311, 340 314 C 340 315, 341 316, 341 317 C 342 318, 342 319, 343 320 C 343 321, 346 324, 350 324 C 350 318, 349 317, 349 313 C 348 312, 348 310, 347 309 C 347 306, 346 305, 346 304 C 345 303, 345 302, 344 301 C 344 299, 342 297, 342 296 C 341 295, 341 294, 339 292 C 339 291, 336 288, 336 287 C 327 278, 326 278, 323 275 C 322 275, 320 273, 319 273 C 317 271, 316 271, 315 270 C 314 270, 313 269, 311 269 C 310 268, 308 268, 307 267 C 305 267, 304 266, 298 266 C 297 265, 292 265, 291 266 C 287 266, 286 267, 283 267 C 282 268, 280 268, 279 269 C 277 269, 276 270, 275 270 C 273 272, 272 272, 270 274 C 269 274, 259 284, 259 285 C 258 286, 258 287, 255 290 C 255 292, 253 294, 253 295 C 251 297, 251 299, 250 300 C 250 302, 249 303, 249 306 L 248 307 Z" fill="#040406"/>
  <path d="M 98 305 C 98 315, 102 315, 103 314 C 105 314, 106 313, 106 309 C 107 308, 107 306, 108 305 C 108 303, 109 302, 109 301 C 110 300, 110 299, 111 298 C 111 297, 112 296, 112 295 C 114 293, 114 292, 124 282 C 125 282, 126 281, 127 281 C 128 280, 129 280, 130 279 C 145 279, 146 280, 148 280 C 149 281, 150 281, 151 282 C 152 282, 153 283, 154 283 C 156 285, 157 285, 159 287 C 159 288, 162 291, 162 292 C 164 294, 164 295, 165 296 C 165 297, 166 298, 166 299 C 167 300, 167 301, 168 302 C 168 305, 169 306, 169 309 C 170 310, 170 312, 174 312 C 174 301, 173 300, 173 298 C 172 297, 172 294, 171 293 C 171 292, 170 291, 170 289 C 169 288, 169 287, 168 286 C 168 285, 166 283, 166 282 C 164 280, 164 279, 157 272 C 156 272, 153 269, 152 269 C 151 268, 150 268, 149 267 C 148 267, 147 266, 145 266 C 144 265, 140 265, 139 264 C 132 264, 131 265, 127 265 C 126 266, 124 266, 123 267 C 122 267, 121 268, 120 268 C 117 271, 116 271, 109 278 C 109 279, 108 280, 108 281 C 106 283, 106 284, 105 285 C 105 286, 104 287, 104 288 C 103 289, 103 290, 102 291 C 102 293, 101 294, 101 296 C 100 297, 100 300, 99 301 L 99 304 L 98 305 Z" fill="#040406"/>
  <path d="M 408 253 C 408 301, 409 301, 410 302 C 410 304, 416 304, 417 303 C 421 303, 422 302, 426 302 C 427 301, 431 301, 432 300 C 434 300, 435 299, 435 254 C 434 254, 433 253, 408 253 Z" fill="#040406"/>
  <path d="M 361 208 C 361 212, 366 212, 366 208 L 361 208 Z" fill="#040406"/>
  <path d="M 325 192 C 325 196, 329 196, 329 192 L 325 192 Z" fill="#040406"/>
  <path d="M 163 192 C 142 192, 141 193, 124 193 C 123 194, 111 194, 108 197 C 108 201, 112 201, 113 200 C 123 200, 124 199, 136 199 C 137 198, 154 198, 155 197 L 163 197 L 163 192 Z" fill="#040406"/>
  <path d="M 247 191 C 246 190, 246 189, 245 189 C 244 188, 243 188, 242 187 C 232 187, 231 188, 215 188 C 214 189, 195 189, 194 190 C 191 190, 189 192, 189 193 C 188 194, 188 198, 193 198 C 194 197, 211 197, 212 196 C 229 196, 230 195, 247 195 L 247 191 Z" fill="#040406"/>
  <path d="M 291 185 C 291 189, 295 189, 296 190 C 300 190, 300 186, 296 186 L 295 185 L 291 185 Z" fill="#040406"/>
  <path d="M 276 183 C 276 188, 288 188, 288 184 C 284 184, 283 183, 276 183 Z" fill="#040406"/>
</svg>
