<?xml version="1.0" ?>
<svg xmlns="http://www.w3.org/2000/svg" width="512" height="512" viewBox="0 0 512 512" style="background-color: transparent;">
  <path d="M 266 277 C 266 309, 274 309, 274 277 L 266 277 Z" fill="#fcfdfc"/>
  <path d="M 417 275 C 372 275, 371 276, 329 276 C 328 277, 294 277, 294 311 C 305 311, 306 310, 328 310 C 329 309, 347 309, 348 308 C 371 308, 372 307, 395 307 C 396 306, 415 306, 416 305 C 419 305, 419 291, 418 290 C 418 279, 417 278, 417 275 Z" fill="#fcfdfc"/>
  <path d="M 133 270 C 133 288, 137 288, 137 275 C 138 274, 138 270, 133 270 Z" fill="#fcfdfc"/>
  <path d="M 274 277 C 273 278, 273 311, 280 311 C 281 312, 288 312, 289 311 C 295 311, 295 278, 294 277 C 283 277, 282 278, 281 278 L 280 277 L 274 277 Z" fill="#f8a606"/>
  <path d="M 416 275 C 416 280, 417 281, 417 292 C 418 293, 418 305, 428 305 C 428 295, 427 294, 427 280 C 426 279, 426 275, 416 275 Z" fill="#f8a606"/>
  <path d="M 129 269 C 129 292, 134 292, 134 269 L 129 269 Z" fill="#f8a606"/>
  <path d="M 232 307 C 231 308, 230 308, 228 310 C 228 311, 227 312, 227 313 C 226 314, 226 316, 225 317 C 225 323, 224 324, 224 333 C 225 334, 225 340, 226 341 C 226 343, 227 344, 227 346 C 228 347, 228 348, 229 349 C 229 350, 230 351, 230 352 C 231 353, 232 353, 233 354 C 240 354, 243 351, 243 350 C 244 349, 244 348, 245 347 C 245 345, 246 344, 246 338 C 247 337, 247 329, 246 328 C 246 322, 245 321, 245 318 C 244 317, 244 315, 243 314 C 243 313, 242 312, 242 311 L 238 307 L 232 307 Z" fill="#858889"/>
  <path d="M 437 310 C 436 309, 436 305, 435 304 C 414 304, 413 305, 394 305 C 393 306, 372 306, 371 307 C 348 307, 347 308, 327 308 C 326 309, 304 309, 303 310 C 290 310, 289 311, 283 311 C 282 310, 275 310, 274 309 C 269 309, 269 310, 268 311 C 268 314, 267 315, 267 334 C 268 335, 268 340, 269 341 C 271 341, 272 342, 276 342 C 277 343, 299 343, 300 342 C 313 342, 314 341, 327 341 C 328 340, 341 340, 342 339 C 354 339, 355 338, 368 338 C 369 337, 383 337, 384 336 C 398 336, 399 335, 409 335 C 410 334, 423 334, 424 333 C 435 333, 436 332, 436 329 L 437 328 L 437 310 Z" fill="#858889"/>
  <path d="M 152 296 C 151 297, 151 298, 150 299 C 150 301, 149 302, 149 305 C 148 306, 148 320, 149 321 C 149 325, 150 326, 150 328 C 151 329, 151 330, 152 331 C 152 332, 153 333, 159 333 C 160 332, 160 331, 161 330 C 161 329, 162 328, 162 324 C 163 323, 163 308, 162 307 C 162 303, 161 302, 161 300 C 160 299, 160 298, 158 296 L 152 296 Z" fill="#858889"/>
  <path d="M 124 291 C 123 292, 123 312, 124 313 C 142 313, 142 308, 139 308 C 138 307, 137 307, 136 306 C 136 292, 135 291, 124 291 Z" fill="#858889"/>
  <path d="M 141 203 C 137 207, 137 216, 141 220 C 151 220, 152 219, 153 219 C 155 217, 155 215, 156 214 C 156 209, 155 208, 155 206 C 152 203, 150 203, 149 202 C 143 202, 142 203, 141 203 Z" fill="#858889"/>
  <path d="M 399 136 C 398 135, 398 134, 396 134 C 395 133, 378 133, 377 134 C 373 134, 372 135, 368 135 C 367 136, 364 136, 363 137 C 360 137, 359 138, 355 138 C 354 139, 351 139, 350 140 C 347 140, 346 141, 342 141 C 341 142, 338 142, 337 143 C 333 143, 332 144, 329 144 C 328 145, 325 145, 324 146 C 321 146, 320 147, 316 147 C 315 148, 312 148, 311 149 C 308 149, 307 150, 304 150 C 303 151, 299 151, 298 152 C 295 152, 294 153, 291 153 C 291 157, 294 157, 295 158 C 307 158, 308 159, 319 159 C 320 160, 331 160, 332 161 C 336 161, 337 160, 341 160 C 342 159, 346 159, 347 158 C 352 158, 353 157, 357 157 C 358 156, 362 156, 363 155 C 367 155, 368 154, 372 154 C 373 153, 377 153, 378 152 C 378 150, 379 149, 384 149 C 385 150, 392 150, 393 149 C 397 149, 399 147, 399 136 Z" fill="#858889"/>
  <path d="M 294 123 C 293 122, 292 122, 291 121 C 270 121, 269 122, 266 122 C 265 123, 263 123, 262 124 C 260 124, 259 125, 256 125 C 255 126, 254 126, 253 127 C 251 127, 250 128, 248 128 C 247 129, 244 129, 243 130 C 241 130, 240 131, 238 131 C 237 132, 235 132, 234 133 C 232 133, 231 134, 229 134 C 228 135, 226 135, 225 136 C 223 136, 222 137, 220 137 C 219 138, 216 138, 215 139 C 213 139, 212 140, 210 140 C 209 141, 207 141, 206 142 C 204 142, 203 143, 200 143 C 199 144, 197 144, 196 145 C 194 145, 193 146, 191 146 C 190 147, 187 147, 186 148 C 184 148, 183 149, 181 149 C 180 150, 180 161, 181 162 C 190 162, 190 161, 191 160 C 195 160, 196 161, 196 162 C 201 162, 202 161, 205 161 C 206 160, 209 160, 210 159 C 213 159, 214 158, 216 158 C 217 157, 220 157, 221 156 C 224 156, 225 155, 228 155 C 229 154, 232 154, 233 153 C 236 153, 237 152, 239 152 C 240 151, 243 151, 244 150 C 247 150, 248 149, 251 149 C 252 148, 255 148, 256 147 C 259 147, 260 146, 263 146 C 264 145, 266 145, 267 144 C 268 144, 268 141, 271 138 C 272 138, 273 139, 275 139 C 276 140, 276 141, 282 141 C 283 140, 285 140, 286 139 C 289 139, 290 138, 293 138 L 294 137 L 294 123 Z" fill="#858889"/>
  <path d="M 413 177 C 410 171, 407 168, 406 168 C 404 166, 401 166, 400 165 C 391 165, 390 164, 382 164 C 381 163, 369 163, 368 162 C 357 162, 356 161, 345 161 C 344 160, 334 160, 333 159 C 322 159, 321 158, 310 158 C 309 157, 285 156, 284 155 C 277 155, 276 154, 266 154 C 265 155, 260 155, 259 156 C 256 156, 255 157, 252 157 C 251 158, 247 158, 246 159 C 243 159, 242 160, 239 160 C 238 161, 235 161, 234 162 C 231 162, 230 163, 227 163 C 226 164, 223 164, 222 165 C 219 165, 218 166, 215 166 C 214 167, 210 167, 209 168 C 202 169, 198 171, 194 171 C 193 172, 190 172, 186 174 C 183 174, 182 175, 175 176 C 171 179, 169 183, 168 188 C 167 189, 167 194, 166 195 C 166 205, 165 206, 165 217 C 164 218, 164 230, 163 231 C 163 240, 162 241, 147 241 C 146 242, 134 242, 132 243 C 130 246, 130 249, 129 250 C 129 270, 136 270, 137 271 C 137 287, 135 290, 135 308 C 140 308, 140 296, 141 295 C 141 290, 142 289, 142 285 C 143 284, 143 282, 150 268 C 156 264, 160 266, 164 270 C 168 278, 168 280, 169 281 C 169 283, 171 287, 171 290 C 172 291, 172 295, 173 296 C 173 302, 174 303, 174 315 C 185 316, 186 317, 196 318 C 197 319, 202 319, 203 320 C 211 320, 211 306, 212 305 C 212 299, 213 298, 213 295 C 214 294, 214 291, 215 290 C 216 285, 219 281, 220 278 C 223 275, 223 274, 228 269 C 232 267, 239 267, 241 269 C 244 270, 252 279, 253 282 C 255 284, 255 286, 259 294 C 259 297, 260 298, 261 304 C 262 305, 262 310, 263 311 C 264 320, 268 320, 268 314 C 269 313, 269 309, 267 308 C 267 301, 266 300, 266 289 C 267 288, 267 279, 268 278 C 312 278, 313 277, 357 277 C 358 276, 413 276, 414 275 C 426 275, 426 270, 425 269 C 425 262, 424 261, 424 253 C 423 252, 423 245, 422 244 C 422 237, 421 236, 421 229 C 420 228, 420 222, 419 221 C 419 215, 418 214, 418 207 C 417 206, 417 200, 416 199 C 416 193, 415 192, 415 186 C 414 185, 414 180, 413 179 L 413 177 Z" fill="#005ebd"/>
  <path d="M 201 190 C 203 192, 203 195, 204 196 C 204 224, 203 225, 203 230 C 200 233, 187 233, 186 234 C 179 234, 177 232, 177 206 C 178 205, 178 197, 177 196 C 179 194, 180 194, 181 193 C 184 193, 185 192, 189 192 C 190 191, 195 191, 196 190 L 201 190 Z" fill="#005ebd"/>
  <path d="M 254 179 C 257 182, 257 183, 258 184 C 258 191, 259 192, 259 211 C 260 212, 260 226, 258 228 C 257 228, 256 229, 242 229 C 241 230, 226 230, 225 231 C 222 231, 219 228, 219 187 C 221 185, 225 185, 226 184 C 230 184, 231 183, 235 183 C 236 182, 240 182, 241 181 C 245 181, 246 180, 251 180 L 252 179 L 254 179 Z" fill="#005ebd"/>
  <path d="M 296 181 C 300 177, 308 177, 309 178 C 322 178, 323 179, 336 179 C 337 180, 351 180, 352 181 C 367 181, 368 182, 382 182 C 383 183, 391 183, 392 184 C 393 184, 394 185, 394 186 C 396 188, 396 189, 397 190 C 397 197, 398 198, 398 203 C 399 204, 399 208, 400 209 C 400 215, 401 216, 401 221 C 402 222, 402 226, 399 229 C 398 229, 397 230, 394 230 C 393 229, 358 229, 357 228 C 317 228, 316 227, 303 227 C 299 223, 299 222, 298 221 C 298 216, 297 215, 297 197 L 296 196 L 296 181 Z" fill="#005ebd"/>
  <path d="M 402 334 C 397 334, 396 335, 382 335 C 381 336, 367 336, 366 337 C 353 337, 352 338, 340 338 C 339 339, 327 339, 327 344 C 328 345, 328 347, 329 348 C 329 349, 330 350, 330 351 C 331 352, 331 353, 332 354 C 332 355, 334 357, 334 358 C 337 361, 337 362, 341 366 C 342 366, 344 368, 345 368 C 346 369, 348 369, 349 370 C 351 370, 352 371, 362 371 C 363 370, 368 370, 369 369 C 376 369, 377 368, 379 368 C 380 367, 382 367, 383 366 C 384 366, 386 364, 387 364 C 394 357, 394 356, 395 355 C 395 354, 397 352, 397 351 C 398 350, 398 349, 399 348 C 399 346, 400 345, 400 342 C 401 341, 401 339, 402 338 L 402 334 Z" fill="#20232c"/>
  <path d="M 230 266 C 229 267, 228 267, 227 268 C 226 268, 222 272, 222 273 C 219 276, 219 277, 218 278 C 218 279, 216 281, 216 282 C 215 283, 215 285, 214 286 C 214 288, 213 289, 213 292 C 212 293, 212 296, 211 297 C 211 303, 210 304, 210 321 C 212 321, 213 322, 213 324 C 214 325, 214 340, 215 341 C 215 348, 216 349, 216 352 C 217 353, 217 355, 218 356 C 218 359, 219 360, 219 361 C 220 362, 220 364, 221 365 C 221 366, 222 367, 222 368 C 224 370, 224 371, 226 373 C 226 374, 232 380, 233 380 C 234 381, 236 381, 237 382 C 254 382, 255 381, 258 381 C 259 380, 266 380, 267 379 C 269 379, 270 378, 272 378 C 279 371, 279 370, 280 369 C 280 368, 281 367, 281 366 C 283 364, 283 363, 284 362 C 284 359, 286 357, 286 356 C 287 355, 287 350, 288 349 C 288 342, 279 342, 278 341 C 274 341, 273 340, 271 340 C 269 338, 269 333, 268 332 C 268 331, 267 330, 267 328 C 266 327, 266 319, 265 318 C 265 314, 264 313, 264 309 C 263 308, 263 303, 262 302 C 262 299, 261 298, 261 296 C 260 295, 260 292, 259 291 C 259 290, 258 289, 258 287 C 257 286, 257 285, 256 284 C 256 282, 254 280, 254 279 C 253 278, 253 277, 249 273 C 249 272, 246 269, 245 269 C 244 268, 243 268, 241 266 L 230 266 Z" fill="#20232c"/>
  <path d="M 234 308 C 236 308, 241 313, 241 314 C 242 315, 242 316, 243 317 C 243 319, 244 320, 244 323 C 245 324, 245 330, 246 331 C 246 335, 245 336, 245 342 C 244 343, 244 345, 243 346 C 243 347, 242 348, 242 349 C 238 353, 235 353, 234 352 C 233 352, 231 350, 231 349 C 230 348, 230 347, 229 346 C 229 345, 228 344, 228 342 C 227 341, 227 339, 226 338 C 226 332, 225 331, 225 326 C 226 325, 226 319, 227 318 C 227 316, 228 315, 228 314 C 229 313, 229 312, 232 309 L 233 309 L 234 308 Z" fill="#20232c"/>
  <path d="M 154 263 C 153 264, 152 264, 150 266 C 149 266, 149 267, 147 269 C 147 270, 146 271, 146 272 C 145 273, 145 274, 144 275 C 144 277, 143 278, 143 279 C 142 280, 142 282, 141 283 C 141 287, 140 288, 140 293 C 139 294, 139 309, 140 309 C 141 310, 141 325, 142 326 C 142 331, 143 332, 143 335 C 144 336, 144 339, 145 340 C 145 342, 146 343, 146 344 C 147 345, 147 346, 148 347 C 148 348, 150 350, 150 351 C 154 355, 156 355, 157 356 C 171 356, 172 355, 181 355 C 182 354, 183 354, 184 353 C 185 353, 187 351, 187 350 C 189 348, 189 347, 190 346 C 190 345, 191 344, 191 342 C 192 341, 192 340, 193 339 C 193 337, 194 336, 194 333 C 195 332, 195 324, 196 323 C 196 317, 193 317, 192 316 C 188 316, 187 315, 182 315 C 181 314, 176 314, 175 313 C 175 301, 174 300, 174 294 C 173 293, 173 289, 172 288 C 172 285, 171 284, 171 282 C 170 281, 170 279, 169 278 C 169 276, 168 275, 168 274 C 167 273, 167 272, 166 271 C 166 270, 165 269, 165 268 C 162 265, 161 265, 159 263 L 154 263 Z" fill="#20232c"/>
  <path d="M 154 297 C 156 297, 159 300, 159 301 C 160 302, 160 304, 161 305 C 161 309, 162 310, 162 321 C 161 322, 161 326, 160 327 C 160 328, 159 329, 159 330 C 157 332, 155 332, 153 330 C 153 329, 152 328, 152 327 C 151 326, 151 324, 150 323 C 150 319, 149 318, 149 308 C 150 307, 150 304, 151 303 C 151 301, 152 300, 152 299 L 154 297 Z" fill="#20232c"/>
  <path d="M 145 219 C 143 221, 143 243, 148 243 C 149 242, 153 242, 153 222 C 152 221, 151 221, 150 220 L 150 219 L 145 219 Z" fill="#20232c"/>
  <path d="M 203 189 C 194 189, 193 190, 188 190 C 187 191, 183 191, 182 192 C 179 192, 178 193, 177 193 C 176 194, 176 198, 177 199 C 177 203, 176 204, 176 234 C 177 235, 188 235, 189 234 C 202 234, 204 232, 204 227 C 205 226, 205 194, 204 193 L 204 190 L 203 189 Z" fill="#20232c"/>
  <path d="M 256 178 C 250 178, 249 179, 244 179 C 243 180, 239 180, 238 181 C 234 181, 233 182, 229 182 C 228 183, 224 183, 223 184 C 219 184, 218 185, 218 230 C 220 232, 227 232, 228 231 C 243 231, 244 230, 258 230 C 259 229, 260 229, 261 228 C 261 210, 260 209, 260 190 C 259 189, 259 182, 258 181 L 258 180 L 256 178 Z" fill="#20232c"/>
  <path d="M 295 179 C 295 198, 296 199, 296 217 C 297 218, 297 223, 298 224 C 298 225, 301 228, 314 228 C 315 229, 355 229, 356 230 C 391 230, 392 231, 399 231 C 400 230, 401 230, 403 228 C 403 220, 402 219, 402 214 C 401 213, 401 207, 400 206 C 400 202, 399 201, 399 196 C 398 195, 398 188, 397 187 C 397 186, 395 184, 395 183 C 394 183, 393 182, 385 182 C 384 181, 370 181, 369 180 C 354 180, 353 179, 339 179 C 338 178, 325 178, 324 177 C 311 177, 310 176, 298 176 L 295 179 Z" fill="#20232c"/>
  <path d="M 189 159 C 189 160, 188 161, 188 164 C 187 165, 187 174, 191 174 C 192 173, 195 173, 196 172 C 198 172, 198 161, 197 160 L 197 159 L 189 159 Z" fill="#20232c"/>
  <path d="M 377 148 C 377 150, 375 152, 375 164 C 381 164, 382 165, 389 165 C 389 161, 388 160, 388 154 C 387 153, 387 150, 386 149 L 386 148 L 377 148 Z" fill="#20232c"/>
  <path d="M 269 137 C 267 139, 267 142, 266 143 C 265 143, 265 155, 274 155 C 275 156, 280 156, 280 152 C 279 151, 279 143, 278 142 C 278 141, 277 140, 277 138 C 275 138, 274 137, 269 137 Z" fill="#20232c"/>
</svg>
