<?xml version="1.0" ?>
<svg xmlns="http://www.w3.org/2000/svg" width="512" height="512" viewBox="0 0 512 512" style="background-color: transparent;">
  <path d="M 309 276 C 309 278, 307 280, 307 295 C 306 296, 306 308, 335 308 L 335 276 L 309 276 Z" fill="#f5f5f2"/>
  <path d="M 176 276 C 176 307, 177 308, 206 308 C 206 280, 205 279, 205 277 L 204 276 L 176 276 Z" fill="#f5f5f2"/>
  <path d="M 335 276 C 335 277, 334 278, 334 302 C 335 303, 335 310, 350 310 L 350 276 L 335 276 Z" fill="#ea9c07"/>
  <path d="M 304 276 C 304 296, 308 296, 308 282 C 309 281, 309 276, 304 276 Z" fill="#ea9c07"/>
  <path d="M 161 276 C 161 309, 162 310, 174 310 C 175 309, 177 309, 177 276 L 161 276 Z" fill="#ea9c07"/>
  <path d="M 152 311 C 152 340, 153 341, 154 341 C 155 342, 357 342, 358 341 C 359 341, 359 311, 357 309 C 337 309, 335 307, 310 307 C 310 308, 309 309, 204 309 C 203 310, 199 310, 198 309 C 189 309, 188 308, 188 307 C 177 307, 176 308, 173 308 C 172 309, 164 309, 163 308 C 158 308, 157 309, 155 309 C 154 310, 153 310, 152 311 Z" fill="#888a8c"/>
  <path d="M 328 181 C 327 182, 326 182, 325 183 C 324 183, 322 185, 322 186 C 321 187, 321 188, 320 189 C 320 198, 321 199, 321 201 C 325 205, 326 205, 327 206 C 338 206, 339 205, 340 205 C 344 201, 344 200, 345 199 C 345 197, 346 196, 346 190 C 345 189, 345 188, 344 187 C 344 186, 340 182, 338 182 L 337 181 L 328 181 Z" fill="#888a8c"/>
  <path d="M 169 183 C 167 185, 167 186, 166 187 C 166 189, 165 190, 165 197 C 166 198, 166 200, 167 201 C 167 202, 170 205, 171 205 C 172 206, 174 206, 175 207 C 180 207, 181 206, 184 206 C 185 205, 186 205, 189 202 C 189 201, 190 200, 190 199 C 191 198, 191 190, 190 189 C 190 187, 189 186, 189 185 C 186 182, 185 182, 184 181 C 173 181, 172 182, 171 182 L 170 183 L 169 183 Z" fill="#888a8c"/>
  <path d="M 325 144 C 323 144, 322 143, 303 143 C 302 144, 302 145, 301 146 C 301 147, 300 148, 300 149 C 299 150, 299 152, 298 153 C 298 154, 297 155, 297 156 C 296 157, 296 159, 295 160 C 295 161, 294 162, 294 163 C 293 164, 293 172, 311 172 C 311 164, 312 163, 312 158 C 313 157, 317 157, 318 158 C 318 161, 322 161, 323 160 C 323 159, 325 157, 325 144 Z" fill="#888a8c"/>
  <path d="M 186 144 C 186 154, 187 155, 187 158 C 188 159, 188 160, 189 161 C 193 161, 193 159, 195 157 C 197 157, 199 159, 199 168 C 200 169, 200 172, 218 172 C 218 165, 217 164, 217 163 C 216 162, 216 160, 215 159 C 215 158, 214 157, 214 155 C 213 154, 213 153, 212 152 C 212 151, 211 150, 211 149 C 210 148, 210 147, 209 146 C 209 144, 206 144, 205 143 C 190 143, 189 144, 186 144 Z" fill="#888a8c"/>
  <path d="M 350 242 C 349 241, 349 240, 348 239 C 348 238, 347 237, 344 237 C 343 236, 327 236, 326 235 C 326 231, 322 231, 321 232 C 320 232, 318 234, 193 234 C 192 233, 190 233, 189 232 C 185 232, 185 235, 184 236 C 167 236, 166 237, 164 237 C 163 238, 163 239, 162 240 C 162 241, 161 242, 161 276 C 170 276, 171 277, 207 277 C 207 256, 209 254, 210 254 C 211 253, 212 254, 217 254 C 218 253, 288 253, 289 254 C 303 254, 304 255, 304 276 C 305 276, 306 277, 311 277 C 312 276, 329 276, 330 277 C 335 277, 336 276, 350 276 L 350 242 Z" fill="#0055b9"/>
  <path d="M 188 204 C 183 204, 182 205, 180 205 C 179 206, 176 206, 176 210 L 188 210 L 188 204 Z" fill="#0055b9"/>
  <path d="M 322 203 C 322 214, 326 214, 326 211 C 327 210, 328 210, 329 209 C 331 209, 331 205, 329 205 C 328 204, 327 204, 326 203 L 322 203 Z" fill="#0055b9"/>
  <path d="M 177 176 C 177 182, 182 182, 183 183 C 184 183, 188 187, 193 187 C 194 186, 196 186, 197 185 C 315 185, 317 187, 318 187 C 319 188, 323 188, 323 187 C 326 184, 327 184, 328 183 C 329 183, 330 182, 334 182 C 334 176, 333 175, 333 174 C 332 173, 331 173, 330 172 C 328 172, 327 171, 185 171 C 184 172, 181 172, 180 173 C 179 173, 178 174, 178 175 L 177 176 Z" fill="#0055b9"/>
  <path d="M 311 341 C 311 349, 310 350, 310 359 C 309 360, 307 360, 307 369 C 308 370, 308 373, 309 374 C 309 375, 338 375, 339 374 C 340 374, 340 373, 341 372 C 341 370, 342 369, 342 366 C 343 365, 343 359, 344 358 C 344 348, 345 347, 345 341 L 311 341 Z" fill="#1f212a"/>
  <path d="M 296 341 C 296 347, 297 348, 307 348 L 307 341 L 296 341 Z" fill="#1f212a"/>
  <path d="M 204 341 C 204 342, 203 343, 203 349 C 213 349, 214 348, 215 348 L 215 341 L 204 341 Z" fill="#1f212a"/>
  <path d="M 166 341 C 166 350, 167 351, 167 361 C 168 362, 168 367, 169 368 C 169 371, 170 372, 170 373 C 172 375, 202 375, 202 374 C 203 373, 203 370, 204 369 C 204 364, 202 364, 201 363 C 201 354, 200 353, 200 341 L 166 341 Z" fill="#1f212a"/>
  <path d="M 175 209 C 175 233, 176 234, 176 237 C 186 237, 186 234, 187 233 C 188 234, 190 234, 191 235 C 320 235, 322 233, 323 233 C 324 232, 325 233, 325 237 C 337 237, 337 231, 336 230 C 336 209, 335 209, 334 208 C 327 208, 326 209, 325 209 C 325 224, 324 225, 323 224 C 323 220, 322 219, 322 207 C 321 206, 321 200, 320 199 C 321 198, 321 192, 320 192 C 319 191, 319 188, 318 188 C 317 187, 314 187, 313 186 C 308 186, 307 185, 307 184 C 208 184, 208 185, 207 186 C 193 186, 193 187, 192 188 C 191 188, 190 189, 190 196 C 189 197, 189 201, 188 202 C 187 202, 187 208, 186 209 L 175 209 Z" fill="#1f212a"/>
  <path d="M 311 156 C 311 161, 310 162, 310 172 C 319 172, 319 156, 311 156 Z" fill="#1f212a"/>
  <path d="M 193 156 C 192 157, 192 172, 201 172 C 201 167, 200 166, 200 157 L 199 156 L 193 156 Z" fill="#1f212a"/>
  <path d="M 306 342 C 306 349, 307 350, 307 355 C 311 355, 311 352, 312 351 L 312 342 L 306 342 Z" fill="#010101"/>
  <path d="M 199 342 C 199 355, 200 356, 200 358 C 204 358, 204 342, 199 342 Z" fill="#010101"/>
  <path d="M 207 253 C 207 279, 206 280, 206 291 C 208 291, 209 292, 208 293 C 206 293, 206 305, 210 305 C 211 306, 211 310, 288 310 C 288 307, 289 306, 290 306 C 291 307, 291 310, 299 310 C 299 307, 300 306, 302 306 C 303 305, 305 305, 305 283 C 303 283, 302 282, 303 281 C 305 281, 305 271, 304 271 C 303 270, 304 269, 305 269 C 305 262, 304 262, 303 261 C 303 258, 304 257, 305 257 C 305 253, 215 253, 215 255 C 214 256, 212 256, 211 255 L 211 253 L 207 253 Z" fill="#010101"/>
</svg>
