<?xml version="1.0" encoding="UTF-8"?>
<!-- Generator: visioncortex VTracer 0.6.4 -->
<svg version="1.1" xmlns="http://www.w3.org/2000/svg" width="512" height="512">
<path d="M0 0 C0.66 0 1.32 0 2 0 C3.49 2.129 3.49 2.129 5.238 5.133 C5.887 6.238 6.536 7.344 7.204 8.483 C7.907 9.697 8.61 10.911 9.312 12.125 C10.036 13.362 10.76 14.599 11.485 15.836 C12.959 18.351 14.428 20.868 15.895 23.387 C18.847 28.458 21.829 33.511 24.812 38.562 C25.594 39.891 25.594 39.891 26.391 41.247 C28.939 45.568 31.521 49.862 34.18 54.117 C34.687 54.931 35.193 55.745 35.716 56.584 C36.661 58.096 37.614 59.604 38.575 61.106 C38.998 61.781 39.42 62.456 39.855 63.152 C40.223 63.73 40.591 64.307 40.969 64.902 C43.589 70.235 44.238 75.15 43.977 81.027 C43.925 82.313 43.873 83.599 43.82 84.924 C43.755 86.262 43.69 87.6 43.625 88.938 C43.567 90.303 43.509 91.668 43.453 93.033 C43.312 96.356 43.161 99.678 43 103 C42.34 103 41.68 103 41 103 C31.378 86.457 21.95 69.824 12.7 53.07 C11.098 50.178 9.487 47.291 7.871 44.406 C7.402 43.568 6.933 42.73 6.45 41.867 C5.595 40.34 4.739 38.814 3.88 37.289 C0.903 31.961 -0.124 28.451 -0.098 22.363 C-0.094 21.065 -0.091 19.766 -0.088 18.428 C-0.08 17.056 -0.071 15.684 -0.062 14.312 C-0.057 12.929 -0.053 11.546 -0.049 10.162 C-0.037 6.775 -0.021 3.387 0 0 Z " fill="#212331" transform="translate(84,235)"/>
</svg>
