<?xml version="1.0" encoding="UTF-8"?>
<!-- Generator: visioncortex VTracer 0.6.4 -->
<svg version="1.1" xmlns="http://www.w3.org/2000/svg" width="512" height="512">
<path d="M0 0 C2.64 0.99 5.28 1.98 8 3 C6.962 9.067 5.66 14.437 3 20 C0.625 20.125 0.625 20.125 -2 20 C-2.66 19.34 -3.32 18.68 -4 18 C-3.87 15.45 -3.628 13.076 -3.25 10.562 C-3.162 9.881 -3.075 9.2 -2.984 8.498 C-2.492 5.008 -1.985 2.978 0 0 Z " fill="#25303B" transform="translate(405,216)"/>
<path d="M0 0 C2.64 0.99 5.28 1.98 8 3 C8 3.99 8 4.98 8 6 C5.03 5.67 2.06 5.34 -1 5 C-0.67 3.35 -0.34 1.7 0 0 Z " fill="#181D23" transform="translate(405,216)"/>
</svg>
