<?xml version="1.0" encoding="UTF-8"?>
<!-- Generator: visioncortex VTracer 0.6.4 -->
<svg version="1.1" xmlns="http://www.w3.org/2000/svg" width="512" height="512">
<path d="M0 0 C0.091 6.336 0.121 12.672 -0.25 19 C-0.296 19.846 -0.343 20.691 -0.391 21.562 C-1.226 24.905 -2.583 26.551 -5 29 C-7.24 30.326 -9.321 31.398 -11.688 32.438 C-12.386 32.755 -13.085 33.072 -13.806 33.398 C-16.528 34.619 -19.264 35.81 -22 37 C-23.315 37.577 -24.631 38.154 -25.946 38.731 C-29.625 40.343 -33.31 41.941 -36.999 43.53 C-38.496 44.175 -39.992 44.823 -41.487 45.473 C-43.618 46.398 -45.753 47.31 -47.891 48.219 C-48.533 48.5 -49.175 48.78 -49.837 49.07 C-53.345 50.545 -56.185 51.426 -60 51 C-62.31 48.69 -61.571 43.425 -61.75 40.312 C-61.818 39.413 -61.887 38.514 -61.957 37.588 C-62.261 32.268 -62.253 28.483 -59 24 C-54.242 20.412 -49.194 18.225 -43.691 15.996 C-42.364 15.449 -42.364 15.449 -41.01 14.891 C-38.196 13.734 -35.38 12.586 -32.562 11.438 C-30.674 10.663 -28.785 9.887 -26.896 9.111 C-24.229 8.015 -21.56 6.92 -18.89 5.829 C-17.689 5.338 -17.689 5.338 -16.463 4.838 C-15.705 4.528 -14.946 4.219 -14.165 3.9 C-12.127 3.053 -10.11 2.166 -8.094 1.27 C-5.089 0.037 -3.2 -0.291 0 0 Z " fill="#1F1F2E" transform="translate(327,247)"/>
<path d="M0 0 C-5.206 6.338 -13.712 8.277 -21.172 10.934 C-26.769 13.044 -32.175 15.624 -37.551 18.242 C-38.732 18.803 -38.732 18.803 -39.938 19.375 C-40.627 19.713 -41.317 20.05 -42.027 20.398 C-44.391 21.119 -45.694 20.795 -48 20 C-43.649 16.041 -38.98 14.055 -33.613 11.855 C-32.715 11.481 -31.817 11.107 -30.891 10.722 C-29.001 9.937 -27.109 9.157 -25.216 8.38 C-22.307 7.185 -19.406 5.973 -16.506 4.76 C-14.667 3.999 -12.828 3.239 -10.988 2.48 C-9.682 1.934 -9.682 1.934 -8.349 1.376 C-7.545 1.049 -6.74 0.721 -5.911 0.384 C-5.203 0.091 -4.494 -0.201 -3.763 -0.502 C-2 -1 -2 -1 0 0 Z " fill="#111321" transform="translate(322,249)"/>
</svg>
