<?xml version="1.0" encoding="UTF-8"?>
<!-- Generator: visioncortex VTracer 0.6.4 -->
<svg version="1.1" xmlns="http://www.w3.org/2000/svg" width="512" height="512">
<path d="M0 0 C2.735 1.368 3.231 2.985 4.656 5.684 C5.453 7.18 5.453 7.18 6.266 8.707 C6.838 9.793 7.41 10.88 8 12 C9.218 14.283 10.437 16.565 11.656 18.848 C12.293 20.042 12.93 21.237 13.566 22.432 C13.885 23.03 14.204 23.627 14.532 24.243 C15.178 25.458 15.823 26.672 16.468 27.887 C20.063 34.657 23.749 41.337 27.74 47.883 C29.345 50.579 30.718 53.353 32.062 56.188 C35.882 63.99 40.196 71.493 44.557 79.005 C49.376 87.388 51.347 94.173 52.035 103.723 C52.527 108.913 53.781 111.882 57 116 C63.21 115.556 67.605 114.085 73 111 C77.021 115.371 76.964 119.908 77.062 125.625 C75.715 129.906 74.093 130.857 70.25 132.93 C69.507 133.283 68.765 133.636 68 134 C67.319 134.333 66.639 134.665 65.938 135.008 C61.344 137 57.931 137.488 53 136 C47.907 131.876 45.586 126.717 42.812 120.875 C39.031 113.033 35.078 105.304 31.007 97.609 C27.865 91.663 24.771 85.692 21.711 79.703 C21.052 78.414 21.052 78.414 20.38 77.1 C18.594 73.602 16.81 70.104 15.026 66.605 C13.693 63.991 12.359 61.378 11.023 58.766 C10.596 57.928 10.169 57.09 9.728 56.227 C7.744 52.351 5.738 48.49 3.661 44.662 C3.297 43.99 2.933 43.318 2.558 42.626 C1.59 40.85 0.613 39.079 -0.365 37.308 C-3.956 30.045 -7.094 22.088 -5 14 C-3.062 11.625 -3.062 11.625 -1 10 C-0.34 10 0.32 10 1 10 C0.67 6.7 0.34 3.4 0 0 Z " fill="#969796" transform="translate(78,286)"/>
<path d="M0 0 C3.607 3.204 5.724 6.801 7.898 11.039 C8.256 11.72 8.613 12.401 8.982 13.102 C10.12 15.273 11.248 17.449 12.375 19.625 C13.858 22.473 15.345 25.32 16.836 28.164 C17.195 28.85 17.554 29.537 17.924 30.244 C20.387 34.92 23.014 39.464 25.779 43.969 C27.38 46.632 28.732 49.381 30.062 52.188 C33.882 59.99 38.196 67.493 42.557 75.005 C46.799 82.384 49.226 88.289 49.625 96.875 C49.664 97.563 49.702 98.252 49.742 98.961 C49.835 100.64 49.919 102.32 50 104 C47.582 100.947 45.715 97.797 43.883 94.363 C43.283 93.241 42.682 92.119 42.064 90.963 C41.417 89.746 40.771 88.53 40.125 87.312 C39.452 86.051 38.779 84.79 38.106 83.529 C33.244 74.405 28.473 65.235 23.723 56.052 C19.153 47.24 14.434 38.514 9.656 29.812 C9.216 29.01 8.776 28.208 8.323 27.382 C7.426 25.768 6.516 24.161 5.593 22.561 C3.373 18.691 1.427 15.271 0.688 10.812 C0.481 9.573 0.481 9.573 0.27 8.309 C-0.056 5.52 -0.148 2.803 0 0 Z " fill="#F6F8F9" transform="translate(80,290)"/>
<path d="M0 0 C2 1 2 1 2 1 Z " fill="#336796" transform="translate(134,386)"/>
<path d="" fill="#667872" transform="translate(0,0)"/>
<path d="" fill="#2E679E" transform="translate(0,0)"/>
<path d="" fill="#687970" transform="translate(0,0)"/>
<path d="" fill="#BC9C5E" transform="translate(0,0)"/>
</svg>
