<?xml version="1.0" encoding="UTF-8"?>
<!-- Generator: visioncortex VTracer 0.6.4 -->
<svg version="1.1" xmlns="http://www.w3.org/2000/svg" width="512" height="512">
<path d="M0 0 C1.98 0 3.96 0 6 0 C6.906 3.718 7.012 6.824 6.625 10.625 C6.535 11.566 6.445 12.507 6.352 13.477 C6 16 6 16 5 19 C3.02 19 1.04 19 -1 19 C-2.191 14.643 -1.767 11.12 -1.062 6.688 C-0.868 5.433 -0.673 4.179 -0.473 2.887 C-0.317 1.934 -0.161 0.981 0 0 Z " fill="#242B31" transform="translate(335,152)"/>
<path d="M0 0 C1.98 0 3.96 0 6 0 C6 0.99 6 1.98 6 3 C4.02 3 2.04 3 0 3 C0 2.01 0 1.02 0 0 Z " fill="#131518" transform="translate(335,152)"/>
</svg>
