<?xml version="1.0" encoding="UTF-8"?>
<!-- Generator: visioncortex VTracer 0.6.4 -->
<svg version="1.1" xmlns="http://www.w3.org/2000/svg" width="512" height="512">
<path d="M0 0 C4.435 3.168 7.556 6.762 11 11 C12.655 12.678 14.324 14.343 16 16 C16.909 16.92 17.818 17.841 18.754 18.789 C19.681 19.725 20.608 20.661 21.562 21.625 C22.265 22.34 22.265 22.34 22.982 23.07 C24.302 24.4 25.65 25.701 27 27 C27.648 27.626 28.297 28.253 28.965 28.898 C31.991 30.537 33.713 29.878 37 29 C39.595 28.11 42.136 27.185 44.688 26.188 C46.102 25.648 47.516 25.109 48.93 24.57 C51.417 23.613 53.9 22.649 56.383 21.68 C57.35 21.311 58.316 20.942 59.312 20.562 C60.154 20.234 60.996 19.905 61.863 19.566 C64 19 64 19 67 20 C67.33 21.65 67.66 23.3 68 25 C69.98 25 71.96 25 74 25 C74.33 21.7 74.66 18.4 75 15 C78.742 13.753 81.048 13.554 85 14 C88.222 15.717 91.097 17.795 94 20 C94.749 20.519 95.498 21.039 96.27 21.574 C96.841 22.045 97.412 22.515 98 23 C98 23.66 98 24.32 98 25 C98.592 25.27 99.184 25.54 99.795 25.818 C101.985 26.992 103.493 28.198 105.285 29.906 C106.197 30.768 106.197 30.768 107.127 31.646 C107.766 32.258 108.404 32.87 109.062 33.5 C110.408 34.773 111.755 36.045 113.102 37.316 C114.094 38.256 114.094 38.256 115.106 39.215 C117.691 41.652 120.309 44.048 122.938 46.438 C123.801 47.23 124.665 48.023 125.555 48.84 C127.942 51.001 127.942 51.001 130.383 52.816 C134.489 55.988 136.403 58.065 137.438 63.25 C137.632 64.833 137.82 66.416 138 68 C138.33 68.99 138.66 69.98 139 71 C138.538 72.915 138.069 74.83 137.551 76.73 C136.656 80.418 136.108 84.204 136 88 C136.33 88.33 136.66 88.66 137 89 C138.65 89 140.3 89 142 89 C143.65 83.72 145.3 78.44 147 73 C148.65 72.67 150.3 72.34 152 72 C153.879 73.293 153.879 73.293 155.562 75.188 C156.452 76.16 156.452 76.16 157.359 77.152 C157.901 77.762 158.442 78.372 159 79 C159.763 79.743 160.526 80.485 161.312 81.25 C164.501 84.557 165.276 86.64 165.25 91.125 C165.012 101.714 165.012 101.714 163 106 C159.489 109.327 155.699 111.27 151.312 113.25 C150.174 113.771 149.036 114.292 147.863 114.828 C145 116 145 116 143 116 C142.34 120.95 141.68 125.9 141 131 C141.66 131.33 142.32 131.66 143 132 C141.515 137.94 141.515 137.94 140 144 C137.03 144.66 134.06 145.32 131 146 C130.938 144.618 130.876 143.236 130.812 141.812 C130.407 138.178 130.064 137.083 127.75 134.062 C121.522 129.392 115.548 129.3 108 130 C99.264 131.699 92.719 135.867 85.715 141.074 C83 143 83 143 80 144 C80 144.66 80 145.32 80 146 C78.895 147.005 77.738 147.954 76.562 148.875 C69.205 155.137 59.313 166.086 57.661 176.041 C56.826 180.097 55.94 182.332 52.496 184.781 C49.036 186.533 45.517 188.075 41.938 189.562 C40.611 190.141 39.286 190.722 37.963 191.307 C35.868 192.232 33.771 193.155 31.669 194.065 C26.262 196.411 20.935 198.9 15.625 201.457 C14.855 201.827 14.085 202.196 13.292 202.577 C10.259 204.034 7.226 205.492 4.198 206.962 C2.093 207.981 -0.017 208.988 -2.129 209.992 C-2.752 210.298 -3.374 210.603 -4.016 210.918 C-7.49 212.556 -10.154 213.349 -14 213 C-14.254 212.385 -14.508 211.77 -14.77 211.137 C-15.114 210.328 -15.458 209.52 -15.812 208.688 C-16.149 207.887 -16.485 207.086 -16.832 206.262 C-18.644 202.753 -20.081 201.391 -23.742 199.832 C-39.413 195.83 -54.497 201.264 -68 209 C-83.894 218.826 -96.593 232.083 -101.002 250.468 C-102.015 254.283 -102.933 255.943 -105.969 258.539 C-109 260 -109 260 -112 259 C-112.949 257.152 -112.949 257.152 -113.688 254.938 C-113.939 254.204 -114.19 253.471 -114.449 252.715 C-114.631 252.149 -114.813 251.583 -115 251 C-109.25 248 -109.25 248 -107 248 C-107.66 242.39 -108.32 236.78 -109 231 C-110.314 231.661 -111.627 232.323 -112.98 233.004 C-114.716 233.857 -116.451 234.71 -118.188 235.562 C-119.052 236 -119.916 236.438 -120.807 236.889 C-121.648 237.298 -122.489 237.707 -123.355 238.129 C-124.125 238.511 -124.895 238.893 -125.688 239.287 C-128.605 240.186 -130.142 240.06 -133 239 C-134.574 237.132 -134.574 237.132 -135.91 234.68 C-136.414 233.773 -136.919 232.867 -137.438 231.933 C-137.953 230.965 -138.469 229.997 -139 229 C-139.522 228.05 -140.044 227.101 -140.582 226.122 C-142.218 223.132 -143.83 220.13 -145.438 217.125 C-149.351 209.845 -153.329 202.64 -157.551 195.535 C-159.021 192.963 -160.332 190.353 -161.625 187.688 C-165.163 180.459 -169.188 173.511 -173.17 166.521 C-176.728 160.27 -180.203 153.995 -183.535 147.621 C-184.976 144.902 -184.976 144.902 -187.059 142.272 C-189.299 138.497 -189.506 136.375 -189.518 132.02 C-189.528 131.014 -189.528 131.014 -189.539 129.987 C-189.556 127.785 -189.545 125.585 -189.531 123.383 C-189.534 121.841 -189.538 120.299 -189.543 118.758 C-189.549 115.532 -189.54 112.306 -189.521 109.08 C-189.499 104.962 -189.512 100.845 -189.536 96.727 C-189.55 93.544 -189.546 90.361 -189.535 87.178 C-189.533 85.661 -189.536 84.143 -189.545 82.626 C-189.591 73.039 -189 66.46 -183.203 58.547 C-180.079 56.353 -177.529 56.39 -173.75 56.25 C-172.487 56.193 -171.223 56.137 -169.922 56.078 C-168.476 56.039 -168.476 56.039 -167 56 C-166.01 57.98 -165.02 59.96 -164 62 C-161.36 61.67 -158.72 61.34 -156 61 C-156.66 58.03 -157.32 55.06 -158 52 C-157.369 51.783 -156.738 51.565 -156.087 51.342 C-116.525 37.726 -116.525 37.726 -77 24 C-76.143 23.701 -75.285 23.402 -74.402 23.094 C-65.217 19.889 -56.039 16.665 -46.871 13.41 C-45.662 12.981 -45.662 12.981 -44.429 12.544 C-40.642 11.201 -36.856 9.855 -33.072 8.502 C-31.755 8.034 -30.438 7.566 -29.121 7.098 C-27.981 6.69 -26.841 6.283 -25.666 5.864 C-23 5 -23 5 -21 5 C-20.01 7.475 -20.01 7.475 -19 10 C-17.02 10 -15.04 10 -13 10 C-12.024 7.072 -11.918 5.044 -12 2 C-7.56 -0.643 -4.988 -1.663 0 0 Z M34.125 47.75 C32.523 48.378 30.919 49.004 29.315 49.628 C26.71 50.642 24.105 51.658 21.503 52.681 C14.527 55.42 7.525 58.083 0.508 60.715 C-0.568 61.118 -1.644 61.522 -2.752 61.938 C-4.964 62.767 -7.176 63.597 -9.388 64.426 C-33.373 73.426 -57.27 82.648 -81.141 91.945 C-87.676 94.489 -94.22 97.01 -100.77 99.514 C-104.668 101.006 -108.563 102.507 -112.455 104.015 C-114.17 104.679 -115.886 105.339 -117.604 105.997 C-120.012 106.922 -122.413 107.864 -124.812 108.812 C-125.483 109.067 -126.154 109.321 -126.846 109.583 C-131.793 111.574 -135.785 114.266 -138 119.25 C-138 125.093 -136.205 129.623 -132.375 134 C-127.7 136.77 -123.087 137.668 -117.727 136.508 C-117.157 136.34 -116.587 136.173 -116 136 C-115.876 136.598 -115.752 137.196 -115.625 137.812 C-115.045 140.262 -115.045 140.262 -113 143 C-109.531 142.542 -106.326 142.109 -103 141 C-103.495 136.545 -103.495 136.545 -104 132 C-79.843 122.18 -55.657 112.435 -31.441 102.763 C-27.457 101.171 -23.474 99.579 -19.49 97.986 C-14.804 96.113 -10.119 94.24 -5.432 92.368 C2.009 89.395 9.449 86.42 16.887 83.439 C18.972 82.604 21.057 81.768 23.142 80.933 C25.08 80.156 27.018 79.378 28.956 78.601 C30.684 77.908 30.684 77.908 32.448 77.202 C33.453 76.799 34.458 76.395 35.494 75.98 C37.31 75.27 39.15 74.617 41 74 C41.536 74.825 42.072 75.65 42.625 76.5 C44.786 79.293 44.786 79.293 48.062 79.438 C51.183 79.186 51.183 79.186 54 77 C53.67 74.03 53.34 71.06 53 68 C54.382 67.608 55.764 67.216 57.188 66.812 C61.527 65.377 64.058 63.585 67 60 C68.857 56.285 68.585 52.044 68 48 C65.434 44.692 63.188 42.321 58.957 41.7 C49.836 41.27 42.404 44.419 34.125 47.75 Z M-182 89 C-183.471 111.437 -183.471 111.437 -175.387 131.823 C-173.131 135.364 -171.161 139.06 -169.139 142.738 C-167.363 145.96 -165.559 149.165 -163.746 152.367 C-161.202 156.864 -158.674 161.369 -156.16 165.883 C-155.536 167.002 -154.913 168.121 -154.27 169.274 C-153.081 171.408 -151.893 173.542 -150.707 175.677 C-146.085 183.98 -146.085 183.98 -141 192 C-140.34 192 -139.68 192 -139 192 C-138.781 188.017 -138.585 184.034 -138.408 180.049 C-138.314 178.036 -138.203 176.024 -138.092 174.012 C-137.79 166.956 -137.558 161.249 -141 155 C-141.498 154.077 -141.997 153.154 -142.51 152.203 C-144.336 148.919 -146.221 145.676 -148.125 142.438 C-148.811 141.261 -149.497 140.085 -150.182 138.908 C-154.248 131.937 -158.346 124.984 -162.535 118.086 C-164.657 114.588 -166.733 111.064 -168.809 107.539 C-169.84 105.795 -170.872 104.052 -171.905 102.309 C-172.925 100.584 -173.937 98.854 -174.949 97.125 C-175.573 96.074 -176.197 95.024 -176.84 93.941 C-177.401 92.99 -177.961 92.038 -178.539 91.057 C-179.262 90.039 -179.262 90.039 -180 89 C-180.66 89 -181.32 89 -182 89 Z M51.644 102.573 C50.816 102.917 49.987 103.261 49.134 103.616 C48.251 103.994 47.367 104.372 46.457 104.762 C45.533 105.149 44.61 105.537 43.658 105.936 C41.704 106.759 39.751 107.585 37.801 108.416 C34.844 109.674 31.883 110.919 28.92 112.162 C27.015 112.965 25.111 113.769 23.207 114.574 C22.334 114.942 21.46 115.31 20.561 115.689 C16.187 117.555 11.846 119.489 7.55 121.527 C6.748 121.904 5.947 122.282 5.122 122.671 C1.672 124.832 0.273 127.181 -1 131 C-1.027 132.544 -0.991 134.09 -0.914 135.633 C-0.848 136.965 -0.848 136.965 -0.781 138.324 C-0.704 139.711 -0.704 139.711 -0.625 141.125 C-0.581 142.057 -0.537 142.989 -0.492 143.949 C-0.649 148.314 -0.649 148.314 1 152 C6.844 151.605 11.431 150.288 16.727 147.867 C17.437 147.552 18.147 147.237 18.879 146.913 C20.375 146.247 21.869 145.576 23.361 144.9 C25.594 143.889 27.833 142.892 30.074 141.898 C34.401 139.971 38.706 138 43 136 C43.685 135.682 44.37 135.364 45.076 135.036 C47.023 134.123 48.962 133.194 50.898 132.258 C52.006 131.726 53.114 131.193 54.255 130.645 C57.009 128.995 58.378 127.738 60 125 C61.692 117.264 61.113 108.873 61 101 C57.444 100.843 54.919 101.192 51.644 102.573 Z M-37.879 140.352 C-38.471 140.602 -39.063 140.853 -39.673 141.111 C-41.638 141.944 -43.6 142.784 -45.562 143.625 C-48.363 144.818 -51.166 146.007 -53.969 147.195 C-54.698 147.505 -55.426 147.814 -56.177 148.133 C-61.565 150.413 -66.978 152.622 -72.406 154.805 C-73.951 155.429 -75.496 156.053 -77.041 156.677 C-79.286 157.584 -81.532 158.488 -83.783 159.38 C-85.882 160.212 -87.974 161.058 -90.066 161.906 C-91.262 162.384 -92.458 162.861 -93.69 163.354 C-97.774 165.385 -101.895 167.79 -104 172 C-104.085 174.032 -104.107 176.067 -104.098 178.102 C-104.094 179.313 -104.091 180.525 -104.088 181.773 C-104.08 183.044 -104.071 184.315 -104.062 185.625 C-104.058 186.904 -104.053 188.183 -104.049 189.5 C-104.037 192.667 -104.021 195.833 -104 199 C-96.087 196.544 -88.58 193.328 -81 190 C-79.677 189.422 -78.354 188.845 -77.031 188.268 C-73.67 186.801 -70.311 185.329 -66.953 183.856 C-65.067 183.03 -63.181 182.205 -61.294 181.382 C-57.903 179.903 -54.514 178.421 -51.125 176.938 C-50.117 176.497 -49.109 176.057 -48.07 175.604 C-45.373 174.418 -42.685 173.214 -40 172 C-39.233 171.664 -38.465 171.327 -37.675 170.981 C-33.388 169.005 -30.417 167.238 -28 163 C-27.48 159.796 -27.48 159.796 -27.688 156.375 C-27.722 155.153 -27.757 153.931 -27.793 152.672 C-28.07 147.765 -28.442 142.883 -29 138 C-32.559 138 -34.605 138.953 -37.879 140.352 Z M20.207 152.898 C19.33 153.295 18.453 153.692 17.549 154.102 C16.646 154.522 15.743 154.942 14.812 155.375 C13.441 155.994 13.441 155.994 12.041 156.625 C7.15 158.758 7.15 158.758 3 162 C2.833 165.583 2.833 165.583 3 169 C8.223 168.44 12.754 167.182 17.625 165.188 C18.588 164.815 18.588 164.815 19.57 164.436 C23.591 162.817 26.907 161.058 30 158 C30.418 154.332 30.418 154.332 30 151 C26.194 150.795 23.665 151.322 20.207 152.898 Z M-86.151 200.476 C-86.907 200.808 -87.663 201.141 -88.441 201.484 C-89.272 201.843 -90.103 202.201 -90.959 202.57 C-91.818 202.96 -92.677 203.349 -93.562 203.75 C-94.426 204.124 -95.289 204.498 -96.178 204.883 C-99.665 206.411 -102.823 207.882 -106 210 C-106.471 212.743 -106.178 215.196 -106 218 C-105.67 218.33 -105.34 218.66 -105 219 C-99.847 218.56 -95.561 217.259 -90.812 215.25 C-89.623 214.76 -88.433 214.27 -87.207 213.766 C-83.794 211.887 -82.095 210.258 -80 207 C-79.664 204.29 -79.664 204.29 -80 202 C-82.315 200.531 -83.417 199.871 -86.151 200.476 Z " fill="#005ABB" transform="translate(266,146)"/>
<path d="" fill="#4A81B1" transform="translate(0,0)"/>
<path d="" fill="#989298" transform="translate(0,0)"/>
<path d="" fill="#AA9896" transform="translate(0,0)"/>
<path d="" fill="#C0903E" transform="translate(0,0)"/>
<path d="" fill="#988E7C" transform="translate(0,0)"/>
<path d="" fill="#9F9074" transform="translate(0,0)"/>
<path d="" fill="#B09460" transform="translate(0,0)"/>
<path d="" fill="#96938B" transform="translate(0,0)"/>
<path d="" fill="#E9BA5E" transform="translate(0,0)"/>
<path d="" fill="#939089" transform="translate(0,0)"/>
<path d="" fill="#4E657D" transform="translate(0,0)"/>
</svg>
