<?xml version="1.0" encoding="UTF-8"?>
<!-- Generator: visioncortex VTracer 0.6.4 -->
<svg version="1.1" xmlns="http://www.w3.org/2000/svg" width="512" height="512">
<path d="M0 0 C2.272 1.446 3.796 2.74 5.008 5.164 C5.211 7.371 5.211 7.371 5.258 9.977 C5.296 11.255 5.296 11.255 5.336 12.559 C4.924 15.826 3.933 17.492 2.008 20.164 C-0.488 21.798 -0.488 21.798 -3.43 23.18 C-4.506 23.686 -5.582 24.192 -6.691 24.713 C-11.738 26.932 -16.84 28.955 -21.992 30.914 C-24.478 31.875 -26.962 32.837 -29.445 33.805 C-30.113 34.065 -30.782 34.325 -31.47 34.593 C-39.677 37.803 -47.82 41.169 -55.969 44.523 C-74.677 52.221 -93.448 59.749 -112.27 67.164 C-114.262 67.949 -116.254 68.734 -118.246 69.52 C-119.224 69.905 -120.201 70.29 -121.208 70.687 C-127.969 73.355 -134.717 76.057 -141.457 78.777 C-142.371 79.146 -143.285 79.514 -144.227 79.893 C-148.51 81.62 -152.791 83.35 -157.069 85.09 C-183.873 95.936 -183.873 95.936 -191.992 93.164 C-197.051 90.166 -199.115 86.893 -200.645 81.371 C-201.177 77.988 -200.679 76.134 -198.992 73.164 C-194.857 69.284 -190.886 66.962 -185.57 64.957 C-184.491 64.534 -184.491 64.534 -183.389 64.103 C-181.011 63.174 -178.627 62.263 -176.242 61.352 C-174.541 60.692 -172.841 60.032 -171.14 59.37 C-165.764 57.285 -160.379 55.223 -154.992 53.164 C-153.279 52.508 -151.567 51.852 -149.854 51.195 C-141.229 47.892 -132.597 44.607 -123.961 41.332 C-116.433 38.477 -108.913 35.603 -101.398 32.715 C-79.899 24.453 -58.374 16.273 -36.77 8.289 C-35.497 7.818 -35.497 7.818 -34.199 7.338 C-32.578 6.738 -30.957 6.139 -29.335 5.541 C-25.237 4.024 -21.184 2.437 -17.152 0.75 C-11.624 -1.491 -5.66 -2.375 0 0 Z " fill="#717374" transform="translate(328.9921875,188.8359375)"/>
</svg>
