<?xml version="1.0" encoding="UTF-8"?>
<!-- Generator: visioncortex VTracer 0.6.4 -->
<svg version="1.1" xmlns="http://www.w3.org/2000/svg" width="512" height="512">
<path d="M0 0 C2.24 1.611 3.444 2.544 4.559 5.121 C4.784 8.139 4.733 11.102 4.559 14.121 C2.909 13.461 1.259 12.801 -0.441 12.121 C-0.359 13.235 -0.276 14.349 -0.191 15.496 C-0.278 27.807 -9.195 37.915 -17.254 46.371 C-25.989 54.812 -38.166 63.103 -50.754 63.371 C-56.674 63.236 -60.364 62.01 -64.723 58.047 C-67.624 54.882 -70.136 52.068 -70.816 47.734 C-69.147 35.107 -57.428 22.508 -48.441 14.121 C-47.781 14.121 -47.121 14.121 -46.441 14.121 C-46.441 13.461 -46.441 12.801 -46.441 12.121 C-44.472 10.566 -42.518 9.145 -40.441 7.746 C-39.846 7.341 -39.251 6.936 -38.638 6.519 C-27.434 -0.999 -12.852 -7.722 0 0 Z M-42.441 31.121 C-46.116 36.219 -48.472 40.677 -47.441 47.121 C-46.525 49.204 -46.525 49.204 -44.441 50.121 C-37.617 51.058 -32.984 48.6 -27.555 44.801 C-22.701 40.947 -18.209 36.208 -17.031 29.938 C-16.907 27.004 -17.116 24.7 -18.566 22.121 C-26.634 17.818 -37.134 25.169 -42.441 31.121 Z " fill="#272E38" transform="translate(392.44140625,277.87890625)"/>
<path d="M0 0 C2.24 1.611 3.444 2.544 4.559 5.121 C4.784 8.139 4.733 11.102 4.559 14.121 C0.539 12.781 -2.462 10.782 -5.793 8.242 C-10.409 5.103 -16.113 5.611 -21.441 6.121 C-27.599 7.841 -32.955 10.921 -38.441 14.121 C-39.101 14.121 -39.761 14.121 -40.441 14.121 C-40.441 14.781 -40.441 15.441 -40.441 16.121 C-41.896 17.364 -43.408 18.54 -44.941 19.684 C-53.339 26.281 -58.872 33.24 -63.801 42.715 C-65.441 45.121 -65.441 45.121 -67.645 45.965 C-68.238 46.016 -68.83 46.068 -69.441 46.121 C-68.945 41.137 -67.291 37.607 -64.566 33.496 C-64.175 32.897 -63.784 32.297 -63.381 31.679 C-59.078 25.283 -54.079 19.383 -48.441 14.121 C-47.781 14.121 -47.121 14.121 -46.441 14.121 C-46.441 13.461 -46.441 12.801 -46.441 12.121 C-44.472 10.566 -42.518 9.145 -40.441 7.746 C-39.846 7.341 -39.251 6.936 -38.638 6.519 C-27.434 -0.999 -12.852 -7.722 0 0 Z " fill="#020305" transform="translate(392.44140625,277.87890625)"/>
</svg>
