<?xml version="1.0" encoding="UTF-8"?>
<!-- Generator: visioncortex VTracer 0.6.4 -->
<svg version="1.1" xmlns="http://www.w3.org/2000/svg" width="512" height="512">
<path d="M0 0 C5.177 1.577 9.943 3.735 14.812 6.062 C15.651 6.461 16.489 6.859 17.353 7.27 C23.389 10.165 29.304 13.245 35.194 16.424 C40.84 19.445 46.582 22.225 52.371 24.961 C64.443 30.703 76.438 36.592 88.403 42.554 C90.697 43.695 92.994 44.833 95.292 45.968 C98.684 47.643 102.071 49.328 105.457 51.016 C106.471 51.514 107.484 52.012 108.529 52.525 C114.962 55.751 121.646 59.124 127 64 C127.629 66.142 127.629 66.142 128 68 C130.309 69.181 130.309 69.181 133 70 C139.249 72.878 142.426 75.917 145 82.375 C148.959 94.443 148.959 94.443 147.062 99.5 C138.832 109.477 138.832 109.477 133.938 110.875 C130.926 109.978 130.199 109.387 128.039 107.285 C123.394 103.198 118.069 101.004 112.438 98.562 C110.27 97.597 108.103 96.629 105.938 95.66 C104.904 95.2 103.87 94.74 102.805 94.266 C99.467 92.759 96.201 91.16 92.938 89.5 C75.533 80.674 57.78 72.565 40.066 64.386 C27.641 58.646 15.26 52.828 2.956 46.833 C1.47 46.109 1.47 46.109 -0.047 45.371 C-1.313 44.751 -1.313 44.751 -2.604 44.119 C-7.826 41.662 -7.826 41.662 -13.5 41 C-17.026 41 -18.99 40.806 -22 39 C-24.741 33.46 -24.822 28.046 -24 22 C-21.545 14.906 -18.369 9.105 -12 5 C-8.499 3.833 -5.673 3.866 -2 4 C-1.34 4.33 -0.68 4.66 0 5 C0 3.35 0 1.7 0 0 Z " fill="#8C8E90" transform="translate(292,119)"/>
<path d="M0 0 C5.177 1.577 9.943 3.735 14.812 6.062 C15.651 6.461 16.489 6.859 17.353 7.27 C23.389 10.165 29.304 13.245 35.194 16.425 C40.831 19.441 46.563 22.213 52.344 24.941 C64.568 30.752 76.686 36.767 88.787 42.828 C92.315 44.595 95.845 46.357 99.375 48.119 C101.63 49.247 103.886 50.375 106.141 51.504 C107.19 52.028 108.24 52.552 109.322 53.091 C110.772 53.819 110.772 53.819 112.251 54.561 C113.099 54.985 113.946 55.409 114.82 55.846 C119.804 58.484 119.804 58.484 121.188 62.125 C121.59 63.548 121.59 63.548 122 65 C114.609 61.307 107.218 57.614 99.835 53.905 C85.802 46.855 71.77 39.82 57.571 33.109 C48.891 28.99 40.323 24.658 31.744 20.333 C22.601 15.729 13.392 11.353 3.98 7.32 C1 6 1 6 0 5 C-0.041 3.334 -0.043 1.666 0 0 Z " fill="#F1F4F6" transform="translate(292,119)"/>
<path d="M0 0 C5.662 2.462 5.662 2.462 7.375 5.188 C7.581 5.786 7.788 6.384 8 7 C5.125 6.312 5.125 6.312 2 5 C0.625 2.375 0.625 2.375 0 0 Z " fill="#F8A610" transform="translate(412,179)"/>
</svg>
