<?xml version="1.0" encoding="UTF-8"?>
<!-- Generator: visioncortex VTracer 0.6.4 -->
<svg version="1.1" xmlns="http://www.w3.org/2000/svg" width="512" height="512">
<path d="M0 0 C1.65 0 3.3 0 5 0 C5 3.63 5 7.26 5 11 C6.65 11.66 8.3 12.32 10 13 C10.582 14.953 10.582 14.953 10.812 17.25 C11.364 19.773 11.364 19.773 13 22 C18.117 24.716 23.451 26.393 29 28 C30.248 28.387 31.496 28.773 32.781 29.172 C36.603 30.155 39.185 29.954 43 29 C43.516 28.464 44.031 27.928 44.562 27.375 C45.037 26.921 45.511 26.467 46 26 C50.246 26.464 54.155 27.581 58.207 28.898 C59.418 29.29 60.63 29.681 61.877 30.084 C63.189 30.514 64.501 30.944 65.812 31.375 C66.48 31.594 67.147 31.813 67.835 32.039 C68.515 32.263 69.195 32.486 69.896 32.716 C70.59 32.944 71.283 33.172 71.998 33.407 C73.435 33.879 74.873 34.352 76.31 34.825 C80.828 36.309 85.36 37.737 89.909 39.124 C92.924 40.048 95.933 40.994 98.941 41.944 C100.386 42.395 101.835 42.835 103.287 43.265 C116.118 47.076 116.118 47.076 119.223 52.18 C119.66 53.177 119.66 53.177 120.106 54.195 C121.618 57.248 124.089 58.375 127 60 C124.886 64.005 122.961 66.724 119 69 C109.723 70.706 100.449 66.724 91.754 63.918 C90.059 63.383 88.363 62.848 86.667 62.316 C82.197 60.907 77.732 59.481 73.268 58.052 C68.857 56.643 64.441 55.249 60.025 53.854 C54.806 52.204 49.588 50.551 44.373 48.887 C35.839 46.163 27.299 43.464 18.738 40.827 C17.105 40.322 15.472 39.816 13.839 39.311 C11.521 38.593 9.202 37.878 6.88 37.172 C4.78 36.534 2.682 35.886 0.586 35.236 C-0.595 34.874 -1.776 34.513 -2.993 34.141 C-5.83 33.065 -7.777 32.047 -10 30 C-11.763 22.557 -9.438 12.961 -5.5 6.562 C-3.784 4.253 -2.036 2.036 0 0 Z " fill="#898B8D" transform="translate(121,345)"/>
</svg>
