<?xml version="1.0" encoding="UTF-8"?>
<!-- Generator: visioncortex VTracer 0.6.4 -->
<svg version="1.1" xmlns="http://www.w3.org/2000/svg" width="512" height="512">
<path d="M0 0 C1.782 7.35 0.882 13.394 -1.375 20.438 C-1.822 21.873 -2.267 23.309 -2.711 24.746 C-2.93 25.45 -3.148 26.154 -3.373 26.879 C-3.994 28.979 -4.534 31.084 -5.051 33.211 C-6.922 40.679 -8.955 46.939 -15 52 C-15.841 52.824 -15.841 52.824 -16.699 53.664 C-21.183 57.924 -21.183 57.924 -24.688 58.25 C-27.977 56.472 -29.565 54.365 -31 51 C-32.025 47.357 -32.539 43.751 -33 40 C-33.201 39.098 -33.402 38.195 -33.609 37.266 C-34.074 34.049 -34.036 32.098 -33 29 C-30.001 25.723 -26.746 23.12 -23.238 20.414 C-17.492 15.945 -12.562 10.658 -7.512 5.435 C-6.822 4.729 -6.133 4.024 -5.422 3.297 C-4.809 2.661 -4.197 2.025 -3.565 1.37 C-2 0 -2 0 0 0 Z " fill="#070709" transform="translate(269,345)"/>
<path d="M0 0 C0.66 0 1.32 0 2 0 C2 8.58 2 17.16 2 26 C-3.019 20.981 -2.227 10.923 -2.266 4.215 C-2 2 -2 2 0 0 Z " fill="#171B21" transform="translate(238,372)"/>
<path d="M0 0 C1.069 3.207 0.949 4.35 0.25 7.562 C0.09 8.348 -0.07 9.133 -0.234 9.941 C-1 12 -1 12 -4 14 C-3.368 8.947 -1.865 4.704 0 0 Z " fill="#0D0E11" transform="translate(265,366)"/>
</svg>
