<?xml version="1.0" encoding="UTF-8"?>
<!-- Generator: visioncortex VTracer 0.6.4 -->
<svg version="1.1" xmlns="http://www.w3.org/2000/svg" width="512" height="512">
<path d="M0 0 C3.492 1.305 3.492 1.305 6.875 2.875 C8.007 3.388 9.139 3.901 10.305 4.43 C13 6 13 6 14 9 C15.213 24.33 11.597 38.159 5 52 C4.432 53.199 4.432 53.199 3.852 54.422 C0.259 61.415 -4.546 67.501 -10.938 72.125 C-18.994 74.427 -27.52 71.092 -35 68 C-35.66 67.34 -36.32 66.68 -37 66 C-36.564 65.648 -36.129 65.296 -35.68 64.934 C-24.385 55.57 -20.559 46.685 -17.727 32.336 C-17.1 29.459 -16.32 26.822 -15.312 24.062 C-13.6 19.222 -13.324 14.984 -15 10.062 C-15 5.485 -12.528 3.636 -9.469 0.441 C-5.924 -1.628 -3.927 -0.971 0 0 Z " fill="#22282F" transform="translate(283,337)"/>
<path d="M0 0 C0.688 1.688 0.688 1.688 1 4 C-0.738 7.659 -3.051 10.254 -6 13 C-5.449 9.051 -4.611 5.651 -3 2 C-2.01 2 -1.02 2 0 2 C0 1.34 0 0.68 0 0 Z " fill="#15171C" transform="translate(272,356)"/>
<path d="M0 0 C0 3.633 -1.079 4.971 -3 8 C-3.681 9.326 -4.353 10.657 -5 12 C-5.875 9.375 -5.875 9.375 -6 6 C-4.284 3.656 -2.243 1.834 0 0 Z " fill="#101215" transform="translate(274,338)"/>
</svg>
