<?xml version="1.0" encoding="UTF-8"?>
<!-- Generator: visioncortex VTracer 0.6.4 -->
<svg version="1.1" xmlns="http://www.w3.org/2000/svg" width="512" height="512">
<path d="M0 0 C6.532 2.395 12.664 5.666 18.359 9.648 C22.948 12.829 27.822 15.222 32.823 17.671 C37.471 19.948 42.056 22.313 46.609 24.773 C52.397 27.894 58.247 30.863 64.14 33.778 C68.576 35.981 72.945 38.283 77.297 40.648 C83.28 43.894 89.384 46.824 95.547 49.711 C102.155 52.826 108.701 56.013 115.109 59.523 C116.069 60.034 116.069 60.034 117.049 60.554 C125.697 65.406 129.373 73.424 133.984 81.836 C134.601 82.951 135.217 84.066 135.852 85.215 C137.064 87.412 138.274 89.61 139.48 91.81 C140.845 94.292 142.223 96.766 143.613 99.234 C144.251 100.382 144.889 101.529 145.547 102.711 C146.349 104.148 146.349 104.148 147.168 105.613 C147.479 106.326 147.789 107.039 148.109 107.773 C147.779 108.433 147.449 109.093 147.109 109.773 C146.574 109.364 146.038 108.954 145.486 108.532 C137.793 102.88 129.578 98.742 121.051 94.531 C119.496 93.756 117.942 92.981 116.387 92.205 C113.14 90.584 109.889 88.97 106.637 87.359 C102.526 85.323 98.418 83.278 94.313 81.231 C72.133 70.166 72.133 70.166 49.761 59.496 C45.839 57.663 41.974 55.724 38.109 53.773 C35.444 52.437 32.777 51.104 30.109 49.773 C29.293 49.365 28.476 48.956 27.635 48.535 C25.049 47.247 22.455 45.977 19.859 44.711 C19.049 44.304 18.238 43.898 17.402 43.479 C16.26 42.926 16.26 42.926 15.094 42.363 C14.421 42.032 13.747 41.701 13.054 41.359 C10.654 40.636 9.429 40.872 7.109 41.773 C5.021 43.861 5.021 43.861 3.109 46.461 C2.119 47.735 2.119 47.735 1.109 49.035 C0.449 49.939 -0.211 50.842 -0.891 51.773 C-1.623 52.702 -2.355 53.63 -3.109 54.586 C-5.359 58.612 -5.507 61.556 -5.391 66.086 C-5.371 67.209 -5.371 67.209 -5.352 68.355 C-5.149 73.889 -4.777 79.488 -0.891 83.773 C2.477 84.945 2.477 84.945 6.109 84.773 C11.767 85.301 16.393 87.477 21.484 89.836 C22.374 90.242 23.264 90.649 24.181 91.067 C30.064 93.772 35.863 96.616 41.633 99.552 C51.142 104.356 60.873 108.7 70.555 113.14 C77.835 116.486 85.1 119.865 92.364 123.246 C97.269 125.529 102.174 127.81 107.102 130.043 C107.807 130.365 108.513 130.687 109.24 131.018 C110.997 131.819 112.758 132.613 114.52 133.406 C116.88 134.652 118.389 135.761 120.109 137.773 C116.327 137.117 112.891 136.053 109.297 134.711 C108.321 134.349 107.345 133.986 106.34 133.613 C105.604 133.336 104.868 133.059 104.109 132.773 C104.109 132.113 104.109 131.453 104.109 130.773 C103.202 130.567 102.294 130.361 101.359 130.148 C96.599 128.808 92.349 126.482 87.977 124.211 C85.387 122.913 82.809 121.815 80.109 120.773 C75.084 118.687 70.33 116.359 65.609 113.648 C61.413 111.297 57.743 109.949 52.984 109.293 C50.637 108.643 49.709 107.573 48.109 105.773 C43.388 102.085 37.875 101.632 32.109 100.773 C32.439 100.113 32.769 99.453 33.109 98.773 C32.346 98.485 31.583 98.196 30.797 97.898 C28.109 96.773 28.109 96.773 25.109 94.773 C22.599 94.439 20.193 94.213 17.672 94.086 C16.961 94.044 16.251 94.002 15.518 93.959 C10.155 93.694 4.987 93.984 -0.34 94.715 C-3.381 94.785 -5.211 94.193 -7.891 92.773 C-8.551 91.783 -9.211 90.793 -9.891 89.773 C-19.837 90.24 -26.167 91.414 -33.223 98.734 C-35.512 101.533 -37.146 104.527 -38.75 107.758 C-39.891 109.773 -39.891 109.773 -41.316 111.133 C-53.012 123.322 -57.024 146.489 -58.297 162.641 C-58.685 166.355 -59.395 168.169 -62.203 170.773 C-66.24 174.904 -69.495 179.286 -72.766 184.023 C-77.2 190.413 -81.783 196.626 -86.566 202.758 C-89.54 206.615 -92.378 210.562 -95.199 214.531 C-96.666 216.475 -98.039 218.195 -99.891 219.773 C-100.551 219.773 -101.211 219.773 -101.891 219.773 C-101.867 219.121 -101.844 218.469 -101.82 217.797 C-101.715 212.686 -101.871 208.569 -103.891 203.773 C-107.487 203.245 -108.735 203.664 -111.754 205.793 C-115.363 208.94 -117.611 212.639 -119.953 216.773 C-120.604 217.904 -120.604 217.904 -121.269 219.058 C-124.847 225.413 -127.508 231.884 -129.891 238.773 C-130.656 240.808 -131.435 242.836 -132.215 244.864 C-133.472 248.156 -134.68 251.464 -135.891 254.773 C-136.374 256.046 -136.374 256.046 -136.867 257.344 C-139.785 265.802 -140.118 274.917 -140.891 283.773 C-142.541 283.443 -144.191 283.113 -145.891 282.773 C-146.874 279.825 -146.952 278.468 -146.641 275.461 C-146.54 274.353 -146.54 274.353 -146.438 273.223 C-145.891 270.773 -145.891 270.773 -144.418 267.941 C-142.693 264.363 -142.185 261.331 -141.703 257.398 C-141.465 255.531 -141.465 255.531 -141.223 253.625 C-141.113 252.684 -141.004 251.743 -140.891 250.773 C-142.871 253.083 -144.851 255.393 -146.891 257.773 C-148.956 251.578 -146.108 244.352 -143.41 238.637 C-139.923 232.532 -135.905 226.888 -131.59 221.344 C-128.944 217.342 -127.767 213.344 -127.453 208.586 C-126.891 204.773 -126.891 204.773 -125.328 202.773 C-124.854 202.443 -124.379 202.113 -123.891 201.773 C-125.211 201.773 -126.531 201.773 -127.891 201.773 C-127.891 201.113 -127.891 200.453 -127.891 199.773 C-126.313 199.557 -126.313 199.557 -124.703 199.336 C-123.445 199.15 -122.187 198.965 -120.891 198.773 C-120.07 198.706 -119.249 198.638 -118.404 198.569 C-113.815 197.117 -112.022 192.912 -109.786 188.91 C-105.997 181.267 -104.818 172.65 -103.266 164.336 C-100.11 147.823 -96.14 134.411 -86.977 120.086 C-84.054 115.445 -81.411 110.662 -78.75 105.867 C-76.988 102.936 -75.052 100.416 -72.891 97.773 C-71.824 96.165 -70.783 94.539 -69.766 92.898 C-66.934 88.395 -64.035 83.945 -61.078 79.523 C-60.657 78.893 -60.235 78.262 -59.801 77.613 C-58.062 75.013 -56.32 72.415 -54.579 69.816 C-53.286 67.886 -51.994 65.955 -50.703 64.023 C-50.286 63.4 -49.869 62.776 -49.439 62.134 C-46.951 58.401 -44.525 54.636 -42.141 50.836 C-39.726 47 -37.17 43.367 -34.348 39.82 C-32.713 37.523 -31.357 35.107 -29.977 32.651 C-28.165 29.52 -26.158 26.525 -24.141 23.523 C-23.705 22.875 -23.27 22.227 -22.821 21.559 C-7.141 -1.675 -7.141 -1.675 0 0 Z M19.109 13.773 C19.361 21.884 19.361 21.884 23.109 28.773 C29.446 33.551 36.369 37.069 43.484 40.523 C45.634 41.582 47.782 42.642 49.93 43.703 C51.51 44.484 51.51 44.484 53.122 45.28 C57.237 47.337 61.301 49.482 65.359 51.648 C74.478 56.504 83.719 61.109 92.978 65.689 C102.367 70.349 102.367 70.349 106.747 72.756 C107.634 73.243 107.634 73.243 108.539 73.74 C110.18 74.648 111.816 75.564 113.452 76.482 C116.067 77.992 116.067 77.992 119.109 77.773 C117.596 73.623 115.585 69.986 113.297 66.211 C112.297 64.538 112.297 64.538 111.277 62.832 C107.457 57.443 102.5 54.706 96.734 51.711 C96.004 51.327 95.274 50.944 94.521 50.549 C87.355 46.826 80.06 43.383 72.762 39.929 C64.275 35.895 55.968 31.572 47.68 27.146 C42.663 24.467 37.639 21.802 32.609 19.148 C31.611 18.615 30.613 18.081 29.584 17.531 C28.189 16.797 28.189 16.797 26.766 16.047 C25.939 15.608 25.112 15.169 24.26 14.716 C22.043 13.573 22.043 13.573 19.109 13.773 Z M-14.891 22.773 C-21.432 29.588 -26.439 37.912 -31.591 45.792 C-33.329 48.443 -35.088 51.08 -36.85 53.716 C-37.704 54.994 -38.554 56.274 -39.402 57.556 C-41.16 60.212 -42.932 62.829 -44.816 65.398 C-48.595 70.593 -49.863 74.369 -49.891 80.773 C-49.905 82.061 -49.919 83.349 -49.934 84.676 C-49.959 88.376 -49.934 92.074 -49.891 95.773 C-46.633 92.655 -43.946 89.63 -41.516 85.836 C-38.228 80.793 -34.879 75.799 -31.478 70.832 C-30.166 68.912 -28.858 66.989 -27.555 65.063 C-24.675 60.809 -21.783 56.586 -18.699 52.477 C-13.669 45.661 -10.749 40.491 -11.441 31.676 C-11.901 28.704 -12.376 25.736 -12.891 22.773 C-13.551 22.773 -14.211 22.773 -14.891 22.773 Z M-13.225 48.103 C-13.664 48.712 -14.103 49.321 -14.555 49.949 C-15.278 50.944 -15.278 50.944 -16.016 51.959 C-16.758 53.012 -16.758 53.012 -17.516 54.086 C-18.018 54.776 -18.521 55.467 -19.039 56.178 C-22.925 61.584 -24.019 64.95 -23.891 71.773 C-20.805 71.47 -19.937 70.827 -17.855 68.445 C-17.186 67.481 -16.517 66.517 -15.828 65.523 C-15.157 64.57 -14.485 63.616 -13.793 62.633 C-13.165 61.689 -12.537 60.746 -11.891 59.773 C-11.318 58.919 -10.746 58.064 -10.156 57.184 C-8.825 54.649 -8.56 53.282 -8.703 50.461 C-8.765 49.244 -8.827 48.027 -8.891 46.773 C-11.85 46.421 -11.85 46.421 -13.225 48.103 Z M-65.891 97.773 C-67.84 100.236 -67.84 100.236 -69.766 103.523 C-70.556 104.807 -71.347 106.09 -72.141 107.371 C-72.574 108.074 -73.007 108.776 -73.453 109.5 C-75.008 111.959 -76.628 114.365 -78.266 116.77 C-78.845 117.629 -79.424 118.488 -80.02 119.374 C-81.156 121.058 -82.302 122.735 -83.46 124.403 C-88.992 132.694 -91.125 141.078 -91.578 150.961 C-91.644 152.254 -91.71 153.547 -91.777 154.879 C-91.815 155.834 -91.852 156.789 -91.891 157.773 C-89.178 155.167 -86.877 152.544 -84.719 149.465 C-84.14 148.641 -83.562 147.818 -82.966 146.97 C-82.364 146.101 -81.761 145.231 -81.141 144.336 C-80.52 143.442 -79.9 142.549 -79.261 141.628 C-68.772 126.429 -63.802 116.19 -62.891 97.773 C-63.881 97.773 -64.871 97.773 -65.891 97.773 Z M-68.891 128.773 C-74.591 134.856 -82.25 143.72 -82.266 152.398 C-82.142 153.512 -82.018 154.626 -81.891 155.773 C-75.658 150.125 -69.518 142.842 -66.891 134.773 C-66.723 131.565 -66.723 131.565 -66.891 128.773 C-67.551 128.773 -68.211 128.773 -68.891 128.773 Z " fill="#025BB8" transform="translate(271.890625,74.2265625)"/>
<path d="M0 0 C2.875 2.438 2.875 2.438 5 5 C5.495 5.495 5.495 5.495 6 6 C6.041 8 6.043 10 6 12 C6.598 11.175 7.196 10.35 7.812 9.5 C10.432 6.906 12.388 6.61 16.031 6.562 C22.352 6.716 27.094 8.713 32.688 11.5 C34.129 12.187 34.129 12.187 35.601 12.887 C38.413 14.234 41.209 15.61 44 17 C44.708 17.352 45.416 17.703 46.145 18.065 C48.643 19.311 51.138 20.564 53.627 21.829 C63.099 26.62 72.799 30.942 82.446 35.366 C89.726 38.713 96.991 42.092 104.255 45.473 C109.16 47.756 114.064 50.036 118.992 52.27 C119.698 52.591 120.403 52.913 121.13 53.245 C122.888 54.046 124.649 54.84 126.41 55.633 C128.771 56.879 130.279 57.987 132 60 C128.218 59.343 124.782 58.28 121.188 56.938 C120.212 56.575 119.236 56.213 118.23 55.84 C117.494 55.563 116.758 55.286 116 55 C116 54.34 116 53.68 116 53 C115.092 52.794 114.185 52.588 113.25 52.375 C108.49 51.034 104.239 48.709 99.867 46.438 C97.278 45.139 94.7 44.041 92 43 C86.974 40.914 82.221 38.586 77.5 35.875 C73.303 33.523 69.634 32.176 64.875 31.52 C62.528 30.869 61.6 29.799 60 28 C55.279 24.312 49.766 23.858 44 23 C44.33 22.34 44.66 21.68 45 21 C44.237 20.711 43.474 20.423 42.688 20.125 C40 19 40 19 37 17 C34.489 16.665 32.084 16.44 29.562 16.312 C28.852 16.271 28.141 16.229 27.409 16.185 C22.046 15.921 16.878 16.211 11.551 16.941 C8.509 17.011 6.68 16.42 4 15 C3.34 14.01 2.68 13.02 2 12 C-7.946 12.467 -14.276 13.641 -21.332 20.961 C-23.621 23.76 -25.255 26.754 -26.859 29.984 C-28 32 -28 32 -29.426 33.359 C-41.616 46.063 -45.498 70.311 -46.595 87.128 C-47 89 -47 89 -49.562 91.562 C-50.367 92.037 -51.171 92.511 -52 93 C-51.879 92.357 -51.758 91.714 -51.633 91.051 C-50.505 84.994 -50.505 84.994 -49.598 78.902 C-48.464 70.186 -46.13 62.179 -43 54 C-42.697 53.205 -42.394 52.411 -42.082 51.592 C-20.73 -3.392 -20.73 -3.392 0 0 Z " fill="#010408" transform="translate(260,152)"/>
<path d="M0 0 C11.373 5.045 22.661 10.233 33.87 15.632 C41.507 19.304 49.183 22.883 56.875 26.438 C72.003 33.433 87.121 40.485 102 48 C98.399 49.2 97.85 48.733 94.562 47.125 C91.715 45.747 89.098 44.663 86 44 C86 43.34 86 42.68 86 42 C85.092 41.794 84.185 41.588 83.25 41.375 C78.49 40.034 74.239 37.709 69.867 35.438 C67.278 34.139 64.7 33.041 62 32 C56.974 29.914 52.221 27.586 47.5 24.875 C43.303 22.523 39.634 21.176 34.875 20.52 C32.528 19.869 31.6 18.799 30 17 C25.279 13.312 19.766 12.858 14 12 C14.33 11.34 14.66 10.68 15 10 C14.285 9.732 13.569 9.464 12.832 9.188 C9.959 7.983 7.367 6.588 4.688 5 C3.804 4.484 2.921 3.969 2.012 3.438 C1.348 2.963 0.684 2.489 0 2 C0 1.34 0 0.68 0 0 Z " fill="#0C0D0D" transform="translate(290,163)"/>
<path d="M0 0 C8.456 4.125 16.801 8.382 25 13 C31.312 16.553 37.683 19.911 44.183 23.106 C48.573 25.269 52.889 27.537 57.188 29.875 C66.597 34.976 76.31 39.464 86 44 C86 44.99 86 45.98 86 47 C76.714 42.414 67.49 37.73 58.352 32.854 C53.435 30.242 48.473 27.727 43.488 25.246 C37.744 22.387 32.024 19.484 26.324 16.535 C25.612 16.167 24.899 15.798 24.165 15.419 C21.258 13.914 18.352 12.407 15.447 10.899 C13.282 9.776 11.116 8.655 8.949 7.535 C8.293 7.194 7.637 6.852 6.961 6.5 C4.328 5.14 1.817 3.939 -1 3 C-1.33 3.66 -1.66 4.32 -2 5 C-1.125 1.125 -1.125 1.125 0 0 Z " fill="#0150A1" transform="translate(292,85)"/>
<path d="M0 0 C5.749 0.952 10.536 3.429 15.75 5.938 C17.206 6.621 17.206 6.621 18.691 7.318 C19.613 7.759 20.535 8.199 21.484 8.652 C22.327 9.054 23.17 9.457 24.038 9.871 C26 11 26 11 27 13 C24.525 12.505 24.525 12.505 22 12 C21.876 12.619 21.752 13.238 21.625 13.875 C21 16 21 16 19 18 C17.988 19.324 16.986 20.656 16 22 C14.68 21.67 13.36 21.34 12 21 C13.32 20.67 14.64 20.34 16 20 C16 16.37 16 12.74 16 9 C15.264 8.674 14.528 8.348 13.77 8.012 C12.794 7.575 11.818 7.138 10.812 6.688 C9.85 6.258 8.887 5.829 7.895 5.387 C5.142 4.068 2.556 2.668 0 1 C0 0.67 0 0.34 0 0 Z " fill="#040405" transform="translate(392,212)"/>
<path d="M0 0 C-1.326 3.623 -2.943 6.635 -5.125 9.812 C-5.664 10.603 -6.203 11.393 -6.758 12.207 C-7.168 12.799 -7.578 13.39 -8 14 C-8.66 13.67 -9.32 13.34 -10 13 C-9.385 5.492 -9.385 5.492 -7.438 3 C-6.963 2.67 -6.489 2.34 -6 2 C-7.32 2 -8.64 2 -10 2 C-10 1.34 -10 0.68 -10 0 C-6.306 -1.231 -3.794 -0.644 0 0 Z " fill="#767982" transform="translate(154,274)"/>
<path d="M0 0 C0.33 0 0.66 0 1 0 C0.913 2.418 0.806 4.833 0.688 7.25 C0.665 7.932 0.642 8.614 0.619 9.316 C0.401 13.407 0.019 16.107 -3 19 C-3.66 19 -4.32 19 -5 19 C-4.73 11.646 -3.731 6.378 0 0 Z " fill="#1763B2" transform="translate(130,337)"/>
<path d="M0 0 C1.023 2.659 1.069 3.807 0.094 6.531 C-1.302 10.959 -1.702 15.267 -2.125 19.875 C-2.211 20.754 -2.298 21.633 -2.387 22.539 C-2.597 24.692 -2.8 26.846 -3 29 C-4.65 28.67 -6.3 28.34 -8 28 C-7.519 27.357 -7.038 26.714 -6.543 26.051 C-4.516 22.043 -4.442 18.617 -4.312 14.188 C-4.278 13.399 -4.244 12.611 -4.209 11.799 C-4.127 9.866 -4.062 7.933 -4 6 C-3.01 5.67 -2.02 5.34 -1 5 C-0.67 3.35 -0.34 1.7 0 0 Z " fill="#031328" transform="translate(134,329)"/>
<path d="M0 0 C1.469 4.407 0.072 8.331 -0.885 12.756 C-1.878 17.601 -2.139 22.052 -2 27 C-2.66 27.33 -3.32 27.66 -4 28 C-4.088 24.813 -4.141 21.626 -4.188 18.438 C-4.213 17.542 -4.238 16.647 -4.264 15.725 C-4.327 10.003 -3.701 6.069 -1 1 C-0.67 0.67 -0.34 0.34 0 0 Z " fill="#024095" transform="translate(183,206)"/>
<path d="M0 0 C6.6 2.97 13.2 5.94 20 9 C16.114 10.295 13.661 9.506 10 8 C6.542 6.19 3.14 4.325 0 2 C0 1.34 0 0.68 0 0 Z " fill="#141515" transform="translate(290,163)"/>
<path d="M0 0 C4.714 0.65 8.577 2.516 12.812 4.562 C13.505 4.892 14.198 5.221 14.912 5.561 C16.61 6.369 18.306 7.184 20 8 C17.307 9.039 16.159 9.054 13.379 8.109 C12.449 7.661 11.52 7.212 10.562 6.75 C9.172 6.093 9.172 6.093 7.754 5.422 C5.091 4.047 2.517 2.626 0 1 C0 0.67 0 0.34 0 0 Z " fill="#101011" transform="translate(392,212)"/>
<path d="M0 0 C-1.37 3.161 -1.989 3.993 -5 6 C-7.188 5.625 -7.188 5.625 -9 5 C-4.5 0 -4.5 0 0 0 Z " fill="#06213C" transform="translate(275,159)"/>
<path d="M0 0 C2.31 0.33 4.62 0.66 7 1 C7.33 1.99 7.66 2.98 8 4 C5.03 3.67 2.06 3.34 -1 3 C-0.67 2.01 -0.34 1.02 0 0 Z " fill="#050505" transform="translate(305,172)"/>
<path d="M0 0 C1.467 3.815 0.433 6.29 -1 10 C-1.66 10 -2.32 10 -3 10 C-3.33 8.68 -3.66 7.36 -4 6 C-3.01 5.67 -2.02 5.34 -1 5 C-0.67 3.35 -0.34 1.7 0 0 Z " fill="#01326A" transform="translate(134,329)"/>
<path d="M0 0 C1.32 0.33 2.64 0.66 4 1 C3.01 1.495 3.01 1.495 2 2 C1.34 1.34 0.68 0.68 0 0 Z " fill="#030304" transform="translate(168,370)"/>
<path d="M0 0 C0.99 1.485 0.99 1.485 2 3 C1.34 3 0.68 3 0 3 C0 2.01 0 1.02 0 0 Z " fill="#F5A007" transform="translate(420,184)"/>
<path d="M0 0 C3 1 3 1 3 1 Z " fill="#0C0C0D" transform="translate(213,385)"/>
<path d="M0 0 C3 1 3 1 3 1 Z " fill="#121213" transform="translate(200,381)"/>
<path d="M0 0 C3 1 3 1 3 1 Z " fill="#070708" transform="translate(188,377)"/>
<path d="M0 0 C3 1 3 1 3 1 Z " fill="#141415" transform="translate(175,373)"/>
<path d="M0 0 C2 1 2 1 2 1 Z " fill="#131215" transform="translate(235,392)"/>
<path d="M0 0 C2 1 2 1 2 1 Z " fill="#151518" transform="translate(229,390)"/>
<path d="M0 0 C2 1 2 1 2 1 Z " fill="#0A0A0D" transform="translate(226,389)"/>
<path d="M0 0 C2 1 2 1 2 1 Z " fill="#161618" transform="translate(210,384)"/>
<path d="M0 0 C2 1 2 1 2 1 Z " fill="#050405" transform="translate(204,382)"/>
<path d="M0 0 C2 1 2 1 2 1 Z " fill="#171718" transform="translate(197,380)"/>
<path d="M0 0 C2 1 2 1 2 1 Z " fill="#050505" transform="translate(179,374)"/>
<path d="M0 0 C2 1 2 1 2 1 Z " fill="#060607" transform="translate(173,372)"/>
<path d="" fill="#4C5056" transform="translate(0,0)"/>
<path d="" fill="#51565B" transform="translate(0,0)"/>
<path d="" fill="#4B4D53" transform="translate(0,0)"/>
<path d="" fill="#1E1C20" transform="translate(0,0)"/>
<path d="" fill="#0B0B0C" transform="translate(0,0)"/>
<path d="" fill="#28282C" transform="translate(0,0)"/>
<path d="" fill="#0E0E0F" transform="translate(0,0)"/>
<path d="" fill="#212023" transform="translate(0,0)"/>
<path d="" fill="#202022" transform="translate(0,0)"/>
<path d="" fill="#0D0C0E" transform="translate(0,0)"/>
<path d="" fill="#0D0D0E" transform="translate(0,0)"/>
<path d="" fill="#3D4145" transform="translate(0,0)"/>
<path d="" fill="#2A2E33" transform="translate(0,0)"/>
<path d="" fill="#43464A" transform="translate(0,0)"/>
<path d="" fill="#2F3338" transform="translate(0,0)"/>
<path d="" fill="#31353B" transform="translate(0,0)"/>
<path d="" fill="#2E3339" transform="translate(0,0)"/>
<path d="" fill="#2A3037" transform="translate(0,0)"/>
<path d="" fill="#2D333A" transform="translate(0,0)"/>
<path d="" fill="#343940" transform="translate(0,0)"/>
</svg>
