<?xml version="1.0" encoding="UTF-8"?>
<!-- Generator: visioncortex VTracer 0.6.4 -->
<svg version="1.1" xmlns="http://www.w3.org/2000/svg" width="512" height="512">
<path d="M0 0 C4.992 0.612 8.959 2.827 13.352 5.121 C14.572 5.749 14.572 5.749 15.817 6.39 C18.423 7.733 21.024 9.085 23.625 10.438 C25.32 11.312 27.015 12.187 28.711 13.061 C38.008 17.858 47.278 22.706 56.523 27.603 C61.522 30.245 66.56 32.799 71.625 35.312 C72.927 35.964 74.229 36.617 75.531 37.27 C77.606 38.305 79.688 39.327 81.781 40.324 C87.501 43.194 90.619 46.607 94 52 C94.841 53.321 94.841 53.321 95.699 54.668 C100 61.615 100 61.615 100 64 C95.37 63.386 91.605 61.46 87.523 59.316 C86.805 58.945 86.086 58.574 85.346 58.191 C83.019 56.988 80.697 55.775 78.375 54.562 C76.775 53.733 75.175 52.903 73.575 52.075 C64.732 47.49 55.907 42.869 47.105 38.205 C42.436 35.736 37.732 33.347 33 31 C26.893 27.963 20.808 24.885 14.75 21.75 C13.939 21.338 13.128 20.925 12.293 20.5 C3.154 15.737 3.154 15.737 1.172 11.035 C0.372 7.293 -0.241 3.856 0 0 Z " fill="#22232F" transform="translate(291,88)"/>
<path d="M0 0 C4.992 0.612 8.959 2.827 13.352 5.121 C14.572 5.749 14.572 5.749 15.817 6.39 C18.423 7.733 21.024 9.085 23.625 10.438 C25.32 11.312 27.015 12.187 28.711 13.061 C38.008 17.858 47.278 22.706 56.523 27.603 C61.522 30.245 66.559 32.801 71.625 35.312 C88.549 43.748 88.549 43.748 92 49 C91.505 49.99 91.505 49.99 91 51 C90.337 50.404 90.337 50.404 89.66 49.796 C81.942 43.319 73.076 39.167 64.125 34.688 C62.445 33.838 60.765 32.987 59.086 32.135 C56.611 30.88 54.136 29.625 51.659 28.374 C45.885 25.458 40.147 22.48 34.438 19.438 C28.056 16.056 21.637 12.751 15.188 9.5 C14.356 9.078 13.524 8.656 12.668 8.22 C8.513 6.14 4.472 4.325 0 3 C0 2.01 0 1.02 0 0 Z " fill="#090D1E" transform="translate(291,88)"/>
</svg>
