<?xml version="1.0" encoding="UTF-8"?>
<!-- Generator: visioncortex VTracer 0.6.4 -->
<svg version="1.1" xmlns="http://www.w3.org/2000/svg" width="512" height="512">
<path d="M0 0 C0.99 0 1.98 0 3 0 C2.445 14.356 0.294 24.103 -8 36 C-8.467 36.671 -8.934 37.342 -9.416 38.033 C-12.446 42.375 -15.498 46.7 -18.579 51.006 C-19.541 52.356 -20.496 53.712 -21.444 55.072 C-22.606 56.732 -23.8 58.368 -25 60 C-25.33 60 -25.66 60 -26 60 C-25.55 43.747 -21.811 32.18 -12.386 18.964 C-10.001 15.585 -7.725 12.133 -5.438 8.688 C-5.008 8.047 -4.579 7.406 -4.136 6.747 C-1.924 3.459 -1.924 3.459 0 0 Z " fill="#242334" transform="translate(206,172)"/>
<path d="M0 0 C0.99 0 1.98 0 3 0 C3 4 3 4 0.79 6.323 C-0.131 7.206 -1.051 8.09 -2 9 C-3.616 11.257 -5.15 13.499 -6.645 15.832 C-7.059 16.469 -7.474 17.105 -7.901 17.761 C-9.211 19.775 -10.512 21.793 -11.812 23.812 C-12.705 25.187 -13.597 26.562 -14.49 27.936 C-16.667 31.286 -18.835 34.642 -21 38 C-21.802 35.712 -22.21 34.506 -21.262 32.223 C-20.86 31.628 -20.458 31.032 -20.043 30.418 C-19.594 29.74 -19.145 29.062 -18.683 28.364 C-18.19 27.645 -17.696 26.927 -17.188 26.188 C-16.691 25.444 -16.195 24.701 -15.684 23.935 C-14.65 22.388 -13.61 20.845 -12.565 19.306 C-10.591 16.398 -8.643 13.473 -6.697 10.546 C-5.829 9.245 -4.96 7.945 -4.087 6.647 C-1.899 3.41 -1.899 3.41 0 0 Z " fill="#090B17" transform="translate(206,172)"/>
</svg>
