<?xml version="1.0" encoding="UTF-8"?>
<!-- Generator: visioncortex VTracer 0.6.4 -->
<svg version="1.1" xmlns="http://www.w3.org/2000/svg" width="512" height="512">
<path d="M0 0 C1.145 0.34 1.145 0.34 2.312 0.688 C2.538 6.582 1.907 11.433 0.188 17.062 C-0.033 17.801 -0.254 18.539 -0.482 19.299 C-2.637 26.143 -5.556 32.556 -10.688 37.688 C-12.812 37.312 -12.812 37.312 -14.688 36.688 C-15.286 23.789 -12.554 11.124 -4.168 0.82 C-2.688 -0.312 -2.688 -0.312 0 0 Z " fill="#84888C" transform="translate(154.6875,307.3125)"/>
<path d="M0 0 C-1.491 3.795 -3.757 5.61 -7 8 C-4.189 0 -4.189 0 0 0 Z " fill="#686C72" transform="translate(154,307)"/>
</svg>
