<?xml version="1.0" encoding="UTF-8"?>
<!-- Generator: visioncortex VTracer 0.6.4 -->
<svg version="1.1" xmlns="http://www.w3.org/2000/svg" width="512" height="512">
<path d="M0 0 C0.66 0 1.32 0 2 0 C3.699 9.774 4.885 17.395 -1.062 25.938 C-2.473 27.896 -3.907 29.835 -5.356 31.766 C-8.517 36.063 -11.452 40.517 -14.438 44.938 C-15.72 46.816 -17.004 48.694 -18.289 50.57 C-20.648 54.017 -22.997 57.47 -25.336 60.93 C-26.328 62.391 -27.32 63.852 -28.312 65.312 C-28.762 65.982 -29.212 66.652 -29.676 67.342 C-32.774 71.887 -32.774 71.887 -35 73 C-35.044 69.292 -35.065 65.587 -35.027 61.879 C-35.012 59.762 -35.019 57.642 -35.129 55.527 C-35.114 47.913 -29.624 41.893 -25.386 35.963 C-23.645 33.497 -21.986 30.983 -20.33 28.46 C-16.169 22.122 -11.864 15.888 -7.5 9.688 C-6.983 8.952 -6.466 8.216 -5.934 7.458 C-5.451 6.774 -4.967 6.091 -4.469 5.387 C-4.04 4.78 -3.612 4.174 -3.17 3.55 C-2 2 -2 2 0 0 Z " fill="#252535" transform="translate(257,97)"/>
<path d="M0 0 C0.66 0 1.32 0 2 0 C1.375 3.85 -0.433 6.299 -2.688 9.438 C-3.507 10.594 -4.325 11.751 -5.141 12.91 C-5.82 13.875 -5.82 13.875 -6.514 14.86 C-9.382 18.991 -12.154 23.187 -14.938 27.375 C-15.834 28.719 -15.834 28.719 -16.748 30.09 C-19.536 34.275 -22.31 38.467 -25.051 42.684 C-25.51 43.386 -25.97 44.089 -26.444 44.813 C-27.295 46.116 -28.141 47.423 -28.98 48.734 C-29.935 50.191 -30.961 51.602 -32 53 C-32.66 53 -33.32 53 -34 53 C-33.514 47.971 -32.03 45.115 -29.062 41.062 C-28.236 39.914 -27.41 38.764 -26.586 37.613 C-26.158 37.02 -25.729 36.426 -25.288 35.815 C-23.179 32.843 -21.189 29.794 -19.188 26.75 C-15.38 21 -11.471 15.326 -7.5 9.688 C-6.983 8.952 -6.467 8.216 -5.934 7.458 C-5.451 6.774 -4.967 6.091 -4.469 5.387 C-4.04 4.78 -3.612 4.174 -3.17 3.55 C-2 2 -2 2 0 0 Z " fill="#080A18" transform="translate(257,97)"/>
</svg>
