<?xml version="1.0" encoding="UTF-8"?>
<!-- Generator: visioncortex VTracer 0.6.4 -->
<svg version="1.1" xmlns="http://www.w3.org/2000/svg" width="512" height="512">
<path d="M0 0 C1.461 0.451 2.918 0.911 4.375 1.375 C5.187 1.63 5.999 1.885 6.836 2.148 C9 3 9 3 11 5 C11.624 7.549 12.159 10.047 12.625 12.625 C12.759 13.331 12.893 14.038 13.031 14.766 C13.361 16.509 13.681 18.254 14 20 C9.808 19.203 6.535 18.514 3 16 C1.815 13.067 1.398 10.126 1 7 C0.89 6.292 0.781 5.585 0.668 4.855 C0.421 3.24 0.207 1.621 0 0 Z " fill="#E99C07" transform="translate(84,254)"/>
</svg>
