<?xml version="1.0" encoding="UTF-8"?>
<!-- Generator: visioncortex VTracer 0.6.4 -->
<svg version="1.1" xmlns="http://www.w3.org/2000/svg" width="512" height="512">
<path d="M0 0 C2.313 2.313 2.496 3.479 3.125 6.625 C3.293 7.442 3.46 8.26 3.633 9.102 C3.754 9.728 3.875 10.355 4 11 C6.31 11 8.62 11 11 11 C11 9.35 11 7.7 11 6 C18.734 6.479 25.277 8.58 32.5 11.312 C33.596 11.704 34.691 12.095 35.82 12.498 C37.379 13.081 37.379 13.081 38.969 13.676 C39.912 14.026 40.855 14.375 41.826 14.736 C44 16 44 16 44.955 17.985 C45 20 45 20 42.75 22.562 C41.843 23.367 40.935 24.171 40 25 C39.567 25.598 39.134 26.196 38.688 26.812 C35.709 28.908 32.548 28.225 29 28 C28.34 27.67 27.68 27.34 27 27 C21.117 26.412 16.814 27.691 12 31 C9.307 35.039 9.556 38.259 10 43 C10.647 44.674 11.31 46.343 12 48 C11.607 52.116 10.312 54.277 7.562 57.312 C6.945 58.01 6.328 58.707 5.691 59.426 C4 61 4 61 2 61 C-8.119 79.68 -5.238 103.426 -5 124 C-5.99 124 -6.98 124 -8 124 C-8 122.68 -8 121.36 -8 120 C-9.299 120.082 -10.599 120.165 -11.938 120.25 C-16.58 120.265 -19.754 119.039 -23.879 117.023 C-30.806 113.681 -37.865 112.799 -45.188 115.125 C-49.327 116.873 -51.554 119.187 -54 123 C-54.921 125.676 -55.47 128.206 -56 131 C-58.813 130.75 -58.813 130.75 -62 129 C-63.487 125.09 -64.283 121.114 -65 117 C-64.34 117 -63.68 117 -63 117 C-63.159 111.851 -63.361 106.548 -66 102 C-69.616 99.068 -73.943 97.733 -78.312 96.297 C-83.39 94.511 -83.39 94.511 -85 92 C-87.308 85.349 -89.334 77.968 -86.504 71.242 C-83.101 66.169 -78.499 62.087 -74 58 C-71.645 58.492 -71.645 58.492 -69 60 C-67.964 62.809 -67.266 65.226 -66.688 68.125 C-66.519 68.879 -66.351 69.633 -66.178 70.41 C-65.766 72.269 -65.38 74.134 -65 76 C-61.535 75.01 -61.535 75.01 -58 74 C-58.144 73.131 -58.289 72.262 -58.438 71.367 C-58.623 70.215 -58.809 69.062 -59 67.875 C-59.186 66.738 -59.371 65.601 -59.562 64.43 C-59.971 61.228 -60.153 58.222 -60 55 C-59.67 54.67 -59.34 54.34 -59 54 C-58.921 52.438 -58.862 50.875 -58.812 49.312 C-58.472 45.352 -57.876 43.222 -55.062 40.375 C-52 38 -52 38 -50 38 C-50 37.34 -50 36.68 -50 36 C-48.672 34.66 -48.672 34.66 -46.75 33.062 C-43.09 29.954 -39.527 26.758 -36 23.5 C-32.051 19.863 -28.07 16.272 -24.008 12.762 C-20.717 9.874 -17.511 6.891 -14.297 3.918 C-9.46 -0.121 -6.159 -0.397 0 0 Z " fill="#0056BC" transform="translate(168,160)"/>
</svg>
