<?xml version="1.0" encoding="UTF-8"?>
<!-- Generator: visioncortex VTracer 0.6.4 -->
<svg version="1.1" xmlns="http://www.w3.org/2000/svg" width="512" height="512">
<path d="M0 0 C2.729 0.97 5.463 1.924 8.198 2.874 C11.949 4.178 15.698 5.486 19.446 6.797 C26.701 9.328 33.986 11.771 41.279 14.193 C41.96 14.42 42.642 14.647 43.344 14.881 C53.655 18.317 63.982 21.702 74.313 25.078 C76.434 25.771 78.555 26.464 80.676 27.158 C82.108 27.627 83.541 28.095 84.974 28.564 C85.688 28.797 86.402 29.031 87.137 29.272 C90.678 30.43 94.22 31.586 97.763 32.739 C106.76 35.666 115.747 38.62 124.716 41.631 C125.841 42.008 126.966 42.385 128.124 42.773 C131.206 43.817 134.279 44.882 137.349 45.959 C138.237 46.259 139.125 46.559 140.039 46.869 C144.996 48.643 148.339 50.398 151.716 54.631 C153.212 59.586 152.745 63.244 150.712 67.888 C149.06 70.778 147.929 71.673 144.716 72.631 C137.407 71.854 130.459 69.351 123.572 66.912 C122.508 66.542 121.445 66.171 120.349 65.79 C116.865 64.576 113.384 63.353 109.904 62.131 C105.588 60.624 101.271 59.122 96.955 57.62 C95.045 56.955 93.136 56.289 91.226 55.624 C76.737 50.578 62.203 45.666 47.663 40.768 C36.59 37.038 25.55 33.258 14.601 29.176 C9.072 27.117 3.518 25.141 -2.057 23.209 C-3.25 22.794 -3.25 22.794 -4.467 22.372 C-7.691 21.253 -10.915 20.136 -14.142 19.027 C-16.553 18.196 -18.962 17.359 -21.37 16.521 C-22.094 16.274 -22.818 16.027 -23.564 15.773 C-32.867 12.52 -32.867 12.52 -35.596 8.881 C-36.622 5.525 -36.774 3.122 -36.284 -0.369 C-26.977 -11.849 -11.31 -4.021 0 0 Z " fill="#717374" transform="translate(278.2839660644531,131.36941528320313)"/>
</svg>
