<?xml version="1.0" encoding="UTF-8"?>
<!-- Generator: visioncortex VTracer 0.6.4 -->
<svg version="1.1" xmlns="http://www.w3.org/2000/svg" width="512" height="512">
<path d="M0 0 C6.499 1.5 12.537 3.939 18.562 6.75 C19.277 7.061 19.992 7.371 20.729 7.691 C22.754 8.672 22.754 8.672 26 11 C27.027 14.703 27.027 14.703 27 18 C26.67 18.33 26.34 18.66 26 19 C20.419 18.578 15.892 16.962 10.812 14.688 C9.765 14.244 9.765 14.244 8.697 13.791 C4.784 12.067 1.687 10.455 -1 7 C-1.312 3.812 -1.312 3.812 -1 1 C-0.67 0.67 -0.34 0.34 0 0 Z " fill="#00A5DA" transform="translate(217,296)"/>
</svg>
