<?xml version="1.0" encoding="UTF-8"?>
<!-- Generator: visioncortex VTracer 0.6.4 -->
<svg version="1.1" xmlns="http://www.w3.org/2000/svg" width="512" height="512">
<path d="M0 0 C0.99 0.66 1.98 1.32 3 2 C2.67 4.31 2.34 6.62 2 9 C4.31 9.33 6.62 9.66 9 10 C9.99 8.35 10.98 6.7 12 5 C19.518 6.93 26.784 9.25 34.062 11.938 C36.276 12.743 38.489 13.548 40.703 14.352 C41.881 14.78 43.058 15.208 44.271 15.649 C50.942 18.066 57.625 20.446 64.312 22.812 C65.023 23.064 65.734 23.316 66.467 23.575 C78.409 27.796 90.407 31.831 102.433 35.804 C118.042 40.964 133.534 46.429 149 52 C148.67 54.64 148.34 57.28 148 60 C150.31 60.66 152.62 61.32 155 62 C155.99 60.02 156.98 58.04 158 56 C170.489 56.034 170.489 56.034 173.973 58.262 C175.25 59.812 175.25 59.812 177 63 C177.53 63.937 177.53 63.937 178.071 64.893 C181.477 72.619 180.174 83.24 180.203 91.516 C180.209 92.771 180.215 94.026 180.22 95.319 C180.23 97.955 180.236 100.59 180.24 103.226 C180.246 106.587 180.27 109.947 180.298 113.308 C180.321 116.544 180.323 119.78 180.328 123.016 C180.34 124.214 180.353 125.412 180.366 126.646 C180.349 132.933 180.033 137.463 177 143 C176.343 144.295 176.343 144.295 175.672 145.617 C175.226 146.433 174.78 147.249 174.32 148.09 C173.81 149.026 173.301 149.963 172.775 150.928 C171.958 152.418 171.958 152.418 171.125 153.938 C169.95 156.092 168.776 158.247 167.602 160.402 C167.002 161.499 166.403 162.596 165.786 163.726 C163.012 168.811 160.257 173.906 157.5 179 C156.421 180.992 155.341 182.984 154.262 184.977 C152.053 189.053 149.848 193.132 147.645 197.211 C139.896 211.549 132.108 225.862 124 240 C118.857 239.479 114.942 238.279 110.312 236 C106.784 234.275 103.826 232.956 100 232 C99.34 237.28 98.68 242.56 98 248 C100.97 248.99 100.97 248.99 104 250 C104.66 250.66 105.32 251.32 106 252 C105.01 254.97 104.02 257.94 103 261 C95.25 257.375 95.25 257.375 93 254 C92.539 252.177 92.128 250.342 91.75 248.5 C87.729 232.1 76.069 219.755 62 211 C54.065 206.271 46.094 202.001 37 200 C36.237 199.818 35.474 199.636 34.688 199.449 C26.776 198.127 16.889 197.408 10 202 C7.445 205.16 5.623 207.949 5 212 C2.081 213.261 0.958 212.985 -2.083 211.867 C-3.307 211.286 -4.525 210.693 -5.738 210.09 C-6.404 209.771 -7.069 209.453 -7.755 209.125 C-9.947 208.074 -12.13 207.007 -14.312 205.938 C-17.383 204.445 -20.456 202.959 -23.531 201.477 C-24.314 201.098 -25.097 200.72 -25.903 200.331 C-31.192 197.799 -36.538 195.483 -41.969 193.273 C-44.076 192.397 -46.182 191.518 -48.288 190.639 C-49.623 190.094 -50.965 189.565 -52.313 189.052 C-62.786 185.063 -62.786 185.063 -65.827 179.894 C-67.064 176.626 -68.052 173.361 -69 170 C-76.348 156.219 -87.373 145.837 -100 137 C-101.337 136.005 -102.672 135.008 -104 134 C-101.03 134 -98.06 134 -95 134 C-95 135.32 -95 136.64 -95 138 C-94.01 138 -93.02 138 -92 138 C-92.33 137.01 -92.66 136.02 -93 135 C-93.242 130.317 -93.195 125.626 -93.188 120.938 C-93.187 120.261 -93.186 119.584 -93.186 118.887 C-93.132 96.781 -92.216 82.216 -76 66 C-75.34 64.68 -74.68 63.36 -74 62 C-70.04 63.98 -66.08 65.96 -62 68 C-62 71.3 -62 74.6 -62 78 C-58.645 78.765 -58.645 78.765 -55 79 C-52.352 77.235 -52.023 76.069 -51 73 C-43.763 74.997 -36.935 77.565 -30.039 80.52 C-27.91 81.419 -25.78 82.317 -23.649 83.213 C-22.554 83.674 -21.459 84.135 -20.331 84.61 C-10.395 88.756 -0.375 92.699 9.625 96.688 C12.04 97.652 14.455 98.617 16.87 99.583 C30.193 104.904 43.529 110.192 56.88 115.443 C78.329 123.881 78.329 123.881 87.812 127.812 C88.943 128.274 88.943 128.274 90.097 128.746 C94.881 130.761 94.881 130.761 96 133 C95.524 135.725 94.733 138.328 94 141 C97.3 141.33 100.6 141.66 104 142 C104.99 140.02 105.98 138.04 107 136 C107.652 136.035 108.305 136.07 108.977 136.105 C114.435 136.275 118.335 136.186 123 133 C126.179 129.492 127.163 126.24 127.312 121.562 C127.369 120.42 127.369 120.42 127.426 119.254 C126.833 116.117 125.373 115.092 123 113 C115.498 108.801 107.1 106.054 99.062 103.062 C96.469 102.09 93.877 101.114 91.285 100.137 C90.274 99.756 90.274 99.756 89.243 99.367 C82.21 96.713 75.21 93.977 68.209 91.239 C52.608 85.138 36.955 79.183 21.279 73.28 C8.107 68.319 -5.042 63.304 -18.16 58.202 C-31.409 53.052 -44.702 48.021 -58 43 C-58 42.67 -58 42.34 -58 42 C-53.05 41.505 -53.05 41.505 -48 41 C-47.732 40.216 -47.464 39.433 -47.188 38.625 C-46 36 -46 36 -43 34 C-42.67 33.01 -42.34 32.02 -42 31 C-40.348 29.976 -38.679 28.979 -37 28 C-35.456 26.588 -33.956 25.127 -32.5 23.625 C-31.721 22.827 -30.943 22.029 -30.141 21.207 C-29.081 20.115 -29.081 20.115 -28 19 C-27.093 18.113 -26.185 17.226 -25.25 16.312 C-22.673 13.663 -20.36 10.844 -18 8 C-15.812 5.625 -15.812 5.625 -14 4 C-13.34 4 -12.68 4 -12 4 C-11.67 3.01 -11.34 2.02 -11 1 C-7.417 -1.756 -4.216 -0.92 0 0 Z M171 89 C170.452 89.937 169.904 90.874 169.34 91.84 C164.199 100.615 158.995 109.349 153.75 118.062 C148.544 126.727 143.367 135.408 138.25 144.125 C137.666 145.114 137.081 146.103 136.479 147.121 C130.858 156.735 128.542 163.43 128.75 174.625 C128.755 175.744 128.76 176.863 128.766 178.016 C128.812 182.823 128.931 187.297 130 192 C130.66 192 131.32 192 132 192 C139.8 178.385 147.562 164.748 155.263 151.077 C157.124 147.781 158.993 144.49 160.863 141.199 C162.138 138.945 163.413 136.692 164.688 134.438 C165.588 132.858 165.588 132.858 166.507 131.247 C167.066 130.257 167.624 129.266 168.199 128.246 C168.693 127.377 169.186 126.507 169.694 125.611 C172.186 120.628 173.254 116.364 173.266 110.797 C173.268 109.652 173.271 108.507 173.273 107.328 C173.262 105.557 173.262 105.557 173.25 103.75 C173.258 102.554 173.265 101.358 173.273 100.125 C173.271 98.985 173.268 97.846 173.266 96.672 C173.263 95.631 173.261 94.591 173.259 93.519 C173.25 90.829 173.25 90.829 171 89 Z M-70 100 C-71.212 100.983 -71.212 100.983 -71.053 102.854 C-70.94 105.466 -70.821 108.077 -70.688 110.688 C-70.652 111.587 -70.617 112.486 -70.58 113.412 C-70.331 120.464 -70.331 120.464 -68 127 C-61.928 132.321 -53.489 135.102 -46.188 138.312 C-44.895 138.885 -43.602 139.457 -42.309 140.03 C-39.741 141.165 -37.171 142.295 -34.6 143.421 C-31.4 144.824 -28.208 146.241 -25.016 147.66 C-23.324 148.4 -21.631 149.138 -19.938 149.875 C-19.178 150.214 -18.418 150.554 -17.635 150.904 C-13.943 152.482 -11.83 153.237 -8 152 C-7.854 148.292 -7.766 144.585 -7.688 140.875 C-7.625 139.305 -7.625 139.305 -7.561 137.703 C-7.485 132.951 -7.559 129.826 -9.824 125.582 C-13.789 121.752 -19.109 119.882 -24.125 117.812 C-25.211 117.351 -26.296 116.889 -27.415 116.413 C-30.936 114.923 -34.467 113.46 -38 112 C-39.244 111.481 -40.488 110.962 -41.731 110.442 C-45.4 108.909 -49.074 107.39 -52.75 105.875 C-53.897 105.402 -55.045 104.928 -56.227 104.441 C-57.302 104.004 -58.377 103.567 -59.484 103.117 C-60.43 102.732 -61.376 102.346 -62.351 101.949 C-64.91 101.032 -67.307 100.371 -70 100 Z M20 138 C17.498 140.502 18.417 146.877 18.25 150.25 C18.182 151.301 18.113 152.351 18.043 153.434 C17.993 154.451 17.942 155.468 17.891 156.516 C17.839 157.447 17.788 158.378 17.735 159.337 C18.069 162.689 18.923 164.351 21 167 C23.52 168.752 23.52 168.752 26.637 170.145 C27.234 170.431 27.832 170.717 28.448 171.012 C38.764 175.871 49.317 180.234 59.812 184.688 C63.121 186.096 66.43 187.506 69.738 188.917 C71.781 189.787 73.824 190.657 75.869 191.525 C76.804 191.922 77.739 192.32 78.702 192.729 C79.593 193.106 80.484 193.483 81.401 193.871 C83.141 194.627 84.869 195.41 86.585 196.219 C87.384 196.595 88.183 196.971 89.007 197.359 C89.707 197.699 90.407 198.039 91.129 198.389 C93.19 199.267 93.19 199.267 96 198 C96.058 194.271 96.094 190.542 96.125 186.812 C96.15 185.23 96.15 185.23 96.176 183.615 C96.182 182.594 96.189 181.572 96.195 180.52 C96.206 179.582 96.216 178.645 96.227 177.679 C95.842 173.134 94.632 170.625 91.395 167.422 C87.785 164.635 83.892 162.955 79.688 161.25 C78.83 160.893 77.972 160.536 77.088 160.168 C75.02 159.309 72.951 158.455 70.88 157.604 C67.061 156.031 63.255 154.428 59.448 152.824 C55.755 151.269 52.059 149.721 48.362 148.173 C46.501 147.393 44.64 146.611 42.78 145.828 C40.128 144.712 37.473 143.605 34.816 142.5 C34.017 142.162 33.218 141.824 32.394 141.475 C28.283 139.775 24.481 138.39 20 138 Z M-38 150 C-39.307 151.099 -39.307 151.099 -39.312 153.812 C-39.282 156.976 -39.282 156.976 -37.539 158.934 C-34.016 161.8 -30.21 163.451 -26.062 165.25 C-25.264 165.614 -24.465 165.977 -23.643 166.352 C-18.055 168.822 -18.055 168.822 -12 169 C-11.294 166.458 -10.827 164.624 -11.539 162.051 C-13.702 159.015 -16.68 157.89 -20 156.438 C-20.67 156.134 -21.339 155.831 -22.03 155.519 C-27.226 153.218 -32.477 151.364 -38 150 Z M71 201 C70.498 203.831 70.498 203.831 71 207 C74.717 211.521 78.743 213.644 84 215.875 C85.048 216.355 85.048 216.355 86.117 216.844 C90.105 218.574 92.698 219.496 97 218 C97.418 214.668 97.418 214.668 97 211 C93.339 207.43 89.086 205.366 84.5 203.25 C83.849 202.934 83.198 202.618 82.527 202.293 C76.678 199.336 76.678 199.336 71 201 Z " fill="#005CBD" transform="translate(255,146)"/>
<path d="M0 0 C2.97 0 5.94 0 9 0 C9.33 1.98 9.66 3.96 10 6 C6.005 4.63 3.2 2.743 0 0 Z " fill="#004FA8" transform="translate(151,280)"/>
<path d="M0 0 C5.527 -0.194 9.756 0.252 15 2 C11.469 3.202 8.871 2.795 5.25 2.062 C4.265 1.868 3.28 1.673 2.266 1.473 C1.518 1.317 0.77 1.161 0 1 C0 0.67 0 0.34 0 0 Z " fill="#003D83" transform="translate(127,273)"/>
<path d="M0 0 C1.312 3.937 0.243 6.125 -1 10 C-2.274 7.453 -1.802 6.572 -1.062 3.875 C-0.868 3.151 -0.673 2.426 -0.473 1.68 C-0.317 1.125 -0.161 0.571 0 0 Z " fill="#003877" transform="translate(114,281)"/>
<path d="M0 0 C3.375 -0.125 3.375 -0.125 7 0 C7.66 0.66 8.32 1.32 9 2 C6.03 1.67 3.06 1.34 0 1 C0 0.67 0 0.34 0 0 Z " fill="#115AB0" transform="translate(188,186)"/>
<path d="M0 0 C2.438 0.375 2.438 0.375 5 1 C5.33 1.66 5.66 2.32 6 3 C4.02 2.34 2.04 1.68 0 1 C0 0.67 0 0.34 0 0 Z " fill="#013572" transform="translate(145,277)"/>
<path d="M0 0 C0.33 0 0.66 0 1 0 C1 1.98 1 3.96 1 6 C0.67 6 0.34 6 0 6 C0 4.02 0 2.04 0 0 Z " fill="#0C4992" transform="translate(178,165)"/>
<path d="M0 0 C0.66 0 1.32 0 2 0 C1.67 1.32 1.34 2.64 1 4 C0.67 2.68 0.34 1.36 0 0 Z " fill="#0D4689" transform="translate(98,219)"/>
<path d="M0 0 C4 1 4 1 4 1 Z " fill="#011939" transform="translate(123,274)"/>
<path d="M0 0 C3 1 3 1 3 1 Z " fill="#013067" transform="translate(142,276)"/>
<path d="" fill="#0B458D" transform="translate(0,0)"/>
<path d="" fill="#396498" transform="translate(0,0)"/>
<path d="" fill="#0551AA" transform="translate(0,0)"/>
<path d="" fill="#1C66B3" transform="translate(0,0)"/>
<path d="M0 0 C2 1 2 1 2 1 Z " fill="#175CB0" transform="translate(95,218)"/>
<path d="" fill="#265FA3" transform="translate(0,0)"/>
<path d="" fill="#6A7C8E" transform="translate(0,0)"/>
<path d="" fill="#012552" transform="translate(0,0)"/>
<path d="" fill="#021228" transform="translate(0,0)"/>
<path d="" fill="#021329" transform="translate(0,0)"/>
<path d="" fill="#021730" transform="translate(0,0)"/>
<path d="" fill="#022045" transform="translate(0,0)"/>
<path d="" fill="#2069B4" transform="translate(0,0)"/>
<path d="" fill="#011F48" transform="translate(0,0)"/>
<path d="" fill="#4477AE" transform="translate(0,0)"/>
<path d="" fill="#AC9369" transform="translate(0,0)"/>
<path d="" fill="#015BBE" transform="translate(0,0)"/>
<path d="" fill="#EEAF33" transform="translate(0,0)"/>
<path d="" fill="#F3BC51" transform="translate(0,0)"/>
<path d="" fill="#2770C6" transform="translate(0,0)"/>
<path d="" fill="#828F7E" transform="translate(0,0)"/>
<path d="" fill="#386B96" transform="translate(0,0)"/>
<path d="" fill="#114487" transform="translate(0,0)"/>
<path d="" fill="#084FA6" transform="translate(0,0)"/>
<path d="" fill="#0651AB" transform="translate(0,0)"/>
<path d="" fill="#0451AC" transform="translate(0,0)"/>
<path d="" fill="#0F4B93" transform="translate(0,0)"/>
<path d="" fill="#496C9C" transform="translate(0,0)"/>
<path d="" fill="#155BB2" transform="translate(0,0)"/>
<path d="" fill="#1C5CAA" transform="translate(0,0)"/>
<path d="" fill="#215EA7" transform="translate(0,0)"/>
<path d="" fill="#165AAD" transform="translate(0,0)"/>
<path d="" fill="#2E619F" transform="translate(0,0)"/>
<path d="" fill="#36639A" transform="translate(0,0)"/>
<path d="" fill="#275FA3" transform="translate(0,0)"/>
<path d="" fill="#416793" transform="translate(0,0)"/>
<path d="" fill="#2760A3" transform="translate(0,0)"/>
</svg>
