<?xml version="1.0" encoding="UTF-8"?>
<!-- Generator: visioncortex VTracer 0.6.4 -->
<svg version="1.1" xmlns="http://www.w3.org/2000/svg" width="512" height="512">
<path d="M0 0 C12.942 8.2 24.315 19.781 29.332 34.461 C29.909 37.185 30.174 39.672 30.332 42.461 C29.012 42.461 27.692 42.461 26.332 42.461 C24.813 44.314 24.813 44.314 23.582 46.711 C20.501 51.542 17.991 54.134 12.332 55.461 C-4.931 57.35 -18.974 51.347 -32.422 40.909 C-41.436 33.619 -48.11 24.94 -50.668 13.461 C-51.091 6.928 -48.824 2.06 -45.668 -3.539 C-49.094 -0.364 -49.094 -0.364 -51.668 3.461 C-53.334 3.504 -55.002 3.502 -56.668 3.461 C-56.998 3.131 -57.328 2.801 -57.668 2.461 C-57.437 -3.429 -55.921 -6.475 -51.668 -10.539 C-33.974 -17.981 -15.248 -8.796 0 0 Z M-31.473 15.312 C-33.17 18.364 -33.201 19.994 -32.668 23.461 C-29.439 30.8 -23.38 36.952 -16.105 40.336 C-10.075 42.309 -5.573 43.208 0.332 40.461 C2.557 37.123 2.617 35.541 1.988 31.645 C-0.335 23.915 -6.866 19.175 -13.668 15.461 C-17.31 13.749 -20.271 13.141 -24.293 13.086 C-25.704 13.043 -25.704 13.043 -27.145 13 C-29.793 13.232 -29.793 13.232 -31.473 15.312 Z " fill="#293038" transform="translate(317.66796875,356.5390625)"/>
<path d="M0 0 C12.942 8.2 24.315 19.781 29.332 34.461 C29.909 37.185 30.174 39.672 30.332 42.461 C28.352 41.966 28.352 41.966 26.332 41.461 C26.25 40.883 26.167 40.306 26.082 39.711 C25.496 37.352 25.496 37.352 23.582 35.836 C21.335 33.464 20.379 31.644 19.02 28.711 C11.846 13.999 -2.823 4.321 -17.668 -1.539 C-18.545 -1.906 -19.421 -2.274 -20.324 -2.652 C-25.887 -4.757 -31.975 -4.673 -37.855 -4.852 C-39.025 -4.889 -40.194 -4.926 -41.398 -4.965 C-45.315 -4.455 -46.884 -3.278 -49.668 -0.539 C-50.98 1.578 -50.98 1.578 -51.668 3.461 C-53.334 3.504 -55.002 3.502 -56.668 3.461 C-56.998 3.131 -57.328 2.801 -57.668 2.461 C-57.437 -3.429 -55.921 -6.475 -51.668 -10.539 C-33.974 -17.981 -15.248 -8.796 0 0 Z " fill="#010102" transform="translate(317.66796875,356.5390625)"/>
</svg>
