<?xml version="1.0" encoding="UTF-8"?>
<!-- Generator: visioncortex VTracer 0.6.4 -->
<svg version="1.1" xmlns="http://www.w3.org/2000/svg" width="512" height="512">
<path d="M0 0 C10.186 9.382 17.551 22.547 19.855 36.199 C19.894 38.532 19.901 40.866 19.855 43.199 C14.175 38.996 11.267 34.907 8.117 28.59 C6.954 26.101 6.954 26.101 4.855 24.199 C4.855 23.209 4.855 22.219 4.855 21.199 C4.195 21.199 3.535 21.199 2.855 21.199 C1.494 19.556 0.166 17.884 -1.145 16.199 C-9.442 7.191 -18.485 0.287 -31.045 -0.271 C-42.162 -0.428 -50.954 2.572 -59.145 10.199 C-66.647 18.061 -70.537 27.77 -73.145 38.199 C-75.785 38.529 -78.425 38.859 -81.145 39.199 C-81.808 23.511 -78.052 12.422 -67.68 0.324 C-46.872 -21.221 -22.152 -18.601 0 0 Z " fill="#010203" transform="translate(330.14453125,281.80078125)"/>
</svg>
