<?xml version="1.0" encoding="UTF-8"?>
<!-- Generator: visioncortex VTracer 0.6.4 -->
<svg version="1.1" xmlns="http://www.w3.org/2000/svg" width="512" height="512">
<path d="M0 0 C3.294 2.007 6.425 4.172 9.52 6.473 C10.084 6.891 10.649 7.31 11.231 7.742 C14.622 10.407 16.072 12.533 17.52 16.535 C19.005 17.03 19.005 17.03 20.52 17.535 C20.52 18.195 20.52 18.855 20.52 19.535 C21.18 19.535 21.84 19.535 22.52 19.535 C23.056 20.484 23.592 21.433 24.145 22.41 C24.699 23.371 24.699 23.371 25.266 24.352 C26.127 25.851 26.972 27.359 27.805 28.875 C30.594 33.792 33.381 37.413 37.52 41.285 C40.363 44.324 41.456 45.739 41.789 49.926 C41.324 53.602 40.56 56.98 39.52 60.535 C39.152 61.904 39.152 61.904 38.777 63.301 C36.424 70.428 31.847 75.39 26.52 80.535 C25.852 81.186 25.184 81.837 24.496 82.508 C15.237 90.578 1.325 94.997 -10.859 94.812 C-24.697 93.348 -35.778 86.101 -44.48 75.535 C-53.402 62.363 -57.175 49.428 -55.48 33.535 C-53.012 21.726 -46.204 9.929 -36.176 2.926 C-25.448 -3.215 -11.558 -5.494 0 0 Z M-30.23 27.348 C-35.865 35.33 -36.529 41.897 -35.48 51.535 C-33.438 58.481 -29.558 63.624 -23.48 67.535 C-18.262 70.202 -13.069 69.89 -7.48 68.535 C-1.825 65.949 0.917 62.04 3.52 56.535 C5.779 49.197 5.329 41.499 1.848 34.672 C-2.115 28.297 -6.15 23.63 -13.48 21.535 C-20.367 20.797 -25.358 22.364 -30.23 27.348 Z " fill="#272E37" transform="translate(312.48046875,283.46484375)"/>
</svg>
