<?xml version="1.0" encoding="UTF-8"?>
<!-- Generator: visioncortex VTracer 0.6.4 -->
<svg version="1.1" xmlns="http://www.w3.org/2000/svg" width="512" height="512">
<path d="M0 0 C12.14 -0.125 24.214 0.167 36.338 0.8 C39.053 0.94 41.769 1.071 44.484 1.201 C46.219 1.288 47.953 1.376 49.688 1.465 C50.496 1.503 51.304 1.542 52.136 1.582 C57.77 1.885 57.77 1.885 60 3 C57.415 11.812 53.886 18.863 46 24 C36.124 28.463 24.413 31.379 13.75 27.938 C7.957 25.398 2.203 20.461 -1 15 C-1.328 11.836 -1.328 11.836 -1.25 8.375 C-1.235 7.228 -1.219 6.08 -1.203 4.898 C-1 2 -1 2 0 0 Z " fill="#0E1113" transform="translate(185,319)"/>
<path d="M0 0 C1.32 0.33 2.64 0.66 4 1 C4 3.31 4 5.62 4 8 C2 6.812 2 6.812 0 5 C-0.25 2.312 -0.25 2.312 0 0 Z " fill="#1C2126" transform="translate(184,329)"/>
</svg>
