<?xml version="1.0" encoding="UTF-8"?>
<!-- Generator: visioncortex VTracer 0.6.4 -->
<svg version="1.1" xmlns="http://www.w3.org/2000/svg" width="512" height="512">
<path d="M0 0 C0.76 -0.012 1.52 -0.023 2.303 -0.035 C8.764 -0.002 14.353 1.137 19.418 5.32 C25.955 13.098 29.95 20.026 32.371 29.918 C33.166 32.741 34.423 34.954 36.062 37.375 C36.062 38.035 36.062 38.695 36.062 39.375 C39.032 39.705 42.002 40.035 45.062 40.375 C45.677 50.669 43.777 61.236 37.062 69.375 C34.75 71.938 34.75 71.938 32.062 74.375 C31.134 75.221 30.206 76.066 29.25 76.938 C20.395 83.034 6.452 84.715 -3.938 83.375 C-15.015 80.606 -21.167 73.986 -27.141 64.574 C-33.196 53.793 -35.793 40.8 -32.875 28.625 C-29.238 17.633 -23.182 7.252 -12.711 1.648 C-8.289 0.156 -4.624 -0.07 0 0 Z M-14.938 27.375 C-18.643 33.351 -18.729 39.471 -17.938 46.375 C-16.238 53.011 -12.79 57.784 -6.938 61.375 C-3.001 62.769 -1.32 62.494 2.688 61.25 C7.15 58.771 9.139 56.315 11.312 51.75 C13.192 43.294 12.701 35.812 8.062 28.375 C4.513 24.306 1.784 21.605 -3.688 20.875 C-8.841 21.017 -11.713 23.545 -14.938 27.375 Z " fill="#272E36" transform="translate(138.9375,278.625)"/>
<path d="M0 0 C6.307 0.921 9.919 1.998 14 7 C12.333 6.333 10.667 5.667 9 5 C8.154 4.67 7.309 4.34 6.438 4 C4.23 3.094 2.118 2.098 0 1 C0 0.67 0 0.34 0 0 Z " fill="#151B20" transform="translate(145,279)"/>
</svg>
