<?xml version="1.0" encoding="UTF-8"?>
<!-- Generator: visioncortex VTracer 0.6.4 -->
<svg version="1.1" xmlns="http://www.w3.org/2000/svg" width="512" height="512">
<path d="M0 0 C8.58 0 17.16 0 26 0 C26 9.9 26 19.8 26 30 C23.571 31.214 21.993 31.129 19.281 31.133 C18.349 31.134 17.417 31.135 16.457 31.137 C15.481 31.133 14.505 31.129 13.5 31.125 C12.036 31.131 12.036 31.131 10.543 31.137 C9.145 31.135 9.145 31.135 7.719 31.133 C6.862 31.132 6.006 31.131 5.123 31.129 C3 31 3 31 1 30 C0.67 20.1 0.34 10.2 0 0 Z " fill="#E89A01" transform="translate(373,276)"/>
</svg>
