<?xml version="1.0" encoding="UTF-8"?>
<!-- Generator: visioncortex VTracer 0.6.4 -->
<svg version="1.1" xmlns="http://www.w3.org/2000/svg" width="512" height="512">
<path d="M0 0 C3.96 0 7.92 0 12 0 C12.169 3 12.336 6 12.5 9 C12.548 9.839 12.595 10.678 12.645 11.543 C13.436 26.128 13.436 26.128 12 29 C10.375 29.054 8.75 29.093 7.125 29.125 C6.22 29.148 5.315 29.171 4.383 29.195 C2 29 2 29 0 27 C-0.227 24.294 -0.227 24.294 -0.195 20.898 C-0.189 19.687 -0.182 18.475 -0.176 17.227 C-0.159 15.956 -0.142 14.685 -0.125 13.375 C-0.111 11.457 -0.111 11.457 -0.098 9.5 C-0.074 6.333 -0.038 3.167 0 0 Z " fill="#F2F4F2" transform="translate(361,276)"/>
</svg>
