<?xml version="1.0" encoding="UTF-8"?>
<!-- Generator: visioncortex VTracer 0.6.4 -->
<svg version="1.1" xmlns="http://www.w3.org/2000/svg" width="512" height="512">
<path d="M0 0 C7.801 2.944 12.03 10.895 15.5 18.086 C16.312 20.25 16.312 20.25 16.312 23.25 C15.652 23.25 14.993 23.25 14.312 23.25 C13.756 22.178 13.199 21.105 12.625 20 C10.661 16.59 8.727 14.332 5.312 12.25 C2.769 11.5 2.769 11.5 0.312 12.25 C-1.889 14.689 -1.889 14.689 -3.688 17.25 C-4.348 17.25 -5.007 17.25 -5.688 17.25 C-5.768 14.98 -5.827 12.709 -5.875 10.438 C-5.91 9.173 -5.945 7.908 -5.98 6.605 C-5.688 3.25 -5.688 3.25 -4.344 1.316 C-2.688 0.25 -2.688 0.25 0 0 Z " fill="#010305" transform="translate(347.6875,276.75)"/>
<path d="M0 0 C0.99 0.495 0.99 0.495 2 1 C1.67 1.66 1.34 2.32 1 3 C0.67 2.01 0.34 1.02 0 0 Z " fill="#010001" transform="translate(364,300)"/>
</svg>
