<?xml version="1.0" encoding="UTF-8"?>
<!-- Generator: visioncortex VTracer 0.6.4 -->
<svg version="1.1" xmlns="http://www.w3.org/2000/svg" width="512" height="512">
<path d="M0 0 C0.412 0.639 0.825 1.279 1.25 1.938 C3.956 5.126 6.957 5.205 11 6 C11.33 4.02 11.66 2.04 12 0 C13.98 -0.33 15.96 -0.66 18 -1 C18.99 0.485 18.99 0.485 20 2 C20.536 1.691 21.072 1.381 21.625 1.062 C24.398 -0.178 27 -0.591 30 -1 C30.103 -0.361 30.206 0.279 30.312 0.938 C30.539 1.618 30.766 2.299 31 3 C31.99 3.33 32.98 3.66 34 4 C38.531 8.531 40.974 13.71 43.668 19.488 C44.751 22.117 44.751 22.117 47 23 C50.186 27.99 51.77 33.259 53 39 C53.66 39 54.32 39 55 39 C59.83 53.31 62.737 68.084 65 83 C65.66 83 66.32 83 67 83 C68.354 84.63 68.354 84.63 69.906 86.918 C70.48 87.754 71.054 88.59 71.646 89.451 C72.258 90.354 72.87 91.257 73.5 92.188 C78.404 99.317 83.418 106.284 88.75 113.098 C91.662 116.854 94.443 120.699 97.211 124.562 C100.739 129.881 100.739 129.881 106 133 C105 136 105 136 103.266 136.875 C102.53 137.105 101.794 137.334 101.035 137.57 C99.835 137.955 99.835 137.955 98.611 138.348 C97.35 138.732 97.35 138.732 96.062 139.125 C94.407 139.647 92.752 140.171 91.098 140.695 C90.36 140.922 89.623 141.149 88.864 141.383 C86.939 141.971 86.939 141.971 85 143 C83.81 162.43 92.401 183.412 101.799 199.96 C102.423 201.065 102.423 201.065 103.059 202.191 C103.433 202.833 103.807 203.474 104.193 204.135 C105 206 105 206 105 210 C94.786 214 84.541 217.434 73.991 220.43 C66.877 222.467 59.813 224.61 52.906 227.273 C50.699 228.115 48.481 228.912 46.25 229.688 C45.533 229.939 44.817 230.19 44.078 230.449 C42 231 42 231 38 231 C38.058 229.759 38.116 228.517 38.176 227.238 C38.223 225.596 38.268 223.954 38.312 222.312 C38.354 221.496 38.396 220.679 38.439 219.838 C38.528 215.458 38.496 213.625 35.688 210.086 C34.357 209.053 34.357 209.053 33 208 C32.406 207.501 31.811 207.002 31.199 206.488 C30.451 205.906 30.451 205.906 29.688 205.312 C28.801 204.549 27.914 203.786 27 203 C27 202.34 27 201.68 27 201 C26.34 201 25.68 201 25 201 C23.73 199.707 23.73 199.707 22.188 197.812 C17.299 192.049 11.917 186.761 6.491 181.506 C5.093 180.094 3.81 178.57 2.539 177.043 C0.125 174.668 0.125 174.668 -3.219 174.973 C-8.599 176.434 -13.809 178.343 -18.973 180.443 C-19.776 180.729 -20.579 181.014 -21.406 181.309 C-22.478 181.723 -22.478 181.723 -23.572 182.146 C-27.75 181.895 -30.11 178.823 -33 176 C-33.61 175.412 -34.221 174.824 -34.85 174.219 C-36.813 172.302 -38.751 170.362 -40.684 168.414 C-41.384 167.712 -42.084 167.01 -42.806 166.287 C-45.019 164.069 -47.228 161.847 -49.438 159.625 C-50.947 158.11 -52.457 156.596 -53.967 155.082 C-57.647 151.391 -61.325 147.696 -65 144 C-64.582 143.457 -64.165 142.914 -63.734 142.355 C-63.19 141.639 -62.645 140.923 -62.083 140.186 C-61.271 139.124 -61.271 139.124 -60.443 138.041 C-56.867 132.984 -56.634 127.598 -56.375 121.625 C-56.336 120.889 -56.298 120.153 -56.258 119.395 C-56.164 117.597 -56.081 115.798 -56 114 C-57.32 114 -58.64 114 -60 114 C-60.049 114.831 -60.098 115.663 -60.148 116.52 C-60.261 118.15 -60.261 118.15 -60.375 119.812 C-60.445 120.891 -60.514 121.97 -60.586 123.082 C-61 126 -61 126 -63 129 C-67.432 130.958 -71.19 131.527 -76 131 C-78.568 129.435 -80.581 127.444 -82.688 125.312 C-83.242 124.782 -83.797 124.252 -84.369 123.705 C-89.551 118.683 -93.443 113.672 -96.438 107.062 C-96.735 106.412 -97.032 105.761 -97.338 105.09 C-105.706 86.446 -105.706 86.446 -104 78 C-102.515 77.505 -102.515 77.505 -101 77 C-101.365 71.336 -102.055 66.993 -105 62 C-109.11 62.505 -109.11 62.505 -112.875 64.094 C-115.692 65.295 -117.301 64.823 -120.25 64.125 C-121.142 63.921 -122.034 63.718 -122.953 63.508 C-123.629 63.34 -124.304 63.173 -125 63 C-125.33 61.02 -125.66 59.04 -126 57 C-122.565 54.71 -121.015 54.822 -117 55 C-116.773 54.381 -116.546 53.762 -116.312 53.125 C-114.59 50.337 -113.035 50.132 -110 49 C-108.47 48.268 -106.95 47.518 -105.438 46.75 C-104.562 46.308 -103.687 45.866 -102.785 45.41 C-101.866 44.945 -100.947 44.479 -100 44 C-97.111 42.553 -94.22 41.11 -91.328 39.668 C-88.938 38.47 -86.553 37.265 -84.172 36.051 C-75.571 31.683 -66.903 27.722 -58 24 C-53.538 22.075 -49.138 20.091 -44.812 17.875 C-39.908 15.403 -35.577 13.672 -30 14 C-29.67 13.01 -29.34 12.02 -29 11 C-23.751 7.282 -19.372 6.289 -13 6 C-12.67 5.01 -12.34 4.02 -12 3 C-10.293 1.797 -10.293 1.797 -8.188 0.75 C-7.5 0.394 -6.813 0.038 -6.105 -0.328 C-3.613 -1.123 -2.409 -0.969 0 0 Z M12.43 6.301 C10.591 7.025 10.591 7.025 8.715 7.764 C8.084 8.018 7.454 8.273 6.804 8.535 C4.878 9.311 2.946 10.07 1.012 10.826 C-6.472 13.577 -6.472 13.577 -13 18 C-18.447 34.34 -8.58 58.601 -1.566 73.242 C2.512 81.37 6.811 89.268 13 96 C13.574 96.652 14.147 97.305 14.738 97.977 C18.489 102.018 21.665 104.476 27 106 C33.889 105.663 39.933 102.913 46.25 100.312 C47.338 99.89 48.426 99.468 49.547 99.033 C55.559 96.609 55.559 96.609 60.215 92.277 C61.27 87.872 61.406 83.765 61.312 79.25 C61.3 78.35 61.287 77.451 61.274 76.524 C61.141 70.454 60.784 64.831 59 59 C58.817 58.375 58.634 57.75 58.445 57.105 C54.044 42.244 48.159 28.866 39 16.312 C38.526 15.653 38.052 14.993 37.564 14.314 C34.159 9.846 30.304 6.088 25 4 C20.254 3.546 16.828 4.56 12.43 6.301 Z " fill="#000000" transform="translate(237,161)"/>
<path d="M0 0 C0 0.99 0 1.98 0 3 C0.66 3.33 1.32 3.66 2 4 C-1.435 6.29 -2.985 6.178 -7 6 C-7 4.02 -7 2.04 -7 0 C-3.867 -1.044 -3.01 -0.934 0 0 Z " fill="#000000" transform="translate(112,225)"/>
<path d="M0 0 C0.33 0 0.66 0 1 0 C1 2.97 1 5.94 1 9 C0.01 9.495 0.01 9.495 -1 10 C-2.467 6.185 -1.433 3.71 0 0 Z " fill="#0D1012" transform="translate(137,232)"/>
<path d="" fill="#010102" transform="translate(0,0)"/>
<path d="" fill="#010406" transform="translate(0,0)"/>
<path d="" fill="#020203" transform="translate(0,0)"/>
<path d="" fill="#00040A" transform="translate(0,0)"/>
<path d="" fill="#010102" transform="translate(0,0)"/>
<path d="" fill="#010102" transform="translate(0,0)"/>
<path d="" fill="#000101" transform="translate(0,0)"/>
<path d="" fill="#010203" transform="translate(0,0)"/>
<path d="M0 0 C2 1 2 1 2 1 Z " fill="#000000" transform="translate(114,227)"/>
<path d="" fill="#3D4146" transform="translate(0,0)"/>
<path d="" fill="#2E3237" transform="translate(0,0)"/>
<path d="" fill="#33373C" transform="translate(0,0)"/>
<path d="" fill="#363A3F" transform="translate(0,0)"/>
<path d="" fill="#030304" transform="translate(0,0)"/>
<path d="" fill="#020304" transform="translate(0,0)"/>
<path d="" fill="#000001" transform="translate(0,0)"/>
<path d="" fill="#000101" transform="translate(0,0)"/>
<path d="" fill="#010202" transform="translate(0,0)"/>
<path d="" fill="#020203" transform="translate(0,0)"/>
<path d="" fill="#020303" transform="translate(0,0)"/>
<path d="" fill="#0A0C0E" transform="translate(0,0)"/>
</svg>
