<?xml version="1.0" encoding="UTF-8"?>
<!-- Generator: visioncortex VTracer 0.6.4 -->
<svg version="1.1" xmlns="http://www.w3.org/2000/svg" width="512" height="512">
<path d="M0 0 C3.579 1.984 4.623 6.207 5.719 9.953 C5.594 13.453 5.594 13.453 4.719 15.953 C4.059 16.283 3.399 16.613 2.719 16.953 C0.806 23.5 2.844 28.189 5.344 34.328 C5.86 35.67 5.86 35.67 6.387 37.039 C10.57 47.659 15.711 55.789 23.719 63.953 C24.544 64.816 24.544 64.816 25.387 65.695 C28 68.175 29.618 68.941 33.219 69.391 C38.197 68.879 38.197 68.879 42.719 66.953 C43.887 64.02 44.305 61.071 44.719 57.953 C45.028 56.437 45.028 56.437 45.344 54.891 C45.529 53.932 45.529 53.932 45.719 52.953 C47.039 52.953 48.359 52.953 49.719 52.953 C52.187 57.89 50.45 66.001 49.156 71.223 C46.556 77.769 42.845 81.719 36.516 84.508 C34.507 85.3 32.491 86.073 30.469 86.828 C28.97 87.431 28.97 87.431 27.441 88.047 C20.024 90.897 13.273 92.673 5.719 89.453 C-10.614 80.166 -19.449 62.295 -24.555 44.891 C-27.067 34.733 -28.586 22.365 -23.281 12.953 C-19.526 8.317 -14.311 5.723 -9.094 3.016 C-8.487 2.697 -7.881 2.377 -7.257 2.049 C-4.776 0.824 -2.793 -0.057 0 0 Z " fill="#23292F" transform="translate(131.28125,222.046875)"/>
<path d="M0 0 C1.32 0 2.64 0 4 0 C6.477 4.954 4.8 13.312 3.262 18.48 C2.438 20.375 2.438 20.375 1 23 C0.34 22.67 -0.32 22.34 -1 22 C-0.505 20.515 -0.505 20.515 0 19 C0.093 17.356 0.13 15.709 0.125 14.062 C0.129 12.781 0.129 12.781 0.133 11.473 C0.009 9.167 -0.442 7.227 -1 5 C-0.562 2.25 -0.562 2.25 0 0 Z " fill="#101215" transform="translate(177,275)"/>
</svg>
