<?xml version="1.0" encoding="UTF-8"?>
<!-- Generator: visioncortex VTracer 0.6.4 -->
<svg version="1.1" xmlns="http://www.w3.org/2000/svg" width="512" height="512">
<path d="M0 0 C18.403 11.64 27.432 37.265 32.832 57.215 C33.931 62.894 34.048 68.511 34.082 74.277 C34.103 75.149 34.123 76.021 34.145 76.92 C34.176 82.038 34.093 86.031 30.832 90.215 C27.908 91.998 24.844 93.199 21.645 94.402 C20.819 94.732 19.993 95.061 19.143 95.4 C16.714 96.363 14.275 97.29 11.832 98.215 C11.083 98.514 10.334 98.813 9.562 99.122 C4.772 101.012 1.87 101.614 -3.168 100.215 C-20.55 90.969 -30.039 68.493 -35.759 50.552 C-43.942 23.551 -43.942 23.551 -40.365 14.091 C-36.72 8.377 -25.626 5.865 -19.543 3.465 C-18.027 2.848 -18.027 2.848 -16.48 2.219 C-15.498 1.831 -14.516 1.443 -13.504 1.043 C-12.623 0.691 -11.741 0.34 -10.833 -0.022 C-7.088 -1.094 -3.691 -1.337 0 0 Z M2.832 21.215 C-0.498 28.039 1.256 35.293 3.494 42.281 C6.445 50.436 10.328 60.286 17.832 65.215 C20.502 65.182 20.502 65.182 22.832 64.215 C26.281 57.316 22.75 48.031 20.53 41.152 C17.755 33.448 14.029 25.533 6.832 21.215 C5.512 21.215 4.192 21.215 2.832 21.215 Z " fill="#262C33" transform="translate(264.16796875,165.78515625)"/>
</svg>
