<?xml version="1.0" encoding="UTF-8"?>
<!-- Generator: visioncortex VTracer 0.6.4 -->
<svg version="1.1" xmlns="http://www.w3.org/2000/svg" width="512" height="512">
<path d="M0 0 C4.165 3.66 6.879 7.728 9.762 12.445 C11.508 15.276 13.373 18.009 15.27 20.742 C26.798 37.523 26.798 37.523 27 48 C27.204 50.417 27.412 52.834 27.625 55.25 C27.755 57.166 27.882 59.083 28 61 C24.52 57.798 21.988 54.197 19.438 50.25 C16.669 46.017 13.884 41.805 10.973 37.668 C10.476 36.961 9.98 36.253 9.469 35.524 C8.512 34.164 7.549 32.808 6.58 31.456 C-0.258 21.699 -0.173 11.532 0 0 Z " fill="#1F2031" transform="translate(304,171)"/>
<path d="M0 0 C4.157 3.653 6.866 7.717 9.754 12.418 C11.548 15.322 13.434 18.156 15.34 20.988 C16.226 22.317 16.226 22.317 17.131 23.672 C18.323 25.455 19.523 27.234 20.732 29.006 C21.283 29.837 21.835 30.668 22.402 31.523 C22.902 32.265 23.402 33.007 23.918 33.771 C25.174 36.359 25.208 38.159 25 41 C20.196 35.149 15.995 28.898 11.726 22.653 C10.74 21.214 9.748 19.779 8.752 18.347 C7.308 16.27 5.879 14.183 4.453 12.094 C3.783 11.139 3.783 11.139 3.099 10.165 C0.736 6.662 -0.578 4.268 0 0 Z " fill="#060A18" transform="translate(304,171)"/>
</svg>
