<?xml version="1.0" encoding="UTF-8"?>
<!-- Generator: visioncortex VTracer 0.6.4 -->
<svg version="1.1" xmlns="http://www.w3.org/2000/svg" width="512" height="512">
<path d="M0 0 C0.59 4.644 1.098 9.257 1.25 13.938 C1.289 15.034 1.289 15.034 1.328 16.152 C1.22 16.762 1.112 17.372 1 18 C-2 20 -2 20 -4.562 19.812 C-7 19 -7 19 -9 16 C-9.447 13.784 -9.815 11.552 -10.125 9.312 C-10.293 8.133 -10.46 6.954 -10.633 5.738 C-10.754 4.835 -10.875 3.931 -11 3 C-9.543 2.496 -8.084 1.997 -6.625 1.5 C-5.813 1.222 -5.001 0.943 -4.164 0.656 C-2 0 -2 0 0 0 Z " fill="#26313C" transform="translate(189,343)"/>
<path d="M0 0 C0.33 0.99 0.66 1.98 1 3 C0.67 3.66 0.34 4.32 0 5 C-3.557 5.851 -5.493 6.169 -9 5 C-9 4.34 -9 3.68 -9 3 C-6.03 2.01 -3.06 1.02 0 0 Z " fill="#1F2226" transform="translate(187,343)"/>
</svg>
