<?xml version="1.0" encoding="UTF-8"?>
<!-- Generator: visioncortex VTracer 0.6.4 -->
<svg version="1.1" xmlns="http://www.w3.org/2000/svg" width="512" height="512">
<path d="M0 0 C1.746 -0.005 1.746 -0.005 3.526 -0.01 C4.797 -0.008 6.067 -0.006 7.376 -0.003 C9.351 -0.005 9.351 -0.005 11.366 -0.006 C14.172 -0.008 16.978 -0.006 19.784 -0.001 C23.305 0.005 26.825 0.001 30.346 -0.004 C47.072 -0.028 63.756 0.241 80.462 1.129 C81.374 4.462 81.463 7.059 81.158 10.516 C81.024 12.047 81.024 12.047 80.888 13.608 C80.789 14.667 80.69 15.726 80.587 16.817 C80.45 18.423 80.45 18.423 80.31 20.061 C79.596 27.996 79.596 27.996 78.462 29.129 C75.851 29.23 73.266 29.266 70.654 29.259 C69.427 29.261 69.427 29.261 68.176 29.264 C65.459 29.269 62.742 29.266 60.025 29.262 C58.145 29.263 56.266 29.264 54.386 29.265 C50.442 29.267 46.498 29.264 42.553 29.26 C37.485 29.254 32.417 29.257 27.349 29.263 C23.467 29.267 19.584 29.266 15.702 29.263 C13.832 29.263 11.963 29.263 10.094 29.266 C7.486 29.268 4.879 29.264 2.271 29.259 C1.491 29.261 0.71 29.263 -0.094 29.265 C-5.423 29.244 -5.423 29.244 -6.538 28.129 C-7.825 19.194 -7.648 10.132 -7.538 1.129 C-4.906 -0.187 -2.948 0.002 0 0 Z " fill="#000102" transform="translate(219.53759765625,396.87060546875)"/>
</svg>
