<?xml version="1.0" encoding="UTF-8"?>
<!-- Generator: visioncortex VTracer 0.6.4 -->
<svg version="1.1" xmlns="http://www.w3.org/2000/svg" width="512" height="512">
<path d="M0 0 C29.04 0 58.08 0 88 0 C89.038 4.152 89.411 8.157 89.724 12.405 C89.79 13.251 89.855 14.097 89.922 14.969 C90.063 16.804 90.203 18.64 90.341 20.476 C90.561 23.385 90.785 26.295 91.011 29.204 C91.652 37.475 92.286 45.746 92.913 54.019 C93.298 59.081 93.689 64.143 94.084 69.205 C94.233 71.129 94.379 73.054 94.523 74.979 C94.724 77.679 94.934 80.378 95.146 83.077 C95.203 83.865 95.26 84.653 95.318 85.464 C95.804 94.45 95.804 94.45 99.988 101.875 C101.139 102.432 101.139 102.432 102.312 103 C103.072 103.392 103.831 103.784 104.613 104.188 C107.216 105.074 109.27 105.155 112 105 C112.33 104.01 112.66 103.02 113 102 C113.825 101.526 114.65 101.051 115.5 100.562 C118.084 99.3 118.084 99.3 118.639 97.301 C121.019 82.141 117.662 66.111 115.755 51.076 C115.162 46.397 114.579 41.718 114.002 37.037 C113.696 34.559 113.385 32.082 113.067 29.605 C112.29 23.345 111.836 17.308 112 11 C112.33 11 112.66 11 113 11 C114.378 21.992 115.754 32.983 117.106 43.978 C117.714 48.923 118.326 53.868 118.938 58.812 C119.066 59.853 119.194 60.893 119.327 61.964 C120.942 75.006 122.568 88.038 124.795 100.993 C127.617 118.405 127.011 135.689 125.562 153.188 C124.22 169.887 123.371 186.379 124.5 203.125 C124.572 204.291 124.572 204.291 124.645 205.48 C124.758 207.321 124.878 209.16 125 211 C123.913 210.972 122.827 210.943 121.707 210.914 C116.745 211.029 113.502 212.498 110 216 C109.424 217.992 109.424 217.992 109.188 220.25 C109.078 220.998 108.968 221.745 108.855 222.516 C108.829 225.146 108.829 225.146 110.477 227.68 C112.539 232.175 112.331 236 112.188 240.875 C112.174 241.754 112.16 242.633 112.146 243.539 C112.111 245.693 112.058 247.847 112 250 C113.98 250 115.96 250 118 250 C119.769 245.072 120.932 240.114 122 235 C123.98 234.67 125.96 234.34 128 234 C130.242 254.84 132.073 275.044 130 296 C125.289 297.837 120.981 298.333 115.977 298.414 C114.857 298.443 114.857 298.443 113.715 298.473 C111.352 298.532 108.989 298.579 106.625 298.625 C105.014 298.663 103.404 298.702 101.793 298.742 C97.862 298.839 93.931 298.919 90 299 C89.01 306.92 89.01 306.92 88 315 C87.34 314.67 86.68 314.34 86 314 C86.99 301.13 86.99 301.13 88 288 C69.543 287.076 51.156 286.873 32.684 286.931 C28.982 286.942 25.28 286.946 21.578 286.951 C14.385 286.962 7.193 286.979 0 287 C0 290.96 0 294.92 0 299 C-4.25 299.054 -8.5 299.094 -12.75 299.125 C-13.937 299.142 -15.124 299.159 -16.348 299.176 C-34.451 299.275 -34.451 299.275 -41 296 C-45.565 275.937 -42.318 255.136 -40 235 C-38.103 234.436 -38.103 234.436 -36 234 C-33.344 235.647 -32.959 237.136 -32.051 240.137 C-31.685 241.894 -31.685 241.894 -31.312 243.688 C-31.061 244.867 -30.81 246.046 -30.551 247.262 C-30.278 248.617 -30.278 248.617 -30 250 C-26.417 251.002 -26.417 251.002 -23 250 C-22.922 245.164 -23.019 240.604 -23.688 235.812 C-24.215 231.238 -23.094 229.1 -21 225 C-20.766 220.712 -21.283 217.195 -23.5 213.5 C-26.669 211.599 -29.327 211.388 -32.977 211.176 C-35 211 -35 211 -37 210 C-36.928 209.149 -36.856 208.298 -36.781 207.422 C-35.614 192.185 -35.754 177.232 -37 162 C-39.218 133.89 -38.665 106.672 -33 79 C-32.67 79 -32.34 79 -32 79 C-31.939 80.097 -31.879 81.194 -31.816 82.324 C-31.732 83.779 -31.647 85.233 -31.562 86.688 C-31.523 87.409 -31.484 88.13 -31.443 88.873 C-31.155 94.504 -31.155 94.504 -30 100 C-27.576 101.17 -27.576 101.17 -25 102 C-24.34 102.99 -23.68 103.98 -23 105 C-19.416 105.25 -19.416 105.25 -16 105 C-15.505 103.515 -15.505 103.515 -15 102 C-14.196 101.649 -13.391 101.299 -12.562 100.938 C-8.537 97.894 -8.704 93.825 -8 89 C-7.498 84.707 -7.128 80.409 -6.781 76.102 C-6.678 74.873 -6.574 73.644 -6.468 72.377 C-6.25 69.777 -6.035 67.177 -5.823 64.576 C-5.506 60.699 -5.182 56.822 -4.855 52.945 C-3.992 42.605 -3.144 32.265 -2.434 21.913 C-2.3 19.972 -2.3 19.972 -2.163 17.992 C-1.995 15.52 -1.831 13.047 -1.672 10.574 C-1.598 9.475 -1.524 8.376 -1.447 7.244 C-1.385 6.276 -1.322 5.308 -1.257 4.311 C-1 2 -1 2 0 0 Z M-25 140 C-25.419 142.587 -25.585 144.747 -25.566 147.336 C-25.573 148.052 -25.579 148.769 -25.585 149.507 C-25.592 151.021 -25.589 152.536 -25.576 154.051 C-25.563 156.361 -25.597 158.667 -25.635 160.977 C-25.636 162.451 -25.634 163.924 -25.629 165.398 C-25.642 166.085 -25.655 166.772 -25.669 167.479 C-25.604 170.865 -25.096 172.856 -23.213 175.683 C-18.334 179.201 -13.835 178.683 -7.961 178.615 C-6.741 178.621 -5.521 178.626 -4.264 178.632 C-0.925 178.642 2.413 178.629 5.752 178.606 C9.252 178.586 12.751 178.592 16.25 178.594 C22.127 178.594 28.004 178.574 33.881 178.542 C40.667 178.505 47.453 178.496 54.24 178.503 C60.777 178.51 67.313 178.499 73.85 178.479 C76.628 178.471 79.406 178.468 82.184 178.47 C86.067 178.471 89.949 178.447 93.832 178.42 C94.981 178.423 96.129 178.426 97.313 178.429 C105.114 178.402 105.114 178.402 112 175 C112.752 171.735 112.997 169.3 113 166 C113.015 164.456 113.015 164.456 113.03 162.88 C113.019 159.457 112.925 156.045 112.812 152.625 C112.794 151.451 112.775 150.276 112.756 149.066 C112.701 147.382 112.701 147.382 112.645 145.664 C112.604 144.14 112.604 144.14 112.562 142.584 C112.234 139.921 112.234 139.921 110.299 138.362 C107.523 136.717 105.862 136.623 102.649 136.619 C101.563 136.611 100.478 136.602 99.36 136.593 C98.175 136.599 96.989 136.606 95.768 136.612 C94.515 136.607 93.263 136.601 91.973 136.596 C88.541 136.585 85.109 136.588 81.677 136.597 C78.085 136.605 74.493 136.598 70.901 136.593 C64.868 136.587 58.836 136.595 52.803 136.609 C45.83 136.625 38.857 136.62 31.884 136.603 C25.895 136.59 19.907 136.588 13.919 136.596 C10.343 136.6 6.767 136.601 3.191 136.591 C-0.795 136.581 -4.781 136.595 -8.768 136.612 C-9.953 136.606 -11.139 136.6 -12.36 136.593 C-13.445 136.602 -14.531 136.61 -15.649 136.619 C-17.062 136.621 -17.062 136.621 -18.504 136.622 C-21.49 137.074 -22.863 137.885 -25 140 Z " fill="#0058BC" transform="translate(212,111)"/>
<path d="M0 0 C0.33 0 0.66 0 1 0 C0.416 13.269 -0.972 26.381 -2.562 39.562 C-2.799 41.557 -3.036 43.551 -3.271 45.545 C-3.842 50.364 -4.419 55.182 -5 60 C-5.33 60 -5.66 60 -6 60 C-6.167 51.987 -5.742 44.269 -4.688 36.328 C-4.554 35.28 -4.421 34.231 -4.284 33.151 C-3.863 29.85 -3.432 26.55 -3 23.25 C-2.71 20.992 -2.421 18.734 -2.133 16.477 C-1.43 10.983 -0.718 5.491 0 0 Z " fill="#055BB6" transform="translate(186,130)"/>
<path d="M0 0 C0.33 0 0.66 0 1 0 C1 2.64 1 5.28 1 8 C0.67 8 0.34 8 0 8 C0 5.36 0 2.72 0 0 Z " fill="#055BB3" transform="translate(187,122)"/>
<path d="M0 0 C0.33 0 0.66 0 1 0 C1 2.31 1 4.62 1 7 C0.67 7 0.34 7 0 7 C0 4.69 0 2.38 0 0 Z " fill="#095CB2" transform="translate(188,115)"/>
<path d="M0 0 C0.33 0 0.66 0 1 0 C1 1.98 1 3.96 1 6 C0.67 6 0.34 6 0 6 C0 4.02 0 2.04 0 0 Z " fill="#015EBE" transform="translate(323,115)"/>
<path d="M0 0 C0.33 0 0.66 0 1 0 C1 1.65 1 3.3 1 5 C0.67 5 0.34 5 0 5 C0 3.35 0 1.7 0 0 Z " fill="#946C05" transform="translate(212,413)"/>
<path d="M0 0 C2 1 2 1 2 1 Z " fill="#606059" transform="translate(212,425)"/>
<path d="" fill="#D7B984" transform="translate(0,0)"/>
<path d="" fill="#C49540" transform="translate(0,0)"/>
<path d="" fill="#A29271" transform="translate(0,0)"/>
<path d="" fill="#A89368" transform="translate(0,0)"/>
<path d="" fill="#F0D6A0" transform="translate(0,0)"/>
<path d="" fill="#0C61BA" transform="translate(0,0)"/>
<path d="" fill="#1761AD" transform="translate(0,0)"/>
</svg>
