<?xml version="1.0" encoding="UTF-8"?>
<!-- Generator: visioncortex VTracer 0.6.4 -->
<svg version="1.1" xmlns="http://www.w3.org/2000/svg" width="512" height="512">
<path d="M0 0 C1.085 -0.008 2.17 -0.017 3.288 -0.026 C4.474 -0.02 5.659 -0.013 6.881 -0.007 C8.133 -0.012 9.386 -0.018 10.676 -0.023 C14.108 -0.034 17.539 -0.032 20.971 -0.022 C24.564 -0.014 28.156 -0.021 31.748 -0.026 C37.781 -0.032 43.813 -0.024 49.845 -0.01 C56.819 0.006 63.792 0.001 70.765 -0.016 C76.753 -0.029 82.741 -0.031 88.73 -0.023 C92.306 -0.019 95.882 -0.018 99.458 -0.028 C103.444 -0.038 107.43 -0.024 111.416 -0.007 C112.602 -0.013 113.787 -0.019 115.009 -0.026 C116.094 -0.017 117.179 -0.009 118.297 0 C119.711 0.002 119.711 0.002 121.153 0.003 C124.134 0.454 125.507 1.279 127.649 3.381 C128.226 6.488 128.226 6.488 128.328 10.279 C128.35 10.951 128.371 11.623 128.393 12.316 C128.434 13.736 128.465 15.157 128.487 16.577 C128.523 18.742 128.591 20.904 128.664 23.068 C128.985 35.483 128.985 35.483 126.649 39.381 C123.115 41.141 120.219 41.635 116.297 41.655 C115.238 41.665 114.178 41.675 113.086 41.685 C111.934 41.686 110.781 41.687 109.594 41.687 C108.372 41.696 107.151 41.704 105.892 41.713 C102.549 41.733 99.206 41.743 95.863 41.748 C93.773 41.752 91.684 41.758 89.594 41.765 C82.3 41.79 75.007 41.803 67.713 41.806 C60.919 41.81 54.124 41.84 47.33 41.882 C41.491 41.917 35.653 41.932 29.814 41.933 C26.329 41.934 22.844 41.942 19.359 41.971 C15.474 42.002 11.589 41.993 7.703 41.98 C6.551 41.995 5.399 42.01 4.211 42.025 C-3.556 41.954 -3.556 41.954 -7.565 39.065 C-9.854 35.626 -10.058 32.783 -9.98 28.779 C-9.983 28.061 -9.985 27.343 -9.988 26.603 C-9.987 25.092 -9.973 23.58 -9.948 22.069 C-9.914 19.755 -9.928 17.445 -9.947 15.131 C-9.94 13.66 -9.931 12.188 -9.918 10.717 C-9.923 10.026 -9.928 9.336 -9.933 8.624 C-9.815 3.84 -9.815 3.84 -7.653 1.699 C-4.88 0.111 -3.184 0.004 0 0 Z " fill="#1B1A24" transform="translate(196.3514404296875,247.61904907226563)"/>
<path d="M0 0 C0.99 0.495 0.99 0.495 2 1 C2.192 5.359 2.371 9.719 2.537 14.08 C2.595 15.563 2.658 17.046 2.724 18.529 C2.818 20.661 2.899 22.793 2.977 24.926 C3.029 26.209 3.081 27.492 3.135 28.814 C3 32 3 32 1 35 C-0.188 31.267 -0.114 27.725 -0.098 23.828 C-0.096 23.146 -0.095 22.463 -0.093 21.76 C-0.088 19.59 -0.075 17.42 -0.062 15.25 C-0.057 13.775 -0.053 12.299 -0.049 10.824 C-0.038 7.216 -0.021 3.608 0 0 Z " fill="#0D0D17" transform="translate(322,250)"/>
<path d="M0 0 C0.33 0 0.66 0 1 0 C1.222 2.103 1.427 4.207 1.625 6.312 C1.741 7.484 1.857 8.656 1.977 9.863 C2 13 2 13 0 16 C-1.163 12.45 -0.924 9.442 -0.562 5.75 C-0.461 4.672 -0.359 3.595 -0.254 2.484 C-0.17 1.665 -0.086 0.845 0 0 Z " fill="#0A1122" transform="translate(323,269)"/>
</svg>
