<?xml version="1.0" encoding="UTF-8"?>
<!-- Generator: visioncortex VTracer 0.6.4 -->
<svg version="1.1" xmlns="http://www.w3.org/2000/svg" width="512" height="512">
<path d="M0 0 C3.055 2.053 3.966 4.929 5.188 8.312 C5.532 9.237 5.876 10.161 6.23 11.113 C7.051 14.193 7.136 16.827 7 20 C-6.909 27.154 -21.095 33.718 -35.289 40.281 C-38.759 41.887 -42.224 43.506 -45.688 45.125 C-47.666 46.042 -49.646 46.959 -51.625 47.875 C-52.974 48.509 -52.974 48.509 -54.35 49.156 C-55.176 49.535 -56.001 49.914 -56.852 50.305 C-57.561 50.635 -58.271 50.964 -59.002 51.304 C-61 52 -61 52 -65 52 C-66.879 48.242 -66.314 43.761 -66.375 39.625 C-66.412 38.666 -66.45 37.707 -66.488 36.719 C-66.5 35.793 -66.511 34.868 -66.523 33.914 C-66.543 33.068 -66.563 32.222 -66.583 31.35 C-65.712 27.84 -63.999 26.96 -61 25 C-58.315 23.528 -55.571 22.213 -52.797 20.918 C-52.001 20.541 -51.205 20.163 -50.385 19.775 C-48.698 18.977 -47.011 18.183 -45.321 17.392 C-42.796 16.209 -40.277 15.015 -37.758 13.818 C-29.781 10.047 -21.763 6.374 -13.641 2.926 C-12.956 2.627 -12.272 2.329 -11.567 2.021 C-7.565 0.358 -4.33 -0.421 0 0 Z " fill="#252435" transform="translate(338,116)"/>
<path d="M0 0 C0.99 1.485 0.99 1.485 2 3 C1.408 3.11 0.817 3.219 0.207 3.332 C-4.495 4.275 -7.932 5.393 -12 8 C-13.877 8.692 -15.754 9.382 -17.637 10.059 C-22.58 12.028 -27.268 14.576 -32 17 C-37.609 19.848 -43.217 22.521 -49 25 C-50.691 25.847 -52.378 26.702 -54.062 27.562 C-57.641 29.376 -61.133 30.881 -65 32 C-64.887 29.715 -64.887 29.715 -64 27 C-61.908 25.564 -60.104 24.586 -57.812 23.562 C-57.134 23.242 -56.456 22.921 -55.757 22.591 C-54.149 21.834 -52.537 21.087 -50.922 20.346 C-47.498 18.769 -44.091 17.158 -40.684 15.547 C-33.141 11.99 -25.595 8.443 -18 5 C-16.884 4.493 -15.769 3.985 -14.619 3.462 C-13.052 2.775 -13.052 2.775 -11.453 2.074 C-10.542 1.672 -9.631 1.269 -8.692 0.854 C-5.596 -0.128 -3.228 -0.368 0 0 Z " fill="#090915" transform="translate(338,116)"/>
</svg>
