<?xml version="1.0" encoding="UTF-8"?>
<!-- Generator: visioncortex VTracer 0.6.4 -->
<svg version="1.1" xmlns="http://www.w3.org/2000/svg" width="512" height="512">
<path d="M0 0 C8.292 6.12 12.882 18.353 17.625 27.25 C18.868 29.571 20.111 31.891 21.355 34.211 C21.971 35.359 22.586 36.507 23.22 37.69 C25.77 42.431 28.352 47.154 30.938 51.875 C38.041 64.873 45.063 77.913 52 91 C52.455 91.855 52.91 92.71 53.378 93.59 C65.719 116.903 65.719 116.903 64 127 C59.719 132.147 53.31 134.526 46.727 135.25 C44.812 135.25 44.812 135.25 42 135 C40.825 132.231 39.89 129.574 39.133 126.656 C38.034 123.111 36.767 120.654 34.75 117.562 C30.863 111.464 27.192 105.254 23.562 99 C22.349 96.913 21.136 94.825 19.922 92.738 C19.288 91.649 18.655 90.559 18.002 89.436 C14.817 83.969 11.612 78.513 8.409 73.056 C2.308 62.662 -3.773 52.257 -9.801 41.82 C-10.172 41.181 -10.542 40.542 -10.925 39.883 C-11.655 38.604 -12.37 37.315 -13.07 36.019 C-15.487 31.583 -17.76 29.706 -22 27 C-25.658 21.842 -26.913 16.278 -27 10 C-24.025 5.24 -19.041 3.176 -14 1 C-13.01 0.567 -12.02 0.134 -11 -0.312 C-7.07 -1.213 -3.862 -1.204 0 0 Z " fill="#8A8C8E" transform="translate(397,161)"/>
</svg>
