<?xml version="1.0" encoding="UTF-8"?>
<!-- Generator: visioncortex VTracer 0.6.4 -->
<svg version="1.1" xmlns="http://www.w3.org/2000/svg" width="512" height="512">
<path d="M0 0 C1.314 2.164 2.067 3.432 1.766 5.988 C0.009 10.603 -5.84 12.438 -10.023 14.465 C-19.021 18.475 -19.021 18.475 -24 17 C-24.75 14.25 -24.75 14.25 -25 11 C-21.881 6.874 -17.687 5.215 -13.062 3.25 C-12.359 2.934 -11.656 2.618 -10.932 2.293 C-7.157 0.659 -4.197 -0.427 0 0 Z " fill="#00A6E9" transform="translate(350,143)"/>
<path d="M0 0 C-1.456 0.671 -2.915 1.337 -4.375 2 C-5.593 2.557 -5.593 2.557 -6.836 3.125 C-9 4 -9 4 -11 4 C-11 3.34 -11 2.68 -11 2 C-10.01 2 -9.02 2 -8 2 C-8 1.34 -8 0.68 -8 0 C-4.906 -0.994 -3.097 -0.878 0 0 Z " fill="#0092DA" transform="translate(345,155)"/>
</svg>
