<?xml version="1.0" encoding="UTF-8"?>
<!-- Generator: visioncortex VTracer 0.6.4 -->
<svg version="1.1" xmlns="http://www.w3.org/2000/svg" width="512" height="512">
<path d="M0 0 C0.486 5.348 0.486 5.348 -1.422 7.906 C-5.121 10.91 -9.192 12.755 -13.5 14.75 C-14.355 15.161 -15.209 15.572 -16.09 15.996 C-22.487 19 -22.487 19 -27 19 C-27.586 13.141 -27.586 13.141 -27 11 C-22.456 7.297 -17.143 5.052 -11.812 2.688 C-11.006 2.316 -10.2 1.944 -9.369 1.561 C-8.594 1.214 -7.818 0.868 -7.02 0.512 C-6.319 0.197 -5.619 -0.118 -4.898 -0.443 C-3 -1 -3 -1 0 0 Z " fill="#00A5D9" transform="translate(244,190)"/>
</svg>
