<?xml version="1.0" encoding="UTF-8"?>
<!-- Generator: visioncortex VTracer 0.6.4 -->
<svg version="1.1" xmlns="http://www.w3.org/2000/svg" width="512" height="512">
<path d="M0 0 C3.376 3.645 5.413 5.919 6.637 10.812 C9.937 10.483 13.237 10.153 16.637 9.812 C16.967 8.822 17.297 7.833 17.637 6.812 C19.303 8.479 20.97 10.146 22.637 11.812 C23.601 12.702 23.601 12.702 24.585 13.61 C26.962 16.161 28.507 18.759 30.211 21.801 C30.536 22.376 30.861 22.951 31.196 23.543 C31.887 24.768 32.575 25.994 33.261 27.221 C35.052 30.427 36.863 33.621 38.672 36.816 C39.023 37.439 39.375 38.062 39.737 38.704 C42.833 44.181 46.053 49.57 49.316 54.949 C53.016 61.072 56.583 67.274 60.179 73.458 C64.895 81.559 69.658 89.632 74.462 97.682 C81.637 109.759 81.637 109.759 81.637 112.812 C75.055 115.689 68.636 117.127 61.637 114.812 C58.937 112.508 57.335 109.903 55.637 106.812 C55.226 106.124 54.814 105.436 54.391 104.727 C53.437 103.109 52.531 101.464 51.637 99.812 C42.632 101.804 34.213 104.701 25.637 108.062 C23.072 109.055 20.505 110.042 17.938 111.027 C17.309 111.269 16.68 111.511 16.032 111.761 C10.664 113.819 5.26 115.754 -0.176 117.625 C-8.631 120.537 -17.008 123.627 -25.363 126.812 C-25.418 128.625 -25.457 130.437 -25.488 132.25 C-25.511 133.259 -25.535 134.269 -25.559 135.309 C-25.395 138.236 -25.005 140.696 -24.351 143.531 C-24.167 144.335 -23.983 145.139 -23.794 145.967 C-23.581 146.88 -23.581 146.88 -23.363 147.812 C-24.274 148.127 -24.274 148.127 -25.203 148.449 C-31.629 150.672 -38.055 152.895 -44.481 155.118 C-46.867 155.944 -49.252 156.769 -51.638 157.594 C-53.955 158.396 -56.272 159.197 -58.589 160 C-60.884 160.793 -63.178 161.584 -65.474 162.373 C-70.78 164.2 -76.066 166.059 -81.318 168.035 C-82.688 168.542 -82.688 168.542 -84.085 169.059 C-85.766 169.684 -87.442 170.323 -89.112 170.98 C-92.863 172.362 -94.771 172.936 -98.775 172.104 C-101.631 170.679 -103.168 169.278 -105.176 166.812 C-106.052 165.761 -106.052 165.761 -106.945 164.688 C-108.363 162.812 -108.363 162.812 -109.363 160.812 C-114.27 161.395 -118.686 162.415 -123.363 164 C-124.342 164.33 -124.342 164.33 -125.34 164.667 C-129.72 166.169 -133.973 167.884 -138.238 169.688 C-148.952 174.078 -160.201 176.806 -171.363 179.812 C-175.704 180.684 -175.704 180.684 -179.363 182.812 C-179.464 185.407 -179.502 187.969 -179.488 190.562 C-179.492 191.279 -179.496 191.996 -179.5 192.734 C-179.493 196.553 -179.284 200.102 -178.363 203.812 C-180.449 204.68 -180.449 204.68 -183.363 204.812 C-185.818 202.927 -187.838 201.126 -189.988 198.938 C-191.234 197.723 -192.483 196.51 -193.734 195.301 C-194.656 194.403 -194.656 194.403 -195.597 193.487 C-197.977 191.23 -200.489 189.171 -203.051 187.125 C-207.748 183.363 -212.173 179.37 -216.598 175.293 C-219.368 172.808 -222.214 170.458 -225.113 168.125 C-229.484 164.6 -233.514 160.898 -237.363 156.812 C-233.352 156.812 -231.62 158.574 -228.363 160.812 C-219.731 163.69 -211.344 161.61 -203.363 157.812 C-187.769 149.856 -175.736 135.96 -169.148 119.84 C-166.937 112.757 -165.279 104.084 -168.641 97.195 C-170.187 94.826 -170.187 94.826 -171.855 92.75 C-174.009 89.983 -175.375 88.028 -175.34 84.453 C-175.224 83.664 -175.108 82.875 -174.988 82.062 C-174.877 81.263 -174.767 80.464 -174.652 79.641 C-174.557 79.037 -174.462 78.434 -174.363 77.812 C-174.033 77.812 -173.703 77.812 -173.363 77.812 C-173.363 80.452 -173.363 83.092 -173.363 85.812 C-167.384 83.88 -161.507 81.779 -155.676 79.438 C-154.844 79.104 -154.013 78.771 -153.156 78.428 C-141.339 73.646 -129.666 68.511 -117.997 63.382 C-115.486 62.297 -112.976 61.243 -110.44 60.22 C-109.803 59.959 -109.165 59.697 -108.508 59.428 C-106.743 58.708 -104.974 57.999 -103.205 57.292 C-100.262 55.76 -99 54.66 -97.363 51.812 C-96.756 49.113 -96.756 49.113 -96.488 46.188 C-93.975 29.371 -80.427 15.768 -67.363 5.812 C-65.05 4.385 -62.761 3.084 -60.363 1.812 C-58.791 0.969 -58.791 0.969 -57.188 0.109 C-39.751 -9.053 -16.236 -15.028 0 0 Z M-76.426 26 C-76.857 26.568 -77.288 27.136 -77.732 27.721 C-84.931 37.421 -89.386 46.941 -87.891 59.152 C-86.445 66.447 -82.183 71.604 -77.504 77.219 C-76.073 78.953 -74.687 80.725 -73.348 82.531 C-67.994 89.697 -63.253 93.381 -54.363 94.812 C-37.548 96.108 -23.527 90.937 -10.711 80.054 C-0.353 70.832 9.691 58.033 10.793 43.793 C11.217 33.418 6.656 26.924 0.637 18.812 C0.139 18.085 -0.358 17.358 -0.871 16.609 C-6.226 8.943 -13.015 3.506 -22.363 1.812 C-43.009 -0.601 -63.986 9.512 -76.426 26 Z " fill="#000001" transform="translate(356.36328125,178.1875)"/>
<path d="M0 0 C0.33 0 0.66 0 1 0 C1.073 0.957 1.073 0.957 1.148 1.934 C1.223 2.76 1.298 3.586 1.375 4.438 C1.445 5.261 1.514 6.085 1.586 6.934 C1.723 7.616 1.859 8.297 2 9 C2.66 9.33 3.32 9.66 4 10 C4.531 11.877 4.976 13.778 5.375 15.688 C6.531 20.662 7.811 24.041 11 28 C8.096 26.679 5.957 25.23 3.652 23.031 C3.047 22.46 2.442 21.889 1.818 21.301 C1.198 20.707 0.577 20.112 -0.062 19.5 C-1.302 18.321 -2.542 17.144 -3.785 15.969 C-4.331 15.447 -4.876 14.926 -5.438 14.389 C-7.159 12.794 -7.159 12.794 -10 11 C-9.67 8.69 -9.34 6.38 -9 4 C-8.67 5.32 -8.34 6.64 -8 8 C-6.02 7.67 -4.04 7.34 -2 7 C-1.34 4.69 -0.68 2.38 0 0 Z " fill="#030E1B" transform="translate(97,296)"/>
<path d="M0 0 C-0.33 2.31 -0.66 4.62 -1 7 C-1.66 6.67 -2.32 6.34 -3 6 C-2.67 5.34 -2.34 4.68 -2 4 C-3.65 4 -5.3 4 -7 4 C-2.25 0 -2.25 0 0 0 Z " fill="#0056BA" transform="translate(112,248)"/>
<path d="M0 0 C2 3 2 3 2 5 C0.35 5.33 -1.3 5.66 -3 6 C-3.66 5.01 -4.32 4.02 -5 3 C-3.35 3 -1.7 3 0 3 C0 2.01 0 1.02 0 0 Z " fill="#0B182A" transform="translate(176,377)"/>
<path d="M0 0 C0.66 0 1.32 0 2 0 C1.67 2.31 1.34 4.62 1 7 C0.67 7 0.34 7 0 7 C-0.381 5.009 -0.713 3.007 -1 1 C-0.67 0.67 -0.34 0.34 0 0 Z " fill="#276BB5" transform="translate(89,292)"/>
<path d="M0 0 C3.875 1.75 3.875 1.75 5 4 C1.125 2.25 1.125 2.25 0 0 Z " fill="#070708" transform="translate(112,328)"/>
<path d="M0 0 C1.98 0.99 1.98 0.99 4 2 C3.01 2 2.02 2 1 2 C0.67 2.66 0.34 3.32 0 4 C0 2.68 0 1.36 0 0 Z " fill="#005ABC" transform="translate(80,272)"/>
<path d="M0 0 C0.66 0.33 1.32 0.66 2 1 C1.01 1.99 0.02 2.98 -1 4 C-0.67 2.68 -0.34 1.36 0 0 Z " fill="#003069" transform="translate(105,280)"/>
<path d="M0 0 C0.66 1.32 1.32 2.64 2 4 C1.34 4 0.68 4 0 4 C0 2.68 0 1.36 0 0 Z " fill="#075CB7" transform="translate(79,276)"/>
<path d="M0 0 C0 0.66 0 1.32 0 2 C-1.32 1.67 -2.64 1.34 -4 1 C-2 0 -2 0 0 0 Z " fill="#0054B6" transform="translate(119,245)"/>
<path d="M0 0 C1 4 1 4 1 4 Z " fill="#1164BE" transform="translate(94,284)"/>
<path d="M0 0 C0.99 0.33 1.98 0.66 3 1 C2.01 1.33 1.02 1.66 0 2 C0 1.34 0 0.68 0 0 Z " fill="#01387C" transform="translate(137,249)"/>
<path d="M0 0 C0.66 0.66 1.32 1.32 2 2 C1.34 2 0.68 2 0 2 C0 1.34 0 0.68 0 0 Z " fill="#09090A" transform="translate(117,332)"/>
<path d="M0 0 C0.33 0.66 0.66 1.32 1 2 C0.34 1.67 -0.32 1.34 -1 1 C-0.67 0.67 -0.34 0.34 0 0 Z " fill="#0057BB" transform="translate(86,261)"/>
<path d="M0 0 C3 1 3 1 3 1 Z " fill="#031430" transform="translate(150,244)"/>
<path d="" fill="#4D7EAC" transform="translate(0,0)"/>
<path d="M0 0 C2 1 2 1 2 1 Z " fill="#A69980" transform="translate(84,292)"/>
<path d="" fill="#02122C" transform="translate(0,0)"/>
<path d="" fill="#021530" transform="translate(0,0)"/>
<path d="M0 0 C2 1 2 1 2 1 Z " fill="#012551" transform="translate(121,262)"/>
<path d="M0 0 C2 1 2 1 2 1 Z " fill="#001632" transform="translate(128,256)"/>
<path d="" fill="#02234C" transform="translate(0,0)"/>
<path d="M0 0 C2 1 2 1 2 1 Z " fill="#012551" transform="translate(132,253)"/>
<path d="M0 0 C2 1 2 1 2 1 Z " fill="#0A4C9B" transform="translate(112,247)"/>
<path d="" fill="#78828E" transform="translate(0,0)"/>
<path d="" fill="#020202" transform="translate(0,0)"/>
<path d="" fill="#020202" transform="translate(0,0)"/>
<path d="" fill="#030304" transform="translate(0,0)"/>
<path d="" fill="#010101" transform="translate(0,0)"/>
<path d="" fill="#020F1E" transform="translate(0,0)"/>
<path d="" fill="#4585CC" transform="translate(0,0)"/>
<path d="" fill="#3986CD" transform="translate(0,0)"/>
<path d="" fill="#010918" transform="translate(0,0)"/>
<path d="" fill="#020D1C" transform="translate(0,0)"/>
<path d="" fill="#0A5BB3" transform="translate(0,0)"/>
<path d="" fill="#01162F" transform="translate(0,0)"/>
<path d="" fill="#0D5FBC" transform="translate(0,0)"/>
<path d="" fill="#020A15" transform="translate(0,0)"/>
<path d="" fill="#020E1E" transform="translate(0,0)"/>
<path d="" fill="#020B17" transform="translate(0,0)"/>
<path d="" fill="#0055B4" transform="translate(0,0)"/>
<path d="" fill="#012D63" transform="translate(0,0)"/>
<path d="" fill="#0057BA" transform="translate(0,0)"/>
<path d="" fill="#0058BB" transform="translate(0,0)"/>
<path d="" fill="#020811" transform="translate(0,0)"/>
<path d="" fill="#020C1B" transform="translate(0,0)"/>
<path d="" fill="#0057BA" transform="translate(0,0)"/>
<path d="" fill="#011227" transform="translate(0,0)"/>
<path d="" fill="#0055B6" transform="translate(0,0)"/>
<path d="" fill="#011837" transform="translate(0,0)"/>
<path d="" fill="#011A3C" transform="translate(0,0)"/>
<path d="" fill="#0058BD" transform="translate(0,0)"/>
<path d="" fill="#0057BD" transform="translate(0,0)"/>
<path d="" fill="#010A16" transform="translate(0,0)"/>
<path d="" fill="#0056BB" transform="translate(0,0)"/>
<path d="" fill="#0055B8" transform="translate(0,0)"/>
<path d="" fill="#0052B2" transform="translate(0,0)"/>
<path d="" fill="#021124" transform="translate(0,0)"/>
<path d="" fill="#012149" transform="translate(0,0)"/>
<path d="" fill="#0057BD" transform="translate(0,0)"/>
<path d="" fill="#030F26" transform="translate(0,0)"/>
<path d="" fill="#021F3F" transform="translate(0,0)"/>
<path d="" fill="#021F41" transform="translate(0,0)"/>
<path d="" fill="#051228" transform="translate(0,0)"/>
<path d="" fill="#041227" transform="translate(0,0)"/>
<path d="" fill="#021732" transform="translate(0,0)"/>
<path d="" fill="#01142E" transform="translate(0,0)"/>
<path d="" fill="#03152D" transform="translate(0,0)"/>
<path d="" fill="#030407" transform="translate(0,0)"/>
<path d="" fill="#02050C" transform="translate(0,0)"/>
<path d="" fill="#5D81A5" transform="translate(0,0)"/>
<path d="" fill="#BB9E63" transform="translate(0,0)"/>
<path d="" fill="#AD9C78" transform="translate(0,0)"/>
<path d="" fill="#AB9C7C" transform="translate(0,0)"/>
<path d="" fill="#A99D82" transform="translate(0,0)"/>
<path d="" fill="#286AA2" transform="translate(0,0)"/>
<path d="" fill="#005AB7" transform="translate(0,0)"/>
<path d="" fill="#005BB6" transform="translate(0,0)"/>
<path d="" fill="#6D7680" transform="translate(0,0)"/>
</svg>
