<?xml version="1.0" encoding="UTF-8"?>
<!-- Generator: visioncortex VTracer 0.6.4 -->
<svg version="1.1" xmlns="http://www.w3.org/2000/svg" width="512" height="512">
<path d="M0 0 C3.016 1.689 4.292 3.099 6.375 5.75 C7.757 10.726 6.468 14.952 4.438 19.5 C-0.288 26.928 -6.483 32.522 -15 35 C-19.954 36.079 -23.677 36.473 -28.5 34.75 C-31 33 -31 33 -33 30 C-33.669 24.608 -33.773 19.64 -31.438 14.688 C-30.633 13.801 -29.829 12.914 -29 12 C-28.514 11.428 -28.028 10.855 -27.527 10.266 C-20.055 1.999 -11.165 -1.798 0 0 Z " fill="#8B8D90" transform="translate(323,198)"/>
</svg>
