<?xml version="1.0" encoding="UTF-8"?>
<!-- Generator: visioncortex VTracer 0.6.4 -->
<svg version="1.1" xmlns="http://www.w3.org/2000/svg" width="512" height="512">
<path d="M0 0 C1.485 2.358 2.793 4.656 4.062 7.125 C4.589 8.103 4.589 8.103 5.127 9.102 C10.182 18.733 11.304 26.902 8.5 37.375 C6.211 44.283 2.672 49.48 -2 55 C-2.572 55.719 -3.145 56.439 -3.734 57.18 C-11.721 66.261 -25.127 72.126 -37.055 73.301 C-46.682 73.341 -54.687 72.202 -61.852 65.359 C-79.21 46.297 -79.21 46.297 -79.062 32.75 C-79.049 31.134 -79.049 31.134 -79.035 29.484 C-79.024 28.665 -79.012 27.845 -79 27 C-72.796 23.912 -66.523 21.429 -59.938 19.312 C-52.241 16.835 -44.717 14.006 -37.188 11.062 C-28.863 7.824 -20.521 4.684 -12.062 1.812 C-11.187 1.509 -10.311 1.206 -9.409 0.893 C-8.203 0.491 -8.203 0.491 -6.973 0.082 C-6.274 -0.153 -5.575 -0.388 -4.856 -0.63 C-3 -1 -3 -1 0 0 Z " fill="#1A1E22" transform="translate(409,278)"/>
</svg>
