<?xml version="1.0" encoding="UTF-8"?>
<!-- Generator: visioncortex VTracer 0.6.4 -->
<svg version="1.1" xmlns="http://www.w3.org/2000/svg" width="512" height="512">
<path d="M0 0 C0.665 -0.005 1.331 -0.011 2.016 -0.016 C4.216 -0.029 6.416 -0.02 8.616 -0.01 C10.146 -0.012 11.677 -0.015 13.208 -0.019 C16.418 -0.023 19.627 -0.017 22.836 -0.003 C26.945 0.014 31.052 0.004 35.16 -0.014 C38.322 -0.025 41.484 -0.021 44.647 -0.013 C46.161 -0.011 47.675 -0.014 49.189 -0.021 C51.31 -0.028 53.43 -0.017 55.551 0 C56.756 0.002 57.962 0.005 59.204 0.007 C62.72 0.426 64.581 1.294 67.405 3.388 C70.295 7.152 71.001 10.574 71.643 15.228 C71.732 15.873 71.822 16.517 71.914 17.181 C72.098 18.538 72.277 19.895 72.45 21.253 C72.716 23.319 73.01 25.379 73.305 27.441 C73.482 28.766 73.657 30.09 73.831 31.416 C73.99 32.609 74.148 33.803 74.312 35.032 C74.413 38.702 74.019 41.092 72.405 44.388 C68.942 45.758 65.297 45.522 61.62 45.533 C60.946 45.537 60.273 45.54 59.579 45.544 C57.357 45.553 55.135 45.555 52.913 45.556 C51.363 45.559 49.814 45.563 48.265 45.566 C45.018 45.572 41.772 45.574 38.525 45.573 C34.374 45.573 30.222 45.587 26.071 45.604 C22.871 45.615 19.671 45.617 16.471 45.617 C14.941 45.618 13.411 45.622 11.881 45.63 C9.736 45.64 7.592 45.637 5.448 45.631 C3.621 45.633 3.621 45.633 1.757 45.635 C-1.723 45.379 -4.4 44.784 -7.595 43.388 C-10.127 39.59 -9.901 36.509 -9.896 32.107 C-9.9 31.297 -9.905 30.487 -9.909 29.653 C-9.915 27.941 -9.915 26.23 -9.911 24.519 C-9.908 21.898 -9.931 19.278 -9.957 16.658 C-9.959 14.995 -9.96 13.332 -9.958 11.669 C-9.972 10.493 -9.972 10.493 -9.986 9.292 C-9.941 3.919 -9.941 3.919 -8.484 1.682 C-5.671 -0.245 -3.386 0.007 0 0 Z " fill="#252434" transform="translate(331.59521484375,187.61181640625)"/>
<path d="M0 0 C0.998 -0.007 0.998 -0.007 2.015 -0.015 C4.226 -0.03 6.437 -0.036 8.647 -0.042 C10.181 -0.048 11.715 -0.053 13.248 -0.059 C16.47 -0.07 19.691 -0.076 22.913 -0.079 C27.036 -0.085 31.16 -0.109 35.284 -0.137 C38.454 -0.156 41.625 -0.161 44.796 -0.162 C46.316 -0.165 47.835 -0.173 49.355 -0.187 C51.486 -0.204 53.616 -0.202 55.746 -0.195 C56.958 -0.199 58.169 -0.203 59.418 -0.206 C62.938 0.196 64.818 1.046 67.632 3.161 C68.127 4.151 68.127 4.151 68.632 5.161 C42.892 5.161 17.152 5.161 -9.368 5.161 C-6.522 -0.532 -6.18 0.035 0 0 Z " fill="#08060D" transform="translate(331.3681640625,187.8388671875)"/>
<path d="M0 0 C0.66 0.33 1.32 0.66 2 1 C1.67 1.33 1.34 1.66 1 2 C1.86 2.008 2.72 2.016 3.606 2.025 C11.699 2.102 19.793 2.19 27.886 2.288 C32.047 2.338 36.208 2.384 40.369 2.422 C44.383 2.459 48.396 2.505 52.41 2.558 C53.943 2.577 55.477 2.592 57.01 2.603 C59.153 2.62 61.296 2.649 63.439 2.681 C64.66 2.694 65.882 2.708 67.14 2.722 C70 3 70 3 72 5 C47.25 5 22.5 5 -3 5 C-1 1 -1 1 0 0 Z " fill="#0F0F1A" transform="translate(325,188)"/>
</svg>
