<?xml version="1.0" encoding="UTF-8"?>
<!-- Generator: visioncortex VTracer 0.6.4 -->
<svg version="1.1" xmlns="http://www.w3.org/2000/svg" width="512" height="512">
<path d="M0 0 C1 3 1.116 4.974 1.098 8.105 C1.094 9.088 1.091 10.071 1.088 11.084 C1.08 12.108 1.071 13.132 1.062 14.188 C1.058 15.223 1.053 16.259 1.049 17.326 C1.037 19.884 1.021 22.442 1 25 C-7.481 26.052 -15.495 25.807 -24 25 C-26.158 19.75 -26.24 15.192 -26.125 9.625 C-26.116 8.794 -26.107 7.962 -26.098 7.105 C-26.074 5.07 -26.038 3.035 -26 1 C-17.808 -1.731 -8.442 -1.31 0 0 Z " fill="#949698" transform="translate(450,302)"/>
</svg>
