<?xml version="1.0" encoding="UTF-8"?>
<!-- Generator: visioncortex VTracer 0.6.4 -->
<svg version="1.1" xmlns="http://www.w3.org/2000/svg" width="512" height="512">
<path d="M0 0 C3.476 2.86 6.762 5.875 10 9 C10.581 9.544 11.163 10.088 11.762 10.648 C17.811 16.904 22.017 25.56 22.293 34.301 C22.059 47.969 17.8 59.503 8.562 69.688 C7.717 70.451 6.871 71.214 6 72 C5.511 72.481 5.023 72.962 4.52 73.457 C-4.764 82.167 -15.576 84.502 -27.883 84.277 C-39.7 83.733 -50.034 76.786 -58.074 68.488 C-67.181 56.721 -69.492 43.542 -69 29 C-67.628 21.33 -63.573 15.181 -59 9 C-58.134 7.701 -58.134 7.701 -57.25 6.375 C-42.758 -8.922 -17.408 -12.532 0 0 Z M-39.438 24.188 C-43.574 29.588 -44.264 35.407 -43.938 42.062 C-43.113 48.097 -40.789 52.508 -36.242 56.57 C-31.199 60.143 -26.145 61.314 -20 61 C-13.51 59.877 -8.861 56.237 -5 51 C-1.49 44.608 -1.323 38.009 -3 31 C-5.526 24.851 -9.413 21.414 -15 18 C-23.933 15.022 -32.931 17.396 -39.438 24.188 Z " fill="#293038" transform="translate(383,287)"/>
<path d="M0 0 C-0.664 0.315 -1.328 0.629 -2.012 0.953 C-13.422 6.483 -20.736 13.139 -25.562 25 C-25.976 26.011 -26.39 27.021 -26.816 28.062 C-27.882 30.707 -28.944 33.352 -30 36 C-30.66 35.67 -31.32 35.34 -32 35 C-28.961 20.979 -22.316 10.713 -10.5 2.516 C-4.098 -1.366 -4.098 -1.366 0 0 Z " fill="#1B2026" transform="translate(346,283)"/>
</svg>
