<?xml version="1.0" encoding="UTF-8"?>
<!-- Generator: visioncortex VTracer 0.6.4 -->
<svg version="1.1" xmlns="http://www.w3.org/2000/svg" width="512" height="512">
<path d="M0 0 C3.583 -0.663 7.238 -0.463 10.875 -0.438 C12.385 -0.467 12.385 -0.467 13.926 -0.498 C21.244 -0.493 21.244 -0.493 24.672 1.742 C26.16 4.271 26.483 5.649 26.375 8.562 C26.356 9.709 26.356 9.709 26.336 10.879 C26 13 26 13 24 16 C20.417 16.663 16.762 16.463 13.125 16.438 C11.615 16.467 11.615 16.467 10.074 16.498 C2.756 16.493 2.756 16.493 -0.672 14.258 C-2.16 11.729 -2.483 10.351 -2.375 7.438 C-2.362 6.673 -2.349 5.909 -2.336 5.121 C-2 3 -2 3 0 0 Z " fill="#00AAEB" transform="translate(384,244)"/>
<path d="M0 0 C6.625 -0.125 6.625 -0.125 10 1 C10 1.66 10 2.32 10 3 C3.477 3.369 3.477 3.369 1.062 1.5 C0.537 0.757 0.537 0.757 0 0 Z " fill="#009CDE" transform="translate(383,257)"/>
</svg>
