<?xml version="1.0" encoding="UTF-8"?>
<!-- Generator: visioncortex VTracer 0.6.4 -->
<svg version="1.1" xmlns="http://www.w3.org/2000/svg" width="512" height="512">
<path d="M0 0 C3.503 -0.367 5.867 -0.331 8.793 1.75 C16.089 9.531 19.836 19.258 22.094 29.504 C23.122 33.311 24.823 36.542 26.672 40.008 C28.816 44.253 30.301 48.786 31.32 53.43 C32.163 57.215 32.163 57.215 34.934 59.758 C38.244 60.462 41.511 60.859 44.883 61.137 C46.871 61.383 46.871 61.383 48.871 62.383 C48.132 73.652 44.588 85.484 35.934 93.258 C30.233 97.213 24.293 97.884 17.559 98.57 C16.755 98.665 15.951 98.76 15.123 98.857 C8.42 99.564 1.878 99.798 -4.316 96.883 C-15.276 87.141 -19.796 71.569 -21.129 57.383 C-21.425 51.048 -21.315 44.72 -21.129 38.383 C-21.789 38.053 -22.449 37.723 -23.129 37.383 C-17.238 10.373 -17.238 10.373 -8.129 2.383 C-5.315 0.915 -3.076 0.553 0 0 Z M-9.129 31.383 C-13.842 40.076 -13.437 51.64 -10.879 60.945 C-9.018 66.22 -6.879 70.216 -2.129 73.383 C0.382 73.448 0.382 73.448 2.871 72.383 C9.332 65.552 10.189 58.515 10.09 49.395 C9.441 40.467 7.267 32.778 0.871 26.383 C-4.166 25.43 -6.122 27.506 -9.129 31.383 Z " fill="#293038" transform="translate(237.12890625,281.6171875)"/>
<path d="M0 0 C6 9 6 9 6 13 C5.34 13 4.68 13 4 13 C3.324 11.588 2.66 10.17 2 8.75 C1.629 7.961 1.257 7.172 0.875 6.359 C0 4 0 4 0 0 Z " fill="#0F1115" transform="translate(259,314)"/>
</svg>
