<?xml version="1.0" encoding="UTF-8"?>
<!-- Generator: visioncortex VTracer 0.6.4 -->
<svg version="1.1" xmlns="http://www.w3.org/2000/svg" width="512" height="512">
<path d="M0 0 C2.438 0 2.438 0 5 1 C8.847 7.182 9.204 12.749 9.25 19.812 C9.271 20.594 9.291 21.376 9.312 22.182 C9.348 27.557 8.516 31.231 6 36 C5.34 36.66 4.68 37.32 4 38 C1.351 37.829 0.255 37.255 -1.625 35.375 C-4.903 29.713 -5.341 23.871 -5.312 17.5 C-5.329 16.779 -5.345 16.059 -5.361 15.316 C-5.366 10.156 -4.381 6.589 -2 2 C-1.34 1.34 -0.68 0.68 0 0 Z " fill="#878A8F" transform="translate(154,296)"/>
</svg>
