<?xml version="1.0" encoding="UTF-8"?>
<!-- Generator: visioncortex VTracer 0.6.4 -->
<svg version="1.1" xmlns="http://www.w3.org/2000/svg" width="512" height="512">
<path d="M0 0 C0.807 0.01 1.615 0.02 2.447 0.03 C16.463 0.309 30.469 1.275 44.455 2.186 C48.738 2.463 53.023 2.713 57.308 2.958 C60.634 3.153 63.959 3.368 67.284 3.589 C68.864 3.69 70.446 3.784 72.027 3.87 C74.227 3.99 76.423 4.14 78.621 4.298 C80.49 4.414 80.49 4.414 82.397 4.533 C86.504 5.523 88.068 7.055 90.68 10.324 C91.527 13.076 92.092 15.448 92.516 18.258 C92.644 19.013 92.773 19.769 92.905 20.547 C93.171 22.138 93.428 23.731 93.675 25.325 C94.054 27.755 94.464 30.177 94.879 32.6 C95.135 34.152 95.389 35.705 95.641 37.258 C95.822 38.336 95.822 38.336 96.006 39.436 C96.647 43.645 96.696 47.181 95.68 51.324 C93.958 53.046 91.76 52.452 89.464 52.463 C88.345 52.46 88.345 52.46 87.203 52.457 C86.032 52.459 86.032 52.459 84.837 52.461 C82.243 52.463 79.649 52.457 77.055 52.449 C76.167 52.448 75.279 52.447 74.364 52.446 C60.861 52.424 47.366 52.233 33.867 51.887 C33.086 51.867 32.305 51.848 31.501 51.827 C27.003 51.712 22.508 51.569 18.012 51.402 C15.496 51.318 12.98 51.263 10.463 51.207 C8.74 51.152 7.016 51.096 5.293 51.039 C4.49 51.027 3.688 51.015 2.861 51.003 C-0.755 50.861 -2.895 50.654 -5.796 48.405 C-8.245 45.062 -8.543 42.823 -8.855 38.715 C-8.943 37.573 -9.03 36.432 -9.12 35.256 C-11.291 4.809 -11.291 4.809 -9.255 1.694 C-6.33 -0.377 -3.451 -0.079 0 0 Z " fill="#22222E" transform="translate(306.3203125,177.67578125)"/>
<path d="M0 0 C4.283 0.278 8.568 0.528 12.854 0.772 C16.18 0.967 19.505 1.182 22.829 1.403 C24.41 1.505 25.991 1.598 27.573 1.684 C29.773 1.805 31.969 1.955 34.166 2.112 C36.035 2.228 36.035 2.228 37.942 2.347 C42.012 3.328 43.591 4.95 46.225 8.138 C47.735 11.623 47.297 15.391 47.225 19.138 C46.895 19.138 46.565 19.138 46.225 19.138 C46.032 18.512 45.838 17.885 45.639 17.24 C45.379 16.423 45.118 15.605 44.85 14.763 C44.595 13.951 44.34 13.139 44.077 12.302 C43.327 9.974 43.327 9.974 41.225 8.138 C38.432 7.198 36.026 7.077 33.1 7.201 C29.905 7.246 27.153 6.97 24.057 6.205 C16.937 4.718 9.733 4.485 2.487 4.133 C0.06 4.015 -2.366 3.884 -4.792 3.752 C-13.496 3.295 -22.147 3.062 -30.862 3.205 C-33.775 3.138 -33.775 3.138 -36.775 2.138 C-39.084 1.993 -41.399 1.918 -43.712 1.888 C-44.938 1.863 -46.164 1.837 -47.427 1.81 C-50.937 2.154 -52.263 2.747 -54.775 5.138 C-54.4 2.201 -54.4 2.201 -53.775 -0.862 C-41.007 -7.246 -14.141 -0.921 0 0 Z " fill="#0B0915" transform="translate(350.77490234375,179.861572265625)"/>
<path d="M0 0 C7.632 0.406 15.263 0.815 22.894 1.227 C25.487 1.366 28.079 1.505 30.672 1.643 C34.413 1.842 38.154 2.044 41.895 2.246 C43.041 2.307 44.187 2.367 45.368 2.429 C52.263 2.805 59.129 3.321 66 4 C66 4.33 66 4.66 66 5 C56.781 5.1 47.699 4.986 38.504 4.219 C33.357 3.897 28.236 3.976 23.082 4.062 C20 4 20 4 17 3 C14.691 2.854 12.376 2.779 10.062 2.75 C8.837 2.724 7.611 2.698 6.348 2.672 C2.838 3.016 1.512 3.608 -1 6 C-0.67 4.02 -0.34 2.04 0 0 Z " fill="#15111E" transform="translate(297,179)"/>
</svg>
