<?xml version="1.0" encoding="UTF-8"?>
<!-- Generator: visioncortex VTracer 0.6.4 -->
<svg version="1.1" xmlns="http://www.w3.org/2000/svg" width="512" height="512">
<path d="M0 0 C4.62 0 9.24 0 14 0 C14.82 3.28 15.162 5.683 15.188 9 C15.202 9.846 15.216 10.691 15.23 11.562 C14.985 14.154 14.306 15.77 13 18 C11.23 18.081 9.459 18.139 7.688 18.188 C6.701 18.222 5.715 18.257 4.699 18.293 C2 18 2 18 0.195 16.793 C-1.32 14.52 -1.569 12.839 -1.812 10.125 C-1.901 9.282 -1.99 8.439 -2.082 7.57 C-2 5 -2 5 0 0 Z " fill="#00A7EA" transform="translate(249,243)"/>
<path d="M0 0 C0.99 0.217 0.99 0.217 2 0.438 C5.656 1.123 9.306 1.562 13 2 C13 2.33 13 2.66 13 3 C11.208 3.027 9.417 3.046 7.625 3.062 C6.627 3.074 5.63 3.086 4.602 3.098 C2 3 2 3 0 2 C0 1.34 0 0.68 0 0 Z " fill="#008ED8" transform="translate(249,258)"/>
</svg>
