<?xml version='1.0' encoding='utf-8'?>
<svg xmlns="http://www.w3.org/2000/svg" width="512" height="512" viewBox="0 0 512 512" style="background-color:transparent">
  <path d="M0 0 C10.226 -0.103 20.447 -0.096 30.673 0.002 C32.83 0.022 34.986 0.04 37.143 0.058 C46.274 0.135 55.404 0.233 64.534 0.342 C67.74 0.379 70.946 0.413 74.151 0.444 C77.952 0.48 81.753 0.526 85.554 0.58 C86.978 0.599 88.403 0.614 89.828 0.626 C91.799 0.642 93.769 0.673 95.74 0.703 C96.853 0.717 97.967 0.73 99.114 0.744 C101.859 1.022 101.859 1.022 104.859 3.022 C105.546 6.147 105.546 6.147 105.859 9.022 C105.174 9.017 104.488 9.012 103.782 9.006 C100.641 8.985 97.5 8.973 94.359 8.96 C92.742 8.947 92.742 8.947 91.093 8.934 C85.245 8.917 79.64 9.131 73.859 10.022 C73.965 11.109 73.965 11.109 74.073 12.218 C74.863 21.177 75.013 30.065 74.989 39.054 C74.984 41.48 74.989 43.907 74.995 46.333 C74.995 47.895 74.993 49.457 74.991 51.018 C74.993 51.734 74.996 52.45 74.998 53.187 C74.979 57.227 74.806 61.086 73.859 65.022 C72.869 65.517 72.869 65.517 71.859 66.022 C71.834 70.006 71.816 73.989 71.804 77.973 C71.796 79.985 71.784 81.998 71.771 84.011 C71.768 85.293 71.764 86.576 71.761 87.897 C71.756 89.07 71.751 90.243 71.745 91.452 C71.868 95.325 72.378 99.178 72.859 103.022 C80.119 103.022 87.379 103.022 94.859 103.022 C94.176 113.169 93.298 123.278 92.296 133.397 C92.156 134.827 92.016 136.257 91.876 137.686 C91.539 141.132 91.199 144.577 90.859 148.022 C82.609 148.022 74.359 148.022 65.859 148.022 C65.87 150.894 65.882 153.766 65.894 156.725 C65.902 159.582 65.908 162.439 65.914 165.295 C65.919 167.244 65.925 169.193 65.934 171.142 C65.979 181.483 65.917 191.8 65.417 202.132 C65.378 202.956 65.339 203.78 65.299 204.629 C65.089 208.515 64.768 212.222 63.859 216.022 C63.529 216.022 63.199 216.022 62.859 216.022 C62.859 214.372 62.859 212.722 62.859 211.022 C18.804 211.517 18.804 211.517 -26.141 212.022 C-26.141 207.072 -26.141 202.122 -26.141 197.022 C-26.189 193.71 -26.245 190.4 -26.325 187.089 C-26.345 186.241 -26.365 185.393 -26.385 184.52 C-26.427 182.76 -26.47 181 -26.514 179.24 C-26.579 176.564 -26.639 173.888 -26.698 171.212 C-26.74 169.483 -26.782 167.755 -26.825 166.026 C-26.842 165.24 -26.858 164.453 -26.876 163.643 C-26.575 155.257 -26.575 155.257 -29.141 148.022 C-31.068 147.935 -32.998 147.915 -34.927 147.925 C-36.096 147.928 -37.266 147.931 -38.471 147.934 C-39.703 147.943 -40.935 147.951 -42.204 147.96 C-43.439 147.964 -44.675 147.969 -45.948 147.973 C-49.012 147.985 -52.077 148.002 -55.141 148.022 C-55.716 142.739 -56.285 137.456 -56.85 132.171 C-57.043 130.376 -57.237 128.581 -57.432 126.786 C-57.714 124.197 -57.991 121.608 -58.266 119.018 C-58.398 117.826 -58.398 117.826 -58.531 116.609 C-58.612 115.849 -58.692 115.089 -58.774 114.305 C-58.845 113.646 -58.916 112.986 -58.99 112.307 C-59.195 109.218 -59.141 106.117 -59.141 103.022 C-48.746 102.527 -48.746 102.527 -38.141 102.022 C-36.318 95.886 -36.318 95.886 -35.946 89.964 C-35.956 88.644 -35.956 88.644 -35.966 87.298 C-35.982 86.402 -35.999 85.507 -36.016 84.585 C-36.025 83.662 -36.034 82.74 -36.044 81.79 C-36.067 79.534 -36.1 77.278 -36.141 75.022 C-36.801 75.022 -37.461 75.022 -38.141 75.022 C-39.296 71.229 -39.485 67.394 -39.704 63.46 C-39.746 62.713 -39.787 61.966 -39.83 61.197 C-40.519 47.674 -40.239 34.21 -39.409 20.699 C-39.337 19.434 -39.337 19.434 -39.262 18.143 C-39.215 17.395 -39.168 16.647 -39.12 15.876 C-39.008 13.926 -39.008 13.926 -40.141 12.022 C-40.979 12.008 -41.817 11.993 -42.68 11.978 C-45.785 11.917 -48.89 11.843 -51.994 11.76 C-54 11.71 -56.006 11.676 -58.012 11.641 C-59.898 11.588 -59.898 11.588 -61.821 11.534 C-62.984 11.508 -64.146 11.482 -65.344 11.455 C-66.729 11.241 -66.729 11.241 -68.141 11.022 C-70.435 7.581 -70.404 6.054 -70.141 2.022 C-68.374 0.255 -65.83 0.851 -63.433 0.817 C-62.203 0.797 -60.973 0.777 -59.706 0.757 C-58.344 0.74 -56.981 0.723 -55.618 0.706 C-54.214 0.685 -52.81 0.664 -51.406 0.643 C-47.641 0.587 -43.876 0.537 -40.111 0.49 C-37.764 0.46 -35.416 0.428 -33.068 0.397 C-22.046 0.248 -11.023 0.115 0 0 Z " fill="#000000" transform="translate(238.141357421875,182.97773361206055)" />
  <path d="M0 0 C4.473 0.045 8.945 0.085 13.418 0.111 C17.854 0.137 22.289 0.177 26.724 0.227 C28.387 0.244 30.049 0.256 31.712 0.262 C34.015 0.272 36.318 0.3 38.622 0.332 C39.922 0.343 41.223 0.354 42.564 0.366 C48.226 0.964 53.574 2.234 57.334 6.764 C60.892 18.977 62.074 31.679 57.334 43.764 C54.008 47.19 51.538 48.225 46.76 48.304 C46.042 48.296 45.324 48.287 44.584 48.279 C43.811 48.286 43.038 48.293 42.241 48.3 C39.654 48.318 37.068 48.308 34.48 48.298 C32.624 48.305 30.768 48.314 28.911 48.324 C23.872 48.346 18.833 48.343 13.794 48.335 C9.589 48.329 5.384 48.337 1.179 48.344 C-8.738 48.361 -18.656 48.357 -28.573 48.341 C-38.811 48.324 -49.048 48.34 -59.286 48.372 C-68.073 48.399 -76.859 48.406 -85.646 48.397 C-90.895 48.392 -96.145 48.395 -101.394 48.415 C-106.328 48.433 -111.261 48.428 -116.195 48.403 C-118.008 48.398 -119.82 48.402 -121.633 48.414 C-124.104 48.43 -126.573 48.415 -129.044 48.392 C-129.764 48.404 -130.484 48.416 -131.226 48.428 C-134.93 48.359 -136.385 48.04 -139.073 45.407 C-143.906 37.39 -144.02 28.291 -143.041 19.264 C-142.96 18.511 -142.878 17.758 -142.795 16.982 C-142.062 11.508 -140.898 6.562 -136.416 2.952 C-129.528 -0.023 -121.641 0.555 -114.272 0.448 C-113.053 0.427 -111.834 0.406 -110.578 0.385 C-107.984 0.342 -105.391 0.301 -102.798 0.262 C-98.96 0.203 -95.123 0.138 -91.285 0.071 C-60.858 -0.435 -30.429 -0.309 0 0 Z " fill="#A4A9AD" transform="translate(297.66609287261963,135.23572635650635)" />
  <path d="M0 0 C0.988 -0.016 1.976 -0.032 2.994 -0.049 C4.414 -0.05 4.414 -0.05 5.863 -0.051 C6.718 -0.054 7.573 -0.057 8.454 -0.06 C10.688 0.312 10.688 0.312 12.416 1.385 C14.302 4.244 14.525 7.188 14.855 10.52 C14.935 11.261 15.014 12.003 15.096 12.767 C15.996 22.123 16.023 31.503 16.003 40.894 C16 43.979 16.024 47.062 16.049 50.146 C16.082 60.36 15.682 70.385 14.355 80.52 C14.239 81.433 14.123 82.347 14.003 83.288 C12.71 92.134 12.71 92.134 9.688 95.312 C6.593 95.88 6.593 95.88 2.832 95.801 C1.84 95.79 1.84 95.79 0.827 95.779 C-1.283 95.751 -3.391 95.689 -5.5 95.625 C-6.932 95.6 -8.363 95.577 -9.795 95.557 C-13.302 95.502 -16.807 95.415 -20.312 95.312 C-22.784 87.683 -22.539 80.273 -22.438 72.312 C-22.427 70.952 -22.418 69.591 -22.41 68.23 C-22.387 64.924 -22.354 61.618 -22.312 58.312 C-20.827 57.817 -20.827 57.817 -19.312 57.312 C-19.312 39.162 -19.312 21.012 -19.312 2.312 C-12.308 0.561 -7.039 -0.023 0 0 Z " fill="#333E48" transform="translate(331.3125,190.6875)" />
  <path d="M0 0 C3.204 0.075 6.408 0.154 9.612 0.256 C11.681 0.319 13.751 0.36 15.821 0.401 C17.118 0.441 18.415 0.481 19.752 0.522 C21.549 0.571 21.549 0.571 23.383 0.621 C24.331 0.769 25.279 0.917 26.256 1.069 C28.377 4.251 28.484 4.72 28.233 8.288 C28.181 9.128 28.129 9.968 28.076 10.833 C28.012 11.736 27.947 12.639 27.881 13.569 C27.768 15.486 27.659 17.402 27.553 19.319 C27.499 20.286 27.446 21.253 27.391 22.249 C26.708 36.529 27.462 50.81 28.256 65.069 C28.916 65.069 29.576 65.069 30.256 65.069 C31.514 68.843 31.44 72.388 31.444 76.319 C31.456 77.058 31.468 77.797 31.481 78.558 C31.494 83.439 30.865 87.452 29.256 92.069 C26.633 94.692 19.514 93.344 15.955 93.365 C13.896 93.382 11.838 93.426 9.78 93.47 C8.485 93.478 7.191 93.486 5.858 93.495 C4.068 93.517 4.068 93.517 2.243 93.539 C-0.744 93.069 -0.744 93.069 -2.587 91.266 C-12.966 71.565 -8.486 38.611 -6.869 17.257 C-6.791 16.207 -6.712 15.157 -6.632 14.075 C-6.547 13.098 -6.463 12.12 -6.377 11.112 C-6.303 10.257 -6.23 9.401 -6.155 8.519 C-4.747 0.12 -4.747 0.12 0 0 Z " fill="#333E48" transform="translate(171.743896484375,192.9306640625)" />
  <path d="M0 0 C2.806 -0.292 5.39 -0.389 8.198 -0.356 C9.045 -0.358 9.892 -0.361 10.765 -0.363 C13.574 -0.366 16.382 -0.347 19.191 -0.328 C21.137 -0.325 23.082 -0.323 25.027 -0.322 C29.107 -0.318 33.187 -0.303 37.266 -0.281 C42.508 -0.253 47.75 -0.242 52.991 -0.238 C57.009 -0.233 61.026 -0.224 65.043 -0.212 C66.977 -0.206 68.91 -0.201 70.843 -0.197 C73.54 -0.191 76.236 -0.177 78.932 -0.161 C79.739 -0.16 80.545 -0.159 81.377 -0.158 C86.885 -0.115 86.885 -0.115 88 1 C88.24 3.349 88.416 5.705 88.562 8.062 C88.646 9.353 88.73 10.643 88.816 11.973 C89.063 15.998 89 19.939 89 24 C58.64 24 28.28 24 -3 24 C-2 3 -2 3 0 0 Z " fill="#000000" transform="translate(213,111)" />
  <path d="M0 0 C0.976 -0.001 1.952 -0.003 2.957 -0.004 C4.498 0.002 4.498 0.002 6.07 0.008 C7.09 0.004 8.11 0 9.16 -0.004 C10.628 -0.002 10.628 -0.002 12.125 0 C13.474 0.002 13.474 0.002 14.851 0.003 C17.195 0.133 17.195 0.133 20.195 1.133 C22.551 20.989 23.207 41.277 21.32 61.195 C21.242 62.047 21.164 62.898 21.083 63.775 C20.957 64.96 20.957 64.96 20.828 66.168 C20.718 67.21 20.718 67.21 20.606 68.274 C20.195 70.133 20.195 70.133 18.195 73.133 C15.781 73.489 15.781 73.489 12.785 73.461 C11.713 73.456 10.641 73.451 9.537 73.445 C8.414 73.425 7.29 73.404 6.133 73.383 C4.442 73.375 4.442 73.375 2.717 73.367 C-5.651 73.287 -5.651 73.287 -6.805 72.133 C-6.822 70.562 -6.766 68.991 -6.684 67.422 C-6.635 66.381 -6.587 65.341 -6.537 64.269 C-6.481 63.11 -6.425 61.952 -6.367 60.758 C-5.705 45.534 -5.743 30.329 -5.842 15.094 C-5.846 14.177 -5.85 13.259 -5.855 12.314 C-5.863 10.572 -5.875 8.829 -5.892 7.087 C-5.901 5.102 -5.858 3.117 -5.805 1.133 C-4.161 -0.511 -2.261 0.003 0 0 Z " fill="#333E48" transform="translate(308.8046875,329.8671875)" />
  <path d="M0 0 C1.171 -0.012 2.342 -0.024 3.549 -0.037 C4.666 -0.039 5.783 -0.041 6.934 -0.043 C7.964 -0.047 8.995 -0.051 10.056 -0.055 C12.562 0.188 12.562 0.188 14.562 2.188 C15.538 7.925 15.772 13.635 15.914 19.445 C15.937 20.311 15.96 21.176 15.984 22.068 C16.032 23.892 16.077 25.715 16.12 27.539 C16.187 30.284 16.265 33.029 16.344 35.773 C17.053 62.807 17.053 62.807 13.562 72.188 C12.562 73.188 12.562 73.188 10.246 73.301 C9.246 73.296 8.245 73.291 7.215 73.285 C6.135 73.282 5.056 73.279 3.943 73.275 C2.807 73.267 1.671 73.259 0.5 73.25 C-0.64 73.245 -1.78 73.241 -2.955 73.236 C-5.783 73.224 -8.61 73.208 -11.438 73.188 C-18.48 60.024 -15.542 39.451 -15.062 24.938 C-15.041 24.271 -15.02 23.605 -14.998 22.918 C-14.237 0.008 -14.237 0.008 0 0 Z " fill="#333E48" transform="translate(196.4375,329.8125)" />
  <path d="M0 0 C0.819 0.004 1.639 0.007 2.483 0.011 C3.341 0.011 4.2 0.011 5.084 0.01 C7.936 0.011 10.787 0.019 13.639 0.027 C15.61 0.029 17.582 0.03 19.553 0.031 C24.753 0.035 29.953 0.045 35.153 0.056 C40.455 0.066 45.757 0.071 51.059 0.076 C61.469 0.086 71.88 0.103 82.291 0.124 C83.281 4.084 83.281 4.084 84.291 8.124 C92.211 8.454 100.131 8.784 108.291 9.124 C105.291 13.124 105.291 13.124 102.291 14.124 C100.554 14.221 98.813 14.259 97.073 14.265 C95.992 14.271 94.911 14.276 93.798 14.282 C92.019 14.284 92.019 14.284 90.204 14.286 C88.33 14.293 88.33 14.293 86.419 14.301 C82.991 14.313 79.563 14.32 76.136 14.325 C73.993 14.328 71.851 14.332 69.709 14.336 C63.003 14.35 56.298 14.359 49.593 14.363 C41.857 14.368 34.121 14.385 26.386 14.414 C20.403 14.436 14.421 14.446 8.439 14.447 C4.867 14.448 1.296 14.454 -2.276 14.472 C-6.262 14.492 -10.248 14.487 -14.234 14.481 C-15.414 14.49 -16.594 14.499 -17.809 14.509 C-23.594 14.479 -27.828 14.373 -32.709 11.124 C-32.709 10.464 -32.709 9.804 -32.709 9.124 C-25.119 8.794 -17.529 8.464 -9.709 8.124 C-8.719 5.814 -7.729 3.504 -6.709 1.124 C-4.898 -0.687 -2.41 0.004 0 0 Z " fill="#A4A9AD" transform="translate(218.70901489257813,393.8755798339844)" />
  <path d="M0 0 C2.098 0.003 4.195 -0.02 6.293 -0.046 C7.626 -0.048 8.96 -0.049 10.293 -0.048 C11.501 -0.051 12.709 -0.054 13.954 -0.057 C14.906 0.066 15.859 0.189 16.84 0.316 C19.388 4.137 18.79 5.504 18.027 9.941 C17.835 11.109 17.643 12.276 17.445 13.48 C16.84 16.316 16.84 16.316 15.84 17.316 C13.246 17.464 10.675 17.551 8.078 17.597 C6.903 17.625 6.903 17.625 5.704 17.653 C3.187 17.712 0.67 17.764 -1.848 17.816 C-4.347 17.867 -6.847 17.92 -9.346 17.979 C-10.903 18.015 -12.46 18.048 -14.017 18.076 C-18.154 18.172 -22.098 18.523 -26.16 19.316 C-25.958 17.23 -25.722 15.147 -25.473 13.066 C-25.345 11.906 -25.217 10.745 -25.086 9.55 C-23.934 5.527 -22.698 4.473 -19.16 2.316 C-12.839 -0.201 -6.686 -0.021 0 0 Z " fill="#0071CE" transform="translate(194.16015625,106.684326171875)" />
  <path d="M0 0 C0.987 -0.001 1.975 -0.003 2.992 -0.004 C4.539 0.002 4.539 0.002 6.117 0.008 C7.125 0.004 8.133 0 9.172 -0.004 C27.326 0.02 27.326 0.02 32.992 5.133 C35.319 9.786 35.168 14.048 34.992 19.133 C34.488 18.979 33.984 18.826 33.465 18.668 C30.139 17.948 26.818 17.76 23.43 17.57 C22.332 17.507 22.332 17.507 21.213 17.442 C12.476 16.984 3.738 17.046 -5.008 17.133 C-6.391 13.299 -7.304 9.819 -7.633 5.758 C-7.708 4.884 -7.782 4.01 -7.859 3.109 C-7.908 2.457 -7.957 1.805 -8.008 1.133 C-5.045 0.145 -3.09 0.004 0 0 Z " fill="#0071CE" transform="translate(308.0078125,106.8671875)" />
  <path d="M0 0 C9.24 0 18.48 0 28 0 C28 8 28 8 27 12 C17.76 12 8.52 12 -1 12 C-0.67 8.04 -0.34 4.08 0 0 Z " fill="#FFFFFF" transform="translate(182,124)" />
  <path d="M0 0 C0.961 2.882 1.106 4.699 1.062 7.688 C1.053 8.496 1.044 9.304 1.035 10.137 C1.024 10.752 1.012 11.366 1 12 C-3.479 12.029 -7.958 12.047 -12.438 12.062 C-13.717 12.071 -14.996 12.079 -16.314 12.088 C-18.137 12.093 -18.137 12.093 -19.996 12.098 C-21.122 12.103 -22.248 12.108 -23.408 12.114 C-26 12 -26 12 -27 11 C-27.259 9.34 -27.459 7.671 -27.625 6 C-27.72 5.093 -27.816 4.185 -27.914 3.25 C-27.942 2.507 -27.971 1.765 -28 1 C-22.996 -4.004 -6.549 -0.459 0 0 Z " fill="#FFFFFF" transform="translate(330,124)" />
  <path d="M0 0 C3.564 0.178 5.71 0.363 8.75 2.188 C10.694 5.613 10.821 8.322 10.75 12.188 C8.604 12.214 6.458 12.234 4.312 12.25 C3.118 12.262 1.923 12.273 0.691 12.285 C-2.25 12.188 -2.25 12.188 -3.25 11.188 C-3.509 9.528 -3.709 7.859 -3.875 6.188 C-3.97 5.28 -4.066 4.373 -4.164 3.438 C-4.192 2.695 -4.221 1.953 -4.25 1.188 C-3.25 0.188 -3.25 0.188 0 0 Z " fill="#FFB819" transform="translate(334.25,123.8125)" />
  <path d="M0 0 C0.33 0.33 0.66 0.66 1 1 C0.822 4.684 0.38 8.33 0 12 C-4.62 12 -9.24 12 -14 12 C-13.828 6.073 -13.828 6.073 -13 3 C-8.878 -0.238 -5.128 -0.402 0 0 Z " fill="#FFB819" transform="translate(181,124)" />
  <path d="M0 0 C3.282 2.53 4.692 4.077 6 8 C-4.395 8.495 -4.395 8.495 -15 9 C-13 3 -13 3 -11.438 1.125 C-7.647 -0.624 -4.089 -0.795 0 0 Z " fill="#A4A9AD" transform="translate(192,99)" />
  <path d="M0 0 C0.66 0 1.32 0 2 0 C0.35 14.52 -1.3 29.04 -3 44 C-3.66 43.34 -4.32 42.68 -5 42 C-4.903 39.324 -4.686 36.79 -4.355 34.141 C-4.266 33.359 -4.177 32.577 -4.085 31.771 C-3.796 29.263 -3.492 26.756 -3.188 24.25 C-2.993 22.576 -2.8 20.901 -2.607 19.227 C-1.102 6.272 -1.102 6.272 0 0 Z " fill="#333E48" transform="translate(333,286)" />
  <path d="M0 0 C3.843 2.883 4.827 4.307 6 9 C-0.93 8.67 -7.86 8.34 -15 8 C-11.167 0.333 -8.188 -1.422 0 0 Z " fill="#A4A9AD" transform="translate(329,99)" />
  <path d="M0 0 C0.66 0 1.32 0 2 0 C2.578 4.497 3.148 8.995 3.709 13.495 C3.901 15.021 4.095 16.546 4.291 18.071 C5.407 26.749 6.342 35.227 6 44 C5.67 44 5.34 44 5 44 C3.35 29.48 1.7 14.96 0 0 Z " fill="#333E48" transform="translate(177,286)" />
  <path d="M0 0 C0.99 0 1.98 0 3 0 C3 3.63 3 7.26 3 11 C11.25 11 19.5 11 28 11 C28 11.33 28 11.66 28 12 C23.521 12.029 19.042 12.047 14.562 12.062 C13.283 12.071 12.004 12.079 10.686 12.088 C8.863 12.093 8.863 12.093 7.004 12.098 C5.878 12.103 4.752 12.108 3.592 12.114 C1 12 1 12 0 11 C-0.259 9.34 -0.459 7.671 -0.625 6 C-0.72 5.093 -0.816 4.185 -0.914 3.25 C-0.942 2.507 -0.971 1.765 -1 1 C-0.67 0.67 -0.34 0.34 0 0 Z " fill="#FFFFFF" transform="translate(303,124)" />
  <path d="M0 0 C1.32 0 2.64 0 4 0 C4.073 4.398 4.074 7.704 3 12 C-6.24 12 -15.48 12 -25 12 C-25 11.67 -25 11.34 -25 11 C-16.09 11 -7.18 11 2 11 C2 8.03 2 5.06 2 2 C1.34 2 0.68 2 0 2 C0 1.34 0 0.68 0 0 Z " fill="#A4A9AD" transform="translate(206,124)" />
  <path d="M0 0 C0.99 0 1.98 0 3 0 C2.67 3.96 2.34 7.92 2 12 C1.34 11.67 0.68 11.34 0 11 C-0.449 8.75 -0.449 8.75 -0.688 6 C-0.774 5.093 -0.86 4.185 -0.949 3.25 C-0.966 2.507 -0.983 1.765 -1 1 C-0.67 0.67 -0.34 0.34 0 0 Z " fill="#FFB819" transform="translate(303,124)" />
  <path d="M0 0 C0.66 0.33 1.32 0.66 2 1 C1.526 1.598 1.051 2.196 0.562 2.812 C-1.165 5.004 -1.165 5.004 -2 8 C-3.32 7.67 -4.64 7.34 -6 7 C-2.25 1.125 -2.25 1.125 0 0 Z " fill="#A4A9AD" transform="translate(320,99)" />
  <path d="M0 0 C2.248 2.052 3.002 3.007 4 6 C-0.62 6 -5.24 6 -10 6 C-10 5.67 -10 5.34 -10 5 C-7.03 5 -4.06 5 -1 5 C-0.67 3.35 -0.34 1.7 0 0 Z " fill="#A4A9AD" transform="translate(194,101)" />
  <path d="M0 0 C2.799 2.528 4.458 4.204 5 8 C2.69 8 0.38 8 -2 8 C-1.01 7.67 -0.02 7.34 1 7 C0.67 4.69 0.34 2.38 0 0 Z " fill="#A4A9AD" transform="translate(330,100)" />
  <path d="M0 0 C0.66 0.33 1.32 0.66 2 1 C0.02 3.97 0.02 3.97 -2 7 C-1.34 7.33 -0.68 7.66 0 8 C-1.32 8 -2.64 8 -4 8 C-2.25 2.25 -2.25 2.25 0 0 Z " fill="#A4A9AD" transform="translate(181,100)" />
  <path d="M0 0 C1.32 0 2.64 0 4 0 C4.25 7.5 4.25 7.5 2 12 C2 8.7 2 5.4 2 2 C1.34 2 0.68 2 0 2 C0 1.34 0 0.68 0 0 Z " fill="#FFB819" transform="translate(206,124)" />
</svg>