<?xml version='1.0' encoding='utf-8'?>
<svg xmlns="http://www.w3.org/2000/svg" width="512" height="512" viewBox="0 0 512 512" style="background-color:transparent">
  <path d="M0 0 C1.58 0.105 3.159 0.21 4.739 0.315 C8.053 0.535 11.367 0.758 14.681 0.983 C18.809 1.263 22.937 1.537 27.066 1.81 C45.608 3.036 64.134 4.393 82.648 5.988 C92.829 6.864 103.013 7.627 113.21 8.294 C132.953 9.606 132.953 9.606 138.785 15.012 C142.345 20.529 143.656 26.127 144.566 32.547 C144.775 33.904 144.775 33.904 144.988 35.288 C145.434 38.215 145.86 41.144 146.285 44.074 C146.588 46.096 146.891 48.117 147.196 50.139 C153.785 94.257 153.785 94.257 153.785 104.012 C148.835 104.342 143.885 104.672 138.785 105.012 C139.115 112.932 139.445 120.852 139.785 129.012 C139.125 129.342 138.465 129.672 137.785 130.012 C136.652 132.028 136.652 132.028 135.785 134.012 C135.494 133.033 135.202 132.055 134.902 131.047 C132.712 123.953 130.538 117.755 126.02 111.746 C124.785 110.012 124.785 110.012 123.785 107.012 C121.931 105.928 121.931 105.928 119.785 105.012 C118.529 104.188 117.279 103.355 116.035 102.512 C107.769 97.366 100.051 97.439 90.656 99.473 C80.268 102.705 73.643 110.702 68.41 119.828 C64.053 128.364 62.534 136.527 62.945 146.094 C62.785 148.012 62.785 148.012 60.785 150.012 C58.462 150.412 56.128 150.751 53.785 151.012 C53.785 152.662 53.785 154.312 53.785 156.012 C53.455 156.012 53.125 156.012 52.785 156.012 C52.785 154.362 52.785 152.712 52.785 151.012 C52.015 151.054 51.245 151.096 50.452 151.139 C43.198 151.533 35.944 151.917 28.689 152.289 C24.959 152.48 21.23 152.676 17.501 152.881 C13.903 153.078 10.304 153.265 6.705 153.445 C5.331 153.515 3.958 153.59 2.584 153.668 C0.663 153.776 -1.26 153.87 -3.183 153.963 C-4.278 154.021 -5.372 154.079 -6.5 154.138 C-9.215 154.012 -9.215 154.012 -12.215 152.012 C-12.662 149.449 -12.952 147.032 -13.152 144.449 C-13.823 137.964 -14.869 132.702 -18.215 127.012 C-19.027 125.621 -19.027 125.621 -19.855 124.203 C-22.871 119.267 -25.793 114.802 -30.215 111.012 C-30.791 110.46 -31.367 109.908 -31.961 109.34 C-36.666 105.178 -41.363 102.948 -47.277 101.074 C-47.938 100.863 -48.598 100.651 -49.279 100.434 C-61.371 96.911 -73.328 100.32 -84.199 106.098 C-98.607 115.243 -108.707 129.374 -112.695 146.015 C-113.417 149.33 -114.045 152.65 -114.637 155.992 C-115.215 159.012 -115.215 159.012 -116.215 161.012 C-120.175 161.012 -124.135 161.012 -128.215 161.012 C-128.545 154.412 -128.875 147.812 -129.215 141.012 C-134.165 140.682 -139.115 140.352 -144.215 140.012 C-144.215 139.682 -144.215 139.352 -144.215 139.012 C-138.275 138.022 -132.335 137.032 -126.215 136.012 C-125.885 126.772 -125.555 117.532 -125.215 108.012 C-127.781 108.023 -130.348 108.035 -132.992 108.047 C-135.504 108.055 -138.016 108.061 -140.529 108.067 C-142.262 108.072 -143.995 108.078 -145.728 108.087 C-148.233 108.099 -150.737 108.105 -153.242 108.109 C-154.387 108.117 -154.387 108.117 -155.554 108.125 C-160.913 108.126 -165.816 107.612 -171.215 107.012 C-171.215 100.082 -171.215 93.152 -171.215 86.012 C-175.361 86.152 -179.507 86.299 -183.652 86.449 C-184.836 86.489 -186.02 86.528 -187.24 86.568 C-188.365 86.61 -189.49 86.652 -190.648 86.695 C-191.691 86.732 -192.733 86.769 -193.806 86.806 C-196.165 86.747 -196.165 86.747 -197.215 88.012 C-197.452 90.87 -197.637 93.711 -197.777 96.574 C-197.842 97.784 -197.842 97.784 -197.908 99.018 C-198.015 101.015 -198.115 103.014 -198.215 105.012 C-199.881 105.054 -201.549 105.052 -203.215 105.012 C-205.681 102.546 -204.449 96.072 -204.465 92.762 C-204.485 91.711 -204.506 90.661 -204.527 89.578 C-204.532 88.561 -204.538 87.544 -204.543 86.496 C-204.552 85.565 -204.562 84.634 -204.571 83.675 C-204.002 79.424 -202.378 76.951 -199.061 74.273 C-195.316 72.614 -191.708 72.174 -187.672 71.832 C-186.33 71.712 -186.33 71.712 -184.961 71.59 C-170.458 70.469 -155.859 70.792 -141.324 70.874 C-137.24 70.895 -133.156 70.904 -129.072 70.914 C-121.12 70.935 -113.167 70.969 -105.215 71.012 C-105.081 69.931 -104.947 68.85 -104.809 67.736 C-104.629 66.295 -104.45 64.853 -104.271 63.411 C-104.183 62.702 -104.095 61.992 -104.004 61.261 C-99.364 24.007 -99.364 24.007 -91.34 15.449 C-86.838 12.053 -81.169 11.512 -75.738 10.652 C-72.345 10.158 -72.345 10.158 -69.82 9.047 C-66.037 7.544 -62.146 6.938 -58.152 6.199 C-50.094 4.668 -42.171 2.831 -34.279 0.587 C-23.096 -2.413 -11.417 -0.777 0 0 Z M-58.043 17.691 C-59.41 17.951 -59.41 17.951 -60.805 18.215 C-62.718 18.58 -64.631 18.948 -66.543 19.32 C-69.468 19.887 -72.396 20.441 -75.324 20.992 C-77.189 21.349 -79.054 21.707 -80.918 22.066 C-82.227 22.313 -82.227 22.313 -83.563 22.565 C-84.785 22.805 -84.785 22.805 -86.032 23.05 C-86.745 23.188 -87.458 23.326 -88.193 23.467 C-90.42 24.067 -92.239 24.82 -94.215 26.012 C-95.282 28.39 -95.282 28.39 -95.82 31.262 C-96.058 32.341 -96.296 33.42 -96.541 34.531 C-97.666 40.342 -98.653 46.158 -99.527 52.012 C-99.721 53.212 -99.915 54.412 -100.115 55.648 C-100.289 56.8 -100.462 57.951 -100.641 59.137 C-100.8 60.171 -100.959 61.204 -101.122 62.27 C-101.221 65.198 -100.765 66.568 -99.215 69.012 C-89.937 69.165 -80.689 68.775 -71.424 68.322 C-69.691 68.24 -67.957 68.163 -66.223 68.093 C-63.691 67.989 -61.16 67.868 -58.629 67.742 C-57.473 67.7 -57.473 67.7 -56.293 67.657 C-51.853 67.413 -48.663 66.915 -45.215 64.012 C-44.243 62.003 -44.243 62.003 -44.004 59.664 C-43.866 58.776 -43.729 57.887 -43.587 56.972 C-43.464 55.995 -43.341 55.018 -43.215 54.012 C-43.074 52.966 -42.933 51.921 -42.788 50.844 C-42.352 47.424 -41.965 44.001 -41.59 40.574 C-41.456 39.424 -41.322 38.273 -41.184 37.088 C-40.4 30.03 -40.037 23.112 -40.215 16.012 C-46.389 15.82 -51.991 16.511 -58.043 17.691 Z M-11.215 23.012 C-12.87 30.381 -12.435 38.18 -12.465 45.699 C-12.485 47.004 -12.506 48.31 -12.527 49.654 C-12.533 50.91 -12.538 52.167 -12.543 53.461 C-12.552 54.599 -12.562 55.737 -12.571 56.909 C-12.157 60.519 -11.677 62.317 -9.215 65.012 C-6.505 65.544 -4.397 65.734 -1.68 65.719 C-0.928 65.734 -0.175 65.749 0.599 65.765 C3.016 65.808 5.431 65.816 7.848 65.824 C9.416 65.847 10.984 65.873 12.553 65.9 C15.698 65.951 18.843 65.977 21.989 65.983 C25.277 65.991 28.557 66.058 31.843 66.162 C32.661 66.18 33.479 66.199 34.322 66.218 C35.881 66.254 37.439 66.305 38.997 66.373 C42.344 66.43 44.419 66.248 47.26 64.415 C49.287 61.221 49.272 59.076 49.246 55.305 C49.24 53.341 49.24 53.341 49.234 51.338 C49.222 50.658 49.21 49.978 49.197 49.277 C49.16 47.216 49.156 45.157 49.156 43.096 C49.13 33.868 49.13 33.868 46.785 25.012 C42.911 21.546 38.611 21.47 33.625 21.281 C32.839 21.241 32.054 21.201 31.244 21.16 C28.737 21.035 26.23 20.93 23.723 20.824 C22.064 20.743 20.406 20.66 18.748 20.576 C14.801 20.382 10.853 20.221 6.904 20.086 C4.958 20.018 3.012 19.938 1.067 19.857 C0.006 19.829 -1.055 19.802 -2.148 19.773 C-3.493 19.732 -3.493 19.732 -4.865 19.69 C-7.788 20.09 -9.116 20.962 -11.215 23.012 Z M72.785 26.012 C72.493 28.814 72.389 31.392 72.422 34.195 C72.421 35.007 72.421 35.818 72.42 36.654 C72.423 38.371 72.432 40.089 72.449 41.806 C72.473 44.435 72.47 47.064 72.463 49.693 C72.468 51.361 72.476 53.028 72.484 54.695 C72.483 55.483 72.483 56.27 72.482 57.082 C72.531 60.912 72.611 62.751 74.785 66.012 C77.704 66.525 77.704 66.525 81.172 66.523 C81.818 66.542 82.464 66.56 83.129 66.578 C85.244 66.633 87.358 66.667 89.473 66.699 C90.923 66.731 92.374 66.763 93.825 66.796 C97.46 66.874 101.096 66.933 104.732 66.982 C106.66 67.01 108.589 67.044 110.517 67.078 C113.731 67.133 116.945 67.171 120.16 67.199 C121.115 67.212 122.07 67.225 123.053 67.239 C123.921 67.24 124.789 67.241 125.684 67.242 C126.808 67.248 126.808 67.248 127.955 67.255 C130.035 67.167 130.035 67.167 131.785 65.012 C131.821 62.417 131.736 59.965 131.535 57.387 C131.481 56.635 131.426 55.883 131.37 55.108 C131.189 52.741 130.988 50.377 130.785 48.012 C130.728 47.257 130.672 46.503 130.613 45.726 C130.446 43.568 130.246 41.416 130.035 39.262 C129.917 37.988 129.798 36.715 129.676 35.402 C128.56 31.155 127.34 29.578 123.785 27.012 C118.009 26.057 112.201 25.724 106.359 25.406 C105.055 25.335 105.055 25.335 103.725 25.262 C101.902 25.163 100.079 25.067 98.257 24.972 C95.463 24.824 92.67 24.661 89.877 24.498 C88.1 24.404 86.324 24.311 84.547 24.219 C83.713 24.168 82.878 24.117 82.018 24.064 C77.112 23.805 77.112 23.805 72.785 26.012 Z M29.785 75.387 C29.048 75.418 28.31 75.449 27.551 75.48 C23.204 75.578 23.204 75.578 19.785 78.012 C19.504 80.383 19.504 80.383 19.598 83.012 C19.604 83.899 19.611 84.785 19.617 85.699 C19.639 88.038 19.639 88.038 20.785 90.012 C24.743 90.099 28.701 90.152 32.66 90.199 C34.352 90.237 34.352 90.237 36.078 90.275 C37.693 90.29 37.693 90.29 39.34 90.305 C40.335 90.32 41.33 90.336 42.355 90.352 C43.157 90.24 43.959 90.128 44.785 90.012 C46.994 86.698 47.01 85.667 46.91 81.824 C46.892 80.923 46.874 80.022 46.855 79.094 C46.832 78.407 46.809 77.72 46.785 77.012 C40.723 75.215 36.045 75.058 29.785 75.387 Z M116.785 78.012 C116.704 79.782 116.646 81.553 116.598 83.324 C116.563 84.31 116.528 85.296 116.492 86.312 C116.595 88.973 116.595 88.973 117.855 90.844 C120.821 92.639 123.419 92.408 126.848 92.387 C128.097 92.394 129.346 92.402 130.633 92.41 C131.673 92.279 132.713 92.147 133.785 92.012 C135.783 89.014 136.061 88.378 136.035 85.012 C136.04 84.331 136.045 83.65 136.051 82.949 C135.884 80.688 135.884 80.688 133.785 78.012 C128.871 76.693 121.49 75.659 116.785 78.012 Z " fill="#0071CE" transform="translate(275.21484375,167.98828125)" />
  <path d="M0 0 C10.393 7.323 16.127 18.175 18.898 30.297 C21.293 44.25 17.875 57.509 10.438 69.438 C7.655 73.013 4.666 76.262 1.438 79.438 C0.923 79.951 0.409 80.464 -0.121 80.992 C-7.766 87.966 -18.57 92.022 -28.883 91.754 C-44.947 89.857 -58.082 83.258 -68.688 70.977 C-74.556 63.03 -78.135 52.854 -77.25 42.938 C-76.151 38.942 -75.459 37.131 -72.188 34.625 C-68.838 31.858 -67.424 29.394 -65.562 25.438 C-63.353 22.336 -60.965 19.39 -58.562 16.438 C-58.1 15.838 -57.637 15.239 -57.16 14.621 C-50.974 6.893 -42.831 0.061 -33.562 -3.562 C-32.511 -3.975 -31.459 -4.387 -30.375 -4.812 C-19.273 -6.996 -9.66 -5.809 0 0 Z M-36.301 28.461 C-40.568 35.145 -40.244 42.805 -39.562 50.438 C-38.123 56.213 -34.712 60.005 -29.828 63.297 C-24.834 65.811 -20.288 66.213 -14.914 64.684 C-8.334 61.848 -4.774 57.766 -1.562 51.438 C0.637 44.838 0.778 35.223 -2.188 28.812 C-4.718 24.665 -8.209 21.614 -12.562 19.438 C-23.349 18.439 -29.185 20.234 -36.301 28.461 Z " fill="#333E48" transform="translate(235.5625,286.5625)" />
  <path d="M0 0 C9.069 5.79 15.263 15.447 17.64 25.876 C18.261 29.544 18.34 33.161 18.312 36.875 C18.308 37.664 18.304 38.454 18.3 39.267 C18.184 45.251 17.403 50.472 15 56 C14.71 56.691 14.42 57.382 14.121 58.094 C9.342 68.492 2.37 75.315 -7.875 80.438 C-19.492 82.529 -32.395 80.662 -42.625 74.562 C-51.569 68.188 -56.112 60.58 -58.508 49.988 C-59.18 45.905 -59.206 42.129 -59 38 C-57.175 37.412 -57.175 37.412 -55.312 36.812 C-51.129 35.182 -48.691 33.737 -46 30 C-44.844 26.771 -43.889 23.518 -42.953 20.219 C-40.345 11.411 -35.404 3.277 -27.312 -1.5 C-18.938 -5.137 -8.148 -3.615 0 0 Z M-23.312 25.75 C-26.583 32.048 -28.26 38.951 -26.5 46.004 C-24.77 51.185 -22.082 56.459 -17 59 C-10.889 59.509 -7.862 59.089 -3 55 C2.486 49.209 3.425 43.496 3.246 35.75 C2.737 30.067 1.331 25.833 -3.062 22.062 C-10.655 16.731 -17.536 18.88 -23.312 25.75 Z " fill="#333E48" transform="translate(388,281)" />
  <path d="M0 0 C1.061 0.028 2.122 0.055 3.215 0.083 C4.442 0.135 5.669 0.186 6.934 0.238 C8.388 0.289 9.842 0.339 11.296 0.389 C15.323 0.537 19.348 0.724 23.372 0.928 C25.05 1.01 26.729 1.087 28.407 1.157 C30.864 1.261 33.318 1.382 35.773 1.508 C36.892 1.55 36.892 1.55 38.034 1.593 C42.421 1.842 45.61 2.265 48.934 5.238 C51.542 11.79 51.306 18.41 51.304 25.364 C51.309 27.432 51.345 29.497 51.383 31.564 C51.389 33.528 51.389 33.528 51.395 35.531 C51.403 36.723 51.411 37.914 51.419 39.141 C50.934 42.238 50.934 42.238 49.409 44.641 C45.941 46.878 42.846 46.674 38.867 46.5 C37.242 46.463 35.617 46.425 33.992 46.388 C33.155 46.362 32.319 46.335 31.458 46.308 C28.227 46.219 24.998 46.211 21.766 46.205 C18.63 46.192 15.495 46.141 12.36 46.086 C10.757 46.062 9.155 46.048 7.552 46.043 C5.19 46.033 2.83 45.993 0.469 45.945 C-0.247 45.949 -0.962 45.953 -1.699 45.957 C-3.707 45.898 -3.707 45.898 -7.066 45.238 C-10.329 41.668 -10.433 38.391 -10.395 33.688 C-10.389 32.431 -10.384 31.175 -10.379 29.881 C-10.358 28.576 -10.338 27.271 -10.316 25.926 C-10.311 24.632 -10.306 23.339 -10.301 22.006 C-10.188 8.232 -10.188 8.232 -9.066 3.238 C-6.109 0.349 -4.067 -0.125 0 0 Z " fill="#333E48" transform="translate(273.06640625,187.76171875)" />
  <path d="M0 0 C0.312 8.796 -0.513 17.363 -1.544 26.082 C-1.814 28.39 -2.065 30.701 -2.314 33.012 C-2.486 34.495 -2.658 35.978 -2.832 37.461 C-2.94 38.486 -2.94 38.486 -3.05 39.532 C-3.563 43.669 -4.438 46.682 -7 50 C-10.729 51.243 -14.327 51.343 -18.219 51.535 C-19.032 51.578 -19.845 51.621 -20.683 51.665 C-22.408 51.756 -24.132 51.844 -25.857 51.93 C-28.463 52.061 -31.067 52.199 -33.672 52.338 C-42.119 52.779 -50.538 53.162 -59 53 C-61.142 47.982 -60.943 44.101 -59.988 38.863 C-59.859 38.102 -59.73 37.341 -59.598 36.556 C-59.323 34.956 -59.041 33.357 -58.752 31.759 C-58.313 29.313 -57.902 26.863 -57.494 24.412 C-57.223 22.854 -56.95 21.296 -56.676 19.738 C-56.493 18.641 -56.493 18.641 -56.306 17.522 C-55.794 14.762 -55.307 12.453 -53.719 10.109 C-51.468 8.656 -49.442 8.114 -46.828 7.512 C-45.222 7.141 -45.222 7.141 -43.584 6.763 C-37.689 5.508 -31.786 4.32 -25.862 3.21 C-23.737 2.81 -21.615 2.398 -19.492 1.986 C-12.945 0.739 -6.682 -0.389 0 0 Z " fill="#333E48" transform="translate(235,184)" />
  <path d="M0 0 C1.29 0.064 1.29 0.064 2.606 0.129 C4.429 0.221 6.252 0.319 8.075 0.422 C10.836 0.576 13.596 0.711 16.357 0.844 C18.134 0.936 19.911 1.03 21.688 1.125 C22.501 1.165 23.315 1.204 24.154 1.245 C28.38 1.493 32.544 1.933 36.722 2.622 C37.529 2.755 38.335 2.888 39.166 3.025 C41.923 4.059 42.812 5.332 44.309 7.828 C44.925 10.45 44.925 10.45 45.258 13.406 C45.383 14.485 45.509 15.564 45.639 16.676 C45.816 18.36 45.816 18.36 45.996 20.078 C46.126 21.185 46.255 22.293 46.389 23.434 C47.042 29.246 47.672 34.981 47.309 40.828 C45.309 42.828 45.309 42.828 43.478 43.071 C42.729 43.067 41.979 43.063 41.207 43.059 C40.339 43.058 39.471 43.056 38.577 43.055 C37.622 43.042 36.667 43.029 35.684 43.016 C34.693 43.007 33.703 42.998 32.683 42.99 C29.224 42.95 25.767 42.89 22.309 42.828 C20.912 42.808 19.516 42.789 18.12 42.77 C14.468 42.717 10.817 42.646 7.167 42.563 C5.72 42.531 4.273 42.505 2.826 42.483 C0.782 42.449 -1.261 42.397 -3.305 42.34 C-4.488 42.314 -5.672 42.287 -6.892 42.26 C-7.816 42.118 -8.74 41.975 -9.691 41.828 C-12.229 38.022 -11.997 34.924 -11.992 30.512 C-11.996 29.699 -12.001 28.887 -12.005 28.05 C-12.011 26.335 -12.011 24.619 -12.007 22.904 C-12.004 20.272 -12.027 17.641 -12.053 15.01 C-12.055 13.344 -12.056 11.678 -12.055 10.012 C-12.064 9.222 -12.073 8.433 -12.083 7.619 C-12.064 5.404 -12.064 5.404 -11.691 1.828 C-7.737 -0.808 -4.554 -0.263 0 0 Z " fill="#333E48" transform="translate(359.69140625,192.171875)" />
  <path d="M0 0 C4.976 0.511 9.953 1.011 14.93 1.51 C20.828 2.103 26.727 2.696 32.624 3.3 C42.529 4.311 52.436 5.283 62.353 6.18 C64.316 6.36 66.279 6.539 68.243 6.719 C71.945 7.057 75.649 7.384 79.353 7.705 C81.012 7.855 82.67 8.006 84.329 8.158 C85.082 8.22 85.836 8.282 86.612 8.346 C90.208 8.683 92.084 9.015 95.152 11.061 C95.445 13.444 95.445 13.444 95.34 16.186 C95.299 17.551 95.299 17.551 95.258 18.944 C95.223 19.643 95.188 20.341 95.152 21.061 C92.773 22.251 91.238 22.195 88.59 22.186 C87.381 22.19 87.381 22.19 86.149 22.194 C84.152 22.061 84.152 22.061 83.152 21.061 C79.01 20.814 79.01 20.814 75.152 22.061 C73.174 22.031 73.174 22.031 70.7 21.808 C69.764 21.727 68.827 21.646 67.863 21.562 C66.317 21.419 66.317 21.419 64.739 21.273 C63.656 21.177 62.573 21.081 61.457 20.982 C57.86 20.663 54.264 20.335 50.668 20.006 C48.174 19.783 45.68 19.559 43.187 19.337 C37.951 18.868 32.715 18.395 27.48 17.919 C21.435 17.369 15.39 16.826 9.345 16.285 C3.526 15.764 -2.293 15.241 -8.112 14.717 C-10.585 14.494 -13.059 14.271 -15.532 14.049 C-18.994 13.738 -22.456 13.424 -25.917 13.108 C-26.939 13.017 -27.962 12.925 -29.016 12.831 C-39.354 11.883 -39.354 11.883 -42.848 11.061 C-43.178 10.401 -43.508 9.741 -43.848 9.061 C-45.847 9.019 -47.848 9.02 -49.848 9.061 C-50.178 9.391 -50.508 9.721 -50.848 10.061 C-56.819 10.553 -62.245 10.207 -67.848 8.061 C-68.954 5.848 -69.043 4.514 -69.098 2.061 C-69.123 1.36 -69.149 0.659 -69.176 -0.064 C-69.067 -0.683 -68.959 -1.301 -68.848 -1.939 C-54.381 -11.583 -16.656 -1.719 0 0 Z " fill="#A4A9AD" transform="translate(309.8475341796875,142.93890380859375)" />
  <path d="M0 0 C2.011 0.464 4.023 0.925 6.035 1.383 C6.993 1.601 7.951 1.819 8.938 2.044 C13.396 3.008 17.873 3.668 22.395 4.266 C24.625 4.625 24.625 4.625 26.625 5.625 C28.936 5.768 31.251 5.852 33.566 5.906 C34.249 5.925 34.932 5.943 35.636 5.962 C38.562 6.041 41.488 6.109 44.415 6.177 C46.549 6.229 48.683 6.286 50.816 6.344 C52.738 6.389 52.738 6.389 54.698 6.436 C57.625 6.625 57.625 6.625 58.625 7.625 C58.725 9.37 58.756 11.119 58.758 12.867 C58.759 13.933 58.76 14.999 58.762 16.098 C58.758 17.22 58.754 18.343 58.75 19.5 C58.754 20.615 58.758 21.73 58.762 22.879 C58.76 23.948 58.759 25.016 58.758 26.117 C58.757 27.101 58.756 28.084 58.754 29.097 C58.625 31.625 58.625 31.625 57.625 34.625 C28.523 41.232 1.805 33.425 -25.375 22.625 C-26.375 21.625 -26.375 21.625 -26.489 19.4 C-26.483 18.442 -26.478 17.483 -26.473 16.496 C-26.469 15.462 -26.466 14.427 -26.463 13.361 C-26.455 12.273 -26.446 11.184 -26.438 10.062 C-26.433 8.97 -26.428 7.878 -26.424 6.752 C-26.412 4.043 -26.396 1.334 -26.375 -1.375 C-17.575 -3.917 -8.691 -2.102 0 0 Z " fill="#A4A9AD" transform="translate(88.375,301.375)" />
  <path d="M0 0 C0.343 1.665 0.674 3.332 1 5 C1.205 6.042 1.205 6.042 1.414 7.105 C1.81 11.012 1.464 13.279 -0.691 16.629 C-7.168 24.187 -13.598 29.009 -23.592 29.94 C-27.537 30.038 -31.174 29.339 -35 28.438 C-35.785 28.256 -36.571 28.075 -37.38 27.888 C-46.284 25.663 -52.744 21.574 -58 14 C-60.174 9.727 -61.154 6.747 -61 2 C-18.979 -0.388 -18.979 -0.388 0 0 Z " fill="#000000" transform="translate(328,319)" />
  <path d="M0 0 C5.276 4.319 9.007 8.951 12.438 14.812 C13.271 16.197 13.271 16.197 14.121 17.609 C19.713 27.318 20.772 34.657 20.438 45.812 C17.798 45.483 15.158 45.153 12.438 44.812 C12.146 43.834 11.855 42.856 11.555 41.848 C9.134 34 6.566 27.347 1.438 20.812 C0.695 19.761 -0.048 18.709 -0.812 17.625 C-8.037 10.237 -16.587 6.823 -26.812 6.438 C-38.115 6.645 -47.935 11.329 -56 19.188 C-56.516 19.724 -57.031 20.26 -57.562 20.812 C-58.222 20.812 -58.882 20.812 -59.562 20.812 C-59.813 21.384 -60.063 21.955 -60.32 22.543 C-61.736 25.129 -63.418 26.98 -65.438 29.125 C-67.843 31.768 -69.962 34.209 -71.625 37.375 C-74.073 41.718 -77.191 45.166 -80.562 48.812 C-81.222 48.153 -81.882 47.493 -82.562 46.812 C-82.196 44.252 -81.719 41.926 -81.062 39.438 C-80.876 38.719 -80.689 38.001 -80.497 37.261 C-77.622 26.79 -72.698 17.977 -65.562 9.812 C-65.053 9.209 -64.544 8.606 -64.02 7.984 C-47.062 -10.606 -20.565 -14.589 0 0 Z " fill="#000000" transform="translate(242.5625,275.1875)" />
  <path d="M0 0 C5.049 4.67 8.117 8.788 8.871 15.73 C9.014 23.825 8.768 30.73 3.5 37.312 C-1.123 41.676 -5.977 44.173 -12.367 44.484 C-17.939 44.035 -22.623 41.189 -26.5 37.312 C-31.554 30.789 -31.371 23.227 -30.5 15.312 C-28.801 8.093 -24.525 3.469 -18.5 -0.688 C-12.466 -2.699 -5.735 -2.765 0 0 Z " fill="#A4A9AD" transform="translate(226.5,307.6875)" />
  <path d="M0 0 C1.037 0.01 2.074 0.021 3.142 0.032 C4.264 0.038 5.385 0.045 6.541 0.051 C7.716 0.068 8.892 0.085 10.103 0.102 C11.878 0.116 11.878 0.116 13.689 0.129 C16.619 0.153 19.548 0.186 22.478 0.227 C22.503 6.383 22.521 12.54 22.533 18.696 C22.538 20.789 22.545 22.882 22.553 24.976 C22.566 27.989 22.571 31.003 22.576 34.016 C22.581 34.948 22.586 35.879 22.591 36.839 C22.592 41.42 22.421 45.719 21.478 50.227 C-0.843 48.906 -0.843 48.906 -4.522 45.227 C-4.625 43.887 -4.66 42.542 -4.667 41.198 C-4.674 40.344 -4.68 39.489 -4.687 38.609 C-4.688 37.68 -4.689 36.751 -4.69 35.793 C-4.693 34.845 -4.697 33.897 -4.7 32.92 C-4.705 30.91 -4.707 28.9 -4.707 26.89 C-4.709 23.806 -4.728 20.723 -4.747 17.639 C-4.75 15.691 -4.752 13.742 -4.752 11.793 C-4.76 10.866 -4.767 9.939 -4.774 8.984 C-4.771 8.127 -4.768 7.269 -4.765 6.385 C-4.766 5.629 -4.768 4.873 -4.769 4.093 C-4.35 0.926 -3.046 0.274 0 0 Z " fill="#000000" transform="translate(81.52197265625,253.77294921875)" />
  <path d="M0 0 C4.789 2.49 7.366 5.317 10 10 C12.326 17.396 11.739 25.164 8.281 32.055 C5.903 35.666 2.877 38.061 -1 40 C-6.006 40.501 -8.018 40.63 -12.312 37.875 C-16.816 33.057 -18.733 28.338 -19.25 21.875 C-18.801 14.908 -17.229 7.93 -12 3 C-7.908 0.42 -4.827 -0.704 0 0 Z " fill="#A4A9AD" transform="translate(380,300)" />
  <path d="M0 0 C10.851 10.851 15.36 25.411 17.312 40.312 C16.312 41.312 16.312 41.312 13.75 41.375 C12.946 41.354 12.141 41.334 11.312 41.312 C9.323 37.632 7.871 34.04 6.562 30.062 C3.282 20.93 -2.074 13.087 -10.688 8.312 C-18.359 5.452 -28.41 4.448 -36.062 7.812 C-47.073 14.488 -50.89 26.515 -54.012 38.352 C-54.688 40.312 -54.688 40.312 -56.688 42.312 C-57.678 42.312 -58.668 42.312 -59.688 42.312 C-60.236 27.513 -55.567 14.418 -45.688 3.312 C-31.162 -10.025 -16.185 -10.163 0 0 Z " fill="#000000" transform="translate(396.6875,272.6875)" />
  <path d="M0 0 C0.147 1.004 0.294 2.008 0.445 3.043 C1.968 12.589 4.447 20.394 9 29 C-2.339 33.098 -12.254 30.637 -23 26 C-29.532 22.382 -34.547 17.976 -39 12 C-39 11.34 -39 10.68 -39 10 C-30.42 9.01 -21.84 8.02 -13 7 C-12.34 4.69 -11.68 2.38 -11 0 C-3.375 -1.125 -3.375 -1.125 0 0 Z " fill="#000000" transform="translate(158,329)" />
  <path d="M0 0 C8.58 0 17.16 0 26 0 C26 9.9 26 19.8 26 30 C14.617 32.277 14.617 32.277 10.188 32.25 C9.315 32.255 8.442 32.26 7.543 32.266 C5 32 5 32 0 30 C0 20.1 0 10.2 0 0 Z " fill="#FFB819" transform="translate(113,276)" />
  <path d="M0 0 C2.191 0.193 4.383 0.386 6.574 0.578 C11.883 1.045 17.192 1.52 22.5 2 C22.5 4.97 22.5 7.94 22.5 11 C20.063 11.342 17.626 11.674 15.188 12 C14.517 12.095 13.846 12.191 13.154 12.289 C2.709 13.662 -7.716 12.904 -18.19 12.2 C-20.26 12.062 -22.331 11.93 -24.402 11.799 C-25.742 11.711 -27.082 11.623 -28.422 11.535 C-29.614 11.457 -30.806 11.378 -32.034 11.297 C-42.133 10.431 -42.133 10.431 -43.938 8.312 C-44.626 5.48 -44.632 2.904 -44.5 0 C-33.829 -6.648 -11.875 -1.076 0 0 Z " fill="#A4A9AD" transform="translate(235.5,156)" />
  <path d="M0 0 C14.081 0.609 28.121 1.536 42.169 2.675 C45.485 2.941 48.802 3.196 52.119 3.451 C54.245 3.622 56.371 3.793 58.496 3.965 C59.479 4.039 60.463 4.113 61.476 4.189 C65.982 4.566 69.899 4.92 74 7 C74 9.31 74 11.62 74 14 C59.82 13.41 45.659 12.654 31.499 11.698 C28.512 11.497 25.524 11.301 22.537 11.105 C20.609 10.977 18.682 10.848 16.754 10.719 C15.875 10.661 14.996 10.604 14.09 10.545 C9.35 10.221 4.694 9.739 0 9 C0 6.03 0 3.06 0 0 Z " fill="#A4A9AD" transform="translate(268,159)" />
  <path d="M0 0 C1.429 -0.021 1.429 -0.021 2.887 -0.043 C5.312 0.188 5.312 0.188 7.312 2.188 C7.54 4.25 7.54 4.25 7.508 6.758 C7.501 7.654 7.495 8.55 7.488 9.473 C7.472 10.41 7.455 11.347 7.438 12.312 C7.428 13.257 7.419 14.202 7.41 15.176 C7.387 17.513 7.354 19.85 7.312 22.188 C5.063 22.383 2.813 22.569 0.562 22.75 C-0.69 22.854 -1.943 22.959 -3.234 23.066 C-6.688 23.188 -6.688 23.188 -10.688 22.188 C-10.688 15.257 -10.688 8.327 -10.688 1.188 C-6.875 0.425 -3.822 0.026 0 0 Z " fill="#A4A9AD" transform="translate(430.6875,295.8125)" />
  <path d="M0 0 C1.657 1.657 1.171 3.607 1.188 5.875 C1.202 6.759 1.216 7.644 1.23 8.555 C1 11 1 11 -1 14 C-3.43 14.341 -3.43 14.341 -6.445 14.293 C-7.522 14.283 -8.598 14.274 -9.707 14.264 C-10.835 14.239 -11.963 14.213 -13.125 14.188 C-14.261 14.174 -15.396 14.16 -16.566 14.146 C-19.378 14.111 -22.189 14.062 -25 14 C-26.239 11.522 -26.167 9.763 -26.188 7 C-26.202 6.113 -26.216 5.226 -26.23 4.312 C-26 2 -26 2 -24 0 C-21.427 -0.339 -18.959 -0.562 -16.375 -0.688 C-15.291 -0.747 -15.291 -0.747 -14.185 -0.808 C-9.328 -1.037 -4.784 -0.976 0 0 Z " fill="#00B3E3" transform="translate(321,244)" />
  <path d="M0 0 C3.969 3.337 5.5 5.593 6.25 10.75 C5.606 15.336 4.069 17.141 0.75 20.312 C-3.176 22.628 -5.881 22.405 -10.25 21.312 C-11.937 19.626 -11.495 17.372 -11.625 15.062 C-11.97 10.614 -12.757 8.052 -15.25 4.312 C-15.188 2.125 -15.188 2.125 -14.25 0.312 C-9.849 -3.073 -4.677 -2.429 0 0 Z " fill="#A4A9AD" transform="translate(154.25,185.6875)" />
  <path d="M0 0 C3.63 0 7.26 0 11 0 C11.025 3.969 11.043 7.939 11.055 11.908 C11.06 13.259 11.067 14.61 11.075 15.962 C11.088 17.9 11.093 19.839 11.098 21.777 C11.103 22.945 11.108 24.113 11.114 25.316 C11 28 11 28 10 29 C6.7 29 3.4 29 0 29 C0 19.43 0 9.86 0 0 Z " fill="#FFFFFF" transform="translate(139,276)" />
  <path d="M0 0 C2.869 2.511 3.787 4.331 4.938 7.938 C5.016 11.773 4.045 13.786 2 17 C-1.302 19.201 -3.068 19.769 -7 20 C-11.274 18.659 -12.661 17.58 -14.938 13.688 C-16.065 9.776 -16.279 7.838 -15 4 C-10.476 -1.4 -6.631 -1.711 0 0 Z " fill="#A4A9AD" transform="translate(107,196)" />
  <path d="M0 0 C2.97 0 5.94 0 9 0 C9 10.23 9 20.46 9 31 C4.545 30.01 4.545 30.01 0 29 C-0.922 25.314 -1.05 22.877 -0.879 19.141 C-0.831 18.026 -0.782 16.911 -0.732 15.762 C-0.648 14.023 -0.648 14.023 -0.562 12.25 C-0.51 11.076 -0.458 9.901 -0.404 8.691 C-0.275 5.794 -0.14 2.897 0 0 Z " fill="#FFFFFF" transform="translate(104,275)" />
  <path d="M0 0 C3 1.125 3 1.125 4 3.125 C4.356 10.592 4.356 10.592 2 14.125 C-1.152 14.523 -1.152 14.523 -4.938 14.5 C-6.184 14.508 -7.431 14.515 -8.715 14.523 C-12 14.125 -12 14.125 -13.93 12.957 C-15.438 10.375 -15.292 8.404 -15.188 5.438 C-15.16 4.444 -15.133 3.45 -15.105 2.426 C-15.071 1.667 -15.036 0.907 -15 0.125 C-10.573 -2.089 -4.669 -1.228 0 0 Z " fill="#00B3E3" transform="translate(407,245.875)" />
  <path d="M0 0 C0.861 0.041 1.723 0.082 2.61 0.124 C4.439 0.213 6.269 0.305 8.098 0.4 C10.867 0.541 13.636 0.669 16.406 0.795 C18.188 0.883 19.969 0.972 21.75 1.062 C22.567 1.099 23.384 1.136 24.226 1.173 C30.089 1.492 35.68 2.448 41.406 3.73 C41.901 5.215 41.901 5.215 42.406 6.73 C35.519 6.47 28.632 6.202 21.746 5.931 C19.403 5.839 17.061 5.749 14.719 5.66 C11.35 5.533 7.982 5.4 4.613 5.266 C3.567 5.227 2.521 5.188 1.444 5.149 C-0.027 5.089 -0.027 5.089 -1.528 5.028 C-2.387 4.994 -3.247 4.961 -4.132 4.927 C-6.682 4.723 -9.098 4.281 -11.594 3.73 C-11.264 2.74 -10.934 1.75 -10.594 0.73 C-7.282 -0.926 -3.622 -0.185 0 0 Z " fill="#000000" transform="translate(359.59375,192.26953125)" />
  <path d="M0 0 C3.5 0.125 3.5 0.125 4.5 1.125 C4.587 3.052 4.607 4.982 4.598 6.91 C4.594 8.08 4.591 9.25 4.588 10.455 C4.58 11.687 4.571 12.918 4.562 14.188 C4.558 15.423 4.553 16.659 4.549 17.932 C4.537 20.996 4.521 24.061 4.5 27.125 C1.86 27.125 -0.78 27.125 -3.5 27.125 C-3.696 22.813 -3.88 18.5 -4.062 14.188 C-4.119 12.956 -4.175 11.724 -4.232 10.455 C-4.281 9.285 -4.329 8.115 -4.379 6.91 C-4.426 5.826 -4.473 4.742 -4.522 3.625 C-4.488 -0.292 -4.038 0.144 0 0 Z " fill="#333E48" transform="translate(147.5,210.875)" />
  <path d="M0 0 C1.678 0.082 3.357 0.159 5.035 0.229 C7.491 0.333 9.946 0.454 12.401 0.58 C13.52 0.622 13.52 0.622 14.661 0.665 C19.053 0.915 22.1 1.529 25.561 4.31 C27.144 8.38 27.825 11.954 27.561 16.31 C25.797 13.222 25.561 12.077 25.561 8.31 C20.105 6.809 15.04 5.946 9.397 5.677 C8.643 5.636 7.888 5.594 7.111 5.552 C5.523 5.466 3.934 5.383 2.346 5.305 C-0.037 5.187 -2.42 5.056 -4.802 4.924 C-14.025 4.428 -23.2 4.193 -32.439 4.31 C-28.177 -5.126 -9.123 -0.461 0 0 Z " fill="#000000" transform="translate(296.438720703125,188.689697265625)" />
  <path d="M0 0 C0.196 2.687 0.382 5.374 0.562 8.062 C0.619 8.815 0.675 9.567 0.732 10.342 C1.04 15.075 0.915 19.338 0 24 C-1 25 -1 25 -4 25.125 C-7 25 -7 25 -8 24 C-8.087 22.292 -8.107 20.581 -8.098 18.871 C-8.094 17.837 -8.091 16.802 -8.088 15.736 C-8.08 14.648 -8.071 13.559 -8.062 12.438 C-8.058 11.345 -8.053 10.253 -8.049 9.127 C-8.037 6.418 -8.021 3.709 -8 1 C-5.291 -0.354 -2.991 -0.065 0 0 Z " fill="#FFFFFF" transform="translate(422,272)" />
  <path d="M0 0 C1.454 0.031 1.454 0.031 2.938 0.062 C4.001 5.236 4.054 10.186 4 15.438 C3.995 16.269 3.991 17.1 3.986 17.957 C3.975 19.992 3.957 22.027 3.938 24.062 C1.298 24.062 -1.342 24.062 -4.062 24.062 C-4.091 20.25 -4.109 16.438 -4.125 12.625 C-4.133 11.536 -4.142 10.448 -4.15 9.326 C-4.154 8.292 -4.157 7.257 -4.16 6.191 C-4.165 5.233 -4.171 4.275 -4.176 3.287 C-3.998 -0.198 -3.564 0.073 0 0 Z " fill="#FFB819" transform="translate(426.0625,271.9375)" />
  <path d="M0 0 C3.062 0.125 3.062 0.125 5.062 1.125 C5.089 4.083 5.109 7.042 5.125 10 C5.133 10.842 5.142 11.684 5.15 12.551 C5.154 13.356 5.157 14.162 5.16 14.992 C5.165 15.736 5.171 16.479 5.176 17.246 C5.062 19.125 5.062 19.125 4.062 21.125 C1.752 21.125 -0.558 21.125 -2.938 21.125 C-3.133 17.813 -3.318 14.5 -3.5 11.188 C-3.556 10.242 -3.612 9.296 -3.67 8.322 C-3.718 7.423 -3.767 6.524 -3.816 5.598 C-3.864 4.765 -3.911 3.932 -3.959 3.074 C-3.923 -0.145 -3.24 0.138 0 0 Z " fill="#333E48" transform="translate(101.9375,217.875)" />
  <path d="M0 0 C2.97 0.495 2.97 0.495 6 1 C6 9.25 6 17.5 6 26 C1 27 1 27 -1 26 C-1.163 17.282 -0.657 8.688 0 0 Z " fill="#FFFFFF" transform="translate(71,272)" />
  <path d="M0 0 C2.339 0.287 4.674 0.619 7 1 C7.917 6.385 8.111 11.542 8 17 C6.521 17.027 5.042 17.046 3.562 17.062 C2.327 17.08 2.327 17.08 1.066 17.098 C-1 17 -1 17 -2 16 C-1.935 13.483 -1.809 11.008 -1.625 8.5 C-1.581 7.797 -1.537 7.095 -1.492 6.371 C-1.129 1.129 -1.129 1.129 0 0 Z " fill="#333E48" transform="translate(260,151)" />
  <path d="M0 0 C2.31 0 4.62 0 7 0 C7 5.61 7 11.22 7 17 C5.02 17 3.04 17 1 17 C-1.398 6.168 -1.398 6.168 -1 1 C-0.67 0.67 -0.34 0.34 0 0 Z " fill="#0071CE" transform="translate(413,297)" />
  <path d="M0 0 C1.454 0.031 1.454 0.031 2.938 0.062 C3.794 3.143 4.207 6.13 4.5 9.312 C4.584 10.205 4.668 11.097 4.754 12.016 C4.814 12.691 4.875 13.367 4.938 14.062 C-1.812 14.188 -1.812 14.188 -4.062 13.062 C-4.089 11.083 -4.109 9.104 -4.125 7.125 C-4.137 6.023 -4.148 4.921 -4.16 3.785 C-4.022 -0.075 -3.909 0.08 0 0 Z " fill="#333E48" transform="translate(390.0625,162.9375)" />
  <path d="M0 0 C3.332 3.117 4.927 4.992 5.098 9.699 C5.086 10.685 5.074 11.671 5.062 12.688 C5.053 13.681 5.044 14.675 5.035 15.699 C5.024 16.458 5.012 17.218 5 18 C2.596 17.038 1.243 16.355 -0.238 14.195 C-1.127 11.633 -1.232 9.583 -1.188 6.875 C-1.178 5.572 -1.178 5.572 -1.168 4.242 C-1 2 -1 2 0 0 Z " fill="#A4A9AD" transform="translate(138,188)" />
  <path d="M0 0 C1.98 0 3.96 0 6 0 C6 2.64 6 5.28 6 8 C3.69 8.33 1.38 8.66 -1 9 C-0.67 6.03 -0.34 3.06 0 0 Z " fill="#333E48" transform="translate(205,167)" />
  <path d="M0 0 C3.248 0.45 6.338 0.731 9.625 0.625 C9.295 1.615 8.965 2.605 8.625 3.625 C6.334 3.679 4.042 3.718 1.75 3.75 C-0.164 3.785 -0.164 3.785 -2.117 3.82 C-5.375 3.625 -5.375 3.625 -7.375 1.625 C-4.069 -0.579 -3.681 -0.565 0 0 Z " fill="#00B3E3" transform="translate(400.375,256.375)" />
  <path d="M0 0 C1.98 0.495 1.98 0.495 4 1 C4.33 3.97 4.66 6.94 5 10 C3.68 10 2.36 10 1 10 C-0.837 6.218 -1.158 4.054 0 0 Z " fill="#A4A9AD" transform="translate(92,201)" />
  <path d="M0 0 C3.96 0 7.92 0 12 0 C12 0.99 12 1.98 12 3 C8.04 2.67 4.08 2.34 0 2 C0 1.34 0 0.68 0 0 Z " fill="#333E48" transform="translate(408,314)" />
  <path d="M0 0 C3.332 3.117 4.927 4.992 5.098 9.699 C5.086 10.685 5.074 11.671 5.062 12.688 C5.053 13.681 5.044 14.675 5.035 15.699 C5.024 16.458 5.012 17.218 5 18 C3.68 17.34 2.36 16.68 1 16 C1.99 15.67 2.98 15.34 4 15 C3.34 11.7 2.68 8.4 2 5 C1.01 4.67 0.02 4.34 -1 4 C-0.67 2.68 -0.34 1.36 0 0 Z " fill="#A4A9AD" transform="translate(138,188)" />
  <path d="M0 0 C2.875 -0.125 2.875 -0.125 6 0 C6.66 0.66 7.32 1.32 8 2 C4.675 3.108 2.378 2.845 -1 2 C-0.67 1.34 -0.34 0.68 0 0 Z " fill="#000000" transform="translate(99,218)" />
  <path d="M0 0 C3 1 3 1 3 1 Z " fill="#A4A9AD" transform="translate(139,305)" />
  <path d="M0 0 C2 1 2 1 2 1 Z " fill="#FFB819" transform="translate(129,307)" />
  <path d="M0 0 C4 1 4 1 4 1 Z " fill="#FFB819" transform="translate(421,296)" />
  <path d="M0 0 C3 1 3 1 3 1 Z " fill="#333E48" transform="translate(136,337)" />
  <path d="M0 0 C3 1 3 1 3 1 Z " fill="#000000" transform="translate(416,314)" />
  <path d="M0 0 C3 1 3 1 3 1 Z " fill="#333E48" transform="translate(107,305)" />
  <path d="M0 0 C3 1 3 1 3 1 Z " fill="#000000" transform="translate(95,303)" />
  <path d="M0 0 C2 1 2 1 2 1 Z " fill="#FFB819" transform="translate(115,307)" />
  <path d="M0 0 C2 1 2 1 2 1 Z " fill="#FFB819" transform="translate(113,306)" />
</svg>