<?xml version='1.0' encoding='utf-8'?>
<svg xmlns="http://www.w3.org/2000/svg" width="512" height="512" viewBox="0 0 512 512" style="background-color:transparent">
  <path d="M0 0 C3 2 3 2 3.688 5.125 C3.791 6.074 3.894 7.022 4 8 C4.956 8.14 5.912 8.28 6.896 8.425 C12.775 10.127 16.526 14.935 20.66 19.207 C22.048 20.609 23.435 22.011 24.823 23.413 C26.757 25.373 28.678 27.344 30.601 29.315 C33.962 32.758 37.344 36.181 40.724 39.605 C42.519 41.427 44.31 43.252 46.096 45.081 C50.239 49.306 54.386 53.297 59 57 C60.017 58.113 61.004 59.254 61.938 60.438 C64.562 63.626 67.444 66.182 70.68 68.738 C71.115 69.155 71.551 69.571 72 70 C72 70.66 72 71.32 72 72 C72.585 72.251 73.17 72.503 73.773 72.762 C78.532 75.408 82.114 80.15 84.438 85 C84.623 85.66 84.809 86.32 85 87 C90.65 86.399 95.662 84.925 101 83 C110.709 91.378 115.722 101.283 117 114 C117.11 117.231 117.11 120.459 117.098 123.691 C117.097 124.568 117.097 125.445 117.096 126.348 C117.09 130.01 117.081 133.671 117.004 137.333 C116.428 149.983 116.428 149.983 122.102 160.789 C123.705 162.226 125.337 163.633 127 165 C128.266 166.321 129.514 167.66 130.738 169.02 C131.326 169.642 131.913 170.265 132.518 170.907 C133.76 172.226 134.995 173.549 136.226 174.878 C139.3 178.188 142.399 181.414 145.703 184.496 C153.846 192.266 153.846 192.266 154.293 197.297 C153.777 200.339 152.948 203.07 152 206 C151.769 208.688 151.769 208.688 152 211 C153.066 212.296 153.066 212.296 155.562 212.062 C156.769 212.032 156.769 212.032 158 212 C158.99 209.36 159.98 206.72 161 204 C161.66 204 162.32 204 163 204 C163 204.66 163 205.32 163 206 C163.536 206.206 164.072 206.413 164.625 206.625 C171.907 210.841 180.07 220.226 182.723 228.25 C183.394 234.904 181.924 244.497 178 250 C175.885 251.439 173.866 252.671 171.625 253.875 C171.007 254.217 170.39 254.559 169.753 254.912 C163.923 258.114 157.988 261.105 152 264 C152.33 260.7 152.66 257.4 153 254 C148.473 255.395 144.299 257.211 140.082 259.344 C139.431 259.669 138.781 259.995 138.11 260.33 C136.009 261.382 133.911 262.441 131.812 263.5 C130.362 264.228 128.912 264.957 127.462 265.685 C118.931 269.976 110.404 274.281 102.013 278.841 C98.81 280.576 95.669 282.184 92.262 283.48 C87.828 285.244 87.828 285.244 84 288 C83.527 290.967 83.527 290.967 83.625 294.25 C83.453 297.668 83.453 297.668 82 301 C76.253 305.177 69.281 307.473 62.675 309.945 C60.209 310.918 57.894 312.009 55.543 313.23 C51.52 315.24 48.378 316.421 44 315 C38.491 310.714 35.022 304.115 31.48 298.223 C30.192 295.889 30.192 295.889 28 295 C28.431 305.389 28.431 305.389 32 315 C30.02 315.66 28.04 316.32 26 317 C22.282 313.027 21.077 309.34 20.062 304.125 C14.996 280.859 4.557 246.987 -14.883 231.5 C-18.582 229.194 -20.51 229 -25 229 C-25 232.3 -25 235.6 -25 239 C-25.99 238.01 -26.98 237.02 -28 236 C-28 235.34 -28 234.68 -28 234 C-28.66 234 -29.32 234 -30 234 C-31.282 232.303 -32.474 230.538 -33.625 228.75 C-34.339 227.652 -35.053 226.553 -35.789 225.422 C-36.341 224.566 -36.341 224.566 -36.903 223.693 C-38.576 221.111 -40.289 218.557 -42 216 C-44.046 212.937 -46.085 209.87 -48.105 206.789 C-52.189 200.507 -52.189 200.507 -56.812 194.625 C-61.613 188.865 -62.953 182.559 -64.625 175.438 C-68.559 159.692 -74.784 145.455 -82.812 131.375 C-83.268 130.575 -83.724 129.775 -84.194 128.95 C-87.213 123.61 -87.213 123.61 -92 120 C-93.98 120.495 -93.98 120.495 -96 121 C-96.33 124.96 -96.66 128.92 -97 133 C-100.161 129.839 -100.388 129.444 -100.688 125.312 C-100.786 124.1 -100.786 124.1 -100.887 122.863 C-100.924 122.248 -100.961 121.634 -101 121 C-100.34 121 -99.68 121 -99 121 C-99.4 118.621 -99.819 116.248 -100.25 113.875 C-100.36 113.21 -100.469 112.545 -100.582 111.859 C-101.469 107.096 -103.117 103.979 -106 100 C-106.33 99.01 -106.66 98.02 -107 97 C-107.66 97 -108.32 97 -109 97 C-109.577 90.812 -110.146 84.623 -110.709 78.433 C-110.901 76.332 -111.095 74.232 -111.291 72.131 C-114.121 41.771 -114.121 41.771 -111.062 36.938 C-107.214 34.503 -103.38 33.174 -99 32 C-98.553 32.592 -98.105 33.183 -97.645 33.793 C-97.04 34.583 -96.435 35.373 -95.812 36.188 C-95.221 36.965 -94.629 37.742 -94.02 38.543 C-92.009 41.072 -92.009 41.072 -89.543 43.441 C-86.93 46.07 -84.735 48.795 -82.5 51.75 C-82.077 52.306 -81.654 52.862 -81.218 53.434 C-79.808 55.287 -78.404 57.143 -77 59 C-70.034 68.197 -62.998 77.309 -55.687 86.235 C-50.655 92.388 -45.799 98.663 -41 105 C-40.415 105.737 -39.83 106.475 -39.227 107.234 C-38 109 -38 109 -38 111 C-37.34 111 -36.68 111 -36 111 C-33.738 113.419 -31.846 116.154 -29.875 118.812 C-29.03 119.919 -29.03 119.919 -28.168 121.049 C-27.636 121.761 -27.103 122.473 -26.555 123.207 C-25.82 124.189 -25.82 124.189 -25.07 125.191 C-24 127 -24 127 -24 130 C-23.031 129.567 -22.061 129.134 -21.062 128.688 C-17.45 127.128 -13.773 125.909 -10.016 124.746 C-7.734 123.99 -7.734 123.99 -5 122 C-3.483 117.449 -3.318 113.622 -5.195 109.156 C-7.172 105.698 -9.505 102.786 -12.125 99.812 C-13.121 98.659 -14.115 97.506 -15.109 96.352 C-15.601 95.783 -16.093 95.215 -16.6 94.63 C-20.154 90.493 -23.563 86.234 -27 82 C-28.044 80.715 -29.089 79.43 -30.133 78.145 C-30.683 77.467 -31.234 76.789 -31.802 76.091 C-32.934 74.696 -34.067 73.302 -35.2 71.907 C-35.752 71.229 -36.303 70.551 -36.871 69.852 C-37.407 69.192 -37.943 68.532 -38.496 67.853 C-39.802 66.244 -41.106 64.634 -42.41 63.023 C-46.533 57.95 -50.735 52.954 -55 48 C-68.546 32.254 -68.546 32.254 -74 24 C-69.376 22.497 -64.751 20.997 -60.125 19.5 C-59.078 19.161 -59.078 19.161 -58.011 18.816 C-47.345 15.366 -36.651 12.024 -25.92 8.782 C-18.843 6.625 -11.862 4.279 -4.983 1.55 C-3.098 0.836 -3.098 0.836 0 0 Z M-104 60 C-103.886 63.042 -103.759 66.083 -103.625 69.125 C-103.594 69.981 -103.563 70.837 -103.531 71.719 C-103.125 80.523 -100.647 85.966 -95.5 93 C-94.969 93.738 -94.438 94.476 -93.891 95.237 C-92.799 96.754 -91.704 98.27 -90.606 99.783 C-88.632 102.509 -86.681 105.251 -84.73 107.994 C-82.829 110.669 -80.919 113.338 -79 116 C-78.455 116.788 -77.909 117.575 -77.348 118.387 C-76.903 118.919 -76.458 119.451 -76 120 C-75.34 120 -74.68 120 -74 120 C-74.816 105.498 -75.573 93.741 -85.512 82.707 C-88.357 79.444 -90.863 75.915 -93.438 72.438 C-93.945 71.77 -94.453 71.102 -94.976 70.414 C-97.06 67.671 -98.989 65.019 -100.723 62.035 C-101.144 61.364 -101.566 60.692 -102 60 C-102.66 60 -103.32 60 -104 60 Z M-103 91 C-102.762 98.505 -100.887 103.25 -96 109 C-95.01 109.66 -94.02 110.32 -93 111 C-92.383 103.6 -94.903 98.961 -99.125 93 C-99.744 92.34 -100.363 91.68 -101 91 C-101.66 91 -102.32 91 -103 91 Z M-63 115 C-62.46 120.275 -61.888 125.543 -61.26 130.808 C-61.054 132.549 -60.859 134.292 -60.668 136.035 C-59.618 143.128 -56.108 148.263 -52 154 C-51.265 155.039 -51.265 155.039 -50.514 156.099 C-44.53 164.538 -38.485 172.935 -32 181 C-30.515 176.545 -31.266 172.441 -31.688 167.812 C-31.787 166.431 -31.787 166.431 -31.889 165.021 C-32.823 154.654 -37.392 148.082 -43.562 139.938 C-44.808 138.274 -46.052 136.61 -47.297 134.945 C-48.226 133.708 -48.226 133.708 -49.174 132.446 C-50.91 130.12 -52.624 127.78 -54.328 125.43 C-54.834 124.732 -55.34 124.035 -55.861 123.317 C-56.813 122.002 -57.763 120.686 -58.711 119.369 C-59.783 117.895 -60.888 116.444 -62 115 C-62.33 115 -62.66 115 -63 115 Z M96.867 117.922 C95.23 118.579 95.23 118.579 93.56 119.25 C91.736 119.993 91.736 119.993 89.875 120.75 C88.573 121.276 87.271 121.801 85.969 122.326 C81.309 124.208 76.655 126.104 72 128 C71.068 128.379 70.136 128.759 69.175 129.15 C59.747 132.989 50.319 136.828 40.901 140.691 C31.964 144.355 23.028 148.015 14.027 151.52 C12.754 152.02 11.481 152.52 10.208 153.021 C7.994 153.888 5.774 154.742 3.548 155.578 C-2.172 157.831 -5.738 159.685 -9 165 C-9.674 167.438 -9.674 167.438 -9.438 170 C-9.392 171.018 -9.347 172.037 -9.301 173.086 C-9.202 174.378 -9.102 175.669 -9 177 C-8.939 177.881 -8.877 178.762 -8.814 179.669 C-8.602 182.656 -8.368 185.64 -8.125 188.625 C-8.047 189.61 -7.969 190.595 -7.888 191.609 C-7.804 192.535 -7.72 193.46 -7.633 194.414 C-7.559 195.249 -7.486 196.084 -7.411 196.944 C-7.155 199.215 -7.155 199.215 -5 201 C0.231 200.687 4.621 198.617 9.324 196.492 C10.131 196.135 10.937 195.777 11.768 195.409 C13.505 194.639 15.24 193.865 16.974 193.089 C21.596 191.021 26.229 188.975 30.859 186.926 C32.268 186.301 32.268 186.301 33.705 185.664 C41.868 182.047 50.059 178.5 58.268 174.99 C60.426 174.067 62.583 173.142 64.74 172.217 C71.4 169.363 78.073 166.548 84.777 163.801 C86.583 163.055 86.583 163.055 88.426 162.295 C90.646 161.381 92.87 160.477 95.099 159.586 C100.449 157.38 104.29 155.486 108 151 C108.33 150.67 108.66 150.34 109 150 C109.029 148.311 108.987 146.621 108.914 144.934 C108.87 143.89 108.826 142.847 108.781 141.771 C108.73 140.671 108.678 139.571 108.625 138.438 C108.581 137.364 108.537 136.291 108.492 135.186 C108.764 124.833 108.764 124.833 105 116 C101.704 116 99.91 116.692 96.867 117.922 Z M-59 153 C-59.581 159.864 -58.22 163.343 -54.25 168.875 C-53.807 169.538 -53.363 170.2 -52.906 170.883 C-50.536 174.312 -48.898 176.304 -45 178 C-45.3 170.571 -47.06 166.372 -51.438 160.438 C-51.941 159.715 -52.444 158.992 -52.963 158.248 C-54.873 155.536 -54.873 155.536 -57 153 C-57.66 153 -58.32 153 -59 153 Z M28.625 233.688 C26.654 237.705 26.133 240.612 27 245 C28.823 248.579 29.982 250.514 33.633 252.258 C34.414 252.833 35.195 253.408 36 254 C36.418 257.066 36.418 257.066 36.188 260.562 C36.061 262.706 35.986 264.853 36 267 C36.66 267.66 37.32 268.32 38 269 C41.597 268.677 41.597 268.677 45 268 C46.187 264.44 46.097 261.562 46.062 257.812 C46.053 256.54 46.044 255.268 46.035 253.957 C46.024 252.981 46.012 252.005 46 251 C46.99 250.67 47.98 250.34 49 250 C52.029 245.673 52.446 242.25 51.625 237.188 C50.5 233.251 49.197 231.664 46 229 C38.936 226.697 33.583 228.078 28.625 233.688 Z " fill="#0071CE" transform="translate(236,105)" />
  <path d="M0 0 C1.668 1.668 1.345 3.773 1.535 6.066 C1.622 7.11 1.709 8.153 1.799 9.229 C1.886 10.329 1.973 11.429 2.062 12.562 C2.199 14.172 2.199 14.172 2.338 15.814 C2.587 18.875 2.797 21.936 3 25 C3.077 25.787 3.154 26.575 3.234 27.386 C3.483 31.154 3.183 32.757 0.879 35.809 C-2.046 38.035 -4.708 39.563 -8.062 41.062 C-8.694 41.347 -9.326 41.632 -9.976 41.925 C-12.31 42.968 -14.654 43.986 -17 45 C-17.975 45.422 -18.949 45.843 -19.953 46.278 C-25.768 48.787 -31.591 51.279 -37.418 53.762 C-44.294 56.692 -51.155 59.654 -58.012 62.629 C-59.872 63.436 -61.732 64.241 -63.592 65.046 C-69.485 67.598 -75.373 70.16 -81.249 72.75 C-84.002 73.962 -86.756 75.169 -89.511 76.376 C-90.823 76.953 -92.134 77.531 -93.443 78.113 C-95.262 78.92 -97.084 79.718 -98.906 80.516 C-99.941 80.972 -100.975 81.429 -102.041 81.899 C-105.078 83.029 -107.769 83.741 -111 84 C-113.41 81.59 -113.342 80.73 -113.633 77.414 C-113.717 76.489 -113.802 75.563 -113.888 74.609 C-113.966 73.625 -114.045 72.64 -114.125 71.625 C-114.206 70.627 -114.288 69.63 -114.371 68.602 C-114.595 65.735 -114.8 62.868 -115 60 C-115.099 58.708 -115.199 57.417 -115.301 56.086 C-115.346 55.068 -115.391 54.049 -115.438 53 C-115.477 52.154 -115.517 51.309 -115.559 50.438 C-114.736 46.846 -112.618 44.48 -110 42 C-107.547 40.677 -105.368 39.658 -102.789 38.695 C-102.081 38.414 -101.373 38.134 -100.644 37.844 C-98.31 36.922 -95.968 36.024 -93.625 35.125 C-91.971 34.475 -90.318 33.824 -88.666 33.171 C-86.081 32.149 -83.497 31.129 -80.909 30.116 C-72.403 26.784 -63.957 23.313 -55.514 19.824 C-51.466 18.154 -47.412 16.495 -43.359 14.836 C-38.716 12.935 -34.073 11.032 -29.436 9.114 C-25.888 7.648 -22.337 6.191 -18.781 4.743 C-17.482 4.212 -16.185 3.676 -14.889 3.137 C-13.124 2.402 -11.353 1.683 -9.582 0.965 C-8.594 0.559 -7.607 0.153 -6.589 -0.266 C-3.858 -1.04 -2.605 -1.042 0 0 Z " fill="#333E48" transform="translate(342,222)" />
  <path d="M0 0 C1.93 1.617 3.367 3.112 5 5 C5.763 5.82 6.526 6.64 7.312 7.484 C14 14.715 14 14.715 14 17 C14.99 17.33 15.98 17.66 17 18 C18.84 20.012 18.84 20.012 20.938 22.688 C24.505 27.157 28.14 31.545 31.875 35.875 C32.902 37.07 33.93 38.266 34.957 39.461 C35.464 40.051 35.972 40.641 36.495 41.249 C43.104 48.937 49.581 56.681 55.798 64.69 C59.628 69.594 63.647 74.314 67.717 79.018 C71.944 83.91 76.029 88.897 80 94 C80.589 94.754 81.178 95.508 81.785 96.285 C85.915 101.664 87.369 104.99 87 112 C85.41 116.176 83.346 117.231 79.441 119.051 C75.069 120.751 70.554 121.895 66 123 C65.444 121.98 64.889 120.961 64.316 119.91 C62.16 116.142 59.662 112.808 56.938 109.438 C55.956 108.206 54.974 106.974 53.992 105.742 C53.494 105.121 52.996 104.499 52.483 103.858 C50.156 100.943 47.861 98.001 45.562 95.062 C41.719 90.162 37.837 85.294 33.938 80.438 C29.46 74.858 25.066 69.224 20.719 63.543 C17.376 59.178 14 54.839 10.625 50.5 C9.732 49.351 9.732 49.351 8.821 48.178 C8.253 47.449 7.686 46.72 7.102 45.969 C6.567 45.28 6.032 44.592 5.481 43.883 C4.209 42.266 2.901 40.677 1.586 39.094 C0 37 0 37 0 35 C-0.882 34.669 -0.882 34.669 -1.781 34.332 C-4.695 32.583 -5.769 30.595 -7.5 27.688 C-9.269 24.741 -10.994 22.007 -13.156 19.332 C-16.218 15.459 -16.347 11.914 -16.277 7.156 C-16 5 -16 5 -14.375 2.562 C-9.582 -0.591 -5.563 -1.776 0 0 Z " fill="#A4A9AD" transform="translate(146,112)" />
  <path d="M0 0 C2.411 0.964 3.742 1.589 5.141 3.82 C7.491 9.781 4.635 16.765 2.719 22.543 C-2.071 29.39 -11.426 32.936 -18.688 36.625 C-26.282 40.534 -33.83 44.506 -41.312 48.625 C-50.701 53.782 -60.154 58.81 -69.625 63.812 C-80.618 69.62 -91.603 75.442 -102.562 81.312 C-103.691 81.916 -104.819 82.52 -105.981 83.142 C-111.384 86.039 -116.759 88.962 -122.06 92.044 C-126.426 94.196 -130.341 94.474 -135.062 93.125 C-141.649 88.36 -146.93 80.899 -149 73 C-149.795 67.703 -150.186 62.352 -150 57 C-149.34 56.34 -148.68 55.68 -148 55 C-146.023 55.18 -146.023 55.18 -144 56 C-141.79 58.918 -139.822 61.883 -137.887 64.984 C-137.473 65.608 -137.059 66.232 -136.633 66.875 C-136.271 67.45 -135.909 68.025 -135.536 68.617 C-133.163 70.754 -131.14 70.832 -128 71 C-125.292 70.227 -125.292 70.227 -122.699 68.832 C-121.721 68.351 -120.744 67.869 -119.736 67.373 C-118.227 66.601 -118.227 66.601 -116.688 65.812 C-114.692 64.818 -112.696 63.824 -110.699 62.832 C-109.737 62.348 -108.775 61.865 -107.784 61.367 C-105.232 60.114 -102.662 58.944 -100.055 57.809 C-97.022 56.484 -94.224 55.048 -91.438 53.25 C-87.331 50.712 -83.109 48.5 -78.781 46.371 C-70.596 42.311 -62.458 38.161 -54.334 33.981 C-52.04 32.801 -49.746 31.624 -47.451 30.447 C-40.903 27.083 -34.369 23.714 -27.957 20.094 C-23.678 17.702 -19.308 15.473 -14.955 13.219 C-11.397 11.354 -8.204 9.436 -5 7 C-4.34 7 -3.68 7 -3 7 C-2.691 6.216 -2.381 5.433 -2.062 4.625 C-1 2 -1 2 0 0 Z " fill="#A4A9AD" transform="translate(413,365)" />
  <path d="M0 0 C2.013 1.77 3.93 3.612 5.852 5.48 C7.01 6.429 8.175 7.367 9.352 8.293 C10.177 9.015 11.002 9.737 11.852 10.48 C11.852 11.14 11.852 11.8 11.852 12.48 C12.383 12.683 12.914 12.885 13.461 13.094 C16.894 15.085 19.361 17.825 22.102 20.668 C26.232 24.881 30.394 28.923 34.895 32.742 C38.218 35.694 41.283 38.905 44.406 42.066 C47.143 44.768 50.001 47.271 52.922 49.77 C55.611 52.154 58.106 54.709 60.602 57.293 C62.54 59.178 64.518 60.954 66.559 62.727 C70.979 66.568 75.271 70.534 79.539 74.543 C80.272 75.224 81.005 75.906 81.76 76.607 C92.375 86.572 92.375 86.572 93.445 90.859 C93.09 99.144 93.09 99.144 89.852 102.48 C84.697 105.068 80.487 106.088 74.852 104.48 C72.225 102.526 70.024 100.211 67.766 97.848 C66.775 96.843 66.775 96.843 65.764 95.817 C63.656 93.675 61.566 91.516 59.477 89.355 C57.391 87.22 55.302 85.088 53.211 82.958 C51.913 81.634 50.619 80.307 49.33 78.974 C46.384 75.948 43.403 73.05 40.191 70.306 C34.189 65.13 28.67 59.442 23.074 53.836 C21.855 52.617 20.636 51.399 19.416 50.181 C16.877 47.644 14.34 45.104 11.804 42.564 C8.551 39.304 5.292 36.049 2.033 32.795 C-0.478 30.288 -2.987 27.778 -5.495 25.268 C-6.696 24.066 -7.899 22.864 -9.101 21.664 C-10.774 19.993 -12.444 18.32 -14.113 16.645 C-14.611 16.149 -15.109 15.653 -15.623 15.142 C-19.037 11.706 -20.31 9.876 -20.461 5.043 C-20.406 0.786 -20.406 0.786 -18.461 -1.52 C-12.133 -4.256 -5.77 -4.081 0 0 Z " fill="#A4A9AD" transform="translate(247.1484375,85.51953125)" />
  <path d="M0 0 C-0.677 5.767 -1.477 11.482 -2.562 17.188 C-2.682 17.968 -2.801 18.749 -2.924 19.553 C-3.546 22.7 -4.107 25.132 -6.451 27.41 C-8.57 28.784 -10.732 29.889 -13 31 C-14.011 31.536 -15.022 32.071 -16.063 32.623 C-19.631 34.51 -23.219 36.352 -26.812 38.188 C-29.412 39.522 -32.011 40.859 -34.609 42.195 C-35.248 42.523 -35.886 42.851 -36.543 43.189 C-41.903 45.943 -47.237 48.743 -52.562 51.562 C-59.328 55.14 -66.13 58.627 -73 62 C-74.487 57.115 -73.687 52.508 -73.188 47.5 C-73.104 46.55 -73.021 45.6 -72.936 44.621 C-72.803 43.246 -72.803 43.246 -72.668 41.844 C-72.548 40.594 -72.548 40.594 -72.427 39.318 C-71.969 36.833 -71.36 35.128 -70 33 C-67.473 31.433 -65.025 30.071 -62.375 28.75 C-61.707 28.406 -61.04 28.062 -60.352 27.707 C-56.739 25.855 -53.103 24.051 -49.471 22.239 C-48.156 21.582 -46.842 20.926 -45.527 20.27 C-44.847 19.93 -44.167 19.591 -43.465 19.241 C-39.081 17.05 -34.708 14.837 -30.343 12.607 C-27.375 11.092 -24.404 9.585 -21.431 8.078 C-19.91 7.305 -18.391 6.528 -16.874 5.748 C-14.643 4.603 -12.406 3.47 -10.168 2.34 C-9.151 1.812 -9.151 1.812 -8.113 1.273 C-3.342 -1.114 -3.342 -1.114 0 0 Z " fill="#000000" transform="translate(390,359)" />
  <path d="M0 0 C12.267 4.166 18.784 18.756 24.312 29.625 C33.111 47.522 40.795 66.218 43.312 86.125 C40.307 88.402 38.695 89.125 34.875 89.125 C24.288 86.153 18.39 73.935 13.236 64.972 C4.835 49.769 -1.614 32.383 -2.246 14.98 C-2.738 11.801 -3.351 11.167 -5.688 9.125 C-6.085 5.949 -6.187 3.985 -4.562 1.188 C-2.688 0.125 -2.688 0.125 0 0 Z M7.312 30.125 C5.964 43.533 11.044 54.433 18.406 65.367 C20.916 67.682 22.971 67.834 26.312 68.125 C27.693 55.243 20.813 42.216 13.312 32.125 C12.653 31.465 11.993 30.805 11.312 30.125 C9.993 30.125 8.673 30.125 7.312 30.125 Z " fill="#333E48" transform="translate(215.6875,332.875)" />
  <path d="M0 0 C4.951 1.584 7.722 4.982 10.152 9.461 C10.802 10.759 11.438 12.064 12.062 13.375 C12.405 14.082 12.747 14.789 13.099 15.517 C18.844 27.55 22.975 39.378 26.122 52.321 C26.355 53.272 26.588 54.223 26.828 55.203 C27.031 56.056 27.234 56.908 27.442 57.786 C28.088 60.253 28.088 60.253 30.125 63 C30.125 63.99 30.125 64.98 30.125 66 C26.311 67.853 24.189 68.244 20.125 67 C14.814 62.558 11.262 56.394 8.125 50.312 C7.703 49.504 7.282 48.695 6.848 47.862 C0.459 35.17 -7.329 17.543 -5.875 3 C-4.22 0.057 -3.375 0 0 0 Z M1.125 18 C0.312 28.569 4.512 40.706 11.125 49 C13.72 49.871 13.72 49.871 16.125 50 C16.938 39.431 12.738 27.294 6.125 19 C3.53 18.129 3.53 18.129 1.125 18 Z " fill="#333E48" transform="translate(147.875,234)" />
  <path d="M0 0 C4.366 4.076 7.744 8.57 11.188 13.438 C11.751 14.228 12.315 15.018 12.896 15.833 C14.045 17.445 15.193 19.058 16.34 20.673 C17.88 22.831 19.435 24.977 21 27.117 C21.456 27.744 21.912 28.372 22.382 29.018 C23.227 30.18 24.076 31.339 24.928 32.496 C28.52 37.468 30.175 41.627 30.633 47.738 C30.758 49.338 30.758 49.338 30.887 50.971 C31.005 52.625 31.005 52.625 31.125 54.312 C31.211 55.435 31.298 56.557 31.387 57.713 C31.598 60.475 31.802 63.237 32 66 C28.091 62.288 24.892 58.373 21.75 54 C21.039 53.019 21.039 53.019 20.314 52.017 C18.87 50.016 17.434 48.009 16 46 C15.565 45.394 15.13 44.789 14.682 44.165 C13.468 42.469 12.263 40.767 11.062 39.062 C10.373 38.084 9.683 37.106 8.973 36.098 C4.364 28.861 2.272 22.797 1.25 14.25 C1.062 12.852 1.062 12.852 0.871 11.426 C0.367 7.561 0 3.907 0 0 Z " fill="#333E48" transform="translate(173,220)" />
  <path d="M0 0 C0.66 0 1.32 0 2 0 C3.299 1.699 4.51 3.465 5.688 5.25 C8.605 9.628 11.637 13.874 14.859 18.035 C15.531 18.907 16.203 19.779 16.896 20.677 C18.236 22.407 19.586 24.129 20.946 25.843 C24.759 30.792 27.193 34.778 28 41 C28.107 41.793 28.214 42.586 28.325 43.404 C28.632 45.933 28.887 48.463 29.125 51 C29.211 51.87 29.298 52.74 29.387 53.637 C29.596 55.757 29.799 57.879 30 60 C26.728 58.909 26.358 58.485 24.504 55.781 C24.033 55.104 23.563 54.427 23.078 53.73 C22.578 52.994 22.078 52.258 21.562 51.5 C20.494 49.951 19.425 48.403 18.355 46.855 C17.806 46.055 17.256 45.255 16.689 44.431 C15.024 42.034 13.326 39.664 11.613 37.301 C11.071 36.548 10.528 35.795 9.969 35.02 C8.929 33.58 7.884 32.143 6.834 30.711 C1.789 23.67 0.684 17.661 0.375 9.125 C0.336 8.246 0.298 7.367 0.258 6.461 C0.164 4.308 0.081 2.154 0 0 Z " fill="#333E48" transform="translate(132,165)" />
  <path d="M0 0 C3.805 3.171 5.208 5.585 6.062 10.438 C6.286 14.445 5.616 17.226 3.363 20.555 C0.881 23.187 -1.557 24.066 -5 25 C-10.308 24.908 -13.247 23.753 -17 20 C-19.284 16.955 -19.425 13.791 -19.312 10.027 C-18.78 6.573 -17.281 4.582 -15 2 C-10.173 -1.48 -5.569 -1.815 0 0 Z " fill="#A4A9AD" transform="translate(282,334)" />
  <path d="M0 0 C2.416 2.335 4.323 4.467 6.25 7.25 C8.825 10.386 8.825 10.386 12.938 10.5 C16.507 10.324 19.646 9.183 23 8 C23.054 10.083 23.093 12.166 23.125 14.25 C23.148 15.41 23.171 16.57 23.195 17.766 C23.007 20.89 22.852 22.512 21 25 C19.012 26.117 19.012 26.117 16.688 26.875 C15.928 27.141 15.169 27.406 14.387 27.68 C11.244 28.101 9.755 27.556 7 26 C5.016 23.723 5.016 23.723 3.25 21.062 C2.657 20.187 2.064 19.312 1.453 18.41 C-1.135 14.117 -0.999 11.208 -0.562 6.312 C-0.461 5.133 -0.359 3.954 -0.254 2.738 C-0.17 1.835 -0.086 0.931 0 0 Z " fill="#FFB819" transform="translate(271,409)" />
  <path d="M0 0 C3.044 1.853 4.596 3.303 6.375 6.375 C7.447 10.876 6.715 13.835 4.312 17.75 C1.549 20.439 -0.223 21.259 -4 22 C-7.909 21.865 -10.174 21.625 -13.312 19.25 C-16.09 15.546 -17.021 13.181 -16.938 8.5 C-15.818 4.32 -14.332 2.697 -11 0 C-7.144 -1.285 -3.879 -0.977 0 0 Z " fill="#A4A9AD" transform="translate(404,278)" />
  <path d="M0 0 C0.59 5.089 1.09 10.214 -1 15 C-6.865 21.085 -16.017 23.936 -24 26 C-24.788 20.864 -25.418 15.746 -23 11 C-17.64 6.222 -10.579 3.67 -4 1 C-2 0 -2 0 0 0 Z " fill="#FFFFFF" transform="translate(317,406)" />
  <path d="M0 0 C12.799 4.347 19.666 20.204 25.284 31.595 C42.464 67.541 42.464 67.541 40.898 76.492 C40.705 77.031 40.512 77.57 40.312 78.125 C40.07 77.375 39.828 76.625 39.578 75.852 C37.389 69.165 35.007 62.623 32.312 56.125 C31.944 55.214 31.575 54.302 31.195 53.363 C23.035 30.308 23.035 30.308 7.312 13.125 C7.312 12.465 7.312 11.805 7.312 11.125 C2.229 11.012 2.229 11.012 -2.688 12.125 C-4.188 11 -4.188 11 -5.688 9.125 C-6.085 5.949 -6.187 3.985 -4.562 1.188 C-2.688 0.125 -2.688 0.125 0 0 Z " fill="#000000" transform="translate(215.6875,332.875)" />
  <path d="M0 0 C3.101 0.313 4.617 0.613 6.844 2.863 C11.175 9.268 14.351 15.739 17 23 C17.373 24.008 17.745 25.016 18.129 26.055 C18.958 28.857 19.213 30.975 19.125 33.875 C19.107 34.656 19.089 35.437 19.07 36.242 C19.047 36.822 19.024 37.402 19 38 C13.572 37.527 13.572 37.527 11.094 35.242 C3.732 24.308 -1.348 13.408 0 0 Z " fill="#A4A9AD" transform="translate(223,363)" />
  <path d="M0 0 C1.61 5.616 0.054 10.631 -2 16 C-4.562 18.438 -4.562 18.438 -8 20 C-8.828 20.44 -9.655 20.879 -10.508 21.332 C-17.44 25 -17.44 25 -21 25 C-20.715 23.27 -20.422 21.541 -20.125 19.812 C-19.963 18.85 -19.8 17.887 -19.633 16.895 C-19.424 15.939 -19.215 14.984 -19 14 C-18.825 13.154 -18.649 12.309 -18.469 11.438 C-16.115 7.532 -12.385 6.144 -8.375 4.188 C-7.573 3.781 -6.771 3.374 -5.945 2.955 C-3.97 1.956 -1.989 0.972 0 0 Z " fill="#FFFFFF" transform="translate(406,359)" />
  <path d="M0 0 C2.238 0.023 2.238 0.023 5 1 C6.659 3.565 7.93 5.875 9.188 8.625 C9.53 9.325 9.872 10.025 10.225 10.746 C13.623 17.859 15.276 24.128 15 32 C12.762 31.977 12.762 31.977 10 31 C8.341 28.435 7.07 26.125 5.812 23.375 C5.47 22.675 5.128 21.975 4.775 21.254 C1.377 14.141 -0.276 7.872 0 0 Z " fill="#A4A9AD" transform="translate(149,252)" />
  <path d="M0 0 C4.455 0.99 4.455 0.99 9 2 C8.743 4.064 8.469 6.126 8.188 8.188 C8.037 9.336 7.886 10.485 7.73 11.668 C6.988 15.055 6.082 17.241 4 20 C1.438 20.438 1.438 20.438 -1 20 C-3 18 -3 18 -3.047 15.898 C-2.406 10.45 -1.469 5.288 0 0 Z " fill="#333E48" transform="translate(390,298)" />
  <path d="M0 0 C2.212 2.212 3.051 4.354 4.207 7.223 C4.999 9.159 4.999 9.159 6.625 11.25 C8.798 15.595 8.756 20.201 9 25 C7.35 25.33 5.7 25.66 4 26 C0.689 22.318 -0.75 19.387 -1.812 14.562 C-2.066 13.471 -2.32 12.379 -2.582 11.254 C-3.02 7.846 -2.855 5.319 -2 2 C-1.34 1.34 -0.68 0.68 0 0 Z " fill="#A4A9AD" transform="translate(127,211)" />
  <path d="M0 0 C0.027 2.104 0.046 4.208 0.062 6.312 C0.074 7.484 0.086 8.656 0.098 9.863 C0 13 0 13 -1 16 C-4.375 16.625 -4.375 16.625 -8 17 C-10 15 -10 15 -10.195 11.961 C-10.172 10.778 -10.149 9.594 -10.125 8.375 C-10.107 7.186 -10.089 5.998 -10.07 4.773 C-10.047 3.858 -10.024 2.943 -10 2 C-8.709 1.664 -7.417 1.331 -6.125 1 C-5.406 0.814 -4.686 0.629 -3.945 0.438 C-2 0 -2 0 0 0 Z " fill="#333E48" transform="translate(282,357)" />
  <path d="M0 0 C0.66 0 1.32 0 2 0 C4.101 2.282 5.791 4.895 7.562 7.438 C8.07 8.125 8.577 8.813 9.1 9.521 C12.744 14.738 13.743 18.645 14 25 C9.36 22.981 7.497 19.979 4.75 15.875 C4.291 15.236 3.832 14.596 3.359 13.938 C0.078 9.074 -0.494 5.842 0 0 Z " fill="#00B3E3" transform="translate(177,258)" />
  <path d="M0 0 C4.274 1.749 6.376 5.264 8.75 9.125 C9.08 10.115 9.41 11.105 9.75 12.125 C6.45 11.795 3.15 11.465 -0.25 11.125 C-0.58 12.445 -0.91 13.765 -1.25 15.125 C-2.24 15.125 -3.23 15.125 -4.25 15.125 C-4.304 13 -4.343 10.875 -4.375 8.75 C-4.398 7.567 -4.421 6.383 -4.445 5.164 C-4.215 1.581 -3.757 0.209 0 0 Z " fill="#000000" transform="translate(143.25,223.875)" />
  <path d="M0 0 C6.243 5.399 7.925 10.869 8.688 19 C8.803 20.666 8.911 22.332 9 24 C5.008 22.669 4.165 20.766 2.074 17.25 C-0.504 11.85 -0.122 5.866 0 0 Z " fill="#FFFFFF" transform="translate(128,202)" />
  <path d="M0 0 C-0.362 6.208 -0.83 11.566 -4 17 C-6.688 18.438 -6.688 18.438 -9 19 C-7.935 4.814 -7.935 4.814 -4 1.125 C-2 0 -2 0 0 0 Z " fill="#FFB819" transform="translate(414,355)" />
  <path d="M0 0 C3.436 1.145 4.486 2.418 6.215 5.547 C7.902 10.819 7.273 16.532 7 22 C6.34 22 5.68 22 5 22 C-0.214 14.793 -0.608 8.735 0 0 Z " fill="#FFFFFF" transform="translate(264,400)" />
  <path d="M0 0 C3.61 1.203 4.108 2.244 6.125 5.375 C6.643 6.166 7.161 6.958 7.695 7.773 C10.123 11.917 10.089 15.283 10 20 C5.007 16.532 1.679 12.554 0.531 6.547 C0.284 4.362 0.1 2.196 0 0 Z " fill="#00B3E3" transform="translate(133,196)" />
  <path d="M0 0 C0.75 1.75 0.75 1.75 1 4 C-1.299 7.353 -2.729 7.946 -6.75 8.75 C-8.359 8.874 -8.359 8.874 -10 9 C-9.812 6.688 -9.812 6.688 -9 4 C-6.152 1.845 -3.505 0.649 0 0 Z " fill="#A4A9AD" transform="translate(285,349)" />
  <path d="M0 0 C1.32 0 2.64 0 4 0 C2.744 3.872 1.66 6.068 -2 8 C-5.25 8.188 -5.25 8.188 -8 8 C-7.312 6.125 -7.312 6.125 -6 4 C-4.356 3.278 -2.689 2.606 -1 2 C-0.67 1.34 -0.34 0.68 0 0 Z " fill="#A4A9AD" transform="translate(406,291)" />
  <path d="M0 0 C0.66 0 1.32 0 2 0 C1.67 4.95 1.34 9.9 1 15 C0.67 15 0.34 15 0 15 C-0.194 12.688 -0.38 10.375 -0.562 8.062 C-0.719 6.131 -0.719 6.131 -0.879 4.16 C-0.919 3.117 -0.959 2.074 -1 1 C-0.67 0.67 -0.34 0.34 0 0 Z " fill="#FFB819" transform="translate(315,406)" />
  <path d="M0 0 C0.66 0 1.32 0 2 0 C3.619 2.572 4.044 3.677 3.625 6.75 C3.419 7.493 3.213 8.235 3 9 C2.34 8.67 1.68 8.34 1 8 C0.406 5.351 0.258 2.708 0 0 Z " fill="#FFFFFF" transform="translate(131,207)" />
  <path d="M0 0 C2.64 0.66 5.28 1.32 8 2 C7.34 2.66 6.68 3.32 6 4 C2.875 3.625 2.875 3.625 0 3 C0 2.01 0 1.02 0 0 Z " fill="#000000" transform="translate(390,298)" />
  <path d="M0 0 C3.92 4.037 4.635 7.365 4.75 12.812 C4.78 13.505 4.809 14.198 4.84 14.912 C4.91 16.607 4.957 18.304 5 20 C-0.343 13.823 -0.162 7.795 0 0 Z " fill="#FFB819" transform="translate(128,202)" />
  <path d="M0 0 C1 4 1 4 1 4 Z " fill="#333E48" transform="translate(316,413)" />
  <path d="M0 0 C2 1 2 1 2 1 Z " fill="#FFB819" transform="translate(281,436)" />
  <path d="M0 0 C2 1 2 1 2 1 Z " fill="#A4A9AD" transform="translate(395,379)" />
</svg>