<?xml version='1.0' encoding='utf-8'?>
<svg xmlns="http://www.w3.org/2000/svg" width="512" height="512" viewBox="0 0 512 512" style="background-color:transparent">
  <path d="M0 0 C1 -0.005 1 -0.005 2.02 -0.009 C4.235 -0.017 6.449 -0.011 8.664 -0.005 C10.259 -0.008 11.855 -0.011 13.45 -0.015 C17.771 -0.025 22.091 -0.021 26.411 -0.015 C30.939 -0.01 35.466 -0.014 39.994 -0.017 C47.597 -0.021 55.199 -0.016 62.802 -0.007 C71.583 0.004 80.364 0.001 89.146 -0.01 C96.694 -0.02 104.243 -0.021 111.791 -0.016 C116.295 -0.012 120.8 -0.012 125.304 -0.019 C129.539 -0.024 133.775 -0.02 138.01 -0.009 C139.562 -0.006 141.113 -0.007 142.665 -0.011 C144.788 -0.017 146.911 -0.01 149.034 0 C150.221 0.001 151.407 0.002 152.63 0.002 C157.136 0.337 161.507 0.845 164.892 4.004 C167.055 8.329 167.148 13.145 167.314 17.912 C167.354 19.01 167.394 20.107 167.435 21.237 C167.474 22.419 167.513 23.602 167.552 24.82 C167.595 26.068 167.639 27.315 167.683 28.6 C167.797 31.975 167.907 35.349 168.013 38.724 C168.08 40.816 168.148 42.908 168.216 45 C169.015 69.755 169.247 94.486 169.017 119.254 C157.964 120.005 146.977 120.4 135.897 120.383 C134.371 120.385 132.844 120.387 131.318 120.389 C127.229 120.393 123.14 120.391 119.052 120.388 C114.741 120.386 110.43 120.388 106.119 120.39 C98.888 120.391 91.657 120.389 84.426 120.384 C76.101 120.379 67.777 120.381 59.452 120.386 C52.262 120.391 45.072 120.391 37.881 120.389 C33.605 120.387 29.329 120.387 25.054 120.39 C21.034 120.393 17.014 120.391 12.995 120.385 C11.532 120.384 10.068 120.384 8.605 120.387 C-0.647 120.399 -9.766 120.041 -18.983 119.254 C-19.229 93.296 -19.01 67.362 -18.23 41.415 C-18.17 39.385 -18.117 37.356 -18.064 35.327 C-17.962 31.492 -17.84 27.658 -17.713 23.824 C-17.685 22.685 -17.657 21.547 -17.628 20.373 C-17.106 6.347 -17.106 6.347 -13.983 2.254 C-9.215 0.599 -5.029 0.003 0 0 Z M9.017 25.254 C8.163 27.973 8.163 27.973 8.091 30.902 C8.017 31.984 7.942 33.065 7.865 34.179 C7.812 35.318 7.759 36.456 7.705 37.629 C7.636 38.792 7.568 39.955 7.497 41.153 C7.31 44.519 7.159 47.885 7.017 51.254 C6.972 52.118 6.927 52.981 6.88 53.871 C6.024 61.585 6.024 61.585 8.711 68.395 C11.513 70.654 12.815 70.754 16.375 70.755 C17.462 70.765 18.549 70.775 19.668 70.785 C21.449 70.77 21.449 70.77 23.266 70.756 C24.519 70.761 25.773 70.766 27.065 70.772 C30.502 70.782 33.937 70.775 37.373 70.758 C40.968 70.744 44.564 70.751 48.159 70.754 C54.196 70.757 60.232 70.744 66.269 70.721 C73.25 70.694 80.231 70.692 87.213 70.704 C93.927 70.715 100.642 70.709 107.357 70.694 C110.215 70.689 113.074 70.689 115.932 70.693 C119.921 70.699 123.909 70.68 127.898 70.658 C129.087 70.663 130.277 70.667 131.502 70.672 C132.586 70.662 133.669 70.652 134.786 70.642 C135.729 70.639 136.673 70.637 137.645 70.634 C140.453 70.184 141.349 69.522 143.017 67.254 C143.714 62.639 143.236 57.906 143.017 53.254 C142.953 51.668 142.953 51.668 142.888 50.051 C142.732 46.45 142.536 42.853 142.33 39.254 C142.25 37.482 142.25 37.482 142.169 35.674 C142.094 34.545 142.02 33.417 141.943 32.254 C141.885 31.243 141.828 30.233 141.768 29.191 C140.77 25.287 139.295 22.587 136.017 20.254 C132.13 19.351 128.305 19.445 124.33 19.493 C122.556 19.48 122.556 19.48 120.746 19.466 C117.51 19.449 114.275 19.458 111.04 19.481 C107.649 19.5 104.259 19.489 100.869 19.482 C95.176 19.476 89.483 19.494 83.791 19.527 C77.214 19.564 70.639 19.562 64.062 19.54 C57.729 19.519 51.396 19.526 45.063 19.546 C42.371 19.554 39.679 19.552 36.987 19.542 C33.226 19.534 29.466 19.558 25.705 19.591 C24.59 19.583 23.475 19.574 22.326 19.565 C16.214 19.658 12.743 19.863 9.017 25.254 Z " fill="#0071CE" transform="translate(180.9827880859375,157.74603271484375)" />
  <path d="M0 0 C1.183 -0.01 2.365 -0.021 3.584 -0.031 C6.82 -0.054 10.054 -0.054 13.29 -0.042 C15.994 -0.035 18.698 -0.043 21.402 -0.052 C27.781 -0.072 34.16 -0.066 40.539 -0.044 C47.116 -0.022 53.691 -0.039 60.268 -0.077 C65.92 -0.108 71.571 -0.116 77.223 -0.105 C80.597 -0.099 83.97 -0.101 87.343 -0.124 C91.104 -0.144 94.864 -0.126 98.625 -0.098 C99.74 -0.111 100.855 -0.125 102.004 -0.139 C109.341 -0.029 109.341 -0.029 112.116 1.946 C115.048 5.304 115.989 8.284 116.238 12.663 C116.313 13.791 116.387 14.92 116.464 16.083 C116.544 17.855 116.544 17.855 116.625 19.663 C116.729 21.474 116.729 21.474 116.835 23.321 C117.022 26.768 117.174 30.214 117.312 33.663 C117.352 34.514 117.392 35.364 117.434 36.241 C117.904 46.858 117.904 46.858 116.117 49.289 C113.68 51.144 112.129 51.043 109.081 51.051 C107.998 51.06 106.914 51.07 105.797 51.081 C104.608 51.076 103.419 51.072 102.194 51.067 C100.941 51.074 99.689 51.081 98.399 51.088 C94.963 51.103 91.527 51.104 88.091 51.099 C85.223 51.096 82.356 51.102 79.488 51.108 C72.722 51.122 65.957 51.12 59.191 51.109 C52.21 51.097 45.23 51.111 38.249 51.138 C32.257 51.16 26.265 51.167 20.272 51.161 C16.693 51.158 13.113 51.16 9.534 51.177 C5.543 51.196 1.552 51.182 -2.439 51.165 C-4.22 51.179 -4.22 51.179 -6.037 51.194 C-7.123 51.184 -8.21 51.174 -9.329 51.164 C-10.273 51.164 -11.217 51.164 -12.189 51.163 C-15.45 50.51 -16.649 49.239 -18.688 46.663 C-19.513 41.721 -18.949 36.654 -18.688 31.663 C-18.644 30.619 -18.6 29.575 -18.554 28.499 C-18.4 25.01 -18.205 21.524 -18 18.038 C-17.947 16.899 -17.894 15.761 -17.839 14.588 C-17.765 13.507 -17.69 12.425 -17.613 11.311 C-17.556 10.344 -17.498 9.376 -17.439 8.379 C-14.958 -0.591 -7.795 -0.06 0 0 Z " fill="#333E48" transform="translate(206.6875,177.337158203125)" />
  <path d="M0 0 C0.912 4.649 1.156 9.153 1.125 13.875 C1.123 14.579 1.121 15.283 1.119 16.008 C1.08 20.758 0.78 25.319 0 30 C-3.908 31.276 -7.833 31.139 -11.895 31.127 C-13.096 31.129 -13.096 31.129 -14.322 31.132 C-17.009 31.136 -19.696 31.133 -22.383 31.129 C-24.308 31.131 -26.233 31.133 -28.158 31.135 C-33.389 31.139 -38.621 31.137 -43.852 31.134 C-49.322 31.132 -54.792 31.134 -60.262 31.136 C-69.449 31.138 -78.636 31.135 -87.822 31.13 C-98.449 31.125 -109.076 31.127 -119.703 31.132 C-128.82 31.137 -137.938 31.137 -147.056 31.135 C-152.504 31.133 -157.953 31.133 -163.401 31.136 C-168.523 31.139 -173.644 31.137 -178.766 31.131 C-180.648 31.13 -182.53 31.13 -184.411 31.133 C-186.976 31.135 -189.54 31.132 -192.105 31.127 C-192.853 31.129 -193.601 31.131 -194.372 31.134 C-197.723 31.121 -200.797 31.046 -204 30 C-205.163 25.366 -205.184 20.871 -205.188 16.125 C-205.2 15.348 -205.212 14.57 -205.225 13.77 C-205.227 13.003 -205.228 12.236 -205.23 11.445 C-205.235 10.76 -205.239 10.074 -205.243 9.368 C-204.91 6.119 -203.919 3.127 -203 0 C-202.033 0.001 -201.067 0.002 -200.071 0.003 C-176.543 0.025 -153.015 0.041 -129.487 0.052 C-118.109 0.057 -106.731 0.064 -95.353 0.075 C-85.435 0.085 -75.518 0.092 -65.6 0.094 C-60.349 0.095 -55.099 0.098 -49.848 0.106 C-44.903 0.113 -39.959 0.115 -35.015 0.113 C-33.202 0.113 -31.39 0.115 -29.578 0.119 C-27.097 0.124 -24.617 0.123 -22.137 0.12 C-21.069 0.125 -21.069 0.125 -19.979 0.129 C-16.511 0.119 -13.143 -0.07 -9.71 -0.535 C-6.142 -0.982 -3.485 -0.784 0 0 Z " fill="#A4A9AD" transform="translate(358,310)" />
  <path d="M0 0 C1.823 5.47 1.433 11.397 1.625 17.125 C1.677 18.439 1.728 19.752 1.781 21.105 C1.825 22.352 1.869 23.599 1.914 24.883 C1.975 26.606 1.975 26.606 2.038 28.364 C2 31 2 31 1 32 C-1.073 32.099 -3.15 32.126 -5.226 32.127 C-5.883 32.129 -6.541 32.13 -7.218 32.132 C-9.438 32.136 -11.657 32.133 -13.877 32.129 C-15.462 32.131 -17.046 32.133 -18.631 32.135 C-22.947 32.139 -27.263 32.137 -31.579 32.134 C-36.086 32.132 -40.592 32.134 -45.099 32.136 C-52.668 32.138 -60.238 32.135 -67.807 32.13 C-76.571 32.125 -85.336 32.127 -94.1 32.132 C-101.611 32.137 -109.121 32.137 -116.632 32.135 C-121.124 32.133 -125.616 32.133 -130.108 32.136 C-134.33 32.139 -138.552 32.137 -142.775 32.131 C-144.329 32.13 -145.883 32.13 -147.437 32.133 C-149.549 32.135 -151.662 32.132 -153.774 32.127 C-154.959 32.127 -156.144 32.126 -157.365 32.126 C-160 32 -160 32 -161 31 C-161.102 28.24 -161.138 25.51 -161.125 22.75 C-161.129 22.005 -161.133 21.26 -161.137 20.492 C-161.125 13.633 -160.586 6.832 -160 0 C-106.637 -1.121 -53.363 -1.307 0 0 Z " fill="#FFFFFF" transform="translate(335,278)" />
  <path d="M0 0 C12.21 0 24.42 0 37 0 C37 17.378 37 17.378 35.625 24.312 C35.436 25.402 35.436 25.402 35.242 26.514 C34.272 31.728 34.272 31.728 32 34 C27.703 34.708 23.347 34.804 19 35 C18.33 35.039 17.66 35.079 16.969 35.119 C14.938 35.233 12.908 35.309 10.875 35.375 C9.635 35.424 8.395 35.473 7.117 35.523 C4 35 4 35 2.148 33.117 C0.523 28.704 0.13 24.418 -0.25 19.75 C-0.34 18.846 -0.43 17.943 -0.523 17.012 C-1.064 10.953 -0.7 6.302 0 0 Z " fill="#333E48" transform="translate(308,342)" />
  <path d="M0 0 C15.84 0.495 15.84 0.495 32 1 C32.875 9.75 32.875 9.75 33.136 12.487 C33.251 13.569 33.251 13.569 33.367 14.672 C33.441 15.405 33.514 16.138 33.589 16.894 C34.039 19.2 34.938 20.916 36 23 C36.012 25.508 36.012 25.508 35.688 28.125 C35.588 28.994 35.489 29.863 35.387 30.758 C35 33 35 33 34 35 C29.925 35.124 25.851 35.214 21.775 35.275 C20.388 35.3 19.002 35.334 17.616 35.377 C15.624 35.438 13.63 35.464 11.637 35.488 C10.437 35.514 9.238 35.541 8.003 35.568 C5 35 5 35 3.131 32.656 C-1.147 22.607 0 10.511 0 0 Z " fill="#333E48" transform="translate(167,341)" />
  <path d="M0 0 C2.199 4.398 0.83 10.309 0 15 C-1.374 17.98 -2.699 19.587 -5 22 C-5.66 22 -6.32 22 -7 22 C-7.33 19.69 -7.66 17.38 -8 15 C-9.98 15 -11.96 15 -14 15 C-14.66 20.61 -15.32 26.22 -16 32 C-22.93 32 -29.86 32 -37 32 C-36.211 27.264 -35.442 24.265 -33.566 20.016 C-33.082 18.916 -32.598 17.816 -32.1 16.684 C-31.339 14.984 -31.339 14.984 -30.562 13.25 C-30.059 12.101 -29.556 10.953 -29.037 9.77 C-25.266 1.266 -25.266 1.266 -23 -1 C-15.516 -3.005 -7.216 -2.824 0 0 Z " fill="#A4A9AD" transform="translate(336,126)" />
  <path d="M0 0 C1.301 0.006 2.601 0.013 3.941 0.02 C8.916 0.259 8.916 0.259 11.438 1.188 C12.946 3.794 14.182 6.254 15.375 9 C15.72 9.766 16.065 10.532 16.42 11.321 C17.441 13.603 18.441 15.894 19.438 18.188 C19.98 19.406 20.523 20.625 21.066 21.844 C24.438 29.604 24.438 29.604 24.438 34.188 C17.507 34.188 10.577 34.188 3.438 34.188 C3.108 28.907 2.778 23.627 2.438 18.188 C0.127 17.858 -2.183 17.528 -4.562 17.188 C-5.222 19.498 -5.882 21.808 -6.562 24.188 C-12.062 17.405 -13.808 12.946 -13.438 4.25 C-12.562 2.188 -12.562 2.188 -10.48 1.07 C-6.877 -0.02 -3.761 -0.041 0 0 Z " fill="#A4A9AD" transform="translate(188.5625,123.8125)" />
  <path d="M0 0 C5.28 0 10.56 0 16 0 C16 10.56 16 21.12 16 32 C11.38 32 6.76 32 2 32 C1.34 21.44 0.68 10.88 0 0 Z " fill="#FFB819" transform="translate(335,278)" />
  <path d="M0 0 C4.29 0 8.58 0 13 0 C13.126 10.707 12.632 21.315 12 32 C7.71 32 3.42 32 -1 32 C-1.027 28.354 -1.047 24.708 -1.062 21.062 C-1.071 20.041 -1.079 19.019 -1.088 17.967 C-1.107 11.888 -0.798 6.027 0 0 Z " fill="#FFB819" transform="translate(162,278)" />
  <path d="M0 0 C3 0.125 3 0.125 4 1.125 C4.237 3.224 4.415 5.33 4.562 7.438 C4.646 8.589 4.73 9.74 4.816 10.926 C4.954 13.322 5 15.724 5 18.125 C1.7 18.125 -1.6 18.125 -5 18.125 C-5.091 12.331 -4.92 6.85 -4 1.125 C-3 0.125 -3 0.125 0 0 Z " fill="#333E48" transform="translate(325,139.875)" />
  <path d="M0 0 C6.875 0.875 6.875 0.875 8 2 C8.073 4.697 8.092 7.367 8.062 10.062 C8.058 10.821 8.053 11.58 8.049 12.361 C8.037 14.241 8.019 16.12 8 18 C4.7 18 1.4 18 -2 18 C-2.209 11.594 -2.158 6.07 0 0 Z " fill="#333E48" transform="translate(184,140)" />
  <path d="M0 0 C0.815 0.003 1.629 0.005 2.469 0.008 C3.283 0.005 4.098 0.003 4.938 0 C6.969 0.133 6.969 0.133 7.969 1.133 C8.094 4.133 8.094 4.133 7.969 7.133 C6.969 8.133 6.969 8.133 4.902 8.23 C4.079 8.219 3.255 8.207 2.406 8.195 C1.58 8.186 0.754 8.177 -0.098 8.168 C-0.736 8.156 -1.374 8.145 -2.031 8.133 C-2.412 5.807 -2.744 3.472 -3.031 1.133 C-2.031 0.133 -2.031 0.133 0 0 Z " fill="#333E48" transform="translate(300.03125,340.8671875)" />
  <path d="M0 0 C3.3 0 6.6 0 10 0 C11.097 3.29 10.8 4.713 10 8 C6.7 8 3.4 8 0 8 C0 5.36 0 2.72 0 0 Z " fill="#333E48" transform="translate(204,341)" />
</svg>