<?xml version='1.0' encoding='utf-8'?>
<svg xmlns="http://www.w3.org/2000/svg" width="512" height="512" viewBox="0 0 512 512" style="background-color:transparent">
  <path d="M0 0 C6.012 0.639 11.455 2.262 17.191 4.133 C18.663 4.605 18.663 4.605 20.165 5.087 C23.299 6.094 26.431 7.11 29.562 8.125 C31.609 8.784 33.655 9.443 35.701 10.102 C39.765 11.409 43.828 12.72 47.891 14.032 C57.251 17.052 66.625 20.026 76 23 C75.06 24.264 74.119 25.526 73.177 26.788 C72.652 27.492 72.128 28.195 71.588 28.919 C69.279 31.945 66.812 34.818 64.312 37.688 C63.261 38.905 62.211 40.122 61.16 41.34 C60.634 41.948 60.109 42.556 59.567 43.183 C53.962 49.682 48.388 56.207 43.062 62.938 C39.308 67.678 35.374 72.249 31.424 76.826 C27.874 80.95 24.443 85.149 21.078 89.426 C19.472 91.415 17.843 93.36 16.172 95.293 C15.678 95.866 15.185 96.439 14.676 97.029 C13.712 98.144 12.743 99.254 11.767 100.36 C8.478 104.168 5.344 108.026 4.75 113.16 C5.234 116.841 5.847 118.787 8.062 121.875 C11.626 124.453 14.659 125.497 19 126 C20.131 126.142 21.261 126.284 22.426 126.43 C26.191 126.338 26.191 126.338 28.738 123.395 C29.619 122.217 30.476 121.022 31.312 119.812 C31.78 119.178 32.247 118.544 32.729 117.891 C33.697 116.576 34.657 115.255 35.608 113.928 C37.673 111.068 39.837 108.287 42 105.5 C42.826 104.425 43.651 103.349 44.477 102.273 C50.425 94.542 56.474 86.89 62.587 79.288 C67.407 73.293 72.113 67.237 76.699 61.059 C79.831 56.895 83.053 52.805 86.283 48.719 C88.137 46.373 89.973 44.038 91.695 41.594 C92.126 41.068 92.556 40.542 93 40 C93.66 40 94.32 40 95 40 C95.402 39.165 95.402 39.165 95.812 38.312 C97.101 35.803 98.529 33.407 100 31 C104.742 31.593 108.993 33.435 113 36 C118.453 44.179 114.51 60.804 113.676 70.321 C113.517 72.193 113.37 74.066 113.237 75.94 C111.915 94.436 111.915 94.436 105.562 102.839 C103.424 105.798 102.948 108.466 102.625 112.062 C102.022 117.955 102.022 117.955 101 120 C101.66 120 102.32 120 103 120 C102.34 123.3 101.68 126.6 101 130 C100.34 130 99.68 130 99 130 C98.67 130.99 98.34 131.98 98 133 C97.34 133 96.68 133 96 133 C95.34 131.35 94.68 129.7 94 128 C92.35 128 90.7 128 89 128 C88.67 128.66 88.34 129.32 88 130 C87.34 130 86.68 130 86 130 C85.736 130.717 85.471 131.433 85.199 132.172 C83.967 135.078 82.483 137.574 80.812 140.25 C74.095 151.71 70.024 163.65 66.562 176.438 C64.466 184.076 62.548 190.101 56.961 195.945 C54.803 198.206 53.266 200.53 51.625 203.188 C48.401 208.388 45.047 213.486 41.635 218.564 C39.783 221.322 37.948 224.082 36.168 226.887 C35.659 227.687 35.15 228.488 34.625 229.312 C33.995 230.328 33.995 230.328 33.352 231.363 C31.771 233.278 30.271 234.048 28 235 C27.67 233.02 27.34 231.04 27 229 C24.243 228.061 22.833 227.661 20 228 C11.58 232.783 6.722 241.874 2 250 C1.331 251.132 0.662 252.264 -0.027 253.43 C-9.211 269.495 -15.216 287.089 -19.52 305.019 C-21.612 313.646 -21.612 313.646 -24.125 315.938 C-24.744 316.288 -25.363 316.639 -26 317 C-27.32 315.68 -28.64 314.36 -30 313 C-29.34 312.01 -28.68 311.02 -28 310 C-27.858 307.398 -27.812 304.909 -27.875 302.312 C-27.884 301.611 -27.893 300.909 -27.902 300.186 C-27.926 298.457 -27.962 296.728 -28 295 C-28.508 295.785 -29.016 296.57 -29.539 297.379 C-39.876 313.155 -39.876 313.155 -43.875 314.746 C-50.306 315.514 -56.561 311.886 -61.707 308.406 C-66.538 305.444 -71.827 303.295 -77 301 C-77.33 303.31 -77.66 305.62 -78 308 C-78.33 308 -78.66 308 -79 308 C-79.049 306.903 -79.098 305.806 -79.148 304.676 C-79.224 303.221 -79.299 301.767 -79.375 300.312 C-79.406 299.591 -79.437 298.87 -79.469 298.127 C-79.739 292.284 -79.739 292.284 -82 287 C-84.545 285.348 -86.917 284.006 -89.625 282.688 C-90.385 282.302 -91.145 281.917 -91.927 281.52 C-94.278 280.332 -96.638 279.165 -99 278 C-100.374 277.309 -101.748 276.616 -103.121 275.922 C-106.418 274.259 -109.724 272.614 -113.034 270.975 C-116.277 269.367 -119.513 267.745 -122.75 266.125 C-124.057 265.471 -125.365 264.818 -126.672 264.164 C-134.781 260.109 -142.891 256.055 -151 252 C-150.67 255.63 -150.34 259.26 -150 263 C-156.734 259.671 -156.734 259.671 -159.51 258.25 C-162.781 256.578 -165.983 255.007 -169.406 253.66 C-172.47 252.371 -174.602 251.312 -177 249 C-179.914 241.795 -181.551 232.509 -179 225 C-175.345 217.704 -168.705 208.177 -161.223 204.715 C-160.489 204.479 -159.756 204.243 -159 204 C-158.608 205.134 -158.216 206.269 -157.812 207.438 C-156.41 211.18 -156.41 211.18 -153.375 212 C-152.591 212 -151.808 212 -151 212 C-149.216 210.216 -149.876 207.82 -149.867 205.445 C-149.949 202.945 -149.949 202.945 -150.508 200.305 C-151.77 193.112 -151.77 193.112 -149.355 189.625 C-147.188 187.5 -147.188 187.5 -144.98 185.656 C-142.778 183.973 -142.778 183.973 -141 181 C-140.34 181 -139.68 181 -139 181 C-138.773 180.444 -138.546 179.889 -138.312 179.316 C-136.623 176.335 -134.465 174.313 -132 171.938 C-129.318 169.345 -127.072 167.108 -125 164 C-124.34 164 -123.68 164 -123 164 C-122.66 163.196 -122.66 163.196 -122.312 162.375 C-121 160 -121 160 -118.456 157.436 C-115.115 153.456 -115.32 149.664 -115.398 144.648 C-115.386 143.306 -115.386 143.306 -115.374 141.935 C-115.351 139.082 -115.361 136.229 -115.375 133.375 C-115.401 114.424 -114.935 97.704 -101.062 83.301 C-99 82 -99 82 -96.402 82.195 C-94 83 -94 83 -91.562 84.562 C-88.497 86.282 -86.46 86.241 -83 86 C-82.671 85.019 -82.343 84.038 -82.004 83.027 C-79.796 77.881 -75.908 74.4 -71.938 70.562 C-71.205 69.831 -70.472 69.099 -69.717 68.346 C-64.281 63 -64.281 63 -62 63 C-61.691 62.165 -61.691 62.165 -61.375 61.312 C-59.864 58.772 -58.061 57.235 -55.73 55.441 C-50.868 51.391 -46.577 46.552 -42.133 42.056 C-38.882 38.77 -35.626 35.491 -32.368 32.213 C-29.899 29.727 -27.432 27.239 -24.971 24.745 C-22.123 21.858 -19.263 18.984 -16.402 16.109 C-15.52 15.212 -14.638 14.314 -13.729 13.389 C-12.492 12.152 -12.492 12.152 -11.23 10.89 C-10.508 10.161 -9.786 9.432 -9.042 8.681 C-6.911 6.927 -5.611 6.634 -3 6 C-1.216 3.016 -1.216 3.016 0 0 Z M104 59 C102.496 60.905 101.116 62.811 99.75 64.812 C96.675 69.241 93.557 73.619 90.297 77.914 C89.668 78.747 89.039 79.58 88.392 80.438 C87.151 82.077 85.903 83.71 84.647 85.337 C79.453 92.244 77.849 98.676 76.875 107.125 C76.789 107.815 76.702 108.504 76.613 109.215 C76.178 112.829 75.901 116.36 76 120 C80.366 115.924 83.745 111.43 87.188 106.562 C87.75 105.773 88.313 104.983 88.894 104.169 C90.042 102.558 91.19 100.945 92.335 99.332 C93.887 97.159 95.456 95 97.035 92.848 C97.726 91.9 97.726 91.9 98.431 90.933 C99.288 89.758 100.15 88.585 101.016 87.416 C104.239 82.965 105.074 79.646 105.316 74.234 C105.358 73.345 105.4 72.455 105.443 71.539 C105.483 70.619 105.522 69.698 105.562 68.75 C105.606 67.814 105.649 66.878 105.693 65.914 C105.799 63.61 105.901 61.305 106 59 C105.34 59 104.68 59 104 59 Z M103 90 C101.215 92.177 101.215 92.177 99.438 94.875 C98.817 95.78 98.197 96.685 97.559 97.617 C94.915 101.659 94.91 104.159 95 109 C99.84 106.947 101.882 103.706 104 99 C104.641 95.994 104.922 93.069 105 90 C104.34 90 103.68 90 103 90 Z M64 114 C62.894 115.315 61.833 116.667 60.789 118.031 C60.126 118.897 59.463 119.763 58.78 120.655 C50.1 132.104 50.1 132.104 41.688 143.75 C41.251 144.355 40.814 144.96 40.364 145.584 C36.214 151.589 33.82 158.191 33.312 165.5 C33.248 166.414 33.184 167.328 33.117 168.27 C32.949 172.187 32.936 176.079 33 180 C37.529 175.839 40.791 171.17 44.188 166.062 C50.751 156.232 50.751 156.232 53.965 152.203 C60.612 143.81 62.956 136.546 64 126 C64.126 124.786 64.253 123.571 64.383 122.32 C64.637 119.547 64.847 116.781 65 114 C64.67 114 64.34 114 64 114 Z M-104 115 C-106.861 117.861 -106.465 120.84 -106.625 124.688 C-106.66 125.442 -106.695 126.196 -106.731 126.974 C-106.799 128.541 -106.861 130.108 -106.917 131.675 C-106.971 133.18 -107.032 134.684 -107.103 136.188 C-107.196 138.208 -107.255 140.229 -107.312 142.25 C-107.35 143.431 -107.387 144.612 -107.426 145.828 C-106.872 149.956 -105.99 151.058 -103 154 C-99.432 155.999 -95.699 157.554 -91.93 159.133 C-90.821 159.61 -89.712 160.088 -88.569 160.579 C-85.01 162.108 -81.443 163.616 -77.875 165.125 C-75.559 166.116 -73.244 167.108 -70.93 168.102 C-61.614 172.093 -52.28 176.04 -42.941 179.977 C-30.934 185.041 -18.969 190.146 -7.145 195.627 C-6.153 196.074 -5.162 196.52 -4.141 196.98 C-3.29 197.371 -2.44 197.762 -1.563 198.165 C1.456 199.149 3.843 199.283 7 199 C9.948 196.052 9.47 192.779 9.625 188.812 C9.661 188.011 9.697 187.21 9.733 186.384 C9.836 183.923 9.92 181.462 10 179 C10.029 178.262 10.057 177.525 10.087 176.765 C10.161 174.74 10.206 172.713 10.25 170.688 C10.276 169.516 10.302 168.344 10.328 167.137 C9.951 163.529 9.126 161.917 7 159 C4.691 157.439 4.691 157.439 1.832 156.297 C0.668 155.792 -0.497 155.288 -1.697 154.768 C-3.13 154.175 -4.564 153.586 -6 153 C-6.85 152.652 -7.699 152.304 -8.575 151.946 C-15.802 149.001 -23.056 146.123 -30.312 143.25 C-45.112 137.381 -59.873 131.438 -74.554 125.279 C-88.841 118.251 -88.841 118.251 -104 115 Z M60 151 C50.586 161.221 50.586 161.221 46.688 174.062 C46.791 175.032 46.894 176.001 47 177 C50.306 175.898 50.64 175.469 52.445 172.691 C52.882 172.027 53.319 171.362 53.77 170.678 C54.217 169.98 54.664 169.282 55.125 168.562 C55.58 167.868 56.035 167.174 56.504 166.459 C60.131 161.109 60.131 161.109 61.062 154.875 C61.042 153.596 61.021 152.317 61 151 C60.67 151 60.34 151 60 151 Z M-47.75 231.625 C-49.679 235.289 -50.264 238.87 -50 243 C-48.511 245.779 -47.212 247.788 -45 250 C-44.587 253.392 -44.227 256.782 -43.926 260.186 C-43.717 262.137 -43.366 264.072 -43 266 C-40.244 268.266 -40.244 268.266 -37.438 267.875 C-34.911 267.241 -34.911 267.241 -33.836 265.258 C-32.856 262.611 -32.961 260.8 -33.188 258 C-33.25 255.328 -33.25 255.328 -33 253 C-30.688 250.75 -30.688 250.75 -28 249 C-25.155 244.585 -24.347 241.223 -25 236 C-27.435 231.129 -29.877 228.844 -35 227 C-40.585 226.316 -43.699 227.863 -47.75 231.625 Z " fill="#0071CE" transform="translate(274,106)" />
  <path d="M0 0 C4.974 0.333 9.076 1.634 13.645 3.562 C14.59 3.957 14.59 3.957 15.554 4.359 C16.923 4.932 18.291 5.507 19.657 6.087 C22.637 7.349 25.625 8.594 28.612 9.84 C30.217 10.509 31.821 11.178 33.424 11.849 C42.168 15.501 50.952 19.052 59.739 22.598 C62.428 23.684 65.116 24.771 67.804 25.86 C75.044 28.791 82.285 31.72 89.54 34.611 C91.491 35.389 93.44 36.17 95.389 36.952 C97.681 37.871 99.976 38.784 102.273 39.69 C103.265 40.089 104.256 40.488 105.277 40.898 C106.125 41.235 106.974 41.572 107.847 41.919 C111.406 43.706 112.738 45.215 114 49 C114.373 57.255 114.009 65.563 113.625 73.812 C113.579 74.986 113.579 74.986 113.532 76.184 C113.235 81.765 113.235 81.765 111 84 C105.829 84.626 101.943 82.995 97.344 80.871 C96.588 80.534 95.833 80.197 95.055 79.849 C93.403 79.111 91.754 78.368 90.107 77.62 C85.57 75.562 81.017 73.54 76.465 71.516 C75.487 71.079 74.508 70.643 73.5 70.194 C59.579 64.006 45.531 58.108 31.497 52.182 C28.113 50.753 24.73 49.32 21.348 47.887 C20.348 47.467 19.349 47.046 18.319 46.613 C13.666 44.641 9.044 42.61 4.478 40.445 C3.687 40.071 2.896 39.697 2.082 39.313 C-0.302 37.81 -1.54 36.4 -3 34 C-3.328 30.926 -3.328 30.926 -3.25 27.312 C-3.222 25.995 -3.193 24.678 -3.164 23.32 C-3.112 21.88 -3.057 20.44 -3 19 C-2.974 18.231 -2.948 17.463 -2.921 16.671 C-2.837 14.342 -2.735 12.015 -2.625 9.688 C-2.579 8.585 -2.579 8.585 -2.532 7.46 C-2.234 2.234 -2.234 2.234 0 0 Z " fill="#333E48" transform="translate(170,221)" />
  <path d="M0 0 C4.634 2.268 4.634 2.268 6 5 C6.644 18.089 -1.541 26.369 -9.551 36.023 C-16.303 44.23 -22.766 52.674 -29.232 61.107 C-34.1 67.448 -39.052 73.722 -44 80 C-45.772 82.249 -47.542 84.499 -49.312 86.75 C-49.755 87.312 -50.197 87.874 -50.653 88.453 C-53.313 91.838 -55.958 95.233 -58.594 98.637 C-59.211 99.433 -59.828 100.229 -60.464 101.05 C-61.662 102.597 -62.859 104.146 -64.054 105.696 C-66.722 109.142 -69.414 112.568 -72.184 115.934 C-72.863 116.764 -72.863 116.764 -73.556 117.611 C-76.295 120.245 -79.271 120.967 -83 121 C-87.935 120.264 -91.787 119.065 -95.562 115.75 C-97.612 111.828 -98.706 108.53 -97.477 104.125 C-95.125 98.774 -91.305 94.789 -87.352 90.559 C-85.159 88.173 -83.129 85.732 -81.125 83.188 C-78.015 79.242 -74.818 75.387 -71.562 71.562 C-68.168 67.573 -64.806 63.563 -61.5 59.5 C-57.751 54.895 -53.929 50.358 -50.084 45.834 C-47.205 42.44 -44.368 39.017 -41.562 35.562 C-36.69 29.583 -31.672 23.735 -26.631 17.898 C-24.905 15.889 -23.194 13.867 -21.484 11.844 C-20.323 10.479 -19.162 9.114 -18 7.75 C-17.46 7.106 -16.92 6.462 -16.364 5.798 C-15.852 5.199 -15.34 4.601 -14.812 3.984 C-14.365 3.456 -13.918 2.927 -13.457 2.382 C-9.334 -1.528 -5.309 -1.306 0 0 Z " fill="#A4A9AD" transform="translate(376,112)" />
  <path d="M0 0 C2 3 2 3 2.652 4.91 C4.808 8.253 8.105 9.61 11.562 11.438 C12.581 11.991 12.581 11.991 13.619 12.557 C15.018 13.317 16.419 14.074 17.823 14.826 C20.059 16.032 22.278 17.264 24.496 18.504 C28.798 20.9 33.139 23.214 37.5 25.5 C38.705 26.133 38.705 26.133 39.934 26.78 C44.622 29.24 49.317 31.685 54.02 34.117 C56.117 35.203 58.215 36.289 60.312 37.375 C61.373 37.924 62.434 38.473 63.527 39.039 C70.409 42.614 77.217 46.304 84 50.062 C94.878 56.07 106.019 61.515 117.295 66.734 C119.038 67.55 120.768 68.392 122.482 69.266 C126.181 71.092 128.612 71.988 132.797 72.117 C136.987 70.656 138.018 68.909 140.25 65.125 C144.324 58.362 144.324 58.362 147 56 C148.996 57.027 148.996 57.027 151 59 C151.275 61.72 151.301 63.88 151.062 66.562 C151.007 67.28 150.951 67.997 150.894 68.736 C150.27 74.95 148.43 79.763 145 85 C144.594 85.678 144.188 86.356 143.77 87.055 C141.12 91.188 138.696 93.527 134 95 C128.03 94.652 123.767 93.293 118.539 90.484 C117.854 90.129 117.169 89.774 116.463 89.407 C114.302 88.283 112.151 87.142 110 86 C108.627 85.282 107.253 84.565 105.878 83.85 C101.7 81.669 97.537 79.461 93.375 77.25 C91.867 76.451 90.359 75.651 88.852 74.852 C80.032 70.17 71.245 65.433 62.495 60.623 C54.71 56.356 46.863 52.211 39.011 48.069 C34.626 45.754 30.246 43.43 25.865 41.107 C22.842 39.503 19.816 37.904 16.784 36.315 C14.224 34.974 11.673 33.615 9.125 32.25 C8.431 31.893 7.737 31.536 7.022 31.167 C1.594 28.217 -0.982 24.733 -3.117 19 C-5.677 8.867 -5.677 8.867 -3 4 C-1.375 1.625 -1.375 1.625 0 0 Z " fill="#A4A9AD" transform="translate(98,364)" />
  <path d="M0 0 C1.049 -0.026 2.099 -0.052 3.18 -0.078 C6.488 0.29 7.824 0.873 10.125 3.25 C10.87 7.247 11.135 9.652 8.938 13.129 C7.802 14.437 6.616 15.702 5.396 16.932 C3.076 19.3 0.87 21.745 -1.344 24.215 C-9.194 32.857 -17.519 41.044 -25.782 49.288 C-28.57 52.07 -31.353 54.858 -34.135 57.646 C-35.927 59.438 -37.719 61.229 -39.512 63.02 C-40.333 63.843 -41.154 64.666 -42 65.514 C-46.227 69.724 -50.531 73.768 -55.052 77.661 C-57.74 80.004 -60.295 82.471 -62.836 84.973 C-63.353 85.481 -63.869 85.99 -64.402 86.514 C-65.477 87.575 -66.55 88.638 -67.623 89.702 C-68.714 90.782 -69.81 91.857 -70.91 92.928 C-72.52 94.496 -74.117 96.076 -75.711 97.66 C-76.2 98.132 -76.69 98.604 -77.194 99.091 C-80.318 102.235 -81.781 104.967 -82.875 109.25 C-85.845 109.745 -85.845 109.745 -88.875 110.25 C-88.875 109.59 -88.875 108.93 -88.875 108.25 C-89.741 108.168 -90.607 108.085 -91.5 108 C-95.431 107.126 -97.735 105.748 -100.875 103.25 C-103.425 99.033 -104.006 95.048 -102.875 90.25 C-100.64 86.9 -97.846 84.324 -94.875 81.625 C-94.131 80.913 -93.387 80.202 -92.621 79.469 C-88.404 75.465 -84.043 71.638 -79.652 67.827 C-77.29 65.731 -75.077 63.512 -72.875 61.25 C-69.29 57.621 -65.612 54.209 -61.738 50.895 C-59.87 49.246 -58.12 47.527 -56.375 45.75 C-54.045 43.378 -51.654 41.159 -49.125 39 C-45.717 36.067 -42.531 32.949 -39.375 29.75 C-35.663 25.987 -31.857 22.419 -27.832 18.992 C-25.597 17.003 -23.526 14.892 -21.438 12.75 C-8.992 0.132 -8.992 0.132 0 0 Z " fill="#A4A9AD" transform="translate(274.875,82.75)" />
  <path d="M0 0 C6.09 1.737 11.561 4.651 17.188 7.5 C18.25 8.035 19.313 8.569 20.408 9.12 C27.751 12.827 35.046 16.616 42.308 20.477 C48.069 23.534 53.881 26.473 59.752 29.313 C70.488 34.578 70.488 34.578 71.644 37.788 C72.055 40.344 72.216 42.834 72.316 45.422 C72.358 46.447 72.4 47.471 72.443 48.527 C72.483 49.591 72.522 50.654 72.562 51.75 C72.606 52.829 72.649 53.908 72.693 55.02 C72.799 57.68 72.901 60.34 73 63 C69.815 62.336 67.228 61.209 64.352 59.699 C63.44 59.223 62.528 58.746 61.589 58.255 C60.611 57.738 59.633 57.221 58.625 56.688 C57.606 56.152 56.586 55.617 55.536 55.065 C47.66 50.913 39.829 46.682 32.037 42.375 C27.555 39.904 23.056 37.505 18.469 35.234 C17.151 34.573 17.151 34.573 15.806 33.899 C14.149 33.073 12.485 32.263 10.812 31.472 C5.372 28.743 5.372 28.743 3.586 25.176 C3.393 24.128 3.199 23.08 3 22 C2.719 20.805 2.438 19.61 2.148 18.379 C1.893 17.119 1.638 15.86 1.375 14.562 C1.115 13.306 0.854 12.049 0.586 10.754 C0.015 7.099 -0.105 3.692 0 0 Z " fill="#000000" transform="translate(123,358)" />
  <path d="M0 0 C3.375 0.688 3.375 0.688 4.375 1.688 C4.516 4.358 4.417 7.012 4.375 9.688 C1.708 11.021 0.208 10.359 -2.625 9.688 C-2.13 10.348 -1.635 11.007 -1.125 11.688 C3.471 20.88 -1.866 32.472 -4.91 41.617 C-10.154 56.695 -19.553 81.082 -34.625 88.688 C-39.004 88.688 -40.987 88.113 -44.625 85.688 C-44.498 58.052 -27.621 23.291 -8.719 3.621 C-4.388 -0.378 -4.388 -0.378 0 0 Z M-12.625 29.688 C-16.737 33.826 -19.282 38.411 -21.812 43.625 C-22.155 44.302 -22.497 44.98 -22.85 45.678 C-25.59 51.228 -27.971 56.82 -27.75 63.125 C-27.709 64.301 -27.668 65.476 -27.625 66.688 C-26.635 67.017 -25.645 67.347 -24.625 67.688 C-16.024 62.336 -11.457 51.111 -8.625 41.688 C-7.332 35.559 -7.332 35.559 -8.625 29.688 C-9.945 29.688 -11.265 29.688 -12.625 29.688 Z " fill="#333E48" transform="translate(297.625,333.3125)" />
  <path d="M0 0 C0.33 0 0.66 0 1 0 C0.78 4.014 0.405 8.001 0 12 C-0.092 13.218 -0.183 14.436 -0.277 15.691 C-1.835 28.45 -8.381 36.949 -16 47 C-17.142 48.55 -18.281 50.102 -19.418 51.656 C-27.434 62.544 -27.434 62.544 -31 66 C-31.203 60.319 -30.929 54.719 -30.375 49.062 C-30.259 47.775 -30.143 46.487 -30.023 45.16 C-28.412 36.318 -21.454 28.638 -16.188 21.625 C-15.579 20.809 -14.971 19.992 -14.345 19.151 C-13.132 17.523 -11.916 15.897 -10.699 14.272 C-9.166 12.222 -7.643 10.166 -6.125 8.105 C-5.313 7.008 -4.5 5.91 -3.688 4.812 C-2.99 3.87 -2.293 2.928 -1.574 1.957 C-1.055 1.311 -0.535 0.665 0 0 Z " fill="#333E48" transform="translate(338,220)" />
  <path d="M0 0 C2.375 -0.125 2.375 -0.125 5 0 C7 2 7 2 7.375 5.625 C6.872 25.261 -3.597 51.801 -17 66 C-20 68 -20 68 -23.562 67.688 C-27 67 -27 67 -29 66 C-28.55 64.919 -28.55 64.919 -28.09 63.817 C-27.078 61.202 -26.285 58.635 -25.555 55.93 C-20.407 37.305 -14.419 18.85 -3 3 C-2.34 3 -1.68 3 -1 3 C-0.67 2.01 -0.34 1.02 0 0 Z M-5.938 20.812 C-11.655 29.648 -15.546 39.357 -15 50 C-11.045 50.455 -11.045 50.455 -9.062 48.188 C-3.222 39.162 0.378 29.782 0 19 C-3.955 18.545 -3.955 18.545 -5.938 20.812 Z " fill="#333E48" transform="translate(363,233)" />
  <path d="M0 0 C0.66 0 1.32 0 2 0 C1.89 3.23 1.759 6.459 1.625 9.688 C1.579 11.056 1.579 11.056 1.531 12.451 C1.152 21.152 -1.469 25.983 -6.5 32.938 C-7.032 33.681 -7.565 34.424 -8.114 35.19 C-9.208 36.719 -10.305 38.245 -11.403 39.771 C-12.896 41.855 -14.372 43.949 -15.84 46.051 C-16.279 46.677 -16.719 47.303 -17.172 47.948 C-17.989 49.111 -18.803 50.277 -19.613 51.445 C-22.137 55.014 -24.848 57.999 -28 61 C-27.807 57.892 -27.58 54.793 -27.309 51.691 C-27.118 49.412 -26.975 47.127 -26.91 44.84 C-26.173 34.617 -20.716 27.995 -14.658 20.156 C-12.496 17.345 -10.41 14.482 -8.324 11.615 C-6.951 9.729 -5.567 7.852 -4.18 5.977 C-2.743 4.015 -1.348 2.023 0 0 Z " fill="#333E48" transform="translate(378,165)" />
  <path d="M0 0 C3.438 2.121 5.776 4.104 7 8 C7.558 12.931 6.975 16.36 4.324 20.48 C1.879 23.286 -0.444 24.111 -4 25 C-7.755 24.886 -10.744 24.119 -13.582 21.59 C-16.721 17.908 -18.249 15.524 -17.875 10.75 C-17.261 5.738 -15.628 3.456 -12 0 C-7.82 -1.393 -4.267 -0.975 0 0 Z " fill="#A4A9AD" transform="translate(242,334)" />
  <path d="M0 0 C3 2.218 4.587 4.993 6 8.438 C6 13.13 3.934 16.699 1.25 20.438 C-1.998 22.693 -4.121 22.468 -8 22 C-11.811 20.655 -13.718 19.311 -16.438 16.312 C-18.158 12.665 -18.405 10.783 -17.684 6.898 C-16.548 3.745 -14.587 2.033 -12 0 C-7.811 -1.396 -4.243 -1.213 0 0 Z " fill="#A4A9AD" transform="translate(119,278)" />
  <path d="M0 0 C0.66 0 1.32 0 2 0 C3.433 8.31 3.56 13.784 -1.262 20.879 C-3.08 23.097 -4.82 25.13 -7 27 C-11.941 26.908 -15.915 25.776 -20 23 C-20.637 20.17 -20.886 18.142 -20.875 15.312 C-20.896 14.611 -20.916 13.909 -20.938 13.186 C-20.985 11.458 -20.996 9.729 -21 8 C-17.926 8.492 -14.949 9.014 -11.938 9.812 C-8.913 10.283 -8.913 10.283 -6.375 8.438 C-3.832 5.827 -2 3.035 0 0 Z " fill="#FFB819" transform="translate(239,410)" />
  <path d="M0 0 C19.752 7.854 19.752 7.854 22.562 12.688 C23.151 17.145 23.16 21.512 23 26 C17.927 25.371 13.746 23.165 9.25 20.875 C8.47 20.509 7.69 20.143 6.887 19.766 C4.707 18.651 2.849 17.606 1 16 C-0.012 12.504 -0.012 12.504 0 9 C-0.032 8.125 -0.064 7.249 -0.098 6.348 C-0.086 5.594 -0.074 4.839 -0.062 4.062 C-0.053 3.29 -0.044 2.518 -0.035 1.723 C-0.024 1.154 -0.012 0.586 0 0 Z " fill="#FFFFFF" transform="translate(196,406)" />
  <path d="M0 0 C2.639 9.456 -2.239 19.461 -6.645 27.77 C-11.779 36.219 -11.779 36.219 -16.121 37.746 C-16.741 37.83 -17.361 37.914 -18 38 C-19 37 -19 37 -19.312 33.688 C-19.088 22.192 -12.52 10.019 -5.504 1.098 C-4 0 -4 0 0 0 Z " fill="#A4A9AD" transform="translate(289,363)" />
  <path d="M0 0 C2.605 1.289 5.209 2.581 7.812 3.875 C8.55 4.24 9.288 4.605 10.049 4.98 C10.761 5.335 11.473 5.689 12.207 6.055 C12.862 6.379 13.516 6.704 14.191 7.039 C18.826 9.502 18.826 9.502 19.949 12.715 C20.315 14.31 20.315 14.31 20.688 15.938 C20.939 16.998 21.19 18.059 21.449 19.152 C22 22 22 22 22 25 C15.218 24.033 8.079 20.67 3 16 C0.303 10.773 0 5.799 0 0 Z " fill="#FFFFFF" transform="translate(105,359)" />
  <path d="M0 0 C1.32 0 2.64 0 4 0 C4.8 10.402 0.795 20.443 -5 29 C-5.972 30.027 -6.965 31.037 -8 32 C-8.99 31.67 -9.98 31.34 -11 31 C-10.705 23.243 -9.305 17.016 -6 10 C-5.643 9.23 -5.286 8.461 -4.918 7.668 C-3.518 4.757 -2.299 2.299 0 0 Z " fill="#A4A9AD" transform="translate(359,252)" />
  <path d="M0 0 C1.397 6.085 2.447 11.745 2 18 C1.34 18.66 0.68 19.32 0 20 C-3.297 19.67 -4.623 19.377 -7 17 C-7.624 14.451 -8.159 11.953 -8.625 9.375 C-8.759 8.669 -8.893 7.962 -9.031 7.234 C-9.361 5.491 -9.681 3.746 -10 2 C-3.375 -1.125 -3.375 -1.125 0 0 Z " fill="#333E48" transform="translate(123,299)" />
  <path d="M0 0 C2.062 1.375 2.062 1.375 4 4 C4.486 11.241 2.396 18.725 -1.875 24.562 C-4 26 -4 26 -6.633 25.59 C-7.414 25.395 -8.195 25.201 -9 25 C-8.183 18.364 -7.027 13.302 -3.176 7.793 C-1.575 5.351 -0.77 2.8 0 0 Z " fill="#A4A9AD" transform="translate(384,211)" />
  <path d="M0 0 C1.646 0.14 3.292 0.287 4.938 0.438 C6.312 0.559 6.312 0.559 7.715 0.684 C10 1 10 1 11 2 C11.546 7.668 11.702 12.372 8 17 C2.125 16.125 2.125 16.125 1 15 C0.069 9.93 -0.09 5.129 0 0 Z " fill="#333E48" transform="translate(230,357)" />
  <path d="M0 0 C0.784 0.041 1.567 0.083 2.375 0.125 C3.757 2.89 3.47 5.171 3.438 8.25 C3.428 9.346 3.419 10.441 3.41 11.57 C3.399 12.413 3.387 13.256 3.375 14.125 C2.385 14.455 1.395 14.785 0.375 15.125 C-0.285 13.475 -0.945 11.825 -1.625 10.125 C-3.275 10.125 -4.925 10.125 -6.625 10.125 C-6.955 10.785 -7.285 11.445 -7.625 12.125 C-8.285 12.125 -8.945 12.125 -9.625 12.125 C-9.889 12.842 -10.154 13.558 -10.426 14.297 C-11.658 17.203 -13.142 19.699 -14.812 22.375 C-19.304 29.924 -22.441 37.957 -25.625 46.125 C-26.697 42.921 -26.612 41.316 -25.219 38.254 C-24.891 37.521 -24.562 36.788 -24.224 36.033 C-23.862 35.259 -23.499 34.485 -23.125 33.688 C-22.758 32.887 -22.39 32.087 -22.012 31.262 C-7.674 0.365 -7.674 0.365 0 0 Z " fill="#000000" transform="translate(369.625,223.875)" />
  <path d="M0 0 C2.915 1.074 4.778 1.778 7 4 C7.614 5.958 8.146 7.942 8.625 9.938 C8.885 10.998 9.146 12.059 9.414 13.152 C10 16 10 16 10 19 C7.188 18.438 7.188 18.438 4 17 C0.754 11.628 0.361 6.184 0 0 Z " fill="#FFB819" transform="translate(98,355)" />
  <path d="M0 0 C0.33 0 0.66 0 1 0 C2.07 8.1 -1.396 12.562 -6 19 C-6.498 19.745 -6.995 20.49 -7.508 21.258 C-8.607 22.884 -9.795 24.45 -11 26 C-11.66 26 -12.32 26 -13 26 C-14.206 18.422 -10.122 13.1 -6 7 C-4.102 4.497 -2.174 2.278 0 0 Z " fill="#00B3E3" transform="translate(334,257)" />
  <path d="M0 0 C0.33 0 0.66 0 1 0 C1.109 2.543 1.188 5.081 1.25 7.625 C1.284 8.338 1.317 9.051 1.352 9.785 C1.45 15.142 0.352 17.816 -3 22 C-3.66 21.67 -4.32 21.34 -5 21 C-6.309 15.961 -6.904 11.034 -4.758 6.203 C-3.283 3.987 -1.817 1.945 0 0 Z " fill="#FFFFFF" transform="translate(246,400)" />
  <path d="M0 0 C3.375 0.688 3.375 0.688 4.375 1.688 C4.516 4.358 4.417 7.012 4.375 9.688 C2.375 10.688 2.375 10.688 -1 10.188 C-4.277 9.736 -5.644 9.597 -8.625 10.688 C-16.115 17.099 -20.45 27.181 -24.812 35.812 C-25.146 36.469 -25.479 37.126 -25.822 37.802 C-28.857 43.913 -31.187 50.209 -33.312 56.688 C-33.564 57.451 -33.815 58.214 -34.074 59 C-34.256 59.557 -34.438 60.114 -34.625 60.688 C-35.285 60.688 -35.945 60.688 -36.625 60.688 C-36.687 61.595 -36.749 62.502 -36.812 63.438 C-37.596 69.195 -40.283 74.424 -42.625 79.688 C-42.955 79.688 -43.285 79.688 -43.625 79.688 C-40.727 52.711 -26.739 20.263 -6.625 1.688 C-3.625 -0.312 -3.625 -0.312 0 0 Z " fill="#000000" transform="translate(297.625,333.3125)" />
  <path d="M0 0 C0.66 0 1.32 0 2 0 C2 0.66 2 1.32 2 2 C3.083 2.402 3.083 2.402 4.188 2.812 C7.036 4.015 9.514 5.153 12 7 C12 8.32 12 9.64 12 11 C5.954 10.763 5.954 10.763 3.422 8.738 C0.671 5.601 0 4.251 0 0 Z " fill="#A4A9AD" transform="translate(225,347)" />
  <path d="M0 0 C1.627 0.45 3.252 0.911 4.875 1.375 C5.78 1.63 6.685 1.885 7.617 2.148 C10 3 10 3 12 5 C12 6.32 12 7.64 12 9 C7.156 8.549 4.46 7.46 1 4 C0.363 1.863 0.363 1.863 0 0 Z " fill="#A4A9AD" transform="translate(102,291)" />
  <path d="M0 0 C0.219 6.055 0.207 11.308 -2 17 C-3.574 18.691 -3.574 18.691 -5 20 C-4.913 17.415 -4.806 14.834 -4.688 12.25 C-4.665 11.52 -4.642 10.791 -4.619 10.039 C-4.117 0 -4.117 0 0 0 Z " fill="#FFB819" transform="translate(384,202)" />
  <path d="M0 0 C0.66 0 1.32 0 2 0 C1.871 7.97 -0.635 13.065 -6 19 C-6.66 19 -7.32 19 -8 19 C-9.157 11.56 -5.231 6.864 -1 1 C-0.67 0.67 -0.34 0.34 0 0 Z " fill="#00B3E3" transform="translate(377,196)" />
  <path d="M0 0 C0.33 0 0.66 0 1 0 C1.35 9.655 0.213 16.389 -6 24 C-6.66 24 -7.32 24 -8 24 C-7.289 14.698 -6.623 7.125 0 0 Z " fill="#FFFFFF" transform="translate(383,202)" />
  <path d="M0 0 C-0.875 4.875 -0.875 4.875 -2 6 C-4 6.041 -6 6.043 -8 6 C-8 4.68 -8 3.36 -8 2 C-2.25 0 -2.25 0 0 0 Z " fill="#000000" transform="translate(122,298)" />
  <path d="M0 0 C0.99 0.33 1.98 0.66 3 1 C2.67 5.95 2.34 10.9 2 16 C1.67 16 1.34 16 1 16 C0.083 10.615 -0.111 5.458 0 0 Z " fill="#FFB819" transform="translate(196,406)" />
  <path d="M0 0 C0.99 0 1.98 0 3 0 C3.25 6.625 3.25 6.625 1 10 C0.34 10 -0.32 10 -1 10 C-0.67 6.7 -0.34 3.4 0 0 Z " fill="#FFFFFF" transform="translate(376,216)" />
  <path d="M0 0 C0.33 0 0.66 0 1 0 C0.886 1.48 0.759 2.959 0.625 4.438 C0.521 5.673 0.521 5.673 0.414 6.934 C0.277 7.616 0.141 8.297 0 9 C-0.99 9.495 -0.99 9.495 -2 10 C-3.349 4.603 -3.349 4.603 -1.625 1.625 C-1.089 1.089 -0.553 0.553 0 0 Z " fill="#FFB819" transform="translate(383,202)" />
  <path d="M0 0 C0.66 0 1.32 0 2 0 C2 1.65 2 3.3 2 5 C1.01 5 0.02 5 -1 5 C-1.99 5.66 -2.98 6.32 -4 7 C-2.796 4.506 -1.546 2.319 0 0 Z " fill="#00B3E3" transform="translate(377,196)" />
  <path d="M0 0 C0.33 0.99 0.66 1.98 1 3 C0 4 0 4 -3.562 4.062 C-4.697 4.042 -5.831 4.021 -7 4 C-6 2 -6 2 -2.938 0.875 C-1.483 0.442 -1.483 0.442 0 0 Z " fill="#000000" transform="translate(120,298)" />
</svg>