<?xml version='1.0' encoding='utf-8'?>
<svg xmlns="http://www.w3.org/2000/svg" width="512" height="512" viewBox="0 0 512 512" style="background-color:transparent">
  <path d="M0 0 C1.454 0.031 1.454 0.031 2.938 0.062 C4.706 4.99 5.869 9.949 6.938 15.062 C8.105 15.391 8.105 15.391 9.297 15.727 C13.18 16.827 17.06 17.941 20.938 19.062 C22.078 19.392 22.078 19.392 23.241 19.728 C32.778 22.497 42.272 25.404 51.688 28.562 C52.497 28.823 53.306 29.083 54.139 29.351 C61.838 31.995 68.048 35.608 72.026 42.951 C73.813 47.092 74.525 51.466 75.34 55.883 C75.543 56.928 75.746 57.973 75.955 59.049 C76.608 62.426 77.242 65.807 77.875 69.188 C78.317 71.503 78.761 73.818 79.205 76.133 C87.938 121.884 87.938 121.884 87.938 129.062 C83.742 129.473 79.547 129.881 75.352 130.289 C73.93 130.428 72.509 130.566 71.087 130.705 C67.648 131.041 64.209 131.374 60.769 131.699 C58.456 131.918 56.144 132.144 53.833 132.381 C45.285 133.202 36.764 133.176 28.188 133.125 C26.701 133.12 25.214 133.115 23.727 133.111 C20.13 133.101 16.534 133.082 12.938 133.062 C12.938 142.962 12.938 152.863 12.938 163.062 C15.908 163.393 18.877 163.722 21.938 164.062 C21.938 170.993 21.938 177.923 21.938 185.062 C18.981 186.541 16.195 186.123 12.938 186.062 C11.505 182.764 10.686 179.871 10.25 176.312 C7.563 160.781 -0.71 144.016 -13.062 134.062 C-25.941 125.21 -38.429 122.126 -53.891 124.496 C-66.679 127.817 -77.02 135.854 -83.879 147.02 C-89.074 156.771 -90.276 166.179 -91.062 177.062 C-94.552 178.226 -97.096 178.099 -100.773 177.977 C-101.446 177.956 -102.119 177.935 -102.812 177.913 C-105.02 177.843 -107.229 177.765 -109.438 177.688 C-110.963 177.638 -112.488 177.59 -114.014 177.542 C-120.879 177.322 -127.744 177.078 -134.609 176.814 C-136.646 176.736 -138.684 176.66 -140.721 176.583 C-143.247 176.487 -145.773 176.386 -148.298 176.28 C-149.427 176.236 -150.556 176.193 -151.719 176.148 C-152.707 176.108 -153.695 176.067 -154.713 176.025 C-157.085 175.893 -157.085 175.893 -159.062 177.062 C-161.412 176.455 -163.748 175.791 -166.062 175.062 C-166.16 174.035 -166.258 173.008 -166.359 171.949 C-168.41 152.251 -176.043 138.957 -190.062 125.062 C-189.072 124.567 -189.072 124.567 -188.062 124.062 C-188.216 123.485 -188.369 122.907 -188.527 122.312 C-192.482 105.692 -189.354 88.269 -186.875 71.688 C-186.723 70.648 -186.571 69.609 -186.414 68.538 C-185.966 65.515 -185.497 62.495 -185.02 59.477 C-184.884 58.576 -184.748 57.676 -184.608 56.748 C-183.117 47.744 -180.264 37.901 -173.383 31.5 C-170.353 29.623 -167.403 29.05 -163.938 28.5 C-163.19 28.377 -162.442 28.254 -161.672 28.127 C-150.88 26.532 -139.938 26.152 -129.054 25.599 C-117.215 25.767 -117.215 25.767 -106.062 23.062 C-104.422 22.868 -102.775 22.727 -101.127 22.614 C-100.091 22.54 -99.055 22.466 -97.989 22.39 C-96.857 22.314 -95.725 22.238 -94.559 22.16 C-93.384 22.078 -92.21 21.996 -91 21.912 C-87.167 21.645 -83.334 21.385 -79.5 21.125 C-76.884 20.944 -74.268 20.764 -71.652 20.583 C-56.339 19.529 -41.023 18.517 -25.697 17.658 C-15.246 17.932 -15.246 17.932 -6.062 15.062 C-5.69 12.735 -5.364 10.4 -5.062 8.062 C-4.033 0.082 -4.033 0.082 0 0 Z M-42.668 39.125 C-45.192 39.25 -47.715 39.368 -50.239 39.479 C-53.897 39.64 -57.554 39.825 -61.211 40.016 C-62.905 40.083 -62.905 40.083 -64.633 40.152 C-65.681 40.212 -66.73 40.271 -67.81 40.333 C-68.73 40.377 -69.651 40.422 -70.599 40.468 C-73.813 41.244 -75.058 42.464 -77.062 45.062 C-77.656 47.04 -77.656 47.04 -77.58 49.141 C-77.593 49.932 -77.605 50.723 -77.618 51.537 C-77.61 52.382 -77.602 53.227 -77.594 54.098 C-77.599 55.41 -77.599 55.41 -77.605 56.749 C-77.608 58.596 -77.601 60.443 -77.584 62.289 C-77.563 65.119 -77.584 67.946 -77.609 70.775 C-77.607 72.57 -77.602 74.365 -77.594 76.16 C-77.602 77.007 -77.61 77.854 -77.618 78.727 C-77.66 83.179 -77.66 83.179 -75.389 86.793 C-72.484 88.378 -70.624 88.397 -67.323 88.327 C-65.589 88.302 -65.589 88.302 -63.82 88.276 C-62.573 88.241 -61.325 88.207 -60.039 88.172 C-58.746 88.148 -57.453 88.124 -56.121 88.099 C-53.379 88.047 -50.637 87.986 -47.895 87.917 C-44.422 87.829 -40.948 87.757 -37.474 87.691 C-34.121 87.628 -30.767 87.556 -27.414 87.484 C-25.573 87.445 -25.573 87.445 -23.694 87.405 C-17.554 87.252 -11.422 87.016 -5.291 86.661 C-3.571 86.562 -3.571 86.562 -1.816 86.462 C1.076 86.323 1.076 86.323 2.938 84.062 C3.893 76.47 2.494 68.422 1.625 60.875 C1.507 59.739 1.389 58.602 1.268 57.432 C0.589 51.463 -0.145 46.355 -3.062 41.062 C-12.378 34.019 -31.701 38.563 -42.668 39.125 Z M32.938 39.062 C32.607 39.392 32.278 39.722 31.938 40.062 C32.085 48.61 33.59 57.152 34.984 65.565 C35.316 67.586 35.631 69.609 35.945 71.633 C36.157 72.919 36.368 74.206 36.586 75.531 C36.773 76.691 36.961 77.85 37.154 79.045 C37.953 82.124 38.731 83.795 40.938 86.062 C43.926 86.959 43.926 86.959 47.438 87.25 C48.08 87.323 48.722 87.397 49.383 87.472 C57.87 88.376 66.413 88.714 74.938 89.062 C74.35 80.6 72.733 72.418 71 64.125 C70.732 62.799 70.465 61.473 70.197 60.146 C69.938 58.893 69.678 57.639 69.41 56.348 C69.176 55.212 68.941 54.076 68.699 52.906 C68.054 49.89 68.054 49.89 65.938 47.062 C62.907 45.898 62.907 45.898 59.285 45.02 C58.629 44.846 57.973 44.673 57.297 44.494 C55.911 44.13 54.523 43.772 53.134 43.418 C51.009 42.877 48.888 42.32 46.768 41.76 C39.942 39.812 39.942 39.812 32.938 39.062 Z M-126.117 44.233 C-129.684 44.392 -133.248 44.591 -136.813 44.807 C-139.021 44.939 -141.23 45.057 -143.439 45.176 C-144.865 45.26 -146.29 45.344 -147.715 45.43 C-148.983 45.503 -150.252 45.576 -151.558 45.652 C-155.679 46.135 -159.332 47.007 -162.895 49.18 C-164.813 52.272 -164.647 55.647 -164.75 59.188 C-164.783 59.978 -164.815 60.768 -164.849 61.582 C-165.061 67.219 -165.156 72.859 -165.188 78.5 C-165.192 79.215 -165.197 79.93 -165.202 80.667 C-165.192 83.742 -165.043 86.121 -164.062 89.062 C-161.754 90.217 -160.327 90.229 -157.756 90.3 C-156.864 90.326 -155.972 90.352 -155.053 90.38 C-154.086 90.403 -153.118 90.426 -152.121 90.449 C-150.626 90.488 -150.626 90.488 -149.1 90.527 C-146.985 90.579 -144.869 90.628 -142.753 90.675 C-139.537 90.749 -136.322 90.84 -133.107 90.932 C-131.05 90.98 -128.992 91.028 -126.934 91.074 C-125.98 91.103 -125.027 91.132 -124.044 91.162 C-118.305 91.269 -112.476 91.196 -107.062 89.062 C-102.737 83.231 -103.288 76.054 -103.062 69.062 C-103.041 68.398 -103.019 67.734 -102.996 67.05 C-102.318 55.827 -102.318 55.827 -106.784 45.906 C-109.678 43.564 -111.071 43.617 -114.754 43.758 C-115.906 43.794 -117.059 43.831 -118.247 43.868 C-120.87 44.002 -123.492 44.124 -126.117 44.233 Z M-135.062 100.062 C-135.996 102.864 -136.226 104.717 -136.25 107.625 C-136.264 108.41 -136.278 109.195 -136.293 110.004 C-136.254 112.287 -136.254 112.287 -134.062 114.062 C-131.573 114.374 -131.573 114.374 -128.688 114.328 C-127.62 114.331 -126.553 114.333 -125.453 114.336 C-124.334 114.328 -123.215 114.32 -122.062 114.312 C-120.384 114.324 -120.384 114.324 -118.672 114.336 C-117.605 114.333 -116.537 114.331 -115.438 114.328 C-113.964 114.325 -113.964 114.325 -112.461 114.321 C-109.878 114.296 -109.878 114.296 -108.062 112.062 C-107.781 109.199 -107.781 109.199 -107.875 106 C-107.881 104.916 -107.888 103.832 -107.895 102.715 C-107.764 100.14 -107.764 100.14 -109.062 99.062 C-110.65 98.963 -112.242 98.932 -113.832 98.93 C-114.803 98.928 -115.775 98.927 -116.775 98.926 C-117.798 98.93 -118.821 98.934 -119.875 98.938 C-120.886 98.934 -121.898 98.93 -122.939 98.926 C-124.402 98.928 -124.402 98.928 -125.895 98.93 C-127.236 98.931 -127.236 98.931 -128.605 98.933 C-130.951 99.057 -132.872 99.207 -135.062 100.062 Z M-21.062 102.062 C-21.537 104.434 -21.537 104.434 -21.438 107 C-21.445 107.855 -21.453 108.709 -21.461 109.59 C-20.98 112.573 -20.179 113.922 -18.062 116.062 C-13.972 117.374 -9.819 117.284 -5.562 117.312 C-4.803 117.333 -4.044 117.354 -3.262 117.375 C-0.056 117.397 2.501 117.262 5.438 115.922 C7.565 113.285 7.47 111.415 7.438 108.062 C7.448 107.011 7.458 105.959 7.469 104.875 C7.209 102.001 7.209 102.001 5.209 100.412 C2.588 98.855 1.086 98.676 -1.941 98.664 C-2.862 98.66 -3.783 98.656 -4.732 98.652 C-6.164 98.67 -6.164 98.67 -7.625 98.688 C-8.583 98.676 -9.542 98.664 -10.529 98.652 C-11.449 98.656 -12.369 98.66 -13.316 98.664 C-14.155 98.667 -14.994 98.671 -15.858 98.674 C-18.544 99.147 -19.432 99.91 -21.062 102.062 Z " fill="#0071CE" transform="translate(351.0625,143.9375)" />
  <path d="M0 0 C1.056 0.014 2.113 0.027 3.201 0.041 C5.78 0.076 8.359 0.125 10.938 0.188 C10.938 0.848 10.938 1.507 10.938 2.188 C11.515 2.311 12.092 2.435 12.688 2.562 C14.961 3.194 16.863 4.076 18.938 5.188 C18.938 5.848 18.938 6.507 18.938 7.188 C20.02 7.528 20.02 7.528 21.125 7.875 C30.392 12.2 34.974 23.362 38.938 32.188 C38.938 32.847 38.938 33.507 38.938 34.188 C39.597 34.188 40.257 34.188 40.938 34.188 C42.267 36.173 43.377 38.243 44.523 40.34 C46.209 42.542 47.241 42.826 49.938 43.188 C52.484 52.298 50.737 60.669 46.938 69.188 C45.208 72.145 43.228 74.647 40.938 77.188 C40.363 77.854 39.788 78.52 39.195 79.207 C29.133 90.125 14.723 96.493 -0.051 97.285 C-12.227 96.89 -22.22 91.564 -30.992 83.418 C-42.643 70.866 -45.644 53.736 -45.062 37.188 C-43.003 25.299 -35.661 12.981 -25.812 6 C-17.696 0.462 -9.593 -0.236 0 0 Z M-21.934 34.504 C-25.634 40.022 -24.803 48.778 -24.062 55.188 C-22.076 61.671 -17.663 66.471 -12.062 70.188 C-6.295 72.11 -0.183 72.208 5.312 69.562 C10.506 64.864 14.47 60.381 15.273 53.172 C15.388 43.72 14.066 37.232 7.5 30.25 C2.999 26.13 -0.716 24.679 -6.949 24.879 C-13.523 25.839 -17.842 29.499 -21.934 34.504 Z " fill="#333E48" transform="translate(313.0625,281.8125)" />
  <path d="M0 0 C3.459 6.275 3.956 12.768 4.688 19.812 C4.817 20.937 4.947 22.062 5.08 23.221 C6.669 37.686 6.669 37.686 6 43 C3.28 45.72 1.579 45.38 -2.228 45.599 C-4.127 45.709 -4.127 45.709 -6.064 45.821 C-12.159 46.098 -18.251 46.292 -24.352 46.422 C-25.654 46.45 -26.956 46.478 -28.298 46.506 C-31.023 46.563 -33.747 46.616 -36.471 46.667 C-39.957 46.734 -43.442 46.819 -46.928 46.907 C-50.277 46.988 -53.627 47.047 -56.977 47.109 C-58.224 47.144 -59.472 47.178 -60.758 47.213 C-62.492 47.239 -62.492 47.239 -64.26 47.265 C-65.275 47.286 -66.29 47.307 -67.335 47.33 C-70.47 46.942 -71.812 46.263 -74 44 C-74.405 40.912 -74.561 38.187 -74.531 35.098 C-74.535 34.224 -74.539 33.349 -74.543 32.449 C-74.546 30.6 -74.538 28.752 -74.521 26.904 C-74.5 24.076 -74.521 21.251 -74.547 18.424 C-74.544 16.628 -74.539 14.831 -74.531 13.035 C-74.539 12.19 -74.547 11.345 -74.556 10.475 C-74.543 9.684 -74.531 8.893 -74.518 8.078 C-74.514 7.386 -74.511 6.693 -74.508 5.979 C-73.755 3.043 -72.365 1.844 -70 0 C-67.536 -0.595 -67.536 -0.595 -64.748 -0.729 C-63.699 -0.789 -62.65 -0.849 -61.57 -0.911 C-59.876 -0.978 -59.876 -0.978 -58.148 -1.047 C-56.979 -1.108 -55.81 -1.169 -54.605 -1.232 C-50.863 -1.422 -47.119 -1.586 -43.375 -1.75 C-40.876 -1.875 -38.378 -2.001 -35.879 -2.129 C-4.855 -3.671 -4.855 -3.671 0 0 Z " fill="#333E48" transform="translate(348,185)" />
  <path d="M0 0 C2.938 2.172 5.439 4.403 7.875 7.125 C7.875 7.785 7.875 8.445 7.875 9.125 C8.535 9.125 9.195 9.125 9.875 9.125 C11.064 10.73 11.064 10.73 12.371 12.957 C12.847 13.756 13.324 14.554 13.814 15.377 C14.309 16.222 14.803 17.067 15.312 17.938 C16.286 19.592 17.264 21.245 18.246 22.895 C18.895 24.002 18.895 24.002 19.556 25.132 C20.795 27.168 20.795 27.168 22.528 28.69 C23.875 30.125 23.875 30.125 24.062 33.312 C23.97 34.705 23.97 34.705 23.875 36.125 C25.009 36.269 26.144 36.414 27.312 36.562 C30.875 37.125 30.875 37.125 31.875 38.125 C32.672 49.277 28.128 58.494 21.281 67.137 C12.606 76.569 0.188 79.502 -12.222 80.252 C-21.19 80.446 -27.912 77.069 -34.316 70.961 C-34.913 70.355 -35.51 69.749 -36.125 69.125 C-36.67 68.602 -37.216 68.078 -37.777 67.539 C-44.837 60.174 -47.709 50.006 -49.125 40.125 C-49.294 39.276 -49.463 38.426 -49.637 37.551 C-51.261 27.346 -47.399 18.138 -41.812 9.688 C-30.822 -4.776 -16.198 -9.719 0 0 Z M-29.125 23.125 C-32.927 29.479 -33.165 36.689 -31.504 43.773 C-29.651 49.257 -27.229 52.943 -22.332 56.113 C-18.448 57.894 -15.253 58.324 -11.125 57.125 C-6.968 54.622 -3.989 51.673 -1.625 47.438 C-0.158 37.72 -0.46 29.563 -6.062 21.25 C-9.343 17.87 -12.256 16.802 -16.938 16.625 C-22.601 16.759 -25.701 18.674 -29.125 23.125 Z " fill="#333E48" transform="translate(161.125,282.875)" />
  <path d="M0 0 C5.382 -0.042 10.765 -0.068 16.147 -0.083 C17.453 -0.088 17.453 -0.088 18.785 -0.092 C21.25 -0.098 23.714 -0.096 26.179 -0.091 C27.294 -0.094 27.294 -0.094 28.431 -0.097 C33.532 -0.074 33.532 -0.074 34.647 1.042 C34.793 2.627 34.875 4.219 34.929 5.811 C34.985 7.268 34.985 7.268 35.042 8.754 C35.094 10.289 35.094 10.289 35.147 11.854 C35.217 13.861 35.289 15.867 35.366 17.874 C35.397 18.768 35.427 19.662 35.458 20.584 C35.633 22.853 36.02 24.859 36.647 27.042 C33.056 28.316 30.901 27.909 27.46 26.604 C19.332 23.702 12.254 24.512 4.315 27.725 C-6.57 33.096 -12.931 41.722 -17.165 52.917 C-19.263 59.209 -20.546 65.465 -21.353 72.042 C-23.993 72.042 -26.633 72.042 -29.353 72.042 C-29.413 70.993 -29.474 69.945 -29.536 68.866 C-29.621 67.487 -29.705 66.108 -29.79 64.729 C-29.829 64.039 -29.869 63.348 -29.909 62.637 C-30.102 59.57 -30.376 56.972 -31.353 54.042 C-30.363 54.042 -29.373 54.042 -28.353 54.042 C-28.023 46.452 -27.693 38.862 -27.353 31.042 C-30.653 31.042 -33.953 31.042 -37.353 31.042 C-43.853 29.542 -43.853 29.542 -45.353 28.042 C-45.48 25.669 -45.528 23.292 -45.54 20.917 C-45.554 19.615 -45.568 18.313 -45.583 16.971 C-45.266 11.562 -44.656 7.63 -41.167 3.378 C-37.816 0.596 -36.315 0.395 -32.017 0.334 C-30.105 0.291 -30.105 0.291 -28.155 0.246 C-26.763 0.24 -25.37 0.234 -23.978 0.229 C-22.535 0.207 -21.093 0.183 -19.651 0.157 C-15.731 0.096 -11.811 0.07 -7.89 0.053 C-5.26 0.041 -2.63 0.021 0 0 Z " fill="#0071CE" transform="translate(127.3525390625,240.95849609375)" />
  <path d="M0 0 C1.17 2.34 1.166 3.834 1.188 6.438 C1.202 7.22 1.216 8.002 1.23 8.809 C1 11 1 11 -1 14 C-6.653 15.09 -12.198 15.1 -17.938 15 C-20.631 14.955 -23.305 14.952 -26 15 C-26.33 15.33 -26.66 15.66 -27 16 C-28.763 16.253 -30.535 16.442 -32.309 16.607 C-33.486 16.717 -34.663 16.828 -35.875 16.941 C-37.211 17.062 -38.547 17.181 -39.883 17.301 C-41.299 17.43 -42.716 17.56 -44.132 17.69 C-63.797 19.475 -83.481 21.055 -103.162 22.644 C-108.813 23.101 -114.463 23.563 -120.113 24.026 C-124.519 24.387 -128.925 24.744 -133.331 25.099 C-135.416 25.268 -137.501 25.439 -139.586 25.61 C-142.486 25.848 -145.385 26.081 -148.285 26.313 C-149.124 26.383 -149.964 26.453 -150.829 26.526 C-159.164 27.181 -167.013 27.778 -175 25 C-175 25.99 -175 26.98 -175 28 C-176.417 28.027 -177.833 28.047 -179.25 28.062 C-180.433 28.08 -180.433 28.08 -181.641 28.098 C-183.939 28.003 -185.831 27.763 -188 27 C-189.203 24.595 -189.101 23.05 -189.062 20.375 C-189.053 19.558 -189.044 18.74 -189.035 17.898 C-189.024 17.272 -189.012 16.645 -189 16 C-184.152 14.486 -179.665 13.62 -174.58 13.166 C-173.867 13.1 -173.154 13.034 -172.42 12.967 C-170.053 12.75 -167.685 12.543 -165.316 12.336 C-163.616 12.182 -161.915 12.027 -160.214 11.872 C-156.569 11.54 -152.923 11.211 -149.278 10.886 C-139.578 10.02 -129.881 9.131 -120.184 8.242 C-119.19 8.151 -118.196 8.06 -117.172 7.967 C-102.37 6.612 -87.575 5.187 -72.785 3.695 C-71.4 3.556 -71.4 3.556 -69.986 3.413 C-61.096 2.517 -52.207 1.612 -43.319 0.698 C-40.062 0.364 -36.804 0.033 -33.546 -0.298 C-31.333 -0.524 -29.12 -0.754 -26.907 -0.985 C-8.948 -2.826 -8.948 -2.826 0 0 Z " fill="#A4A9AD" transform="translate(374,130)" />
  <path d="M0 0 C6.055 6.641 3.988 18.123 3.688 26.5 C3.661 27.463 3.635 28.427 3.608 29.419 C3.365 34.899 3.01 39.052 -1.062 43.125 C-3.082 43.285 -5.108 43.377 -7.133 43.441 C-8.412 43.484 -9.691 43.526 -11.009 43.57 C-12.402 43.61 -13.795 43.649 -15.188 43.688 C-15.883 43.707 -16.578 43.727 -17.295 43.748 C-21.546 43.868 -25.797 43.974 -30.049 44.075 C-31.945 44.122 -33.84 44.177 -35.735 44.232 C-38.928 44.322 -42.119 44.385 -45.312 44.438 C-46.263 44.467 -47.213 44.497 -48.192 44.528 C-54.493 44.583 -54.493 44.583 -57.156 42.441 C-58.834 38.153 -58.321 33.899 -58.141 29.361 C-58.049 26.747 -58.011 24.134 -57.969 21.52 C-57.919 19.534 -57.866 17.548 -57.812 15.562 C-57.799 14.598 -57.785 13.634 -57.771 12.641 C-57.528 5.82 -57.528 5.82 -55.328 2.535 C-50.791 -0.289 -45.487 -0.126 -40.27 -0.41 C-39.523 -0.453 -38.777 -0.496 -38.009 -0.54 C-36.433 -0.63 -34.857 -0.718 -33.281 -0.805 C-30.9 -0.936 -28.519 -1.074 -26.139 -1.213 C-4.045 -2.476 -4.045 -2.476 0 0 Z " fill="#333E48" transform="translate(244.0625,189.875)" />
  <path d="M0 0 C1 1 1 1 1.114 3.225 C1.106 4.662 1.106 4.662 1.098 6.129 C1.093 7.681 1.093 7.681 1.088 9.264 C1.075 10.897 1.075 10.897 1.062 12.562 C1.058 13.655 1.053 14.747 1.049 15.873 C1.037 18.582 1.021 21.291 1 24 C-51.09 42.004 -51.09 42.004 -75 37 C-76.846 30.771 -77.193 24.953 -77.188 18.5 C-77.188 17.686 -77.189 16.872 -77.189 16.034 C-77.135 10.135 -77.135 10.135 -76 9 C-73.837 8.98 -71.674 8.964 -69.51 8.963 C-54.166 8.832 -39.573 5.9 -24.6 2.795 C-23.712 2.613 -22.824 2.432 -21.909 2.246 C-20.245 1.904 -18.583 1.555 -16.923 1.194 C-11.291 0.036 -5.75 -0.464 0 0 Z " fill="#A4A9AD" transform="translate(449,299)" />
  <path d="M0 0 C1.865 0.245 1.865 0.245 4.316 0.77 C5.674 1.059 5.674 1.059 7.059 1.354 C8.03 1.567 9 1.78 10 2 C10.967 2.204 11.933 2.408 12.929 2.619 C15.942 3.27 18.939 3.974 21.938 4.688 C22.964 4.906 23.991 5.124 25.049 5.35 C26.523 5.708 26.523 5.708 28.027 6.074 C28.912 6.276 29.796 6.478 30.707 6.686 C34.08 8.619 34.908 11.45 36 15 C36.601 17.341 37.135 19.7 37.605 22.07 C37.799 23.036 37.799 23.036 37.996 24.022 C38.264 25.371 38.529 26.721 38.79 28.071 C39.188 30.129 39.6 32.183 40.014 34.238 C42.175 45.18 42.175 45.18 42 50 C32.819 49.624 23.633 49.23 14.5 48.188 C13.314 48.057 12.128 47.927 10.906 47.793 C7.376 46.83 6.841 46.095 5 43 C4.216 39.982 4.216 39.982 3.648 36.469 C3.331 34.539 3.331 34.539 3.008 32.57 C2.904 31.9 2.8 31.23 2.692 30.54 C2.38 28.532 2.051 26.528 1.719 24.523 C-0.872 8.438 -0.872 8.438 -1 1 C-0.67 0.67 -0.34 0.34 0 0 Z " fill="#333E48" transform="translate(384,183)" />
  <path d="M0 0 C5.622 3.708 10.449 7.983 12.5 14.57 C13.858 21.92 14.183 29.624 10.285 36.219 C7.463 39.818 4.038 42.887 -0.062 44.938 C-7.239 45.664 -12.267 45.342 -18.062 40.938 C-23.923 34.811 -26.581 29.425 -26.438 20.938 C-26.449 20.252 -26.461 19.566 -26.473 18.859 C-26.441 13.285 -25.162 9.266 -21.414 5.109 C-14.748 -0.38 -8.568 -2.972 0 0 Z " fill="#A4A9AD" transform="translate(315.0625,308.0625)" />
  <path d="M0 0 C0.569 6.387 1.08 12.776 1.25 19.188 C1.289 20.508 1.289 20.508 1.328 21.855 C1.22 22.563 1.112 23.271 1 24 C-2.616 26.411 -6.056 26.979 -10.246 27.762 C-11.457 27.994 -11.457 27.994 -12.693 28.231 C-14.4 28.556 -16.107 28.878 -17.815 29.197 C-20.426 29.685 -23.034 30.191 -25.643 30.697 C-27.302 31.011 -28.961 31.325 -30.621 31.637 C-31.79 31.865 -31.79 31.865 -32.983 32.097 C-36.671 32.772 -39.414 33.081 -43 32 C-43.167 27.889 -43.328 23.777 -43.482 19.665 C-43.536 18.265 -43.591 16.865 -43.648 15.466 C-43.73 13.458 -43.805 11.45 -43.879 9.441 C-43.926 8.232 -43.973 7.022 -44.022 5.776 C-44 3 -44 3 -43 2 C-40.421 1.684 -37.861 1.427 -35.273 1.211 C-34.492 1.143 -33.711 1.076 -32.907 1.006 C-31.247 0.864 -29.588 0.725 -27.928 0.588 C-25.406 0.378 -22.885 0.154 -20.363 -0.07 C-18.75 -0.207 -17.137 -0.342 -15.523 -0.477 C-14.775 -0.544 -14.027 -0.612 -13.256 -0.682 C-8.643 -1.048 -4.558 -0.818 0 0 Z " fill="#FFFFFF" transform="translate(439,274)" />
  <path d="M0 0 C1.576 0.061 1.576 0.061 3.184 0.124 C4.951 0.188 4.951 0.188 6.754 0.254 C8.03 0.307 9.306 0.359 10.621 0.413 C11.919 0.462 13.216 0.512 14.553 0.563 C17.247 0.666 19.94 0.772 22.633 0.88 C26.388 1.028 30.143 1.164 33.898 1.295 C36.118 1.376 38.339 1.457 40.559 1.538 C41.587 1.573 42.615 1.608 43.674 1.645 C48.404 1.826 52.967 2.093 57.621 3.038 C52.993 14.116 48.035 21.521 36.684 26.288 C27.732 29.573 18.256 32.151 9.059 28.475 C3.823 25.917 -0.288 22.129 -4.379 18.038 C-4.314 15.19 -4.187 12.378 -4.004 9.538 C-3.96 8.74 -3.916 7.942 -3.871 7.12 C-3.439 0.054 -3.439 0.054 0 0 Z " fill="#000000" transform="translate(196.37890625,318.96240234375)" />
  <path d="M0 0 C8.751 8.061 13.828 18.485 18.094 29.414 C18.477 30.376 18.477 30.376 18.868 31.358 C20.621 36.135 20.816 40.035 20.594 45.039 C18.844 44.914 18.844 44.914 16.594 44.039 C12.594 38.817 12.594 38.817 12.594 36.039 C11.934 36.039 11.274 36.039 10.594 36.039 C10.208 35.298 10.208 35.298 9.815 34.542 C8.641 32.289 7.461 30.039 6.281 27.789 C5.877 27.012 5.473 26.234 5.057 25.434 C3.111 21.732 1.139 18.367 -1.406 15.039 C-1.406 14.379 -1.406 13.719 -1.406 13.039 C-1.984 12.75 -2.561 12.462 -3.156 12.164 C-5.24 11.122 -7.323 10.081 -9.406 9.039 C-9.406 8.379 -9.406 7.719 -9.406 7.039 C-9.984 6.915 -10.561 6.792 -11.156 6.664 C-13.43 6.033 -15.332 5.15 -17.406 4.039 C-17.406 3.379 -17.406 2.719 -17.406 2.039 C-38.371 1.704 -38.371 1.704 -56.406 11.039 C-57.066 11.039 -57.726 11.039 -58.406 11.039 C-58.654 11.596 -58.901 12.153 -59.156 12.727 C-60.406 15.039 -60.406 15.039 -62.293 17.32 C-67.457 23.963 -70.669 32.131 -73.406 40.039 C-76.046 40.369 -78.686 40.699 -81.406 41.039 C-82.185 26.394 -78.433 13.693 -68.969 2.414 C-49.361 -18.249 -21.451 -17.481 0 0 Z " fill="#000000" transform="translate(341.40625,279.9609375)" />
  <path d="M0 0 C0 2.64 0 5.28 0 8 C-4.194 9.979 -8.183 10.465 -12.749 10.778 C-13.514 10.837 -14.279 10.895 -15.068 10.956 C-17.593 11.148 -20.119 11.328 -22.645 11.508 C-24.415 11.639 -26.186 11.771 -27.956 11.903 C-31.672 12.178 -35.389 12.448 -39.105 12.714 C-43.825 13.052 -48.543 13.402 -53.262 13.757 C-56.924 14.031 -60.587 14.299 -64.25 14.565 C-65.987 14.692 -67.724 14.82 -69.46 14.95 C-80.333 15.76 -91.095 16.168 -102 16 C-102.042 13.667 -102.041 11.333 -102 9 C-100.377 7.377 -98.479 7.64 -96.23 7.422 C-94.599 7.262 -94.599 7.262 -92.934 7.099 C-91.698 6.984 -90.461 6.869 -89.188 6.75 C-87.883 6.626 -86.579 6.503 -85.236 6.376 C-70.407 4.989 -55.565 3.739 -40.725 2.485 C-38.695 2.313 -36.664 2.14 -34.634 1.966 C-30.761 1.635 -26.886 1.311 -23.012 0.988 C-21.849 0.888 -20.686 0.789 -19.489 0.686 C-12.974 0.15 -6.536 -0.131 0 0 Z " fill="#A4A9AD" transform="translate(346,151)" />
  <path d="M0 0 C7.903 5.612 13.425 12.525 18 21 C18.41 21.75 18.82 22.5 19.242 23.273 C22.201 29.256 23.154 35.422 24 42 C23.01 42 22.02 42 21 42 C19.57 40.312 19.57 40.312 18.125 38 C17.609 37.184 17.094 36.368 16.562 35.527 C15.789 34.276 15.789 34.276 15 33 C14.505 32.238 14.01 31.476 13.5 30.691 C10 25.272 10 25.272 10 23 C9.34 23 8.68 23 8 23 C6.889 21.793 5.835 20.533 4.812 19.25 C-0.004 13.581 -5.164 10.433 -12.664 9.762 C-21.626 9.537 -29.004 10.881 -35.75 17.125 C-42.016 24.07 -45.553 31.736 -48.238 40.629 C-49 43 -49 43 -50 44 C-51.666 44.041 -53.334 44.043 -55 44 C-55.88 31.098 -50.299 18.809 -42.688 8.625 C-30.257 -3.516 -16.073 -7.944 0 0 Z " fill="#000000" transform="translate(161,269)" />
  <path d="M0 0 C5.453 2.525 7.477 5.768 10 11 C11.922 17.046 12.121 24.886 9.938 30.875 C7.118 35.423 4.173 39.151 -1.176 40.582 C-6.532 40.98 -10.214 39.409 -14.27 35.961 C-19.15 30.431 -20.676 23.62 -20.312 16.383 C-19.462 9.898 -17.351 5.147 -12.094 1.07 C-8.125 -0.959 -4.305 -0.818 0 0 Z " fill="#A4A9AD" transform="translate(149,300)" />
  <path d="M0 0 C1.454 0.031 1.454 0.031 2.938 0.062 C3.618 1.517 3.618 1.517 4.312 3 C5.595 6.133 5.595 6.133 7.938 7.062 C9.967 7.285 12.002 7.455 14.039 7.598 C15.857 7.728 15.857 7.728 17.711 7.861 C18.982 7.948 20.253 8.035 21.562 8.125 C22.841 8.216 24.12 8.307 25.438 8.4 C28.604 8.625 31.771 8.845 34.938 9.062 C28.425 20.009 19.193 27.102 6.781 30.609 C6.173 30.759 5.564 30.908 4.938 31.062 C3.7 31.403 3.7 31.403 2.438 31.75 C-2.802 32.405 -7.961 32.52 -13.062 31.062 C-12.387 27.512 -10.883 24.826 -9.125 21.688 C-6.08 15.779 -5.055 10.375 -4.387 3.801 C-3.932 -0.043 -3.933 0.08 0 0 Z " fill="#000000" transform="translate(368.0625,328.9375)" />
  <path d="M0 0 C0 3.3 0 6.6 0 10 C-3.908 11.954 -5.997 12.348 -10.25 12.625 C-11.866 12.737 -11.866 12.737 -13.516 12.852 C-14.335 12.901 -15.155 12.95 -16 13 C-16 12.34 -16 11.68 -16 11 C-17.98 11 -19.96 11 -22 11 C-22 11.66 -22 12.32 -22 13 C-27.142 13.842 -32.105 14.192 -37.312 14.188 C-38.054 14.188 -38.795 14.189 -39.558 14.189 C-45.211 14.135 -50.534 13.504 -56 12 C-57.316 8.38 -58 5.904 -58 2 C-53.931 0.903 -49.873 0.572 -45.684 0.246 C-44.466 0.148 -44.466 0.148 -43.224 0.049 C-41.505 -0.088 -39.786 -0.224 -38.067 -0.357 C-35.471 -0.56 -32.875 -0.771 -30.279 -0.982 C-6.473 -2.886 -6.473 -2.886 0 0 Z " fill="#A4A9AD" transform="translate(414,148)" />
  <path d="M0 0 C6.27 0 12.54 0 19 0 C20.216 10.337 20.092 20.609 20 31 C16.854 31.029 13.708 31.047 10.562 31.062 C9.665 31.071 8.767 31.079 7.842 31.088 C6.561 31.093 6.561 31.093 5.254 31.098 C4.463 31.103 3.672 31.108 2.858 31.114 C1 31 1 31 0 30 C-0.088 27.781 -0.107 25.56 -0.098 23.34 C-0.096 22.675 -0.095 22.011 -0.093 21.326 C-0.088 19.197 -0.075 17.067 -0.062 14.938 C-0.057 13.497 -0.053 12.056 -0.049 10.615 C-0.039 7.077 -0.019 3.538 0 0 Z " fill="#FFB819" transform="translate(376,277)" />
  <path d="M0 0 C0.795 -0.005 1.591 -0.01 2.41 -0.016 C4.938 0.25 4.938 0.25 10.938 2.25 C10.938 7.53 10.938 12.81 10.938 18.25 C15.888 17.92 20.838 17.59 25.938 17.25 C25.938 18.57 25.938 19.89 25.938 21.25 C13.5 23.828 1.586 25.398 -11.062 23.25 C-12.062 22.25 -12.062 22.25 -12.176 20.301 C-12.168 19.052 -12.168 19.052 -12.16 17.777 C-12.157 16.878 -12.154 15.979 -12.15 15.053 C-12.142 14.107 -12.134 13.162 -12.125 12.188 C-12.12 11.238 -12.116 10.289 -12.111 9.311 C-12.1 6.957 -12.083 4.604 -12.062 2.25 C-7.969 0.984 -4.295 -0.028 0 0 Z " fill="#A4A9AD" transform="translate(86.0625,295.75)" />
  <path d="M0 0 C0.92 -0.004 1.839 -0.008 2.787 -0.012 C3.746 -0 4.704 0.011 5.691 0.023 C7.123 0.006 7.123 0.006 8.584 -0.012 C9.505 -0.008 10.426 -0.004 11.375 0 C12.635 0.005 12.635 0.005 13.92 0.01 C16.783 0.486 18.167 1.405 20.254 3.398 C20.785 6.211 20.785 6.211 20.754 9.398 C20.764 10.45 20.775 11.502 20.785 12.586 C20.254 15.398 20.254 15.398 18.75 17.254 C15.147 18.906 11.698 18.794 7.816 18.711 C7.066 18.714 6.315 18.717 5.541 18.721 C1.393 18.681 -2.041 18.469 -5.746 16.398 C-7.892 13.18 -8.042 12.131 -8.059 8.398 C-8.075 7.532 -8.092 6.666 -8.109 5.773 C-7.37 0.938 -4.527 0.018 0 0 Z " fill="#00B3E3" transform="translate(337.74609375,242.6015625)" />
  <path d="M0 0 C0.88 -0.001 1.761 -0.003 2.668 -0.004 C3.579 -0 4.491 0.004 5.43 0.008 C6.349 0.004 7.268 0 8.215 -0.004 C9.093 -0.003 9.971 -0.001 10.875 0 C11.677 0.001 12.479 0.002 13.305 0.003 C15.305 0.133 15.305 0.133 17.305 1.133 C17.359 3.091 17.397 5.049 17.43 7.008 C17.453 8.098 17.476 9.189 17.5 10.312 C17.305 13.133 17.305 13.133 15.305 15.133 C11.323 15.589 7.309 15.457 3.305 15.445 C1.626 15.469 1.626 15.469 -0.086 15.494 C-1.687 15.495 -1.687 15.495 -3.32 15.496 C-4.303 15.499 -5.285 15.502 -6.297 15.505 C-7.088 15.382 -7.88 15.259 -8.695 15.133 C-10.694 12.135 -10.971 11.499 -10.945 8.133 C-10.95 7.452 -10.956 6.772 -10.961 6.07 C-10.695 4.133 -10.695 4.133 -8.695 1.133 C-5.811 0.063 -3.055 0.004 0 0 Z " fill="#00B3E3" transform="translate(225.6953125,242.8671875)" />
  <path d="M0 0 C0.495 0.99 0.495 0.99 1 2 C-0.26 2.055 -1.519 2.111 -2.817 2.168 C-7.555 2.376 -12.292 2.588 -17.03 2.8 C-19.068 2.89 -21.107 2.981 -23.145 3.07 C-33.485 3.524 -43.805 4.024 -54.125 4.81 C-58.048 5.069 -61.946 5.113 -65.875 5.062 C-66.575 5.058 -67.275 5.053 -67.996 5.049 C-69.664 5.037 -71.332 5.019 -73 5 C-72.625 3.062 -72.625 3.062 -72 1 C-69.543 -0.229 -67.721 -0.237 -64.975 -0.389 C-63.926 -0.449 -62.877 -0.509 -61.797 -0.571 C-60.657 -0.631 -59.518 -0.692 -58.344 -0.754 C-57.172 -0.819 -56 -0.884 -54.792 -0.951 C-52.304 -1.089 -49.816 -1.224 -47.327 -1.357 C-43.543 -1.56 -39.76 -1.771 -35.977 -1.982 C-33.557 -2.115 -31.138 -2.247 -28.719 -2.379 C-27.595 -2.441 -26.472 -2.504 -25.315 -2.568 C-5.431 -3.621 -5.431 -3.621 0 0 Z " fill="#000000" transform="translate(348,185)" />
  <path d="M0 0 C3.96 0 7.92 0 12 0 C12 9.9 12 19.8 12 30 C8.04 30 4.08 30 0 30 C0 20.1 0 10.2 0 0 Z " fill="#FFFFFF" transform="translate(364,277)" />
  <path d="M0 0 C8 0 8 0 11 1 C11.029 4.812 11.047 8.625 11.062 12.438 C11.071 13.526 11.079 14.615 11.088 15.736 C11.091 16.771 11.094 17.805 11.098 18.871 C11.103 19.829 11.108 20.788 11.114 21.775 C11 24 11 24 10 25 C6.7 25 3.4 25 0 25 C0 16.75 0 8.5 0 0 Z " fill="#FFB819" transform="translate(82,271)" />
  <path d="M0 0 C2.753 1.796 4.526 3.053 6 6 C6.372 9.948 6.349 12.33 4.5 15.875 C1.118 18.75 -1.632 19.139 -6 19 C-9.786 18.243 -10.686 17.461 -12.875 14.25 C-14.167 10.519 -14.219 8.737 -13 5 C-9.013 0.241 -6.186 -0.524 0 0 Z " fill="#A4A9AD" transform="translate(112,198)" />
  <path d="M0 0 C0.886 -0.023 1.773 -0.046 2.686 -0.069 C3.784 -0.101 3.784 -0.101 4.903 -0.133 C8.34 0.372 9.757 2.455 11.772 5.142 C11.149 5.131 10.525 5.12 9.883 5.109 C0.446 5.022 -8.954 5.472 -18.376 5.941 C-21.184 6.08 -23.992 6.212 -26.8 6.343 C-28.598 6.43 -30.395 6.518 -32.193 6.606 C-33.443 6.664 -33.443 6.664 -34.718 6.723 C-38.647 6.924 -42.388 7.216 -46.228 8.142 C-45.603 6.267 -45.603 6.267 -44.228 4.142 C-39.659 2.215 -35.237 1.742 -30.337 1.509 C-29.593 1.467 -28.848 1.426 -28.081 1.383 C-26.511 1.297 -24.941 1.215 -23.371 1.136 C-20.999 1.018 -18.627 0.887 -16.255 0.755 C-10.839 0.459 -5.42 0.238 0 0 Z " fill="#000000" transform="translate(234.22802734375,187.8583984375)" />
  <path d="M0 0 C2.31 0 4.62 0 7 0 C7.029 3.458 7.047 6.917 7.062 10.375 C7.071 11.36 7.079 12.345 7.088 13.359 C7.091 14.3 7.094 15.241 7.098 16.211 C7.103 17.08 7.108 17.95 7.114 18.845 C7 21 7 21 6 23 C4.02 23 2.04 23 0 23 C0 15.41 0 7.82 0 0 Z " fill="#FFFFFF" transform="translate(93,272)" />
  <path d="M0 0 C-0.33 6.6 -0.66 13.2 -1 20 C-3.31 20 -5.62 20 -8 20 C-8 13.07 -8 6.14 -8 -1 C-5 -2 -5 -2 0 0 Z " fill="#333E48" transform="translate(114,221)" />
  <path d="M0 0 C1.454 0.031 1.454 0.031 2.938 0.062 C4.873 5.317 5.899 10.574 6.938 16.062 C2.647 16.062 -1.642 16.062 -6.062 16.062 C-5.755 13.583 -5.442 11.104 -5.125 8.625 C-5.038 7.918 -4.951 7.211 -4.861 6.482 C-4.035 0.082 -4.035 0.082 0 0 Z " fill="#333E48" transform="translate(351.0625,143.9375)" />
  <path d="M0 0 C7.345 1.425 14.658 2.956 21.938 4.688 C22.964 4.906 23.991 5.124 25.049 5.35 C32.277 7.108 32.277 7.108 34.349 9.665 C35.865 13.058 36.335 16.319 36 20 C34 17 34 17 33.227 14.441 C32.202 11.79 32.202 11.79 29.523 10.777 C28.484 10.5 27.445 10.223 26.375 9.938 C25.219 9.62 24.062 9.303 22.871 8.977 C21.594 8.654 20.316 8.332 19 8 C17.574 7.633 16.148 7.266 14.723 6.898 C10.822 5.904 6.912 4.948 3 4 C1.666 3.668 0.333 3.336 -1 3 C-0.67 2.01 -0.34 1.02 0 0 Z " fill="#000000" transform="translate(384,183)" />
  <path d="M0 0 C1.98 0 3.96 0 6 0 C7.996 1.996 7.41 5.817 7.562 8.562 C7.606 9.273 7.649 9.984 7.693 10.717 C7.8 12.478 7.9 14.239 8 16 C5.03 16 2.06 16 -1 16 C-0.67 10.72 -0.34 5.44 0 0 Z " fill="#333E48" transform="translate(199,155)" />
  <path d="M0 0 C0.33 0 0.66 0 1 0 C1.108 1.936 1.186 3.874 1.25 5.812 C1.296 6.891 1.343 7.97 1.391 9.082 C1 12 1 12 -0.488 13.867 C-4.101 15.497 -7.554 15.395 -11.438 15.312 C-12.188 15.316 -12.939 15.319 -13.713 15.322 C-17.869 15.282 -21.267 15.035 -25 13 C-25.33 12.34 -25.66 11.68 -26 11 C-24.782 11.095 -23.564 11.191 -22.309 11.289 C-20.685 11.402 -19.061 11.514 -17.438 11.625 C-16.238 11.722 -16.238 11.722 -15.014 11.82 C-9.836 12.158 -5.902 11.724 -1 10 C-0.67 6.7 -0.34 3.4 0 0 Z " fill="#0071CE" transform="translate(357,246)" />
  <path d="M0 0 C1.98 0 3.96 0 6 0 C6.66 3.96 7.32 7.92 8 12 C5.36 11.67 2.72 11.34 0 11 C0 7.37 0 3.74 0 0 Z " fill="#333E48" transform="translate(392,159)" />
  <path d="M0 0 C9.9 0 19.8 0 30 0 C30 0.33 30 0.66 30 1 C19.824 2.034 10.164 1.858 0 1 C0 0.67 0 0.34 0 0 Z " fill="#0071CE" transform="translate(212,233)" />
  <path d="M0 0 C0.33 0 0.66 0 1 0 C1 2.64 1 5.28 1 8 C0.67 8 0.34 8 0 8 C0 5.36 0 2.72 0 0 Z " fill="#333E48" transform="translate(247,205)" />
  <path d="M0 0 C0.33 0 0.66 0 1 0 C1 1.98 1 3.96 1 6 C0.67 6 0.34 6 0 6 C0 4.02 0 2.04 0 0 Z " fill="#333E48" transform="translate(247,198)" />
  <path d="M0 0 C1 4 1 4 1 4 Z " fill="#333E48" transform="translate(186,213)" />
  <path d="M0 0 C2 1 2 1 2 1 Z " fill="#000000" transform="translate(229,188)" />
  <path d="M0 0 C3 1 3 1 3 1 Z " fill="#333E48" transform="translate(376,336)" />
  <path d="M0 0 C2 1 2 1 2 1 Z " fill="#0071CE" transform="translate(92,271)" />
</svg>