<?xml version='1.0' encoding='utf-8'?>
<svg xmlns="http://www.w3.org/2000/svg" width="512" height="512" viewBox="0 0 512 512" style="background-color:transparent">
  <path d="M0 0 C0.99 0.66 1.98 1.32 3 2 C3 2.66 3 3.32 3 4 C3.566 4.246 4.132 4.492 4.715 4.746 C7.392 6.215 9.33 7.978 11.562 10.062 C15.047 13.257 18.576 16.338 22.25 19.312 C26.7 22.918 31.085 26.59 35.438 30.312 C36.325 31.068 36.325 31.068 37.229 31.839 C37.792 32.321 38.354 32.804 38.934 33.301 C39.429 33.725 39.925 34.15 40.435 34.587 C42.36 36.325 44.178 38.155 46 40 C44.867 40.426 43.734 40.852 42.567 41.291 C20.327 49.658 -1.888 58.085 -24.039 66.684 C-34.002 70.549 -43.973 74.384 -53.984 78.121 C-54.88 78.455 -55.775 78.79 -56.697 79.134 C-60.911 80.706 -65.127 82.272 -69.347 83.829 C-77.435 86.824 -85.479 89.924 -93.465 93.184 C-94.275 93.505 -95.085 93.826 -95.919 94.157 C-101.415 96.397 -101.415 96.397 -105 101 C-105.341 105.147 -104.379 109.03 -102.875 112.875 C-100.235 115.867 -97.785 116.801 -94 118 C-90.207 118.252 -90.207 118.252 -87 118 C-86.01 121.465 -86.01 121.465 -85 125 C-80.545 124.505 -80.545 124.505 -76 124 C-76.33 120.7 -76.66 117.4 -77 114 C-70.417 111.395 -63.833 108.791 -57.25 106.188 C-56.259 105.795 -55.268 105.403 -54.246 104.999 C-42.072 100.184 -29.893 95.384 -17.698 90.621 C-9.797 87.522 -1.921 84.364 5.952 81.194 C7.833 80.437 9.714 79.681 11.596 78.924 C12.222 78.673 12.848 78.421 13.493 78.161 C14.767 77.649 16.041 77.138 17.314 76.626 C21.128 75.092 24.94 73.554 28.751 72.012 C31.719 70.813 34.69 69.62 37.66 68.426 C38.759 67.979 39.857 67.533 40.989 67.073 C42.001 66.668 43.013 66.263 44.055 65.845 C44.941 65.487 45.827 65.13 46.74 64.761 C49 64 49 64 52 64 C52 64.66 52 65.32 52 66 C54.917 67.984 56.124 67.988 59.75 67.625 C61.359 67.316 61.359 67.316 63 67 C63 64.36 63 61.72 63 59 C65.191 58.25 65.191 58.25 68 58 C70.465 59.625 70.465 59.625 72.938 62 C73.801 62.829 74.665 63.658 75.555 64.512 C83.386 72.481 85.221 76.589 85.178 87.805 C85.08 96.525 84.792 105.244 84.417 113.957 C84.347 115.652 84.286 117.347 84.233 119.042 C84.154 121.457 84.044 123.868 83.926 126.281 C83.908 127.015 83.89 127.749 83.871 128.504 C83.751 130.564 83.751 130.564 83 134 C80.591 135.909 80.591 135.909 78 137 C77.212 137.385 76.425 137.771 75.613 138.168 C74.854 138.504 74.095 138.841 73.312 139.188 C72.546 139.532 71.779 139.876 70.988 140.23 C69 141 69 141 67 141 C66.34 146.28 65.68 151.56 65 157 C66.32 156.67 67.64 156.34 69 156 C68.34 159.63 67.68 163.26 67 167 C64.69 167.33 62.38 167.66 60 168 C59.902 167.336 59.804 166.672 59.703 165.988 C58.8 160.655 58.027 156.901 54 153 C48.695 150.347 40.678 151.411 35.051 152.648 C23.347 156.647 13.788 163.44 5 172 C4.113 172.825 3.226 173.65 2.312 174.5 C-3.385 180.659 -9.933 187.816 -11.407 196.362 C-12.163 200.499 -12.939 203.168 -16.321 205.819 C-19.469 207.499 -22.649 208.928 -25.938 210.312 C-27.757 211.131 -29.577 211.95 -31.396 212.771 C-33.299 213.623 -35.209 214.459 -37.121 215.292 C-40.985 216.982 -44.81 218.751 -48.629 220.543 C-49.56 220.98 -49.56 220.98 -50.509 221.425 C-51.741 222.003 -52.972 222.58 -54.203 223.159 C-58.1 224.984 -62.008 226.786 -65.922 228.574 C-67.986 229.53 -70.038 230.513 -72.078 231.52 C-73.042 231.987 -74.007 232.455 -75 232.938 C-75.846 233.359 -76.691 233.781 -77.562 234.215 C-82.032 235.655 -85.774 233.805 -89.938 232.062 C-101.55 227.223 -112.172 226.146 -124.188 230.668 C-128.89 232.895 -132.902 235.821 -137 239 C-137.733 239.531 -138.467 240.062 -139.223 240.609 C-145.214 244.955 -150.024 249.898 -154.668 255.645 C-155.108 256.092 -155.547 256.539 -156 257 C-156.66 257 -157.32 257 -158 257 C-158.227 257.536 -158.454 258.072 -158.688 258.625 C-160.098 261.177 -161.86 263.206 -163.758 265.406 C-165.581 267.745 -166.783 270.309 -168 273 C-168.66 273 -169.32 273 -170 273 C-170.251 273.605 -170.503 274.209 -170.762 274.832 C-172.848 278.484 -176.326 280.131 -180 282 C-183 282.813 -183 282.813 -185 283 C-185.456 280.982 -185.911 278.964 -186.367 276.945 C-186.905 274.793 -186.905 274.793 -189 273 C-187.68 272.34 -186.36 271.68 -185 271 C-185.33 266.38 -185.66 261.76 -186 257 C-189.267 257 -190.775 257.651 -193.711 259.004 C-194.626 259.414 -195.541 259.825 -196.484 260.248 C-198.406 261.122 -200.326 262.002 -202.242 262.889 C-203.16 263.298 -204.078 263.707 -205.023 264.129 C-205.858 264.511 -206.692 264.893 -207.552 265.287 C-210.45 266.131 -212.138 265.879 -215 265 C-222.338 258.454 -228.633 245.677 -231.324 236.314 C-234.25 226.29 -238.739 217.35 -243.663 208.193 C-244.873 205.942 -246.072 203.685 -247.27 201.428 C-250.976 194.467 -254.728 187.575 -258.911 180.885 C-260 179 -260 179 -261 176 C-261.66 175.67 -262.32 175.34 -263 175 C-262.766 176.013 -262.766 176.013 -262.527 177.047 C-262.235 178.385 -262.235 178.385 -261.938 179.75 C-261.74 180.632 -261.543 181.513 -261.34 182.422 C-260.997 185.023 -261.297 186.518 -262 189 C-265.573 182.543 -267.475 176.221 -269.188 169.062 C-269.447 168.029 -269.707 166.996 -269.975 165.932 C-273.805 150.301 -273.805 150.301 -271.688 144.25 C-268.709 139.762 -263.824 137.984 -259 136 C-258.129 135.627 -257.257 135.255 -256.359 134.871 C-253.758 133.911 -251.75 133.843 -249 134 C-248.01 135.98 -247.02 137.96 -246 140 C-244.02 140 -242.04 140 -240 140 C-240.093 138.144 -240.093 138.144 -240.188 136.25 C-240.315 133.7 -240.175 132.321 -238.946 130.064 C-236.266 127.221 -233.158 126.151 -229.57 124.828 C-228.831 124.545 -228.092 124.261 -227.331 123.969 C-225.751 123.364 -224.168 122.765 -222.583 122.172 C-220.118 121.247 -217.659 120.306 -215.202 119.361 C-208.168 116.664 -201.121 114.02 -194.016 111.516 C-192.554 110.991 -192.554 110.991 -191.062 110.456 C-189.321 109.837 -187.573 109.237 -185.817 108.661 C-183.259 107.809 -183.259 107.809 -180 106 C-178.079 101.644 -177.616 97.447 -177.254 92.73 C-177.138 91.333 -177.021 89.935 -176.904 88.537 C-176.732 86.365 -176.563 84.194 -176.398 82.021 C-174.792 61.206 -174.792 61.206 -167.625 53.562 C-166.875 52.739 -166.125 51.915 -165.352 51.066 C-162.115 48.222 -159.66 46.985 -155.324 47.023 C-154.454 47.139 -153.584 47.255 -152.688 47.375 C-151.804 47.486 -150.921 47.597 -150.012 47.711 C-149.348 47.806 -148.684 47.902 -148 48 C-147.01 50.475 -147.01 50.475 -146 53 C-143.657 52.744 -141.322 52.407 -139 52 C-137.646 49.291 -137.935 46.991 -138 44 C-130.626 40.899 -123.116 38.313 -115.517 35.827 C-97.387 29.886 -79.345 23.687 -61.305 17.479 C-59.216 16.76 -57.126 16.041 -55.037 15.322 C-52.336 14.393 -49.635 13.463 -46.934 12.533 C-44.323 11.633 -41.71 10.736 -39.097 9.841 C-33.08 7.777 -27.081 5.677 -21.112 3.479 C-20.051 3.093 -18.99 2.707 -17.897 2.31 C-15.936 1.594 -13.979 0.866 -12.029 0.121 C-4.229 -2.706 -4.229 -2.706 0 0 Z M-170 72 C-172.922 77.845 -172.443 86.507 -173 93 C-173.112 94.265 -173.224 95.529 -173.34 96.832 C-173.393 97.919 -173.446 99.005 -173.5 100.125 C-173.552 101.056 -173.603 101.986 -173.656 102.945 C-172.632 107.711 -169.85 111.113 -167 115 C-166.463 115.746 -165.925 116.491 -165.372 117.259 C-163.701 119.56 -162.01 121.844 -160.312 124.125 C-159.07 125.803 -157.828 127.482 -156.586 129.16 C-155.977 129.981 -155.368 130.803 -154.741 131.649 C-148.295 140.352 -141.912 149.101 -135.562 157.875 C-135.023 158.619 -134.484 159.362 -133.928 160.129 C-131.109 164.029 -128.333 167.952 -125.613 171.922 C-125.069 172.711 -124.525 173.5 -123.965 174.313 C-122.924 175.826 -121.892 177.345 -120.869 178.871 C-119.654 180.634 -118.335 182.326 -117 184 C-116.01 184 -115.02 184 -114 184 C-109.285 179.285 -110.751 161.382 -110.625 154.75 C-110.599 154.073 -110.573 153.395 -110.547 152.697 C-110.514 144.262 -115.868 138.668 -121 132.562 C-125.5 127.121 -129.861 121.613 -134.062 115.938 C-138.39 110.1 -142.845 104.392 -147.41 98.739 C-152.482 92.44 -157.388 86.017 -162.285 79.582 C-162.764 78.955 -163.242 78.328 -163.735 77.682 C-164.765 76.312 -165.761 74.915 -166.746 73.512 C-167.16 73.013 -167.574 72.514 -168 72 C-168.66 72 -169.32 72 -170 72 Z M53.691 94.289 C52.888 94.63 52.085 94.971 51.258 95.322 C48.689 96.415 46.126 97.52 43.562 98.625 C41.873 99.346 40.184 100.066 38.494 100.785 C35.201 102.188 31.912 103.601 28.625 105.021 C25.683 106.288 22.732 107.523 19.761 108.722 C19.115 108.986 18.47 109.25 17.804 109.523 C16.095 110.22 14.382 110.906 12.668 111.591 C9.792 113.11 8.579 114.183 7 117 C6.33 119.218 6.33 119.218 6.051 121.59 C5.925 122.457 5.799 123.324 5.67 124.217 C5.552 125.115 5.434 126.012 5.312 126.938 C5.118 128.278 5.118 128.278 4.92 129.646 C4.336 133.808 3.934 137.791 4 142 C8.215 143.405 10.825 141.639 14.684 139.914 C15.448 139.581 16.211 139.249 16.998 138.906 C19.482 137.822 21.96 136.724 24.438 135.625 C26.128 134.883 27.82 134.141 29.511 133.4 C33.617 131.598 37.719 129.784 41.818 127.966 C43.767 127.103 45.718 126.244 47.67 125.387 C50.512 124.139 53.351 122.885 56.188 121.625 C56.98 121.275 57.773 120.925 58.59 120.565 C62.607 118.76 62.607 118.76 66 116 C67.505 111.433 67.397 106.575 67.625 101.812 C67.677 100.885 67.728 99.958 67.781 99.002 C67.825 98.121 67.869 97.24 67.914 96.332 C67.955 95.525 67.996 94.718 68.038 93.886 C68.218 91.987 68.218 91.987 67 91 C62.034 90.348 58.137 92.356 53.691 94.289 Z M55.875 128.312 C54.841 128.742 53.807 129.171 52.742 129.613 C50.233 130.882 48.697 131.789 47 134 C46.273 137.108 46.273 137.108 46 140 C47.661 141.261 47.661 141.261 50 142 C52.971 141.296 52.971 141.296 56 139.875 C57.031 139.439 58.062 139.004 59.125 138.555 C62.04 136.978 63.914 135.564 66 133 C66.808 129.353 66.808 129.353 67 126 C62.738 125.709 59.786 126.651 55.875 128.312 Z M-26.882 128.449 C-27.658 128.767 -28.433 129.085 -29.232 129.412 C-30.488 129.937 -30.488 129.937 -31.77 130.473 C-32.642 130.833 -33.515 131.194 -34.414 131.566 C-36.268 132.334 -38.122 133.105 -39.974 133.879 C-42.76 135.041 -45.551 136.192 -48.342 137.342 C-66.179 143.438 -66.179 143.438 -81 154 C-82.202 159.448 -82.121 164.889 -82.062 170.438 C-82.058 171.264 -82.053 172.091 -82.049 172.943 C-82.037 174.962 -82.019 176.981 -82 179 C-78.273 180.242 -77.433 179.609 -73.898 178.078 C-72.862 177.635 -71.826 177.191 -70.759 176.735 C-69.642 176.245 -68.525 175.755 -67.375 175.25 C-66.227 174.754 -65.08 174.259 -63.897 173.748 C-61.483 172.703 -59.071 171.653 -56.661 170.599 C-53.089 169.039 -49.51 167.496 -45.93 165.957 C-43.703 164.993 -41.476 164.028 -39.25 163.062 C-38.21 162.615 -37.17 162.167 -36.099 161.706 C-26.285 157.858 -26.285 157.858 -20 150 C-19.344 146.675 -19.076 143.309 -18.75 139.938 C-18.647 139.027 -18.544 138.116 -18.438 137.178 C-18.35 136.303 -18.262 135.428 -18.172 134.527 C-18.09 133.731 -18.009 132.934 -17.925 132.113 C-17.826 129.693 -17.826 129.693 -20 127 C-22.933 127 -24.24 127.357 -26.882 128.449 Z M-36.938 168.688 C-37.736 169.027 -38.535 169.367 -39.357 169.717 C-44.094 171.816 -47.689 173.867 -51 178 C-51.419 181.211 -51.419 181.211 -51 184 C-45.12 183.479 -40.547 181.734 -35.25 179.188 C-34.496 178.844 -33.742 178.5 -32.965 178.146 C-27.574 175.63 -27.574 175.63 -24 171 C-23.749 167.833 -23.749 167.833 -24 165 C-29.058 165 -32.383 166.65 -36.938 168.688 Z M-206 190 C-208.517 192.91 -208.951 194.616 -209.438 198.438 C-208.81 203.546 -206.694 206.506 -202.875 209.875 C-201.079 211.171 -201.079 211.171 -199 211 C-198.951 211.748 -198.902 212.495 -198.852 213.266 C-198.777 214.25 -198.702 215.235 -198.625 216.25 C-198.555 217.225 -198.486 218.199 -198.414 219.203 C-198.01 221.933 -197.506 223.702 -196 226 C-193.599 227.08 -193.599 227.08 -191 227 C-189.152 226.036 -189.152 226.036 -188 224 C-188.05 221.451 -188.221 219.135 -188.562 216.625 C-189.451 209.638 -189.451 209.638 -187.09 206.301 C-186.055 205.162 -186.055 205.162 -185 204 C-183.479 199.444 -183.546 195.98 -185.562 191.625 C-188.233 188.749 -190.337 187.374 -194 186 C-198.929 186 -201.913 187.345 -206 190 Z " fill="#0071CE" transform="translate(345,120)" />
  <path d="M0 0 C2.97 3.564 3.095 5.245 2.906 9.719 C2.168 13.862 1.517 16.257 -1.977 18.809 C-7.841 21.843 -13.622 24.511 -19.828 26.777 C-28.814 30.093 -37.72 33.598 -46.625 37.125 C-48.307 37.79 -49.989 38.455 -51.671 39.119 C-61.562 43.031 -71.441 46.974 -81.312 50.938 C-95.093 56.469 -108.919 61.88 -122.761 67.256 C-124.485 67.926 -126.209 68.596 -127.934 69.266 C-128.767 69.589 -129.6 69.913 -130.458 70.247 C-135.289 72.127 -140.105 74.039 -144.91 75.984 C-146.491 76.62 -146.491 76.62 -148.104 77.269 C-149.945 78.012 -151.783 78.763 -153.617 79.526 C-159.54 81.906 -165.584 83.781 -171.988 82.504 C-176.54 80.155 -178.894 77.786 -180.875 73.02 C-181.775 70.11 -182.035 68.012 -181.5 65 C-178.705 60.787 -176.183 59.041 -171.527 57.172 C-170.923 56.926 -170.318 56.68 -169.695 56.426 C-167.637 55.598 -165.57 54.797 -163.5 54 C-162.384 53.567 -162.384 53.567 -161.244 53.126 C-156.142 51.156 -151.024 49.228 -145.901 47.312 C-140.93 45.452 -135.963 43.581 -130.996 41.711 C-129.453 41.13 -129.453 41.13 -127.878 40.538 C-116.778 36.358 -105.7 32.121 -94.625 27.875 C-92.66 27.122 -90.695 26.37 -88.729 25.617 C-79.349 22.022 -69.974 18.413 -60.609 14.777 C-31.492 3.479 -31.492 3.479 -20.062 -0.5 C-19.277 -0.785 -18.491 -1.07 -17.681 -1.364 C-11.566 -3.414 -5.594 -3.801 0 0 Z " fill="#A4A9AD" transform="translate(420.5,156)" />
  <path d="M0 0 C2.25 2.25 2.25 2.25 3.25 4.062 C3.25 7.688 2.794 9.924 1.25 13.25 C-1.566 15.101 -4.6 16.094 -7.75 17.25 C-9.031 17.843 -10.311 18.44 -11.59 19.039 C-17.57 21.717 -23.788 23.681 -30.01 25.708 C-45.824 30.862 -61.546 36.271 -77.25 41.75 C-93.731 47.499 -110.238 53.15 -126.826 58.584 C-127.867 58.927 -127.867 58.927 -128.929 59.276 C-130.761 59.879 -132.595 60.479 -134.428 61.078 C-137.954 62.322 -141.325 63.754 -144.75 65.25 C-157.256 69.713 -157.256 69.713 -163.438 67.125 C-167.391 63.919 -168.553 60.656 -169.25 55.688 C-168.602 51.234 -167.141 50.133 -163.75 47.25 C-160.781 45.886 -160.781 45.886 -157.388 44.813 C-156.435 44.504 -156.435 44.504 -155.463 44.188 C-154.06 43.734 -152.656 43.288 -151.25 42.847 C-148.08 41.853 -144.921 40.825 -141.761 39.799 C-139.995 39.226 -138.228 38.655 -136.461 38.085 C-125.608 34.579 -114.819 30.886 -104.022 27.211 C-96.703 24.725 -89.378 22.26 -82.053 19.793 C-75.757 17.672 -69.465 15.543 -63.177 13.399 C-56.982 11.286 -50.78 9.194 -44.574 7.113 C-42.24 6.328 -39.909 5.535 -37.581 4.735 C-8.845 -5.124 -8.845 -5.124 0 0 Z " fill="#A4A9AD" transform="translate(351.75,99.75)" />
  <path d="M0 0 C3.856 1.285 4.641 2.905 7 6.188 C7.807 7.294 8.616 8.4 9.426 9.504 C9.848 10.082 10.27 10.659 10.706 11.254 C12.808 14.09 14.997 16.857 17.188 19.625 C26.393 31.288 35.505 43.024 44.539 54.82 C46.345 57.166 48.178 59.489 50.023 61.805 C50.53 62.442 51.036 63.079 51.558 63.735 C52.538 64.967 53.522 66.195 54.51 67.421 C61.986 76.816 59.266 91.046 58.188 102.438 C58.117 103.26 58.047 104.082 57.975 104.93 C57.73 107.246 57.73 107.246 57 111 C56.01 111.66 55.02 112.32 54 113 C47.514 104.527 41.223 95.969 35.25 87.125 C31.352 81.358 27.374 75.788 22.938 70.418 C19.713 66.394 16.78 62.162 13.805 57.953 C9.988 52.554 6.092 47.212 2.202 41.865 C1.67 41.131 1.138 40.397 0.59 39.641 C0.114 38.986 -0.362 38.332 -0.852 37.657 C-5.685 30.682 -2.903 18.877 -2.062 10.812 C-1.976 9.975 -1.889 9.137 -1.8 8.274 C-1.132 2.263 -1.132 2.263 0 0 Z " fill="#333E48" transform="translate(175,192)" />
  <path d="M0 0 C3.108 2.466 4.932 5.238 5.82 9.059 C5.961 11.75 5.912 14.359 5.82 17.059 C2.848 15.934 0.486 14.836 -2.18 13.059 C-1.685 14.049 -1.685 14.049 -1.18 15.059 C0.065 24.397 -3.928 32.37 -9.43 39.731 C-18.707 51.131 -30.106 60.367 -44.18 65.059 C-46.3 65.229 -48.428 65.325 -50.555 65.371 C-52.237 65.427 -52.237 65.427 -53.953 65.484 C-59.254 64.785 -62.285 61.325 -65.555 57.309 C-67.829 54.137 -68.175 53.206 -68.305 49.121 C-66.309 40.294 -61.544 33.203 -56.18 26.059 C-55.437 25.048 -54.695 24.037 -53.93 22.996 C-42.84 10.166 -18.211 -7.865 0 0 Z M-7.18 6.059 C-5.871 9.181 -5.871 9.181 -3.18 11.059 C-4.489 7.937 -4.489 7.937 -7.18 6.059 Z M-42.902 37.105 C-45.435 40.977 -45.831 44.496 -45.18 49.059 C-43.757 51.313 -43.757 51.313 -41.18 52.059 C-33.99 52.059 -29.106 48.721 -23.965 44.043 C-19.328 39.247 -16.385 34.881 -16.18 28.059 C-16.51 27.069 -16.84 26.079 -17.18 25.059 C-27.607 19.845 -37.25 29.285 -42.902 37.105 Z " fill="#333E48" transform="translate(399.1796875,271.94140625)" />
  <path d="M0 0 C4.128 5.356 5.437 9.254 5 16 C-0.843 32.64 -14.074 45.094 -29.621 52.887 C-39.641 57.419 -50.011 60.665 -61 58 C-65.407 55.715 -68.19 53.069 -71 49 C-71.681 48.092 -72.361 47.185 -73.062 46.25 C-74.181 42.374 -73.7 41.646 -71.875 38.188 C-69.489 34.163 -69.489 34.163 -66 33 C-64.833 31.083 -64.833 31.083 -64 29 C-63.67 28.34 -63.34 27.68 -63 27 C-62.34 27 -61.68 27 -61 27 C-60.58 26.111 -60.58 26.111 -60.152 25.203 C-56.081 17.42 -49.043 12.895 -42 8 C-41.171 7.366 -40.342 6.732 -39.488 6.078 C-28.518 -2.189 -12.696 -7.719 0 0 Z M-45 28 C-47.525 32.175 -47.839 36.23 -47 41 C-44.75 43.55 -43.172 43.918 -39.828 44.152 C-30.86 43.824 -23.106 39.586 -16.938 33.188 C-13.755 29.185 -12.029 25.158 -12 20 C-12.992 16.98 -12.992 16.98 -15 15 C-26.686 11.105 -37.895 19 -45 28 Z " fill="#333E48" transform="translate(250,350)" />
  <path d="M0 0 C0.99 0 1.98 0 3 0 C3.392 1.093 3.784 2.186 4.188 3.312 C5.817 7.677 7.738 11.879 9.719 16.094 C10.711 18.345 11.567 20.554 12.391 22.867 C13.937 27.052 15.995 30.786 18.25 34.625 C21.783 40.769 25.05 46.99 28.18 53.352 C33.144 63.385 38.48 73.263 44 83 C44.628 84.123 45.256 85.246 45.902 86.402 C47.897 89.958 49.942 93.481 52 97 C52.455 97.81 52.91 98.619 53.379 99.453 C54.62 101.608 54.62 101.608 57 104 C62.706 105.343 66.591 102.894 71.488 100.246 C74.934 98.537 78.242 97.766 82 97 C84.413 100.62 84.36 102.564 84.438 106.875 C84.497 108.696 84.497 108.696 84.559 110.555 C83.839 114.994 82.493 116.233 79 119 C72.525 123.043 65.758 126.796 57.965 126.734 C51.469 124.306 48.528 117.032 45.5 111.312 C44.985 110.355 44.47 109.397 43.94 108.411 C39.368 99.841 35.025 91.157 30.71 82.455 C27.608 76.2 24.459 69.98 21.188 63.812 C20.616 62.728 20.616 62.728 20.032 61.621 C18.058 57.879 16.077 54.142 14.078 50.414 C12.273 47.048 10.486 43.673 8.707 40.294 C7.999 38.957 7.286 37.623 6.567 36.292 C-5.44 14.048 -5.44 14.048 -3.212 4.692 C-2 2 -2 2 0 0 Z " fill="#A4A9AD" transform="translate(76,297)" />
  <path d="M0 0 C1.275 4.633 0.855 8.74 0.312 13.438 C0.246 14.175 0.18 14.913 0.111 15.674 C0.029 16.399 -0.052 17.124 -0.137 17.871 C-0.206 18.52 -0.275 19.169 -0.346 19.838 C-1.494 23.635 -3.281 26.836 -6.626 29.101 C-8.59 30.12 -10.574 31.013 -12.609 31.879 C-13.355 32.212 -14.1 32.546 -14.869 32.889 C-17.239 33.943 -19.618 34.972 -22 36 C-23.53 36.674 -25.059 37.35 -26.588 38.027 C-30.369 39.694 -34.162 41.332 -37.961 42.957 C-40.293 43.956 -42.621 44.963 -44.949 45.971 C-46.45 46.615 -47.952 47.259 -49.453 47.902 C-50.483 48.349 -50.483 48.349 -51.533 48.805 C-54.984 50.272 -58.259 51.564 -62 52 C-63.894 50.106 -63.133 47.372 -63.137 44.855 C-63.133 44.037 -63.129 43.218 -63.125 42.375 C-63.129 41.58 -63.133 40.784 -63.137 39.965 C-63.116 27.236 -63.116 27.236 -59.637 23.383 C-55.12 20.097 -49.928 18.044 -44.812 15.875 C-43.732 15.41 -42.652 14.945 -41.538 14.466 C-38.031 12.964 -34.516 11.481 -31 10 C-29.752 9.469 -28.504 8.937 -27.257 8.405 C-23.574 6.836 -19.882 5.291 -16.188 3.75 C-14.454 3.015 -14.454 3.015 -12.685 2.265 C-11.607 1.822 -10.529 1.379 -9.418 0.922 C-8.467 0.526 -7.516 0.13 -6.536 -0.278 C-3.85 -1.043 -2.581 -0.963 0 0 Z " fill="#333E48" transform="translate(326,248)" />
  <path d="M0 0 C1 1 1 1 1.053 2.87 C0.941 5.497 0.821 8.124 0.688 10.75 C0.652 11.657 0.617 12.565 0.58 13.5 C0.515 14.823 0.515 14.823 0.449 16.172 C0.411 16.977 0.374 17.783 0.335 18.612 C-0.065 21.467 -0.589 23.47 -2 26 C-4.557 27.71 -4.557 27.71 -7.879 29.262 C-8.49 29.551 -9.101 29.841 -9.73 30.139 C-11.811 31.114 -13.903 32.06 -16 33 C-17.14 33.516 -17.14 33.516 -18.304 34.043 C-23.297 36.295 -28.31 38.5 -33.334 40.681 C-35.961 41.823 -38.583 42.972 -41.205 44.123 C-42.896 44.86 -44.586 45.596 -46.277 46.332 C-47.437 46.841 -47.437 46.841 -48.62 47.361 C-53.026 49.265 -57.354 50.788 -62 52 C-62.33 51.67 -62.66 51.34 -63 51 C-62.91 46.983 -62.426 42.993 -62 39 C-61.888 37.841 -61.776 36.682 -61.66 35.488 C-61.525 34.358 -61.389 33.227 -61.25 32.062 C-61.131 31.022 -61.013 29.982 -60.891 28.91 C-59.592 24.668 -57.057 22.145 -53.164 19.978 C-51.005 18.983 -48.827 18.074 -46.621 17.188 C-45.409 16.683 -45.409 16.683 -44.173 16.169 C-41.599 15.101 -39.019 14.05 -36.438 13 C-34.731 12.295 -33.024 11.59 -31.318 10.883 C-28.034 9.523 -24.745 8.174 -21.453 6.832 C-18.716 5.714 -15.993 4.573 -13.286 3.387 C-12.234 2.929 -11.182 2.471 -10.098 2 C-9.217 1.608 -8.337 1.216 -7.43 0.812 C-4.792 -0.07 -2.764 -0.231 0 0 Z " fill="#333E48" transform="translate(412,211)" />
  <path d="M0 0 C3.78 1.26 3.967 2.273 5.758 5.738 C6.28 6.737 6.803 7.735 7.341 8.764 C7.888 9.832 8.436 10.9 9 12 C9.55 13.048 10.1 14.097 10.667 15.177 C14.265 22.034 17.807 28.92 21.353 35.805 C22.768 38.55 24.192 41.291 25.617 44.031 C26.329 45.416 27.04 46.802 27.75 48.188 C28.343 49.336 28.936 50.485 29.547 51.668 C32.323 58.035 33.255 64.101 33.625 71 C33.683 72.019 33.683 72.019 33.742 73.059 C33.835 74.705 33.918 76.353 34 78 C32.187 75.28 30.641 72.564 29.094 69.688 C28.519 68.62 27.945 67.553 27.353 66.454 C26.741 65.314 26.13 64.174 25.5 63 C24.869 61.825 24.237 60.65 23.606 59.476 C18.671 50.284 13.745 41.086 8.949 31.82 C8.12 30.23 7.261 28.654 6.398 27.082 C4.535 22.975 3.429 18.797 2.312 14.438 C2.088 13.6 1.863 12.763 1.631 11.9 C0.579 7.863 -0.319 4.211 0 0 Z " fill="#000000" transform="translate(82,295)" />
  <path d="M0 0 C2.125 1.875 2.125 1.875 3.125 4.625 C3.125 10.884 0.164 15.653 -3.953 20.168 C-9.852 25.407 -16.778 28.737 -24.703 29.027 C-28.047 28.793 -29.625 28.425 -31.875 25.875 C-32.841 21.428 -32.361 17.911 -30.438 13.812 C-22.82 5.08 -12.43 -4.864 0 0 Z " fill="#A4A9AD" transform="translate(234.875,365.125)" />
  <path d="M0 0 C0.66 0.33 1.32 0.66 2 1 C3.304 5.214 3.084 8.158 1.137 12.141 C-3.586 19.865 -9.935 25.649 -18.75 28 C-22 28 -22 28 -24.438 27.062 C-26.376 24.503 -26.683 22.436 -26.508 19.25 C-24.908 12.16 -19.666 7.234 -13.93 3.191 C-8.899 0.086 -5.894 -0.285 0 0 Z " fill="#A4A9AD" transform="translate(380,296)" />
  <path d="M0 0 C3.935 2.195 6.371 3.777 8 8 C8.334 12.715 7.605 16.772 4.625 20.5 C1.008 23.945 -1.978 24.406 -6.934 24.352 C-11.273 23.613 -13.835 20.589 -16.375 17.125 C-17.735 12.5 -17.524 9.09 -15.438 4.75 C-11.069 -0.179 -6.348 -2.026 0 0 Z " fill="#A4A9AD" transform="translate(153,307)" />
  <path d="M0 0 C1.5 1.375 1.5 1.375 3 3 C3 3.66 3 4.32 3 5 C9.786 6.664 13.512 5.282 19.68 2.129 C22 1 22 1 24 1 C24.341 2.54 24.672 4.082 25 5.625 C25.186 6.484 25.371 7.342 25.562 8.227 C26.03 11.193 26.07 14.002 26 17 C24.301 18.016 22.59 19.012 20.875 20 C19.924 20.557 18.972 21.114 17.992 21.688 C14.693 23.135 12.563 23.372 9 23 C2.92 18.483 1.106 11.154 0 4 C0 2.68 0 1.36 0 0 Z " fill="#FFB819" transform="translate(125,379)" />
  <path d="M0 0 C3.108 2.466 4.932 5.238 5.82 9.059 C5.961 11.75 5.912 14.359 5.82 17.059 C1.647 16.047 0.23 14.306 -2.117 10.934 C-4.448 8.174 -5.711 7.176 -9.25 6.289 C-24.059 5.577 -36.367 14.475 -47.168 23.77 C-53.817 30.05 -59.022 37.512 -62.062 46.148 C-63.586 48.752 -65.548 49.682 -68.18 51.059 C-66.552 41.496 -63.011 34.751 -57.18 27.059 C-56.695 26.401 -56.21 25.744 -55.711 25.066 C-44.82 11.326 -18.904 -8.165 0 0 Z " fill="#000000" transform="translate(399.1796875,271.94140625)" />
  <path d="M0 0 C3.013 1.77 5.412 3.825 7 7 C7.622 11.532 7.221 14.336 4.562 18 C2.618 20.051 1.581 20.907 -1.227 21.355 C-6.196 20.998 -9.468 19.642 -13 16 C-14.753 12.494 -14.678 8.816 -14 5 C-10.122 0.25 -6.099 -1.552 0 0 Z " fill="#A4A9AD" transform="translate(98,220)" />
  <path d="M0 0 C2.014 1.656 2.874 2.497 3.512 5.043 C3.674 7.029 3.837 9.014 4 11 C3.131 10.662 2.262 10.325 1.367 9.977 C0.215 9.531 -0.938 9.085 -2.125 8.625 C-3.262 8.184 -4.399 7.743 -5.57 7.289 C-6.702 6.864 -7.834 6.438 -9 6 C-9.995 5.624 -10.99 5.247 -12.016 4.859 C-21.713 2.067 -32.013 3.744 -41 8 C-44.522 10.114 -47.757 12.484 -51 15 C-52.1 15.797 -52.1 15.797 -53.223 16.609 C-59.214 20.955 -64.024 25.898 -68.668 31.645 C-69.108 32.092 -69.547 32.539 -70 33 C-70.66 33 -71.32 33 -72 33 C-72.227 33.536 -72.454 34.072 -72.688 34.625 C-74.098 37.177 -75.86 39.206 -77.758 41.406 C-79.581 43.745 -80.783 46.309 -82 49 C-82.66 49 -83.32 49 -84 49 C-84.66 50.32 -85.32 51.64 -86 53 C-86.66 53 -87.32 53 -88 53 C-87.521 40.539 -80.06 30.958 -72 22 C-71.435 21.364 -70.871 20.729 -70.289 20.074 C-54.616 3.445 -21.959 -16.481 0 0 Z " fill="#000000" transform="translate(259,344)" />
  <path d="M0 0 C2.552 2.14 3.861 3.475 4.723 6.734 C5.217 12.557 3.431 17.748 1 23 C-2.641 26.902 -7.82 27.797 -13 28 C-15 26 -15 26 -15.047 23.758 C-14.949 22.889 -14.851 22.02 -14.75 21.125 C-14.662 20.261 -14.575 19.398 -14.484 18.508 C-13.98 15.898 -13.516 14.185 -12 12 C-9.688 10.762 -9.688 10.762 -7 9.688 C-3.35 8.089 -3.35 8.089 -0.898 5.125 C-0.275 3.003 -0.275 3.003 0 0 Z " fill="#A4A9AD" transform="translate(427,263)" />
  <path d="M0 0 C0.312 2.688 0.312 2.688 0 6 C-3.893 10.859 -8.481 12.938 -14.062 15.312 C-15.266 15.851 -15.266 15.851 -16.494 16.4 C-20.374 18.091 -22.667 19 -27 19 C-27.312 16.312 -27.312 16.312 -27 13 C-23.107 8.141 -18.519 6.062 -12.938 3.688 C-12.135 3.328 -11.333 2.969 -10.506 2.6 C-6.626 0.909 -4.333 0 0 0 Z " fill="#00B3E3" transform="translate(321,285)" />
  <path d="M0 0 C-0.49 6.374 -0.49 6.374 -2.672 9.055 C-5.323 11.27 -7.82 12.531 -11 13.875 C-12.031 14.326 -13.062 14.777 -14.125 15.242 C-17 16 -17 16 -19.375 15.133 C-19.911 14.759 -20.447 14.385 -21 14 C-19.521 7.47 -19.521 7.47 -17.23 5.406 C-14.895 3.934 -12.623 2.842 -10.062 1.812 C-9.228 1.468 -8.394 1.124 -7.535 0.77 C-4.886 -0.035 -2.751 -0.143 0 0 Z " fill="#00B3E3" transform="translate(412,246)" />
  <path d="M0 0 C0.699 2.581 1.385 5.164 2.062 7.75 C2.262 8.48 2.461 9.209 2.666 9.961 C3.637 13.71 4.154 16.303 3 20 C0.125 20.625 0.125 20.625 -3 21 C-5.618 18.382 -5.819 16.284 -6.625 12.688 C-6.885 11.557 -7.146 10.426 -7.414 9.262 C-7.927 6.408 -8.119 3.887 -8 1 C-5.237 0.403 -2.84 0 0 0 Z " fill="#333E48" transform="translate(102,240)" />
  <path d="M0 0 C0.33 4.62 0.66 9.24 1 14 C-4.176 17.223 -4.176 17.223 -6 18 C-6.99 17.67 -7.98 17.34 -9 17 C-9.34 15.439 -9.671 13.876 -10 12.312 C-10.186 11.442 -10.371 10.572 -10.562 9.676 C-10.99 7.063 -11.076 4.642 -11 2 C-4.5 -1.125 -4.5 -1.125 0 0 Z " fill="#FFFFFF" transform="translate(160,377)" />
  <path d="M0 0 C2.552 9.252 2.552 9.252 2 14 C0.812 15.938 0.812 15.938 -1 17 C-3.688 16.688 -3.688 16.688 -6 16 C-7.905 10.897 -9.426 6.537 -9 1 C-5.942 0.456 -3.112 0 0 0 Z " fill="#333E48" transform="translate(155,330)" />
  <path d="M0 0 C-0.257 1.898 -0.531 3.793 -0.812 5.688 C-0.963 6.743 -1.114 7.799 -1.27 8.887 C-2.037 12.159 -3.001 14.309 -5 17 C-8.188 18.312 -8.188 18.312 -11 19 C-10.107 7.324 -10.107 7.324 -8 2 C-5.119 -0.209 -3.768 0 0 0 Z " fill="#FFFFFF" transform="translate(420,259)" />
  <path d="M0 0 C0.229 5.621 0.308 10.755 -2 16 C-4.753 17.778 -6.69 19 -10 19 C-9.716 17.103 -9.422 15.207 -9.125 13.312 C-8.963 12.257 -8.8 11.201 -8.633 10.113 C-8.034 7.168 -7.339 4.688 -6 2 C-2.095 0 -2.095 0 0 0 Z " fill="#FFB819" transform="translate(427,255)" />
  <path d="M0 0 C0.33 2.97 0.66 5.94 1 9 C-2.782 10.837 -4.946 11.158 -9 10 C-9.33 7.69 -9.66 5.38 -10 3 C-8.71 2.496 -7.418 1.997 -6.125 1.5 C-5.046 1.082 -5.046 1.082 -3.945 0.656 C-2 0 -2 0 0 0 Z " fill="#333E48" transform="translate(268,235)" />
  <path d="M0 0 C0.33 2.31 0.66 4.62 1 7 C-2.258 9.172 -3.224 9.46 -7 9 C-9.312 7.688 -9.312 7.688 -11 6 C-11 5.01 -11 4.02 -11 3 C-4.5 0 -4.5 0 0 0 Z " fill="#333E48" transform="translate(408,180)" />
  <path d="M0 0 C0.33 1.98 0.66 3.96 1 6 C-1.253 8.002 -2.606 8.944 -5.625 9.375 C-6.409 9.251 -7.192 9.127 -8 9 C-10 6 -10 6 -9.875 3.938 C-9 2 -9 2 -7.25 0.75 C-4.713 -0.096 -2.658 -0.148 0 0 Z " fill="#333E48" transform="translate(207,165)" />
  <path d="M0 0 C0.188 3.375 0.188 3.375 0 7 C-3 9 -3 9 -5.562 8.688 C-8 8 -8 8 -10 7 C-10 5.68 -10 4.36 -10 3 C-8.521 2.498 -7.042 1.999 -5.562 1.5 C-4.739 1.222 -3.915 0.943 -3.066 0.656 C-1 0 -1 0 0 0 Z " fill="#333E48" transform="translate(339,119)" />
  <path d="M0 0 C7.131 6.637 11.046 15.358 12 25 C12.023 26.667 12.029 28.334 12 30 C4.648 21.559 0 11.363 0 0 Z " fill="#FFFFFF" transform="translate(115,362)" />
  <path d="M0 0 C-0.33 1.32 -0.66 2.64 -1 4 C-2.98 4 -4.96 4 -7 4 C-7.33 3.01 -7.66 2.02 -8 1 C-5.237 0.403 -2.84 0 0 0 Z " fill="#000000" transform="translate(102,240)" />
  <path d="M0 0 C2.062 1.5 2.062 1.5 4 4 C4.059 6.824 3.56 9.202 3 12 C0.609 8.175 0.44 4.403 0 0 Z " fill="#A4A9AD" transform="translate(115,362)" />
  <path d="M0 0 C3 1 3 1 3 1 Z " fill="#A4A9AD" transform="translate(151,395)" />
  <path d="M0 0 C2 1 2 1 2 1 Z " fill="#0071CE" transform="translate(154,394)" />
  <path d="M0 0 C2 1 2 1 2 1 Z " fill="#FFB819" transform="translate(416,274)" />
</svg>