<?xml version='1.0' encoding='utf-8'?>
<svg xmlns="http://www.w3.org/2000/svg" width="512" height="512" viewBox="0 0 512 512" style="background-color:transparent">
  <path d="M0 0 C5.012 0.127 10.01 0.192 15.024 0.108 C17.956 0.215 20.316 0.926 22.952 2.178 C23.952 5.178 23.952 5.178 23.952 11.178 C14.382 11.178 4.812 11.178 -5.048 11.178 C-5.993 18.238 -5.993 18.238 -6.933 25.298 C-7.112 26.623 -7.112 26.623 -7.294 27.975 C-7.475 29.326 -7.475 29.326 -7.659 30.704 C-8.048 33.178 -8.048 33.178 -8.558 35.098 C-9.838 40.522 -9.865 46.253 -10.236 51.803 C-10.283 52.512 -10.331 53.22 -10.38 53.951 C-11.445 70.634 -11.475 87.94 -7.048 104.178 C-4.643 105.381 -2.945 105.381 -0.259 105.494 C0.682 105.536 1.623 105.578 2.592 105.621 C3.577 105.661 4.562 105.7 5.577 105.74 C7.065 105.805 7.065 105.805 8.584 105.871 C11.04 105.978 13.496 106.08 15.952 106.178 C15.545 116.379 14.661 126.477 13.452 136.615 C13.321 137.723 13.19 138.831 13.056 139.973 C12.08 147.922 12.08 147.922 10.952 150.178 C2.372 150.508 -6.208 150.838 -15.048 151.178 C-15.037 154.157 -15.025 157.136 -15.013 160.205 C-15.005 163.151 -14.999 166.097 -14.993 169.043 C-14.988 171.061 -14.982 173.079 -14.973 175.097 C-14.847 204.831 -14.847 204.831 -17.048 219.178 C-17.378 219.178 -17.708 219.178 -18.048 219.178 C-18.048 217.528 -18.048 215.878 -18.048 214.178 C-47.748 214.178 -77.448 214.178 -108.048 214.178 C-110.347 188.894 -110.347 188.894 -110.244 180.623 C-110.241 179.7 -110.238 178.777 -110.235 177.825 C-110.224 174.984 -110.199 172.144 -110.173 169.303 C-110.163 167.332 -110.154 165.36 -110.146 163.389 C-110.124 158.652 -110.09 153.915 -110.048 149.178 C-110.861 149.183 -111.674 149.188 -112.511 149.194 C-116.169 149.215 -119.828 149.228 -123.486 149.24 C-124.765 149.249 -126.045 149.257 -127.363 149.266 C-128.578 149.269 -129.793 149.272 -131.044 149.276 C-132.733 149.283 -132.733 149.283 -134.456 149.291 C-137.048 149.178 -137.048 149.178 -138.048 148.178 C-138.287 146.832 -138.466 145.475 -138.621 144.117 C-138.721 143.256 -138.821 142.396 -138.924 141.509 C-139.028 140.573 -139.132 139.638 -139.24 138.674 C-139.349 137.721 -139.459 136.768 -139.572 135.786 C-139.922 132.73 -140.267 129.673 -140.611 126.615 C-140.847 124.548 -141.083 122.481 -141.32 120.414 C-141.901 115.336 -142.475 110.257 -143.048 105.178 C-135.458 104.848 -127.868 104.518 -120.048 104.178 C-117.142 94.967 -117.142 94.967 -120.048 90.178 C-122.433 78.4 -122.331 66.409 -122.254 54.447 C-122.236 51.457 -122.234 48.467 -122.234 45.477 C-122.229 43.561 -122.223 41.645 -122.216 39.729 C-122.215 38.842 -122.214 37.956 -122.213 37.043 C-122.181 32.943 -122.003 29.185 -121.048 25.178 C-120.83 22.57 -120.638 19.977 -120.486 17.365 C-120.269 13.808 -120.269 13.808 -120.048 10.178 C-129.948 10.178 -139.848 10.178 -150.048 10.178 C-150.048 9.848 -150.048 9.518 -150.048 9.178 C-148.068 8.848 -146.088 8.518 -144.048 8.178 C-144.069 7.374 -144.09 6.569 -144.111 5.74 C-144.048 3.178 -144.048 3.178 -143.048 2.178 C-141.631 2.031 -140.207 1.95 -138.784 1.897 C-137.866 1.86 -136.949 1.823 -136.003 1.785 C-134.992 1.75 -133.981 1.714 -132.939 1.678 C-131.887 1.638 -130.835 1.597 -129.751 1.556 C-126.267 1.424 -122.783 1.3 -119.298 1.178 C-118.101 1.135 -116.903 1.092 -115.67 1.048 C-108.281 0.784 -100.892 0.533 -93.503 0.291 C-90.329 0.187 -87.154 0.08 -83.98 -0.027 C-55.962 -0.952 -28.023 -0.724 0 0 Z " fill="#000000" transform="translate(319.04840087890625,173.82205200195313)" />
  <path d="M0 0 C1.56 -0.001 3.12 -0.003 4.679 -0.005 C8.894 -0.01 13.109 -0.008 17.324 -0.005 C21.75 -0.002 26.176 -0.005 30.602 -0.006 C38.034 -0.008 45.467 -0.006 52.899 -0.001 C61.471 0.004 70.042 0.003 78.613 -0.003 C85.992 -0.007 93.372 -0.008 100.751 -0.005 C105.149 -0.004 109.548 -0.004 113.946 -0.007 C118.085 -0.01 122.223 -0.008 126.362 -0.002 C127.873 -0.001 129.384 -0.001 130.895 -0.003 C156.431 -0.037 156.431 -0.037 163.058 5.448 C165.783 8.704 165.72 13.101 166.278 17.192 C166.424 18.096 166.57 19 166.721 19.932 C167.621 26.257 167.528 32.02 165.465 38.129 C164.475 39.119 164.475 39.119 163.465 40.129 C161.841 39.943 160.218 39.739 158.607 39.457 C154.382 38.81 150.102 38.745 145.835 38.575 C144.79 38.533 143.744 38.491 142.667 38.448 C129.628 37.968 116.589 37.985 103.543 37.997 C100.82 37.996 98.096 37.995 95.373 37.994 C89.702 37.992 84.031 37.994 78.36 37.999 C71.889 38.004 65.418 38.003 58.947 37.997 C53.305 37.993 47.664 37.992 42.022 37.995 C38.69 37.996 35.359 37.996 32.027 37.993 C18.281 37.983 4.551 38.112 -9.188 38.575 C-10.983 38.633 -10.983 38.633 -12.815 38.693 C-14.467 38.754 -14.467 38.754 -16.152 38.818 C-17.122 38.853 -18.092 38.889 -19.091 38.926 C-21.672 39.044 -21.672 39.044 -24.535 40.129 C-25.929 40.196 -27.326 40.215 -28.722 40.192 C-29.98 40.171 -31.238 40.151 -32.535 40.129 C-37.239 32.152 -36.77 25.118 -35.347 16.379 C-35.234 15.646 -35.121 14.913 -35.005 14.157 C-34.16 9.505 -32.94 6.6 -29.535 3.129 C-21.209 -1.628 -9.309 -0.014 0 0 Z " fill="#A4A9AD" transform="translate(190.53466796875,134.87060546875)" />
  <path d="M0 0 C1.165 -0.003 2.33 -0.006 3.53 -0.009 C4.799 -0.007 6.068 -0.004 7.376 -0.002 C8.733 -0.004 10.09 -0.006 11.448 -0.008 C15.128 -0.012 18.807 -0.011 22.487 -0.007 C26.345 -0.005 30.202 -0.007 34.059 -0.009 C40.54 -0.011 47.02 -0.008 53.501 -0.003 C60.98 0.002 68.459 0 75.938 -0.005 C82.369 -0.01 88.8 -0.01 95.231 -0.008 C99.067 -0.006 102.904 -0.006 106.74 -0.009 C110.351 -0.012 113.962 -0.01 117.572 -0.004 C119.52 -0.002 121.467 -0.005 123.415 -0.009 C139.545 0.03 139.545 0.03 143.542 2.718 C145.671 5.857 146.506 9.017 147.316 12.666 C147.488 13.388 147.66 14.11 147.837 14.854 C148.38 17.15 148.903 19.451 149.426 21.752 C149.792 23.307 150.159 24.862 150.527 26.416 C153.176 37.691 153.176 37.691 153.176 40.127 C146.741 40.622 146.741 40.622 140.176 41.127 C140.506 43.107 140.836 45.087 141.176 47.127 C133.071 48.175 125.076 48.23 116.913 48.149 C115.503 48.139 114.093 48.129 112.682 48.12 C108.883 48.093 105.085 48.061 101.286 48.026 C97.305 47.992 93.324 47.963 89.342 47.934 C81.817 47.878 74.291 47.817 66.766 47.754 C58.192 47.682 49.619 47.616 41.046 47.551 C23.422 47.416 5.799 47.274 -11.824 47.127 C-11.329 44.157 -11.329 44.157 -10.824 41.127 C-14.784 40.797 -18.744 40.467 -22.824 40.127 C-21.455 32.242 -19.839 24.466 -17.949 16.689 C-17.706 15.628 -17.462 14.566 -17.211 13.473 C-16.962 12.452 -16.714 11.432 -16.457 10.381 C-16.24 9.466 -16.022 8.552 -15.798 7.61 C-14.616 4.596 -13.368 3.122 -10.824 1.127 C-7.185 0.166 -3.753 0.001 0 0 Z M8.176 5.127 C6.696 8.425 6.696 8.425 5.863 12.252 C5.695 12.911 5.527 13.569 5.353 14.248 C4.942 15.87 4.556 17.498 4.176 19.127 C7.404 21.279 8.247 21.377 11.965 21.374 C12.95 21.378 13.936 21.383 14.952 21.387 C16.572 21.379 16.572 21.379 18.225 21.37 C19.363 21.372 20.501 21.374 21.674 21.376 C25.447 21.379 29.219 21.369 32.992 21.357 C35.606 21.356 38.22 21.356 40.834 21.356 C46.316 21.355 51.798 21.346 57.28 21.333 C63.622 21.317 69.964 21.312 76.306 21.313 C82.403 21.313 88.5 21.308 94.597 21.3 C97.194 21.297 99.791 21.295 102.388 21.294 C106.011 21.292 109.633 21.283 113.256 21.272 C114.338 21.273 115.42 21.273 116.535 21.274 C117.518 21.269 118.501 21.265 119.513 21.261 C120.799 21.258 120.799 21.258 122.111 21.256 C124.239 21.258 124.239 21.258 126.176 20.127 C125.547 17.118 124.869 14.122 124.176 11.127 C123.928 9.993 123.681 8.858 123.426 7.689 C122.409 4.923 122.409 4.923 119.726 3.983 C115.129 2.875 110.83 2.848 106.119 2.868 C104.623 2.863 104.623 2.863 103.096 2.858 C99.809 2.849 96.522 2.855 93.234 2.861 C90.945 2.86 88.657 2.858 86.368 2.856 C81.576 2.853 76.784 2.857 71.991 2.866 C65.849 2.878 59.706 2.871 53.564 2.859 C48.84 2.852 44.115 2.854 39.391 2.859 C37.126 2.861 34.861 2.859 32.596 2.854 C29.432 2.849 26.267 2.857 23.103 2.868 C22.167 2.864 21.232 2.86 20.268 2.856 C13.963 2.841 13.963 2.841 8.176 5.127 Z " fill="#0071CE" transform="translate(190.8244171142578,87.87301635742188)" />
  <path d="M0 0 C1.281 0.007 1.281 0.007 2.588 0.015 C3.449 0.019 4.31 0.024 5.197 0.029 C20.65 0.175 20.65 0.175 23.713 1.14 C26.157 4.728 26.383 8.838 26.822 13.046 C26.906 13.833 26.99 14.621 27.077 15.432 C27.935 24.241 28.014 33.036 27.973 41.88 C27.963 44.638 27.973 47.394 27.986 50.151 C28.014 86.831 28.014 86.831 22.713 94.14 C16.798 96.648 10.805 96.44 4.463 96.39 C3.47 96.397 2.477 96.405 1.455 96.413 C0.028 96.409 0.028 96.409 -1.428 96.405 C-2.289 96.403 -3.151 96.401 -4.038 96.398 C-6.287 96.14 -6.287 96.14 -9.287 94.14 C-15.361 78.59 -13.594 58.451 -12.537 42.077 C-12.495 41.395 -12.452 40.714 -12.408 40.011 C-11.97 33.273 -11.392 26.742 -9.756 20.185 C-8.923 16.547 -8.601 12.848 -8.225 9.14 C-7.291 0.021 -7.291 0.021 0 0 Z " fill="#333E48" transform="translate(320.287353515625,183.8603515625)" />
  <path d="M0 0 C5.412 -0.075 10.498 0.242 15.855 1.082 C15.883 3.478 15.902 5.874 15.918 8.27 C15.926 8.943 15.935 9.617 15.943 10.311 C15.969 15.592 15.969 15.592 15.36 18.221 C14.631 22.358 14.693 26.44 14.688 30.633 C14.684 31.564 14.681 32.496 14.677 33.456 C14.672 35.43 14.67 37.405 14.67 39.379 C14.668 42.346 14.65 45.312 14.631 48.279 C14.295 67.567 14.295 67.567 18.855 86.082 C18.648 88.504 18.648 88.504 18.043 90.832 C17.755 92 17.755 92 17.461 93.191 C16.855 95.082 16.855 95.082 15.855 96.082 C14.23 96.182 12.601 96.213 10.973 96.215 C9.97 96.216 8.967 96.217 7.934 96.219 C6.877 96.215 5.82 96.211 4.73 96.207 C3.18 96.213 3.18 96.213 1.598 96.219 C-3.757 96.212 -8.87 96.023 -14.145 95.082 C-19.942 80.589 -19.471 64.452 -19.405 49.08 C-19.395 46.086 -19.405 43.092 -19.418 40.098 C-19.426 31.182 -19.279 22.327 -18.316 13.457 C-18.247 12.777 -18.178 12.096 -18.107 11.395 C-17.595 7.325 -16.62 4.369 -14.145 1.082 C-11.867 0.375 -11.867 0.375 -9.207 0.27 C-8.234 0.224 -7.261 0.179 -6.258 0.133 C-4.172 0.099 -2.086 0.054 0 0 Z " fill="#333E48" transform="translate(183.14453125,182.91796875)" />
  <path d="M0 0 C29.7 0 59.4 0 90 0 C90.99 4.455 90.99 4.455 92 9 C100.25 9.33 108.5 9.66 117 10 C115 18 115 18 113.297 19.474 C110.247 20.173 107.387 20.338 104.256 20.423 C103.576 20.443 102.896 20.463 102.196 20.484 C99.912 20.547 97.628 20.595 95.344 20.641 C94.542 20.659 93.741 20.678 92.915 20.698 C72.243 21.18 51.57 21.03 30.895 20.813 C25.481 20.757 20.067 20.721 14.653 20.689 C10.432 20.662 6.212 20.621 1.991 20.576 C-0.009 20.557 -2.009 20.542 -4.009 20.533 C-6.772 20.519 -9.535 20.486 -12.299 20.448 C-13.517 20.448 -13.517 20.448 -14.76 20.448 C-19.275 20.364 -22.642 20.176 -26 17 C-26.33 14.69 -26.66 12.38 -27 10 C-14.625 9.505 -14.625 9.505 -2 9 C-1.34 6.03 -0.68 3.06 0 0 Z " fill="#A4A9AD" transform="translate(211,388)" />
  <path d="M0 0 C0.996 -0.004 1.991 -0.007 3.017 -0.011 C6.305 -0.019 9.593 -0.014 12.881 -0.007 C15.169 -0.008 17.457 -0.01 19.744 -0.013 C24.538 -0.016 29.332 -0.011 34.126 -0.002 C40.268 0.009 46.409 0.003 52.55 -0.009 C57.275 -0.016 61.999 -0.014 66.723 -0.009 C68.987 -0.008 71.252 -0.009 73.516 -0.014 C76.682 -0.019 79.849 -0.011 83.016 0 C84.416 -0.006 84.416 -0.006 85.845 -0.012 C90.602 0.019 94.678 0.201 99.073 2.259 C100.533 4.974 100.533 4.974 101.448 8.196 C101.765 9.257 102.082 10.318 102.408 11.411 C103.073 14.259 103.073 14.259 103.073 17.259 C100.652 18.469 99.115 18.39 96.41 18.399 C95.428 18.405 94.445 18.411 93.432 18.417 C91.809 18.418 91.809 18.418 90.153 18.42 C88.448 18.427 88.448 18.427 86.708 18.435 C82.935 18.45 79.162 18.456 75.389 18.462 C72.776 18.468 70.163 18.473 67.55 18.479 C62.767 18.489 57.985 18.495 53.203 18.498 C46.16 18.502 39.117 18.52 32.074 18.549 C25.977 18.573 19.881 18.581 13.785 18.582 C11.189 18.585 8.592 18.593 5.996 18.607 C2.371 18.624 -1.253 18.622 -4.878 18.615 C-5.959 18.624 -7.039 18.634 -8.151 18.643 C-9.63 18.635 -9.63 18.635 -11.138 18.626 C-11.996 18.628 -12.853 18.629 -13.737 18.631 C-16.381 18.182 -17.262 17.307 -18.927 15.259 C-18.39 13.127 -17.822 11.004 -17.24 8.884 C-16.927 7.7 -16.614 6.517 -16.291 5.298 C-14.927 2.259 -14.927 2.259 -12.963 1.085 C-8.624 -0.096 -4.478 -0.019 0 0 Z " fill="#333E48" transform="translate(213.927490234375,90.7412109375)" />
  <path d="M0 0 C8.58 0 17.16 0 26 0 C26.061 2.988 26.121 5.976 26.184 9.055 C26.246 11.977 26.309 14.9 26.372 17.822 C26.415 19.839 26.457 21.857 26.497 23.874 C26.556 26.789 26.619 29.703 26.684 32.617 C26.7 33.506 26.717 34.395 26.734 35.311 C26.855 40.505 27.199 45.622 27.776 50.786 C28.111 54.098 28.17 57.357 28.188 60.688 C28.202 61.908 28.216 63.129 28.23 64.387 C28 68 28 68 26 75 C17.75 75 9.5 75 1 75 C-1.789 66.632 -2.15 59.195 -2.133 50.477 C-2.134 49.376 -2.135 48.275 -2.136 47.141 C-2.136 44.82 -2.135 42.498 -2.13 40.177 C-2.125 36.644 -2.13 33.111 -2.137 29.578 C-2.136 27.315 -2.135 25.052 -2.133 22.789 C-2.135 21.742 -2.137 20.695 -2.139 19.616 C-2.09 4.18 -2.09 4.18 0 0 Z " fill="#333E48" transform="translate(183,323)" />
  <path d="M0 0 C1.084 0.005 2.168 0.01 3.285 0.016 C5.04 0.021 5.04 0.021 6.83 0.026 C8.677 0.038 8.677 0.038 10.562 0.051 C12.416 0.058 12.416 0.058 14.306 0.065 C17.371 0.077 20.435 0.093 23.5 0.114 C26.645 20.78 26.896 42.981 24.625 63.739 C24.546 64.46 24.468 65.181 24.387 65.924 C23.946 69.349 23.454 71.182 21.5 74.114 C18.978 74.454 18.978 74.454 15.836 74.406 C14.714 74.397 13.593 74.387 12.437 74.377 C10.674 74.339 10.674 74.339 8.875 74.301 C7.1 74.281 7.1 74.281 5.289 74.26 C2.359 74.225 -0.571 74.175 -3.5 74.114 C-4.73 71.654 -4.533 70.3 -4.379 67.559 C-4.331 66.572 -4.282 65.585 -4.233 64.568 C-4.177 63.469 -4.121 62.371 -4.063 61.239 C-3.368 45.986 -3.441 30.746 -3.538 15.481 C-3.542 14.538 -3.546 13.596 -3.55 12.624 C-3.558 10.831 -3.571 9.038 -3.588 7.245 C-3.596 5.201 -3.554 3.157 -3.5 1.114 C-2.5 0.114 -2.5 0.114 0 0 Z " fill="#333E48" transform="translate(306.500244140625,323.886474609375)" />
  <path d="M0 0 C49.17 0 98.34 0 149 0 C149.99 3.96 149.99 3.96 151 8 C142.895 9.048 134.9 9.103 126.738 9.022 C125.327 9.012 123.917 9.002 122.507 8.993 C118.708 8.966 114.909 8.934 111.11 8.899 C107.129 8.865 103.148 8.836 99.167 8.807 C91.641 8.751 84.116 8.69 76.59 8.627 C68.017 8.555 59.444 8.489 50.87 8.424 C33.247 8.289 15.623 8.147 -2 8 C-1.125 2.25 -1.125 2.25 0 0 Z " fill="#FFFFFF" transform="translate(181,127)" />
  <path d="M0 0 C3.479 0.003 6.958 0 10.438 -0.001 C16.254 -0.003 22.071 -0.001 27.887 0.004 C34.558 0.009 41.229 0.008 47.9 0.002 C53.708 -0.002 59.516 -0.003 65.324 -0 C68.758 0.001 72.193 0.001 75.628 -0.002 C89.575 -0.011 103.458 0.034 117.368 1.134 C118.552 4.687 118.063 5.833 116.93 9.322 C116.643 10.223 116.355 11.124 116.059 12.052 C115.831 12.739 115.603 13.426 115.368 14.134 C114.378 13.474 113.388 12.814 112.368 12.134 C111.959 9.422 112.234 6.891 112.368 4.134 C107.248 3.083 102.39 3.041 97.196 3.107 C90.429 3.15 83.679 3.104 76.915 2.88 C33.349 1.486 -10.104 3.227 -53.632 5.134 C-53.612 5.939 -53.591 6.743 -53.57 7.572 C-53.632 10.134 -53.632 10.134 -54.632 11.134 C-56.632 11.175 -58.633 11.177 -60.632 11.134 C-60.962 11.794 -61.292 12.454 -61.632 13.134 C-64.466 9.931 -65.153 7.353 -65.632 3.134 C-61.422 1.561 -57.829 0.853 -53.343 0.725 C-52.122 0.687 -50.901 0.649 -49.643 0.61 C-47.678 0.564 -47.678 0.564 -45.673 0.518 C-44.284 0.48 -42.895 0.442 -41.506 0.404 C-27.672 0.042 -13.838 -0.014 0 0 Z " fill="#000000" transform="translate(229.6322283744812,171.86567449569702)" />
  <path d="M0 0 C0.996 -0.004 1.991 -0.007 3.017 -0.011 C6.305 -0.019 9.593 -0.014 12.881 -0.007 C15.169 -0.008 17.457 -0.01 19.744 -0.013 C24.538 -0.016 29.332 -0.011 34.126 -0.002 C40.268 0.009 46.409 0.003 52.55 -0.009 C57.275 -0.016 61.999 -0.014 66.723 -0.009 C68.987 -0.008 71.252 -0.009 73.516 -0.014 C76.682 -0.019 79.849 -0.011 83.016 0 C84.416 -0.006 84.416 -0.006 85.845 -0.012 C90.657 0.019 94.553 0.384 99.073 2.259 C99.568 5.229 99.568 5.229 100.073 8.259 C99.083 6.774 99.083 6.774 98.073 5.259 C93.349 3.657 88.063 4.119 83.129 4.129 C82.132 4.128 81.135 4.126 80.107 4.124 C76.814 4.12 73.522 4.123 70.229 4.126 C67.939 4.125 65.648 4.124 63.358 4.123 C58.56 4.122 53.762 4.124 48.964 4.128 C42.813 4.134 36.663 4.131 30.513 4.125 C25.784 4.121 21.056 4.122 16.327 4.125 C14.059 4.126 11.791 4.125 9.524 4.122 C6.354 4.12 3.185 4.124 0.016 4.129 C-0.921 4.127 -1.859 4.125 -2.824 4.123 C-6.987 4.137 -10.87 4.196 -14.927 5.259 C-15.257 6.249 -15.587 7.239 -15.927 8.259 C-15.74 5.384 -15.74 5.384 -14.927 2.259 C-10.365 -0.528 -5.165 -0.022 0 0 Z " fill="#000000" transform="translate(213.927490234375,90.7412109375)" />
  <path d="M0 0 C8.442 -0.023 16.884 -0.041 25.326 -0.052 C29.248 -0.057 33.17 -0.064 37.092 -0.075 C40.892 -0.086 44.691 -0.092 48.491 -0.095 C49.925 -0.097 51.36 -0.1 52.794 -0.106 C63.235 -0.144 73.586 0.287 84 1 C85.184 4.552 84.695 5.698 83.562 9.188 C83.131 10.539 83.131 10.539 82.691 11.918 C82.349 12.949 82.349 12.949 82 14 C81.01 13.34 80.02 12.68 79 12 C78.592 9.288 78.867 6.756 79 4 C73.915 2.96 69.096 2.902 63.938 2.965 C54.163 3.023 44.404 2.873 34.633 2.628 C31.973 2.562 29.313 2.502 26.652 2.443 C17.737 2.233 8.877 1.919 0 1 C0 0.67 0 0.34 0 0 Z " fill="#000000" transform="translate(263,172)" />
  <path d="M0 0 C3.098 2.191 3.804 3.411 5 7 C5 9.31 5 11.62 5 14 C-2.26 14 -9.52 14 -17 14 C-15.857 4.857 -15.857 4.857 -12 1 C-8.308 -0.846 -4.03 -0.482 0 0 Z " fill="#A4A9AD" transform="translate(205,74)" />
  <path d="M0 0 C4.727 4.121 4.147 6.179 5 13 C-2.26 13 -9.52 13 -17 13 C-16 3 -16 3 -14.188 0.438 C-9.366 -2.731 -5.165 -2.121 0 0 Z " fill="#A4A9AD" transform="translate(319,75)" />
  <path d="M0 0 C4.62 0 9.24 0 14 0 C16 6 16 6 16 8 C11.167 8.083 6.763 7.953 2 7 C1.34 4.69 0.68 2.38 0 0 Z " fill="#FFB819" transform="translate(330,128)" />
  <path d="M0 0 C1.792 0.017 1.792 0.017 3.621 0.035 C5.417 0.049 5.417 0.049 7.25 0.062 C8.177 0.074 9.104 0.086 10.059 0.098 C9.399 2.408 8.739 4.718 8.059 7.098 C1.624 7.593 1.624 7.593 -4.941 8.098 C-3.927 0.13 -3.927 0.13 0 0 Z " fill="#FFB819" transform="translate(170.94140625,127.90234375)" />
  <path d="M0 0 C4 1 4 1 4 1 Z " fill="#000000" transform="translate(197,172)" />
  <path d="M0 0 C3 1 3 1 3 1 Z " fill="#A4A9AD" transform="translate(335,135)" />
  <path d="M0 0 C2 1 2 1 2 1 Z " fill="#FFB819" transform="translate(173,135)" />
</svg>