<?xml version='1.0' encoding='utf-8'?>
<svg xmlns="http://www.w3.org/2000/svg" width="512" height="512" viewBox="0 0 512 512" style="background-color:transparent">
  <path d="M0 0 C0.33 0 0.66 0 1 0 C1.086 0.651 1.171 1.301 1.26 1.972 C1.649 4.919 2.043 7.866 2.438 10.812 C2.572 11.837 2.707 12.861 2.846 13.916 C2.978 14.899 3.11 15.882 3.246 16.895 C3.427 18.253 3.427 18.253 3.611 19.64 C3.96 22.142 3.96 22.142 5 25 C5.269 27.914 5.494 30.816 5.684 33.734 C5.808 35.525 5.932 37.315 6.057 39.105 C6.247 41.909 6.435 44.712 6.622 47.516 C7.465 60.365 7.465 60.365 8.969 73.148 C10.615 84.659 11.232 96.284 12.062 107.875 C12.323 111.462 12.584 115.049 12.847 118.636 C13.01 120.852 13.17 123.068 13.328 125.284 C13.759 131.209 14.303 137.1 15 143 C17.64 143.33 20.28 143.66 23 144 C23 144.33 23 144.66 23 145 C22.175 145.124 21.35 145.248 20.5 145.375 C6.18 147.932 -7.242 153.859 -17 165 C-19.206 168.56 -19.789 171.76 -21 176 C-48.06 176 -75.12 176 -103 176 C-104.32 172.37 -105.64 168.74 -107 165 C-113.806 154.636 -126.661 149.214 -138.484 146.453 C-142.652 145.702 -146.771 145.221 -151 145 C-151.715 144.959 -152.431 144.918 -153.168 144.875 C-166.611 144.483 -180.678 147.607 -191.312 156.203 C-196.269 161.481 -198.398 167.926 -199 175 C-200 176 -200 176 -202.066 176.098 C-204.378 176.065 -206.689 176.033 -209 176 C-210.485 171.545 -210.485 171.545 -212 167 C-208 165 -208 165 -204 165 C-204.99 159.72 -205.98 154.44 -207 149 C-214.59 149 -222.18 149 -230 149 C-230.764 141.071 -231.111 133.36 -230.871 125.402 C-230.842 124.337 -230.812 123.271 -230.782 122.173 C-230.68 118.761 -230.561 115.349 -230.438 111.938 C-230.397 110.779 -230.356 109.621 -230.315 108.427 C-228.877 69.754 -228.877 69.754 -222 56 C-217.05 56.33 -212.1 56.66 -207 57 C-207 60.3 -207 63.6 -207 67 C-203.7 67 -200.4 67 -197 67 C-197 64.03 -197 61.06 -197 58 C-192.332 57.253 -187.856 56.873 -183.131 56.866 C-182.477 56.864 -181.822 56.862 -181.148 56.859 C-178.975 56.853 -176.802 56.854 -174.629 56.855 C-173.063 56.852 -171.497 56.848 -169.931 56.845 C-165.691 56.836 -161.452 56.833 -157.212 56.833 C-154.561 56.832 -151.91 56.83 -149.259 56.827 C-140.005 56.818 -130.751 56.814 -121.497 56.815 C-112.879 56.815 -104.262 56.805 -95.644 56.789 C-88.236 56.776 -80.827 56.771 -73.419 56.771 C-68.999 56.771 -64.578 56.769 -60.158 56.758 C-56.001 56.748 -51.844 56.748 -47.688 56.755 C-46.165 56.757 -44.643 56.754 -43.12 56.748 C-41.036 56.74 -38.953 56.745 -36.869 56.753 C-35.122 56.752 -35.122 56.752 -33.341 56.751 C-29.603 57.03 -26.56 57.859 -23 59 C-22.67 58.34 -22.34 57.68 -22 57 C-18.744 56.428 -15.487 56.104 -12.199 55.758 C-8.555 54.895 -7.272 53.925 -5 51 C-3.997 47.992 -3.697 45.462 -3.438 42.312 C-3.354 41.319 -3.27 40.325 -3.184 39.301 C-3.123 38.542 -3.062 37.782 -3 37 C-2.67 37 -2.34 37 -2 37 C-1.34 24.79 -0.68 12.58 0 0 Z M-203.932 93.367 C-205.494 95.755 -205.372 97.639 -205.363 100.473 C-205.363 101.537 -205.362 102.601 -205.361 103.697 C-205.345 104.808 -205.329 105.918 -205.312 107.062 C-205.316 108.177 -205.319 109.291 -205.322 110.439 C-205.695 116.286 -205.695 116.286 -203 121 C-196.763 122.335 -190.455 122.145 -184.102 122.133 C-182.953 122.134 -181.805 122.135 -180.622 122.136 C-178.193 122.136 -175.764 122.135 -173.334 122.13 C-169.672 122.125 -166.01 122.13 -162.348 122.137 C-142.211 123.58 -142.211 123.58 -123 120 C-121.935 105.389 -121.935 105.389 -126 92 C-128.467 91.697 -130.686 91.59 -133.156 91.612 C-133.893 91.607 -134.629 91.601 -135.389 91.596 C-137.831 91.583 -140.273 91.591 -142.715 91.602 C-144.409 91.6 -146.103 91.597 -147.797 91.593 C-151.35 91.588 -154.903 91.595 -158.457 91.609 C-163.015 91.626 -167.572 91.616 -172.13 91.598 C-175.629 91.587 -179.128 91.591 -182.627 91.599 C-184.308 91.601 -185.989 91.598 -187.669 91.591 C-190.018 91.584 -192.366 91.595 -194.715 91.612 C-195.76 91.603 -195.76 91.603 -196.826 91.593 C-199.681 91.631 -201.563 91.691 -203.932 93.367 Z M-93 96 C-93.342 99.471 -93.342 99.471 -92.875 103.25 C-92.814 103.917 -92.752 104.585 -92.689 105.272 C-92.077 113.846 -92.077 113.846 -88 121 C-81.403 122.198 -74.814 122.161 -68.125 122.168 C-67.001 122.171 -65.877 122.175 -64.719 122.178 C-62.353 122.183 -59.986 122.185 -57.619 122.185 C-54.012 122.187 -50.404 122.206 -46.797 122.225 C-44.49 122.228 -42.182 122.23 -39.875 122.23 C-38.804 122.238 -37.733 122.245 -36.629 122.252 C-30.746 122.234 -25.605 121.858 -20 120 C-16.944 115.865 -17.595 109.847 -17.562 104.875 C-17.513 103.516 -17.513 103.516 -17.463 102.129 C-17.456 101.259 -17.449 100.389 -17.441 99.492 C-17.428 98.702 -17.414 97.911 -17.401 97.097 C-17.832 94.792 -17.832 94.792 -20.127 93.394 C-23.515 91.75 -25.807 91.614 -29.563 91.596 C-30.871 91.583 -32.179 91.571 -33.527 91.558 C-34.946 91.56 -36.366 91.563 -37.785 91.566 C-39.248 91.562 -40.711 91.557 -42.174 91.551 C-45.235 91.542 -48.295 91.544 -51.356 91.554 C-55.276 91.565 -59.195 91.545 -63.115 91.516 C-66.133 91.498 -69.152 91.498 -72.171 91.504 C-73.616 91.504 -75.062 91.498 -76.507 91.485 C-78.527 91.47 -80.547 91.484 -82.567 91.498 C-83.715 91.498 -84.864 91.499 -86.047 91.499 C-89.649 92.11 -90.847 93.089 -93 96 Z M-205 131 C-205.502 135.607 -205.502 135.607 -203.783 139.702 C-201.472 141.384 -200.062 141.387 -197.219 141.398 C-196.294 141.402 -195.37 141.406 -194.418 141.41 C-193.455 141.399 -192.492 141.387 -191.5 141.375 C-190.056 141.392 -190.056 141.392 -188.582 141.41 C-187.658 141.406 -186.734 141.402 -185.781 141.398 C-184.514 141.393 -184.514 141.393 -183.221 141.388 C-180.519 140.916 -179.633 140.169 -178 138 C-177.417 135.5 -177.417 135.5 -178 133 C-180.988 130.132 -183.086 129.629 -187.168 129.672 C-188.143 129.677 -189.118 129.682 -190.123 129.688 C-191.134 129.708 -192.146 129.729 -193.188 129.75 C-194.722 129.758 -194.722 129.758 -196.287 129.766 C-200.988 129.382 -200.988 129.382 -205 131 Z M-86 130 C-86.81 132.915 -87.218 134.461 -86.062 137.312 C-85.712 137.869 -85.361 138.426 -85 139 C-80.888 139.025 -76.777 139.043 -72.665 139.055 C-71.265 139.06 -69.865 139.067 -68.466 139.075 C-66.458 139.088 -64.449 139.093 -62.441 139.098 C-61.232 139.103 -60.022 139.108 -58.776 139.114 C-56.092 139.318 -56.092 139.318 -55 138 C-54.833 134.5 -54.833 134.5 -55 131 C-56.103 129.671 -56.103 129.671 -58.867 129.886 C-60.119 129.892 -61.371 129.897 -62.66 129.902 C-63.325 129.904 -63.989 129.905 -64.674 129.907 C-66.803 129.912 -68.933 129.925 -71.062 129.938 C-72.503 129.943 -73.944 129.947 -75.385 129.951 C-78.923 129.962 -82.462 129.979 -86 130 Z " fill="#0071CE" transform="translate(312,174)" />
  <path d="M0 0 C1.275 -0.003 2.55 -0.006 3.863 -0.01 C5.266 -0.008 6.668 -0.006 8.071 -0.003 C9.499 -0.004 10.928 -0.005 12.357 -0.006 C15.355 -0.008 18.354 -0.006 21.353 -0.001 C25.201 0.005 29.049 0.001 32.897 -0.005 C35.849 -0.008 38.801 -0.007 41.753 -0.004 C43.172 -0.004 44.591 -0.005 46.01 -0.007 C47.992 -0.009 49.975 -0.005 51.957 0 C53.087 0.001 54.216 0.002 55.38 0.002 C58.043 0.129 58.043 0.129 60.043 1.129 C60.774 3.443 61.445 5.778 62.043 8.129 C63.693 8.129 65.343 8.129 67.043 8.129 C68.033 5.819 69.023 3.509 70.043 1.129 C71.939 1.075 73.835 1.036 75.731 1.004 C76.786 0.981 77.842 0.958 78.93 0.934 C82.23 1.141 84.185 1.47 87.043 3.129 C91.526 8.497 92.683 14.494 94.25 21.2 C94.539 22.39 94.827 23.58 95.124 24.807 C96.046 28.62 96.951 32.437 97.856 36.254 C98.749 39.975 99.646 43.696 100.543 47.416 C101.141 49.902 101.735 52.388 102.325 54.876 C103.831 61.199 105.389 67.501 107.052 73.785 C107.377 75.027 107.702 76.27 108.037 77.55 C108.652 79.887 109.278 82.221 109.92 84.551 C112.641 94.968 113.148 104.981 110.168 115.379 C109.82 116.643 109.472 117.906 109.114 119.208 C108.043 122.129 108.043 122.129 106.043 123.129 C104.011 123.215 101.976 123.237 99.942 123.227 C98.73 123.224 97.518 123.221 96.27 123.217 C94.999 123.209 93.728 123.201 92.418 123.192 C91.139 123.187 89.861 123.183 88.543 123.178 C85.377 123.166 82.21 123.148 79.043 123.129 C78.713 128.079 78.383 133.029 78.043 138.129 C78.703 138.459 79.363 138.789 80.043 139.129 C79.736 140.943 79.422 142.755 79.106 144.567 C78.932 145.576 78.758 146.586 78.578 147.625 C78.043 150.129 78.043 150.129 77.043 151.129 C75.357 151.201 73.668 151.213 71.981 151.192 C71.062 151.183 70.143 151.174 69.196 151.165 C68.485 151.153 67.775 151.141 67.043 151.129 C66.775 150.304 66.507 149.479 66.231 148.629 C65.127 145.378 63.948 142.17 62.727 138.961 C62.131 137.363 61.583 135.748 61.043 134.129 C59.735 133.414 58.397 132.755 57.043 132.129 C55.597 131.036 54.161 129.931 52.731 128.817 C41.283 120.669 27.937 118.96 14.231 119.129 C12.141 119.155 10.051 119.176 7.961 119.192 C7.041 119.203 6.121 119.215 5.173 119.227 C3.043 119.129 3.043 119.129 2.043 118.129 C1.844 116.715 1.706 115.291 1.594 113.867 C1.521 112.957 1.447 112.047 1.371 111.11 C1.295 110.112 1.219 109.114 1.141 108.086 C1.017 106.535 1.017 106.535 0.89 104.953 C0.625 101.616 0.365 98.279 0.106 94.942 C-0.235 90.615 -0.578 86.288 -0.922 81.961 C-1.007 80.889 -1.091 79.817 -1.179 78.713 C-2.315 64.485 -3.636 50.273 -5.019 36.067 C-7.489 10.205 -7.489 10.205 -6.957 1.129 C-5.156 -0.671 -2.427 0.002 0 0 Z M78.731 59.129 C76.349 63.364 76.348 67.361 77.043 72.129 C77.703 73.119 78.363 74.109 79.043 75.129 C78.801 78.09 78.801 78.09 78.168 81.504 C77.022 87.285 77.022 87.285 77.043 93.129 C79.79 95.331 79.79 95.331 82.543 95.254 C85.458 94.27 85.458 94.27 86.731 90.504 C87.622 87.776 88.255 85.136 88.856 82.317 C90.043 79.129 90.043 79.129 92.981 77.379 C93.991 76.967 95.002 76.554 96.043 76.129 C98.792 73.931 99.522 72.289 99.918 68.817 C100.246 64.433 99.78 61.721 97.043 58.129 C90.226 54.411 84.745 53.928 78.731 59.129 Z " fill="#0071CE" transform="translate(323.956787109375,198.87060546875)" />
  <path d="M0 0 C1 1 1 1 1.062 4.562 C1.042 5.697 1.021 6.831 1 8 C3.97 8 6.94 8 10 8 C10 5.69 10 3.38 10 1 C13.347 -0.009 16.384 -0.123 19.872 -0.12 C21.072 -0.122 22.273 -0.123 23.509 -0.124 C24.823 -0.121 26.136 -0.117 27.489 -0.114 C28.889 -0.113 30.288 -0.113 31.688 -0.114 C35.485 -0.114 39.282 -0.108 43.08 -0.101 C47.049 -0.095 51.018 -0.095 54.987 -0.093 C62.502 -0.09 70.017 -0.082 77.532 -0.072 C86.089 -0.061 94.645 -0.055 103.201 -0.05 C120.801 -0.04 138.4 -0.022 156 0 C156.217 1.702 156.217 1.702 156.438 3.438 C156.612 6.808 156.612 6.808 158 8 C160.333 8.041 162.667 8.042 165 8 C165 5.36 165 2.72 165 0 C178.957 -0.688 178.957 -0.688 182.688 1.688 C189.269 8.269 190.081 16.365 190.23 25.391 C190.228 27.677 190.213 29.964 190.188 32.25 C190.178 34.03 190.178 34.03 190.168 35.847 C190.097 43.931 189.833 51.955 189 60 C187.608 59.041 187.608 59.041 186.188 58.062 C181.331 54.92 177.462 54.849 171.857 54.842 C171.017 54.837 170.177 54.832 169.312 54.827 C166.488 54.811 163.665 54.803 160.841 54.795 C158.821 54.785 156.801 54.775 154.781 54.765 C149.287 54.738 143.794 54.717 138.3 54.697 C132.563 54.675 126.825 54.647 121.088 54.621 C110.219 54.571 99.35 54.526 88.481 54.483 C76.108 54.433 63.736 54.378 51.364 54.323 C25.909 54.209 0.455 54.102 -25 54 C-24.854 52.592 -24.705 51.184 -24.555 49.776 C-24.472 48.992 -24.389 48.208 -24.304 47.4 C-23.816 43.548 -22.958 39.798 -22.074 36.02 C-21.885 35.203 -21.696 34.387 -21.502 33.545 C-21.104 31.835 -20.703 30.125 -20.299 28.415 C-19.687 25.812 -19.094 23.204 -18.502 20.596 C-18.111 18.924 -17.718 17.253 -17.324 15.582 C-17.151 14.81 -16.978 14.038 -16.8 13.243 C-15.63 8.399 -14.08 4.941 -11 1 C-7.625 -0.629 -3.688 -0.139 0 0 Z " fill="#0071CE" transform="translate(122,152)" />
  <path d="M0 0 C1.263 -0.006 1.263 -0.006 2.552 -0.012 C5.366 -0.022 8.18 -0.018 10.994 -0.014 C13.015 -0.018 15.036 -0.023 17.056 -0.029 C22.54 -0.043 28.023 -0.043 33.506 -0.041 C38.084 -0.04 42.662 -0.045 47.24 -0.049 C58.038 -0.061 68.836 -0.061 79.634 -0.055 C90.776 -0.049 101.917 -0.061 113.058 -0.083 C122.625 -0.1 132.191 -0.106 141.757 -0.103 C147.47 -0.101 153.184 -0.104 158.897 -0.118 C164.268 -0.13 169.639 -0.128 175.011 -0.115 C176.982 -0.113 178.953 -0.116 180.924 -0.124 C183.615 -0.134 186.306 -0.126 188.997 -0.114 C189.777 -0.121 190.557 -0.128 191.36 -0.136 C197.162 -0.078 201.353 1.116 205.498 5.261 C206.234 10.493 206.114 14.984 203.811 19.761 C200.36 23.492 197.539 25.385 192.427 25.659 C190.786 25.686 189.146 25.696 187.505 25.693 C186.148 25.708 186.148 25.708 184.763 25.724 C181.741 25.754 178.72 25.763 175.698 25.772 C173.544 25.789 171.391 25.808 169.238 25.827 C163.428 25.875 157.617 25.905 151.806 25.931 C146.982 25.954 142.157 25.988 137.333 26.022 C121.388 26.133 105.443 26.203 89.498 26.261 C87.213 26.269 84.928 26.278 82.643 26.287 C69.23 26.337 55.816 26.37 42.402 26.383 C39.572 26.386 36.742 26.39 33.911 26.394 C29.479 26.4 25.046 26.4 20.614 26.395 C19.012 26.394 17.409 26.395 15.807 26.397 C-7.013 26.424 -7.013 26.424 -13.502 24.261 C-13.502 23.601 -13.502 22.941 -13.502 22.261 C-14.162 22.261 -14.822 22.261 -15.502 22.261 C-17.924 16.609 -19.221 12.422 -18.502 6.261 C-14.203 -0.021 -6.994 -0.034 0 0 Z " fill="#A4A9AD" transform="translate(103.501708984375,205.7393035888672)" />
  <path d="M0 0 C0.74 -0.005 1.48 -0.009 2.242 -0.014 C4.711 -0.026 7.18 -0.025 9.649 -0.023 C11.423 -0.029 13.197 -0.036 14.972 -0.043 C19.784 -0.061 24.595 -0.066 29.407 -0.067 C32.414 -0.069 35.421 -0.073 38.428 -0.078 C48.919 -0.097 59.411 -0.105 69.902 -0.103 C79.68 -0.102 89.458 -0.123 99.237 -0.155 C107.635 -0.181 116.033 -0.192 124.432 -0.19 C129.447 -0.19 134.461 -0.195 139.476 -0.217 C144.191 -0.236 148.905 -0.236 153.62 -0.222 C155.349 -0.219 157.079 -0.224 158.808 -0.236 C161.171 -0.252 163.532 -0.242 165.895 -0.227 C166.577 -0.237 167.26 -0.248 167.964 -0.258 C172.872 -0.188 175.65 1.231 179.447 4.267 C181.116 6.586 181.474 7.676 181.346 10.521 C181.087 11.664 181.087 11.664 180.822 12.83 C180.665 13.594 180.508 14.359 180.346 15.146 C179.158 17.95 178.08 18.724 175.447 20.267 C172.912 20.666 170.617 20.868 168.068 20.944 C166.853 20.994 166.853 20.994 165.613 21.044 C150.831 21.556 136.02 21.432 121.231 21.435 C118.506 21.435 115.78 21.438 113.055 21.44 C103.529 21.449 94.002 21.454 84.476 21.453 C75.619 21.452 66.763 21.463 57.906 21.478 C50.268 21.492 42.631 21.497 34.993 21.496 C30.445 21.496 25.897 21.499 21.349 21.509 C17.084 21.519 12.819 21.519 8.554 21.512 C6.993 21.511 5.432 21.513 3.87 21.519 C1.735 21.527 -0.401 21.522 -2.537 21.515 C-3.73 21.515 -4.923 21.516 -6.152 21.516 C-9.898 21.242 -13.036 20.591 -16.553 19.267 C-18.647 14.73 -19.038 11.043 -17.553 6.267 C-13.156 0.406 -6.88 -0.031 0 0 Z " fill="#A4A9AD" transform="translate(122.5526123046875,130.73257446289063)" />
  <path d="M0 0 C15.584 -0.514 32.429 3.546 44.945 13.117 C48.644 16.678 51.949 20.338 53.945 25.117 C53.945 26.107 53.945 27.097 53.945 28.117 C51.777 27.611 49.946 27.117 47.945 26.117 C47.998 27.529 47.998 27.529 48.051 28.969 C48.078 30.214 48.105 31.459 48.133 32.742 C48.185 34.587 48.185 34.587 48.238 36.469 C47.83 41.549 46.04 44.757 42.883 48.68 C31.313 58.28 17.38 59.326 2.945 58.117 C-9.778 56.362 -21.541 51.038 -29.75 41.012 C-32.187 37.472 -33.301 34.662 -33.68 30.367 C-33.754 29.568 -33.829 28.769 -33.906 27.945 C-33.955 27.342 -34.004 26.739 -34.055 26.117 C-34.715 27.437 -35.375 28.757 -36.055 30.117 C-37.705 30.117 -39.355 30.117 -41.055 30.117 C-41.871 23.91 -39.57 19.084 -36.055 14.117 C-26.25 4.497 -13.364 0.762 0 0 Z M-9.43 28.43 C-11.467 31.799 -11.83 33.242 -11.055 37.117 C-8.523 41.312 -5.073 44.988 -0.375 46.684 C7.681 48.189 15.808 48.402 22.945 44.117 C25.361 41.949 26.782 40.479 27.176 37.191 C26.965 33.043 26.221 31.413 23.32 28.305 C22.219 27.54 21.094 26.809 19.945 26.117 C18.955 25.519 17.965 24.921 16.945 24.305 C8.213 20.886 -2.65 21.828 -9.43 28.43 Z " fill="#333E48" transform="translate(154.0546875,317.8828125)" />
  <path d="M0 0 C9.16 8.479 9.16 8.479 11 14 C11.04 16.333 11.044 18.667 11 21 C9.02 19.68 7.04 18.36 5 17 C4.902 17.652 4.804 18.305 4.703 18.977 C2.979 29.053 -1.754 35.049 -10 41 C-19.668 46.104 -29.502 48.389 -40.375 48.312 C-41.205 48.308 -42.035 48.303 -42.89 48.298 C-54.823 48.07 -66.259 44.492 -75 36 C-79.458 30.096 -79.472 25.257 -79 18 C-81.31 18.33 -83.62 18.66 -86 19 C-85.865 13.585 -83.695 10.798 -80.133 7.012 C-58.225 -13.652 -25.144 -15.556 0 0 Z M-56.5 19.875 C-58.197 23.41 -58.723 25.144 -58 29 C-55.196 33.166 -52.918 35.798 -48 37 C-39.887 38.469 -33.002 38.19 -25.688 34.188 C-21.92 31.121 -19.32 28.918 -18.5 24 C-19.139 20.166 -20.183 18.673 -23 16 C-28.038 13.419 -32.244 12.477 -37.938 12.562 C-38.64 12.57 -39.342 12.578 -40.065 12.585 C-47.447 12.82 -51.691 14.345 -56.5 19.875 Z " fill="#333E48" transform="translate(378,328)" />
  <path d="M0 0 C0.738 -0.005 1.477 -0.011 2.238 -0.016 C4.68 -0.029 7.121 -0.02 9.562 -0.01 C11.257 -0.012 12.952 -0.015 14.647 -0.019 C18.199 -0.023 21.75 -0.017 25.302 -0.003 C29.861 0.014 34.419 0.004 38.978 -0.014 C42.477 -0.024 45.977 -0.021 49.476 -0.013 C51.157 -0.011 52.839 -0.014 54.52 -0.021 C56.866 -0.028 59.212 -0.017 61.559 0 C62.607 -0.009 62.607 -0.009 63.676 -0.018 C65.609 0.007 65.609 0.007 68.715 0.388 C73.74 7.926 71.82 19.628 71.715 28.388 C60.807 33.842 40.642 30.539 28.745 30.519 C25.062 30.513 21.379 30.519 17.695 30.525 C15.334 30.524 12.974 30.523 10.613 30.521 C8.975 30.524 8.975 30.524 7.305 30.527 C-7.191 30.483 -7.191 30.483 -10.285 27.388 C-10.742 23.428 -10.609 19.434 -10.598 15.451 C-10.614 14.34 -10.63 13.23 -10.647 12.085 C-10.647 11.021 -10.648 9.957 -10.649 8.861 C-10.652 7.884 -10.655 6.907 -10.658 5.9 C-10.285 3.388 -10.285 3.388 -9.217 1.755 C-6.321 -0.294 -3.42 -0.03 0 0 Z " fill="#333E48" transform="translate(117.285400390625,265.61181640625)" />
  <path d="M0 0 C1.305 -0.009 2.61 -0.019 3.954 -0.028 C5.376 -0.018 6.797 -0.007 8.219 0.006 C9.681 0.005 11.143 0.004 12.605 0.001 C15.668 -0 18.73 0.012 21.792 0.035 C25.711 0.064 29.629 0.061 33.547 0.048 C36.566 0.041 39.585 0.049 42.604 0.061 C44.048 0.066 45.493 0.066 46.937 0.062 C48.96 0.059 50.982 0.078 53.004 0.098 C54.728 0.106 54.728 0.106 56.487 0.114 C59.914 0.545 61.824 1.431 64.567 3.502 C65.166 5.599 65.166 5.599 65.125 7.994 C65.118 8.864 65.111 9.734 65.104 10.631 C65.054 11.99 65.054 11.99 65.004 13.377 C64.995 14.724 64.995 14.724 64.987 16.099 C64.814 25.462 64.814 25.462 62.567 28.502 C55.925 30.703 49.643 30.779 42.692 30.732 C41.006 30.731 41.006 30.731 39.286 30.731 C36.919 30.728 34.552 30.72 32.186 30.708 C28.578 30.689 24.971 30.687 21.364 30.687 C19.056 30.682 16.749 30.677 14.442 30.67 C13.371 30.669 12.3 30.667 11.196 30.666 C-4.177 30.57 -4.177 30.57 -7.359 27.865 C-8.75 24.806 -9.198 22.023 -9.621 18.689 C-9.779 17.507 -9.938 16.325 -10.101 15.107 C-11.007 5.273 -11.007 5.273 -8.817 2.327 C-5.708 -0.054 -3.892 0.001 0 0 Z " fill="#333E48" transform="translate(229.433349609375,265.498291015625)" />
  <path d="M0 0 C2.834 1.586 5.239 3.169 7.312 5.688 C8.116 8.751 8.601 10.631 8.312 13.688 C5.556 18.066 3.201 20.175 -1.688 21.688 C-9.722 22.461 -18.078 22.962 -24.688 17.688 C-27.696 15.049 -29.477 12.698 -30.312 8.688 C-29.453 4.561 -27.677 2.611 -24.688 -0.312 C-17.139 -4.139 -7.497 -3.66 0 0 Z " fill="#A4A9AD" transform="translate(172.6875,343.3125)" />
  <path d="M0 0 C4.011 2.831 5.783 4.23 6.75 9.062 C5.935 13.678 3.666 16.204 0.188 19.25 C-7.159 23.488 -15.615 24.165 -23.766 22.055 C-27.656 20.525 -30.914 18.047 -32.812 14.25 C-33.235 10.534 -32.943 8.521 -31.312 5.125 C-23.958 -3.333 -10.074 -4.71 0 0 Z " fill="#A4A9AD" transform="translate(352.8125,342.75)" />
  <path d="M0 0 C4.633 6.95 4.598 15.001 3 23 C1.395 28.051 -0.156 32.385 -5 35 C-7.698 35.269 -10.125 35.375 -12.812 35.312 C-13.842 35.317 -13.842 35.317 -14.893 35.322 C-19.536 35.274 -23.608 34.648 -28 33 C-30.489 29.266 -30.407 26.319 -30 22 C-29.125 18.562 -29.125 18.562 -28 16 C-24.285 14.142 -19.498 15.012 -15.385 15.127 C-9.397 15.287 -9.397 15.287 -4 13 C-2.526 9.934 -2.526 9.934 -1.688 6.375 C-1.361 5.186 -1.035 3.998 -0.699 2.773 C-0.468 1.858 -0.238 0.943 0 0 Z " fill="#A4A9AD" transform="translate(432,323)" />
  <path d="M0 0 C15.584 -0.514 32.429 3.546 44.945 13.117 C48.644 16.678 51.949 20.338 53.945 25.117 C53.945 26.107 53.945 27.097 53.945 28.117 C50.984 27.504 49.565 26.863 46.945 25.117 C46.494 24.326 46.043 23.534 45.578 22.719 C41.099 15.583 31.734 12.288 23.945 10.117 C23.945 9.457 23.945 8.797 23.945 8.117 C22.946 8.129 21.947 8.14 20.918 8.152 C19.628 8.161 18.337 8.17 17.008 8.18 C15.72 8.191 14.432 8.203 13.105 8.215 C9.945 8.117 9.945 8.117 8.945 7.117 C-0.451 6.216 -8.265 7.952 -17.055 11.117 C-18.159 11.452 -19.264 11.788 -20.402 12.133 C-21.278 12.458 -22.153 12.783 -23.055 13.117 C-23.409 14.445 -23.74 15.779 -24.055 17.117 C-26.022 18.498 -28.023 19.832 -30.055 21.117 C-30.715 22.107 -31.375 23.097 -32.055 24.117 C-32.715 24.117 -33.375 24.117 -34.055 24.117 C-34.715 26.097 -35.375 28.077 -36.055 30.117 C-37.705 30.117 -39.355 30.117 -41.055 30.117 C-41.871 23.91 -39.57 19.084 -36.055 14.117 C-26.25 4.497 -13.364 0.762 0 0 Z " fill="#000000" transform="translate(154.0546875,317.8828125)" />
  <path d="M0 0 C0.33 0 0.66 0 1 0 C1.083 0.931 1.083 0.931 1.168 1.88 C1.421 4.691 1.679 7.502 1.938 10.312 C2.025 11.289 2.112 12.265 2.201 13.271 C2.288 14.209 2.375 15.147 2.465 16.113 C2.543 16.977 2.622 17.841 2.703 18.732 C2.948 21.161 2.948 21.161 4 24 C6.833 25.416 9.475 25.346 12.625 25.562 C13.814 25.646 15.002 25.73 16.227 25.816 C17.599 25.907 17.599 25.907 19 26 C22.559 34.438 22.559 34.438 21.25 39 C20 42 20 42 19 43 C13.035 44.318 6.674 44.518 1 42 C-3.623 37.136 -4.851 29.816 -5.105 23.297 C-4.592 15.32 -2.217 7.641 0 0 Z " fill="#A4A9AD" transform="translate(81,314)" />
  <path d="M0 0 C3.928 2.473 5.66 3.919 7.062 8.375 C6.975 13.448 5.758 17.242 2.125 20.875 C-1.09 22.577 -3.35 23.362 -6.992 22.562 C-10.363 21.476 -12.551 20.477 -15 17.875 C-16.406 13.833 -16.691 10.23 -16 6 C-14.207 2.879 -12.757 1.45 -9.688 -0.375 C-6.041 -1.223 -3.626 -0.954 0 0 Z " fill="#A4A9AD" transform="translate(417,255)" />
  <path d="M0 0 C4.254 -0.025 8.508 -0.043 12.762 -0.055 C14.211 -0.06 15.659 -0.067 17.107 -0.075 C19.185 -0.088 21.262 -0.093 23.34 -0.098 C24.591 -0.103 25.843 -0.108 27.133 -0.114 C30 0 30 0 31 1 C31.125 4.5 31.125 4.5 31 8 C30 9 30 9 27.224 9.114 C26.015 9.108 24.805 9.103 23.559 9.098 C22.253 9.094 20.948 9.091 19.604 9.088 C18.215 9.08 16.826 9.071 15.438 9.062 C14.045 9.057 12.652 9.053 11.26 9.049 C7.84 9.037 4.42 9.021 1 9 C-0.619 6.428 -1.044 5.323 -0.625 2.25 C-0.419 1.507 -0.213 0.765 0 0 Z " fill="#00B3E3" transform="translate(226,304)" />
  <path d="M0 0 C1.011 -0.021 2.023 -0.041 3.064 -0.062 C4.04 -0.068 5.015 -0.073 6.02 -0.078 C6.914 -0.087 7.808 -0.097 8.73 -0.106 C11.637 0.315 13.01 1.329 15.188 3.25 C14.932 5.593 14.595 7.928 14.188 10.25 C10.426 12.131 5.889 11.478 1.75 11.5 C0.299 11.531 0.299 11.531 -1.182 11.562 C-2.575 11.57 -2.575 11.57 -3.996 11.578 C-5.273 11.592 -5.273 11.592 -6.576 11.606 C-8.812 11.25 -8.812 11.25 -10.598 9.956 C-12.57 7.186 -12.055 4.529 -11.812 1.25 C-9.398 -1.164 -3.241 0.016 0 0 Z " fill="#00B3E3" transform="translate(118.8125,303.75)" />
  <path d="M0 0 C2.548 1.928 3.739 3.357 4.938 6.312 C5.029 10.238 3.945 12.612 2 16 C-2.046 18.787 -5.139 19.347 -10 19 C-10 18.34 -10 17.68 -10 17 C-10.639 16.711 -11.279 16.423 -11.938 16.125 C-14 15 -14 15 -15 13 C-15.381 8.96 -15.424 6.707 -13.312 3.188 C-9.045 -0.85 -5.671 -1.689 0 0 Z " fill="#A4A9AD" transform="translate(398,169)" />
  <path d="M0 0 C-1.429 13.429 -1.429 13.429 -5 17 C-7.53 17.073 -10.033 17.092 -12.562 17.062 C-13.273 17.058 -13.984 17.053 -14.717 17.049 C-16.478 17.037 -18.239 17.019 -20 17 C-19.688 15.271 -19.375 13.542 -19.062 11.812 C-18.888 10.85 -18.714 9.887 -18.535 8.895 C-18.048 6.258 -17.533 3.628 -17 1 C-14.542 0.833 -12.083 0.666 -9.625 0.5 C-8.926 0.452 -8.228 0.405 -7.508 0.355 C-2.227 0 -2.227 0 0 0 Z " fill="#FFB819" transform="translate(432,321)" />
  <path d="M0 0 C3.96 0 7.92 0 12 0 C12.695 2.644 13.381 5.29 14.062 7.938 C14.262 8.692 14.461 9.447 14.666 10.225 C15.155 12.139 15.583 14.069 16 16 C14.343 17.657 12.393 17.171 10.125 17.188 C9.241 17.202 8.356 17.216 7.445 17.23 C5 17 5 17 2 15 C1.27 13.047 1.27 13.047 0.812 10.75 C0.654 10.002 0.495 9.255 0.332 8.484 C0 6 0 6 0 0 Z " fill="#FFB819" transform="translate(82,323)" />
  <path d="M0 0 C9.16 8.479 9.16 8.479 11 14 C11.04 16.333 11.044 18.667 11 21 C10.312 20.493 10.312 20.493 9.609 19.977 C8.996 19.531 8.382 19.085 7.75 18.625 C7.147 18.184 6.543 17.743 5.922 17.289 C4.034 15.95 4.034 15.95 1.93 15.043 C-0.266 13.856 -1.173 12.696 -2.625 10.688 C-8.934 3.002 -19.489 0.146 -29 -1 C-31.678 -1.09 -34.323 -1.14 -37 -1.125 C-38.009 -1.131 -38.009 -1.131 -39.039 -1.137 C-47.592 -1.12 -54.271 0.584 -62 4 C-62.74 4.322 -63.48 4.645 -64.242 4.977 C-68.68 7.037 -71.604 9.404 -75 13 C-75.66 13 -76.32 13 -77 13 C-77.186 13.619 -77.371 14.238 -77.562 14.875 C-79.714 18.056 -82.375 18.195 -86 19 C-85.865 13.585 -83.695 10.798 -80.133 7.012 C-58.225 -13.652 -25.144 -15.556 0 0 Z " fill="#000000" transform="translate(378,328)" />
  <path d="M0 0 C1.514 0.017 1.514 0.017 3.059 0.035 C4.071 0.044 5.082 0.053 6.125 0.062 C7.299 0.08 7.299 0.08 8.496 0.098 C8.016 5.667 7.197 10.768 5.496 16.098 C2.196 16.098 -1.104 16.098 -4.504 16.098 C-5.463 12.342 -5.455 9.626 -4.629 5.848 C-4.446 4.976 -4.263 4.105 -4.074 3.207 C-3.263 0.207 -3.172 0.124 0 0 Z " fill="#FFFFFF" transform="translate(406.50390625,321.90234375)" />
  <path d="M0 0 C3.63 0 7.26 0 11 0 C11.506 1.915 12.004 3.832 12.5 5.75 C12.778 6.817 13.057 7.885 13.344 8.984 C14 12 14 12 14 16 C11.03 16.33 8.06 16.66 5 17 C1.338 11.673 0 6.401 0 0 Z " fill="#FFFFFF" transform="translate(94,323)" />
  <path d="M0 0 C2.97 0.99 5.94 1.98 9 3 C6.797 15.067 6.797 15.067 5 18 C2.562 18.938 2.562 18.938 0 19 C-0.99 18.34 -1.98 17.68 -3 17 C-2.221 5.478 -2.221 5.478 0 0 Z " fill="#333E48" transform="translate(404,275)" />
  <path d="M0 0 C2.31 0 4.62 0 7 0 C6.885 2.209 6.758 4.417 6.625 6.625 C6.555 7.855 6.486 9.085 6.414 10.352 C6.019 13.837 5.237 16.73 4 20 C2.02 19.67 0.04 19.34 -2 19 C-3.294 14.519 -2.613 11.185 -1.562 6.688 C-1.131 4.806 -1.131 4.806 -0.691 2.887 C-0.463 1.934 -0.235 0.981 0 0 Z " fill="#333E48" transform="translate(387,188)" />
  <path d="M0 0 C0.946 0.162 0.946 0.162 1.91 0.328 C4.477 4.178 3.743 5.914 2.91 10.328 C-0.39 10.328 -3.69 10.328 -7.09 10.328 C-7.188 3.395 -7.188 3.395 -7.09 1.328 C-5.199 -0.563 -2.519 0.091 0 0 Z " fill="#333E48" transform="translate(112.08984375,230.671875)" />
  <path d="M0 0 C3.052 -0.262 4.945 -0.022 7.812 1.125 C10 3 10 3 10.312 6.188 C10.158 7.58 10.158 7.58 10 9 C6.7 9 3.4 9 0 9 C0 6.03 0 3.06 0 0 Z " fill="#333E48" transform="translate(282,232)" />
  <path d="M0 0 C4.62 0 9.24 0 14 0 C12.68 0.33 11.36 0.66 10 1 C10 3.31 10 5.62 10 8 C4.375 9.125 4.375 9.125 1 8 C0.67 5.36 0.34 2.72 0 0 Z " fill="#333E48" transform="translate(122,152)" />
  <path d="M0 0 C2.31 0 4.62 0 7 0 C7.33 2.97 7.66 5.94 8 9 C2.614 10.317 2.614 10.317 0.062 9 C-1.59 5.89 -0.694 3.343 0 0 Z " fill="#333E48" transform="translate(279,151)" />
  <path d="M0 0 C2.31 0 4.62 0 7 0 C7 0.99 7 1.98 7 3 C4.69 3 2.38 3 0 3 C0 2.01 0 1.02 0 0 Z " fill="#000000" transform="translate(387,188)" />
  <path d="M0 0 C2.64 0 5.28 0 8 0 C7.67 0.99 7.34 1.98 7 3 C4.69 2.34 2.38 1.68 0 1 C0 0.67 0 0.34 0 0 Z " fill="#333E48" transform="translate(282,231)" />
  <path d="M0 0 C1.98 0.66 3.96 1.32 6 2 C6 2.99 6 3.98 6 5 C3.562 4.188 3.562 4.188 1 3 C0.67 2.01 0.34 1.02 0 0 Z " fill="#000000" transform="translate(404,275)" />
  <path d="M0 0 C2 1 2 1 2 1 Z " fill="#0071CE" transform="translate(113,152)" />
  <path d="M0 0 C2 1 2 1 2 1 Z " fill="#0071CE" transform="translate(286,151)" />
  <path d="M0 0 C4 1 4 1 4 1 Z " fill="#333E48" transform="translate(356,319)" />
  <path d="M0 0 C1 4 1 4 1 4 Z " fill="#0071CE" transform="translate(392,202)" />
  <path d="M0 0 C1 4 1 4 1 4 Z " fill="#0071CE" transform="translate(278,152)" />
  <path d="M0 0 C3 1 3 1 3 1 Z " fill="#FFB819" transform="translate(420,338)" />
  <path d="M0 0 C3 1 3 1 3 1 Z " fill="#A4A9AD" transform="translate(415,338)" />
  <path d="M0 0 C3 1 3 1 3 1 Z " fill="#0071CE" transform="translate(288,151)" />
  <path d="M0 0 C2 1 2 1 2 1 Z " fill="#FFB819" transform="translate(97,339)" />
  <path d="M0 0 C2 1 2 1 2 1 Z " fill="#0071CE" transform="translate(404,338)" />
  <path d="M0 0 C2 1 2 1 2 1 Z " fill="#333E48" transform="translate(369,323)" />
  <path d="M0 0 C2 1 2 1 2 1 Z " fill="#333E48" transform="translate(366,322)" />
  <path d="M0 0 C2 1 2 1 2 1 Z " fill="#333E48" transform="translate(364,321)" />
  <path d="M0 0 C2 1 2 1 2 1 Z " fill="#333E48" transform="translate(361,320)" />
</svg>