<?xml version='1.0' encoding='utf-8'?>
<svg xmlns="http://www.w3.org/2000/svg" width="512" height="512" viewBox="0 0 512 512" style="background-color:transparent">
  <path d="M0 0 C0.33 0 0.66 0 1 0 C1 5.94 1 11.88 1 18 C13.222 18.068 25.443 18.123 37.665 18.155 C43.339 18.171 49.014 18.192 54.688 18.226 C60.16 18.259 65.633 18.277 71.105 18.285 C73.197 18.29 75.288 18.301 77.38 18.317 C80.302 18.339 83.223 18.342 86.144 18.341 C87.016 18.351 87.888 18.362 88.786 18.373 C91.43 18.395 91.43 18.395 95 18 C95.99 16.515 95.99 16.515 97 15 C97.052 15.738 97.103 16.476 97.156 17.236 C99.465 50.236 101.827 83.23 104.688 116.188 C104.841 117.985 104.841 117.985 104.997 119.819 C105.287 123.207 105.586 126.594 105.887 129.98 C106.011 131.445 106.011 131.445 106.139 132.939 C106.531 144.047 106.531 144.047 111.438 153.188 C117.592 154.591 123.475 154.391 129.062 151.312 C134.926 144.314 133.489 134.117 132.805 125.559 C132.185 118.953 131.386 112.368 130.594 105.781 C130.346 103.667 130.1 101.553 129.854 99.439 C129.21 93.917 128.557 88.396 127.901 82.876 C126.849 74.015 125.809 65.153 124.774 56.29 C124.412 53.208 124.045 50.126 123.677 47.045 C123.454 45.153 123.232 43.261 123.01 41.369 C122.907 40.52 122.804 39.671 122.698 38.797 C122.159 34.16 121.899 29.668 122 25 C122.33 25 122.66 25 123 25 C124.854 35.675 126.322 46.347 127.438 57.125 C128.505 67.426 129.633 77.718 130.875 88 C130.957 88.678 131.039 89.357 131.123 90.056 C132.673 102.824 134.422 115.563 136.25 128.295 C137.709 138.509 139.002 148.73 140 159 C140.07 159.681 140.139 160.362 140.211 161.064 C141.48 174.053 140.423 186.723 139.25 199.688 C139.062 201.86 138.875 204.032 138.688 206.204 C138.145 212.471 137.578 218.736 137 225 C136.92 225.873 136.839 226.747 136.757 227.647 C134.297 254.301 134.297 254.301 133 259 C128.673 259.827 124.589 260.126 120.186 260.127 C119.196 260.129 119.196 260.129 118.185 260.132 C115.986 260.136 113.786 260.133 111.587 260.129 C110.005 260.131 108.423 260.133 106.841 260.135 C102.554 260.139 98.267 260.137 93.98 260.134 C89.493 260.132 85.006 260.134 80.519 260.136 C72.988 260.138 65.457 260.135 57.926 260.13 C49.214 260.125 40.503 260.127 31.791 260.132 C24.312 260.137 16.832 260.137 9.353 260.135 C4.885 260.133 0.418 260.133 -4.05 260.136 C-8.246 260.139 -12.443 260.137 -16.64 260.131 C-18.182 260.13 -19.724 260.13 -21.266 260.133 C-23.366 260.135 -25.467 260.132 -27.567 260.127 C-28.744 260.127 -29.921 260.126 -31.133 260.126 C-34 260 -34 260 -37 259 C-39.282 240.911 -41.33 222.799 -43.037 204.646 C-43.218 202.749 -43.403 200.852 -43.594 198.956 C-45.599 178.919 -44.515 159.591 -41.75 139.688 C-41.413 137.181 -41.08 134.673 -40.747 132.166 C-40.517 130.435 -40.286 128.705 -40.054 126.974 C-38.719 116.993 -37.516 106.997 -36.312 97 C-35.914 93.687 -35.514 90.375 -35.113 87.062 C-35.019 86.281 -34.924 85.499 -34.827 84.694 C-34.246 79.927 -33.627 75.166 -32.98 70.406 C-32.258 65.058 -31.606 59.706 -31 54.344 C-30.917 53.617 -30.835 52.89 -30.75 52.142 C-30.413 49.172 -30.077 46.202 -29.75 43.23 C-29.505 41.018 -29.253 38.806 -29 36.594 C-28.856 35.301 -28.711 34.009 -28.562 32.678 C-27.992 28.95 -27.114 25.594 -26 22 C-25.67 22 -25.34 22 -25 22 C-25.592 33.362 -26.794 44.61 -28.143 55.904 C-28.512 58.999 -28.876 62.095 -29.239 65.19 C-30.271 73.98 -31.313 82.768 -32.355 91.557 C-32.996 96.962 -33.632 102.367 -34.265 107.773 C-34.622 110.809 -34.985 113.845 -35.349 116.881 C-35.568 118.752 -35.787 120.624 -36.006 122.496 C-36.107 123.328 -36.209 124.16 -36.313 125.018 C-37.307 133.633 -38.071 142.055 -34 150 C-30.18 153.596 -25.105 154.122 -20 154 C-16.97 153.462 -15.69 152.757 -13 151 C-10.249 144.238 -10.223 136.795 -9.668 129.59 C-9.55 128.131 -9.432 126.671 -9.314 125.212 C-8.995 121.274 -8.686 117.334 -8.38 113.394 C-8.123 110.11 -7.861 106.827 -7.599 103.544 C-4.85 69.045 -2.389 34.525 0 0 Z M-17 192 C-17.635 195.123 -17.635 195.123 -17.566 198.715 C-17.573 199.367 -17.579 200.019 -17.585 200.691 C-17.592 202.069 -17.589 203.446 -17.576 204.824 C-17.563 206.928 -17.597 209.027 -17.635 211.131 C-17.636 212.471 -17.634 213.812 -17.629 215.152 C-17.63 216.369 -17.63 217.586 -17.631 218.84 C-17.253 222.05 -17.253 222.05 -15.186 224.166 C-10.362 226.943 -5.863 226.55 -0.388 226.502 C0.786 226.507 1.961 226.513 3.171 226.518 C6.384 226.528 9.596 226.521 12.809 226.504 C16.174 226.49 19.539 226.497 22.905 226.501 C28.555 226.503 34.204 226.49 39.854 226.467 C46.384 226.44 52.913 226.438 59.443 226.45 C65.729 226.461 72.015 226.455 78.301 226.44 C80.975 226.435 83.648 226.435 86.321 226.439 C90.054 226.442 93.785 226.426 97.518 226.404 C98.627 226.409 99.736 226.413 100.879 226.418 C101.895 226.408 102.912 226.398 103.959 226.388 C104.841 226.385 105.723 226.383 106.632 226.38 C109.53 225.915 110.907 225.038 113 223 C113.62 219.762 113.62 219.762 113.531 216.031 C113.535 215.355 113.539 214.678 113.543 213.981 C113.546 212.552 113.538 211.123 113.521 209.694 C113.5 207.507 113.521 205.323 113.547 203.137 C113.544 201.747 113.539 200.358 113.531 198.969 C113.524 197.073 113.524 197.073 113.518 195.139 C113.315 191.976 113.315 191.976 111.286 190.328 C108.591 188.762 107.015 188.623 103.914 188.619 C102.888 188.611 101.862 188.602 100.804 188.593 C99.124 188.603 99.124 188.603 97.41 188.612 C96.226 188.607 95.042 188.601 93.822 188.596 C90.578 188.585 87.335 188.588 84.091 188.597 C80.695 188.605 77.299 188.598 73.903 188.593 C68.2 188.587 62.497 188.595 56.794 188.609 C50.202 188.625 43.611 188.62 37.019 188.603 C31.358 188.59 25.697 188.588 20.036 188.596 C16.655 188.6 13.275 188.601 9.895 188.591 C6.126 188.584 2.358 188.595 -1.41 188.612 C-2.53 188.606 -3.65 188.6 -4.804 188.593 C-5.831 188.602 -6.857 188.61 -7.914 188.619 C-8.805 188.62 -9.696 188.621 -10.614 188.622 C-13.522 189.083 -14.898 189.959 -17 192 Z " fill="#0071CE" transform="translate(208,147)" />
  <path d="M0 0 C1.026 -0.008 2.052 -0.017 3.11 -0.026 C4.23 -0.02 5.35 -0.013 6.504 -0.007 C7.688 -0.012 8.872 -0.018 10.092 -0.023 C13.336 -0.034 16.58 -0.032 19.824 -0.022 C23.22 -0.014 26.616 -0.021 30.012 -0.026 C35.715 -0.032 41.417 -0.024 47.12 -0.01 C53.712 0.006 60.303 0.001 66.895 -0.016 C72.556 -0.029 78.217 -0.031 83.879 -0.023 C87.259 -0.019 90.639 -0.018 94.02 -0.028 C97.788 -0.036 101.556 -0.024 105.324 -0.007 C107.005 -0.016 107.005 -0.016 108.719 -0.026 C109.745 -0.017 110.771 -0.009 111.829 0 C112.719 0.001 113.61 0.002 114.528 0.003 C117.439 0.464 118.814 1.333 120.914 3.381 C121.432 6.52 121.432 6.52 121.446 10.35 C121.449 11.026 121.453 11.703 121.457 12.4 C121.46 13.829 121.453 15.258 121.436 16.687 C121.414 18.874 121.436 21.057 121.461 23.244 C121.459 24.634 121.453 26.023 121.446 27.412 C121.441 28.676 121.437 29.94 121.432 31.242 C120.914 34.381 120.914 34.381 119.197 36.053 C116.518 37.612 114.957 37.76 111.873 37.769 C110.857 37.779 109.841 37.788 108.793 37.799 C107.684 37.794 106.575 37.79 105.432 37.785 C104.259 37.792 103.087 37.799 101.878 37.806 C98.665 37.821 95.453 37.823 92.24 37.817 C89.556 37.814 86.872 37.82 84.188 37.826 C77.856 37.84 71.523 37.838 65.19 37.827 C58.661 37.816 52.133 37.83 45.603 37.856 C39.994 37.879 34.385 37.885 28.775 37.879 C25.426 37.876 22.078 37.878 18.729 37.896 C14.995 37.91 11.261 37.9 7.526 37.883 C5.865 37.897 5.865 37.897 4.171 37.912 C-3.288 37.84 -3.288 37.84 -7.272 35.547 C-9.812 32.513 -9.717 30.457 -9.715 26.533 C-9.717 25.88 -9.719 25.227 -9.722 24.554 C-9.721 23.178 -9.708 21.802 -9.683 20.427 C-9.648 18.321 -9.662 16.219 -9.681 14.113 C-9.674 12.774 -9.665 11.435 -9.652 10.096 C-9.641 8.88 -9.63 7.664 -9.619 6.412 C-9.086 3.381 -9.086 3.381 -7.37 1.715 C-4.675 0.141 -3.105 0.004 0 0 Z " fill="#333E48" transform="translate(200.085693359375,335.6190490722656)" />
  <path d="M0 0 C3.898 0.529 6.839 1.581 10.387 3.324 C12.233 6.175 12.783 8.861 13.246 12.195 C13.389 13.216 13.532 14.238 13.679 15.29 C13.906 17.008 13.906 17.008 14.137 18.762 C14.387 20.62 14.387 20.62 14.643 22.515 C16.839 39.074 18.629 55.686 20.475 72.287 C20.602 73.426 20.729 74.565 20.859 75.738 C20.986 76.876 21.112 78.014 21.243 79.186 C22.087 86.744 22.971 94.297 23.883 101.848 C24.118 103.809 24.353 105.771 24.588 107.732 C24.919 110.487 25.252 113.242 25.593 115.996 C29.073 144.074 29.073 144.074 25.387 152.324 C21.63 156.186 17.614 158.221 12.18 158.395 C8.113 158.165 6.111 157.9 2.825 155.289 C-0.178 151.637 -0.557 148.667 -0.868 144.117 C-0.942 143.301 -1.016 142.485 -1.092 141.644 C-1.332 138.935 -1.539 136.224 -1.746 133.512 C-1.909 131.586 -2.074 129.661 -2.241 127.736 C-2.678 122.632 -3.087 117.526 -3.49 112.42 C-3.813 108.396 -4.154 104.373 -4.497 100.351 C-6.308 79.106 -7.908 57.847 -9.355 36.574 C-9.421 35.63 -9.486 34.686 -9.553 33.714 C-9.951 27.919 -10.307 22.124 -10.613 16.324 C-10.721 14.453 -10.721 14.453 -10.831 12.545 C-10.886 10.943 -10.886 10.943 -10.942 9.309 C-10.977 8.424 -11.012 7.539 -11.048 6.628 C-9.885 0.468 -5.348 -0.256 0 0 Z " fill="#A4A9AD" transform="translate(314.61328125,143.67578125)" />
  <path d="M0 0 C1.034 -0.008 2.068 -0.015 3.133 -0.023 C5.875 0.375 5.875 0.375 7.53 1.422 C9.6 4.428 9.237 7.503 9.136 11.016 C9.124 11.772 9.112 12.528 9.1 13.307 C8.937 21.267 8.358 29.189 7.703 37.121 C7.579 38.688 7.455 40.255 7.332 41.823 C7.005 45.967 6.67 50.111 6.332 54.255 C5.983 58.558 5.641 62.861 5.298 67.165 C4.885 72.34 4.471 77.516 4.053 82.692 C3.23 92.896 2.43 103.101 1.656 113.309 C1.394 116.731 1.131 120.153 0.868 123.574 C0.707 125.674 0.549 127.774 0.393 129.874 C0.18 132.737 -0.042 135.599 -0.266 138.461 C-0.353 139.681 -0.353 139.681 -0.442 140.925 C-1.361 152.34 -1.361 152.34 -4.75 156.25 C-10.966 159.195 -15.883 158.532 -22.145 156.359 C-24.325 155.276 -25.593 154.263 -27.125 152.375 C-30.111 143.259 -29.175 134.456 -28.071 125.064 C-27.959 124.074 -27.847 123.084 -27.731 122.063 C-27.361 118.809 -26.983 115.555 -26.605 112.301 C-26.343 110.012 -26.081 107.724 -25.82 105.435 C-25.271 100.638 -24.718 95.841 -24.163 91.044 C-23.459 84.959 -22.761 78.873 -22.065 72.786 C-21.524 68.054 -20.98 63.323 -20.436 58.591 C-20.178 56.351 -19.921 54.111 -19.665 51.872 C-18.957 45.702 -18.235 39.535 -17.488 33.37 C-17.241 31.329 -16.996 29.288 -16.755 27.247 C-16.392 24.209 -16.014 21.173 -15.63 18.137 C-15.523 17.225 -15.417 16.313 -15.307 15.374 C-14.553 9.596 -13.636 5.324 -8.82 1.586 C-5.685 0.177 -3.427 -0.026 0 0 Z " fill="#A4A9AD" transform="translate(199.125,143.625)" />
  <path d="M0 0 C0.99 0.495 0.99 0.495 2 1 C4.524 9.753 3.694 20.318 1.145 28.949 C-0.46 31.824 -2.263 33.171 -5 35 C-8.131 35.501 -8.131 35.501 -11.718 35.501 C-12.711 35.51 -12.711 35.51 -13.725 35.518 C-15.937 35.532 -18.147 35.517 -20.359 35.502 C-21.948 35.505 -23.537 35.511 -25.125 35.518 C-29.435 35.532 -33.745 35.521 -38.055 35.504 C-42.566 35.491 -47.078 35.497 -51.589 35.501 C-59.165 35.503 -66.741 35.49 -74.316 35.467 C-83.074 35.44 -91.831 35.438 -100.589 35.45 C-109.015 35.461 -117.441 35.455 -125.867 35.44 C-129.452 35.435 -133.037 35.435 -136.622 35.439 C-140.845 35.444 -145.067 35.434 -149.289 35.412 C-150.838 35.407 -152.387 35.406 -153.936 35.411 C-156.052 35.417 -158.167 35.405 -160.282 35.388 C-161.466 35.385 -162.649 35.383 -163.869 35.38 C-167.336 34.959 -169.222 34.084 -172 32 C-176.193 23.915 -176.542 12.171 -173.98 3.582 C-173.657 2.73 -173.333 1.878 -173 1 C-172.01 1.33 -171.02 1.66 -170 2 C-169.34 5.3 -168.68 8.6 -168 12 C-147.095 12.154 -126.189 12.302 -105.284 12.443 C-95.577 12.509 -85.87 12.576 -76.164 12.648 C-67.704 12.711 -59.244 12.77 -50.785 12.825 C-46.305 12.854 -41.825 12.885 -37.345 12.921 C-33.129 12.954 -28.913 12.982 -24.696 13.007 C-23.149 13.017 -21.601 13.028 -20.053 13.042 C-17.94 13.06 -15.827 13.072 -13.713 13.082 C-12.531 13.091 -11.348 13.099 -10.13 13.107 C-7.29 13.01 -4.757 12.656 -2 12 C-2.041 10.948 -2.082 9.896 -2.125 8.812 C-2.009 5.26 -1.528 3.151 0 0 Z " fill="#A4A9AD" transform="translate(342,411)" />
  <path d="M0 0 C3.389 -0.022 6.778 -0.038 10.166 -0.051 C11.195 -0.058 12.223 -0.066 13.282 -0.074 C14.216 -0.076 15.149 -0.078 16.111 -0.08 C16.932 -0.084 17.753 -0.088 18.599 -0.092 C20.469 0.025 20.469 0.025 21.469 1.025 C21.542 3.888 21.562 6.726 21.532 9.588 C21.527 10.394 21.523 11.2 21.518 12.031 C21.506 14.029 21.488 16.027 21.469 18.025 C18.3 19.082 16.12 19.134 12.794 19.108 C11.02 19.097 11.02 19.097 9.211 19.086 C7.913 19.073 6.615 19.06 5.277 19.047 C3.897 19.037 2.518 19.027 1.138 19.018 C-2.61 18.991 -6.357 18.959 -10.105 18.925 C-14.021 18.89 -17.937 18.862 -21.852 18.833 C-29.268 18.776 -36.684 18.715 -44.1 18.652 C-52.543 18.58 -60.985 18.514 -69.428 18.449 C-86.796 18.314 -104.163 18.172 -121.531 18.025 C-121.531 12.415 -121.531 6.805 -121.531 1.025 C-106.56 0.894 -91.589 0.763 -76.618 0.634 C-69.664 0.574 -62.71 0.514 -55.756 0.452 C-49.026 0.393 -42.296 0.335 -35.565 0.277 C-33.017 0.255 -30.469 0.233 -27.921 0.21 C-18.614 0.128 -9.307 0.067 0 0 Z " fill="#FFFFFF" transform="translate(305.5307922363281,405.9747619628906)" />
  <path d="M0 0 C31.35 0 62.7 0 95 0 C95 6.27 95 12.54 95 19 C63.65 18.67 32.3 18.34 0 18 C0 12.06 0 6.12 0 0 Z " fill="#0071CE" transform="translate(209,147)" />
  <path d="M0 0 C1.973 3.115 2.514 6.265 2.188 9.875 C0.904 12.806 -0.23 13.723 -2.812 15.875 C-6.934 16.611 -8.984 16.307 -12.688 14.375 C-15.541 11.017 -16.107 8.236 -15.812 3.875 C-14.521 0.575 -13.497 -0.699 -10.5 -2.562 C-6.367 -3.428 -3.517 -2.183 0 0 Z " fill="#A4A9AD" transform="translate(205.8125,127.125)" />
  <path d="M0 0 C2.761 2.404 2.972 3.777 3.438 7.438 C2.911 11.722 2.327 13.241 -1 16 C-4.094 17.091 -6.745 17.486 -10 17 C-13.442 14.12 -14.813 12.337 -15.438 7.875 C-14.74 3.294 -14.74 3.294 -13 1 C-8.176 -2.365 -5.353 -2.323 0 0 Z " fill="#A4A9AD" transform="translate(319,126)" />
  <path d="M0 0 C0.216 5.936 -0.288 11.288 -2 17 C-3 18 -3 18 -5.504 18.098 C-8.336 18.065 -11.168 18.033 -14 18 C-14 12.39 -14 6.78 -14 1 C-9.046 0.381 -4.871 -0.122 0 0 Z " fill="#FFB819" transform="translate(341,406)" />
  <path d="M0 0 C4.29 0.33 8.58 0.66 13 1 C13 6.61 13 12.22 13 18 C11.391 18.062 9.782 18.124 8.125 18.188 C7.22 18.222 6.315 18.257 5.383 18.293 C4.203 18.148 4.203 18.148 3 18 C0.599 14.398 0.562 11.491 0.375 7.312 C0.336 6.611 0.298 5.909 0.258 5.186 C0.164 3.457 0.081 1.729 0 0 Z " fill="#FFB819" transform="translate(171,406)" />
  <path d="M0 0 C2 1 2 1 2 1 Z " fill="#000000" transform="translate(308,143)" />
</svg>