<?xml version='1.0' encoding='utf-8'?>
<svg xmlns="http://www.w3.org/2000/svg" width="512" height="512" viewBox="0 0 512 512" style="background-color:transparent">
  <path d="M0 0 C0.412 0.639 0.825 1.279 1.25 1.938 C3.956 5.126 6.957 5.205 11 6 C11.33 4.02 11.66 2.04 12 0 C13.98 -0.33 15.96 -0.66 18 -1 C18.99 0.485 18.99 0.485 20 2 C20.536 1.691 21.072 1.381 21.625 1.062 C24.398 -0.178 27 -0.591 30 -1 C30.103 -0.361 30.206 0.279 30.312 0.938 C30.539 1.618 30.766 2.299 31 3 C31.99 3.33 32.98 3.66 34 4 C38.531 8.531 40.974 13.71 43.668 19.488 C44.751 22.117 44.751 22.117 47 23 C50.186 27.99 51.77 33.259 53 39 C53.66 39 54.32 39 55 39 C59.83 53.31 62.737 68.084 65 83 C65.66 83 66.32 83 67 83 C68.354 84.63 68.354 84.63 69.906 86.918 C70.48 87.754 71.054 88.59 71.646 89.451 C72.258 90.354 72.87 91.257 73.5 92.188 C78.404 99.317 83.418 106.284 88.75 113.098 C91.662 116.854 94.443 120.699 97.211 124.562 C100.739 129.881 100.739 129.881 106 133 C105 136 105 136 103.266 136.875 C102.53 137.105 101.794 137.334 101.035 137.57 C99.835 137.955 99.835 137.955 98.611 138.348 C97.35 138.732 97.35 138.732 96.062 139.125 C94.407 139.647 92.752 140.171 91.098 140.695 C90.36 140.922 89.623 141.149 88.864 141.383 C86.939 141.971 86.939 141.971 85 143 C83.81 162.43 92.401 183.412 101.799 199.96 C102.423 201.065 102.423 201.065 103.059 202.191 C103.433 202.833 103.807 203.474 104.193 204.135 C105 206 105 206 105 210 C94.786 214 84.541 217.434 73.991 220.43 C66.877 222.467 59.813 224.61 52.906 227.273 C50.699 228.115 48.481 228.912 46.25 229.688 C45.533 229.939 44.817 230.19 44.078 230.449 C42 231 42 231 38 231 C38.058 229.759 38.116 228.517 38.176 227.238 C38.223 225.596 38.268 223.954 38.312 222.312 C38.354 221.496 38.396 220.679 38.439 219.838 C38.528 215.458 38.496 213.625 35.688 210.086 C34.357 209.053 34.357 209.053 33 208 C32.406 207.501 31.811 207.002 31.199 206.488 C30.451 205.906 30.451 205.906 29.688 205.312 C28.801 204.549 27.914 203.786 27 203 C27 202.34 27 201.68 27 201 C26.34 201 25.68 201 25 201 C23.73 199.707 23.73 199.707 22.188 197.812 C17.299 192.049 11.917 186.761 6.491 181.506 C5.093 180.094 3.81 178.57 2.539 177.043 C0.125 174.668 0.125 174.668 -3.219 174.973 C-8.599 176.434 -13.809 178.343 -18.973 180.443 C-19.776 180.729 -20.579 181.014 -21.406 181.309 C-22.478 181.723 -22.478 181.723 -23.572 182.146 C-27.75 181.895 -30.11 178.823 -33 176 C-33.61 175.412 -34.221 174.824 -34.85 174.219 C-36.813 172.302 -38.751 170.362 -40.684 168.414 C-41.384 167.712 -42.084 167.01 -42.806 166.287 C-45.019 164.069 -47.228 161.847 -49.438 159.625 C-50.947 158.11 -52.457 156.596 -53.967 155.082 C-57.647 151.391 -61.325 147.696 -65 144 C-64.582 143.457 -64.165 142.914 -63.734 142.355 C-63.19 141.639 -62.645 140.923 -62.083 140.186 C-61.271 139.124 -61.271 139.124 -60.443 138.041 C-56.867 132.984 -56.634 127.598 -56.375 121.625 C-56.336 120.889 -56.298 120.153 -56.258 119.395 C-56.164 117.597 -56.081 115.798 -56 114 C-57.32 114 -58.64 114 -60 114 C-60.049 114.831 -60.098 115.663 -60.148 116.52 C-60.261 118.15 -60.261 118.15 -60.375 119.812 C-60.445 120.891 -60.514 121.97 -60.586 123.082 C-61 126 -61 126 -63 129 C-67.432 130.958 -71.19 131.527 -76 131 C-78.568 129.435 -80.581 127.444 -82.688 125.312 C-83.242 124.782 -83.797 124.252 -84.369 123.705 C-89.551 118.683 -93.443 113.672 -96.438 107.062 C-96.735 106.412 -97.032 105.761 -97.338 105.09 C-105.706 86.446 -105.706 86.446 -104 78 C-102.515 77.505 -102.515 77.505 -101 77 C-101.365 71.336 -102.055 66.993 -105 62 C-109.11 62.505 -109.11 62.505 -112.875 64.094 C-115.692 65.295 -117.301 64.823 -120.25 64.125 C-121.142 63.921 -122.034 63.718 -122.953 63.508 C-123.629 63.34 -124.304 63.173 -125 63 C-125.33 61.02 -125.66 59.04 -126 57 C-122.565 54.71 -121.015 54.822 -117 55 C-116.773 54.381 -116.546 53.762 -116.312 53.125 C-114.59 50.337 -113.035 50.132 -110 49 C-108.47 48.268 -106.95 47.518 -105.438 46.75 C-104.562 46.308 -103.687 45.866 -102.785 45.41 C-101.866 44.945 -100.947 44.479 -100 44 C-97.111 42.553 -94.22 41.11 -91.328 39.668 C-88.938 38.47 -86.553 37.265 -84.172 36.051 C-75.571 31.683 -66.903 27.722 -58 24 C-53.538 22.075 -49.138 20.091 -44.812 17.875 C-39.908 15.403 -35.577 13.672 -30 14 C-29.67 13.01 -29.34 12.02 -29 11 C-23.751 7.282 -19.372 6.289 -13 6 C-12.67 5.01 -12.34 4.02 -12 3 C-10.293 1.797 -10.293 1.797 -8.188 0.75 C-7.5 0.394 -6.813 0.038 -6.105 -0.328 C-3.613 -1.123 -2.409 -0.969 0 0 Z M12.43 6.301 C10.591 7.025 10.591 7.025 8.715 7.764 C8.084 8.018 7.454 8.273 6.804 8.535 C4.878 9.311 2.946 10.07 1.012 10.826 C-6.472 13.577 -6.472 13.577 -13 18 C-18.447 34.34 -8.58 58.601 -1.566 73.242 C2.512 81.37 6.811 89.268 13 96 C13.574 96.652 14.147 97.305 14.738 97.977 C18.489 102.018 21.665 104.476 27 106 C33.889 105.663 39.933 102.913 46.25 100.312 C47.338 99.89 48.426 99.468 49.547 99.033 C55.559 96.609 55.559 96.609 60.215 92.277 C61.27 87.872 61.406 83.765 61.312 79.25 C61.3 78.35 61.287 77.451 61.274 76.524 C61.141 70.454 60.784 64.831 59 59 C58.817 58.375 58.634 57.75 58.445 57.105 C54.044 42.244 48.159 28.866 39 16.312 C38.526 15.653 38.052 14.993 37.564 14.314 C34.159 9.846 30.304 6.088 25 4 C20.254 3.546 16.828 4.56 12.43 6.301 Z " fill="#000000" transform="translate(237,161)" />
  <path d="M0 0 C6.853 4.525 10.549 11.128 14.752 17.983 C16.929 21.501 19.186 24.967 21.438 28.438 C22.137 29.52 22.137 29.52 22.852 30.624 C26.169 35.745 29.539 40.829 32.938 45.896 C37.607 52.875 42.171 59.922 46.735 66.969 C49.346 70.988 51.954 74.991 54.762 78.875 C56.665 81.532 58.329 84.197 60 87 C60.991 88.556 61.99 90.106 62.996 91.652 C63.555 92.512 64.114 93.371 64.689 94.256 C65.266 95.141 65.843 96.026 66.438 96.938 C67.01 97.819 67.583 98.7 68.174 99.607 C70.512 103.2 72.85 106.789 75.262 110.332 C76.841 112.756 78.139 115.138 79.375 117.75 C81.067 121.238 82.908 124.488 85 127.75 C92.459 140.1 94.771 154.33 97.479 168.282 C99.438 178.282 101.216 186.918 107.652 195.101 C109 197 109 197 109 199 C109.66 199 110.32 199 111 199 C112.215 200.724 113.348 202.506 114.438 204.312 C116.425 207.597 118.278 210.317 121 213 C121.906 214.879 122.81 216.758 123.707 218.641 C125.209 221.382 126.986 223.76 128.875 226.25 C138.36 239.226 143 253.764 143 270 C141.68 270 140.36 270 139 270 C139.33 273.96 139.66 277.92 140 282 C138.02 282.66 136.04 283.32 134 284 C133.986 283.305 133.972 282.61 133.957 281.895 C133.063 262.822 127.135 244.451 118.344 227.602 C117.307 225.594 116.315 223.563 115.344 221.523 C110.814 211.978 110.814 211.978 104 204 C100.884 202.782 100.884 202.782 98 203 C95.142 205.858 95.592 208.147 95.375 212.125 C95.263 214.047 95.263 214.047 95.148 216.008 C95.075 217.489 95.075 217.489 95 219 C90.932 217.477 88.869 214.634 86.375 211.25 C85.941 210.674 85.507 210.097 85.06 209.503 C81.15 204.279 77.365 198.965 73.594 193.641 C70.79 189.69 67.93 185.78 65.062 181.875 C64.602 181.247 64.141 180.62 63.666 179.973 C61.866 177.524 60.065 175.083 58.184 172.695 C57 171 57 171 57 169 C56.34 169 55.68 169 55 169 C52.776 165.313 52.273 161.432 51.625 157.25 C50.418 149.907 48.779 142.775 46.867 135.586 C46.01 132.041 45.455 128.614 45 125 C44.34 125 43.68 125 43 125 C42.184 123.085 41.372 121.168 40.562 119.25 C39.884 117.649 39.884 117.649 39.191 116.016 C38 113 38 113 37.527 110.672 C37.353 110.12 37.179 109.568 37 109 C36.01 108.67 35.02 108.34 34 108 C32.469 105.168 31.151 102.317 29.869 99.367 C27.657 94.591 25.119 92.25 21 89 C20.67 88.01 20.34 87.02 20 86 C16.625 86.547 14.918 87.055 12 89 C9 88 9 88 7 86 C4.416 85.833 4.416 85.833 2 86 C1.67 87.98 1.34 89.96 1 92 C-6.459 91.389 -6.459 91.389 -9 89.562 C-10 88 -10 88 -10 86 C-14.75 86.466 -18.122 87.148 -22 90 C-22.33 90.66 -22.66 91.32 -23 92 C-25.328 92.746 -25.328 92.746 -28.25 93.438 C-32.272 94.472 -35.653 95.434 -39 98 C-39.33 98.66 -39.66 99.32 -40 100 C-42.109 100.527 -42.109 100.527 -44.75 100.938 C-48.824 101.682 -51.553 102.642 -55 105 C-56.282 105.685 -57.575 106.35 -58.875 107 C-59.491 107.309 -60.107 107.619 -60.742 107.938 C-63.794 109.373 -66.897 110.681 -70 112 C-73.878 113.66 -77.752 115.329 -81.625 117 C-82.649 117.438 -83.672 117.877 -84.727 118.328 C-85.717 118.756 -86.707 119.184 -87.727 119.625 C-88.619 120.009 -89.512 120.393 -90.432 120.789 C-93.074 122.035 -95.513 123.471 -98 125 C-99.886 125.977 -101.783 126.934 -103.688 127.875 C-104.736 128.394 -105.784 128.914 -106.863 129.449 C-107.898 129.961 -108.934 130.473 -110 131 C-112.602 132.299 -115.202 133.601 -117.801 134.906 C-119.71 135.856 -121.635 136.775 -123.562 137.688 C-126.122 138.764 -126.122 138.764 -127 141 C-128.848 141.633 -128.848 141.633 -131.062 142.125 C-132.163 142.376 -132.163 142.376 -133.285 142.633 C-133.851 142.754 -134.417 142.875 -135 143 C-135 144.98 -135 146.96 -135 149 C-133.02 149 -131.04 149 -129 149 C-128.505 149.99 -128.505 149.99 -128 151 C-131.465 151.99 -131.465 151.99 -135 153 C-135.33 152.01 -135.66 151.02 -136 150 C-137.98 150 -139.96 150 -142 150 C-142 151.98 -142 153.96 -142 156 C-141.34 156.33 -140.68 156.66 -140 157 C-143 158 -143 158 -146 157 C-147.353 155.013 -148.686 153.013 -150 151 C-150.99 150.34 -151.98 149.68 -153 149 C-138.021 140.779 -122.601 133.56 -107.126 126.337 C-98.872 122.481 -90.645 118.565 -82.419 114.648 C-69.759 108.622 -57.093 102.607 -44.404 96.642 C-43.083 96.02 -41.762 95.398 -40.442 94.776 C-33.821 91.653 -27.176 88.59 -20.465 85.664 C-19.363 85.183 -18.26 84.701 -17.125 84.206 C-13.39 82.765 -9.742 81.923 -5.793 81.324 C-3.983 81.173 -3.983 81.173 -3 80 C-2.525 77.307 -2.231 74.72 -2 72 C-1.875 70.96 -1.75 69.919 -1.621 68.848 C-0.779 56.97 -5.838 50.402 -12.984 41.539 C-14.889 39.715 -14.889 39.715 -17.319 40.271 C-20.02 41.005 -22.375 41.942 -24.909 43.128 C-25.876 43.579 -26.843 44.031 -27.839 44.496 C-28.882 44.992 -29.925 45.489 -31 46 C-32.082 46.514 -33.163 47.028 -34.278 47.557 C-38.01 49.343 -41.735 51.143 -45.457 52.949 C-46.154 53.287 -46.851 53.625 -47.569 53.973 C-66.747 63.28 -85.798 72.842 -104.855 82.393 C-109.644 84.793 -114.435 87.19 -119.225 89.588 C-126.914 93.437 -134.602 97.287 -142.289 101.139 C-146.192 103.095 -150.095 105.048 -154 107 C-152.412 101.399 -149.763 96.61 -146.938 91.562 C-146.204 90.247 -146.204 90.247 -145.456 88.904 C-143.979 86.265 -142.491 83.632 -141 81 C-140.571 80.237 -140.143 79.474 -139.701 78.688 C-138.544 76.637 -137.37 74.598 -136.188 72.562 C-135.852 71.967 -135.516 71.372 -135.17 70.758 C-131.156 63.98 -125.218 60.299 -118.5 56.625 C-117.807 56.241 -117.113 55.856 -116.399 55.46 C-108.607 51.176 -100.716 46.99 -92.52 43.531 C-88.972 41.988 -85.64 40.239 -82.25 38.375 C-76.528 35.265 -70.722 32.423 -64.812 29.688 C-57.031 26.073 -49.503 22.098 -42.025 17.893 C-37.151 15.156 -32.223 12.597 -27.212 10.121 C-24.702 8.849 -22.314 7.442 -19.938 5.938 C-6.161 -2.411 -6.161 -2.411 0 0 Z M-31.059 13.738 C-31.844 14.14 -32.629 14.542 -33.438 14.957 C-34.323 15.405 -35.209 15.853 -36.121 16.315 C-37.546 17.056 -37.546 17.056 -39 17.812 C-39.982 18.314 -40.963 18.815 -41.975 19.331 C-44.99 20.875 -47.996 22.435 -51 24 C-51.875 24.455 -52.75 24.909 -53.652 25.378 C-60.443 28.914 -67.208 32.498 -73.953 36.121 C-75.198 36.789 -76.443 37.457 -77.688 38.125 C-78.287 38.447 -78.887 38.769 -79.505 39.1 C-84.006 41.501 -88.555 43.795 -93.125 46.062 C-95.11 47.053 -97.094 48.045 -99.078 49.039 C-100.346 49.673 -101.616 50.305 -102.887 50.934 C-115.166 57.046 -119.877 64.107 -126 76 C-125.34 76.33 -124.68 76.66 -124 77 C-121.709 76.153 -121.709 76.153 -119.117 74.794 C-118.098 74.285 -117.078 73.777 -116.028 73.253 C-114.916 72.689 -113.805 72.124 -112.66 71.543 C-110.934 70.677 -110.934 70.677 -109.173 69.795 C-106.091 68.249 -103.014 66.693 -99.938 65.135 C-97.487 63.896 -95.032 62.665 -92.577 61.433 C-80.691 55.47 -68.829 49.466 -57.096 43.207 C-52.858 40.95 -48.583 38.796 -44.253 36.718 C-34.995 32.768 -34.995 32.768 -28 26 C-26.89 22.02 -26.326 18.113 -26 14 C-28.85 12.707 -28.85 12.707 -31.059 13.738 Z M6 22 C5.597 24.67 5.277 27.315 5 30 C4.885 30.844 4.771 31.689 4.652 32.559 C4.015 40.546 6.87 44.802 11.562 51.041 C13.888 54.209 16.069 57.474 18.271 60.729 C20.199 63.58 22.141 66.422 24.086 69.262 C26.672 73.044 29.238 76.838 31.789 80.645 C32.68 81.967 32.68 81.967 33.589 83.316 C34.719 84.994 35.844 86.676 36.964 88.362 C37.467 89.106 37.97 89.85 38.488 90.617 C38.927 91.273 39.366 91.929 39.818 92.605 C40.208 93.065 40.598 93.526 41 94 C41.66 94 42.32 94 43 94 C43.068 90.665 43.042 87.336 43 84 C42.999 82.999 42.998 81.997 42.997 80.965 C42.708 72.431 40.555 67.208 35.699 60.281 C35.066 59.335 34.434 58.389 33.782 57.413 C31.775 54.425 29.732 51.463 27.688 48.5 C26.326 46.483 24.968 44.465 23.611 42.445 C16.818 31.825 16.818 31.825 9 22 C8.01 22 7.02 22 6 22 Z M2 46 C1.369 53.625 2.759 57.466 7.25 63.562 C7.987 64.646 7.987 64.646 8.738 65.752 C10.678 68.545 10.678 68.545 13 71 C14.32 71 15.64 71 17 71 C17.157 61.73 12.334 56.067 7 49 C6.34 48.01 5.68 47.02 5 46 C4.01 46 3.02 46 2 46 Z M57 96 C56.446 113.649 60.816 123.837 70.938 138 C72.135 139.687 73.332 141.374 74.527 143.062 C75.105 143.876 75.682 144.689 76.277 145.527 C78.535 148.767 80.695 152.067 82.838 155.383 C83.222 155.916 83.605 156.45 84 157 C84.33 157 84.66 157 85 157 C84.808 153.87 84.582 150.749 84.312 147.625 C84.124 145.441 83.968 143.253 83.875 141.062 C83.033 131.591 77.904 124.896 72.607 117.323 C70.923 114.889 69.294 112.424 67.676 109.945 C66.596 108.297 65.517 106.648 64.438 105 C63.925 104.216 63.413 103.432 62.885 102.625 C62.406 101.903 61.927 101.181 61.434 100.438 C61.011 99.797 60.589 99.156 60.154 98.496 C59.054 96.846 59.054 96.846 57 96 Z M61 128 C60.407 134.947 61.924 138.646 65.75 144.375 C66.193 145.085 66.637 145.796 67.094 146.527 C69.429 150.146 70.951 152.268 75 154 C76.05 146.127 73.751 142.065 69.18 135.688 C66.668 132.59 64.257 130.28 61 128 Z " fill="#0071CE" transform="translate(247,75)" />
  <path d="M0 0 C0 1.65 0 3.3 0 5 C0.652 4.893 1.305 4.786 1.977 4.676 C7.587 3.906 11.124 3.67 16 7 C17.875 8.687 17.875 8.687 19 10 C19.99 8.68 20.98 7.36 22 6 C27.909 12.795 27.584 19.343 27 28 C26.95 29.274 26.95 29.274 26.898 30.574 C26.684 33.633 26.522 35.504 24.248 37.663 C21.758 39.144 20.149 39.426 17.285 39.711 C9.012 41.054 1.893 44.969 -5.562 48.625 C-7.156 49.394 -8.75 50.161 -10.345 50.927 C-13.627 52.505 -16.906 54.089 -20.183 55.676 C-26.775 58.864 -33.404 61.974 -40.034 65.082 C-42.84 66.398 -45.645 67.718 -48.449 69.038 C-54.829 72.042 -61.213 75.038 -67.598 78.031 C-73.959 81.014 -80.316 84.006 -86.668 87.01 C-90.255 88.706 -93.845 90.397 -97.439 92.079 C-101.069 93.778 -104.693 95.49 -108.313 97.211 C-109.672 97.855 -111.033 98.494 -112.397 99.128 C-114.278 100.005 -116.151 100.897 -118.023 101.793 C-119.085 102.293 -120.146 102.794 -121.24 103.309 C-124.276 105.169 -125.88 107.174 -128 110 C-130.375 111.062 -130.375 111.062 -133 111 C-138.352 108.208 -144.265 103.47 -147 98 C-147.075 90.318 -145.632 81.069 -140.379 75.184 C-135.627 71.4 -130.099 69.052 -124.539 66.688 C-123.701 66.131 -122.863 65.574 -122 65 C-121.824 64.09 -121.647 63.18 -121.465 62.242 C-119.157 57.135 -114.919 55.802 -110.018 53.441 C-108.98 52.922 -107.942 52.402 -106.873 51.867 C-103.435 50.151 -99.984 48.464 -96.531 46.777 C-94.136 45.589 -91.741 44.399 -89.348 43.207 C-83.68 40.388 -78.002 37.591 -72.32 34.8 C-65.893 31.642 -59.477 28.462 -53.062 25.279 C-42.075 19.829 -31.081 14.396 -20.076 8.982 C-19.156 8.53 -18.237 8.077 -17.289 7.611 C-16.413 7.181 -15.537 6.75 -14.634 6.307 C-12.806 5.4 -10.983 4.481 -9.165 3.552 C-8.264 3.093 -7.364 2.634 -6.436 2.161 C-5.228 1.538 -5.228 1.538 -3.995 0.903 C-2 0 -2 0 0 0 Z " fill="#A4A9AD" transform="translate(219,119)" />
  <path d="M0 0 C18.403 11.64 27.432 37.265 32.832 57.215 C33.931 62.894 34.048 68.511 34.082 74.277 C34.103 75.149 34.123 76.021 34.145 76.92 C34.176 82.038 34.093 86.031 30.832 90.215 C27.908 91.998 24.844 93.199 21.645 94.402 C20.819 94.732 19.993 95.061 19.143 95.4 C16.714 96.363 14.275 97.29 11.832 98.215 C11.083 98.514 10.334 98.813 9.562 99.122 C4.772 101.012 1.87 101.614 -3.168 100.215 C-20.55 90.969 -30.039 68.493 -35.759 50.552 C-43.942 23.551 -43.942 23.551 -40.365 14.091 C-36.72 8.377 -25.626 5.865 -19.543 3.465 C-18.027 2.848 -18.027 2.848 -16.48 2.219 C-15.498 1.831 -14.516 1.443 -13.504 1.043 C-12.623 0.691 -11.741 0.34 -10.833 -0.022 C-7.088 -1.094 -3.691 -1.337 0 0 Z M2.832 21.215 C-0.498 28.039 1.256 35.293 3.494 42.281 C6.445 50.436 10.328 60.286 17.832 65.215 C20.502 65.182 20.502 65.182 22.832 64.215 C26.281 57.316 22.75 48.031 20.53 41.152 C17.755 33.448 14.029 25.533 6.832 21.215 C5.512 21.215 4.192 21.215 2.832 21.215 Z " fill="#333E48" transform="translate(264.16796875,165.78515625)" />
  <path d="M0 0 C5.191 1.532 7.923 4.61 10.812 9.125 C10.812 10.115 10.812 11.105 10.812 12.125 C11.472 12.125 12.132 12.125 12.812 12.125 C19.864 25.791 25.127 39.194 28.812 54.125 C28.996 54.806 29.179 55.486 29.368 56.188 C30.042 59.126 29.984 61.991 30 65 C30.014 66.194 30.028 67.387 30.043 68.617 C29.769 72.78 29.242 76.435 26.484 79.696 C23.508 82.241 19.86 83.103 16.188 84.312 C15.418 84.585 14.648 84.858 13.855 85.139 C8.571 86.904 3.376 88.224 -2.188 87.125 C-18.061 77.047 -25.181 48.274 -29.188 31.125 C-29.574 28.8 -29.92 26.467 -30.188 24.125 C-30.278 23.357 -30.368 22.588 -30.461 21.797 C-30.562 19.875 -30.562 19.875 -30.188 16.125 C-25.781 12.656 -20.33 11.604 -14.982 10.283 C-10.946 9.15 -9.496 8.521 -6.816 5.082 C-6.279 4.106 -5.741 3.13 -5.188 2.125 C-3.188 0.125 -3.188 0.125 0 0 Z M4.812 19.125 C1.916 30.711 7.661 43.892 13.312 53.875 C15.062 56.518 15.524 57.022 18.625 58.125 C19.347 58.125 20.069 58.125 20.812 58.125 C23.98 51.791 20.742 43.421 18.812 37.125 C16.446 30.4 14.13 24.033 8.812 19.125 C7.493 19.125 6.173 19.125 4.812 19.125 Z " fill="#333E48" transform="translate(351.1875,287.875)" />
  <path d="M0 0 C5.91 1.773 8.572 4.204 11.777 9.469 C13.748 13.55 14.538 17.515 15 22 C15.082 22.749 15.165 23.498 15.25 24.27 C15.441 27.492 15.405 29.475 13.402 32.072 C10.441 34.448 7.814 35.337 4.188 36.467 C3.508 36.682 2.828 36.898 2.128 37.12 C-0.126 37.832 -2.385 38.525 -4.645 39.219 C-6.238 39.718 -7.832 40.218 -9.425 40.72 C-13.674 42.053 -17.928 43.372 -22.182 44.686 C-26.555 46.039 -30.923 47.404 -35.292 48.768 C-41.303 50.642 -47.314 52.511 -53.328 54.374 C-61.685 56.963 -70.029 59.587 -78.363 62.25 C-80.998 63.086 -83.634 63.92 -86.27 64.752 C-87.82 65.244 -89.368 65.741 -90.915 66.242 C-106.786 71.373 -106.786 71.373 -114 70 C-116.727 68.469 -116.727 68.469 -118.625 66.5 C-119.277 65.85 -119.93 65.201 -120.602 64.531 C-121.063 64.026 -121.525 63.521 -122 63 C-121.67 62.01 -121.34 61.02 -121 60 C-119.608 59.412 -119.608 59.412 -118.188 58.812 C-114.661 56.807 -114.737 56.7 -113.609 53.184 C-111.652 49.091 -109.558 48.005 -105.348 46.453 C-102.929 45.688 -100.499 44.956 -98.062 44.25 C-96.75 43.847 -95.438 43.441 -94.127 43.032 C-91.294 42.151 -88.455 41.285 -85.615 40.425 C-80.69 38.921 -75.808 37.296 -70.926 35.66 C-68.403 34.82 -65.88 33.98 -63.357 33.14 C-61.706 32.59 -60.055 32.037 -58.405 31.481 C-56.083 30.703 -53.757 29.938 -51.43 29.176 C-50.736 28.94 -50.043 28.704 -49.328 28.461 C-43.347 26.527 -43.347 26.527 -40 28 C-39.257 28.536 -38.515 29.072 -37.75 29.625 C-32.195 32.403 -25.607 29.743 -19.996 27.877 C-19.214 27.608 -18.431 27.339 -17.625 27.062 C-16.819 26.798 -16.014 26.533 -15.184 26.26 C-10.685 24.829 -10.685 24.829 -7 22 C-6.236 19.947 -5.606 17.875 -4.977 15.777 C-4 14 -4 14 -1.898 13.254 C-1.272 13.17 -0.645 13.086 0 13 C-0.084 12.145 -0.168 11.291 -0.254 10.41 C-0.407 8.753 -0.407 8.753 -0.562 7.062 C-0.719 5.409 -0.719 5.409 -0.879 3.723 C-0.939 2.375 -0.939 2.375 -1 1 C-0.67 0.67 -0.34 0.34 0 0 Z " fill="#A4A9AD" transform="translate(386,344)" />
  <path d="M0 0 C3.579 1.984 4.623 6.207 5.719 9.953 C5.594 13.453 5.594 13.453 4.719 15.953 C4.059 16.283 3.399 16.613 2.719 16.953 C0.806 23.5 2.844 28.189 5.344 34.328 C5.86 35.67 5.86 35.67 6.387 37.039 C10.57 47.659 15.711 55.789 23.719 63.953 C24.544 64.816 24.544 64.816 25.387 65.695 C28 68.175 29.618 68.941 33.219 69.391 C38.197 68.879 38.197 68.879 42.719 66.953 C43.887 64.02 44.305 61.071 44.719 57.953 C45.028 56.437 45.028 56.437 45.344 54.891 C45.529 53.932 45.529 53.932 45.719 52.953 C47.039 52.953 48.359 52.953 49.719 52.953 C52.187 57.89 50.45 66.001 49.156 71.223 C46.556 77.769 42.845 81.719 36.516 84.508 C34.507 85.3 32.491 86.073 30.469 86.828 C28.97 87.431 28.97 87.431 27.441 88.047 C20.024 90.897 13.273 92.673 5.719 89.453 C-10.614 80.166 -19.449 62.295 -24.555 44.891 C-27.067 34.733 -28.586 22.365 -23.281 12.953 C-19.526 8.317 -14.311 5.723 -9.094 3.016 C-8.487 2.697 -7.881 2.377 -7.257 2.049 C-4.776 0.824 -2.793 -0.057 0 0 Z " fill="#333E48" transform="translate(131.28125,222.046875)" />
  <path d="M0 0 C0.034 0.547 0.069 1.094 0.104 1.658 C1.524 22.736 5.402 46.358 21.879 61.293 C24.501 63.403 27.1 65.29 30 67 C24.114 70.924 14.672 74.677 7.5 74.125 C-3.117 70.712 -8.06 61.868 -13.125 52.438 C-19.159 39.966 -22.887 25.879 -22 12 C-21.952 11.237 -21.905 10.474 -21.855 9.688 C-21.328 7.086 -20.849 5.941 -19 4 C-13.177 1.196 -6.427 -1.97 0 0 Z " fill="#333E48" transform="translate(237,336)" />
  <path d="M0 0 C-0.936 11.802 -0.936 11.802 -4.625 15.25 C-8.196 17.654 -11.987 19.547 -15.844 21.441 C-22.563 24.772 -29.254 28.157 -35.93 31.574 C-36.89 32.066 -37.851 32.557 -38.84 33.063 C-40.832 34.082 -42.824 35.102 -44.815 36.121 C-62.498 45.172 -80.198 54.185 -98 63 C-98.66 62.34 -99.32 61.68 -100 61 C-98.639 58.595 -97.262 56.202 -95.875 53.812 C-95.496 53.139 -95.117 52.465 -94.727 51.771 C-89.816 43.382 -83.367 39.912 -74.812 35.812 C-66.168 31.623 -57.659 27.214 -49.167 22.727 C-41.202 18.519 -33.217 14.353 -25.214 10.219 C-23.374 9.265 -21.536 8.308 -19.7 7.347 C-17.003 5.937 -14.299 4.539 -11.594 3.145 C-10.772 2.711 -9.95 2.278 -9.104 1.832 C-8.344 1.444 -7.585 1.056 -6.803 0.656 C-6.138 0.31 -5.474 -0.035 -4.789 -0.39 C-3 -1 -3 -1 0 0 Z " fill="#333E48" transform="translate(221,89)" />
  <path d="M0 0 C6.248 4.38 11.639 9.334 17 14.75 C17.775 15.517 18.549 16.284 19.348 17.074 C20.079 17.808 20.809 18.541 21.562 19.297 C22.224 19.96 22.885 20.624 23.566 21.308 C25 23 25 23 25 25 C25.66 25 26.32 25 27 25 C28.69 26.643 30.352 28.315 32 30 C33.073 30.908 34.156 31.804 35.25 32.688 C38 35 38 35 39 37 C39.678 46.7 39.531 55.956 33.812 64.125 C33.214 64.744 32.616 65.363 32 66 C24.144 65.118 18.413 58.038 13.688 52.125 C4.886 39.491 -0.207 21.95 -0.062 6.625 C-0.053 5.38 -0.044 4.135 -0.035 2.852 C-0.024 1.911 -0.012 0.97 0 0 Z " fill="#000000" transform="translate(237,337)" />
  <path d="M0 0 C2.617 0.364 3.759 0.735 5.562 2.719 C6.059 3.466 6.556 4.212 7.069 4.981 C7.639 5.826 8.21 6.671 8.798 7.541 C9.402 8.461 10.006 9.381 10.629 10.328 C11.575 11.74 11.575 11.74 12.541 13.18 C14.559 16.196 16.561 19.223 18.562 22.25 C19.915 24.275 21.268 26.3 22.623 28.324 C25.108 32.046 27.591 35.769 30.061 39.501 C30.805 40.626 30.805 40.626 31.565 41.773 C34.586 46.461 36.377 49.525 36.688 55.188 C36.752 56.319 36.816 57.451 36.883 58.617 C37.037 63.082 37.091 67.534 37 72 C33.695 70.898 33.396 70.517 31.609 67.738 C31.155 67.042 30.7 66.346 30.231 65.629 C29.498 64.483 29.498 64.483 28.75 63.312 C27.678 61.67 26.605 60.028 25.531 58.387 C24.961 57.513 24.392 56.64 23.805 55.74 C21.312 51.956 18.76 48.214 16.2 44.475 C14.903 42.579 13.61 40.681 12.321 38.779 C9.698 34.912 7.078 31.06 4.27 27.324 C-0.605 20.673 -2.116 16.213 -1 8 C-0.916 7.187 -0.832 6.373 -0.746 5.535 C-0.541 3.685 -0.278 1.841 0 0 Z " fill="#333E48" transform="translate(253,97)" />
  <path d="M0 0 C8.125 1.719 14.591 8.036 19.25 14.688 C19.25 15.347 19.25 16.007 19.25 16.688 C16.218 15.677 15.251 15.053 13.25 12.688 C12.92 11.697 12.59 10.708 12.25 9.688 C8.875 10.235 7.168 10.742 4.25 12.688 C1.25 11.688 1.25 11.688 -0.75 9.688 C-3.334 9.521 -3.334 9.521 -5.75 9.688 C-6.08 11.667 -6.41 13.648 -6.75 15.688 C-14.209 15.076 -14.209 15.076 -16.75 13.25 C-17.75 11.688 -17.75 11.688 -17.75 9.688 C-22.5 10.153 -25.872 10.836 -29.75 13.688 C-30.08 14.347 -30.41 15.007 -30.75 15.688 C-33.078 16.434 -33.078 16.434 -36 17.125 C-40.022 18.159 -43.403 19.122 -46.75 21.688 C-47.08 22.347 -47.41 23.007 -47.75 23.688 C-49.859 24.215 -49.859 24.215 -52.5 24.625 C-56.574 25.369 -59.303 26.329 -62.75 28.688 C-64.032 29.372 -65.325 30.037 -66.625 30.688 C-67.241 30.997 -67.857 31.306 -68.492 31.625 C-71.544 33.061 -74.647 34.368 -77.75 35.688 C-81.628 37.348 -85.502 39.016 -89.375 40.688 C-90.399 41.126 -91.422 41.564 -92.477 42.016 C-93.467 42.444 -94.457 42.872 -95.477 43.312 C-96.369 43.697 -97.262 44.081 -98.182 44.477 C-100.824 45.723 -103.263 47.158 -105.75 48.688 C-107.636 49.664 -109.533 50.622 -111.438 51.562 C-112.486 52.082 -113.534 52.601 -114.613 53.137 C-115.648 53.648 -116.684 54.16 -117.75 54.688 C-120.352 55.987 -122.952 57.288 -125.551 58.594 C-127.46 59.543 -129.385 60.462 -131.312 61.375 C-133.872 62.451 -133.872 62.451 -134.75 64.688 C-136.598 65.32 -136.598 65.32 -138.812 65.812 C-139.546 65.98 -140.279 66.148 -141.035 66.32 C-141.601 66.441 -142.167 66.563 -142.75 66.688 C-142.75 68.668 -142.75 70.647 -142.75 72.688 C-140.77 72.688 -138.79 72.688 -136.75 72.688 C-136.255 73.678 -136.255 73.678 -135.75 74.688 C-139.215 75.678 -139.215 75.678 -142.75 76.688 C-143.08 75.697 -143.41 74.707 -143.75 73.688 C-145.73 73.688 -147.71 73.688 -149.75 73.688 C-149.75 75.668 -149.75 77.647 -149.75 79.688 C-149.09 80.017 -148.43 80.347 -147.75 80.688 C-150.75 81.688 -150.75 81.688 -153.75 80.688 C-155.103 78.701 -156.436 76.7 -157.75 74.688 C-158.74 74.028 -159.73 73.368 -160.75 72.688 C-145.771 64.467 -130.351 57.247 -114.876 50.025 C-106.622 46.168 -98.395 42.253 -90.169 38.336 C-77.509 32.309 -64.843 26.294 -52.154 20.329 C-50.833 19.708 -49.512 19.086 -48.192 18.463 C-44.056 16.512 -39.908 14.59 -35.75 12.688 C-35.129 12.401 -34.509 12.114 -33.869 11.818 C-31.994 10.956 -30.111 10.111 -28.227 9.27 C-27.127 8.773 -26.026 8.276 -24.893 7.765 C-21.572 6.627 -19.231 6.299 -15.75 6.688 C-12.875 9.062 -12.875 9.062 -10.75 11.688 C-10.75 12.347 -10.75 13.007 -10.75 13.688 C-10.09 13.688 -9.43 13.688 -8.75 13.688 C-8.688 12.471 -8.626 11.254 -8.562 10 C-8.13 6.614 -7.678 5.588 -5.562 2.688 C-2.75 0.688 -2.75 0.688 0 0 Z " fill="#000000" transform="translate(254.75,151.3125)" />
  <path d="M0 0 C0 1.65 0 3.3 0 5 C-1.245 5.623 -1.245 5.623 -2.516 6.258 C-3.381 6.691 -3.381 6.691 -4.264 7.132 C-5.629 7.814 -6.994 8.497 -8.359 9.178 C-13.072 11.533 -17.781 13.895 -22.488 16.262 C-24.846 17.445 -27.204 18.629 -29.562 19.812 C-30.641 20.356 -31.72 20.9 -32.831 21.459 C-39.13 24.618 -45.459 27.703 -51.824 30.726 C-61.459 35.302 -71.03 39.987 -80.551 44.797 C-81.681 45.367 -82.812 45.938 -83.977 46.526 C-88.619 48.869 -93.26 51.214 -97.896 53.571 C-101.339 55.322 -104.789 57.059 -108.238 58.797 C-109.293 59.336 -110.348 59.876 -111.435 60.431 C-112.402 60.916 -113.369 61.402 -114.365 61.901 C-115.639 62.548 -115.639 62.548 -116.94 63.207 C-117.96 63.6 -117.96 63.6 -119 64 C-119.66 63.67 -120.32 63.34 -121 63 C-120.76 61.156 -120.76 61.156 -120 59 C-118.218 57.678 -118.218 57.678 -115.847 56.503 C-114.951 56.05 -114.056 55.597 -113.133 55.131 C-111.647 54.407 -111.647 54.407 -110.131 53.668 C-109.094 53.149 -108.056 52.63 -106.987 52.095 C-103.541 50.374 -100.085 48.673 -96.629 46.973 C-94.232 45.781 -91.836 44.588 -89.441 43.394 C-83.763 40.566 -78.079 37.752 -72.392 34.944 C-65.96 31.767 -59.536 28.574 -53.112 25.38 C-42.11 19.909 -31.102 14.45 -20.087 9.005 C-18.705 8.321 -18.705 8.321 -17.296 7.624 C-15.98 6.975 -15.98 6.975 -14.637 6.312 C-12.808 5.402 -10.984 4.48 -9.164 3.55 C-8.264 3.091 -7.363 2.632 -6.435 2.159 C-5.227 1.537 -5.227 1.537 -3.995 0.902 C-2 0 -2 0 0 0 Z " fill="#FFFFFF" transform="translate(219,119)" />
  <path d="M0 0 C4.165 3.66 6.879 7.728 9.762 12.445 C11.508 15.276 13.373 18.009 15.27 20.742 C26.798 37.523 26.798 37.523 27 48 C27.204 50.417 27.412 52.834 27.625 55.25 C27.755 57.166 27.882 59.083 28 61 C24.52 57.798 21.988 54.197 19.438 50.25 C16.669 46.017 13.884 41.805 10.973 37.668 C10.476 36.961 9.98 36.253 9.469 35.524 C8.512 34.164 7.549 32.808 6.58 31.456 C-0.258 21.699 -0.173 11.532 0 0 Z " fill="#333E48" transform="translate(304,171)" />
  <path d="M0 0 C2.916 0.069 5.161 0.357 7.523 2.168 C15.942 11.188 20.933 25.314 21.312 37.562 C21 41 21 41 19 44 C13.77 43.337 11.956 41.394 8.703 37.441 C5.777 33.247 3.851 28.749 2 24 C1.691 23.224 1.381 22.448 1.062 21.648 C-1.259 15.332 -3.037 8.455 -1.062 1.875 C-0.712 1.256 -0.361 0.637 0 0 Z " fill="#A4A9AD" transform="translate(267,187)" />
  <path d="M0 0 C0 0.66 0 1.32 0 2 C-0.536 2.196 -1.072 2.392 -1.625 2.594 C-6.877 4.598 -11.935 6.895 -16.949 9.43 C-17.631 9.772 -18.313 10.115 -19.015 10.468 C-27.97 14.979 -36.901 19.538 -45.829 24.101 C-48.825 25.631 -51.821 27.159 -54.818 28.688 C-75.255 37.883 -75.255 37.883 -93 51 C-91.393 45.375 -87.665 42.509 -82.754 39.728 C-80.125 38.383 -77.476 37.089 -74.812 35.812 C-66.168 31.623 -57.659 27.214 -49.167 22.727 C-41.202 18.519 -33.217 14.353 -25.214 10.219 C-23.374 9.265 -21.536 8.308 -19.7 7.347 C-17.003 5.937 -14.299 4.539 -11.594 3.145 C-10.772 2.711 -9.95 2.278 -9.104 1.832 C-8.344 1.444 -7.585 1.056 -6.803 0.656 C-6.138 0.31 -5.474 -0.035 -4.789 -0.39 C-3 -1 -3 -1 0 0 Z " fill="#000000" transform="translate(221,89)" />
  <path d="M0 0 C2.617 0.364 3.759 0.735 5.562 2.719 C6.059 3.466 6.556 4.212 7.069 4.981 C7.925 6.248 7.925 6.248 8.798 7.541 C9.402 8.461 10.006 9.381 10.629 10.328 C11.575 11.74 11.575 11.74 12.541 13.18 C14.559 16.196 16.561 19.223 18.562 22.25 C19.915 24.275 21.268 26.3 22.623 28.324 C25.108 32.046 27.591 35.769 30.061 39.501 C30.805 40.626 30.805 40.626 31.565 41.773 C32.039 42.508 32.512 43.243 33 44 C33.552 44.839 34.104 45.678 34.672 46.543 C36.428 49.791 36.214 52.368 36 56 C33.401 52.838 31.07 49.66 28.918 46.18 C24.666 39.418 20.203 32.809 15.719 26.2 C14.302 24.109 12.888 22.016 11.475 19.922 C10.563 18.575 9.651 17.229 8.738 15.883 C8.322 15.265 7.905 14.647 7.475 14.011 C5.653 11.33 3.815 8.784 1.704 6.32 C0 4 0 4 0 0 Z " fill="#000000" transform="translate(253,97)" />
  <path d="M0 0 C3.32 0.277 4.676 0.651 6.977 3.133 C13.781 12.775 17.739 25.183 17 37 C16.67 37.66 16.34 38.32 16 39 C13.723 38.828 13.723 38.828 11 38 C3.325 28.746 -0.435 15.863 -1 4 C-0.708 2.657 -0.385 1.319 0 0 Z " fill="#A4A9AD" transform="translate(356,307)" />
  <path d="M0 0 C5.904 2.829 9.257 7.817 13 13 C12.67 13.66 12.34 14.32 12 15 C11.154 14.154 10.309 13.309 9.438 12.438 C6.87 10.337 6.225 10.009 2.75 9.875 C-1.426 11.128 -4.974 12.908 -8.766 15.039 C-11 16 -11 16 -14 15 C-15.664 11.671 -15.384 8.342 -14.375 4.812 C-10.782 0.077 -5.601 -0.7 0 0 Z " fill="#A4A9AD" transform="translate(239,65)" />
  <path d="M0 0 C2.614 2.642 4.443 5.631 6 9 C5.875 12.562 5.875 12.562 5 15 C3.546 13.793 3.546 13.793 2.062 12.562 C-3.251 8.74 -8.669 9 -15 9 C-15 7.35 -15 5.7 -15 4 C-13.447 3.129 -11.882 2.278 -10.312 1.438 C-9.442 0.962 -8.572 0.486 -7.676 -0.004 C-4.517 -1.18 -3.134 -1.204 0 0 Z " fill="#FFB819" transform="translate(234,115)" />
  <path d="M0 0 C7.801 2.944 12.03 10.895 15.5 18.086 C16.312 20.25 16.312 20.25 16.312 23.25 C15.652 23.25 14.993 23.25 14.312 23.25 C13.756 22.178 13.199 21.105 12.625 20 C10.661 16.59 8.727 14.332 5.312 12.25 C2.769 11.5 2.769 11.5 0.312 12.25 C-1.889 14.689 -1.889 14.689 -3.688 17.25 C-4.348 17.25 -5.007 17.25 -5.688 17.25 C-5.768 14.98 -5.827 12.709 -5.875 10.438 C-5.91 9.173 -5.945 7.908 -5.98 6.605 C-5.688 3.25 -5.688 3.25 -4.344 1.316 C-2.688 0.25 -2.688 0.25 0 0 Z " fill="#000000" transform="translate(347.6875,276.75)" />
  <path d="M0 0 C4.398 0.987 6.921 3.565 10.062 6.688 C6.638 9.484 2.881 11.428 -1.062 13.375 C-1.695 13.695 -2.328 14.016 -2.98 14.346 C-7.684 16.688 -7.684 16.688 -9.938 16.688 C-11.558 12.637 -10.526 9.623 -8.938 5.688 C-6.46 2.62 -3.888 0.91 0 0 Z " fill="#A4A9AD" transform="translate(142.9375,112.3125)" />
  <path d="M0 0 C3 0 3 0 4.334 1.326 C5.784 3.351 7.218 5.383 8.625 7.438 C9.379 8.469 9.379 8.469 10.148 9.521 C13.754 14.732 14.738 18.674 15 25 C12.332 24.923 10.576 24.573 8.65 22.656 C7.235 20.822 5.954 18.94 4.688 17 C4.233 16.364 3.779 15.729 3.311 15.074 C-0.062 10.013 -0.587 6.009 0 0 Z " fill="#00B3E3" transform="translate(249,121)" />
  <path d="M0 0 C4.157 3.653 6.866 7.717 9.754 12.418 C11.548 15.322 13.434 18.156 15.34 20.988 C16.226 22.317 16.226 22.317 17.131 23.672 C18.323 25.455 19.523 27.234 20.732 29.006 C21.283 29.837 21.835 30.668 22.402 31.523 C22.902 32.265 23.402 33.007 23.918 33.771 C25.174 36.359 25.208 38.159 25 41 C20.196 35.149 15.995 28.898 11.726 22.653 C10.74 21.214 9.748 19.779 8.752 18.347 C7.308 16.27 5.879 14.183 4.453 12.094 C3.783 11.139 3.783 11.139 3.099 10.165 C0.736 6.662 -0.578 4.268 0 0 Z " fill="#000000" transform="translate(304,171)" />
  <path d="M0 0 C3.741 2.078 4.791 3.325 6.062 7.438 C5.988 11.697 4.958 13.042 2 16 C-1.807 14.506 -3.498 12.381 -5.812 9.062 C-6.438 8.187 -7.063 7.312 -7.707 6.41 C-8.134 5.615 -8.56 4.819 -9 4 C-8.67 3.01 -8.34 2.02 -8 1 C-5.147 -0.427 -3.165 -0.31 0 0 Z " fill="#A4A9AD" transform="translate(367,272)" />
  <path d="M0 0 C6.477 4.891 13.09 11.362 14.438 19.711 C14.438 22.188 14.438 22.188 14 26 C9.192 23.943 7.442 20.686 4.75 16.375 C4.291 15.688 3.832 15.001 3.359 14.293 C0.194 9.271 -0.505 5.918 0 0 Z " fill="#00B3E3" transform="translate(308,203)" />
  <path d="M0 0 C6.798 6.231 9.584 11.818 10 21 C7.125 20.812 7.125 20.812 4 20 C2.267 16.607 1.529 13.172 0.875 9.438 C0.707 8.508 0.54 7.579 0.367 6.621 C0 4 0 4 0 0 Z " fill="#FFFFFF" transform="translate(380,324)" />
  <path d="M0 0 C4.136 4.136 4.546 4.85 5.25 10.25 C5.4 11.328 5.549 12.405 5.703 13.516 C5.801 14.335 5.899 15.155 6 16 C4.68 15.67 3.36 15.34 2 15 C1.34 10.05 0.68 5.1 0 0 Z " fill="#FFB819" transform="translate(384,329)" />
  <path d="M0 0 C0 0.99 0 1.98 0 3 C0.66 3.33 1.32 3.66 2 4 C-1.435 6.29 -2.985 6.178 -7 6 C-7 4.02 -7 2.04 -7 0 C-3.867 -1.044 -3.01 -0.934 0 0 Z " fill="#000000" transform="translate(112,225)" />
  <path d="M0 0 C0.33 0.99 0.66 1.98 1 3 C-1.773 6.081 -4.063 7.688 -8 9 C-7.375 6.188 -7.375 6.188 -6 3 C-2.875 1.125 -2.875 1.125 0 0 Z " fill="#FFB819" transform="translate(98,179)" />
  <path d="M0 0 C3.12 0.337 4.621 0.621 6.875 2.875 C7.246 3.576 7.618 4.278 8 5 C7.67 5.99 7.34 6.98 7 8 C5.827 7.049 4.662 6.089 3.5 5.125 C2.85 4.591 2.201 4.058 1.531 3.508 C1.026 3.01 0.521 2.513 0 2 C0 1.34 0 0.68 0 0 Z " fill="#333E48" transform="translate(93,225)" />
  <path d="M0 0 C2 1 2 1 2 1 Z " fill="#000000" transform="translate(114,227)" />
  <path d="M0 0 C4 1 4 1 4 1 Z " fill="#333E48" transform="translate(351,375)" />
  <path d="M0 0 C3 1 3 1 3 1 Z " fill="#000000" transform="translate(283,389)" />
  <path d="M0 0 C3 1 3 1 3 1 Z " fill="#000000" transform="translate(296,385)" />
  <path d="M0 0 C3 1 3 1 3 1 Z " fill="#000000" transform="translate(309,381)" />
  <path d="M0 0 C3 1 3 1 3 1 Z " fill="#000000" transform="translate(321,377)" />
  <path d="M0 0 C3 1 3 1 3 1 Z " fill="#000000" transform="translate(333,373)" />
  <path d="M0 0 C2 1 2 1 2 1 Z " fill="#000000" transform="translate(275,392)" />
  <path d="M0 0 C2 1 2 1 2 1 Z " fill="#000000" transform="translate(281,390)" />
  <path d="M0 0 C2 1 2 1 2 1 Z " fill="#000000" transform="translate(307,382)" />
  <path d="M0 0 C2 1 2 1 2 1 Z " fill="#000000" transform="translate(313,380)" />
  <path d="M0 0 C2 1 2 1 2 1 Z " fill="#000000" transform="translate(337,372)" />
  <path d="M0 0 C2 1 2 1 2 1 Z " fill="#000000" transform="translate(340,371)" />
  <path d="M0 0 C2 1 2 1 2 1 Z " fill="#000000" transform="translate(342,370)" />
</svg>