<?xml version='1.0' encoding='utf-8'?>
<svg xmlns="http://www.w3.org/2000/svg" width="512" height="512" viewBox="0 0 512 512" style="background-color:transparent">
  <path d="M0 0 C0.495 1.98 0.495 1.98 1 4 C6.417 5.016 11.458 4.918 16.938 4.5 C31.544 3.431 31.544 3.431 36.25 6.438 C36.827 6.953 37.405 7.469 38 8 C39.652 8.702 41.319 9.37 43 10 C43.639 10.33 44.279 10.66 44.938 11 C47.069 12.094 47.069 12.094 49.75 12.875 C53.703 14.243 57.294 16.079 61 18 C63.358 19.201 65.681 20.286 68.125 21.312 C71.148 22.591 74.071 24.018 77 25.5 C79.814 26.924 82.598 28.256 85.5 29.5 C88.402 30.744 91.186 32.076 94 33.5 C97.951 35.496 101.913 37.303 106 39 C107.313 39.561 108.626 40.123 109.938 40.688 C110.948 41.121 111.959 41.554 113 42 C113 42.66 113 43.32 113 44 C113.949 44.062 114.898 44.124 115.875 44.188 C121.118 44.959 125.367 47.55 130 50 C132.869 51.45 135.747 52.881 138.625 54.312 C140.034 55.017 141.443 55.721 142.852 56.426 C143.891 56.945 144.93 57.465 146 58 C145.67 61.63 145.34 65.26 145 69 C139.545 68.432 135.089 67.054 130 65 C130 64.34 130 63.68 130 63 C129.134 62.856 128.268 62.711 127.375 62.562 C124 62 124 62 121.097 61.201 C117.927 60.678 117.927 60.678 115.502 62.687 C114.698 63.521 113.895 64.355 113.066 65.215 C112.17 66.129 111.273 67.044 110.35 67.986 C109.42 68.97 108.491 69.954 107.562 70.938 C106.647 71.877 105.731 72.816 104.787 73.783 C100.929 77.763 97.147 81.781 93.551 86 C90.714 89.295 87.668 92.333 84.539 95.348 C84.059 95.813 83.578 96.279 83.083 96.758 C81.094 98.685 79.104 100.61 77.09 102.512 C75.601 103.922 74.131 105.352 72.664 106.785 C71.356 108.036 71.356 108.036 70.022 109.313 C66.967 113.373 66.86 117.144 67.234 122.098 C68.649 131.203 68.649 131.203 73.75 138.625 C74.163 139.079 74.575 139.533 75 140 C74.015 147.074 67.116 151.893 62.008 156.254 C57.491 160.182 53.414 164.476 49.5 169 C48.333 170.333 47.167 171.667 46 173 C45.423 173.681 44.845 174.361 44.25 175.062 C43.673 175.702 43.095 176.341 42.5 177 C41.995 177.577 41.489 178.155 40.969 178.75 C37.893 180.703 35.575 180.36 32 180 C28.43 178.688 28.43 178.688 24.875 177 C19.161 174.12 19.161 174.12 13 174 C10.483 175.837 8.407 178.061 6.266 180.316 C5.628 180.966 4.991 181.615 4.334 182.284 C2.294 184.365 0.271 186.463 -1.75 188.562 C-4.404 191.3 -7.067 194.029 -9.734 196.754 C-10.688 197.738 -10.688 197.738 -11.661 198.743 C-15.048 202.197 -18.396 205.149 -22.418 207.875 C-24.781 209.601 -25.813 210.396 -26.683 213.205 C-26.884 215.686 -26.796 217.96 -26.562 220.438 C-26.522 221.264 -26.481 222.091 -26.439 222.943 C-26.334 224.965 -26.173 226.983 -26 229 C-35.053 227.654 -43.818 224.81 -52.461 221.848 C-55.958 220.68 -59.479 219.593 -63 218.5 C-65.667 217.668 -68.334 216.834 -71 216 C-72.292 215.598 -72.292 215.598 -73.609 215.188 C-80.563 212.954 -87.465 210.268 -94 207 C-92.783 204.542 -91.533 202.105 -90.266 199.672 C-80.364 180.522 -74.579 161.413 -72 140 C-73.238 139.608 -74.475 139.216 -75.75 138.812 C-81.632 136.861 -87.306 134.438 -93 132 C-92.277 131.312 -91.554 130.623 -90.809 129.914 C-87.883 126.983 -85.465 123.738 -83.062 120.375 C-82.097 119.041 -81.131 117.708 -80.164 116.375 C-79.654 115.669 -79.144 114.962 -78.618 114.234 C-55.992 82.992 -55.992 82.992 -51 78 C-50.54 75.797 -50.54 75.797 -50.375 73.375 C-50.3 72.558 -50.225 71.74 -50.148 70.898 C-50.099 70.272 -50.05 69.645 -50 69 C-49.67 69 -49.34 69 -49 69 C-48.944 70.628 -48.944 70.628 -48.887 72.289 C-48.821 73.734 -48.755 75.18 -48.688 76.625 C-48.654 77.694 -48.654 77.694 -48.619 78.785 C-48.381 83.497 -47.642 86.952 -45 91 C-41.998 93.299 -38.484 94.558 -35 96 C-34.059 96.404 -34.059 96.404 -33.098 96.815 C-31.033 97.694 -28.957 98.539 -26.875 99.375 C-26.219 99.65 -25.562 99.925 -24.886 100.209 C-19.823 102.155 -16.315 102.174 -11 101 C5 93.295 13.387 69.924 18.875 54.25 C22.355 43.04 26.315 29.786 24 18 C19.981 12.239 13.51 10.302 7.188 7.75 C5.605 7.081 5.605 7.081 3.99 6.398 C-1.742 4.041 -6.804 2.389 -13 2 C-13 1.67 -13 1.34 -13 1 C-8.614 0.298 -4.442 -0.108 0 0 Z " fill="#000000" transform="translate(263,163)" />
  <path d="M0 0 C6.532 2.395 12.664 5.666 18.359 9.648 C22.948 12.829 27.822 15.222 32.823 17.671 C37.471 19.948 42.056 22.313 46.609 24.773 C52.397 27.894 58.247 30.863 64.14 33.778 C68.576 35.981 72.945 38.283 77.297 40.648 C83.28 43.894 89.384 46.824 95.547 49.711 C102.155 52.826 108.701 56.013 115.109 59.523 C116.069 60.034 116.069 60.034 117.049 60.554 C125.697 65.406 129.373 73.424 133.984 81.836 C134.601 82.951 135.217 84.066 135.852 85.215 C137.064 87.412 138.274 89.61 139.48 91.81 C140.845 94.292 142.223 96.766 143.613 99.234 C144.251 100.382 144.889 101.529 145.547 102.711 C146.349 104.148 146.349 104.148 147.168 105.613 C147.479 106.326 147.789 107.039 148.109 107.773 C147.779 108.433 147.449 109.093 147.109 109.773 C146.574 109.364 146.038 108.954 145.486 108.532 C137.793 102.88 129.578 98.742 121.051 94.531 C119.496 93.756 117.942 92.981 116.387 92.205 C113.14 90.584 109.889 88.97 106.637 87.359 C102.526 85.323 98.418 83.278 94.313 81.231 C72.133 70.166 72.133 70.166 49.761 59.496 C45.839 57.663 41.974 55.724 38.109 53.773 C35.444 52.437 32.777 51.104 30.109 49.773 C29.293 49.365 28.476 48.956 27.635 48.535 C25.049 47.247 22.455 45.977 19.859 44.711 C19.049 44.304 18.238 43.898 17.402 43.479 C16.26 42.926 16.26 42.926 15.094 42.363 C14.421 42.032 13.747 41.701 13.054 41.359 C10.654 40.636 9.429 40.872 7.109 41.773 C5.021 43.861 5.021 43.861 3.109 46.461 C2.119 47.735 2.119 47.735 1.109 49.035 C0.449 49.939 -0.211 50.842 -0.891 51.773 C-1.623 52.702 -2.355 53.63 -3.109 54.586 C-5.359 58.612 -5.507 61.556 -5.391 66.086 C-5.371 67.209 -5.371 67.209 -5.352 68.355 C-5.149 73.889 -4.777 79.488 -0.891 83.773 C2.477 84.945 2.477 84.945 6.109 84.773 C11.767 85.301 16.393 87.477 21.484 89.836 C22.374 90.242 23.264 90.649 24.181 91.067 C30.064 93.772 35.863 96.616 41.633 99.552 C51.142 104.356 60.873 108.7 70.555 113.14 C77.835 116.486 85.1 119.865 92.364 123.246 C97.269 125.529 102.174 127.81 107.102 130.043 C107.807 130.365 108.513 130.687 109.24 131.018 C110.997 131.819 112.758 132.613 114.52 133.406 C116.88 134.652 118.389 135.761 120.109 137.773 C116.327 137.117 112.891 136.053 109.297 134.711 C108.321 134.349 107.345 133.986 106.34 133.613 C105.604 133.336 104.868 133.059 104.109 132.773 C104.109 132.113 104.109 131.453 104.109 130.773 C103.202 130.567 102.294 130.361 101.359 130.148 C96.599 128.808 92.349 126.482 87.977 124.211 C85.387 122.913 82.809 121.815 80.109 120.773 C75.084 118.687 70.33 116.359 65.609 113.648 C61.413 111.297 57.743 109.949 52.984 109.293 C50.637 108.643 49.709 107.573 48.109 105.773 C43.388 102.085 37.875 101.632 32.109 100.773 C32.439 100.113 32.769 99.453 33.109 98.773 C32.346 98.485 31.583 98.196 30.797 97.898 C28.109 96.773 28.109 96.773 25.109 94.773 C22.599 94.439 20.193 94.213 17.672 94.086 C16.961 94.044 16.251 94.002 15.518 93.959 C10.155 93.694 4.987 93.984 -0.34 94.715 C-3.381 94.785 -5.211 94.193 -7.891 92.773 C-8.551 91.783 -9.211 90.793 -9.891 89.773 C-19.837 90.24 -26.167 91.414 -33.223 98.734 C-35.512 101.533 -37.146 104.527 -38.75 107.758 C-39.891 109.773 -39.891 109.773 -41.316 111.133 C-53.012 123.322 -57.024 146.489 -58.297 162.641 C-58.685 166.355 -59.395 168.169 -62.203 170.773 C-66.24 174.904 -69.495 179.286 -72.766 184.023 C-77.2 190.413 -81.783 196.626 -86.566 202.758 C-89.54 206.615 -92.378 210.562 -95.199 214.531 C-96.666 216.475 -98.039 218.195 -99.891 219.773 C-100.551 219.773 -101.211 219.773 -101.891 219.773 C-101.867 219.121 -101.844 218.469 -101.82 217.797 C-101.715 212.686 -101.871 208.569 -103.891 203.773 C-107.487 203.245 -108.735 203.664 -111.754 205.793 C-115.363 208.94 -117.611 212.639 -119.953 216.773 C-120.604 217.904 -120.604 217.904 -121.269 219.058 C-124.847 225.413 -127.508 231.884 -129.891 238.773 C-130.656 240.808 -131.435 242.836 -132.215 244.864 C-133.472 248.156 -134.68 251.464 -135.891 254.773 C-136.374 256.046 -136.374 256.046 -136.867 257.344 C-139.785 265.802 -140.118 274.917 -140.891 283.773 C-142.541 283.443 -144.191 283.113 -145.891 282.773 C-146.874 279.825 -146.952 278.468 -146.641 275.461 C-146.54 274.353 -146.54 274.353 -146.438 273.223 C-145.891 270.773 -145.891 270.773 -144.418 267.941 C-142.693 264.363 -142.185 261.331 -141.703 257.398 C-141.465 255.531 -141.465 255.531 -141.223 253.625 C-141.113 252.684 -141.004 251.743 -140.891 250.773 C-142.871 253.083 -144.851 255.393 -146.891 257.773 C-148.956 251.578 -146.108 244.352 -143.41 238.637 C-139.923 232.532 -135.905 226.888 -131.59 221.344 C-128.944 217.342 -127.767 213.344 -127.453 208.586 C-126.891 204.773 -126.891 204.773 -125.328 202.773 C-124.854 202.443 -124.379 202.113 -123.891 201.773 C-125.211 201.773 -126.531 201.773 -127.891 201.773 C-127.891 201.113 -127.891 200.453 -127.891 199.773 C-126.313 199.557 -126.313 199.557 -124.703 199.336 C-123.445 199.15 -122.187 198.965 -120.891 198.773 C-120.07 198.706 -119.249 198.638 -118.404 198.569 C-113.815 197.117 -112.022 192.912 -109.786 188.91 C-105.997 181.267 -104.818 172.65 -103.266 164.336 C-100.11 147.823 -96.14 134.411 -86.977 120.086 C-84.054 115.445 -81.411 110.662 -78.75 105.867 C-76.988 102.936 -75.052 100.416 -72.891 97.773 C-71.824 96.165 -70.783 94.539 -69.766 92.898 C-66.934 88.395 -64.035 83.945 -61.078 79.523 C-60.657 78.893 -60.235 78.262 -59.801 77.613 C-58.062 75.013 -56.32 72.415 -54.579 69.816 C-53.286 67.886 -51.994 65.955 -50.703 64.023 C-50.286 63.4 -49.869 62.776 -49.439 62.134 C-46.951 58.401 -44.525 54.636 -42.141 50.836 C-39.726 47 -37.17 43.367 -34.348 39.82 C-32.713 37.523 -31.357 35.107 -29.977 32.651 C-28.165 29.52 -26.158 26.525 -24.141 23.523 C-23.705 22.875 -23.27 22.227 -22.821 21.559 C-7.141 -1.675 -7.141 -1.675 0 0 Z M19.109 13.773 C19.361 21.884 19.361 21.884 23.109 28.773 C29.446 33.551 36.369 37.069 43.484 40.523 C45.634 41.582 47.782 42.642 49.93 43.703 C51.51 44.484 51.51 44.484 53.122 45.28 C57.237 47.337 61.301 49.482 65.359 51.648 C74.478 56.504 83.719 61.109 92.978 65.689 C102.367 70.349 102.367 70.349 106.747 72.756 C107.634 73.243 107.634 73.243 108.539 73.74 C110.18 74.648 111.816 75.564 113.452 76.482 C116.067 77.992 116.067 77.992 119.109 77.773 C117.596 73.623 115.585 69.986 113.297 66.211 C112.297 64.538 112.297 64.538 111.277 62.832 C107.457 57.443 102.5 54.706 96.734 51.711 C96.004 51.327 95.274 50.944 94.521 50.549 C87.355 46.826 80.06 43.383 72.762 39.929 C64.275 35.895 55.968 31.572 47.68 27.146 C42.663 24.467 37.639 21.802 32.609 19.148 C31.611 18.615 30.613 18.081 29.584 17.531 C28.189 16.797 28.189 16.797 26.766 16.047 C25.939 15.608 25.112 15.169 24.26 14.716 C22.043 13.573 22.043 13.573 19.109 13.773 Z M-14.891 22.773 C-21.432 29.588 -26.439 37.912 -31.591 45.792 C-33.329 48.443 -35.088 51.08 -36.85 53.716 C-37.704 54.994 -38.554 56.274 -39.402 57.556 C-41.16 60.212 -42.932 62.829 -44.816 65.398 C-48.595 70.593 -49.863 74.369 -49.891 80.773 C-49.905 82.061 -49.919 83.349 -49.934 84.676 C-49.959 88.376 -49.934 92.074 -49.891 95.773 C-46.633 92.655 -43.946 89.63 -41.516 85.836 C-38.228 80.793 -34.879 75.799 -31.478 70.832 C-30.166 68.912 -28.858 66.989 -27.555 65.063 C-24.675 60.809 -21.783 56.586 -18.699 52.477 C-13.669 45.661 -10.749 40.491 -11.441 31.676 C-11.901 28.704 -12.376 25.736 -12.891 22.773 C-13.551 22.773 -14.211 22.773 -14.891 22.773 Z M-13.225 48.103 C-13.664 48.712 -14.103 49.321 -14.555 49.949 C-15.278 50.944 -15.278 50.944 -16.016 51.959 C-16.758 53.012 -16.758 53.012 -17.516 54.086 C-18.018 54.776 -18.521 55.467 -19.039 56.178 C-22.925 61.584 -24.019 64.95 -23.891 71.773 C-20.805 71.47 -19.937 70.827 -17.855 68.445 C-17.186 67.481 -16.517 66.517 -15.828 65.523 C-15.157 64.57 -14.485 63.616 -13.793 62.633 C-13.165 61.689 -12.537 60.746 -11.891 59.773 C-11.318 58.919 -10.746 58.064 -10.156 57.184 C-8.825 54.649 -8.56 53.282 -8.703 50.461 C-8.765 49.244 -8.827 48.027 -8.891 46.773 C-11.85 46.421 -11.85 46.421 -13.225 48.103 Z M-65.891 97.773 C-67.84 100.236 -67.84 100.236 -69.766 103.523 C-70.556 104.807 -71.347 106.09 -72.141 107.371 C-72.574 108.074 -73.007 108.776 -73.453 109.5 C-75.008 111.959 -76.628 114.365 -78.266 116.77 C-78.845 117.629 -79.424 118.488 -80.02 119.374 C-81.156 121.058 -82.302 122.735 -83.46 124.403 C-88.992 132.694 -91.125 141.078 -91.578 150.961 C-91.644 152.254 -91.71 153.547 -91.777 154.879 C-91.815 155.834 -91.852 156.789 -91.891 157.773 C-89.178 155.167 -86.877 152.544 -84.719 149.465 C-84.14 148.641 -83.562 147.818 -82.966 146.97 C-82.364 146.101 -81.761 145.231 -81.141 144.336 C-80.52 143.442 -79.9 142.549 -79.261 141.628 C-68.772 126.429 -63.802 116.19 -62.891 97.773 C-63.881 97.773 -64.871 97.773 -65.891 97.773 Z M-68.891 128.773 C-74.591 134.856 -82.25 143.72 -82.266 152.398 C-82.142 153.512 -82.018 154.626 -81.891 155.773 C-75.658 150.125 -69.518 142.842 -66.891 134.773 C-66.723 131.565 -66.723 131.565 -66.891 128.773 C-67.551 128.773 -68.211 128.773 -68.891 128.773 Z " fill="#0071CE" transform="translate(271.890625,74.2265625)" />
  <path d="M0 0 C5.177 1.577 9.943 3.735 14.812 6.062 C15.651 6.461 16.489 6.859 17.353 7.27 C23.389 10.165 29.304 13.245 35.194 16.424 C40.84 19.445 46.582 22.225 52.371 24.961 C64.443 30.703 76.438 36.592 88.403 42.554 C90.697 43.695 92.994 44.833 95.292 45.968 C98.684 47.643 102.071 49.328 105.457 51.016 C106.471 51.514 107.484 52.012 108.529 52.525 C114.962 55.751 121.646 59.124 127 64 C127.629 66.142 127.629 66.142 128 68 C130.309 69.181 130.309 69.181 133 70 C139.249 72.878 142.426 75.917 145 82.375 C148.959 94.443 148.959 94.443 147.062 99.5 C138.832 109.477 138.832 109.477 133.938 110.875 C130.926 109.978 130.199 109.387 128.039 107.285 C123.394 103.198 118.069 101.004 112.438 98.562 C110.27 97.597 108.103 96.629 105.938 95.66 C104.904 95.2 103.87 94.74 102.805 94.266 C99.467 92.759 96.201 91.16 92.938 89.5 C75.533 80.674 57.78 72.565 40.066 64.386 C27.641 58.646 15.26 52.828 2.956 46.833 C1.47 46.109 1.47 46.109 -0.047 45.371 C-1.313 44.751 -1.313 44.751 -2.604 44.119 C-7.826 41.662 -7.826 41.662 -13.5 41 C-17.026 41 -18.99 40.806 -22 39 C-24.741 33.46 -24.822 28.046 -24 22 C-21.545 14.906 -18.369 9.105 -12 5 C-8.499 3.833 -5.673 3.866 -2 4 C-1.34 4.33 -0.68 4.66 0 5 C0 3.35 0 1.7 0 0 Z " fill="#A4A9AD" transform="translate(292,119)" />
  <path d="M0 0 C3.166 1.197 6.261 2.502 9.361 3.861 C10.424 4.305 11.486 4.748 12.58 5.205 C24.759 10.407 24.759 10.407 27.111 15.111 C29.388 40.197 18.021 69.213 2.986 88.924 C-1.914 94.552 -6.693 99.496 -14.449 100.26 C-19.826 99.932 -24.723 97.541 -29.639 95.486 C-30.761 95.047 -31.884 94.607 -33.041 94.154 C-38.7 91.849 -42.365 90.288 -45.889 85.111 C-52.38 65.638 -41.548 42.493 -33.494 25.1 C-30.677 19.537 -27.177 14.603 -23.389 9.674 C-22.938 9.082 -22.487 8.49 -22.022 7.88 C-15.798 0.046 -9.798 -3.014 0 0 Z M-22.326 22.986 C-23.21 24.003 -24.061 25.048 -24.889 26.111 C-25.375 26.721 -25.861 27.331 -26.361 27.959 C-32.899 36.905 -37.636 48.883 -36.889 60.111 C-35.668 63.221 -35.668 63.221 -33.889 65.111 C-28.659 63.727 -25.725 60.523 -22.889 56.111 C-17.061 45.001 -12.885 34.737 -14.889 22.111 C-18.326 20.835 -19.353 20.699 -22.326 22.986 Z " fill="#333E48" transform="translate(260.888671875,165.888671875)" />
  <path d="M0 0 C3.508 1.426 6.811 3.04 10.074 4.949 C10.681 5.284 11.289 5.62 11.914 5.965 C17.502 9.179 21.125 12.963 22.949 19.199 C25.043 40.547 17.383 61.704 3.949 78.199 C-2.26 84.69 -8.938 90.646 -18.23 91.465 C-24.193 90.903 -29.754 88.282 -35.226 85.963 C-36.759 85.321 -38.313 84.731 -39.871 84.152 C-45.311 82.05 -49.386 79.529 -52.051 74.199 C-52.838 71.509 -53.503 68.936 -54.051 66.199 C-54.188 65.523 -54.325 64.846 -54.466 64.149 C-55.276 59.279 -54.969 55.739 -53.051 51.199 C-51.254 48.819 -49.22 46.801 -47.051 44.762 C-46.504 44.221 -45.958 43.68 -45.395 43.123 C-41.347 39.199 -41.347 39.199 -39.051 39.199 C-38.716 38.372 -38.716 38.372 -38.375 37.527 C-36.635 34.469 -34.393 32.392 -31.863 29.949 C-28.005 26.216 -24.424 22.375 -20.909 18.318 C-17.701 14.661 -14.37 11.134 -10.988 7.637 C-10.307 6.901 -9.626 6.166 -8.924 5.408 C-3.906 0.255 -3.906 0.255 0 0 Z " fill="#333E48" transform="translate(384.05078125,222.80078125)" />
  <path d="M0 0 C3.5 1.125 3.5 1.125 5.645 3.957 C8.862 8.026 12.902 9.284 17.688 10.938 C19.306 11.527 20.925 12.117 22.543 12.707 C23.255 12.957 23.967 13.207 24.7 13.464 C26.5 14.125 26.5 14.125 28.5 15.125 C28.068 38.475 20.628 66.513 4.641 84.18 C1.982 86.572 -0.065 88.069 -3.703 88.211 C-6.418 87.753 -8.885 86.991 -11.5 86.125 C-12.765 85.764 -14.029 85.403 -15.332 85.031 C-27.226 81.479 -27.226 81.479 -30.5 76.125 C-36.108 57.099 -26.113 33.801 -17.5 17.125 C-7.902 0.282 -7.902 0.282 0 0 Z M-10.5 19.125 C-18.216 28.141 -22.693 38.526 -22.562 50.438 C-22.553 51.506 -22.544 52.575 -22.535 53.676 C-22.524 54.484 -22.512 55.292 -22.5 56.125 C-21.18 56.455 -19.86 56.785 -18.5 57.125 C-9.657 47.066 -5.024 33.449 -5.5 20.125 C-7.15 19.795 -8.8 19.465 -10.5 19.125 Z " fill="#333E48" transform="translate(162.5,287.875)" />
  <path d="M0 0 C1.65 0 3.3 0 5 0 C5 3.63 5 7.26 5 11 C6.65 11.66 8.3 12.32 10 13 C10.582 14.953 10.582 14.953 10.812 17.25 C11.364 19.773 11.364 19.773 13 22 C18.117 24.716 23.451 26.393 29 28 C30.248 28.387 31.496 28.773 32.781 29.172 C36.603 30.155 39.185 29.954 43 29 C43.516 28.464 44.031 27.928 44.562 27.375 C45.037 26.921 45.511 26.467 46 26 C50.246 26.464 54.155 27.581 58.207 28.898 C59.418 29.29 60.63 29.681 61.877 30.084 C63.189 30.514 64.501 30.944 65.812 31.375 C66.48 31.594 67.147 31.813 67.835 32.039 C68.515 32.263 69.195 32.486 69.896 32.716 C70.59 32.944 71.283 33.172 71.998 33.407 C73.435 33.879 74.873 34.352 76.31 34.825 C80.828 36.309 85.36 37.737 89.909 39.124 C92.924 40.048 95.933 40.994 98.941 41.944 C100.386 42.395 101.835 42.835 103.287 43.265 C116.118 47.076 116.118 47.076 119.223 52.18 C119.66 53.177 119.66 53.177 120.106 54.195 C121.618 57.248 124.089 58.375 127 60 C124.886 64.005 122.961 66.724 119 69 C109.723 70.706 100.449 66.724 91.754 63.918 C90.059 63.383 88.363 62.848 86.667 62.316 C82.197 60.907 77.732 59.481 73.268 58.052 C68.857 56.643 64.441 55.249 60.025 53.854 C54.806 52.204 49.588 50.551 44.373 48.887 C35.839 46.163 27.299 43.464 18.738 40.827 C17.105 40.322 15.472 39.816 13.839 39.311 C11.521 38.593 9.202 37.878 6.88 37.172 C4.78 36.534 2.682 35.886 0.586 35.236 C-0.595 34.874 -1.776 34.513 -2.993 34.141 C-5.83 33.065 -7.777 32.047 -10 30 C-11.763 22.557 -9.438 12.961 -5.5 6.562 C-3.784 4.253 -2.036 2.036 0 0 Z " fill="#A4A9AD" transform="translate(121,345)" />
  <path d="M0 0 C3.492 1.305 3.492 1.305 6.875 2.875 C8.007 3.388 9.139 3.901 10.305 4.43 C13 6 13 6 14 9 C15.213 24.33 11.597 38.159 5 52 C4.432 53.199 4.432 53.199 3.852 54.422 C0.259 61.415 -4.546 67.501 -10.938 72.125 C-18.994 74.427 -27.52 71.092 -35 68 C-35.66 67.34 -36.32 66.68 -37 66 C-36.564 65.648 -36.129 65.296 -35.68 64.934 C-24.385 55.57 -20.559 46.685 -17.727 32.336 C-17.1 29.459 -16.32 26.822 -15.312 24.062 C-13.6 19.222 -13.324 14.984 -15 10.062 C-15 5.485 -12.528 3.636 -9.469 0.441 C-5.924 -1.628 -3.927 -0.971 0 0 Z " fill="#333E48" transform="translate(283,337)" />
  <path d="M0 0 C4.992 0.612 8.959 2.827 13.352 5.121 C14.572 5.749 14.572 5.749 15.817 6.39 C18.423 7.733 21.024 9.085 23.625 10.438 C25.32 11.312 27.015 12.187 28.711 13.061 C38.008 17.858 47.278 22.706 56.523 27.603 C61.522 30.245 66.56 32.799 71.625 35.312 C72.927 35.964 74.229 36.617 75.531 37.27 C77.606 38.305 79.688 39.327 81.781 40.324 C87.501 43.194 90.619 46.607 94 52 C94.841 53.321 94.841 53.321 95.699 54.668 C100 61.615 100 61.615 100 64 C95.37 63.386 91.605 61.46 87.523 59.316 C86.805 58.945 86.086 58.574 85.346 58.191 C83.019 56.988 80.697 55.775 78.375 54.562 C76.775 53.733 75.175 52.903 73.575 52.075 C64.732 47.49 55.907 42.869 47.105 38.205 C42.436 35.736 37.732 33.347 33 31 C26.893 27.963 20.808 24.885 14.75 21.75 C13.939 21.338 13.128 20.925 12.293 20.5 C3.154 15.737 3.154 15.737 1.172 11.035 C0.372 7.293 -0.241 3.856 0 0 Z " fill="#333E48" transform="translate(291,88)" />
  <path d="M0 0 C1.782 7.35 0.882 13.394 -1.375 20.438 C-1.822 21.873 -2.267 23.309 -2.711 24.746 C-2.93 25.45 -3.148 26.154 -3.373 26.879 C-3.994 28.979 -4.534 31.084 -5.051 33.211 C-6.922 40.679 -8.955 46.939 -15 52 C-15.841 52.824 -15.841 52.824 -16.699 53.664 C-21.183 57.924 -21.183 57.924 -24.688 58.25 C-27.977 56.472 -29.565 54.365 -31 51 C-32.025 47.357 -32.539 43.751 -33 40 C-33.201 39.098 -33.402 38.195 -33.609 37.266 C-34.074 34.049 -34.036 32.098 -33 29 C-30.001 25.723 -26.746 23.12 -23.238 20.414 C-17.492 15.945 -12.562 10.658 -7.512 5.435 C-6.822 4.729 -6.133 4.024 -5.422 3.297 C-4.809 2.661 -4.197 2.025 -3.565 1.37 C-2 0 -2 0 0 0 Z " fill="#000000" transform="translate(269,345)" />
  <path d="M0 0 C2.875 2.438 2.875 2.438 5 5 C5.495 5.495 5.495 5.495 6 6 C6.041 8 6.043 10 6 12 C6.598 11.175 7.196 10.35 7.812 9.5 C10.432 6.906 12.388 6.61 16.031 6.562 C22.352 6.716 27.094 8.713 32.688 11.5 C34.129 12.187 34.129 12.187 35.601 12.887 C38.413 14.234 41.209 15.61 44 17 C44.708 17.352 45.416 17.703 46.145 18.065 C48.643 19.311 51.138 20.564 53.627 21.829 C63.099 26.62 72.799 30.942 82.446 35.366 C89.726 38.713 96.991 42.092 104.255 45.473 C109.16 47.756 114.064 50.036 118.992 52.27 C119.698 52.591 120.403 52.913 121.13 53.245 C122.888 54.046 124.649 54.84 126.41 55.633 C128.771 56.879 130.279 57.987 132 60 C128.218 59.343 124.782 58.28 121.188 56.938 C120.212 56.575 119.236 56.213 118.23 55.84 C117.494 55.563 116.758 55.286 116 55 C116 54.34 116 53.68 116 53 C115.092 52.794 114.185 52.588 113.25 52.375 C108.49 51.034 104.239 48.709 99.867 46.438 C97.278 45.139 94.7 44.041 92 43 C86.974 40.914 82.221 38.586 77.5 35.875 C73.303 33.523 69.634 32.176 64.875 31.52 C62.528 30.869 61.6 29.799 60 28 C55.279 24.312 49.766 23.858 44 23 C44.33 22.34 44.66 21.68 45 21 C44.237 20.711 43.474 20.423 42.688 20.125 C40 19 40 19 37 17 C34.489 16.665 32.084 16.44 29.562 16.312 C28.852 16.271 28.141 16.229 27.409 16.185 C22.046 15.921 16.878 16.211 11.551 16.941 C8.509 17.011 6.68 16.42 4 15 C3.34 14.01 2.68 13.02 2 12 C-7.946 12.467 -14.276 13.641 -21.332 20.961 C-23.621 23.76 -25.255 26.754 -26.859 29.984 C-28 32 -28 32 -29.426 33.359 C-41.616 46.063 -45.498 70.311 -46.595 87.128 C-47 89 -47 89 -49.562 91.562 C-50.367 92.037 -51.171 92.511 -52 93 C-51.879 92.357 -51.758 91.714 -51.633 91.051 C-50.505 84.994 -50.505 84.994 -49.598 78.902 C-48.464 70.186 -46.13 62.179 -43 54 C-42.697 53.205 -42.394 52.411 -42.082 51.592 C-20.73 -3.392 -20.73 -3.392 0 0 Z " fill="#000000" transform="translate(260,152)" />
  <path d="M0 0 C0.66 0 1.32 0 2 0 C3.699 9.774 4.885 17.395 -1.062 25.938 C-2.473 27.896 -3.907 29.835 -5.356 31.766 C-8.517 36.063 -11.452 40.517 -14.438 44.938 C-15.72 46.816 -17.004 48.694 -18.289 50.57 C-20.648 54.017 -22.997 57.47 -25.336 60.93 C-26.328 62.391 -27.32 63.852 -28.312 65.312 C-28.762 65.982 -29.212 66.652 -29.676 67.342 C-32.774 71.887 -32.774 71.887 -35 73 C-35.044 69.292 -35.065 65.587 -35.027 61.879 C-35.012 59.762 -35.019 57.642 -35.129 55.527 C-35.114 47.913 -29.624 41.893 -25.386 35.963 C-23.645 33.497 -21.986 30.983 -20.33 28.46 C-16.169 22.122 -11.864 15.888 -7.5 9.688 C-6.983 8.952 -6.466 8.216 -5.934 7.458 C-5.451 6.774 -4.967 6.091 -4.469 5.387 C-4.04 4.78 -3.612 4.174 -3.17 3.55 C-2 2 -2 2 0 0 Z " fill="#333E48" transform="translate(257,97)" />
  <path d="M0 0 C5.177 1.577 9.943 3.735 14.812 6.062 C15.651 6.461 16.489 6.859 17.353 7.27 C23.389 10.165 29.304 13.245 35.194 16.425 C40.831 19.441 46.563 22.213 52.344 24.941 C64.568 30.752 76.686 36.767 88.787 42.828 C92.315 44.595 95.845 46.357 99.375 48.119 C101.63 49.247 103.886 50.375 106.141 51.504 C107.19 52.028 108.24 52.552 109.322 53.091 C110.772 53.819 110.772 53.819 112.251 54.561 C113.099 54.985 113.946 55.409 114.82 55.846 C119.804 58.484 119.804 58.484 121.188 62.125 C121.59 63.548 121.59 63.548 122 65 C114.609 61.307 107.218 57.614 99.835 53.905 C85.802 46.855 71.77 39.82 57.571 33.109 C48.891 28.99 40.323 24.658 31.744 20.333 C22.601 15.729 13.392 11.353 3.98 7.32 C1 6 1 6 0 5 C-0.041 3.334 -0.043 1.666 0 0 Z " fill="#FFFFFF" transform="translate(292,119)" />
  <path d="M0 0 C0.722 0.268 1.444 0.536 2.188 0.812 C4.469 13.463 -0.423 26.951 -7.617 37.445 C-10.469 40.861 -12.305 43.055 -16.812 43.812 C-19.611 40.566 -20.05 38.01 -19.812 33.875 C-18.476 23.23 -14.5 13.203 -7.812 4.812 C-7.378 4.254 -6.944 3.696 -6.496 3.121 C-4.308 0.604 -3.403 -0.227 0 0 Z " fill="#A4A9AD" transform="translate(243.8125,187.1875)" />
  <path d="M0 0 C0.99 0 1.98 0 3 0 C2.445 14.356 0.294 24.103 -8 36 C-8.467 36.671 -8.934 37.342 -9.416 38.033 C-12.446 42.375 -15.498 46.7 -18.579 51.006 C-19.541 52.356 -20.496 53.712 -21.444 55.072 C-22.606 56.732 -23.8 58.368 -25 60 C-25.33 60 -25.66 60 -26 60 C-25.55 43.747 -21.811 32.18 -12.386 18.964 C-10.001 15.585 -7.725 12.133 -5.438 8.688 C-5.008 8.047 -4.579 7.406 -4.136 6.747 C-1.924 3.459 -1.924 3.459 0 0 Z " fill="#333E48" transform="translate(206,172)" />
  <path d="M0 0 C4.992 0.612 8.959 2.827 13.352 5.121 C14.572 5.749 14.572 5.749 15.817 6.39 C18.423 7.733 21.024 9.085 23.625 10.438 C25.32 11.312 27.015 12.187 28.711 13.061 C38.008 17.858 47.278 22.706 56.523 27.603 C61.522 30.245 66.559 32.801 71.625 35.312 C88.549 43.748 88.549 43.748 92 49 C91.505 49.99 91.505 49.99 91 51 C90.337 50.404 90.337 50.404 89.66 49.796 C81.942 43.319 73.076 39.167 64.125 34.688 C62.445 33.838 60.765 32.987 59.086 32.135 C56.611 30.88 54.136 29.625 51.659 28.374 C45.885 25.458 40.147 22.48 34.438 19.438 C28.056 16.056 21.637 12.751 15.188 9.5 C14.356 9.078 13.524 8.656 12.668 8.22 C8.513 6.14 4.472 4.325 0 3 C0 2.01 0 1.02 0 0 Z " fill="#000000" transform="translate(291,88)" />
  <path d="M0 0 C1.145 0.34 1.145 0.34 2.312 0.688 C2.538 6.582 1.907 11.433 0.188 17.062 C-0.033 17.801 -0.254 18.539 -0.482 19.299 C-2.637 26.143 -5.556 32.556 -10.688 37.688 C-12.812 37.312 -12.812 37.312 -14.688 36.688 C-15.286 23.789 -12.554 11.124 -4.168 0.82 C-2.688 -0.312 -2.688 -0.312 0 0 Z " fill="#A4A9AD" transform="translate(154.6875,307.3125)" />
  <path d="M0 0 C2.822 1.838 3.775 2.558 4.688 5.75 C5.022 9.849 5.013 11.262 2.688 14.75 C0.273 13.816 -2.092 12.862 -4.402 11.691 C-9.441 9.202 -12.682 8.094 -18.312 9.75 C-20.693 11.177 -20.693 11.177 -22.312 12.75 C-20.689 7.392 -17.169 2.46 -12.328 -0.438 C-8.024 -2.173 -4.245 -1.602 0 0 Z " fill="#A4A9AD" transform="translate(283.3125,66.25)" />
  <path d="M0 0 C0.66 0 1.32 0 2 0 C1.375 3.85 -0.433 6.299 -2.688 9.438 C-3.507 10.594 -4.325 11.751 -5.141 12.91 C-5.82 13.875 -5.82 13.875 -6.514 14.86 C-9.382 18.991 -12.154 23.187 -14.938 27.375 C-15.834 28.719 -15.834 28.719 -16.748 30.09 C-19.536 34.275 -22.31 38.467 -25.051 42.684 C-25.51 43.386 -25.97 44.089 -26.444 44.813 C-27.295 46.116 -28.141 47.423 -28.98 48.734 C-29.935 50.191 -30.961 51.602 -32 53 C-32.66 53 -33.32 53 -34 53 C-33.514 47.971 -32.03 45.115 -29.062 41.062 C-28.236 39.914 -27.41 38.764 -26.586 37.613 C-26.158 37.02 -25.729 36.426 -25.288 35.815 C-23.179 32.843 -21.189 29.794 -19.188 26.75 C-15.38 21 -11.471 15.326 -7.5 9.688 C-6.983 8.952 -6.467 8.216 -5.934 7.458 C-5.451 6.774 -4.967 6.091 -4.469 5.387 C-4.04 4.78 -3.612 4.174 -3.17 3.55 C-2 2 -2 2 0 0 Z " fill="#000000" transform="translate(257,97)" />
  <path d="M0 0 C3.065 5.762 3.199 9.627 2 16 C1.154 15.319 0.309 14.639 -0.562 13.938 C-3.839 11.795 -3.839 11.795 -7.375 11.625 C-13.01 13.762 -15.602 18.192 -19 23 C-19.997 24.336 -20.996 25.67 -22 27 C-20.96 18.394 -14.593 7.798 -8.25 2 C-5.071 0.044 -3.639 -0.662 0 0 Z " fill="#000000" transform="translate(168,277)" />
  <path d="M0 0 C4.799 0.787 7.879 2.495 12 5 C12 6.65 12 8.3 12 10 C11.432 9.954 10.863 9.907 10.277 9.859 C4.169 9.574 1.081 10.647 -4 14 C-4.99 14.33 -5.98 14.66 -7 15 C-7.573 11.074 -7.75 9.08 -5.441 5.754 C-3.683 3.77 -1.891 1.857 0 0 Z " fill="#FFB819" transform="translate(280,114)" />
  <path d="M0 0 C3.406 3.11 4.799 5.211 5.938 9.688 C6 13 6 13 4 16 C-2.27 12.7 -8.54 9.4 -15 6 C-9.99 -0.263 -7.971 -2.237 0 0 Z " fill="#A4A9AD" transform="translate(374,114)" />
  <path d="M0 0 C0.99 0 1.98 0 3 0 C4.065 8.067 0.667 12.625 -4 19 C-4.486 19.672 -4.972 20.343 -5.473 21.035 C-6.75 22.688 -6.75 22.688 -9 25 C-9.99 25 -10.98 25 -12 25 C-12.477 19.151 -11.25 15.709 -8 11 C-7.039 9.571 -7.039 9.571 -6.059 8.113 C-1.984 2.253 -1.984 2.253 0 0 Z " fill="#00B3E3" transform="translate(260,121)" />
  <path d="M0 0 C0.99 0 1.98 0 3 0 C3 4 3 4 0.79 6.323 C-0.131 7.206 -1.051 8.09 -2 9 C-3.616 11.257 -5.15 13.499 -6.645 15.832 C-7.059 16.469 -7.474 17.105 -7.901 17.761 C-9.211 19.775 -10.512 21.793 -11.812 23.812 C-12.705 25.187 -13.597 26.562 -14.49 27.936 C-16.667 31.286 -18.835 34.642 -21 38 C-21.802 35.712 -22.21 34.506 -21.262 32.223 C-20.86 31.628 -20.458 31.032 -20.043 30.418 C-19.594 29.74 -19.145 29.062 -18.683 28.364 C-18.19 27.645 -17.696 26.927 -17.188 26.188 C-16.691 25.444 -16.195 24.701 -15.684 23.935 C-14.65 22.388 -13.61 20.845 -12.565 19.306 C-10.591 16.398 -8.643 13.473 -6.697 10.546 C-5.829 9.245 -4.96 7.945 -4.087 6.647 C-1.899 3.41 -1.899 3.41 0 0 Z " fill="#000000" transform="translate(206,172)" />
  <path d="M0 0 C1.386 3.796 0.622 6.639 -0.312 10.5 C-0.577 11.624 -0.841 12.748 -1.113 13.906 C-1.858 16.505 -2.684 18.655 -4 21 C-5.65 21 -7.3 21 -9 21 C-8.672 12.856 -7.404 7.688 -1.75 1.562 C-1.173 1.047 -0.595 0.531 0 0 Z " fill="#FFFFFF" transform="translate(131,324)" />
  <path d="M0 0 C1.128 3.212 1.256 5.358 -0.012 8.531 C-0.933 10.41 -1.857 12.288 -2.785 14.164 C-4.501 18.169 -4.787 21.671 -5 26 C-5.66 25.67 -6.32 25.34 -7 25 C-8.033 8.159 -8.033 8.159 -4.062 2.938 C-1.344 0 -1.344 0 0 0 Z " fill="#FFFFFF" transform="translate(273,124)" />
  <path d="M0 0 C0 10.946 -6.836 19.185 -14 27 C-14.33 27 -14.66 27 -15 27 C-15.602 20.033 -14.065 16.399 -10.188 10.688 C-9.736 9.986 -9.284 9.284 -8.818 8.561 C-3.228 0 -3.228 0 0 0 Z " fill="#00B3E3" transform="translate(205,203)" />
  <path d="M0 0 C-1.326 3.623 -2.943 6.635 -5.125 9.812 C-5.664 10.603 -6.203 11.393 -6.758 12.207 C-7.168 12.799 -7.578 13.39 -8 14 C-8.66 13.67 -9.32 13.34 -10 13 C-9.385 5.492 -9.385 5.492 -7.438 3 C-6.963 2.67 -6.489 2.34 -6 2 C-7.32 2 -8.64 2 -10 2 C-10 1.34 -10 0.68 -10 0 C-6.306 -1.231 -3.794 -0.644 0 0 Z " fill="#A4A9AD" transform="translate(154,274)" />
  <path d="M0 0 C1.223 3.67 0.88 6.34 0.562 10.188 C0.461 11.46 0.359 12.732 0.254 14.043 C0.128 15.507 0.128 15.507 0 17 C-1.65 17 -3.3 17 -5 17 C-4.727 10.226 -3.809 5.653 0 0 Z " fill="#FFB819" transform="translate(127,328)" />
  <path d="M0 0 C0.615 0.189 1.23 0.379 1.863 0.574 C0.935 1.583 -0.004 2.581 -0.949 3.574 C-1.732 4.41 -1.732 4.41 -2.531 5.262 C-4.137 6.574 -4.137 6.574 -7.137 6.574 C-6.762 3.855 -6.295 2.732 -4.324 0.762 C-2.137 -0.426 -2.137 -0.426 0 0 Z " fill="#333E48" transform="translate(418.13671875,225.42578125)" />
  <path d="M0 0 C5.662 2.462 5.662 2.462 7.375 5.188 C7.581 5.786 7.788 6.384 8 7 C5.125 6.312 5.125 6.312 2 5 C0.625 2.375 0.625 2.375 0 0 Z " fill="#FFB819" transform="translate(412,179)" />
  <path d="M0 0 C0.66 0 1.32 0 2 0 C1.502 3.688 0.899 5.605 -2 8 C-2.201 4.284 -2.152 3.228 0 0 Z " fill="#FFFFFF" transform="translate(128,336)" />
  <path d="M0 0 C3 1 3 1 3 1 Z " fill="#000000" transform="translate(213,385)" />
  <path d="M0 0 C3 1 3 1 3 1 Z " fill="#000000" transform="translate(200,381)" />
  <path d="M0 0 C3 1 3 1 3 1 Z " fill="#000000" transform="translate(188,377)" />
  <path d="M0 0 C3 1 3 1 3 1 Z " fill="#000000" transform="translate(175,373)" />
  <path d="M0 0 C2 1 2 1 2 1 Z " fill="#000000" transform="translate(235,392)" />
  <path d="M0 0 C2 1 2 1 2 1 Z " fill="#000000" transform="translate(229,390)" />
  <path d="M0 0 C2 1 2 1 2 1 Z " fill="#000000" transform="translate(226,389)" />
  <path d="M0 0 C2 1 2 1 2 1 Z " fill="#000000" transform="translate(210,384)" />
  <path d="M0 0 C2 1 2 1 2 1 Z " fill="#000000" transform="translate(204,382)" />
  <path d="M0 0 C2 1 2 1 2 1 Z " fill="#000000" transform="translate(197,380)" />
  <path d="M0 0 C2 1 2 1 2 1 Z " fill="#000000" transform="translate(179,374)" />
  <path d="M0 0 C2 1 2 1 2 1 Z " fill="#000000" transform="translate(173,372)" />
  <path d="M0 0 C0 3 0 3 0 3 Z " fill="#000000" transform="translate(233,180)" />
  <path d="M0 0 C2 1 2 1 2 1 Z " fill="#333E48" transform="translate(244,403)" />
  <path d="M0 0 C2 1 2 1 2 1 Z " fill="#000000" transform="translate(247,165)" />
</svg>