<?xml version="1.0" encoding="UTF-8"?>
<!-- Generator: visioncortex VTracer 0.6.4 -->
<svg version="1.1" xmlns="http://www.w3.org/2000/svg" width="512" height="512">
<path d="M0 0 C0.795 -0.005 1.591 -0.01 2.41 -0.016 C4.938 0.25 4.938 0.25 10.938 2.25 C10.938 7.53 10.938 12.81 10.938 18.25 C15.888 17.92 20.838 17.59 25.938 17.25 C25.938 18.57 25.938 19.89 25.938 21.25 C13.5 23.828 1.586 25.398 -11.062 23.25 C-12.062 22.25 -12.062 22.25 -12.176 20.301 C-12.168 19.052 -12.168 19.052 -12.16 17.777 C-12.157 16.878 -12.154 15.979 -12.15 15.053 C-12.142 14.107 -12.134 13.162 -12.125 12.188 C-12.12 11.238 -12.116 10.289 -12.111 9.311 C-12.1 6.957 -12.083 4.604 -12.062 2.25 C-7.969 0.984 -4.295 -0.028 0 0 Z " fill="#8D8E90" transform="translate(86.0625,295.75)"/>
</svg>
