<?xml version="1.0" encoding="UTF-8"?>
<!-- Generator: visioncortex VTracer 0.6.4 -->
<svg version="1.1" xmlns="http://www.w3.org/2000/svg" width="512" height="512">
<path d="M0 0 C1.17 2.34 1.166 3.834 1.188 6.438 C1.202 7.22 1.216 8.002 1.23 8.809 C1 11 1 11 -1 14 C-6.653 15.09 -12.198 15.1 -17.938 15 C-20.631 14.955 -23.305 14.952 -26 15 C-26.33 15.33 -26.66 15.66 -27 16 C-28.763 16.253 -30.535 16.442 -32.309 16.607 C-33.486 16.717 -34.663 16.828 -35.875 16.941 C-37.211 17.062 -38.547 17.181 -39.883 17.301 C-41.299 17.43 -42.716 17.56 -44.132 17.69 C-63.797 19.475 -83.481 21.055 -103.162 22.644 C-108.813 23.101 -114.463 23.563 -120.113 24.026 C-124.519 24.387 -128.925 24.744 -133.331 25.099 C-135.416 25.268 -137.501 25.439 -139.586 25.61 C-142.486 25.848 -145.385 26.081 -148.285 26.313 C-149.124 26.383 -149.964 26.453 -150.829 26.526 C-159.164 27.181 -167.013 27.778 -175 25 C-175 25.99 -175 26.98 -175 28 C-176.417 28.027 -177.833 28.047 -179.25 28.062 C-180.433 28.08 -180.433 28.08 -181.641 28.098 C-183.939 28.003 -185.831 27.763 -188 27 C-189.203 24.595 -189.101 23.05 -189.062 20.375 C-189.053 19.558 -189.044 18.74 -189.035 17.898 C-189.024 17.272 -189.012 16.645 -189 16 C-184.152 14.486 -179.665 13.62 -174.58 13.166 C-173.867 13.1 -173.154 13.034 -172.42 12.967 C-170.053 12.75 -167.685 12.543 -165.316 12.336 C-163.616 12.182 -161.915 12.027 -160.214 11.872 C-156.569 11.54 -152.923 11.211 -149.278 10.886 C-139.578 10.02 -129.881 9.131 -120.184 8.242 C-119.19 8.151 -118.196 8.06 -117.172 7.967 C-102.37 6.612 -87.575 5.187 -72.785 3.695 C-71.4 3.556 -71.4 3.556 -69.986 3.413 C-61.096 2.517 -52.207 1.612 -43.319 0.698 C-40.062 0.364 -36.804 0.033 -33.546 -0.298 C-31.333 -0.524 -29.12 -0.754 -26.907 -0.985 C-8.948 -2.826 -8.948 -2.826 0 0 Z " fill="#757576" transform="translate(374,130)"/>
</svg>
