<?xml version="1.0" encoding="UTF-8"?>
<!-- Generator: visioncortex VTracer 0.6.4 -->
<svg version="1.1" xmlns="http://www.w3.org/2000/svg" width="512" height="512">
<path d="M0 0 C5.382 -0.042 10.765 -0.068 16.147 -0.083 C17.453 -0.088 17.453 -0.088 18.785 -0.092 C21.25 -0.098 23.714 -0.096 26.179 -0.091 C27.294 -0.094 27.294 -0.094 28.431 -0.097 C33.532 -0.074 33.532 -0.074 34.647 1.042 C34.793 2.627 34.875 4.219 34.929 5.811 C34.985 7.268 34.985 7.268 35.042 8.754 C35.094 10.289 35.094 10.289 35.147 11.854 C35.217 13.861 35.289 15.867 35.366 17.874 C35.397 18.768 35.427 19.662 35.458 20.584 C35.633 22.853 36.02 24.859 36.647 27.042 C33.056 28.316 30.901 27.909 27.46 26.604 C19.332 23.702 12.254 24.512 4.315 27.725 C-6.57 33.096 -12.931 41.722 -17.165 52.917 C-19.263 59.209 -20.546 65.465 -21.353 72.042 C-23.993 72.042 -26.633 72.042 -29.353 72.042 C-29.413 70.993 -29.474 69.945 -29.536 68.866 C-29.621 67.487 -29.705 66.108 -29.79 64.729 C-29.829 64.039 -29.869 63.348 -29.909 62.637 C-30.102 59.57 -30.376 56.972 -31.353 54.042 C-30.363 54.042 -29.373 54.042 -28.353 54.042 C-28.023 46.452 -27.693 38.862 -27.353 31.042 C-30.653 31.042 -33.953 31.042 -37.353 31.042 C-43.853 29.542 -43.853 29.542 -45.353 28.042 C-45.48 25.669 -45.528 23.292 -45.54 20.917 C-45.554 19.615 -45.568 18.313 -45.583 16.971 C-45.266 11.562 -44.656 7.63 -41.167 3.378 C-37.816 0.596 -36.315 0.395 -32.017 0.334 C-30.105 0.291 -30.105 0.291 -28.155 0.246 C-26.763 0.24 -25.37 0.234 -23.978 0.229 C-22.535 0.207 -21.093 0.183 -19.651 0.157 C-15.731 0.096 -11.811 0.07 -7.89 0.053 C-5.26 0.041 -2.63 0.021 0 0 Z " fill="#0058BC" transform="translate(127.3525390625,240.95849609375)"/>
</svg>
