<?xml version="1.0" encoding="UTF-8"?>
<!-- Generator: visioncortex VTracer 0.6.4 -->
<svg version="1.1" xmlns="http://www.w3.org/2000/svg" width="512" height="512">
<path d="M0 0 C8.751 8.061 13.828 18.485 18.094 29.414 C18.477 30.376 18.477 30.376 18.868 31.358 C20.621 36.135 20.816 40.035 20.594 45.039 C18.844 44.914 18.844 44.914 16.594 44.039 C12.594 38.817 12.594 38.817 12.594 36.039 C11.934 36.039 11.274 36.039 10.594 36.039 C10.208 35.298 10.208 35.298 9.815 34.542 C8.641 32.289 7.461 30.039 6.281 27.789 C5.877 27.012 5.473 26.234 5.057 25.434 C3.111 21.732 1.139 18.367 -1.406 15.039 C-1.406 14.379 -1.406 13.719 -1.406 13.039 C-1.984 12.75 -2.561 12.462 -3.156 12.164 C-5.24 11.122 -7.323 10.081 -9.406 9.039 C-9.406 8.379 -9.406 7.719 -9.406 7.039 C-9.984 6.915 -10.561 6.792 -11.156 6.664 C-13.43 6.033 -15.332 5.15 -17.406 4.039 C-17.406 3.379 -17.406 2.719 -17.406 2.039 C-38.371 1.704 -38.371 1.704 -56.406 11.039 C-57.066 11.039 -57.726 11.039 -58.406 11.039 C-58.654 11.596 -58.901 12.153 -59.156 12.727 C-60.406 15.039 -60.406 15.039 -62.293 17.32 C-67.457 23.963 -70.669 32.131 -73.406 40.039 C-76.046 40.369 -78.686 40.699 -81.406 41.039 C-82.185 26.394 -78.433 13.693 -68.969 2.414 C-49.361 -18.249 -21.451 -17.481 0 0 Z " fill="#000102" transform="translate(341.40625,279.9609375)"/>
</svg>
