<?xml version="1.0" encoding="UTF-8"?>
<!-- Generator: visioncortex VTracer 0.6.4 -->
<svg version="1.1" xmlns="http://www.w3.org/2000/svg" width="512" height="512">
<path d="M0 0 C7.903 5.612 13.425 12.525 18 21 C18.41 21.75 18.82 22.5 19.242 23.273 C22.201 29.256 23.154 35.422 24 42 C23.01 42 22.02 42 21 42 C19.57 40.312 19.57 40.312 18.125 38 C17.609 37.184 17.094 36.368 16.562 35.527 C15.789 34.276 15.789 34.276 15 33 C14.505 32.238 14.01 31.476 13.5 30.691 C10 25.272 10 25.272 10 23 C9.34 23 8.68 23 8 23 C6.889 21.793 5.835 20.533 4.812 19.25 C-0.004 13.581 -5.164 10.433 -12.664 9.762 C-21.626 9.537 -29.004 10.881 -35.75 17.125 C-42.016 24.07 -45.553 31.736 -48.238 40.629 C-49 43 -49 43 -50 44 C-51.666 44.041 -53.334 44.043 -55 44 C-55.88 31.098 -50.299 18.809 -42.688 8.625 C-30.257 -3.516 -16.073 -7.944 0 0 Z " fill="#020304" transform="translate(161,269)"/>
</svg>
