<?xml version="1.0" encoding="UTF-8"?>
<!-- Generator: visioncortex VTracer 0.6.4 -->
<svg version="1.1" xmlns="http://www.w3.org/2000/svg" width="512" height="512">
<path d="M0 0 C1.454 0.031 1.454 0.031 2.938 0.062 C4.706 4.99 5.869 9.949 6.938 15.062 C8.105 15.391 8.105 15.391 9.297 15.727 C13.18 16.827 17.06 17.941 20.938 19.062 C22.078 19.392 22.078 19.392 23.241 19.728 C32.778 22.497 42.272 25.404 51.688 28.562 C52.497 28.823 53.306 29.083 54.139 29.351 C61.838 31.995 68.048 35.608 72.026 42.951 C73.813 47.092 74.525 51.466 75.34 55.883 C75.543 56.928 75.746 57.973 75.955 59.049 C76.608 62.426 77.242 65.807 77.875 69.188 C78.317 71.503 78.761 73.818 79.205 76.133 C87.938 121.884 87.938 121.884 87.938 129.062 C83.742 129.473 79.547 129.881 75.352 130.289 C73.93 130.428 72.509 130.566 71.087 130.705 C67.648 131.041 64.209 131.374 60.769 131.699 C58.456 131.918 56.144 132.144 53.833 132.381 C45.285 133.202 36.764 133.176 28.188 133.125 C26.701 133.12 25.214 133.115 23.727 133.111 C20.13 133.101 16.534 133.082 12.938 133.062 C12.938 142.962 12.938 152.863 12.938 163.062 C15.908 163.393 18.877 163.722 21.938 164.062 C21.938 170.993 21.938 177.923 21.938 185.062 C18.981 186.541 16.195 186.123 12.938 186.062 C11.505 182.764 10.686 179.871 10.25 176.312 C7.563 160.781 -0.71 144.016 -13.062 134.062 C-25.941 125.21 -38.429 122.126 -53.891 124.496 C-66.679 127.817 -77.02 135.854 -83.879 147.02 C-89.074 156.771 -90.276 166.179 -91.062 177.062 C-94.552 178.226 -97.096 178.099 -100.773 177.977 C-101.446 177.956 -102.119 177.935 -102.812 177.913 C-105.02 177.843 -107.229 177.765 -109.438 177.688 C-110.963 177.638 -112.488 177.59 -114.014 177.542 C-120.879 177.322 -127.744 177.078 -134.609 176.814 C-136.646 176.736 -138.684 176.66 -140.721 176.583 C-143.247 176.487 -145.773 176.386 -148.298 176.28 C-149.427 176.236 -150.556 176.193 -151.719 176.148 C-152.707 176.108 -153.695 176.067 -154.713 176.025 C-157.085 175.893 -157.085 175.893 -159.062 177.062 C-161.412 176.455 -163.748 175.791 -166.062 175.062 C-166.16 174.035 -166.258 173.008 -166.359 171.949 C-168.41 152.251 -176.043 138.957 -190.062 125.062 C-189.072 124.567 -189.072 124.567 -188.062 124.062 C-188.216 123.485 -188.369 122.907 -188.527 122.312 C-192.482 105.692 -189.354 88.269 -186.875 71.688 C-186.723 70.648 -186.571 69.609 -186.414 68.538 C-185.966 65.515 -185.497 62.495 -185.02 59.477 C-184.884 58.576 -184.748 57.676 -184.608 56.748 C-183.117 47.744 -180.264 37.901 -173.383 31.5 C-170.353 29.623 -167.403 29.05 -163.938 28.5 C-163.19 28.377 -162.442 28.254 -161.672 28.127 C-150.88 26.532 -139.938 26.152 -129.054 25.599 C-117.215 25.767 -117.215 25.767 -106.062 23.062 C-104.422 22.868 -102.775 22.727 -101.127 22.614 C-100.091 22.54 -99.055 22.466 -97.989 22.39 C-96.857 22.314 -95.725 22.238 -94.559 22.16 C-93.384 22.078 -92.21 21.996 -91 21.912 C-87.167 21.645 -83.334 21.385 -79.5 21.125 C-76.884 20.944 -74.268 20.764 -71.652 20.583 C-56.339 19.529 -41.023 18.517 -25.697 17.658 C-15.246 17.932 -15.246 17.932 -6.062 15.062 C-5.69 12.735 -5.364 10.4 -5.062 8.062 C-4.033 0.082 -4.033 0.082 0 0 Z M-42.668 39.125 C-45.192 39.25 -47.715 39.368 -50.239 39.479 C-53.897 39.64 -57.554 39.825 -61.211 40.016 C-62.905 40.083 -62.905 40.083 -64.633 40.152 C-65.681 40.212 -66.73 40.271 -67.81 40.333 C-68.73 40.377 -69.651 40.422 -70.599 40.468 C-73.813 41.244 -75.058 42.464 -77.062 45.062 C-77.656 47.04 -77.656 47.04 -77.58 49.141 C-77.593 49.932 -77.605 50.723 -77.618 51.537 C-77.61 52.382 -77.602 53.227 -77.594 54.098 C-77.599 55.41 -77.599 55.41 -77.605 56.749 C-77.608 58.596 -77.601 60.443 -77.584 62.289 C-77.563 65.119 -77.584 67.946 -77.609 70.775 C-77.607 72.57 -77.602 74.365 -77.594 76.16 C-77.602 77.007 -77.61 77.854 -77.618 78.727 C-77.66 83.179 -77.66 83.179 -75.389 86.793 C-72.484 88.378 -70.624 88.397 -67.323 88.327 C-65.589 88.302 -65.589 88.302 -63.82 88.276 C-62.573 88.241 -61.325 88.207 -60.039 88.172 C-58.746 88.148 -57.453 88.124 -56.121 88.099 C-53.379 88.047 -50.637 87.986 -47.895 87.917 C-44.422 87.829 -40.948 87.757 -37.474 87.691 C-34.121 87.628 -30.767 87.556 -27.414 87.484 C-25.573 87.445 -25.573 87.445 -23.694 87.405 C-17.554 87.252 -11.422 87.016 -5.291 86.661 C-3.571 86.562 -3.571 86.562 -1.816 86.462 C1.076 86.323 1.076 86.323 2.938 84.062 C3.893 76.47 2.494 68.422 1.625 60.875 C1.507 59.739 1.389 58.602 1.268 57.432 C0.589 51.463 -0.145 46.355 -3.062 41.062 C-12.378 34.019 -31.701 38.563 -42.668 39.125 Z M32.938 39.062 C32.607 39.392 32.278 39.722 31.938 40.062 C32.085 48.61 33.59 57.152 34.984 65.565 C35.316 67.586 35.631 69.609 35.945 71.633 C36.157 72.919 36.368 74.206 36.586 75.531 C36.773 76.691 36.961 77.85 37.154 79.045 C37.953 82.124 38.731 83.795 40.938 86.062 C43.926 86.959 43.926 86.959 47.438 87.25 C48.08 87.323 48.722 87.397 49.383 87.472 C57.87 88.376 66.413 88.714 74.938 89.062 C74.35 80.6 72.733 72.418 71 64.125 C70.732 62.799 70.465 61.473 70.197 60.146 C69.938 58.893 69.678 57.639 69.41 56.348 C69.176 55.212 68.941 54.076 68.699 52.906 C68.054 49.89 68.054 49.89 65.938 47.062 C62.907 45.898 62.907 45.898 59.285 45.02 C58.629 44.846 57.973 44.673 57.297 44.494 C55.911 44.13 54.523 43.772 53.134 43.418 C51.009 42.877 48.888 42.32 46.768 41.76 C39.942 39.812 39.942 39.812 32.938 39.062 Z M-126.117 44.233 C-129.684 44.392 -133.248 44.591 -136.813 44.807 C-139.021 44.939 -141.23 45.057 -143.439 45.176 C-144.865 45.26 -146.29 45.344 -147.715 45.43 C-148.983 45.503 -150.252 45.576 -151.558 45.652 C-155.679 46.135 -159.332 47.007 -162.895 49.18 C-164.813 52.272 -164.647 55.647 -164.75 59.188 C-164.783 59.978 -164.815 60.768 -164.849 61.582 C-165.061 67.219 -165.156 72.859 -165.188 78.5 C-165.192 79.215 -165.197 79.93 -165.202 80.667 C-165.192 83.742 -165.043 86.121 -164.062 89.062 C-161.754 90.217 -160.327 90.229 -157.756 90.3 C-156.864 90.326 -155.972 90.352 -155.053 90.38 C-154.086 90.403 -153.118 90.426 -152.121 90.449 C-150.626 90.488 -150.626 90.488 -149.1 90.527 C-146.985 90.579 -144.869 90.628 -142.753 90.675 C-139.537 90.749 -136.322 90.84 -133.107 90.932 C-131.05 90.98 -128.992 91.028 -126.934 91.074 C-125.98 91.103 -125.027 91.132 -124.044 91.162 C-118.305 91.269 -112.476 91.196 -107.062 89.062 C-102.737 83.231 -103.288 76.054 -103.062 69.062 C-103.041 68.398 -103.019 67.734 -102.996 67.05 C-102.318 55.827 -102.318 55.827 -106.784 45.906 C-109.678 43.564 -111.071 43.617 -114.754 43.758 C-115.906 43.794 -117.059 43.831 -118.247 43.868 C-120.87 44.002 -123.492 44.124 -126.117 44.233 Z M-135.062 100.062 C-135.996 102.864 -136.226 104.717 -136.25 107.625 C-136.264 108.41 -136.278 109.195 -136.293 110.004 C-136.254 112.287 -136.254 112.287 -134.062 114.062 C-131.573 114.374 -131.573 114.374 -128.688 114.328 C-127.62 114.331 -126.553 114.333 -125.453 114.336 C-124.334 114.328 -123.215 114.32 -122.062 114.312 C-120.384 114.324 -120.384 114.324 -118.672 114.336 C-117.605 114.333 -116.537 114.331 -115.438 114.328 C-113.964 114.325 -113.964 114.325 -112.461 114.321 C-109.878 114.296 -109.878 114.296 -108.062 112.062 C-107.781 109.199 -107.781 109.199 -107.875 106 C-107.881 104.916 -107.888 103.832 -107.895 102.715 C-107.764 100.14 -107.764 100.14 -109.062 99.062 C-110.65 98.963 -112.242 98.932 -113.832 98.93 C-114.803 98.928 -115.775 98.927 -116.775 98.926 C-117.798 98.93 -118.821 98.934 -119.875 98.938 C-120.886 98.934 -121.898 98.93 -122.939 98.926 C-124.402 98.928 -124.402 98.928 -125.895 98.93 C-127.236 98.931 -127.236 98.931 -128.605 98.933 C-130.951 99.057 -132.872 99.207 -135.062 100.062 Z M-21.062 102.062 C-21.537 104.434 -21.537 104.434 -21.438 107 C-21.445 107.855 -21.453 108.709 -21.461 109.59 C-20.98 112.573 -20.179 113.922 -18.062 116.062 C-13.972 117.374 -9.819 117.284 -5.562 117.312 C-4.803 117.333 -4.044 117.354 -3.262 117.375 C-0.056 117.397 2.501 117.262 5.438 115.922 C7.565 113.285 7.47 111.415 7.438 108.062 C7.448 107.011 7.458 105.959 7.469 104.875 C7.209 102.001 7.209 102.001 5.209 100.412 C2.588 98.855 1.086 98.676 -1.941 98.664 C-2.862 98.66 -3.783 98.656 -4.732 98.652 C-6.164 98.67 -6.164 98.67 -7.625 98.688 C-8.583 98.676 -9.542 98.664 -10.529 98.652 C-11.449 98.656 -12.369 98.66 -13.316 98.664 C-14.155 98.667 -14.994 98.671 -15.858 98.674 C-18.544 99.147 -19.432 99.91 -21.062 102.062 Z " fill="#005BBA" transform="translate(351.0625,143.9375)"/>
<path d="M0 0 C1.454 0.031 1.454 0.031 2.938 0.062 C4.873 5.317 5.899 10.574 6.938 16.062 C2.647 16.062 -1.642 16.062 -6.062 16.062 C-5.755 13.583 -5.442 11.104 -5.125 8.625 C-5.038 7.918 -4.951 7.211 -4.861 6.482 C-4.035 0.082 -4.035 0.082 0 0 Z " fill="#4D4E51" transform="translate(351.0625,143.9375)"/>
<path d="M0 0 C0.979 0.018 1.958 0.036 2.967 0.055 C5.375 0.102 7.781 0.167 10.188 0.25 C10.188 0.58 10.188 0.91 10.188 1.25 C9.102 1.299 8.017 1.348 6.898 1.398 C5.453 1.474 4.008 1.549 2.562 1.625 C1.85 1.656 1.137 1.687 0.402 1.719 C-4.871 2.009 -9.909 2.346 -13.812 6.25 C-14.181 8.183 -14.181 8.183 -14.227 10.383 C-14.265 11.188 -14.304 11.994 -14.344 12.824 C-14.375 13.666 -14.406 14.508 -14.438 15.375 C-14.476 16.224 -14.515 17.074 -14.555 17.949 C-14.649 20.049 -14.732 22.15 -14.812 24.25 C-15.143 24.25 -15.472 24.25 -15.812 24.25 C-15.958 21 -16.047 17.752 -16.125 14.5 C-16.167 13.58 -16.209 12.659 -16.252 11.711 C-16.373 5.048 -16.373 5.048 -13.969 1.625 C-9.299 -0.409 -5.03 -0.176 0 0 Z " fill="#03347C" transform="translate(201.8125,188.75)"/>
<path d="M0 0 C0.33 0 0.66 0 1 0 C1 4.95 1 9.9 1 15 C4.63 15 8.26 15 12 15 C12 15.33 12 15.66 12 16 C8.04 16 4.08 16 0 16 C0 10.72 0 5.44 0 0 Z " fill="#25609D" transform="translate(97,298)"/>
<path d="M0 0 C4.29 0 8.58 0 13 0 C13 0.33 13 0.66 13 1 C8.71 1 4.42 1 0 1 C0 0.67 0 0.34 0 0 Z " fill="#474B50" transform="translate(390,337)"/>
<path d="M0 0 C1.32 0 2.64 0 4 0 C4 0.66 4 1.32 4 2 C2.35 2 0.7 2 -1 2 C-0.67 1.34 -0.34 0.68 0 0 Z " fill="#4973A1" transform="translate(92,295)"/>
<path d="M0 0 C3 1 3 1 3 1 Z " fill="#37393C" transform="translate(376,336)"/>
<path d="" fill="#424447" transform="translate(0,0)"/>
<path d="" fill="#EF9800" transform="translate(0,0)"/>
<path d="M0 0 C2 1 2 1 2 1 Z " fill="#497DAE" transform="translate(92,271)"/>
<path d="" fill="#24292E" transform="translate(0,0)"/>
<path d="" fill="#1D2226" transform="translate(0,0)"/>
<path d="" fill="#191D21" transform="translate(0,0)"/>
<path d="" fill="#1C2024" transform="translate(0,0)"/>
<path d="" fill="#5E5F62" transform="translate(0,0)"/>
<path d="" fill="#21262D" transform="translate(0,0)"/>
<path d="" fill="#1B1F25" transform="translate(0,0)"/>
<path d="" fill="#A9A296" transform="translate(0,0)"/>
<path d="" fill="#B4B6B7" transform="translate(0,0)"/>
<path d="" fill="#BBBEBE" transform="translate(0,0)"/>
<path d="" fill="#B2B5B5" transform="translate(0,0)"/>
<path d="" fill="#A7ABAB" transform="translate(0,0)"/>
<path d="" fill="#ABAEAF" transform="translate(0,0)"/>
<path d="" fill="#BFC1C1" transform="translate(0,0)"/>
<path d="" fill="#BBA88D" transform="translate(0,0)"/>
<path d="" fill="#C89439" transform="translate(0,0)"/>
<path d="" fill="#306DAE" transform="translate(0,0)"/>
<path d="" fill="#012A5C" transform="translate(0,0)"/>
<path d="" fill="#012D63" transform="translate(0,0)"/>
<path d="" fill="#01316A" transform="translate(0,0)"/>
<path d="" fill="#022E61" transform="translate(0,0)"/>
<path d="" fill="#002150" transform="translate(0,0)"/>
<path d="" fill="#012A61" transform="translate(0,0)"/>
<path d="" fill="#045CBF" transform="translate(0,0)"/>
<path d="" fill="#0056B8" transform="translate(0,0)"/>
<path d="" fill="#012450" transform="translate(0,0)"/>
<path d="" fill="#012D67" transform="translate(0,0)"/>
<path d="" fill="#021D48" transform="translate(0,0)"/>
<path d="" fill="#02234F" transform="translate(0,0)"/>
</svg>
