<?xml version="1.0" encoding="UTF-8"?>
<!-- Generator: visioncortex VTracer 0.6.4 -->
<svg version="1.1" xmlns="http://www.w3.org/2000/svg" width="512" height="512">
<path d="M0 0 C0 3.3 0 6.6 0 10 C-3.908 11.954 -5.997 12.348 -10.25 12.625 C-11.866 12.737 -11.866 12.737 -13.516 12.852 C-14.335 12.901 -15.155 12.95 -16 13 C-16 12.34 -16 11.68 -16 11 C-17.98 11 -19.96 11 -22 11 C-22 11.66 -22 12.32 -22 13 C-27.142 13.842 -32.105 14.192 -37.312 14.188 C-38.054 14.188 -38.795 14.189 -39.558 14.189 C-45.211 14.135 -50.534 13.504 -56 12 C-57.316 8.38 -58 5.904 -58 2 C-53.931 0.903 -49.873 0.572 -45.684 0.246 C-44.466 0.148 -44.466 0.148 -43.224 0.049 C-41.505 -0.088 -39.786 -0.224 -38.067 -0.357 C-35.471 -0.56 -32.875 -0.771 -30.279 -0.982 C-6.473 -2.886 -6.473 -2.886 0 0 Z " fill="#737475" transform="translate(414,148)"/>
</svg>
