<?xml version="1.0" encoding="UTF-8"?>
<!-- Generator: visioncortex VTracer 0.6.4 -->
<svg version="1.1" xmlns="http://www.w3.org/2000/svg" width="512" height="512">
<path d="M0 0 C0.565 0.483 1.129 0.967 1.711 1.465 C1.711 2.125 1.711 2.785 1.711 3.465 C2.701 3.795 3.691 4.125 4.711 4.465 C11.361 13.518 12.115 23.631 12.711 34.465 C12.782 35.536 12.853 36.607 12.926 37.711 C13.265 47.266 10.984 55.009 4.781 62.367 C-5.954 73.245 -20.577 78.411 -35.602 78.777 C-48.482 78.559 -60.355 75.104 -70.102 66.34 C-80.013 55.453 -83.143 39.74 -82.688 25.391 C-81.415 16.046 -74.288 9.239 -67.289 3.465 C-47.294 -10.466 -20.939 -14.043 0 0 Z M-54.289 16.465 C-57.141 20.743 -57.134 24.447 -56.289 29.465 C-54.04 34.074 -50.715 36.607 -45.977 38.402 C-37.227 40.739 -29.305 39.835 -21.289 35.465 C-17.082 31.717 -13.528 27.947 -12.977 22.215 C-13.432 16.744 -15.745 13.967 -19.602 10.215 C-31.483 2.478 -45.282 6.751 -54.289 16.465 Z " fill="#262D35" transform="translate(183.2890625,224.53515625)"/>
</svg>
