<?xml version="1.0" encoding="UTF-8"?>
<!-- Generator: visioncortex VTracer 0.6.4 -->
<svg version="1.1" xmlns="http://www.w3.org/2000/svg" width="512" height="512">
<path d="M0 0 C0.915 -0.012 1.83 -0.024 2.773 -0.037 C3.653 -0.039 4.532 -0.041 5.438 -0.043 C6.241 -0.047 7.044 -0.051 7.871 -0.055 C10 0.188 10 0.188 13 2.188 C12.51 7.695 12.51 7.695 10.26 9.866 C7.624 11.407 6.119 11.549 3.086 11.516 C1.698 11.508 1.698 11.508 0.281 11.5 C-0.678 11.479 -1.637 11.459 -2.625 11.438 C-3.592 11.432 -4.559 11.427 -5.555 11.422 C-12.691 11.342 -12.691 11.342 -15 10.188 C-14.746 8.705 -14.471 7.227 -14.188 5.75 C-14.037 4.926 -13.886 4.103 -13.73 3.254 C-13.489 2.572 -13.248 1.89 -13 1.188 C-8.682 -0.252 -4.522 0.003 0 0 Z " fill="#00A4DE" transform="translate(122,192.8125)"/>
</svg>
