<?xml version="1.0" encoding="UTF-8"?>
<!-- Generator: visioncortex VTracer 0.6.4 -->
<svg version="1.1" xmlns="http://www.w3.org/2000/svg" width="512" height="512">
<path d="M0 0 C1.53 0.101 3.061 0.201 4.591 0.299 C5.81 0.38 5.81 0.38 7.054 0.462 C27.709 1.798 48.162 1.51 68.828 0.625 C72.32 10.21 73.059 23.769 69.73 33.555 C68.319 36.514 66.808 39.017 64.828 41.625 C64.345 42.291 63.861 42.958 63.363 43.645 C56.026 52.214 43.187 56.948 32.223 57.836 C21.057 58.245 10.579 55.093 1.855 48.027 C-7.214 39.574 -10.778 26.765 -11.492 14.617 C-11.642 4.374 -11.642 4.374 -9.172 0.625 C-6.183 -0.869 -3.247 -0.242 0 0 Z " fill="#111417" transform="translate(131.171875,326.375)"/>
<path d="M0 0 C0.99 0.33 1.98 0.66 3 1 C3 1.66 3 2.32 3 3 C4.65 3 6.3 3 8 3 C8.043 4.666 8.041 6.334 8 8 C7 9 7 9 4.438 9.062 C3.633 9.042 2.829 9.021 2 9 C1.67 10.98 1.34 12.96 1 15 C0.01 15 -0.98 15 -2 15 C-2.33 13.35 -2.66 11.7 -3 10 C-3.33 10 -3.66 10 -4 10 C-3.512 3.945 -3.512 3.945 -3 2 C-2.01 1.34 -1.02 0.68 0 0 Z " fill="#161B1F" transform="translate(124,326)"/>
<path d="M0 0 C0.33 1.32 0.66 2.64 1 4 C0.196 4.392 -0.609 4.784 -1.438 5.188 C-4.231 6.769 -4.231 6.769 -4.812 9.688 C-4.905 10.832 -4.905 10.832 -5 12 C-5.99 11.67 -6.98 11.34 -8 11 C-7.34 8.69 -6.68 6.38 -6 4 C-4.35 3.67 -2.7 3.34 -1 3 C-0.67 2.01 -0.34 1.02 0 0 Z " fill="#0A0C0E" transform="translate(132,331)"/>
<path d="M0 0 C0.66 0.33 1.32 0.66 2 1 C1.469 5.515 -0.366 8.347 -3 12 C-3.33 11.01 -3.66 10.02 -4 9 C-3.045 7.307 -2.041 5.641 -1 4 C-0.304 1.809 -0.304 1.809 0 0 Z M-6 12 C-5.01 12.495 -5.01 12.495 -4 13 C-4.99 13.495 -4.99 13.495 -6 14 C-6 13.34 -6 12.68 -6 12 Z " fill="#1C2126" transform="translate(200,336)"/>
</svg>
