<?xml version="1.0" encoding="UTF-8"?>
<!-- Generator: visioncortex VTracer 0.6.4 -->
<svg version="1.1" xmlns="http://www.w3.org/2000/svg" width="512" height="512">
<path d="M0 0 C6.641 5.593 12.97 11.198 14.059 20.191 C14.316 33.753 12.397 50.84 2.688 61.125 C1.81 62.067 1.81 62.067 0.914 63.027 C-7.61 71.255 -18.888 74.921 -30.562 75.438 C-46.239 74.916 -63.635 68.181 -74.641 56.695 C-75.275 55.888 -75.909 55.081 -76.562 54.25 C-77.207 53.448 -77.852 52.646 -78.516 51.82 C-85.496 41.35 -84.282 28.19 -82.117 16.223 C-79.421 5.845 -74.505 -1.313 -65.312 -6.875 C-44.079 -17.572 -18.753 -14.375 0 0 Z M-55.312 10.125 C-57.544 13.87 -57.647 16.496 -57.031 20.746 C-55.418 26.085 -51.748 29.586 -47.117 32.512 C-39.643 36.027 -30.779 36.648 -22.816 34.43 C-18.118 32.316 -15.003 29.497 -12.312 25.125 C-11.344 20.839 -11.919 17.912 -13.875 14 C-20.109 6.647 -25.951 3.003 -35.672 1.844 C-43.792 1.508 -50.052 3.782 -55.312 10.125 Z " fill="#262D36" transform="translate(386.3125,227.875)"/>
</svg>
