<?xml version="1.0" encoding="UTF-8"?>
<!-- Generator: visioncortex VTracer 0.6.4 -->
<svg version="1.1" xmlns="http://www.w3.org/2000/svg" width="512" height="512">
<path d="M0 0 C0.987 -0.021 1.974 -0.041 2.99 -0.062 C12.428 -0.112 20.658 1.784 28.961 6.277 C31.158 7.359 33.35 8.085 35.688 8.812 C38.914 9.838 41.491 10.804 43.938 13.25 C43.938 13.91 43.938 14.57 43.938 15.25 C44.494 15.312 45.051 15.374 45.625 15.438 C48.928 16.598 50.656 18.652 52.938 21.25 C52.938 21.91 52.938 22.57 52.938 23.25 C54.423 23.745 54.423 23.745 55.938 24.25 C57 25.922 57 25.922 57.938 28 C58.458 29.081 58.458 29.081 58.988 30.184 C59.729 31.797 60.434 33.427 61.125 35.062 C63.231 37.604 64.453 37.924 67.551 38.887 C68.779 39.275 68.779 39.275 70.032 39.671 C70.661 39.862 71.29 40.053 71.938 40.25 C71.967 43.5 71.984 46.75 72 50 C72.008 50.92 72.017 51.841 72.025 52.789 C72.029 53.679 72.032 54.568 72.035 55.484 C72.04 56.301 72.046 57.118 72.051 57.96 C71.869 61.633 71.579 63.608 68.938 66.25 C68.505 68.423 68.162 70.615 67.875 72.812 C67.035 79.153 67.035 79.153 65.938 80.25 C65.611 82.771 65.326 85.285 65.062 87.812 C64.894 89.294 64.718 90.774 64.535 92.254 C64.455 92.922 64.375 93.591 64.293 94.28 C63.798 97.022 62.842 99.473 61.723 102.016 C60.58 105.267 60.037 108.616 59.438 112 C56.143 130.253 56.143 130.253 52.938 135.562 C48.388 138.122 43.921 137.513 38.938 136.25 C37.422 133.22 37.289 129.951 36.875 126.625 C36.739 125.565 36.739 125.565 36.6 124.484 C36.376 122.74 36.156 120.995 35.938 119.25 C34.125 119.222 32.313 119.203 30.5 119.188 C29.491 119.176 28.481 119.164 27.441 119.152 C24.861 119.224 22.508 119.415 19.967 119.752 C14.295 120.398 8.667 120.357 2.965 120.312 C1.842 120.309 0.72 120.305 -0.437 120.301 C-3.999 120.289 -7.562 120.27 -11.125 120.25 C-15.824 120.223 -20.523 120.203 -25.223 120.188 C-26.291 120.179 -27.358 120.171 -28.459 120.162 C-34.096 120.144 -39.487 120.402 -45.062 121.25 C-45.901 114.587 -46.263 108.032 -46.379 101.32 C-46.4 100.291 -46.42 99.261 -46.442 98.2 C-46.485 96.026 -46.526 93.853 -46.565 91.68 C-46.624 88.419 -46.689 85.159 -46.756 81.898 C-46.961 71.445 -47.132 60.996 -47.019 50.54 C-46.979 44.644 -47.353 38.809 -48.059 32.954 C-48.64 26.425 -46.173 23.022 -42.316 17.957 C-37.421 12.474 -33.271 8.459 -26.25 6.039 C-23.129 4.913 -20.148 3.513 -17.141 2.117 C-11.538 -0.221 -5.985 0.03 0 0 Z M-27.062 16.25 C-28.135 16.951 -29.207 17.653 -30.312 18.375 C-37.741 26.141 -40.302 35.775 -41.062 46.25 C-41.112 46.901 -41.161 47.552 -41.211 48.222 C-41.809 57.234 -41.457 64.631 -36.062 72.25 C-35.566 72.955 -35.07 73.66 -34.559 74.387 C-24.204 87.485 -6.68 93.654 9.371 95.535 C21.852 96.062 34.618 91.402 43.812 83 C54.051 71.711 56.387 55.215 56.371 40.52 C55.292 32.382 49.683 26.702 43.938 21.25 C40.418 18.619 36.767 16.397 32.938 14.25 C32.294 13.85 31.651 13.451 30.988 13.039 C13.499 2.947 -10.927 5.031 -27.062 16.25 Z " fill="#000000" transform="translate(344.0625,207.75)"/>
<path d="M0 0 C0.33 0 0.66 0 1 0 C1 1.98 1 3.96 1 6 C0.67 6 0.34 6 0 6 C0 4.02 0 2.04 0 0 Z " fill="#030404" transform="translate(298,330)"/>
</svg>
