<?xml version="1.0" encoding="UTF-8"?>
<!-- Generator: visioncortex VTracer 0.6.4 -->
<svg version="1.1" xmlns="http://www.w3.org/2000/svg" width="512" height="512">
<path d="M0 0 C1.977 -0.005 1.977 -0.005 3.993 -0.009 C5.428 0.003 6.862 0.015 8.296 0.028 C9.768 0.031 11.239 0.033 12.711 0.034 C15.79 0.039 18.869 0.053 21.948 0.075 C25.903 0.104 29.857 0.114 33.812 0.119 C36.848 0.123 39.884 0.133 42.92 0.145 C44.379 0.15 45.838 0.155 47.297 0.159 C49.329 0.166 51.362 0.18 53.395 0.195 C54.553 0.202 55.711 0.209 56.904 0.216 C59.503 0.356 59.503 0.356 60.503 1.356 C61.163 8.673 60.323 16.258 58.503 23.356 C56.503 25.356 56.503 25.356 53.46 25.604 C52.153 25.602 50.846 25.601 49.499 25.599 C48.418 25.602 48.418 25.602 47.316 25.605 C44.929 25.609 42.542 25.598 40.156 25.587 C38.502 25.586 36.848 25.585 35.194 25.586 C31.726 25.584 28.259 25.576 24.791 25.562 C20.336 25.545 15.882 25.541 11.427 25.542 C8.012 25.542 4.597 25.536 1.182 25.529 C-0.461 25.526 -2.105 25.524 -3.748 25.523 C-6.039 25.521 -8.331 25.512 -10.622 25.502 C-12.582 25.496 -12.582 25.496 -14.581 25.49 C-17.497 25.356 -17.497 25.356 -18.497 24.356 C-19.156 20.009 -17.637 17.199 -15.637 13.481 C-14.172 10.751 -12.903 7.938 -11.622 5.118 C-8.635 0.441 -5.312 -0.017 0 0 Z " fill="#232333" transform="translate(134.496826171875,160.6435546875)"/>
<path d="M0 0 C1.318 -0.003 2.636 -0.006 3.994 -0.01 C5.439 -0.008 6.883 -0.006 8.328 -0.003 C9.802 -0.004 11.277 -0.005 12.751 -0.006 C15.842 -0.008 18.933 -0.006 22.024 -0.001 C25.995 0.005 29.965 0.001 33.936 -0.005 C36.98 -0.008 40.025 -0.007 43.069 -0.004 C44.534 -0.004 45.998 -0.005 47.463 -0.007 C49.505 -0.009 51.547 -0.005 53.59 0 C55.336 0.001 55.336 0.001 57.118 0.002 C59.73 0.129 59.73 0.129 60.73 1.129 C60.73 2.779 60.73 4.429 60.73 6.129 C37.3 5.799 13.87 5.469 -10.27 5.129 C-7.44 -0.529 -5.972 0.004 0 0 Z " fill="#030206" transform="translate(134.269775390625,160.87060546875)"/>
<path d="M0 0 C7.284 -0.023 14.568 -0.041 21.853 -0.052 C25.235 -0.057 28.617 -0.064 31.999 -0.075 C35.883 -0.088 39.768 -0.093 43.652 -0.098 C44.872 -0.103 46.092 -0.108 47.349 -0.113 C49.03 -0.113 49.03 -0.113 50.746 -0.114 C51.738 -0.116 52.731 -0.118 53.754 -0.12 C56 0 56 0 57 1 C57 2.65 57 4.3 57 6 C33.57 5.67 10.14 5.34 -14 5 C-13.67 4.01 -13.34 3.02 -13 2 C-12.67 2.66 -12.34 3.32 -12 4 C-5.797 3.88 0.406 3.756 6.61 3.628 C8.711 3.585 10.812 3.543 12.913 3.503 C15.97 3.444 19.026 3.38 22.082 3.316 C22.99 3.3 23.898 3.283 24.834 3.266 C34.245 3.062 43.582 2.496 53 2 C35.51 1.67 18.02 1.34 0 1 C0 0.67 0 0.34 0 0 Z " fill="#0C0D18" transform="translate(138,161)"/>
</svg>
