<?xml version="1.0" encoding="UTF-8"?>
<!-- Generator: visioncortex VTracer 0.6.4 -->
<svg version="1.1" xmlns="http://www.w3.org/2000/svg" width="512" height="512">
<path d="M0 0 C2.753 1.796 4.526 3.053 6 6 C6.361 11.588 6.329 13.562 3 18 C2.731 20.719 2.863 23.258 3 26 C0.03 26 -2.94 26 -6 26 C-6.062 25.072 -6.124 24.144 -6.188 23.188 C-6.658 19.828 -6.658 19.828 -9.438 18.438 C-10.283 17.963 -11.129 17.489 -12 17 C-13.728 14.094 -14.016 12.381 -13.875 9 C-12.865 5.538 -11.461 3.61 -9 1 C-5.9 -0.55 -3.421 -0.29 0 0 Z " fill="#78797C" transform="translate(400,166)"/>
<path d="M0 0 C2.047 2.047 1.7 6.304 2 9 C-0.97 9 -3.94 9 -7 9 C-7 6.36 -7 3.72 -7 1 C-4.516 -0.242 -2.748 -0.141 0 0 Z " fill="#272D33" transform="translate(401,183)"/>
<path d="M0 0 C0.99 0.33 1.98 0.66 3 1 C3 1.99 3 2.98 3 4 C0.69 4.33 -1.62 4.66 -4 5 C-3.67 4.01 -3.34 3.02 -3 2 C-2.34 2 -1.68 2 -1 2 C-0.67 1.34 -0.34 0.68 0 0 Z " fill="#575B62" transform="translate(397,179)"/>
<path d="M0 0 C0.33 0 0.66 0 1 0 C1.33 3.63 1.66 7.26 2 11 C1.01 11.66 0.02 12.32 -1 13 C-0.67 8.71 -0.34 4.42 0 0 Z " fill="#808285" transform="translate(403,171)"/>
</svg>
