<?xml version="1.0" encoding="UTF-8"?>
<!-- Generator: visioncortex VTracer 0.6.4 -->
<svg version="1.1" xmlns="http://www.w3.org/2000/svg" width="512" height="512">
<path d="M0 0 C2.31 0 4.62 0 7 0 C7.025 4.112 7.043 8.223 7.055 12.335 C7.06 13.735 7.067 15.135 7.075 16.534 C7.088 18.542 7.093 20.551 7.098 22.559 C7.103 23.768 7.108 24.978 7.114 26.224 C7 29 7 29 6 30 C4 30.041 2 30.043 0 30 C-1.12 26.64 -1.028 24.331 -0.879 20.801 C-0.831 19.592 -0.782 18.384 -0.732 17.139 C-0.676 15.876 -0.62 14.613 -0.562 13.312 C-0.51 12.038 -0.458 10.764 -0.404 9.451 C-0.274 6.301 -0.14 3.15 0 0 Z " fill="#E89B05" transform="translate(86,275)"/>
</svg>
