<?xml version="1.0" encoding="UTF-8"?>
<!-- Generator: visioncortex VTracer 0.6.4 -->
<svg version="1.1" xmlns="http://www.w3.org/2000/svg" width="512" height="512">
<path d="M0 0 C6.6 0 13.2 0 20 0 C20 9.57 20 19.14 20 29 C16.886 29.021 13.771 29.041 10.562 29.062 C9.088 29.076 9.088 29.076 7.584 29.09 C6.815 29.093 6.046 29.095 5.254 29.098 C4.463 29.103 3.672 29.108 2.858 29.114 C1 29 1 29 0 28 C-0.088 25.927 -0.107 23.852 -0.098 21.777 C-0.094 20.517 -0.091 19.257 -0.088 17.959 C-0.08 16.618 -0.071 15.278 -0.062 13.938 C-0.057 12.593 -0.053 11.249 -0.049 9.904 C-0.037 6.603 -0.019 3.301 0 0 Z " fill="#F2F3F1" transform="translate(93,275)"/>
<path d="M0 0 C6.6 0 13.2 0 20 0 C20 8.91 20 17.82 20 27 C19.67 27 19.34 27 19 27 C19 19.41 19 11.82 19 4 C18.34 4 17.68 4 17 4 C17 3.01 17 2.02 17 1 C11.39 1 5.78 1 0 1 C0 0.67 0 0.34 0 0 Z " fill="#E2D4A5" transform="translate(93,275)"/>
</svg>
