<?xml version="1.0" encoding="UTF-8"?>
<!-- Generator: visioncortex VTracer 0.6.4 -->
<svg version="1.1" xmlns="http://www.w3.org/2000/svg" width="512" height="512">
<path d="M0 0 C5.915 2.614 9.291 7.593 11.98 13.348 C20.451 35.384 17.47 59.845 8.668 81.383 C5.177 88.954 0.849 94.833 -7 98 C-9.764 98.287 -12.209 98.196 -15 98 C-15.33 97.01 -15.66 96.02 -16 95 C-16.66 95 -17.32 95 -18 95 C-27.272 78.743 -30.512 64.725 -30 46 C-31.98 46.495 -31.98 46.495 -34 47 C-33.614 44.219 -33.29 42.378 -31.562 40.125 C-29.794 37.981 -29.794 37.981 -29.105 34.828 C-25.632 22.799 -15.635 -2.95 0 0 Z M-8.832 28.082 C-14.694 37.707 -15.558 49.938 -13.457 60.809 C-12.206 65.017 -10.783 68.514 -7 71 C-4.043 71.833 -4.043 71.833 -1 71 C4.795 65.744 7.027 58.783 7.434 51.062 C7.451 49.375 7.452 47.687 7.438 46 C7.457 45.162 7.477 44.324 7.498 43.461 C7.493 36.582 5.999 29.999 1 25 C-3.214 24.345 -5.948 24.75 -8.832 28.082 Z " fill="#282F37" transform="translate(286,281)"/>
<path d="M0 0 C1.644 4.06 0.286 7.012 -1.125 11 C-1.54 12.217 -1.955 13.434 -2.383 14.688 C-4.119 18.244 -5.751 19.812 -9 22 C-8.614 19.219 -8.29 17.378 -6.562 15.125 C-4.473 12.283 -3.934 9.387 -3 6 C-2.044 3.978 -1.057 1.97 0 0 Z " fill="#171A1F" transform="translate(261,306)"/>
<path d="" fill="#010000" transform="translate(0,0)"/>
<path d="" fill="#021E3E" transform="translate(0,0)"/>
</svg>
