<?xml version="1.0" encoding="UTF-8"?>
<!-- Generator: visioncortex VTracer 0.6.4 -->
<svg version="1.1" xmlns="http://www.w3.org/2000/svg" width="512" height="512">
<path d="M0 0 C1.075 0.005 2.149 0.011 3.256 0.016 C21.986 0.222 40.696 1.546 59.389 2.66 C62.346 2.836 65.303 3.01 68.261 3.184 C69.707 3.269 71.153 3.355 72.598 3.441 C84.58 4.148 96.558 4.611 108.556 4.908 C118.446 5.17 118.446 5.17 122.488 5.773 C128.446 6.632 134.496 6.354 140.5 6.312 C141.752 6.308 143.003 6.303 144.293 6.299 C147.362 6.287 150.431 6.271 153.5 6.25 C156.548 11.317 155.577 16.602 155.312 22.312 C155.281 23.414 155.249 24.516 155.217 25.65 C155.172 26.705 155.128 27.761 155.082 28.848 C155.024 30.294 155.024 30.294 154.964 31.77 C154.424 34.658 153.868 35.553 151.5 37.25 C145.95 39.284 140.043 39.574 134.188 39.5 C133.393 39.495 132.599 39.491 131.781 39.486 C123.251 39.364 114.752 38.724 106.251 38.05 C99.54 37.518 92.837 37.11 86.113 36.801 C74.595 36.26 63.116 35.324 51.625 34.375 C48.335 34.106 45.045 33.839 41.755 33.571 C39.548 33.391 37.342 33.211 35.136 33.031 C28.071 32.454 21.005 31.897 13.938 31.355 C12.169 31.219 10.401 31.083 8.632 30.947 C6.15 30.756 3.668 30.566 1.186 30.379 C-1.061 30.21 -3.308 30.037 -5.555 29.863 C-6.807 29.768 -8.06 29.673 -9.351 29.575 C-11.854 29.317 -14.095 28.959 -16.5 28.25 C-17.208 19.476 -17.868 11.002 -16.5 2.25 C-10.957 -0.078 -5.905 -0.054 0 0 Z " fill="#8B8D8F" transform="translate(92.5,304.75)"/>
</svg>
