<?xml version="1.0" encoding="UTF-8"?>
<!-- Generator: visioncortex VTracer 0.6.4 -->
<svg version="1.1" xmlns="http://www.w3.org/2000/svg" width="512" height="512">
<path d="M0 0 C3.062 1.562 3.062 1.562 5 4 C5.587 7.485 5.611 10.778 4 14 C1.121 13.063 -1.686 12.145 -4.438 10.875 C-9.203 9.248 -12.846 9.496 -17.438 11.5 C-18.283 11.995 -19.129 12.49 -20 13 C-18.332 7.996 -15.649 2.706 -11.113 -0.215 C-7.35 -1.613 -3.833 -0.921 0 0 Z " fill="#707274" transform="translate(232,140)"/>
<path d="M0 0 C0.33 0.66 0.66 1.32 1 2 C0.34 1.67 -0.32 1.34 -1 1 C-0.67 0.67 -0.34 0.34 0 0 Z " fill="#6D7074" transform="translate(211,153)"/>
</svg>
