<?xml version="1.0" encoding="UTF-8"?>
<!-- Generator: visioncortex VTracer 0.6.4 -->
<svg version="1.1" xmlns="http://www.w3.org/2000/svg" width="512" height="512">
<path d="M0 0 C4.81 0.559 8.34 1.959 12.625 4.188 C14.035 4.912 15.445 5.636 16.855 6.359 C17.654 6.771 18.452 7.183 19.275 7.607 C22.989 9.505 26.725 11.359 30.46 13.215 C41.67 18.785 52.846 24.405 63.875 30.328 C66.785 31.961 66.785 31.961 69.116 32.839 C71 34 71 34 71.821 35.924 C71.968 36.69 72.115 37.456 72.266 38.246 C72.433 39.083 72.601 39.921 72.773 40.783 C72.931 41.659 73.088 42.535 73.25 43.438 C73.423 44.31 73.595 45.182 73.773 46.08 C74.427 49.453 75 52.557 75 56 C70.329 55.409 66.674 53.378 62.625 51.125 C55.904 47.477 49.099 44.084 42.188 40.812 C41.245 40.357 40.303 39.902 39.332 39.433 C34.368 37.04 29.389 34.718 24.331 32.533 C21.735 31.4 19.16 30.224 16.586 29.041 C15.334 28.478 14.072 27.934 12.803 27.411 C8.729 25.725 5.232 24.024 2 21 C0.267 16.313 -0.012 11.967 0 7 C-0.004 5.701 -0.009 4.402 -0.013 3.063 C-0.009 2.052 -0.004 1.041 0 0 Z " fill="#000000" transform="translate(319,117)"/>
</svg>
