<?xml version="1.0" encoding="UTF-8"?>
<!-- Generator: visioncortex VTracer 0.6.4 -->
<svg version="1.1" xmlns="http://www.w3.org/2000/svg" width="512" height="512">
<path d="M0 0 C4.624 0.134 7.425 0.965 10.75 4.375 C11.256 7.224 11.042 9.45 10.75 12.375 C9.737 12.329 8.724 12.282 7.68 12.234 C6.328 12.197 4.977 12.16 3.625 12.125 C2.96 12.091 2.295 12.058 1.609 12.023 C-4.464 11.904 -7.803 14.091 -12.125 18.125 C-12.496 18.537 -12.868 18.95 -13.25 19.375 C-13.791 15.122 -14.014 12.64 -11.762 8.91 C-4.851 0.083 -4.851 0.083 0 0 Z " fill="#E39A08" transform="translate(285.25,112.625)"/>
</svg>
