<?xml version="1.0" encoding="UTF-8"?>
<!-- Generator: visioncortex VTracer 0.6.4 -->
<svg version="1.1" xmlns="http://www.w3.org/2000/svg" width="512" height="512">
<path d="M0 0 C2.365 1.16 4.73 2.318 7.095 3.476 C8.658 4.242 10.221 5.008 11.784 5.774 C17.77 8.711 23.785 11.585 29.812 14.438 C50.784 24.411 71.58 34.823 92.055 45.778 C94.503 47.071 96.967 48.33 99.434 49.586 C100.301 50.031 101.169 50.477 102.063 50.936 C103.713 51.782 105.367 52.622 107.025 53.453 C112.724 56.394 117.092 59.102 119.613 65.277 C119.927 66.465 120.24 67.652 120.562 68.875 C120.889 70.06 121.215 71.244 121.551 72.465 C122.584 77.596 122.95 80.678 120.375 85.312 C116.224 90.653 109.735 96.719 103.25 98.938 C99.086 98.47 95.709 97.443 91.926 95.672 C90.912 95.201 89.898 94.73 88.853 94.245 C87.767 93.731 86.681 93.217 85.562 92.688 C84.414 92.151 83.266 91.615 82.082 91.062 C72.967 86.789 63.909 82.399 54.851 78.007 C44.505 73.013 34.057 68.259 23.589 63.529 C14.699 59.511 5.839 55.44 -3 51.312 C-14.063 46.15 -25.182 41.121 -36.337 36.162 C-37.481 35.652 -38.626 35.142 -39.805 34.617 C-40.81 34.171 -41.815 33.725 -42.851 33.265 C-51.571 29.272 -51.571 29.272 -52.773 27.027 C-53.16 24.664 -53.506 22.321 -53.75 19.938 C-53.856 19.137 -53.961 18.336 -54.07 17.512 C-54.706 8.849 -50.71 2.652 -45.453 -3.945 C-31.826 -19.577 -15.405 -7.607 0 0 Z " fill="#8A8C8E" transform="translate(317.75,136.0625)"/>
</svg>
