<?xml version="1.0" encoding="UTF-8"?>
<!-- Generator: visioncortex VTracer 0.6.4 -->
<svg version="1.1" xmlns="http://www.w3.org/2000/svg" width="512" height="512">
<path d="M0 0 C7.297 2.285 13.985 5.998 20.711 9.574 C35.555 17.426 50.515 25.051 65.472 32.686 C68.248 34.104 71.022 35.524 73.794 36.951 C76.838 38.516 79.887 40.072 82.938 41.625 C84.184 42.271 84.184 42.271 85.456 42.929 C90.252 45.351 94.739 46.887 100 48 C100 48.66 100 49.32 100 50 C101.65 50.33 103.3 50.66 105 51 C105.33 51.99 105.66 52.98 106 54 C98.544 53.807 93.084 50.817 86.601 47.313 C84.068 45.944 81.52 44.604 78.973 43.261 C77.649 42.563 76.325 41.863 75.002 41.162 C68.581 37.762 62.109 34.467 55.612 31.214 C53.861 30.337 52.113 29.453 50.364 28.57 C44.008 25.386 37.641 22.539 31 20 C31.33 23.63 31.66 27.26 32 31 C30.733 30.397 29.466 29.793 28.16 29.172 C26.461 28.365 24.762 27.557 23.062 26.75 C22.232 26.354 21.401 25.959 20.545 25.551 C15.662 23.233 10.759 20.979 5.81 18.806 C4.526 18.234 3.257 17.629 2 17 C-1.109 16.453 -3.9 16.369 -7 17 C-11.863 20.517 -13.714 25.633 -16 31 C-18.625 33.875 -18.625 33.875 -21 36 C-24.615 39.615 -23.13 51.287 -23.23 56.355 C-23.154 57.228 -23.078 58.101 -23 59 C-22.967 59.703 -22.934 60.406 -22.9 61.13 C-22.598 63.727 -22.161 65.651 -21 68 C-17.92 70.401 -14.453 71.589 -10.812 72.938 C-8.537 73.858 -6.264 74.784 -3.992 75.715 C-3.373 75.964 -2.754 76.213 -2.117 76.47 C5.718 79.643 13.357 83.243 21.017 86.814 C25.243 88.783 29.476 90.74 33.707 92.699 C34.519 93.076 35.332 93.452 36.168 93.84 C41.736 96.42 47.314 98.974 52.899 101.515 C63.183 106.195 73.368 111.056 83.528 116 C89.686 118.979 95.87 121.867 102.121 124.645 C102.792 124.943 103.464 125.241 104.155 125.549 C107.423 126.998 110.695 128.437 113.973 129.863 C115.14 130.376 116.306 130.889 117.508 131.418 C118.546 131.869 119.584 132.321 120.653 132.786 C123 134 123 134 124 136 C121.69 136 119.38 136 117 136 C117 136.66 117 137.32 117 138 C117.66 138 118.32 138 119 138 C119 138.66 119 139.32 119 140 C116.159 141.461 114.7 142.197 111.562 141.312 C109.705 140.361 107.851 139.402 106 138.438 C103.202 137.097 101.011 136.588 98 136 C96.866 135.464 95.731 134.928 94.562 134.375 C90.59 132.842 89.011 132.72 85 134 C78.063 137.469 74.712 143.666 71.277 150.355 C68.808 154.686 65.378 157.708 61.688 161 C60.26 162.308 58.834 163.618 57.41 164.93 C56.32 165.931 56.32 165.931 55.208 166.952 C51.619 170.281 48.11 173.687 44.625 177.125 C43.989 177.74 43.353 178.355 42.698 178.988 C38.666 182.988 36.087 185.957 35.918 191.867 C36.835 202.609 36.835 202.609 43.188 210.938 C44.116 211.618 45.044 212.299 46 213 C39.893 220.263 33.31 226.983 26.632 233.718 C25.205 235.161 23.784 236.61 22.368 238.064 C20.309 240.178 18.235 242.274 16.156 244.367 C15.528 245.018 14.9 245.669 14.252 246.34 C10.69 249.885 8.287 251.977 3 252 C0.07 250.82 0.07 250.82 -2.875 249.125 C-7.822 246.492 -11.374 244.9 -17 245 C-19.596 245.676 -19.596 245.676 -21 248 C-22.301 253.61 -22.301 253.61 -21 259 C-20.077 266.096 -23.043 271.547 -26 277.875 C-26.458 278.913 -26.915 279.95 -27.387 281.02 C-30.591 287.982 -34.821 296.411 -42 300 C-45.275 300.285 -47.363 300.327 -50.312 298.812 C-52.452 296.514 -52.587 295.096 -53 292 C-52.919 290.059 -52.772 288.119 -52.562 286.188 C-52.461 285.212 -52.359 284.236 -52.254 283.23 C-52.17 282.494 -52.086 281.758 -52 281 C-52.66 281 -53.32 281 -54 281 C-55.053 284.16 -55.133 286.434 -55.125 289.75 C-55.128 290.755 -55.13 291.761 -55.133 292.797 C-54.99 296.251 -54.509 299.582 -54 303 C-55.361 302.541 -55.361 302.541 -56.749 302.073 C-79.416 294.438 -102.156 287.085 -125 280 C-124.323 278.974 -124.323 278.974 -123.631 277.928 C-119.747 271.953 -116.275 266.01 -113.375 259.5 C-112.807 258.232 -112.807 258.232 -112.227 256.939 C-107.044 244.969 -102.777 231.272 -102.938 218.125 C-102.947 217.158 -102.956 216.191 -102.965 215.195 C-102.976 214.471 -102.988 213.746 -103 213 C-103.909 212.636 -103.909 212.636 -104.836 212.266 C-106.599 211.561 -108.359 210.849 -110.117 210.133 C-112 209.393 -113.902 208.698 -115.82 208.055 C-122.659 205.682 -122.659 205.682 -124.625 201.75 C-124.749 200.842 -124.873 199.935 -125 199 C-127.693 198.158 -129.247 197.721 -132 198 C-138.506 201.977 -142.226 207.903 -145.562 214.562 C-146.026 215.476 -146.49 216.389 -146.969 217.33 C-155.187 234.05 -159.071 250.451 -160 269 C-164.891 266.258 -164.891 266.258 -165.875 263.938 C-166.061 259.576 -165.546 255.324 -165 251 C-165.66 250.67 -166.32 250.34 -167 250 C-165.722 241.835 -164.153 233.784 -162.32 225.727 C-162.066 224.6 -161.812 223.474 -161.551 222.314 C-161.016 219.949 -160.48 217.584 -159.942 215.22 C-159.129 211.642 -158.324 208.064 -157.52 204.484 C-150.356 172.77 -150.356 172.77 -145.562 163.625 C-144.959 162.47 -144.356 161.315 -143.734 160.125 C-141.989 156.981 -140.168 153.926 -138.192 150.923 C-137.042 149.068 -136.094 147.208 -135.159 145.238 C-133.122 141.118 -130.732 137.357 -128.148 133.562 C-127.69 132.879 -127.231 132.196 -126.758 131.492 C-125.301 129.325 -123.839 127.162 -122.375 125 C-120.463 122.169 -118.554 119.336 -116.648 116.5 C-116.177 115.798 -115.705 115.096 -115.218 114.373 C-111.515 108.835 -107.977 103.205 -104.475 97.537 C-101.685 93.04 -98.736 88.694 -95.658 84.387 C-91.862 78.922 -88.452 73.186 -84.986 67.508 C-84.399 66.567 -83.812 65.626 -83.207 64.656 C-82.686 63.809 -82.165 62.961 -81.628 62.088 C-79.878 59.844 -78.512 59.21 -76 58 C-75.67 57.01 -75.34 56.02 -75 55 C-72.29 52.848 -70.298 52.048 -66.875 51.5 C-62.16 52.108 -58.588 53.805 -54.355 55.906 C-52.131 57.14 -52.131 57.14 -50 57 C-48.358 54.87 -48.358 54.87 -46.625 52.062 C-43.254 46.875 -39.773 41.792 -36.188 36.75 C-32.084 30.966 -28.016 25.159 -24 19.312 C-23.556 18.666 -23.111 18.019 -22.653 17.353 C-20.7 14.504 -18.773 11.65 -16.891 8.754 C-12.588 2.486 -8.021 -1.79 0 0 Z M-51.43 72.465 C-56.676 78.621 -63.253 86.403 -64.355 94.664 C-65.323 99.674 -67.624 103.977 -69.812 108.562 C-76.608 123.189 -85.707 143.586 -79.875 159.875 C-75.895 166.509 -68.557 168.614 -61.625 171.25 C-60.718 171.614 -59.81 171.977 -58.875 172.352 C-52.044 174.97 -46.502 176.501 -39.5 173.5 C-29.469 166.873 -24.277 157.471 -19 147 C-18.506 146.025 -18.506 146.025 -18.002 145.029 C-11.627 132.167 -7.743 118.247 -6 104 C-5.863 102.906 -5.727 101.811 -5.586 100.684 C-5.037 94.494 -5.037 94.494 -7.516 89.074 C-9.927 87.417 -12.338 86.219 -15 85 C-16.241 84.37 -17.479 83.734 -18.715 83.094 C-22.119 81.342 -25.55 79.659 -29 78 C-28.978 76.915 -28.956 75.829 -28.934 74.711 C-29.009 70.5 -29.498 68.39 -32 65 C-39.752 61.836 -46.129 67.088 -51.43 72.465 Z M-81 74 C-82.482 75.735 -82.482 75.735 -84 78.062 C-84.619 78.971 -85.238 79.88 -85.875 80.816 C-86.576 81.867 -87.278 82.918 -88 84 C-88.393 84.589 -88.786 85.178 -89.191 85.785 C-90.895 88.338 -92.598 90.892 -94.289 93.454 C-96.763 97.194 -99.332 100.831 -102 104.438 C-107.991 113.059 -107.533 122.865 -108 133 C-107.34 133.33 -106.68 133.66 -106 134 C-106.66 134.969 -107.32 135.939 -108 136.938 C-110.513 141.256 -110.398 145.126 -110 150 C-104.034 144.576 -98.517 137.737 -96 130 C-96 128.68 -96 127.36 -96 126 C-98.962 126.613 -100.381 127.254 -103 129 C-102.322 128.019 -101.644 127.038 -100.945 126.027 C-98.469 122.44 -96.006 118.843 -93.544 115.246 C-92.079 113.115 -90.598 110.996 -89.113 108.879 C-88.221 107.586 -87.329 106.293 -86.438 105 C-86.021 104.415 -85.604 103.829 -85.174 103.226 C-80.562 96.469 -79.732 89.525 -79.375 81.5 C-79.336 80.773 -79.298 80.046 -79.258 79.297 C-79.165 77.532 -79.081 75.766 -79 74 C-79.66 74 -80.32 74 -81 74 Z M-120 133 C-125.59 139.421 -130.191 146.623 -134.812 153.75 C-135.813 155.272 -135.813 155.272 -136.834 156.824 C-137.473 157.805 -138.111 158.786 -138.77 159.797 C-139.63 161.117 -139.63 161.117 -140.507 162.464 C-143.707 167.901 -144.906 173.519 -146.188 179.625 C-146.378 180.484 -146.568 181.342 -146.764 182.227 C-146.938 183.052 -147.113 183.877 -147.293 184.727 C-147.453 185.475 -147.613 186.223 -147.778 186.995 C-148.164 189.205 -148.164 189.205 -147 192 C-141.528 185.074 -136.295 178.161 -131.664 170.633 C-129.43 167.098 -126.971 163.744 -124.48 160.387 C-120.94 154.68 -120.475 148.659 -119.875 142.125 C-119.789 141.246 -119.702 140.367 -119.613 139.461 C-119.403 137.308 -119.2 135.154 -119 133 C-119.33 133 -119.66 133 -120 133 Z M-145 194 C-146.372 195.741 -147.697 197.519 -149 199.312 C-149.722 200.299 -150.444 201.285 -151.188 202.301 C-154.099 206.636 -154.097 209.878 -154 215 C-150.409 213.803 -149.897 212.791 -147.875 209.688 C-147.098 208.518 -147.098 208.518 -146.305 207.324 C-143.811 202.882 -143.903 199.054 -144 194 C-144.33 194 -144.66 194 -145 194 Z " fill="#000000" transform="translate(288,97)"/>
<path d="M0 0 C7.297 2.285 13.985 5.998 20.711 9.574 C35.555 17.426 50.515 25.051 65.472 32.686 C68.248 34.104 71.022 35.524 73.794 36.951 C76.838 38.516 79.887 40.072 82.938 41.625 C84.184 42.271 84.184 42.271 85.456 42.929 C90.252 45.351 94.739 46.887 100 48 C100 48.66 100 49.32 100 50 C101.65 50.33 103.3 50.66 105 51 C105.33 51.99 105.66 52.98 106 54 C98.544 53.807 93.084 50.817 86.601 47.313 C84.068 45.944 81.52 44.604 78.973 43.261 C77.649 42.563 76.325 41.863 75.002 41.162 C68.581 37.762 62.109 34.467 55.612 31.214 C53.861 30.337 52.113 29.453 50.364 28.57 C44.008 25.386 37.641 22.539 31 20 C31.33 23.63 31.66 27.26 32 31 C30.733 30.397 29.466 29.793 28.16 29.172 C26.461 28.365 24.762 27.557 23.062 26.75 C22.232 26.354 21.401 25.959 20.545 25.551 C15.662 23.233 10.759 20.979 5.81 18.806 C4.526 18.234 3.257 17.629 2 17 C-1.109 16.453 -3.9 16.369 -7 17 C-11.863 20.517 -13.714 25.633 -16 31 C-18.625 33.875 -18.625 33.875 -21 36 C-24.617 39.617 -23.183 51.486 -23.191 56.562 C-22.982 59.224 -22.341 61.557 -21.625 64.125 C-20.91 67.219 -20.766 68.503 -22.133 71.406 C-23.643 73.478 -25.081 75.299 -27 77 C-27.66 77 -28.32 77 -29 77 C-29.11 76.385 -29.219 75.77 -29.332 75.137 C-29.491 74.328 -29.649 73.52 -29.812 72.688 C-29.963 71.887 -30.114 71.086 -30.27 70.262 C-31.093 67.711 -31.857 66.592 -34 65 C-40.063 65 -44.442 67.209 -49 71 C-54.962 77.231 -59.15 84.33 -63 92 C-63.66 92 -64.32 92 -65 92 C-65.253 92.82 -65.505 93.64 -65.766 94.484 C-66.92 97.772 -68.255 100.855 -69.716 104.011 C-75.224 115.936 -80.516 127.991 -81.815 141.159 C-83.01 152.757 -87.765 159.197 -95.248 167.89 C-98.122 171.351 -100.641 175.045 -103.188 178.75 C-109.467 187.763 -116.122 196.434 -123 205 C-123.66 203.02 -124.32 201.04 -125 199 C-127.693 198.158 -129.247 197.721 -132 198 C-138.506 201.977 -142.226 207.903 -145.562 214.562 C-146.026 215.476 -146.49 216.389 -146.969 217.33 C-155.187 234.05 -159.071 250.451 -160 269 C-164.891 266.258 -164.891 266.258 -165.875 263.938 C-166.061 259.576 -165.546 255.324 -165 251 C-165.66 250.67 -166.32 250.34 -167 250 C-165.722 241.835 -164.153 233.784 -162.32 225.727 C-162.066 224.6 -161.812 223.474 -161.551 222.314 C-161.016 219.949 -160.48 217.584 -159.942 215.22 C-159.129 211.642 -158.324 208.064 -157.52 204.484 C-150.356 172.77 -150.356 172.77 -145.562 163.625 C-144.959 162.47 -144.356 161.315 -143.734 160.125 C-141.989 156.981 -140.168 153.926 -138.192 150.923 C-137.042 149.068 -136.094 147.208 -135.159 145.238 C-133.122 141.118 -130.732 137.357 -128.148 133.562 C-127.69 132.879 -127.231 132.196 -126.758 131.492 C-125.301 129.325 -123.839 127.162 -122.375 125 C-120.463 122.169 -118.554 119.336 -116.648 116.5 C-116.177 115.798 -115.705 115.096 -115.218 114.373 C-111.515 108.835 -107.977 103.205 -104.475 97.537 C-101.685 93.04 -98.736 88.694 -95.658 84.387 C-91.862 78.922 -88.452 73.186 -84.986 67.508 C-84.399 66.567 -83.812 65.626 -83.207 64.656 C-82.686 63.809 -82.165 62.961 -81.628 62.088 C-79.878 59.844 -78.512 59.21 -76 58 C-75.67 57.01 -75.34 56.02 -75 55 C-72.29 52.848 -70.298 52.048 -66.875 51.5 C-62.16 52.108 -58.588 53.805 -54.355 55.906 C-52.131 57.14 -52.131 57.14 -50 57 C-48.358 54.87 -48.358 54.87 -46.625 52.062 C-43.254 46.875 -39.773 41.792 -36.188 36.75 C-32.084 30.966 -28.016 25.159 -24 19.312 C-23.556 18.666 -23.111 18.019 -22.653 17.353 C-20.7 14.504 -18.773 11.65 -16.891 8.754 C-12.588 2.486 -8.021 -1.79 0 0 Z M-81 74 C-82.482 75.735 -82.482 75.735 -84 78.062 C-84.619 78.971 -85.238 79.88 -85.875 80.816 C-86.576 81.867 -87.278 82.918 -88 84 C-88.393 84.589 -88.786 85.178 -89.191 85.785 C-90.895 88.338 -92.598 90.892 -94.289 93.454 C-96.763 97.194 -99.332 100.831 -102 104.438 C-107.991 113.059 -107.533 122.865 -108 133 C-107.34 133.33 -106.68 133.66 -106 134 C-106.66 134.969 -107.32 135.939 -108 136.938 C-110.513 141.256 -110.398 145.126 -110 150 C-104.034 144.576 -98.517 137.737 -96 130 C-96 128.68 -96 127.36 -96 126 C-98.962 126.613 -100.381 127.254 -103 129 C-102.322 128.019 -101.644 127.038 -100.945 126.027 C-98.469 122.44 -96.006 118.843 -93.544 115.246 C-92.079 113.115 -90.598 110.996 -89.113 108.879 C-88.221 107.586 -87.329 106.293 -86.438 105 C-86.021 104.415 -85.604 103.829 -85.174 103.226 C-80.562 96.469 -79.732 89.525 -79.375 81.5 C-79.336 80.773 -79.298 80.046 -79.258 79.297 C-79.165 77.532 -79.081 75.766 -79 74 C-79.66 74 -80.32 74 -81 74 Z M-120 133 C-125.59 139.421 -130.191 146.623 -134.812 153.75 C-135.813 155.272 -135.813 155.272 -136.834 156.824 C-137.473 157.805 -138.111 158.786 -138.77 159.797 C-139.63 161.117 -139.63 161.117 -140.507 162.464 C-143.707 167.901 -144.906 173.519 -146.188 179.625 C-146.378 180.484 -146.568 181.342 -146.764 182.227 C-146.938 183.052 -147.113 183.877 -147.293 184.727 C-147.453 185.475 -147.613 186.223 -147.778 186.995 C-148.164 189.205 -148.164 189.205 -147 192 C-141.528 185.074 -136.295 178.161 -131.664 170.633 C-129.43 167.098 -126.971 163.744 -124.48 160.387 C-120.94 154.68 -120.475 148.659 -119.875 142.125 C-119.789 141.246 -119.702 140.367 -119.613 139.461 C-119.403 137.308 -119.2 135.154 -119 133 C-119.33 133 -119.66 133 -120 133 Z M-145 194 C-146.372 195.741 -147.697 197.519 -149 199.312 C-149.722 200.299 -150.444 201.285 -151.188 202.301 C-154.099 206.636 -154.097 209.878 -154 215 C-150.409 213.803 -149.897 212.791 -147.875 209.688 C-147.098 208.518 -147.098 208.518 -146.305 207.324 C-143.811 202.882 -143.903 199.054 -144 194 C-144.33 194 -144.66 194 -145 194 Z " fill="#0257B3" transform="translate(288,97)"/>
<path d="M0 0 C1 1 1 1 1.098 4.598 C1.091 6.086 1.079 7.574 1.062 9.062 C1.058 9.821 1.053 10.58 1.049 11.361 C1.037 13.241 1.019 15.12 1 17 C-1 14 -1 14 -1 12 C-3.693 11.158 -5.247 10.721 -8 11 C-14.506 14.977 -18.226 20.903 -21.562 27.562 C-22.026 28.476 -22.49 29.389 -22.969 30.33 C-31.187 47.05 -35.071 63.451 -36 82 C-37.65 81.01 -39.3 80.02 -41 79 C-40.685 78.279 -40.371 77.559 -40.047 76.816 C-39.036 74.098 -38.605 71.805 -38.25 68.938 C-34.671 46.472 -25.051 15.104 -7 0 C-4.316 -1.342 -2.847 -0.73 0 0 Z " fill="#010407" transform="translate(164,284)"/>
<path d="M0 0 C1.274 0.653 2.542 1.316 3.807 1.988 C5.257 2.736 6.708 3.483 8.158 4.231 C9.324 4.838 9.324 4.838 10.513 5.458 C14.802 7.684 19.118 9.857 23.432 12.035 C24.331 12.489 25.231 12.943 26.157 13.411 C27.996 14.34 29.835 15.268 31.675 16.196 C33.549 17.143 35.422 18.093 37.294 19.046 C40.044 20.446 42.8 21.835 45.557 23.222 C46.384 23.646 47.211 24.07 48.063 24.507 C52.985 26.969 57.574 28.596 62.963 29.73 C62.963 30.39 62.963 31.05 62.963 31.73 C64.613 32.06 66.263 32.39 67.963 32.73 C68.293 33.72 68.623 34.71 68.963 35.73 C61.507 35.537 56.047 32.547 49.564 29.043 C47.031 27.674 44.483 26.334 41.936 24.991 C40.612 24.293 39.288 23.593 37.965 22.892 C31.544 19.492 25.072 16.197 18.575 12.944 C16.824 12.067 15.075 11.183 13.327 10.3 C6.979 7.121 0.609 4.229 -6.037 1.73 C-6.367 2.72 -6.697 3.71 -7.037 4.73 C-6.707 3.08 -6.377 1.43 -6.037 -0.27 C-3.037 -1.27 -3.037 -1.27 0 0 Z " fill="#003F8B" transform="translate(325.037109375,115.27001953125)"/>
<path d="M0 0 C1.098 1.751 1.098 1.751 2 4 C1.496 5.944 1.496 5.944 0.438 7.984 C0.055 8.748 -0.327 9.511 -0.72 10.297 C-1.143 11.107 -1.565 11.916 -2 12.75 C-5.504 19.739 -8.57 26.685 -11.059 34.099 C-12.294 37.649 -12.76 38.84 -16 41 C-13.397 26.549 -6.631 12.99 0 0 Z " fill="#01070F" transform="translate(223,189)"/>
<path d="M0 0 C0.66 0.33 1.32 0.66 2 1 C1.606 2.334 1.209 3.667 0.812 5 C0.542 5.922 0.271 6.843 -0.008 7.793 C-0.703 10.041 -1.453 12.272 -2.242 14.488 C-6.106 25.52 -7.276 36.368 -8 48 C-9.65 47.01 -11.3 46.02 -13 45 C-12.685 44.279 -12.371 43.559 -12.047 42.816 C-11.036 40.098 -10.605 37.805 -10.25 34.938 C-9.335 29.042 -7.784 23.449 -6.062 17.75 C-5.81 16.911 -5.557 16.071 -5.296 15.207 C-3.712 10.06 -1.939 5.024 0 0 Z " fill="#000812" transform="translate(136,318)"/>
<path d="M0 0 C0.33 0 0.66 0 1 0 C0.685 3.335 0.346 6.668 0 10 C-0.124 11.258 -0.248 12.516 -0.375 13.812 C-1.026 17.132 -2.078 19.242 -4 22 C-5.32 21.67 -6.64 21.34 -8 21 C-7.184 12.688 -5.554 6.412 0 0 Z " fill="#F6F4EE" transform="translate(129,326)"/>
<path d="M0 0 C0.892 0.349 1.784 0.699 2.703 1.059 C4.459 1.741 4.459 1.741 6.25 2.438 C7.41 2.89 8.57 3.342 9.766 3.809 C12.19 4.702 14.483 5.458 17 6 C17 6.66 17 7.32 17 8 C19.475 8.495 19.475 8.495 22 9 C22.33 9.99 22.66 10.98 23 12 C16.335 11.583 11.774 9.705 6 6.438 C5.225 6.013 4.451 5.588 3.652 5.15 C1.762 4.112 -0.12 3.057 -2 2 C-1.34 1.34 -0.68 0.68 0 0 Z " fill="#003B82" transform="translate(371,139)"/>
<path d="M0 0 C0.66 0.66 1.32 1.32 2 2 C1.618 7.531 0.43 12.721 -1 18.062 C-2.049 22.004 -2.973 25.789 -3.496 29.844 C-4.085 33.532 -5.142 34.695 -8 37 C-7.115 22.115 -7.115 22.115 -3 18 C-2.706 16.664 -2.463 15.316 -2.246 13.965 C-2.048 12.752 -2.048 12.752 -1.846 11.514 C-1.711 10.664 -1.576 9.813 -1.438 8.938 C-1.299 8.083 -1.16 7.229 -1.018 6.35 C-0.675 4.234 -0.337 2.117 0 0 Z " fill="#125BA2" transform="translate(130,325)"/>
<path d="M0 0 C1.008 3.217 0.97 5.73 0.562 9.062 C0.242 11.757 0 14.282 0 17 C-1.32 16.67 -2.64 16.34 -4 16 C-3.717 14.082 -3.423 12.166 -3.125 10.25 C-2.881 8.649 -2.881 8.649 -2.633 7.016 C-2.068 4.323 -1.366 2.364 0 0 Z " fill="#EC9E19" transform="translate(125,331)"/>
<path d="M0 0 C6.164 1.666 11.483 4.878 17 8 C14.102 9.207 13.024 9.009 10.02 7.891 C8.961 7.349 7.903 6.808 6.812 6.25 C5.746 5.719 4.68 5.188 3.582 4.641 C1 3 1 3 0 0 Z " fill="#00459A" transform="translate(354,131)"/>
<path d="M0 0 C2.64 0.33 5.28 0.66 8 1 C8 1.66 8 2.32 8 3 C9.65 3.33 11.3 3.66 13 4 C13.33 4.99 13.66 5.98 14 7 C11.36 6.67 8.72 6.34 6 6 C5.67 4.68 5.34 3.36 5 2 C3.35 1.67 1.7 1.34 0 1 C0 0.67 0 0.34 0 0 Z " fill="#4676AF" transform="translate(380,144)"/>
<path d="M0 0 C1.675 0.286 3.344 0.618 5 1 C1.25 7.875 1.25 7.875 -1 9 C-1.098 2.848 -1.098 2.848 -1 1 C-0.67 0.67 -0.34 0.34 0 0 Z " fill="#0F192F" transform="translate(231,155)"/>
<path d="M0 0 C0.66 0.33 1.32 0.66 2 1 C2 3.97 2 6.94 2 10 C0.35 9.01 -1.3 8.02 -3 7 C-1.125 2.25 -1.125 2.25 0 0 Z " fill="#06152A" transform="translate(126,356)"/>
<path d="M0 0 C0.66 0.66 1.32 1.32 2 2 C1.688 6.759 1.039 10.649 -1 15 C-2.202 11.469 -1.795 8.871 -1.062 5.25 C-0.868 4.265 -0.673 3.28 -0.473 2.266 C-0.317 1.518 -0.161 0.77 0 0 Z " fill="#2571BC" transform="translate(130,325)"/>
<path d="M0 0 C0.33 1.32 0.66 2.64 1 4 C-0.32 3.34 -1.64 2.68 -3 2 C-2.01 2 -1.02 2 0 2 C0 1.34 0 0.68 0 0 Z " fill="#8E7F55" transform="translate(320,134)"/>
<path d="M0 0 C0.99 0.495 0.99 0.495 2 1 C1.34 2.32 0.68 3.64 0 5 C0 3.35 0 1.7 0 0 Z " fill="#443E1E" transform="translate(393,165)"/>
<path d="M0 0 C0 3 0 3 0 3 Z " fill="#272219" transform="translate(394,172)"/>
<path d="" fill="#002A5B" transform="translate(0,0)"/>
<path d="M0 0 C2 1 2 1 2 1 Z " fill="#B69553" transform="translate(294,125)"/>
<path d="M0 0 C2 1 2 1 2 1 Z " fill="#9D927A" transform="translate(290,124)"/>
<path d="" fill="#41464C" transform="translate(0,0)"/>
<path d="" fill="#474C51" transform="translate(0,0)"/>
<path d="" fill="#3D4348" transform="translate(0,0)"/>
<path d="" fill="#41464B" transform="translate(0,0)"/>
<path d="" fill="#262A2F" transform="translate(0,0)"/>
<path d="" fill="#2A2E34" transform="translate(0,0)"/>
<path d="" fill="#34383C" transform="translate(0,0)"/>
<path d="" fill="#2A2F34" transform="translate(0,0)"/>
<path d="" fill="#282D33" transform="translate(0,0)"/>
<path d="" fill="#35393F" transform="translate(0,0)"/>
<path d="" fill="#383C42" transform="translate(0,0)"/>
<path d="" fill="#34393F" transform="translate(0,0)"/>
<path d="" fill="#373C42" transform="translate(0,0)"/>
<path d="" fill="#2D333A" transform="translate(0,0)"/>
<path d="" fill="#2A3239" transform="translate(0,0)"/>
<path d="" fill="#464C52" transform="translate(0,0)"/>
<path d="" fill="#0157B1" transform="translate(0,0)"/>
<path d="" fill="#B89450" transform="translate(0,0)"/>
<path d="" fill="#BEBFC0" transform="translate(0,0)"/>
<path d="" fill="#B4B6B7" transform="translate(0,0)"/>
<path d="" fill="#B3B4B5" transform="translate(0,0)"/>
<path d="" fill="#1260B2" transform="translate(0,0)"/>
<path d="" fill="#377BC7" transform="translate(0,0)"/>
<path d="" fill="#161717" transform="translate(0,0)"/>
<path d="" fill="#1D1D1D" transform="translate(0,0)"/>
<path d="" fill="#1F2020" transform="translate(0,0)"/>
<path d="" fill="#1A1B1B" transform="translate(0,0)"/>
<path d="" fill="#1B1B1C" transform="translate(0,0)"/>
<path d="" fill="#1D1D1E" transform="translate(0,0)"/>
<path d="" fill="#010F1F" transform="translate(0,0)"/>
<path d="" fill="#191919" transform="translate(0,0)"/>
<path d="" fill="#191A1A" transform="translate(0,0)"/>
<path d="" fill="#001E41" transform="translate(0,0)"/>
<path d="" fill="#1E1E1F" transform="translate(0,0)"/>
<path d="" fill="#3D3E3F" transform="translate(0,0)"/>
<path d="" fill="#3A3B3C" transform="translate(0,0)"/>
<path d="" fill="#3D3E3F" transform="translate(0,0)"/>
<path d="" fill="#333334" transform="translate(0,0)"/>
<path d="" fill="#323333" transform="translate(0,0)"/>
<path d="" fill="#323334" transform="translate(0,0)"/>
<path d="" fill="#2F2F30" transform="translate(0,0)"/>
<path d="" fill="#2F3031" transform="translate(0,0)"/>
<path d="" fill="#9EA0A2" transform="translate(0,0)"/>
<path d="" fill="#B49454" transform="translate(0,0)"/>
<path d="" fill="#A89367" transform="translate(0,0)"/>
<path d="" fill="#95979A" transform="translate(0,0)"/>
<path d="" fill="#A4926F" transform="translate(0,0)"/>
<path d="" fill="#A09275" transform="translate(0,0)"/>
</svg>
