<?xml version="1.0" encoding="UTF-8"?>
<!-- Generator: visioncortex VTracer 0.6.4 -->
<svg version="1.1" xmlns="http://www.w3.org/2000/svg" width="512" height="512">
<path d="M0 0 C2.375 0.688 2.375 0.688 3.375 1.688 C5.228 15.08 -0.729 28.214 -8.625 38.688 C-10.231 40.709 -11.572 42.078 -13.625 43.688 C-14.945 43.688 -16.265 43.688 -17.625 43.688 C-20.527 37.884 -19.333 29.634 -17.531 23.555 C-9.181 -1.093 -9.181 -1.093 0 0 Z " fill="#81868C" transform="translate(236.625,195.3125)"/>
<path d="M0 0 C0.66 0.33 1.32 0.66 2 1 C-0.64 3.64 -3.28 6.28 -6 9 C-6 6 -6 6 -3.562 3.375 C-2.717 2.591 -1.871 1.808 -1 1 C-0.67 0.67 -0.34 0.34 0 0 Z " fill="#6C7177" transform="translate(234,195)"/>
</svg>
