<?xml version="1.0" encoding="UTF-8"?>
<!-- Generator: visioncortex VTracer 0.6.4 -->
<svg version="1.1" xmlns="http://www.w3.org/2000/svg" width="512" height="512">
<path d="M0 0 C4.246 1.853 6.776 2.993 8.953 7.18 C10.762 25.875 6.699 45.697 -4.82 60.895 C-12.03 69.306 -12.03 69.306 -17.758 70.93 C-23.067 71.099 -27.312 69.699 -32.297 67.992 C-33.225 67.704 -34.153 67.416 -35.109 67.119 C-41.026 65.14 -44.252 63.325 -47.672 58.055 C-50.077 51.413 -51.521 42.351 -48.656 35.695 C-48.331 35.154 -48.007 34.613 -47.672 34.055 C-46.682 34.385 -45.692 34.715 -44.672 35.055 C-44.767 35.947 -44.863 36.839 -44.961 37.758 C-45.072 38.928 -45.183 40.099 -45.297 41.305 C-45.471 43.045 -45.471 43.045 -45.648 44.82 C-45.672 48.01 -45.477 49.476 -43.672 52.055 C-40.783 53.499 -38.875 53.432 -35.672 53.055 C-32.963 50.68 -32.963 50.68 -30.672 48.055 C-29.187 47.56 -29.187 47.56 -27.672 47.055 C-26.565 44.756 -26.565 44.756 -25.672 42.055 C-24.89 40.364 -24.095 38.679 -23.289 37 C-22.844 36.055 -22.4 35.11 -21.941 34.137 C-21.013 32.169 -20.076 30.205 -19.129 28.246 C-16.001 21.543 -14.804 17.309 -16.297 9.992 C-16.757 6.385 -16.204 4.338 -14.672 1.055 C-10.635 -3.759 -5.19 -1.836 0 0 Z " fill="#22282E" transform="translate(281.671875,342.9453125)"/>
<path d="M0 0 C-0.619 0.206 -1.238 0.413 -1.875 0.625 C-4.943 2.61 -5.062 4.487 -6 8 C-6.566 11.802 -6.873 15.627 -7.211 19.455 C-7.948 27.031 -9.984 31.324 -15 37 C-15.33 36.34 -15.66 35.68 -16 35 C-14.584 31.744 -12.963 28.618 -11.348 25.457 C-9.498 20.713 -9.617 16.875 -10.625 11.938 C-11.086 8.33 -10.532 6.283 -9 3 C-6.126 0.026 -4.064 -0.339 0 0 Z " fill="#0F1114" transform="translate(276,341)"/>
<path d="M0 0 C0.99 0.33 1.98 0.66 3 1 C2.905 1.892 2.809 2.784 2.711 3.703 C2.6 4.874 2.489 6.044 2.375 7.25 C2.201 8.99 2.201 8.99 2.023 10.766 C2 13.956 2.195 15.421 4 18 C6.78 19.39 8.919 19.185 12 19 C14.302 18.102 14.302 18.102 16 17 C14.607 20.367 13.021 21.986 10 24 C8.667 23.333 7.333 22.667 6 22 C4.948 21.567 4.948 21.567 3.875 21.125 C1.399 19.639 0.994 18.729 0 16 C-0.14 13.212 -0.189 10.532 -0.125 7.75 C-0.116 7.005 -0.107 6.26 -0.098 5.492 C-0.074 3.661 -0.038 1.831 0 0 Z " fill="#0C0D0F" transform="translate(234,377)"/>
<path d="M0 0 C0.66 0 1.32 0 2 0 C2.09 5.152 1.847 9.919 1 15 C0.34 15 -0.32 15 -1 15 C-1.027 13.063 -1.046 11.125 -1.062 9.188 C-1.074 8.109 -1.086 7.03 -1.098 5.918 C-1 3 -1 3 0 0 Z " fill="#181C21" transform="translate(233,378)"/>
<path d="M0 0 C1.32 0.66 2.64 1.32 4 2 C2.02 4.64 0.04 7.28 -2 10 C-2.66 9.67 -3.32 9.34 -4 9 C-2.801 5.917 -1.523 2.937 0 0 Z " fill="#111416" transform="translate(258,381)"/>
<path d="M0 0 C-0.598 0.206 -1.196 0.413 -1.812 0.625 C-4.81 2.509 -5.614 4.811 -7 8 C-7.66 8 -8.32 8 -9 8 C-9.25 5.688 -9.25 5.688 -9 3 C-6.199 -0.008 -4.01 -0.334 0 0 Z " fill="#13171B" transform="translate(276,341)"/>
</svg>
