<?xml version="1.0" encoding="UTF-8"?>
<!-- Generator: visioncortex VTracer 0.6.4 -->
<svg version="1.1" xmlns="http://www.w3.org/2000/svg" width="512" height="512">
<path d="M0 0 C3.287 2.396 4.684 3.905 5.812 7.812 C5.874 8.534 5.936 9.256 6 10 C4.484 10.495 4.484 10.495 2.938 11 C-1.955 13.047 -4.803 16.909 -8 21 C-11.789 20.281 -11.789 20.281 -13.688 17.75 C-15.836 13.248 -16.405 11.237 -14.812 6.375 C-11.336 -0.098 -7.124 -1.359 0 0 Z " fill="#737579" transform="translate(278,87)"/>
<path d="M0 0 C7.183 -0.609 7.183 -0.609 10.938 2.188 C12.977 4.969 13.709 6.606 14 10 C7.6 13.077 7.6 13.077 4.562 12.688 C4.047 12.461 3.531 12.234 3 12 C3 11.34 3 10.68 3 10 C2.01 10 1.02 10 0 10 C-1.125 3.375 -1.125 3.375 0 0 Z " fill="#85868A" transform="translate(270,87)"/>
<path d="M0 0 C3.312 0.188 3.312 0.188 7 1 C9.349 3.879 10 5.275 10 9 C6.17 8.705 3.648 8.47 0.5 6.188 C-1 4 -1 4 -0.75 1.75 C-0.502 1.172 -0.255 0.595 0 0 Z " fill="#96989A" transform="translate(274,88)"/>
</svg>
