<?xml version="1.0" encoding="UTF-8"?>
<!-- Generator: visioncortex VTracer 0.6.4 -->
<svg version="1.1" xmlns="http://www.w3.org/2000/svg" width="512" height="512">
<path d="M0 0 C0.95 0.45 1.9 0.9 2.879 1.363 C4.292 2.003 4.292 2.003 5.734 2.656 C22.063 10.222 22.063 10.222 24.023 15.465 C21.992 43.904 13.029 74.779 -8.945 94.172 C-12.243 96.691 -15.421 97.128 -19.517 97.073 C-24.893 96.347 -29.835 93.999 -34.809 91.926 C-35.94 91.474 -37.071 91.022 -38.236 90.557 C-48.841 86.23 -48.841 86.23 -51.184 81.176 C-54.831 65.747 -49.056 48.85 -42.996 34.738 C-42.695 34.026 -42.395 33.314 -42.085 32.58 C-36.534 19.589 -29.315 5.648 -17.234 -2.441 C-10.854 -4.78 -5.845 -2.667 0 0 Z M-27.371 21.113 C-36.241 29.983 -41.269 43.069 -41.371 55.488 C-41.335 59.777 -41.335 59.777 -39.996 63.738 C-36.213 63.414 -33.951 62.39 -31.383 59.562 C-23.352 48.997 -18.465 37.233 -18.66 23.883 C-18.813 21.528 -18.813 21.528 -20.996 19.738 C-24.877 19.404 -24.877 19.404 -27.371 21.113 Z " fill="#252C34" transform="translate(258.99609375,175.26171875)"/>
</svg>
