<?xml version="1.0" encoding="UTF-8"?>
<!-- Generator: visioncortex VTracer 0.6.4 -->
<svg version="1.1" xmlns="http://www.w3.org/2000/svg" width="512" height="512">
<path d="M0 0 C5.905 0.677 11.16 1.941 16.719 4.024 C17.932 4.463 17.932 4.463 19.17 4.911 C21.732 5.841 24.288 6.788 26.844 7.735 C28.524 8.346 30.205 8.957 31.887 9.567 C36.883 11.385 41.866 13.239 46.844 15.11 C47.701 15.431 48.559 15.753 49.442 16.085 C51.954 17.031 54.462 17.986 56.969 18.945 C57.733 19.234 58.498 19.523 59.285 19.82 C64.612 21.878 64.612 21.878 66.844 24.11 C67.978 32.993 67.394 40.901 61.844 48.11 C58.055 52.07 54.068 55.622 49.844 59.11 C49.154 59.682 48.464 60.254 47.754 60.844 C42.02 65.264 35.993 66.813 28.844 66.11 C14.974 62.829 2.68 54.238 -5.047 42.152 C-9.528 33.68 -13.269 23.249 -10.434 13.668 C-5.505 0.28 -5.505 0.28 0 0 Z " fill="#1A1E22" transform="translate(277.15625,340.8904724121094)"/>
</svg>
