<?xml version="1.0" encoding="UTF-8"?>
<!-- Generator: visioncortex VTracer 0.6.4 -->
<svg version="1.1" xmlns="http://www.w3.org/2000/svg" width="512" height="512">
<path d="M0 0 C3.768 1.325 7.261 3.12 10.812 4.938 C13.043 6.043 15.273 7.149 17.504 8.254 C18.718 8.862 19.931 9.47 21.145 10.079 C27.404 13.209 33.712 16.241 40.011 19.29 C43.765 21.109 47.517 22.934 51.27 24.758 C52.752 25.478 54.235 26.199 55.717 26.919 C58.459 28.251 61.201 29.584 63.943 30.917 C76.599 37.068 89.278 43.155 102.06 49.039 C131.981 62.82 131.981 62.82 135 68 C135.188 70.75 135.188 70.75 135 73 C130.564 71.612 126.441 69.893 122.242 67.902 C121.595 67.597 120.947 67.291 120.28 66.976 C118.144 65.966 116.009 64.952 113.875 63.938 C112.354 63.218 110.833 62.498 109.311 61.779 C106.13 60.274 102.949 58.768 99.77 57.26 C95.235 55.11 90.696 52.968 86.156 50.828 C73.584 44.901 61.016 38.965 48.469 32.984 C46.684 32.135 44.9 31.285 43.116 30.435 C39.734 28.824 36.354 27.21 32.974 25.594 C25.077 21.826 17.155 18.112 9.18 14.512 C8.442 14.174 7.704 13.836 6.945 13.488 C0.247 10.495 -5.403 9.07 -12.625 10.938 C-13.409 11.288 -14.192 11.639 -15 12 C-15.312 9.312 -15.312 9.312 -15 6 C-10.483 0.651 -6.956 -0.983 0 0 Z " fill="#737576" transform="translate(258,133)"/>
</svg>
