<?xml version="1.0" encoding="UTF-8"?>
<!-- Generator: visioncortex VTracer 0.6.4 -->
<svg version="1.1" xmlns="http://www.w3.org/2000/svg" width="512" height="512">
<path d="M0 0 C0.801 0.413 1.601 0.825 2.426 1.25 C3.642 1.869 3.642 1.869 4.883 2.5 C20.149 10.963 30.521 24.439 37.426 40.25 C37.859 41.24 38.292 42.23 38.738 43.25 C40.3 50.063 40.288 56.255 36.727 62.398 C32.608 68.261 26.948 72.584 21.426 77.062 C20.845 77.543 20.263 78.024 19.665 78.519 C14.442 82.651 9.141 84.753 2.363 84.312 C-12.975 82.445 -26.301 71.023 -35.574 59.312 C-43.532 48.093 -47.342 35.957 -45.574 22.25 C-43.75 18.646 -41.487 16.019 -38.574 13.25 C-37.78 12.391 -37.78 12.391 -36.969 11.516 C-35.574 10.25 -35.574 10.25 -33.574 10.25 C-33.336 9.676 -33.097 9.103 -32.852 8.512 C-31.309 5.781 -29.494 4.125 -27.137 2.062 C-26.354 1.368 -25.572 0.673 -24.766 -0.043 C-17.888 -5.4 -7.373 -3.386 0 0 Z M-11.574 18.25 C-12.704 25.653 -10.199 31.25 -6.172 37.387 C-1.63 43.216 4.382 47.032 11.426 49.25 C14.913 48.979 16.877 48.611 19.801 46.688 C22.138 43.182 22.204 40.259 21.426 36.25 C18.616 28.092 13.56 21.33 6.121 16.867 C-0.421 13.717 -6.328 12.078 -11.574 18.25 Z " fill="#272D35" transform="translate(378.57421875,259.75)"/>
</svg>
