<?xml version="1.0" encoding="UTF-8"?>
<!-- Generator: visioncortex VTracer 0.6.4 -->
<svg version="1.1" xmlns="http://www.w3.org/2000/svg" width="512" height="512">
<path d="M0 0 C1.111 0.528 2.222 1.057 3.366 1.601 C5.813 2.766 8.256 3.935 10.696 5.112 C14.784 7.081 18.886 9.016 22.992 10.945 C34.705 16.454 46.404 21.994 58.096 27.548 C61.412 29.123 64.73 30.698 68.047 32.273 C69.678 33.047 71.309 33.822 72.939 34.596 C82.233 39.009 91.548 43.358 100.938 47.562 C129.332 60.362 139.211 71.888 150.658 100.802 C151.881 103.891 153.112 106.977 154.344 110.062 C155.131 112.039 155.917 114.015 156.703 115.992 C157.25 117.366 157.25 117.366 157.808 118.767 C159.539 123.144 161.198 127.512 162.625 132 C160.315 131.67 158.005 131.34 155.625 131 C155.625 130.34 155.625 129.68 155.625 129 C152.985 128.34 150.345 127.68 147.625 127 C148.109 129.782 148.635 132.544 149.188 135.312 C149.32 136.098 149.452 136.884 149.588 137.693 C150.068 139.994 150.539 141.912 151.625 144 C155.121 145.749 155.121 145.749 158.625 147 C159.746 149.453 159.746 149.453 160.062 152.25 C160.176 153.227 160.289 154.204 160.406 155.211 C160.478 156.131 160.551 157.052 160.625 158 C160.769 159.279 160.914 160.558 161.062 161.875 C160.482 166.02 158.698 167.467 155.625 170 C154.082 171.415 152.541 172.832 151 174.25 C147.471 177.413 143.873 180.458 140.188 183.438 C135.412 187.299 130.888 191.377 126.371 195.535 C123.706 197.927 120.977 200.193 118.188 202.438 C114.193 205.659 110.379 209.007 106.625 212.5 C102.022 216.783 97.272 220.802 92.352 224.723 C89.404 227.185 86.692 229.825 83.938 232.5 C80.673 235.53 78.421 237.572 73.938 238.125 C72.844 238.084 71.751 238.043 70.625 238 C70.955 237.134 71.285 236.268 71.625 235.375 C73.371 229.437 72.778 223.122 72.625 217 C67.132 214.143 61.674 211.782 55.84 209.723 C55.021 209.429 54.202 209.136 53.359 208.834 C51.634 208.218 49.909 207.603 48.183 206.991 C45.592 206.073 43.004 205.148 40.416 204.221 C35.492 202.461 30.561 200.724 25.625 199 C24.892 198.743 24.16 198.486 23.405 198.221 C21.378 197.514 19.348 196.815 17.316 196.121 C15.62 195.538 15.62 195.538 13.889 194.943 C10.434 193.945 7.213 193.27 3.625 193 C-1.599 196.374 -5.4 201.26 -9.375 206 C-13.066 205.343 -16.481 204.355 -20.016 203.114 C-21.125 202.727 -22.233 202.339 -23.376 201.94 C-24.565 201.52 -25.755 201.1 -26.98 200.668 C-28.832 200.018 -28.832 200.018 -30.721 199.356 C-33.333 198.439 -35.945 197.52 -38.556 196.599 C-41.875 195.429 -45.196 194.264 -48.517 193.1 C-51.714 191.979 -54.91 190.855 -58.105 189.73 C-59.285 189.317 -60.464 188.903 -61.68 188.477 C-68.311 186.136 -74.872 183.678 -81.375 181 C-81.145 180.401 -80.914 179.802 -80.677 179.185 C-78.55 173.556 -78.089 168.998 -78.375 163 C-86.631 159.423 -95 156.311 -103.502 153.378 C-116.913 148.74 -129.907 143.578 -142.688 137.398 C-143.657 136.937 -144.626 136.475 -145.625 136 C-146.414 135.608 -147.203 135.216 -148.016 134.812 C-151.071 133.76 -153.169 133.506 -156.375 134 C-158.52 136.265 -158.52 136.265 -160.188 139.25 C-163.324 143.863 -165.826 146.894 -171.137 148.82 C-175.462 149.168 -178.134 146.54 -181.375 144 C-182.7 143.317 -184.033 142.648 -185.375 142 C-185.039 141.433 -184.703 140.866 -184.356 140.282 C-182.757 137.584 -181.16 134.886 -179.562 132.188 C-178.969 131.184 -178.375 130.181 -177.763 129.147 C-174.589 123.777 -171.441 118.393 -168.341 112.98 C-162.334 102.501 -156.015 92.226 -149.664 81.953 C-145.494 75.208 -141.364 68.439 -137.247 61.661 C-136.508 60.443 -135.768 59.225 -135.028 58.008 C-131.402 52.046 -127.792 46.085 -124.375 40 C-123.715 40.99 -123.055 41.98 -122.375 43 C-119.959 43.798 -119.959 43.798 -117.25 44.188 C-115.885 44.425 -115.885 44.425 -114.492 44.668 C-113.794 44.778 -113.095 44.887 -112.375 45 C-111.847 44.13 -111.847 44.13 -111.309 43.242 C-105.333 33.787 -99.381 28.915 -88.5 26.312 C-68.633 24.326 -50.763 31.245 -34.375 42 C-34.603 41.432 -34.831 40.863 -35.066 40.277 C-37.049 34.952 -37.285 31.684 -36.375 26 C-37.668 24.036 -37.668 24.036 -39.375 23 C-38.385 22.505 -38.385 22.505 -37.375 22 C-36.492 19.365 -36.492 19.365 -35.812 16.25 C-35.564 15.203 -35.315 14.157 -35.059 13.078 C-34.641 11.199 -34.272 9.307 -33.988 7.402 C-33.237 4.46 -31.989 2.7 -30.125 0.312 C-29.542 -0.454 -28.96 -1.221 -28.359 -2.012 C-20.225 -10.162 -8.7 -4.262 0 0 Z M-6.375 10 C-8.619 12.244 -7.701 17.24 -7.75 20.25 C-7.787 21.11 -7.825 21.97 -7.863 22.855 C-7.92 26.929 -7.838 29.296 -5.562 32.754 C-0.966 35.993 3.906 38.329 9 40.688 C10.096 41.203 11.192 41.718 12.321 42.249 C15.748 43.85 19.184 45.429 22.625 47 C23.727 47.504 24.829 48.008 25.964 48.528 C29.094 49.951 32.232 51.355 35.375 52.75 C36.81 53.395 36.81 53.395 38.275 54.053 C39.169 54.443 40.063 54.833 40.984 55.234 C41.763 55.577 42.541 55.92 43.343 56.272 C45.882 57.082 47.976 57.132 50.625 57 C50.58 43.596 50.58 43.596 44.833 31.95 C42.505 29.894 40.446 28.749 37.617 27.484 C36.639 27.041 35.66 26.598 34.652 26.142 C33.612 25.683 32.572 25.223 31.5 24.75 C29.898 24.032 29.898 24.032 28.264 23.299 C26.09 22.326 23.915 21.356 21.738 20.39 C18.91 19.127 16.095 17.84 13.285 16.539 C11.711 15.817 10.137 15.096 8.562 14.375 C7.857 14.045 7.151 13.714 6.423 13.374 C2.122 11.431 -1.652 10.349 -6.375 10 Z M-101.375 46 C-110.619 57.846 -115.594 67.787 -114.375 83 C-111.221 97.693 -100.328 111.191 -87.91 119.395 C-74.798 127.476 -60.599 131.883 -45.277 128.27 C-36.304 124.954 -31.759 119.425 -26.402 111.785 C-24.078 108.592 -21.533 105.716 -18.82 102.852 C-14.249 96.995 -14.634 90.069 -15.375 83 C-17.715 73.662 -22.412 66.429 -28.375 59 C-29.118 57.969 -29.86 56.938 -30.625 55.875 C-41.622 44.378 -56.702 36.195 -72.699 34.797 C-84.042 34.572 -93.214 37.941 -101.375 46 Z M71.625 45 C71.74 47.522 71.867 50.042 72 52.562 C72.031 53.267 72.062 53.971 72.094 54.697 C72.437 63.107 72.437 63.107 76.731 69.974 C80.057 72.303 83.514 73.998 87.207 75.645 C87.939 75.977 88.671 76.31 89.425 76.653 C91.759 77.713 94.098 78.763 96.438 79.812 C97.966 80.505 99.494 81.199 101.021 81.893 C104.797 83.605 108.58 85.298 112.366 86.986 C114.658 88.015 116.941 89.06 119.224 90.107 C120.674 90.763 122.124 91.419 123.574 92.074 C124.242 92.385 124.91 92.696 125.598 93.016 C129.488 94.837 129.488 94.837 133.625 94 C132.556 90.787 131.467 87.58 130.375 84.375 C130.075 83.471 129.774 82.568 129.465 81.637 C126.769 73.778 124.318 68.348 116.625 64.438 C116.008 64.121 115.391 63.804 114.755 63.478 C104.126 58.118 93.235 53.244 82.411 48.293 C80.75 47.522 79.104 46.713 77.501 45.828 C75.357 44.731 75.357 44.731 71.625 45 Z M24.625 53 C23.276 54.156 23.276 54.156 23.062 57.25 C23.237 60.851 23.237 60.851 24.918 62.363 C31.703 66.804 41.501 72 49.625 72 C50.04 68.939 50.292 66.95 49.625 64 C44.556 58.205 33.745 55.533 26.625 53 C25.965 53 25.305 53 24.625 53 Z M119.625 97 C119.691 100.303 119.834 102.969 121.898 105.66 C126.914 110.263 133.715 114 140.625 114 C140.956 110.444 140.977 108.546 139.016 105.5 C136.251 102.609 133.771 101.306 130.125 99.688 C129.001 99.176 127.877 98.664 126.719 98.137 C123.549 96.77 123.549 96.77 119.625 97 Z M75.91 118.414 C74.415 119.919 74.415 119.919 74.625 122 C74.041 122.248 73.457 122.495 72.855 122.75 C70.296 124.185 68.83 125.767 66.938 128 C66.336 128.701 65.734 129.403 65.113 130.125 C61.009 135.296 61.946 142.703 62.625 149 C64.761 158.206 68.754 165.672 74.625 173 C75.28 173.899 75.28 173.899 75.949 174.816 C84.004 185.241 97.193 194.25 110.312 196 C119.826 196.432 125.643 192.003 132.625 186 C133.127 185.576 133.629 185.152 134.146 184.715 C135.779 183.326 137.391 181.917 139 180.5 C139.512 180.062 140.024 179.623 140.552 179.172 C144.822 175.318 147 171.221 148.094 165.586 C148.321 149.49 137.74 135.678 127.195 124.473 C117.183 114.84 105.557 108.557 91.594 108.727 C84.669 109.364 80.64 113.653 75.91 118.414 Z " fill="#000001" transform="translate(270.375,148)"/>
<path d="M0 0 C1.111 0.528 2.222 1.057 3.366 1.601 C5.813 2.766 8.256 3.935 10.696 5.112 C14.784 7.081 18.886 9.016 22.992 10.945 C34.705 16.454 46.404 21.994 58.096 27.548 C61.412 29.123 64.73 30.698 68.047 32.273 C69.678 33.047 71.309 33.822 72.939 34.596 C82.233 39.009 91.548 43.358 100.938 47.562 C129.332 60.362 139.211 71.888 150.658 100.802 C151.881 103.891 153.112 106.977 154.344 110.062 C155.131 112.039 155.917 114.015 156.703 115.992 C157.25 117.366 157.25 117.366 157.808 118.767 C159.539 123.144 161.198 127.512 162.625 132 C160.315 131.67 158.005 131.34 155.625 131 C155.625 130.34 155.625 129.68 155.625 129 C151.665 128.01 151.665 128.01 147.625 127 C148.109 129.782 148.635 132.544 149.188 135.312 C149.32 136.098 149.452 136.884 149.588 137.693 C150.068 139.994 150.539 141.912 151.625 144 C155.124 145.735 155.124 145.735 158.625 147 C159.746 149.559 159.746 149.559 160.062 152.438 C160.185 153.385 160.307 154.332 160.434 155.309 C160.592 157.534 160.625 159.769 160.625 162 C158.239 161.424 155.958 160.778 153.625 160 C152.849 158.042 152.849 158.042 152.246 155.52 C150.754 150.084 148.534 145.534 145.688 140.688 C145.209 139.868 144.73 139.048 144.237 138.204 C139.584 130.504 134.069 124.23 127.625 118 C126.901 117.245 126.176 116.489 125.43 115.711 C116.36 106.779 101.393 99.278 88.562 98.625 C82.52 99.2 77.456 100.123 73.125 104.562 C70.728 108.458 70.377 111.036 70.062 115.625 C69.937 117.408 69.937 117.408 69.809 119.227 C69.748 120.142 69.687 121.057 69.625 122 C62.438 119.724 55.561 116.943 48.625 114 C46.925 113.294 45.224 112.588 43.523 111.883 C37.94 109.559 32.373 107.198 26.809 104.828 C25.503 104.272 25.503 104.272 24.171 103.705 C20.541 102.159 16.911 100.612 13.282 99.064 C10.604 97.922 7.925 96.781 5.246 95.641 C4.424 95.29 3.602 94.939 2.756 94.577 C1.994 94.253 1.232 93.929 0.447 93.595 C-0.555 93.168 -0.555 93.168 -1.576 92.732 C-3.152 92.091 -4.762 91.538 -6.375 91 C-6.45 90.189 -6.525 89.378 -6.602 88.543 C-8.337 73.93 -16.438 60.843 -27.375 51 C-28.039 50.402 -28.703 49.804 -29.387 49.188 C-33.121 45.723 -33.121 45.723 -37.375 43 C-37.045 42.34 -36.715 41.68 -36.375 41 C-35.715 41.33 -35.055 41.66 -34.375 42 C-34.603 41.432 -34.831 40.863 -35.066 40.277 C-37.049 34.952 -37.285 31.684 -36.375 26 C-37.668 24.036 -37.668 24.036 -39.375 23 C-38.715 22.67 -38.055 22.34 -37.375 22 C-36.492 19.365 -36.492 19.365 -35.812 16.25 C-35.564 15.203 -35.315 14.157 -35.059 13.078 C-34.641 11.199 -34.272 9.307 -33.988 7.402 C-33.237 4.46 -31.989 2.7 -30.125 0.312 C-29.542 -0.454 -28.96 -1.221 -28.359 -2.012 C-20.225 -10.162 -8.7 -4.262 0 0 Z M-6.375 10 C-8.619 12.244 -7.701 17.24 -7.75 20.25 C-7.787 21.11 -7.825 21.97 -7.863 22.855 C-7.92 26.929 -7.838 29.296 -5.562 32.754 C-0.966 35.993 3.906 38.329 9 40.688 C10.096 41.203 11.192 41.718 12.321 42.249 C15.748 43.85 19.184 45.429 22.625 47 C23.727 47.504 24.829 48.008 25.964 48.528 C29.094 49.951 32.232 51.355 35.375 52.75 C36.81 53.395 36.81 53.395 38.275 54.053 C39.169 54.443 40.063 54.833 40.984 55.234 C41.763 55.577 42.541 55.92 43.343 56.272 C45.882 57.082 47.976 57.132 50.625 57 C50.58 43.596 50.58 43.596 44.833 31.95 C42.505 29.894 40.446 28.749 37.617 27.484 C36.639 27.041 35.66 26.598 34.652 26.142 C33.612 25.683 32.572 25.223 31.5 24.75 C29.898 24.032 29.898 24.032 28.264 23.299 C26.09 22.326 23.915 21.356 21.738 20.39 C18.91 19.127 16.095 17.84 13.285 16.539 C11.711 15.817 10.137 15.096 8.562 14.375 C7.857 14.045 7.151 13.714 6.423 13.374 C2.122 11.431 -1.652 10.349 -6.375 10 Z M71.625 45 C71.74 47.522 71.867 50.042 72 52.562 C72.031 53.267 72.062 53.971 72.094 54.697 C72.437 63.107 72.437 63.107 76.731 69.974 C80.057 72.303 83.514 73.998 87.207 75.645 C87.939 75.977 88.671 76.31 89.425 76.653 C91.759 77.713 94.098 78.763 96.438 79.812 C97.966 80.505 99.494 81.199 101.021 81.893 C104.797 83.605 108.58 85.298 112.366 86.986 C114.658 88.015 116.941 89.06 119.224 90.107 C120.674 90.763 122.124 91.419 123.574 92.074 C124.242 92.385 124.91 92.696 125.598 93.016 C129.488 94.837 129.488 94.837 133.625 94 C132.556 90.787 131.467 87.58 130.375 84.375 C130.075 83.471 129.774 82.568 129.465 81.637 C126.769 73.778 124.318 68.348 116.625 64.438 C116.008 64.121 115.391 63.804 114.755 63.478 C104.126 58.118 93.235 53.244 82.411 48.293 C80.75 47.522 79.104 46.713 77.501 45.828 C75.357 44.731 75.357 44.731 71.625 45 Z M24.625 53 C23.276 54.156 23.276 54.156 23.062 57.25 C23.237 60.851 23.237 60.851 24.918 62.363 C31.703 66.804 41.501 72 49.625 72 C50.04 68.939 50.292 66.95 49.625 64 C44.556 58.205 33.745 55.533 26.625 53 C25.965 53 25.305 53 24.625 53 Z M119.625 97 C119.691 100.303 119.834 102.969 121.898 105.66 C126.914 110.263 133.715 114 140.625 114 C140.956 110.444 140.977 108.546 139.016 105.5 C136.251 102.609 133.771 101.306 130.125 99.688 C129.001 99.176 127.877 98.664 126.719 98.137 C123.549 96.77 123.549 96.77 119.625 97 Z " fill="#0059B8" transform="translate(270.375,148)"/>
<path d="M0 0 C2.97 0.99 5.94 1.98 9 3 C9.338 4.749 9.67 6.499 10 8.25 C10.186 9.225 10.371 10.199 10.562 11.203 C11 14 11 14 11 18 C8.614 17.424 6.333 16.778 4 16 C3.086 13.75 3.086 13.75 2.375 11 C1.713 7.716 1.713 7.716 0 5 C-0.041 3.334 -0.043 1.666 0 0 Z " fill="#0960B2" transform="translate(420,292)"/>
<path d="M0 0 C5.076 -0.615 7.83 1.383 12 4 C10 5 10 5 7.188 4.062 C6.136 3.712 5.084 3.361 4 3 C1.249 2.831 1.249 2.831 -1 3 C-0.67 2.01 -0.34 1.02 0 0 Z " fill="#01317C" transform="translate(264,156)"/>
<path d="M0 0 C0.33 0 0.66 0 1 0 C1 4.29 1 8.58 1 13 C-0.32 12.67 -1.64 12.34 -3 12 C-3 11.34 -3 10.68 -3 10 C-2.01 10 -1.02 10 0 10 C0 6.7 0 3.4 0 0 Z " fill="#0050A1" transform="translate(339,257)"/>
<path d="M0 0 C0.33 0.66 0.66 1.32 1 2 C1.66 2.33 2.32 2.66 3 3 C1.68 2.67 0.36 2.34 -1 2 C-0.67 1.34 -0.34 0.68 0 0 Z " fill="#B1BBC3" transform="translate(117,158)"/>
<path d="M0 0 C4 1 4 1 4 1 Z " fill="#B79F71" transform="translate(430,294)"/>
<path d="" fill="#4374A8" transform="translate(0,0)"/>
<path d="" fill="#3272B8" transform="translate(0,0)"/>
<path d="M0 0 C2 1 2 1 2 1 Z " fill="#295A92" transform="translate(112,162)"/>
<path d="M0 0 C2 1 2 1 2 1 Z " fill="#4B78AA" transform="translate(114,161)"/>
<path d="" fill="#48484A" transform="translate(0,0)"/>
<path d="" fill="#557CA3" transform="translate(0,0)"/>
<path d="" fill="#48494A" transform="translate(0,0)"/>
<path d="" fill="#A5A7A9" transform="translate(0,0)"/>
<path d="" fill="#084795" transform="translate(0,0)"/>
<path d="" fill="#9A9C9D" transform="translate(0,0)"/>
<path d="" fill="#0150AF" transform="translate(0,0)"/>
<path d="" fill="#B9BABA" transform="translate(0,0)"/>
<path d="" fill="#3B7CC6" transform="translate(0,0)"/>
<path d="" fill="#505052" transform="translate(0,0)"/>
<path d="" fill="#505153" transform="translate(0,0)"/>
<path d="" fill="#216BC1" transform="translate(0,0)"/>
<path d="" fill="#A7936C" transform="translate(0,0)"/>
<path d="" fill="#A99369" transform="translate(0,0)"/>
<path d="" fill="#4184CA" transform="translate(0,0)"/>
<path d="" fill="#4A7AA6" transform="translate(0,0)"/>
<path d="" fill="#5791D0" transform="translate(0,0)"/>
<path d="" fill="#5C787F" transform="translate(0,0)"/>
<path d="" fill="#0E5CAF" transform="translate(0,0)"/>
<path d="" fill="#496F86" transform="translate(0,0)"/>
<path d="" fill="#587883" transform="translate(0,0)"/>
<path d="" fill="#004FAB" transform="translate(0,0)"/>
<path d="" fill="#3E6F99" transform="translate(0,0)"/>
<path d="" fill="#135EAD" transform="translate(0,0)"/>
<path d="" fill="#0056B8" transform="translate(0,0)"/>
<path d="" fill="#5B777C" transform="translate(0,0)"/>
<path d="" fill="#0052B1" transform="translate(0,0)"/>
<path d="" fill="#0552AD" transform="translate(0,0)"/>
<path d="" fill="#0850A3" transform="translate(0,0)"/>
<path d="" fill="#0E4A90" transform="translate(0,0)"/>
</svg>
