<?xml version="1.0" encoding="UTF-8"?>
<!-- Generator: visioncortex VTracer 0.6.4 -->
<svg version="1.1" xmlns="http://www.w3.org/2000/svg" width="512" height="512">
<path d="M0 0 C1.414 1.129 1.414 1.129 3.102 3.816 C3.368 6.986 2.891 9.747 2.102 12.816 C1.862 13.751 1.862 13.751 1.618 14.704 C-0.429 21.721 -4.122 27.498 -8.023 33.629 C-8.733 34.76 -9.442 35.892 -10.149 37.025 C-11.257 38.8 -12.366 40.574 -13.478 42.346 C-17.643 48.984 -21.712 55.678 -25.773 62.379 C-26.135 62.975 -26.496 63.57 -26.869 64.184 C-33.824 75.651 -40.635 87.194 -47.367 98.793 C-47.982 99.85 -48.596 100.908 -49.23 101.997 C-50.427 104.058 -51.622 106.119 -52.815 108.183 C-53.932 110.106 -55.058 112.024 -56.193 113.937 C-57.373 115.93 -58.531 117.937 -59.67 119.954 C-60.257 120.953 -60.844 121.952 -61.449 122.98 C-61.968 123.885 -62.486 124.789 -63.021 125.721 C-64.898 127.816 -64.898 127.816 -67.885 128.661 C-71.699 128.858 -74.725 128.097 -78.398 127.066 C-79.667 126.721 -80.935 126.375 -82.242 126.02 C-86.923 124.479 -91.824 122.861 -94.898 118.816 C-96.339 114.468 -95.206 110.901 -94 106.617 C-93.776 105.821 -93.552 105.024 -93.321 104.203 C-90.73 95.534 -86.661 87.875 -82.273 80.004 C-81.459 78.512 -80.647 77.018 -79.837 75.524 C-78.248 72.598 -76.652 69.675 -75.048 66.757 C-72.31 61.758 -69.695 56.697 -67.086 51.629 C-62.851 43.482 -58.377 35.481 -53.821 27.51 C-51.012 22.588 -48.252 17.647 -45.582 12.648 C-45.047 11.649 -44.512 10.65 -43.961 9.621 C-42.947 7.721 -41.941 5.817 -40.944 3.908 C-37.865 -1.854 -35.095 -6.312 -29.336 -9.684 C-19.026 -11.183 -8.493 -5.295 0 0 Z " fill="#8A8C8E" transform="translate(145.8984375,170.18359375)"/>
</svg>
