<?xml version="1.0" encoding="UTF-8"?>
<!-- Generator: visioncortex VTracer 0.6.4 -->
<svg version="1.1" xmlns="http://www.w3.org/2000/svg" width="512" height="512">
<path d="M0 0 C2.43 0.982 4.815 2.034 7.199 3.122 C8.107 3.524 9.014 3.925 9.949 4.339 C11.887 5.197 13.823 6.061 15.757 6.929 C18.618 8.211 21.487 9.473 24.359 10.728 C30.162 13.263 35.954 15.821 41.745 18.383 C43.884 19.329 46.023 20.274 48.163 21.218 C52.187 22.995 56.209 24.775 60.23 26.557 C61.816 27.259 63.402 27.96 64.988 28.66 C73.321 32.341 81.613 36.042 89.699 40.247 C89.699 41.567 89.699 42.887 89.699 44.247 C90.183 49.033 90.183 49.033 91.824 53.497 C92.113 54.075 92.402 54.652 92.699 55.247 C92.369 56.237 92.039 57.227 91.699 58.247 C90.585 57.583 89.472 56.919 88.324 56.235 C75.982 49.034 63.288 42.691 48.699 42.247 C47.441 42.165 46.183 42.082 44.887 41.997 C35.806 42.178 27.09 44.61 20.699 51.247 C18.18 54.47 15.885 57.79 13.699 61.247 C12.053 60.939 10.407 60.626 8.762 60.31 C7.845 60.136 6.929 59.962 5.984 59.782 C3.699 59.247 3.699 59.247 2.699 58.247 C2.122 51.178 4.317 46.178 7.262 39.935 C9.133 35.134 9.919 30.324 10.699 25.247 C9.482 24.876 8.265 24.505 7.012 24.122 C2.858 22.766 -0.946 20.991 -4.863 19.06 C-11.201 16.065 -15.504 14.981 -22.301 17.247 C-23.008 18.897 -23.666 20.568 -24.301 22.247 C-27.773 28.071 -27.773 28.071 -31.301 29.247 C-30.739 25.812 -29.924 23.19 -28.176 20.185 C-27.73 19.416 -27.284 18.648 -26.824 17.856 C-26.321 16.995 -25.819 16.134 -25.301 15.247 C-24.454 13.708 -24.454 13.708 -23.59 12.138 C-22.999 11.081 -22.409 10.024 -21.801 8.935 C-20.981 7.455 -20.981 7.455 -20.145 5.946 C-14.694 -2.033 -8.725 -2.855 0 0 Z " fill="#0058BB" transform="translate(144.30078125,132.7529296875)"/>
</svg>
