<?xml version="1.0" encoding="UTF-8"?>
<!-- Generator: visioncortex VTracer 0.6.4 -->
<svg version="1.1" xmlns="http://www.w3.org/2000/svg" width="512" height="512">
<path d="M0 0 C3.124 3.471 4.084 6.853 4.25 11.5 C2.94 14.579 1.595 16.155 -0.75 18.5 C-2.07 18.5 -3.39 18.5 -4.75 18.5 C-6.5 16.5 -6.5 16.5 -7.75 14.5 C-9.73 15.16 -11.71 15.82 -13.75 16.5 C-16.477 13.887 -17.035 11.715 -17.188 8.062 C-17.072 4.712 -16.748 3.497 -15 0.5 C-10.257 -3.716 -5.434 -2.964 0 0 Z " fill="#7C7D81" transform="translate(166.75,115.5)"/>
<path d="M0 0 C0.426 5.537 -1.095 9.897 -3 15 C-5.405 12.595 -5.296 11.918 -5.312 8.625 C-5.249 5.577 -5.091 4.17 -3.625 1.438 C-2 0 -2 0 0 0 Z " fill="#ABACAE" transform="translate(155,115)"/>
<path d="M0 0 C1.65 0 3.3 0 5 0 C5.33 1.65 5.66 3.3 6 5 C5.01 4.34 4.02 3.68 3 3 C0.847 3.308 0.847 3.308 -1 4 C-0.67 2.68 -0.34 1.36 0 0 Z " fill="#666B73" transform="translate(156,127)"/>
</svg>
