<?xml version="1.0" encoding="UTF-8"?>
<!-- Generator: visioncortex VTracer 0.6.4 -->
<svg version="1.1" xmlns="http://www.w3.org/2000/svg" width="512" height="512">
<path d="M0 0 C6.132 -0.639 10.084 0.055 15.273 3.418 C19.389 7.189 20.67 11.675 21.875 17 C22.161 18.196 22.447 19.392 22.742 20.625 C23.049 24.643 22.504 25.901 20 29 C17.793 31.035 17.793 31.035 15.188 33.062 C10.683 36.637 6.285 40.299 1.938 44.062 C-2.778 48.13 -7.558 52.084 -12.445 55.945 C-15.487 58.392 -18.464 60.908 -21.438 63.438 C-26.221 67.505 -31.044 71.517 -35.914 75.48 C-39.077 78.063 -42.224 80.662 -45.371 83.263 C-56.426 92.394 -56.426 92.394 -61.25 96.25 C-62.186 97 -62.186 97 -63.141 97.766 C-67.405 100.597 -70.765 101.372 -75.871 100.539 C-79.568 99.603 -82.906 98.25 -86 96 C-87.5 93.25 -87.5 93.25 -88 91 C-87 90 -87 90 -83.797 89.75 C-79.174 88.837 -77.563 87.295 -74.25 84 C-73.206 82.987 -72.159 81.977 -71.109 80.969 C-70.589 80.465 -70.069 79.961 -69.533 79.441 C-67.29 77.332 -64.906 75.42 -62.5 73.5 C-58.524 70.301 -54.733 66.974 -51 63.5 C-46.412 59.231 -41.666 55.242 -36.781 51.312 C-33.76 48.8 -30.876 46.176 -28 43.5 C-22.528 38.416 -16.83 33.672 -11 29 C-8.955 27.358 -6.914 25.712 -4.875 24.062 C-3.51 22.966 -3.51 22.966 -2.117 21.848 C0.071 20.174 0.071 20.174 1 18 C1.185 13.462 1.185 13.462 0.5 9 C-0.249 6.006 -0.059 3.07 0 0 Z " fill="#888A8C" transform="translate(429,295)"/>
</svg>
