<?xml version="1.0" encoding="UTF-8"?>
<!-- Generator: visioncortex VTracer 0.6.4 -->
<svg version="1.1" xmlns="http://www.w3.org/2000/svg" width="512" height="512">
<path d="M0 0 C6.302 0.765 11.226 2.896 16.831 5.797 C32.222 13.428 48.256 19.091 64.532 24.534 C74.033 27.757 74.033 27.757 77.081 30.235 C78.762 35.434 76.863 41.19 74.542 45.914 C72.222 49.598 69.362 52.676 66.362 55.817 C64.341 57.959 62.573 60.163 60.769 62.485 C54.93 69.101 47.127 72.345 38.456 73.235 C22.858 73.737 10.109 67.086 -1.106 56.61 C-9.424 48.008 -14.24 37.178 -14.044 25.172 C-13.123 17.054 -8.633 7.881 -3.548 1.52 C-1.919 0.235 -1.919 0.235 0 0 Z " fill="#14181C" transform="translate(115.9189453125,280.765380859375)"/>
</svg>
