<?xml version="1.0" encoding="UTF-8"?>
<!-- Generator: visioncortex VTracer 0.6.4 -->
<svg version="1.1" xmlns="http://www.w3.org/2000/svg" width="512" height="512">
<path d="M0 0 C1.56 -0.001 3.12 -0.003 4.679 -0.005 C8.894 -0.01 13.109 -0.008 17.324 -0.005 C21.75 -0.002 26.176 -0.005 30.602 -0.006 C38.034 -0.008 45.467 -0.006 52.899 -0.001 C61.471 0.004 70.042 0.003 78.613 -0.003 C85.992 -0.007 93.372 -0.008 100.751 -0.005 C105.149 -0.004 109.548 -0.004 113.946 -0.007 C118.085 -0.01 122.223 -0.008 126.362 -0.002 C127.873 -0.001 129.384 -0.001 130.895 -0.003 C156.431 -0.037 156.431 -0.037 163.058 5.448 C165.783 8.704 165.72 13.101 166.278 17.192 C166.424 18.096 166.57 19 166.721 19.932 C167.621 26.257 167.528 32.02 165.465 38.129 C164.475 39.119 164.475 39.119 163.465 40.129 C161.841 39.943 160.218 39.739 158.607 39.457 C154.382 38.81 150.102 38.745 145.835 38.575 C144.79 38.533 143.744 38.491 142.667 38.448 C129.628 37.968 116.589 37.985 103.543 37.997 C100.82 37.996 98.096 37.995 95.373 37.994 C89.702 37.992 84.031 37.994 78.36 37.999 C71.889 38.004 65.418 38.003 58.947 37.997 C53.305 37.993 47.664 37.992 42.022 37.995 C38.69 37.996 35.359 37.996 32.027 37.993 C18.281 37.983 4.551 38.112 -9.188 38.575 C-10.983 38.633 -10.983 38.633 -12.815 38.693 C-14.467 38.754 -14.467 38.754 -16.152 38.818 C-17.122 38.853 -18.092 38.889 -19.091 38.926 C-21.672 39.044 -21.672 39.044 -24.535 40.129 C-25.929 40.196 -27.326 40.215 -28.722 40.192 C-29.98 40.171 -31.238 40.151 -32.535 40.129 C-37.239 32.152 -36.77 25.118 -35.347 16.379 C-35.234 15.646 -35.121 14.913 -35.005 14.157 C-34.16 9.505 -32.94 6.6 -29.535 3.129 C-21.209 -1.628 -9.309 -0.014 0 0 Z " fill="#8B8E8F" transform="translate(190.53466796875,134.87060546875)"/>
</svg>
