<?xml version="1.0" encoding="UTF-8"?>
<!-- Generator: visioncortex VTracer 0.6.4 -->
<svg version="1.1" xmlns="http://www.w3.org/2000/svg" width="512" height="512">
<path d="M0 0 C0.996 -0.004 1.991 -0.007 3.017 -0.011 C6.305 -0.019 9.593 -0.014 12.881 -0.007 C15.169 -0.008 17.457 -0.01 19.744 -0.013 C24.538 -0.016 29.332 -0.011 34.126 -0.002 C40.268 0.009 46.409 0.003 52.55 -0.009 C57.275 -0.016 61.999 -0.014 66.723 -0.009 C68.987 -0.008 71.252 -0.009 73.516 -0.014 C76.682 -0.019 79.849 -0.011 83.016 0 C84.416 -0.006 84.416 -0.006 85.845 -0.012 C90.602 0.019 94.678 0.201 99.073 2.259 C100.533 4.974 100.533 4.974 101.448 8.196 C101.765 9.257 102.082 10.318 102.408 11.411 C103.073 14.259 103.073 14.259 103.073 17.259 C100.652 18.469 99.115 18.39 96.41 18.399 C95.428 18.405 94.445 18.411 93.432 18.417 C91.809 18.418 91.809 18.418 90.153 18.42 C88.448 18.427 88.448 18.427 86.708 18.435 C82.935 18.45 79.162 18.456 75.389 18.462 C72.776 18.468 70.163 18.473 67.55 18.479 C62.767 18.489 57.985 18.495 53.203 18.498 C46.16 18.502 39.117 18.52 32.074 18.549 C25.977 18.573 19.881 18.581 13.785 18.582 C11.189 18.585 8.592 18.593 5.996 18.607 C2.371 18.624 -1.253 18.622 -4.878 18.615 C-5.959 18.624 -7.039 18.634 -8.151 18.643 C-9.63 18.635 -9.63 18.635 -11.138 18.626 C-11.996 18.628 -12.853 18.629 -13.737 18.631 C-16.381 18.182 -17.262 17.307 -18.927 15.259 C-18.39 13.127 -17.822 11.004 -17.24 8.884 C-16.927 7.7 -16.614 6.517 -16.291 5.298 C-14.927 2.259 -14.927 2.259 -12.963 1.085 C-8.624 -0.096 -4.478 -0.019 0 0 Z " fill="#22222E" transform="translate(213.927490234375,90.7412109375)"/>
<path d="M0 0 C0.996 -0.004 1.991 -0.007 3.017 -0.011 C6.305 -0.019 9.593 -0.014 12.881 -0.007 C15.169 -0.008 17.457 -0.01 19.744 -0.013 C24.538 -0.016 29.332 -0.011 34.126 -0.002 C40.268 0.009 46.409 0.003 52.55 -0.009 C57.275 -0.016 61.999 -0.014 66.723 -0.009 C68.987 -0.008 71.252 -0.009 73.516 -0.014 C76.682 -0.019 79.849 -0.011 83.016 0 C84.416 -0.006 84.416 -0.006 85.845 -0.012 C90.657 0.019 94.553 0.384 99.073 2.259 C99.568 5.229 99.568 5.229 100.073 8.259 C99.083 6.774 99.083 6.774 98.073 5.259 C93.349 3.657 88.063 4.119 83.129 4.129 C82.132 4.128 81.135 4.126 80.107 4.124 C76.814 4.12 73.522 4.123 70.229 4.126 C67.939 4.125 65.648 4.124 63.358 4.123 C58.56 4.122 53.762 4.124 48.964 4.128 C42.813 4.134 36.663 4.131 30.513 4.125 C25.784 4.121 21.056 4.122 16.327 4.125 C14.059 4.126 11.791 4.125 9.524 4.122 C6.354 4.12 3.185 4.124 0.016 4.129 C-0.921 4.127 -1.859 4.125 -2.824 4.123 C-6.987 4.137 -10.87 4.196 -14.927 5.259 C-15.257 6.249 -15.587 7.239 -15.927 8.259 C-15.74 5.384 -15.74 5.384 -14.927 2.259 C-10.365 -0.528 -5.165 -0.022 0 0 Z " fill="#0A0C1B" transform="translate(213.927490234375,90.7412109375)"/>
<path d="M0 0 C0.884 0.009 1.767 0.018 2.678 0.027 C4.848 0.051 7.018 0.087 9.188 0.125 C9.188 0.455 9.188 0.785 9.188 1.125 C7.434 1.181 7.434 1.181 5.645 1.238 C4.096 1.304 2.548 1.37 1 1.438 C0.231 1.46 -0.538 1.483 -1.33 1.506 C-6.012 1.727 -8.879 2.362 -12.812 5.125 C-13.472 5.125 -14.132 5.125 -14.812 5.125 C-15.143 6.115 -15.472 7.105 -15.812 8.125 C-15.625 5.25 -15.625 5.25 -14.812 2.125 C-10.267 -0.661 -5.141 -0.1 0 0 Z " fill="#05132D" transform="translate(213.8125,90.875)"/>
</svg>
