<?xml version="1.0" encoding="UTF-8"?>
<!-- Generator: visioncortex VTracer 0.6.4 -->
<svg version="1.1" xmlns="http://www.w3.org/2000/svg" width="512" height="512">
<path d="M0 0 C1.281 0.007 1.281 0.007 2.588 0.015 C3.449 0.019 4.31 0.024 5.197 0.029 C20.65 0.175 20.65 0.175 23.713 1.14 C26.157 4.728 26.383 8.838 26.822 13.046 C26.906 13.833 26.99 14.621 27.077 15.432 C27.935 24.241 28.014 33.036 27.973 41.88 C27.963 44.638 27.973 47.394 27.986 50.151 C28.014 86.831 28.014 86.831 22.713 94.14 C16.798 96.648 10.805 96.44 4.463 96.39 C3.47 96.397 2.477 96.405 1.455 96.413 C0.028 96.409 0.028 96.409 -1.428 96.405 C-2.289 96.403 -3.151 96.401 -4.038 96.398 C-6.287 96.14 -6.287 96.14 -9.287 94.14 C-15.361 78.59 -13.594 58.451 -12.537 42.077 C-12.495 41.395 -12.452 40.714 -12.408 40.011 C-11.97 33.273 -11.392 26.742 -9.756 20.185 C-8.923 16.547 -8.601 12.848 -8.225 9.14 C-7.291 0.021 -7.291 0.021 0 0 Z " fill="#23282D" transform="translate(320.287353515625,183.8603515625)"/>
<path d="M0 0 C0.33 0 0.66 0 1 0 C1.843 7.81 2.16 15.526 2.168 23.379 C2.171 24.513 2.175 25.647 2.178 26.815 C2.183 29.189 2.185 31.563 2.185 33.937 C2.188 37.584 2.206 41.23 2.225 44.877 C2.228 47.19 2.23 49.503 2.23 51.816 C2.238 52.909 2.245 54.002 2.252 55.127 C2.249 56.133 2.246 57.138 2.243 58.174 C2.244 59.06 2.246 59.946 2.247 60.859 C2 63 2 63 0 65 C0.01 63.738 0.021 62.476 0.032 61.176 C0.068 56.506 0.091 51.836 0.11 47.166 C0.12 45.142 0.134 43.119 0.151 41.095 C0.175 38.191 0.186 35.287 0.195 32.383 C0.206 31.474 0.216 30.566 0.227 29.63 C0.227 28.789 0.227 27.949 0.227 27.083 C0.231 26.341 0.236 25.599 0.241 24.835 C0.157 22.751 0.157 22.751 -2 21 C-2.043 18.845 -2.043 18.845 -1.758 16.211 C-1.661 15.27 -1.564 14.329 -1.465 13.359 C-1.353 12.375 -1.241 11.39 -1.125 10.375 C-1.021 9.382 -0.916 8.39 -0.809 7.367 C-0.549 4.91 -0.279 2.455 0 0 Z " fill="#1A1D22" transform="translate(313,185)"/>
<path d="M0 0 C0.33 0 0.66 0 1 0 C1 7.59 1 15.18 1 23 C0.01 22.34 -0.98 21.68 -2 21 C-1.01 10.605 -1.01 10.605 0 0 Z " fill="#111417" transform="translate(313,185)"/>
</svg>
