<?xml version="1.0" encoding="UTF-8"?>
<!-- Generator: visioncortex VTracer 0.6.4 -->
<svg version="1.1" xmlns="http://www.w3.org/2000/svg" width="512" height="512">
<path d="M0 0 C1.084 0.005 2.168 0.01 3.285 0.016 C5.04 0.021 5.04 0.021 6.83 0.026 C8.677 0.038 8.677 0.038 10.562 0.051 C12.416 0.058 12.416 0.058 14.306 0.065 C17.371 0.077 20.435 0.093 23.5 0.114 C26.645 20.78 26.896 42.981 24.625 63.739 C24.546 64.46 24.468 65.181 24.387 65.924 C23.946 69.349 23.454 71.182 21.5 74.114 C18.978 74.454 18.978 74.454 15.836 74.406 C14.714 74.397 13.593 74.387 12.437 74.377 C10.674 74.339 10.674 74.339 8.875 74.301 C7.1 74.281 7.1 74.281 5.289 74.26 C2.359 74.225 -0.571 74.175 -3.5 74.114 C-4.73 71.654 -4.533 70.3 -4.379 67.559 C-4.331 66.572 -4.282 65.585 -4.233 64.568 C-4.177 63.469 -4.121 62.371 -4.063 61.239 C-3.368 45.986 -3.441 30.746 -3.538 15.481 C-3.542 14.538 -3.546 13.596 -3.55 12.624 C-3.558 10.831 -3.571 9.038 -3.588 7.245 C-3.596 5.201 -3.554 3.157 -3.5 1.114 C-2.5 0.114 -2.5 0.114 0 0 Z " fill="#232930" transform="translate(306.500244140625,323.886474609375)"/>
</svg>
