<?xml version="1.0" encoding="UTF-8"?>
<!-- Generator: visioncortex VTracer 0.6.4 -->
<svg version="1.1" xmlns="http://www.w3.org/2000/svg" width="512" height="512">
<path d="M0 0 C8.58 0 17.16 0 26 0 C26.061 2.988 26.121 5.976 26.184 9.055 C26.246 11.977 26.309 14.9 26.372 17.822 C26.415 19.839 26.457 21.857 26.497 23.874 C26.556 26.789 26.619 29.703 26.684 32.617 C26.7 33.506 26.717 34.395 26.734 35.311 C26.855 40.505 27.199 45.622 27.776 50.786 C28.111 54.098 28.17 57.357 28.188 60.688 C28.202 61.908 28.216 63.129 28.23 64.387 C28 68 28 68 26 75 C17.75 75 9.5 75 1 75 C-1.789 66.632 -2.15 59.195 -2.133 50.477 C-2.134 49.376 -2.135 48.275 -2.136 47.141 C-2.136 44.82 -2.135 42.498 -2.13 40.177 C-2.125 36.644 -2.13 33.111 -2.137 29.578 C-2.136 27.315 -2.135 25.052 -2.133 22.789 C-2.135 21.742 -2.137 20.695 -2.139 19.616 C-2.09 4.18 -2.09 4.18 0 0 Z " fill="#242930" transform="translate(183,323)"/>
<path d="M0 0 C3.63 0 7.26 0 11 0 C11.169 7.31 11.329 14.62 11.482 21.93 C11.535 24.412 11.591 26.894 11.648 29.375 C11.731 32.962 11.806 36.549 11.879 40.137 C11.906 41.229 11.933 42.321 11.961 43.446 C12.104 51.02 11.703 58.459 11 66 C10.67 66 10.34 66 10 66 C8.774 60.266 8.856 54.626 8.867 48.793 C8.866 47.713 8.865 46.633 8.864 45.52 C8.864 43.24 8.865 40.96 8.87 38.679 C8.875 35.21 8.87 31.741 8.863 28.271 C8.864 26.049 8.865 23.827 8.867 21.605 C8.865 20.577 8.863 19.549 8.861 18.489 C8.88 12.579 9.236 6.862 10 1 C6.7 1 3.4 1 0 1 C0 0.67 0 0.34 0 0 Z " fill="#141619" transform="translate(198,323)"/>
</svg>
