<?xml version="1.0" encoding="UTF-8"?>
<!-- Generator: visioncortex VTracer 0.6.4 -->
<svg version="1.1" xmlns="http://www.w3.org/2000/svg" width="512" height="512">
<path d="M0 0 C3.479 0.003 6.958 0 10.438 -0.001 C16.254 -0.003 22.071 -0.001 27.887 0.004 C34.558 0.009 41.229 0.008 47.9 0.002 C53.708 -0.002 59.516 -0.003 65.324 -0 C68.758 0.001 72.193 0.001 75.628 -0.002 C89.575 -0.011 103.458 0.034 117.368 1.134 C118.552 4.687 118.063 5.833 116.93 9.322 C116.643 10.223 116.355 11.124 116.059 12.052 C115.831 12.739 115.603 13.426 115.368 14.134 C114.378 13.474 113.388 12.814 112.368 12.134 C111.959 9.422 112.234 6.891 112.368 4.134 C107.248 3.083 102.39 3.041 97.196 3.107 C90.429 3.15 83.679 3.104 76.915 2.88 C33.349 1.486 -10.104 3.227 -53.632 5.134 C-53.612 5.939 -53.591 6.743 -53.57 7.572 C-53.632 10.134 -53.632 10.134 -54.632 11.134 C-56.632 11.175 -58.633 11.177 -60.632 11.134 C-60.962 11.794 -61.292 12.454 -61.632 13.134 C-64.466 9.931 -65.153 7.353 -65.632 3.134 C-61.422 1.561 -57.829 0.853 -53.343 0.725 C-52.122 0.687 -50.901 0.649 -49.643 0.61 C-47.678 0.564 -47.678 0.564 -45.673 0.518 C-44.284 0.48 -42.895 0.442 -41.506 0.404 C-27.672 0.042 -13.838 -0.014 0 0 Z " fill="#030304" transform="translate(229.6322283744812,171.86567449569702)"/>
<path d="M0 0 C8.442 -0.023 16.884 -0.041 25.326 -0.052 C29.248 -0.057 33.17 -0.064 37.092 -0.075 C40.892 -0.086 44.691 -0.092 48.491 -0.095 C49.925 -0.097 51.36 -0.1 52.794 -0.106 C63.235 -0.144 73.586 0.287 84 1 C85.184 4.552 84.695 5.698 83.562 9.188 C83.131 10.539 83.131 10.539 82.691 11.918 C82.349 12.949 82.349 12.949 82 14 C81.01 13.34 80.02 12.68 79 12 C78.592 9.288 78.867 6.756 79 4 C73.915 2.96 69.096 2.902 63.938 2.965 C54.163 3.023 44.404 2.873 34.633 2.628 C31.973 2.562 29.313 2.502 26.652 2.443 C17.737 2.233 8.877 1.919 0 1 C0 0.67 0 0.34 0 0 Z " fill="#080808" transform="translate(263,172)"/>
<path d="M0 0 C1.32 0.33 2.64 0.66 4 1 C3.716 2.439 3.423 3.876 3.125 5.312 C2.963 6.113 2.8 6.914 2.633 7.738 C2 10 2 10 0 13 C-0.66 12.34 -1.32 11.68 -2 11 C-1.686 7.044 -1.252 3.755 0 0 Z " fill="#031D3D" transform="translate(344,173)"/>
<path d="M0 0 C0 2.31 0 4.62 0 7 C-0.99 7 -1.98 7 -3 7 C-3.33 5.02 -3.66 3.04 -4 1 C-1 0 -1 0 0 0 Z " fill="#03315D" transform="translate(168,174)"/>
<path d="" fill="#0055AB" transform="translate(0,0)"/>
<path d="" fill="#005CBA" transform="translate(0,0)"/>
<path d="" fill="#005DBC" transform="translate(0,0)"/>
<path d="" fill="#005CBC" transform="translate(0,0)"/>
<path d="" fill="#005ABA" transform="translate(0,0)"/>
</svg>
