<?xml version="1.0" encoding="UTF-8"?>
<!-- Generator: visioncortex VTracer 0.6.4 -->
<svg version="1.1" xmlns="http://www.w3.org/2000/svg" width="512" height="512">
<path d="M0 0 C5.012 0.127 10.01 0.192 15.024 0.108 C17.956 0.215 20.316 0.926 22.952 2.178 C23.952 5.178 23.952 5.178 23.952 11.178 C14.382 11.178 4.812 11.178 -5.048 11.178 C-5.993 18.238 -5.993 18.238 -6.933 25.298 C-7.112 26.623 -7.112 26.623 -7.294 27.975 C-7.475 29.326 -7.475 29.326 -7.659 30.704 C-8.048 33.178 -8.048 33.178 -8.558 35.098 C-9.838 40.522 -9.865 46.253 -10.236 51.803 C-10.283 52.512 -10.331 53.22 -10.38 53.951 C-11.445 70.634 -11.475 87.94 -7.048 104.178 C-4.643 105.381 -2.945 105.381 -0.259 105.494 C0.682 105.536 1.623 105.578 2.592 105.621 C3.577 105.661 4.562 105.7 5.577 105.74 C7.065 105.805 7.065 105.805 8.584 105.871 C11.04 105.978 13.496 106.08 15.952 106.178 C15.545 116.379 14.661 126.477 13.452 136.615 C13.321 137.723 13.19 138.831 13.056 139.973 C12.08 147.922 12.08 147.922 10.952 150.178 C2.372 150.508 -6.208 150.838 -15.048 151.178 C-15.037 154.157 -15.025 157.136 -15.013 160.205 C-15.005 163.151 -14.999 166.097 -14.993 169.043 C-14.988 171.061 -14.982 173.079 -14.973 175.097 C-14.847 204.831 -14.847 204.831 -17.048 219.178 C-17.378 219.178 -17.708 219.178 -18.048 219.178 C-18.048 217.528 -18.048 215.878 -18.048 214.178 C-47.748 214.178 -77.448 214.178 -108.048 214.178 C-110.347 188.894 -110.347 188.894 -110.244 180.623 C-110.241 179.7 -110.238 178.777 -110.235 177.825 C-110.224 174.984 -110.199 172.144 -110.173 169.303 C-110.163 167.332 -110.154 165.36 -110.146 163.389 C-110.124 158.652 -110.09 153.915 -110.048 149.178 C-110.861 149.183 -111.674 149.188 -112.511 149.194 C-116.169 149.215 -119.828 149.228 -123.486 149.24 C-124.765 149.249 -126.045 149.257 -127.363 149.266 C-128.578 149.269 -129.793 149.272 -131.044 149.276 C-132.733 149.283 -132.733 149.283 -134.456 149.291 C-137.048 149.178 -137.048 149.178 -138.048 148.178 C-138.287 146.832 -138.466 145.475 -138.621 144.117 C-138.721 143.256 -138.821 142.396 -138.924 141.509 C-139.028 140.573 -139.132 139.638 -139.24 138.674 C-139.349 137.721 -139.459 136.768 -139.572 135.786 C-139.922 132.73 -140.267 129.673 -140.611 126.615 C-140.847 124.548 -141.083 122.481 -141.32 120.414 C-141.901 115.336 -142.475 110.257 -143.048 105.178 C-135.458 104.848 -127.868 104.518 -120.048 104.178 C-117.142 94.967 -117.142 94.967 -120.048 90.178 C-122.433 78.4 -122.331 66.409 -122.254 54.447 C-122.236 51.457 -122.234 48.467 -122.234 45.477 C-122.229 43.561 -122.223 41.645 -122.216 39.729 C-122.215 38.842 -122.214 37.956 -122.213 37.043 C-122.181 32.943 -122.003 29.185 -121.048 25.178 C-120.83 22.57 -120.638 19.977 -120.486 17.365 C-120.269 13.808 -120.269 13.808 -120.048 10.178 C-129.948 10.178 -139.848 10.178 -150.048 10.178 C-150.048 9.848 -150.048 9.518 -150.048 9.178 C-148.068 8.848 -146.088 8.518 -144.048 8.178 C-144.069 7.374 -144.09 6.569 -144.111 5.74 C-144.048 3.178 -144.048 3.178 -143.048 2.178 C-141.631 2.031 -140.207 1.95 -138.784 1.897 C-137.866 1.86 -136.949 1.823 -136.003 1.785 C-134.992 1.75 -133.981 1.714 -132.939 1.678 C-131.887 1.638 -130.835 1.597 -129.751 1.556 C-126.267 1.424 -122.783 1.3 -119.298 1.178 C-118.101 1.135 -116.903 1.092 -115.67 1.048 C-108.281 0.784 -100.892 0.533 -93.503 0.291 C-90.329 0.187 -87.154 0.08 -83.98 -0.027 C-55.962 -0.952 -28.023 -0.724 0 0 Z " fill="#000000" transform="translate(319.04840087890625,173.82205200195313)"/>
<path d="M0 0 C2.547 2.547 2.338 3.777 2.562 7.312 C2.752 10.151 2.965 12.833 3.555 15.617 C4.166 18.89 3.574 21.747 3 25 C2.67 25 2.34 25 2 25 C2 23.35 2 21.7 2 20 C0.02 20 -1.96 20 -4 20 C-4 19.67 -4 19.34 -4 19 C-2.35 19 -0.7 19 1 19 C0.67 12.73 0.34 6.46 0 0 Z " fill="#131519" transform="translate(299,368)"/>
<path d="" fill="#32363B" transform="translate(0,0)"/>
<path d="" fill="#3C4147" transform="translate(0,0)"/>
<path d="" fill="#24282D" transform="translate(0,0)"/>
</svg>
