<?xml version="1.0" encoding="UTF-8"?>
<!-- Generator: visioncortex VTracer 0.6.4 -->
<svg version="1.1" xmlns="http://www.w3.org/2000/svg" width="512" height="512">
<path d="M0 0 C5.412 -0.075 10.498 0.242 15.855 1.082 C15.883 3.478 15.902 5.874 15.918 8.27 C15.926 8.943 15.935 9.617 15.943 10.311 C15.969 15.592 15.969 15.592 15.36 18.221 C14.631 22.358 14.693 26.44 14.688 30.633 C14.684 31.564 14.681 32.496 14.677 33.456 C14.672 35.43 14.67 37.405 14.67 39.379 C14.668 42.346 14.65 45.312 14.631 48.279 C14.295 67.567 14.295 67.567 18.855 86.082 C18.648 88.504 18.648 88.504 18.043 90.832 C17.755 92 17.755 92 17.461 93.191 C16.855 95.082 16.855 95.082 15.855 96.082 C14.23 96.182 12.601 96.213 10.973 96.215 C9.97 96.216 8.967 96.217 7.934 96.219 C6.877 96.215 5.82 96.211 4.73 96.207 C3.18 96.213 3.18 96.213 1.598 96.219 C-3.757 96.212 -8.87 96.023 -14.145 95.082 C-19.942 80.589 -19.471 64.452 -19.405 49.08 C-19.395 46.086 -19.405 43.092 -19.418 40.098 C-19.426 31.182 -19.279 22.327 -18.316 13.457 C-18.247 12.777 -18.178 12.096 -18.107 11.395 C-17.595 7.325 -16.62 4.369 -14.145 1.082 C-11.867 0.375 -11.867 0.375 -9.207 0.27 C-8.234 0.224 -7.261 0.179 -6.258 0.133 C-4.172 0.099 -2.086 0.054 0 0 Z " fill="#272D34" transform="translate(183.14453125,182.91796875)"/>
<path d="M0 0 C2.31 0 4.62 0 7 0 C7.027 2.396 7.047 4.792 7.062 7.188 C7.071 7.861 7.079 8.535 7.088 9.229 C7.114 14.51 7.114 14.51 6.504 17.139 C5.775 21.276 5.837 25.358 5.832 29.551 C5.829 30.482 5.825 31.414 5.822 32.374 C5.817 34.348 5.815 36.323 5.815 38.297 C5.813 41.264 5.794 44.23 5.775 47.197 C5.747 57.268 6.097 67.035 7.569 77.005 C8.168 81.168 8.013 83.352 6 87 C3.593 72.041 3.694 57.124 3.746 42.007 C3.751 39.317 3.742 36.627 3.732 33.936 C3.723 30.687 3.729 27.437 3.734 24.188 C3.73 22.997 3.726 21.806 3.722 20.579 C3.759 14.068 4.316 8.295 6 2 C3.03 1.505 3.03 1.505 0 1 C0 0.67 0 0.34 0 0 Z " fill="#1A1F23" transform="translate(192,184)"/>
<path d="M0 0 C0.33 0 0.66 0 1 0 C1.336 2.604 1.669 5.208 2 7.812 C2.095 8.55 2.191 9.288 2.289 10.049 C3.383 18.681 3.383 18.681 1 23 C-0.234 18.229 -0.113 13.575 -0.062 8.688 C-0.058 7.852 -0.053 7.016 -0.049 6.154 C-0.037 4.103 -0.019 2.051 0 0 Z " fill="#111416" transform="translate(197,248)"/>
</svg>
