<?xml version="1.0" encoding="UTF-8"?>
<!-- Generator: visioncortex VTracer 0.6.4 -->
<svg version="1.1" xmlns="http://www.w3.org/2000/svg" width="512" height="512">
<path d="M0 0 C1.216 0.043 2.432 0.086 3.685 0.13 C4.984 0.183 6.283 0.235 7.621 0.289 C9.593 0.366 9.593 0.366 11.604 0.444 C14.226 0.548 16.848 0.655 19.47 0.766 C22.485 0.89 25.5 0.999 28.516 1.102 C29.988 1.163 31.461 1.225 32.934 1.289 C34.786 1.363 34.786 1.363 36.676 1.438 C40.684 2.002 43.456 3.081 47.059 4.914 C50.734 12.265 49.242 23.456 49.246 31.477 C49.258 32.65 49.271 33.824 49.283 35.033 C49.285 36.15 49.287 37.267 49.289 38.418 C49.293 39.427 49.297 40.436 49.302 41.475 C49.059 43.914 49.059 43.914 47.059 45.914 C44.857 46.157 44.857 46.157 42.09 46.145 C41.056 46.144 40.021 46.143 38.956 46.142 C37.835 46.128 36.714 46.115 35.559 46.102 C34.411 46.092 33.262 46.083 32.08 46.073 C28.406 46.034 24.732 45.975 21.059 45.914 C19.222 45.893 19.222 45.893 17.349 45.872 C13.793 45.826 10.239 45.75 6.684 45.664 C5.58 45.65 4.475 45.636 3.338 45.622 C2.31 45.589 1.282 45.557 0.223 45.523 C-0.68 45.502 -1.583 45.482 -2.513 45.46 C-5.7 44.743 -6.91 43.424 -8.941 40.914 C-10.199 37.141 -10.308 33.478 -10.504 29.539 C-10.544 28.736 -10.584 27.934 -10.626 27.106 C-10.74 24.709 -10.842 22.312 -10.941 19.914 C-10.997 18.638 -11.052 17.362 -11.109 16.047 C-11.362 5.65 -11.362 5.65 -7.941 0.914 C-5.183 -0.465 -3.081 -0.115 0 0 Z " fill="#201F2F" transform="translate(275.94140625,188.0859375)"/>
<path d="M0 0 C1.814 0.079 1.814 0.079 3.666 0.16 C5.589 0.276 5.589 0.276 7.551 0.395 C9.509 0.491 9.509 0.491 11.506 0.59 C14.107 0.722 16.707 0.861 19.307 1.01 C22.309 1.176 25.308 1.306 28.312 1.406 C29.788 1.464 31.263 1.523 32.738 1.582 C34.591 1.656 34.591 1.656 36.48 1.73 C40.489 2.295 43.261 3.374 46.863 5.207 C48.066 7.612 47.964 9.157 47.926 11.832 C47.917 12.649 47.908 13.467 47.898 14.309 C47.887 14.935 47.875 15.562 47.863 16.207 C47.533 16.207 47.203 16.207 46.863 16.207 C46.203 13.897 45.543 11.587 44.863 9.207 C44.203 9.207 43.543 9.207 42.863 9.207 C42.863 9.537 42.863 9.867 42.863 10.207 C35.818 10.317 28.831 10.186 21.801 9.707 C15.194 9.27 8.61 9.096 1.988 9.082 C1.126 9.078 0.263 9.073 -0.625 9.068 C-1.834 9.071 -1.834 9.071 -3.066 9.074 C-4.137 9.076 -4.137 9.076 -5.23 9.078 C-7.36 9.142 -7.36 9.142 -10.137 10.207 C-10.623 4.859 -10.623 4.859 -8.505 2.017 C-5.432 -0.332 -3.83 -0.199 0 0 Z " fill="#05050C" transform="translate(276.13671875,187.79296875)"/>
<path d="M0 0 C26.17 0 26.17 0 34.801 2.527 C38.1 3.236 41.393 3.104 44.75 3.062 C45.447 3.058 46.145 3.053 46.863 3.049 C48.576 3.037 50.288 3.019 52 3 C52.495 4.485 52.495 4.485 53 6 C45.954 6.11 38.968 5.979 31.938 5.5 C25.33 5.063 18.746 4.889 12.125 4.875 C11.263 4.87 10.4 4.866 9.511 4.861 C8.303 4.864 8.303 4.864 7.07 4.867 C5.999 4.869 5.999 4.869 4.907 4.871 C2.776 4.935 2.776 4.935 0 6 C0 4.02 0 2.04 0 0 Z " fill="#10101B" transform="translate(266,192)"/>
<path d="M0 0 C0.88 0.088 1.761 0.175 2.668 0.266 C3.376 0.425 4.083 0.585 4.812 0.75 C5.142 1.41 5.473 2.07 5.812 2.75 C4.565 2.841 4.565 2.841 3.293 2.934 C1.663 3.059 1.663 3.059 0 3.188 C-1.618 3.309 -1.618 3.309 -3.27 3.434 C-6.247 3.652 -6.247 3.652 -9.188 4.75 C-9.188 3.76 -9.188 2.77 -9.188 1.75 C-5.918 -0.231 -3.773 -0.424 0 0 Z " fill="#141420" transform="translate(275.1875,193.25)"/>
</svg>
