<?xml version="1.0" encoding="UTF-8"?>
<!-- Generator: visioncortex VTracer 0.6.4 -->
<svg version="1.1" xmlns="http://www.w3.org/2000/svg" width="512" height="512">
<path d="M0 0 C4.125 -0.054 8.25 -0.094 12.375 -0.125 C13.551 -0.142 14.726 -0.159 15.938 -0.176 C17.62 -0.185 17.62 -0.185 19.336 -0.195 C20.373 -0.206 21.41 -0.216 22.478 -0.227 C25 0 25 0 27 2 C27.266 4.312 27.266 4.312 27.25 7 C27.255 7.887 27.26 8.774 27.266 9.688 C27 12 27 12 25 14 C23.124 14.243 23.124 14.243 20.859 14.23 C20.036 14.229 19.212 14.227 18.363 14.225 C17.07 14.206 17.07 14.206 15.75 14.188 C14.903 14.187 14.056 14.186 13.184 14.186 C8.578 14.153 4.614 13.769 0 13 C0 8.71 0 4.42 0 0 Z " fill="#009FD4" transform="translate(270,244)"/>
</svg>
