<?xml version="1.0" encoding="UTF-8"?>
<!-- Generator: visioncortex VTracer 0.6.4 -->
<svg version="1.1" xmlns="http://www.w3.org/2000/svg" width="512" height="512">
<path d="M0 0 C1.685 1.685 1.13 3.788 1.133 6.094 C1.135 7.639 1.135 7.639 1.137 9.215 C1.133 10.299 1.129 11.383 1.125 12.5 C1.129 13.584 1.133 14.668 1.137 15.785 C1.135 16.815 1.134 17.845 1.133 18.906 C1.132 19.858 1.131 20.81 1.129 21.791 C1 24 1 24 0 25 C-2.97 25 -5.94 25 -9 25 C-9.33 17.08 -9.66 9.16 -10 1 C-6.398 0.1 -3.671 -0.163 0 0 Z " fill="#E49903" transform="translate(429,271)"/>
</svg>
