<?xml version="1.0" encoding="UTF-8"?>
<!-- Generator: visioncortex VTracer 0.6.4 -->
<svg version="1.1" xmlns="http://www.w3.org/2000/svg" width="512" height="512">
<path d="M0 0 C1.012 0.023 2.024 0.047 3.066 0.071 C6.036 0.154 9.003 0.271 11.971 0.406 C14.245 0.508 16.519 0.6 18.794 0.69 C23.905 0.897 29.015 1.131 34.125 1.375 C34.962 1.414 35.799 1.453 36.661 1.492 C39.078 1.608 41.494 1.736 43.91 1.867 C44.989 1.917 44.989 1.917 46.089 1.969 C57.178 2.615 57.178 2.615 60.062 5.5 C60.309 8.173 60.491 10.821 60.625 13.5 C60.666 14.302 60.707 15.104 60.749 15.931 C61.013 21.515 61.194 27.097 61.25 32.688 C61.269 33.709 61.269 33.709 61.289 34.752 C61.298 39.316 60.742 43.246 59.062 47.5 C55.737 49.844 52.731 49.719 48.753 49.651 C46.835 49.626 46.835 49.626 44.879 49.6 C43.485 49.571 42.092 49.541 40.699 49.512 C39.264 49.488 37.83 49.465 36.395 49.443 C33.388 49.395 30.381 49.339 27.374 49.279 C23.535 49.201 19.695 49.137 15.855 49.077 C12.891 49.03 9.927 48.978 6.963 48.925 C5.548 48.9 4.133 48.875 2.718 48.852 C0.732 48.818 -1.254 48.778 -3.24 48.737 C-4.367 48.715 -5.494 48.694 -6.655 48.672 C-10.166 48.488 -13.493 48.223 -16.938 47.5 C-19.099 44.258 -19.157 43.84 -18.766 40.211 C-18.636 38.934 -18.636 38.934 -18.505 37.631 C-18.4 36.722 -18.295 35.812 -18.188 34.875 C-18.035 33.475 -18.035 33.475 -17.88 32.047 C-17.67 30.128 -17.457 28.209 -17.239 26.292 C-16.96 23.71 -16.733 21.131 -16.527 18.543 C-16.394 17.049 -16.259 15.556 -16.125 14.062 C-16.08 13.384 -16.034 12.706 -15.987 12.007 C-14.938 1.523 -9.216 -0.412 0 0 Z " fill="#222333" transform="translate(176.9375,182.5)"/>
<path d="M0 0 C0.963 0.034 1.926 0.069 2.918 0.104 C3.934 0.123 4.95 0.142 5.998 0.161 C9.681 0.249 13.361 0.39 17.043 0.542 C18.184 0.586 18.184 0.586 19.348 0.632 C25.269 0.865 31.187 1.131 37.105 1.417 C37.942 1.455 38.779 1.494 39.641 1.534 C42.058 1.65 44.474 1.777 46.89 1.909 C47.969 1.959 47.969 1.959 49.069 2.01 C60.158 2.657 60.158 2.657 63.043 5.542 C63.083 7.208 63.085 8.875 63.043 10.542 C62.548 9.552 62.548 9.552 62.043 8.542 C61.106 8.516 60.169 8.491 59.204 8.466 C55.67 8.369 52.136 8.27 48.603 8.169 C47.084 8.126 45.566 8.085 44.047 8.044 C35.85 7.825 27.714 7.494 19.545 6.744 C16.39 6.489 13.269 6.478 10.105 6.542 C6.21 6.619 2.847 6.323 -0.957 5.542 C-2.727 5.477 -4.499 5.455 -6.27 5.479 C-7.594 5.493 -7.594 5.493 -8.946 5.506 C-9.941 5.524 -9.941 5.524 -10.957 5.542 C-8.047 0.337 -5.541 -0.036 0 0 Z " fill="#05050C" transform="translate(173.957275390625,182.45849609375)"/>
</svg>
