<?xml version="1.0" ?>
<svg xmlns:ns0="http://www.w3.org/2000/svg" xmlns="http://www.w3.org/2000/svg" width="512" height="512" viewBox="0 0 512 512" style="background-color: transparent;">
  <ns0:path d="M0 0 C0.99 0.66 1.98 1.32 3 2 C2.67 4.31 2.34 6.62 2 9 C4.31 9.33 6.62 9.66 9 10 C9.99 8.35 10.98 6.7 12 5 C19.518 6.93 26.784 9.25 34.062 11.938 C36.276 12.743 38.489 13.548 40.703 14.352 C41.881 14.78 43.058 15.208 44.271 15.649 C50.942 18.066 57.625 20.446 64.312 22.812 C65.023 23.064 65.734 23.316 66.467 23.575 C78.409 27.796 90.407 31.831 102.433 35.804 C118.042 40.964 133.534 46.429 149 52 C148.67 54.64 148.34 57.28 148 60 C150.31 60.66 152.62 61.32 155 62 C155.99 60.02 156.98 58.04 158 56 C170.489 56.034 170.489 56.034 173.973 58.262 C175.25 59.812 175.25 59.812 177 63 C177.53 63.937 177.53 63.937 178.071 64.893 C181.477 72.619 180.174 83.24 180.203 91.516 C180.209 92.771 180.215 94.026 180.22 95.319 C180.23 97.955 180.236 100.59 180.24 103.226 C180.246 106.587 180.27 109.947 180.298 113.308 C180.321 116.544 180.323 119.78 180.328 123.016 C180.34 124.214 180.353 125.412 180.366 126.646 C180.349 132.933 180.033 137.463 177 143 C176.343 144.295 176.343 144.295 175.672 145.617 C175.226 146.433 174.78 147.249 174.32 148.09 C173.81 149.026 173.301 149.963 172.775 150.928 C171.958 152.418 171.958 152.418 171.125 153.938 C169.95 156.092 168.776 158.247 167.602 160.402 C167.002 161.499 166.403 162.596 165.786 163.726 C163.012 168.811 160.257 173.906 157.5 179 C156.421 180.992 155.341 182.984 154.262 184.977 C152.053 189.053 149.848 193.132 147.645 197.211 C139.896 211.549 132.108 225.862 124 240 C118.857 239.479 114.942 238.279 110.312 236 C106.784 234.275 103.826 232.956 100 232 C99.34 237.28 98.68 242.56 98 248 C100.97 248.99 100.97 248.99 104 250 C104.66 250.66 105.32 251.32 106 252 C105.01 254.97 104.02 257.94 103 261 C95.25 257.375 95.25 257.375 93 254 C92.539 252.177 92.128 250.342 91.75 248.5 C87.729 232.1 76.069 219.755 62 211 C54.065 206.271 46.094 202.001 37 200 C36.237 199.818 35.474 199.636 34.688 199.449 C26.776 198.127 16.889 197.408 10 202 C7.445 205.16 5.623 207.949 5 212 C2.081 213.261 0.958 212.985 -2.083 211.867 C-3.307 211.286 -4.525 210.693 -5.738 210.09 C-6.404 209.771 -7.069 209.453 -7.755 209.125 C-9.947 208.074 -12.13 207.007 -14.312 205.938 C-17.383 204.445 -20.456 202.959 -23.531 201.477 C-24.314 201.098 -25.097 200.72 -25.903 200.331 C-31.192 197.799 -36.538 195.483 -41.969 193.273 C-44.076 192.397 -46.182 191.518 -48.288 190.639 C-49.623 190.094 -50.965 189.565 -52.313 189.052 C-62.786 185.063 -62.786 185.063 -65.827 179.894 C-67.064 176.626 -68.052 173.361 -69 170 C-76.348 156.219 -87.373 145.837 -100 137 C-101.337 136.005 -102.672 135.008 -104 134 C-101.03 134 -98.06 134 -95 134 C-95 135.32 -95 136.64 -95 138 C-94.01 138 -93.02 138 -92 138 C-92.33 137.01 -92.66 136.02 -93 135 C-93.242 130.317 -93.195 125.626 -93.188 120.938 C-93.187 120.261 -93.186 119.584 -93.186 118.887 C-93.132 96.781 -92.216 82.216 -76 66 C-75.34 64.68 -74.68 63.36 -74 62 C-70.04 63.98 -66.08 65.96 -62 68 C-62 71.3 -62 74.6 -62 78 C-58.645 78.765 -58.645 78.765 -55 79 C-52.352 77.235 -52.023 76.069 -51 73 C-43.763 74.997 -36.935 77.565 -30.039 80.52 C-27.91 81.419 -25.78 82.317 -23.649 83.213 C-22.554 83.674 -21.459 84.135 -20.331 84.61 C-10.395 88.756 -0.375 92.699 9.625 96.688 C12.04 97.652 14.455 98.617 16.87 99.583 C30.193 104.904 43.529 110.192 56.88 115.443 C78.329 123.881 78.329 123.881 87.812 127.812 C88.943 128.274 88.943 128.274 90.097 128.746 C94.881 130.761 94.881 130.761 96 133 C95.524 135.725 94.733 138.328 94 141 C97.3 141.33 100.6 141.66 104 142 C104.99 140.02 105.98 138.04 107 136 C107.652 136.035 108.305 136.07 108.977 136.105 C114.435 136.275 118.335 136.186 123 133 C126.179 129.492 127.163 126.24 127.312 121.562 C127.369 120.42 127.369 120.42 127.426 119.254 C126.833 116.117 125.373 115.092 123 113 C115.498 108.801 107.1 106.054 99.062 103.062 C96.469 102.09 93.877 101.114 91.285 100.137 C90.274 99.756 90.274 99.756 89.243 99.367 C82.21 96.713 75.21 93.977 68.209 91.239 C52.608 85.138 36.955 79.183 21.279 73.28 C8.107 68.319 -5.042 63.304 -18.16 58.202 C-31.409 53.052 -44.702 48.021 -58 43 C-58 42.67 -58 42.34 -58 42 C-53.05 41.505 -53.05 41.505 -48 41 C-47.732 40.216 -47.464 39.433 -47.188 38.625 C-46 36 -46 36 -43 34 C-42.67 33.01 -42.34 32.02 -42 31 C-40.348 29.976 -38.679 28.979 -37 28 C-35.456 26.588 -33.956 25.127 -32.5 23.625 C-31.721 22.827 -30.943 22.029 -30.141 21.207 C-29.081 20.115 -29.081 20.115 -28 19 C-27.093 18.113 -26.185 17.226 -25.25 16.312 C-22.673 13.663 -20.36 10.844 -18 8 C-15.812 5.625 -15.812 5.625 -14 4 C-13.34 4 -12.68 4 -12 4 C-11.67 3.01 -11.34 2.02 -11 1 C-7.417 -1.756 -4.216 -0.92 0 0 Z M171 89 C170.452 89.937 169.904 90.874 169.34 91.84 C164.199 100.615 158.995 109.349 153.75 118.062 C148.544 126.727 143.367 135.408 138.25 144.125 C137.666 145.114 137.081 146.103 136.479 147.121 C130.858 156.735 128.542 163.43 128.75 174.625 C128.755 175.744 128.76 176.863 128.766 178.016 C128.812 182.823 128.931 187.297 130 192 C130.66 192 131.32 192 132 192 C139.8 178.385 147.562 164.748 155.263 151.077 C157.124 147.781 158.993 144.49 160.863 141.199 C162.138 138.945 163.413 136.692 164.688 134.438 C165.588 132.858 165.588 132.858 166.507 131.247 C167.066 130.257 167.624 129.266 168.199 128.246 C168.693 127.377 169.186 126.507 169.694 125.611 C172.186 120.628 173.254 116.364 173.266 110.797 C173.268 109.652 173.271 108.507 173.273 107.328 C173.262 105.557 173.262 105.557 173.25 103.75 C173.258 102.554 173.265 101.358 173.273 100.125 C173.271 98.985 173.268 97.846 173.266 96.672 C173.263 95.631 173.261 94.591 173.259 93.519 C173.25 90.829 173.25 90.829 171 89 Z M-70 100 C-71.212 100.983 -71.212 100.983 -71.053 102.854 C-70.94 105.466 -70.821 108.077 -70.688 110.688 C-70.652 111.587 -70.617 112.486 -70.58 113.412 C-70.331 120.464 -70.331 120.464 -68 127 C-61.928 132.321 -53.489 135.102 -46.188 138.312 C-44.895 138.885 -43.602 139.457 -42.309 140.03 C-39.741 141.165 -37.171 142.295 -34.6 143.421 C-31.4 144.824 -28.208 146.241 -25.016 147.66 C-23.324 148.4 -21.631 149.138 -19.938 149.875 C-19.178 150.214 -18.418 150.554 -17.635 150.904 C-13.943 152.482 -11.83 153.237 -8 152 C-7.854 148.292 -7.766 144.585 -7.688 140.875 C-7.625 139.305 -7.625 139.305 -7.561 137.703 C-7.485 132.951 -7.559 129.826 -9.824 125.582 C-13.789 121.752 -19.109 119.882 -24.125 117.812 C-25.211 117.351 -26.296 116.889 -27.415 116.413 C-30.936 114.923 -34.467 113.46 -38 112 C-39.244 111.481 -40.488 110.962 -41.731 110.442 C-45.4 108.909 -49.074 107.39 -52.75 105.875 C-53.897 105.402 -55.045 104.928 -56.227 104.441 C-57.302 104.004 -58.377 103.567 -59.484 103.117 C-60.43 102.732 -61.376 102.346 -62.351 101.949 C-64.91 101.032 -67.307 100.371 -70 100 Z M20 138 C17.498 140.502 18.417 146.877 18.25 150.25 C18.182 151.301 18.113 152.351 18.043 153.434 C17.993 154.451 17.942 155.468 17.891 156.516 C17.839 157.447 17.788 158.378 17.735 159.337 C18.069 162.689 18.923 164.351 21 167 C23.52 168.752 23.52 168.752 26.637 170.145 C27.234 170.431 27.832 170.717 28.448 171.012 C38.764 175.871 49.317 180.234 59.812 184.688 C63.121 186.096 66.43 187.506 69.738 188.917 C71.781 189.787 73.824 190.657 75.869 191.525 C76.804 191.922 77.739 192.32 78.702 192.729 C79.593 193.106 80.484 193.483 81.401 193.871 C83.141 194.627 84.869 195.41 86.585 196.219 C87.384 196.595 88.183 196.971 89.007 197.359 C89.707 197.699 90.407 198.039 91.129 198.389 C93.19 199.267 93.19 199.267 96 198 C96.058 194.271 96.094 190.542 96.125 186.812 C96.15 185.23 96.15 185.23 96.176 183.615 C96.182 182.594 96.189 181.572 96.195 180.52 C96.206 179.582 96.216 178.645 96.227 177.679 C95.842 173.134 94.632 170.625 91.395 167.422 C87.785 164.635 83.892 162.955 79.688 161.25 C78.83 160.893 77.972 160.536 77.088 160.168 C75.02 159.309 72.951 158.455 70.88 157.604 C67.061 156.031 63.255 154.428 59.448 152.824 C55.755 151.269 52.059 149.721 48.362 148.173 C46.501 147.393 44.64 146.611 42.78 145.828 C40.128 144.712 37.473 143.605 34.816 142.5 C34.017 142.162 33.218 141.824 32.394 141.475 C28.283 139.775 24.481 138.39 20 138 Z M-38 150 C-39.307 151.099 -39.307 151.099 -39.312 153.812 C-39.282 156.976 -39.282 156.976 -37.539 158.934 C-34.016 161.8 -30.21 163.451 -26.062 165.25 C-25.264 165.614 -24.465 165.977 -23.643 166.352 C-18.055 168.822 -18.055 168.822 -12 169 C-11.294 166.458 -10.827 164.624 -11.539 162.051 C-13.702 159.015 -16.68 157.89 -20 156.438 C-20.67 156.134 -21.339 155.831 -22.03 155.519 C-27.226 153.218 -32.477 151.364 -38 150 Z M71 201 C70.498 203.831 70.498 203.831 71 207 C74.717 211.521 78.743 213.644 84 215.875 C85.048 216.355 85.048 216.355 86.117 216.844 C90.105 218.574 92.698 219.496 97 218 C97.418 214.668 97.418 214.668 97 211 C93.339 207.43 89.086 205.366 84.5 203.25 C83.849 202.934 83.198 202.618 82.527 202.293 C76.678 199.336 76.678 199.336 71 201 Z " fill="#005CBD" transform="translate(255,146)"/>
  <ns0:path d="M0 0 C2.313 2.313 2.496 3.479 3.125 6.625 C3.293 7.442 3.46 8.26 3.633 9.102 C3.754 9.728 3.875 10.355 4 11 C6.31 11 8.62 11 11 11 C11 9.35 11 7.7 11 6 C18.734 6.479 25.277 8.58 32.5 11.312 C33.596 11.704 34.691 12.095 35.82 12.498 C37.379 13.081 37.379 13.081 38.969 13.676 C39.912 14.026 40.855 14.375 41.826 14.736 C44 16 44 16 44.955 17.985 C45 20 45 20 42.75 22.562 C41.843 23.367 40.935 24.171 40 25 C39.567 25.598 39.134 26.196 38.688 26.812 C35.709 28.908 32.548 28.225 29 28 C28.34 27.67 27.68 27.34 27 27 C21.117 26.412 16.814 27.691 12 31 C9.307 35.039 9.556 38.259 10 43 C10.647 44.674 11.31 46.343 12 48 C11.607 52.116 10.312 54.277 7.562 57.312 C6.945 58.01 6.328 58.707 5.691 59.426 C4 61 4 61 2 61 C-8.119 79.68 -5.238 103.426 -5 124 C-5.99 124 -6.98 124 -8 124 C-8 122.68 -8 121.36 -8 120 C-9.299 120.082 -10.599 120.165 -11.938 120.25 C-16.58 120.265 -19.754 119.039 -23.879 117.023 C-30.806 113.681 -37.865 112.799 -45.188 115.125 C-49.327 116.873 -51.554 119.187 -54 123 C-54.921 125.676 -55.47 128.206 -56 131 C-58.813 130.75 -58.813 130.75 -62 129 C-63.487 125.09 -64.283 121.114 -65 117 C-64.34 117 -63.68 117 -63 117 C-63.159 111.851 -63.361 106.548 -66 102 C-69.616 99.068 -73.943 97.733 -78.312 96.297 C-83.39 94.511 -83.39 94.511 -85 92 C-87.308 85.349 -89.334 77.968 -86.504 71.242 C-83.101 66.169 -78.499 62.087 -74 58 C-71.645 58.492 -71.645 58.492 -69 60 C-67.964 62.809 -67.266 65.226 -66.688 68.125 C-66.519 68.879 -66.351 69.633 -66.178 70.41 C-65.766 72.269 -65.38 74.134 -65 76 C-61.535 75.01 -61.535 75.01 -58 74 C-58.144 73.131 -58.289 72.262 -58.438 71.367 C-58.623 70.215 -58.809 69.062 -59 67.875 C-59.186 66.738 -59.371 65.601 -59.562 64.43 C-59.971 61.228 -60.153 58.222 -60 55 C-59.67 54.67 -59.34 54.34 -59 54 C-58.921 52.438 -58.862 50.875 -58.812 49.312 C-58.472 45.352 -57.876 43.222 -55.062 40.375 C-52 38 -52 38 -50 38 C-50 37.34 -50 36.68 -50 36 C-48.672 34.66 -48.672 34.66 -46.75 33.062 C-43.09 29.954 -39.527 26.758 -36 23.5 C-32.051 19.863 -28.07 16.272 -24.008 12.762 C-20.717 9.874 -17.511 6.891 -14.297 3.918 C-9.46 -0.121 -6.159 -0.397 0 0 Z " fill="#0056BC" transform="translate(168,160)"/>
  <ns0:path d="M0 0 C3.031 1.054 6.019 2.193 9.007 3.363 C10.175 3.808 11.343 4.252 12.546 4.711 C15.82 5.958 19.087 7.222 22.353 8.49 C25.943 9.88 29.538 11.257 33.132 12.636 C37.894 14.464 42.654 16.294 47.412 18.13 C61.238 23.465 75.089 28.732 88.945 33.988 C105.078 40.109 121.198 46.258 137.277 52.519 C141.756 54.263 146.242 55.989 150.735 57.698 C153.579 58.78 156.422 59.867 159.265 60.954 C160.608 61.466 161.952 61.976 163.297 62.484 C182.807 69.844 182.807 69.844 186.445 75.3 C187.266 80.899 186.649 85.549 183.445 90.3 C179.796 93.676 177.227 95.186 172.21 95.507 C168.202 95.287 164.91 94.386 161.195 92.988 C160.477 92.726 159.76 92.465 159.02 92.196 C149.789 88.775 140.705 84.965 131.601 81.222 C124.638 78.366 117.642 75.602 110.632 72.863 C90.357 64.93 70.149 56.834 49.997 48.592 C42.031 45.339 34.045 42.136 26.051 38.95 C20.831 36.869 15.615 34.779 10.399 32.685 C6.317 31.047 2.228 29.424 -1.864 27.808 C-3.574 27.119 -5.284 26.429 -6.993 25.738 C-7.731 25.452 -8.469 25.166 -9.229 24.872 C-13.546 23.099 -16.074 21.276 -18.555 17.3 C-19.756 13.655 -19.776 10.274 -18.93 6.55 C-14.521 -0.665 -7.752 -2.123 0 0 Z " fill="#737576" transform="translate(196.55517578125,187.69970703125)"/>
  <ns0:path d="M0 0 C2.729 0.97 5.463 1.924 8.198 2.874 C11.949 4.178 15.698 5.486 19.446 6.797 C26.701 9.328 33.986 11.771 41.279 14.193 C41.96 14.42 42.642 14.647 43.344 14.881 C53.655 18.317 63.982 21.702 74.313 25.078 C76.434 25.771 78.555 26.464 80.676 27.158 C82.108 27.627 83.541 28.095 84.974 28.564 C85.688 28.797 86.402 29.031 87.137 29.272 C90.678 30.43 94.22 31.586 97.763 32.739 C106.76 35.666 115.747 38.62 124.716 41.631 C125.841 42.008 126.966 42.385 128.124 42.773 C131.206 43.817 134.279 44.882 137.349 45.959 C138.237 46.259 139.125 46.559 140.039 46.869 C144.996 48.643 148.339 50.398 151.716 54.631 C153.212 59.586 152.745 63.244 150.712 67.888 C149.06 70.778 147.929 71.673 144.716 72.631 C137.407 71.854 130.459 69.351 123.572 66.912 C122.508 66.542 121.445 66.171 120.349 65.79 C116.865 64.576 113.384 63.353 109.904 62.131 C105.588 60.624 101.271 59.122 96.955 57.62 C95.045 56.955 93.136 56.289 91.226 55.624 C76.737 50.578 62.203 45.666 47.663 40.768 C36.59 37.038 25.55 33.258 14.601 29.176 C9.072 27.117 3.518 25.141 -2.057 23.209 C-3.25 22.794 -3.25 22.794 -4.467 22.372 C-7.691 21.253 -10.915 20.136 -14.142 19.027 C-16.553 18.196 -18.962 17.359 -21.37 16.521 C-22.094 16.274 -22.818 16.027 -23.564 15.773 C-32.867 12.52 -32.867 12.52 -35.596 8.881 C-36.622 5.525 -36.774 3.122 -36.284 -0.369 C-26.977 -11.849 -11.31 -4.021 0 0 Z " fill="#717374" transform="translate(278.2839660644531,131.36941528320313)"/>
  <ns0:path d="M0 0 C0.33 0 0.66 0 1 0 C0.942 0.592 0.884 1.183 0.824 1.793 C0.449 7.273 0.449 7.273 3.438 11.75 C4.706 12.864 4.706 12.864 6 14 C8.519 21.342 4.523 30.445 1.582 37.309 C-0.041 40.582 -1.748 43.793 -3.5 47 C-4.154 48.226 -4.806 49.453 -5.457 50.682 C-6.505 52.659 -7.553 54.635 -8.608 56.609 C-12.742 64.354 -16.727 72.175 -20.719 79.993 C-22.839 84.142 -24.967 88.285 -27.094 92.43 C-29.866 97.833 -32.633 103.239 -35.392 108.649 C-36.77 111.349 -38.153 114.046 -39.537 116.743 C-40.171 117.981 -40.802 119.221 -41.432 120.461 C-42.293 122.156 -43.162 123.848 -44.031 125.539 C-44.511 126.48 -44.992 127.42 -45.486 128.389 C-49.449 135.225 -49.449 135.225 -53 137 C-61.204 137.217 -67.264 134.549 -73.73 129.703 C-75.597 127.199 -75.398 125.21 -75.375 122.125 C-75.383 121.096 -75.39 120.068 -75.398 119.008 C-74.956 115.664 -73.913 113.743 -72 111 C-71.348 111.361 -70.695 111.722 -70.023 112.094 C-63.377 115.905 -63.377 115.905 -56 116 C-53.111 112.416 -52.7 109.284 -52.383 104.772 C-51.272 90.797 -44.792 80.067 -37.837 68.166 C-35.104 63.456 -32.525 58.666 -29.938 53.875 C-28.961 52.085 -27.983 50.296 -27.004 48.508 C-24.337 43.624 -21.688 38.73 -19.042 33.835 C-14.479 25.392 -9.9 16.958 -5.25 8.562 C-4.832 7.805 -4.413 7.047 -3.982 6.267 C-1.121 1.121 -1.121 1.121 0 0 Z " fill="#979897" transform="translate(433,286)"/>
  <ns0:path d="M0 0 C12.942 8.2 24.315 19.781 29.332 34.461 C29.909 37.185 30.174 39.672 30.332 42.461 C29.012 42.461 27.692 42.461 26.332 42.461 C24.813 44.314 24.813 44.314 23.582 46.711 C20.501 51.542 17.991 54.134 12.332 55.461 C-4.931 57.35 -18.974 51.347 -32.422 40.909 C-41.436 33.619 -48.11 24.94 -50.668 13.461 C-51.091 6.928 -48.824 2.06 -45.668 -3.539 C-49.094 -0.364 -49.094 -0.364 -51.668 3.461 C-53.334 3.504 -55.002 3.502 -56.668 3.461 C-56.998 3.131 -57.328 2.801 -57.668 2.461 C-57.437 -3.429 -55.921 -6.475 -51.668 -10.539 C-33.974 -17.981 -15.248 -8.796 0 0 Z M-31.473 15.312 C-33.17 18.364 -33.201 19.994 -32.668 23.461 C-29.439 30.8 -23.38 36.952 -16.105 40.336 C-10.075 42.309 -5.573 43.208 0.332 40.461 C2.557 37.123 2.617 35.541 1.988 31.645 C-0.335 23.915 -6.866 19.175 -13.668 15.461 C-17.31 13.749 -20.271 13.141 -24.293 13.086 C-25.704 13.043 -25.704 13.043 -27.145 13 C-29.793 13.232 -29.793 13.232 -31.473 15.312 Z " fill="#293038" transform="translate(317.66796875,356.5390625)"/>
  <ns0:path d="M0 0 C5.923 0.427 11.124 2.94 16.523 5.227 C18.052 5.865 18.052 5.865 19.611 6.517 C22.868 7.88 26.122 9.253 29.375 10.625 C31.525 11.525 33.674 12.425 35.824 13.324 C40.964 15.476 46.096 17.648 51.224 19.827 C53.787 20.91 56.357 21.975 58.931 23.034 C60.363 23.634 61.795 24.235 63.227 24.836 C64.431 25.334 65.636 25.832 66.877 26.345 C70.808 28.428 74.08 30.748 75.806 34.974 C76.045 37.47 76.112 39.913 76.098 42.422 C76.093 43.959 76.093 43.959 76.088 45.527 C76.075 47.123 76.075 47.123 76.062 48.75 C76.058 49.829 76.053 50.908 76.049 52.02 C76.037 54.68 76.021 57.34 76 60 C71.908 61.364 69.549 59.802 65.809 58.125 C64.72 57.651 64.72 57.651 63.61 57.167 C61.215 56.121 58.826 55.061 56.438 54 C54.782 53.272 53.127 52.546 51.471 51.82 C48.039 50.313 44.609 48.8 41.18 47.284 C36.964 45.421 32.74 43.58 28.51 41.748 C25.376 40.39 22.245 39.027 19.114 37.662 C17.626 37.014 16.137 36.369 14.647 35.725 C12.572 34.828 10.5 33.921 8.43 33.012 C7.256 32.501 6.083 31.99 4.875 31.464 C2.312 30.159 0.701 29.285 -1 27 C-2.757 18.51 -1.862 9.577 -1 1 C-0.67 0.67 -0.34 0.34 0 0 Z " fill="#252435" transform="translate(275,284)"/>
  <ns0:path d="M0 0 C11.923 9.631 25.483 22.889 29.438 38.125 C28.751 44.208 25.349 47.863 21 52 C16.657 55.058 12.21 55.588 7 55 C-10.313 51.305 -24.385 40.043 -34.309 25.629 C-38.335 19.371 -41.411 13.663 -41 6 C-40.25 3.419 -39.273 1.392 -38 -1 C-38.482 -0.578 -38.964 -0.157 -39.461 0.277 C-40.408 1.099 -40.408 1.099 -41.375 1.938 C-42.001 2.483 -42.628 3.028 -43.273 3.59 C-45 5 -45 5 -47 6 C-47.444 -2.725 -47.444 -2.725 -44 -7 C-31.693 -18.66 -11.568 -7.994 0 0 Z M-24 16 C-24.623 21.108 -23.28 25.123 -20.312 29.25 C-15.455 35.095 -9.626 40.539 -1.938 41.875 C1.83 42.245 1.83 42.245 4.5 41.062 C6.366 38.497 6.683 36.396 6.504 33.246 C4.841 25.832 -0.903 20.67 -6.828 16.375 C-12.049 13.07 -19.542 10.341 -24 16 Z " fill="#282E36" transform="translate(161,286)"/>
  <ns0:path d="M0 0 C8.82 2.258 17.104 5.788 25.476 9.305 C27.86 10.306 30.248 11.297 32.637 12.287 C58.095 22.888 58.095 22.888 62 29 C62.454 31.679 62.454 31.679 62.391 34.52 C62.378 35.541 62.365 36.563 62.352 37.615 C62.318 38.67 62.285 39.725 62.25 40.812 C62.232 41.887 62.214 42.961 62.195 44.068 C62.148 46.713 62.083 49.356 62 52 C59.242 53.104 58.05 53.016 55.173 52.095 C54.09 51.615 53.007 51.135 51.891 50.641 C51.295 50.38 50.699 50.12 50.085 49.852 C48.135 48.996 46.192 48.123 44.25 47.25 C42.906 46.654 41.561 46.059 40.216 45.465 C36.797 43.951 33.386 42.422 29.976 40.888 C28.083 40.037 26.187 39.192 24.29 38.349 C20.96 36.867 17.635 35.374 14.312 33.875 C12.81 33.203 12.81 33.203 11.276 32.517 C10.356 32.096 9.436 31.675 8.488 31.242 C7.29 30.699 7.29 30.699 6.068 30.144 C3.887 28.938 2.517 27.978 1 26 C-0.383 21.041 -0.378 15.867 -0.625 10.75 C-0.702 9.366 -0.702 9.366 -0.781 7.953 C-0.825 7.077 -0.869 6.2 -0.914 5.297 C-0.955 4.496 -0.996 3.695 -1.038 2.87 C-1 1 -1 1 0 0 Z " fill="#242233" transform="translate(185,246)"/>
  <ns0:path d="M0 0 C2.908 4.959 2.368 10.024 2.375 15.625 C2.399 16.668 2.424 17.711 2.449 18.785 C2.495 30.876 -2.616 39.53 -8.5 49.812 C-9.117 50.901 -9.733 51.99 -10.368 53.112 C-12.239 56.412 -14.119 59.706 -16 63 C-17.067 64.876 -18.133 66.752 -19.199 68.629 C-21.633 72.907 -24.082 77.175 -26.536 81.442 C-28.075 84.131 -29.599 86.829 -31.121 89.527 C-32.122 91.289 -33.124 93.051 -34.125 94.812 C-34.818 96.051 -34.818 96.051 -35.524 97.314 C-36.166 98.437 -36.166 98.437 -36.82 99.582 C-37.381 100.576 -37.381 100.576 -37.954 101.589 C-38.472 102.288 -38.472 102.288 -39 103 C-39.66 103 -40.32 103 -41 103 C-42.316 97.215 -42.223 91.533 -42.25 85.625 C-42.271 84.514 -42.291 83.403 -42.312 82.258 C-42.367 70.731 -37.568 63.257 -31.875 53.5 C-31.194 52.327 -30.512 51.153 -29.832 49.979 C-24.966 41.605 -20.021 33.282 -15 25 C-13.435 22.397 -11.874 19.792 -10.312 17.188 C-9.57 15.95 -8.828 14.713 -8.086 13.477 C-7.735 12.892 -7.384 12.307 -7.022 11.704 C-4.682 7.803 -2.341 3.901 0 0 Z " fill="#212331" transform="translate(426,235)"/>
  <ns0:path d="M0 0 C0.33 0 0.66 0 1 0 C0.912 2.001 0.803 4.001 0.688 6 C0.6 7.671 0.6 7.671 0.512 9.375 C-0.594 17.206 -4.3 23.678 -8.125 30.5 C-12.89 39.116 -17.566 47.773 -22.176 56.473 C-23.251 58.502 -24.328 60.531 -25.405 62.559 C-28.759 68.876 -32.105 75.196 -35.437 81.525 C-36.913 84.327 -38.394 87.127 -39.876 89.927 C-40.58 91.261 -41.283 92.597 -41.983 93.933 C-42.951 95.78 -43.926 97.623 -44.902 99.465 C-45.73 101.037 -45.73 101.037 -46.574 102.64 C-48 105 -48 105 -50 106 C-50.288 90.084 -43.719 78.681 -35.853 65.198 C-33.117 60.476 -30.53 55.677 -27.938 50.875 C-26.962 49.088 -25.985 47.302 -25.008 45.516 C-22.321 40.596 -19.655 35.665 -16.991 30.733 C-11.427 20.431 -5.791 10.176 0 0 Z " fill="#F6F7F8" transform="translate(431,289)"/>
  <ns0:path d="M0 0 C8.892 -0.078 16.282 2.632 22.965 8.605 C26.78 12.777 29.269 16.504 30.098 22.164 C29.578 25.541 28.451 26.591 25.723 28.602 C20.119 30.603 14.997 28.852 9.723 26.602 C3.611 22.987 -2.903 17.509 -5.277 10.602 C-5.619 7.319 -5.7 5.352 -4.066 2.453 C-2.277 0.602 -2.277 0.602 0 0 Z " fill="#8A8D8F" transform="translate(290.27734375,369.3984375)"/>
  <ns0:path d="M0 0 C12.942 8.2 24.315 19.781 29.332 34.461 C29.909 37.185 30.174 39.672 30.332 42.461 C28.352 41.966 28.352 41.966 26.332 41.461 C26.25 40.883 26.167 40.306 26.082 39.711 C25.496 37.352 25.496 37.352 23.582 35.836 C21.335 33.464 20.379 31.644 19.02 28.711 C11.846 13.999 -2.823 4.321 -17.668 -1.539 C-18.545 -1.906 -19.421 -2.274 -20.324 -2.652 C-25.887 -4.757 -31.975 -4.673 -37.855 -4.852 C-39.025 -4.889 -40.194 -4.926 -41.398 -4.965 C-45.315 -4.455 -46.884 -3.278 -49.668 -0.539 C-50.98 1.578 -50.98 1.578 -51.668 3.461 C-53.334 3.504 -55.002 3.502 -56.668 3.461 C-56.998 3.131 -57.328 2.801 -57.668 2.461 C-57.437 -3.429 -55.921 -6.475 -51.668 -10.539 C-33.974 -17.981 -15.248 -8.796 0 0 Z " fill="#010102" transform="translate(317.66796875,356.5390625)"/>
  <ns0:path d="M0 0 C6.899 3.473 12.727 8.851 15.727 16.09 C16.201 18.961 16.009 21.121 15.727 24.09 C14.227 26.152 14.227 26.152 11.727 27.09 C4.653 27.21 0.092 24.552 -5.273 20.09 C-10.258 15.238 -13.802 11.015 -14.648 3.965 C-14.273 1.09 -14.273 1.09 -12.773 -0.848 C-8.278 -2.758 -4.357 -1.744 0 0 Z " fill="#888C90" transform="translate(151.2734375,300.91015625)"/>
  <ns0:path d="M0 0 C0.103 0.887 0.206 1.774 0.312 2.688 C2.976 7.915 7.743 8.921 13 11 C16.827 12.7 16.827 12.7 18.188 15.062 C19.265 18.958 20.096 22.942 20 27 C18 29 18 29 15.125 29.5 C8.824 29.367 1.386 25.386 -3 21 C-3.887 18.391 -3.887 18.391 -4.688 15.25 C-4.959 14.224 -5.231 13.198 -5.512 12.141 C-6.037 8.762 -5.815 6.307 -5 3 C-2.7 0 -2.7 0 0 0 Z " fill="#8D8F92" transform="translate(86,264)"/>
  <ns0:path d="M0 0 C11.548 9.329 21.531 20.522 28 34 C28 34.99 28 35.98 28 37 C24.78 35.637 23.217 34.311 21.301 31.402 C20.818 30.687 20.336 29.972 19.839 29.235 C19.335 28.477 18.831 27.719 18.312 26.938 C9.418 13.775 9.418 13.775 -4 6 C-4 5.34 -4 4.68 -4 4 C-4.545 3.818 -5.091 3.636 -5.652 3.449 C-6.406 3.198 -7.161 2.946 -7.938 2.688 C-8.762 2.417 -9.588 2.146 -10.438 1.867 C-12.053 1.321 -13.659 0.746 -15.25 0.133 C-22.187 -2.468 -28.649 -3.387 -35.625 -0.5 C-36.801 0.243 -36.801 0.243 -38 1 C-38.33 0.34 -38.66 -0.32 -39 -1 C-39.578 -0.216 -40.155 0.567 -40.75 1.375 C-42.829 3.8 -44.09 4.857 -47 6 C-47.444 -2.725 -47.444 -2.725 -44 -7 C-31.693 -18.66 -11.568 -7.994 0 0 Z " fill="#030305" transform="translate(161,286)"/>
  <ns0:path d="M0 0 C3.153 2.059 4.655 3.426 5.473 7.156 C5.744 11.335 5.356 13.465 3 17 C-0.694 19.462 -3.558 20.452 -8 20 C-11.216 18.392 -13.25 17.023 -15.375 14.125 C-16.562 10.088 -16.496 7.092 -14.75 3.25 C-10.752 -1.891 -5.884 -1.581 0 0 Z " fill="#808183" transform="translate(105,199)"/>
  <ns0:path d="M0 0 C0.33 0 0.66 0 1 0 C0.236 18.764 0.236 18.764 -5 24 C-10.661 24.809 -14.176 22.662 -19 20 C-18.01 14.72 -17.02 9.44 -16 4 C-11.904 4.819 -8.001 5.823 -4 7 C-2.68 4.69 -1.36 2.38 0 0 Z " fill="#F8A806" transform="translate(382,379)"/>
  <ns0:path d="M0 0 C6.499 1.5 12.537 3.939 18.562 6.75 C19.277 7.061 19.992 7.371 20.729 7.691 C22.754 8.672 22.754 8.672 26 11 C27.027 14.703 27.027 14.703 27 18 C26.67 18.33 26.34 18.66 26 19 C20.419 18.578 15.892 16.962 10.812 14.688 C9.765 14.244 9.765 14.244 8.697 13.791 C4.784 12.067 1.687 10.455 -1 7 C-1.312 3.812 -1.312 3.812 -1 1 C-0.67 0.67 -0.34 0.34 0 0 Z " fill="#00A5DA" transform="translate(217,296)"/>
  <ns0:path d="M0 0 C5.836 0.367 10.176 2.248 15.312 4.938 C16.027 5.298 16.742 5.658 17.479 6.029 C20.308 7.478 22.738 8.738 25 11 C25.125 14.625 25.125 14.625 25 18 C19.935 19.761 16.607 17.983 12 15.875 C11.301 15.579 10.603 15.282 9.883 14.977 C5.418 12.988 2.163 10.846 -1 7 C-1.375 3.75 -1.375 3.75 -1 1 C-0.67 0.67 -0.34 0.34 0 0 Z " fill="#00A8EA" transform="translate(327,346)"/>
  <ns0:path d="M0 0 C2.753 1.796 4.526 3.053 6 6 C6.38 10.024 6.383 12.322 4.375 15.875 C1.462 18.482 -0.104 19 -4 19 C-7.634 17.394 -10.096 15.508 -12 12 C-12.591 7.369 -11.772 4.732 -9 1 C-5.9 -0.55 -3.421 -0.29 0 0 Z " fill="#7C7D7F" transform="translate(176,133)"/>
  <ns0:path d="M0 0 C4.389 0.51 7.337 1.522 11 4 C10.885 5.73 10.757 7.459 10.625 9.188 C10.555 10.15 10.486 11.113 10.414 12.105 C10 15 10 15 8 20 C3.05 18.02 3.05 18.02 -2 16 C-2.207 10.211 -1.592 5.571 0 0 Z " fill="#F5F6F6" transform="translate(355,378)"/>
  <ns0:path d="M0 0 C1.461 0.451 2.918 0.911 4.375 1.375 C5.187 1.63 5.999 1.885 6.836 2.148 C9 3 9 3 11 5 C11.624 7.549 12.159 10.047 12.625 12.625 C12.759 13.331 12.893 14.038 13.031 14.766 C13.361 16.509 13.681 18.254 14 20 C9.808 19.203 6.535 18.514 3 16 C1.815 13.067 1.398 10.126 1 7 C0.89 6.292 0.781 5.585 0.668 4.855 C0.421 3.24 0.207 1.621 0 0 Z " fill="#E99C07" transform="translate(84,254)"/>
  <ns0:path d="M0 0 C1.589 6 2.598 11.774 2 18 C1 19 1 19 -1.438 19.188 C-4 19 -4 19 -6 17 C-7.587 11.798 -8.226 7.418 -8 2 C-5.094 0.743 -3.204 0 0 0 Z " fill="#252D34" transform="translate(108,217)"/>
  <ns0:path d="M0 0 C1.454 0.031 1.454 0.031 2.938 0.062 C4.083 6.362 4.28 12.668 3.938 19.062 C2.938 20.062 2.938 20.062 0.375 20.125 C-0.429 20.104 -1.234 20.084 -2.062 20.062 C-4.345 13.785 -4.513 7.71 -4.062 1.062 C-3.062 0.062 -3.062 0.062 0 0 Z " fill="#24303B" transform="translate(174.0625,151.9375)"/>
  <ns0:path d="M0 0 C3.375 0.562 3.375 0.562 7 2 C9.249 7.01 9.531 12.561 10 18 C5.25 17.125 5.25 17.125 3 16 C2.148 13.418 2.148 13.418 1.375 10.188 C0.984 8.6 0.984 8.6 0.586 6.98 C0 4 0 4 0 0 Z " fill="#E2E8EC" transform="translate(95,259)"/>
  <ns0:path d="M0 0 C4.133 0.472 7.358 2.052 11 4 C9.125 9.875 9.125 9.875 8 11 C4.503 10.611 1.342 10.114 -2 9 C-1.125 1.125 -1.125 1.125 0 0 Z " fill="#4C535B" transform="translate(351,278)"/>
  <ns0:path d="M0 0 C4.389 0.51 7.337 1.522 11 4 C10.436 7.27 9.5 8.826 7 11 C4.69 10.34 2.38 9.68 0 9 C0 6.03 0 3.06 0 0 Z " fill="#404653" transform="translate(193,215)"/>
  <ns0:path d="M0 0 C3.469 0.458 6.674 0.891 10 2 C9.52 7.518 9.52 7.518 7.312 9.562 C3.868 10.214 1.931 8.732 -1 7 C-0.67 4.69 -0.34 2.38 0 0 Z " fill="#464D57" transform="translate(403,199)"/>
  <ns0:path d="M0 0 C2.97 0.99 5.94 1.98 9 3 C8 7 8 7 6 9 C2.438 8.75 2.438 8.75 -1 8 C-2 6 -2 6 -1.062 2.875 C-0.537 1.452 -0.537 1.452 0 0 Z " fill="#3D434D" transform="translate(258,148)"/>
  <ns0:path d="M0 0 C0.66 0.33 1.32 0.66 2 1 C2 3.31 2 5.62 2 8 C4.475 8.99 4.475 8.99 7 10 C6.67 10.66 6.34 11.32 6 12 C2.347 10.75 1.219 10.329 -1 7 C-1.188 3.875 -1.188 3.875 -1 1 C-0.67 0.67 -0.34 0.34 0 0 Z " fill="#0098DD" transform="translate(327,346)"/>
  <ns0:path d="M0 0 C1.454 0.031 1.454 0.031 2.938 0.062 C2.607 1.713 2.278 3.363 1.938 5.062 C0.287 5.062 -1.363 5.062 -3.062 5.062 C-3.625 3.125 -3.625 3.125 -4.062 1.062 C-3.062 0.062 -3.062 0.062 0 0 Z " fill="#131619" transform="translate(174.0625,151.9375)"/>
  <ns0:path d="M0 0 C4 1 4 1 4 1 Z " fill="#011939" transform="translate(123,274)"/>
  <ns0:path d="M0 0 C3 1 3 1 3 1 Z " fill="#013067" transform="translate(142,276)"/>
  <ns0:path d="M0 0 C2 1 2 1 2 1 Z " fill="#175CB0" transform="translate(95,218)"/>
  <ns0:path d="M0 0 C2 1 2 1 2 1 Z " fill="#346896" transform="translate(376,386)"/>
</svg>