<?xml version="1.0" ?>
<svg xmlns:ns0="http://www.w3.org/2000/svg" xmlns="http://www.w3.org/2000/svg" width="512" height="512" viewBox="0 0 512 512" style="background-color: transparent;">
  <ns0:path d="M0 0 C2.812 2.25 2.812 2.25 5 5 C5.672 5.739 6.343 6.477 7.035 7.238 C9.354 10.497 9.919 13.018 10.625 16.938 C11.267 20.41 11.876 23.657 13.078 26.98 C14.175 30.573 14.196 33.627 14.125 37.375 C14.107 38.62 14.089 39.865 14.07 41.148 C14.047 42.089 14.024 43.03 14 44 C15.039 43.457 16.078 42.915 17.148 42.355 C24.588 38.52 31.774 34.84 40 33 C40.735 32.818 41.47 32.636 42.227 32.449 C54.116 30.523 67.211 30.813 77.375 37.75 C81.06 40.742 83.046 43.686 85 48 C85 48.99 85 49.98 85 51 C87.315 50.552 89.627 50.091 91.938 49.625 C93.225 49.37 94.513 49.115 95.84 48.852 C96.883 48.571 97.926 48.29 99 48 C99.33 47.34 99.66 46.68 100 46 C100.467 46.783 100.467 46.783 100.943 47.582 C108.781 60.725 108.781 60.725 116.812 73.75 C117.207 74.38 117.602 75.01 118.009 75.659 C119.884 78.645 121.764 81.628 123.651 84.606 C131.617 97.183 139.325 109.86 146.69 122.799 C150.684 129.796 154.809 136.677 159.296 143.371 C160.272 144.868 161.148 146.429 162 148 C161.67 148.99 161.34 149.98 161 151 C159.34 151.363 157.671 151.687 156 152 C155.058 152.195 155.058 152.195 154.098 152.395 C149.098 153.268 146.331 152.978 142 150 C137.488 146.073 133.964 142.751 132 137 C125.29 138.161 119.942 139.794 114.312 143.688 C106.334 148.908 97.61 151.231 88.547 153.98 C82.228 155.898 76.014 158.047 69.812 160.312 C68.911 160.638 68.009 160.963 67.08 161.299 C62.561 162.957 58.251 164.739 54 167 C54.115 168.896 54.242 170.792 54.375 172.688 C54.479 174.271 54.479 174.271 54.586 175.887 C54.989 178.919 55.826 181.198 57 184 C57 184.99 57 185.98 57 187 C56.153 187.254 55.306 187.507 54.434 187.769 C45.656 190.451 36.973 193.36 28.309 196.391 C27.185 196.783 26.062 197.176 24.905 197.58 C20.224 199.219 15.544 200.86 10.866 202.509 C7.411 203.725 3.954 204.933 0.496 206.141 C-0.555 206.514 -1.606 206.886 -2.689 207.271 C-7.816 209.055 -12.587 210.496 -18 211 C-19.339 209.213 -20.671 207.42 -22 205.625 C-22.743 204.627 -23.485 203.63 -24.25 202.602 C-26 200 -26 200 -26 198 C-27.794 198.217 -27.794 198.217 -29.625 198.438 C-30.634 198.559 -30.634 198.559 -31.664 198.684 C-34.454 199.061 -37.225 199.527 -40 200 C-39.896 201.593 -39.896 201.593 -39.789 203.219 C-39.195 216.069 -39.195 216.069 -42.562 220.5 C-43.68 221.694 -44.827 222.861 -46 224 C-47.215 225.411 -48.423 226.828 -49.625 228.25 C-50.749 229.501 -51.874 230.751 -53 232 C-53.619 232.743 -54.238 233.485 -54.875 234.25 C-58.203 236.991 -62.017 238.421 -66 240 C-67.485 240.619 -67.485 240.619 -69 241.25 C-75.814 242.953 -81.077 242.496 -87.273 239.168 C-89.131 237.911 -90.574 236.736 -92 235 C-92.551 229.953 -91.999 227.912 -89 224 C-89.222 221.302 -89.222 221.302 -90 219 C-91.98 219.33 -93.96 219.66 -96 220 C-98.173 227.38 -97.132 235.502 -96 243 C-102.104 242.693 -105.104 240.728 -109.25 236.5 C-110.387 235.395 -111.526 234.292 -112.668 233.191 C-113.51 232.374 -113.51 232.374 -114.369 231.54 C-116.664 229.373 -119.096 227.405 -121.562 225.438 C-125.515 222.265 -129.291 218.952 -133 215.5 C-137.631 211.191 -142.418 207.151 -147.348 203.184 C-149.993 201.006 -152.532 198.747 -155.062 196.438 C-158.212 193.57 -161.407 190.827 -164.75 188.188 C-169.074 184.772 -173.303 181.258 -177.5 177.688 C-178.418 176.913 -178.418 176.913 -179.354 176.124 C-181.99 173.871 -184.065 171.902 -186 169 C-185.793 166.258 -185.793 166.258 -185.188 163.125 C-184.995 162.096 -184.803 161.068 -184.605 160.008 C-184.306 158.519 -184.306 158.519 -184 157 C-183.955 156.111 -183.91 155.221 -183.863 154.305 C-183.578 153.544 -183.294 152.784 -183 152 C-181.237 151.354 -179.475 150.709 -177.71 150.068 C-174.789 148.244 -174.418 145.543 -173.607 142.338 C-173.428 141.505 -173.248 140.671 -173.062 139.812 C-172.856 138.968 -172.649 138.123 -172.436 137.252 C-171.931 135.174 -171.462 133.088 -171 131 C-175.62 132.98 -180.24 134.96 -185 137 C-186.259 133.222 -185.543 132.175 -184.078 128.531 C-183.635 127.415 -183.192 126.299 -182.735 125.15 C-182.245 123.945 -181.755 122.741 -181.25 121.5 C-180.746 120.249 -180.244 118.998 -179.741 117.747 C-178.694 115.142 -177.641 112.54 -176.586 109.939 C-175.043 106.125 -173.551 102.293 -172.062 98.457 C-171.126 96.075 -170.188 93.694 -169.25 91.312 C-168.828 90.21 -168.405 89.108 -167.97 87.973 C-161.378 71.465 -150.537 64.283 -134.812 57 C-133.791 56.518 -132.769 56.036 -131.717 55.539 C-128.483 54.016 -125.242 52.507 -122 51 C-119.581 49.873 -117.161 48.745 -114.742 47.617 C-114.116 47.325 -113.491 47.034 -112.846 46.733 C-106.067 43.569 -99.303 40.375 -92.54 37.178 C-90.236 36.089 -87.931 35 -85.626 33.912 C-78.348 30.474 -71.07 27.034 -63.796 23.588 C-34.894 9.895 -34.894 9.895 -22 4 C-20.683 3.395 -20.683 3.395 -19.34 2.778 C-18.547 2.418 -17.754 2.058 -16.938 1.688 C-15.93 1.229 -15.93 1.229 -14.902 0.762 C-9.831 -1.269 -5.287 -1.383 0 0 Z M-29.234 17.465 C-29.826 17.733 -30.417 18.002 -31.026 18.278 C-32.941 19.151 -34.845 20.043 -36.75 20.938 C-38.061 21.543 -39.373 22.148 -40.685 22.752 C-43.276 23.947 -45.862 25.149 -48.447 26.355 C-51.467 27.753 -54.499 29.11 -57.551 30.438 C-59.055 31.104 -60.559 31.771 -62.062 32.438 C-62.727 32.718 -63.391 32.998 -64.075 33.287 C-69.16 35.598 -71.709 38.729 -73.746 43.891 C-74.141 47.175 -74.103 50.449 -74.062 53.75 C-74.058 54.447 -74.053 55.145 -74.049 55.863 C-74.037 57.576 -74.019 59.288 -74 61 C-71.041 62.293 -69.878 61.957 -66.771 60.864 C-65.492 60.287 -64.22 59.698 -62.953 59.098 C-62.264 58.782 -61.575 58.467 -60.866 58.142 C-58.655 57.126 -56.453 56.094 -54.25 55.062 C-52.814 54.402 -51.378 53.742 -49.941 53.084 C-42.619 49.713 -35.344 46.239 -28.109 42.684 C-27.438 42.358 -26.767 42.033 -26.075 41.698 C-21.488 39.527 -21.488 39.527 -18 36 C-17.588 33.78 -17.588 33.78 -17.707 31.332 C-17.717 30.439 -17.726 29.547 -17.736 28.627 C-17.761 27.698 -17.787 26.769 -17.812 25.812 C-17.826 24.872 -17.84 23.932 -17.854 22.963 C-17.889 20.641 -17.938 18.321 -18 16 C-22.558 14.587 -24.969 15.495 -29.234 17.465 Z M25 47 C24.18 47.385 23.36 47.771 22.516 48.168 C11.12 54.22 0.464 65.339 -5 77 C-5.396 77.82 -5.791 78.64 -6.199 79.484 C-9.235 86.344 -11.352 93.684 -9 101.062 C-6.829 105.964 -3.393 109.902 0 114 C0.656 114.852 1.312 115.704 1.988 116.582 C9.601 126.441 15.493 131.405 28 134 C42.687 135.783 55.668 130.002 67.125 121.25 C75.009 114.67 81.713 107.393 86 98 C86.392 97.17 86.784 96.34 87.188 95.484 C90.78 86.951 92.022 77.102 88.5 68.312 C84.603 60.893 79.324 53.514 73 48 C72.526 47.572 72.051 47.144 71.562 46.703 C58.017 35.632 39.28 40.074 25 47 Z M-107.844 53.508 C-108.609 53.871 -109.374 54.234 -110.162 54.608 C-112.611 55.773 -115.056 56.949 -117.5 58.125 C-119.114 58.894 -120.729 59.662 -122.344 60.43 C-125.474 61.919 -128.596 63.423 -131.713 64.938 C-134.359 66.222 -137.016 67.464 -139.707 68.652 C-146.021 71.342 -146.021 71.342 -150.379 76.367 C-150.769 77.525 -151.16 78.682 -151.562 79.875 C-151.999 81.098 -152.436 82.322 -152.887 83.582 C-153.254 84.71 -153.621 85.838 -154 87 C-154.618 88.524 -155.242 90.045 -155.875 91.562 C-156.885 94.648 -157.3 96.795 -157 100 C-152.417 99.346 -148.501 97.559 -144.348 95.613 C-143.611 95.274 -142.874 94.934 -142.116 94.585 C-139.762 93.499 -137.412 92.406 -135.062 91.312 C-132.752 90.242 -130.441 89.172 -128.13 88.105 C-126.612 87.404 -125.095 86.701 -123.579 85.995 C-120.044 84.359 -116.504 82.774 -112.89 81.318 C-112.252 81.058 -111.613 80.798 -110.955 80.531 C-109.248 79.844 -107.533 79.175 -105.818 78.509 C-101.366 76.125 -99.441 73.277 -97.812 68.562 C-96.489 62.482 -96.331 56.197 -96 50 C-100.677 50 -103.739 51.52 -107.844 53.508 Z M-62.125 62.312 C-63.504 62.919 -63.504 62.919 -64.91 63.537 C-66.227 64.132 -66.227 64.132 -67.57 64.738 C-68.773 65.28 -68.773 65.28 -70 65.833 C-72.305 66.982 -72.305 66.982 -74 70 C-74.167 73.125 -74.167 73.125 -74 76 C-68.358 75.461 -63.884 73.914 -58.75 71.562 C-58.044 71.25 -57.337 70.937 -56.609 70.615 C-53.563 69.251 -50.783 67.855 -48 66 C-46.984 62.699 -46.891 61.328 -48 58 C-53.429 58 -57.245 60.086 -62.125 62.312 Z M-151.75 104.312 C-152.797 104.742 -153.843 105.171 -154.922 105.613 C-160.261 107.912 -160.261 107.912 -164.312 111.875 C-165.113 114.348 -165.144 116.416 -165 119 C-158.227 118.558 -151.096 116.46 -146.438 111.254 C-144.813 108.632 -143.932 106.663 -144.25 103.562 C-144.498 103.047 -144.745 102.531 -145 102 C-147.262 102 -149.716 103.472 -151.75 104.312 Z M-132 108 C-133.444 108.712 -133.444 108.712 -134.918 109.438 C-150.014 117.562 -161.322 130.423 -170 145 C-170.574 145.946 -171.147 146.892 -171.738 147.867 C-174.927 153.362 -176.759 157.626 -177 164 C-176.357 164.224 -175.714 164.449 -175.051 164.68 C-173 166 -173 166 -172.418 168.32 C-172.342 169.246 -172.266 170.171 -172.188 171.125 C-171.184 177.62 -168.704 180.591 -164 185 C-163.083 185.911 -162.167 186.823 -161.223 187.762 C-154.279 194.541 -147.198 201.02 -137.062 201.562 C-123.18 200.738 -110.351 191.78 -101 182 C-91.239 170.245 -85.36 158.528 -85.539 143.137 C-86.252 138.282 -88.578 135.378 -92 132 C-95.195 128.805 -94.396 124.358 -94.479 120.029 C-94.65 115.517 -95.247 112.607 -98 109 C-104.621 103.186 -110.553 103.441 -118.994 103.825 C-123.75 104.24 -127.765 105.892 -132 108 Z " fill="#000001" transform="translate(266,143)"/>
  <ns0:path d="M0 0 C2.812 2.25 2.812 2.25 5 5 C5.672 5.739 6.343 6.477 7.035 7.238 C9.354 10.497 9.919 13.018 10.625 16.938 C11.263 20.387 11.873 23.638 13.039 26.949 C15.014 33.22 15.211 39.577 14 46 C11.133 49.585 7.889 51.646 4 54 C3.67 54.66 3.34 55.32 3 56 C2.34 56 1.68 56 1 56 C1 56.66 1 57.32 1 58 C-0.18 59.17 -1.363 60.337 -2.561 61.488 C-5.156 64.214 -7.132 67.359 -9.188 70.5 C-9.625 71.151 -10.063 71.802 -10.514 72.473 C-14.209 78.057 -16.178 82.528 -16.625 89.312 C-16.7 90.381 -16.775 91.45 -16.852 92.551 C-16.925 93.763 -16.925 93.763 -17 95 C-17.534 95.221 -18.067 95.443 -18.617 95.671 C-21.079 96.694 -23.54 97.722 -26 98.75 C-26.839 99.098 -27.678 99.446 -28.543 99.805 C-32.311 101.382 -36.016 102.975 -39.625 104.891 C-43.437 106.842 -47.399 108.316 -51.414 109.789 C-60.202 113.014 -68.783 116.664 -77.375 120.375 C-80.298 121.637 -83.222 122.894 -86.148 124.148 C-86.81 124.436 -87.471 124.723 -88.152 125.019 C-92.774 127 -92.774 127 -95 127 C-95.056 125.679 -95.056 125.679 -95.113 124.332 C-95.179 123.171 -95.245 122.009 -95.312 120.812 C-95.371 119.664 -95.429 118.515 -95.488 117.332 C-96.259 112.316 -97.845 109.973 -101.707 106.719 C-108.353 103.25 -116.853 104.107 -124.066 105.66 C-126.84 106.593 -129.38 107.696 -132 109 C-132.963 109.474 -133.926 109.949 -134.918 110.438 C-153.275 120.317 -166.394 137.292 -175 156 C-175.367 157.324 -175.711 158.656 -176 160 C-176.66 160 -177.32 160 -178 160 C-178.33 161.65 -178.66 163.3 -179 165 C-180.454 165.433 -180.454 165.433 -181.938 165.875 C-185.107 166.642 -185.107 166.642 -186 169 C-185.689 167.104 -185.376 165.208 -185.062 163.312 C-184.888 162.257 -184.714 161.201 -184.535 160.113 C-184.359 159.086 -184.182 158.059 -184 157 C-183.957 156.107 -183.915 155.213 -183.871 154.293 C-183.44 153.158 -183.44 153.158 -183 152 C-181.237 151.354 -179.475 150.709 -177.71 150.068 C-174.789 148.244 -174.418 145.543 -173.607 142.338 C-173.428 141.505 -173.248 140.671 -173.062 139.812 C-172.856 138.968 -172.649 138.123 -172.436 137.252 C-171.931 135.174 -171.462 133.088 -171 131 C-175.62 132.98 -180.24 134.96 -185 137 C-186.259 133.222 -185.543 132.175 -184.078 128.531 C-183.635 127.415 -183.192 126.299 -182.735 125.15 C-182.245 123.945 -181.755 122.741 -181.25 121.5 C-180.746 120.249 -180.244 118.998 -179.741 117.747 C-178.694 115.142 -177.641 112.54 -176.586 109.939 C-175.043 106.125 -173.551 102.293 -172.062 98.457 C-171.126 96.075 -170.188 93.694 -169.25 91.312 C-168.828 90.21 -168.405 89.108 -167.97 87.973 C-161.378 71.465 -150.537 64.283 -134.812 57 C-133.791 56.518 -132.769 56.036 -131.717 55.539 C-128.483 54.016 -125.242 52.507 -122 51 C-119.581 49.873 -117.161 48.745 -114.742 47.617 C-114.116 47.325 -113.491 47.034 -112.846 46.733 C-106.067 43.569 -99.303 40.375 -92.54 37.178 C-90.236 36.089 -87.931 35 -85.626 33.912 C-78.348 30.474 -71.07 27.034 -63.796 23.588 C-34.894 9.895 -34.894 9.895 -22 4 C-20.683 3.395 -20.683 3.395 -19.34 2.778 C-18.547 2.418 -17.754 2.058 -16.938 1.688 C-15.93 1.229 -15.93 1.229 -14.902 0.762 C-9.831 -1.269 -5.287 -1.383 0 0 Z M-29.234 17.465 C-29.826 17.733 -30.417 18.002 -31.026 18.278 C-32.941 19.151 -34.845 20.043 -36.75 20.938 C-38.061 21.543 -39.373 22.148 -40.685 22.752 C-43.276 23.947 -45.862 25.149 -48.447 26.355 C-51.467 27.753 -54.499 29.11 -57.551 30.438 C-59.055 31.104 -60.559 31.771 -62.062 32.438 C-62.727 32.718 -63.391 32.998 -64.075 33.287 C-69.16 35.598 -71.709 38.729 -73.746 43.891 C-74.141 47.175 -74.103 50.449 -74.062 53.75 C-74.058 54.447 -74.053 55.145 -74.049 55.863 C-74.037 57.576 -74.019 59.288 -74 61 C-71.041 62.293 -69.878 61.957 -66.771 60.864 C-65.492 60.287 -64.22 59.698 -62.953 59.098 C-62.264 58.782 -61.575 58.467 -60.866 58.142 C-58.655 57.126 -56.453 56.094 -54.25 55.062 C-52.814 54.402 -51.378 53.742 -49.941 53.084 C-42.619 49.713 -35.344 46.239 -28.109 42.684 C-27.438 42.358 -26.767 42.033 -26.075 41.698 C-21.488 39.527 -21.488 39.527 -18 36 C-17.588 33.78 -17.588 33.78 -17.707 31.332 C-17.717 30.439 -17.726 29.547 -17.736 28.627 C-17.761 27.698 -17.787 26.769 -17.812 25.812 C-17.826 24.872 -17.84 23.932 -17.854 22.963 C-17.889 20.641 -17.938 18.321 -18 16 C-22.558 14.587 -24.969 15.495 -29.234 17.465 Z M-107.844 53.508 C-108.609 53.871 -109.374 54.234 -110.162 54.608 C-112.611 55.773 -115.056 56.949 -117.5 58.125 C-119.114 58.894 -120.729 59.662 -122.344 60.43 C-125.474 61.919 -128.596 63.423 -131.713 64.938 C-134.359 66.222 -137.016 67.464 -139.707 68.652 C-146.021 71.342 -146.021 71.342 -150.379 76.367 C-150.769 77.525 -151.16 78.682 -151.562 79.875 C-151.999 81.098 -152.436 82.322 -152.887 83.582 C-153.254 84.71 -153.621 85.838 -154 87 C-154.618 88.524 -155.242 90.045 -155.875 91.562 C-156.885 94.648 -157.3 96.795 -157 100 C-152.417 99.346 -148.501 97.559 -144.348 95.613 C-143.611 95.274 -142.874 94.934 -142.116 94.585 C-139.762 93.499 -137.412 92.406 -135.062 91.312 C-132.752 90.242 -130.441 89.172 -128.13 88.105 C-126.612 87.404 -125.095 86.701 -123.579 85.995 C-120.044 84.359 -116.504 82.774 -112.89 81.318 C-112.252 81.058 -111.613 80.798 -110.955 80.531 C-109.248 79.844 -107.533 79.175 -105.818 78.509 C-101.366 76.125 -99.441 73.277 -97.812 68.562 C-96.489 62.482 -96.331 56.197 -96 50 C-100.677 50 -103.739 51.52 -107.844 53.508 Z M-62.125 62.312 C-63.504 62.919 -63.504 62.919 -64.91 63.537 C-66.227 64.132 -66.227 64.132 -67.57 64.738 C-68.773 65.28 -68.773 65.28 -70 65.833 C-72.305 66.982 -72.305 66.982 -74 70 C-74.167 73.125 -74.167 73.125 -74 76 C-68.358 75.461 -63.884 73.914 -58.75 71.562 C-58.044 71.25 -57.337 70.937 -56.609 70.615 C-53.563 69.251 -50.783 67.855 -48 66 C-46.984 62.699 -46.891 61.328 -48 58 C-53.429 58 -57.245 60.086 -62.125 62.312 Z M-151.75 104.312 C-152.797 104.742 -153.843 105.171 -154.922 105.613 C-160.261 107.912 -160.261 107.912 -164.312 111.875 C-165.113 114.348 -165.144 116.416 -165 119 C-158.227 118.558 -151.096 116.46 -146.438 111.254 C-144.813 108.632 -143.932 106.663 -144.25 103.562 C-144.498 103.047 -144.745 102.531 -145 102 C-147.262 102 -149.716 103.472 -151.75 104.312 Z " fill="#0058B3" transform="translate(266,143)"/>
  <ns0:path d="M0 0 C4.117 3.438 6.02 7.255 8.43 11.988 C9.483 13.989 10.538 15.989 11.594 17.988 C12.431 19.587 12.431 19.587 13.286 21.219 C16.045 26.416 18.928 31.543 21.797 36.681 C28.606 48.895 35.106 61.25 41.454 73.71 C44.634 79.942 47.887 86.101 51.419 92.143 C55.336 98.849 58.36 105.457 60.742 112.863 C61.127 114.057 61.127 114.057 61.52 115.274 C63.747 122.785 63.747 122.785 62.055 126.551 C57.843 130.885 53.794 132.718 48.055 134.363 C47.026 134.687 47.026 134.687 45.977 135.018 C41.922 136.236 38.272 137.144 34.055 136.551 C30.669 133.674 28.611 130.416 26.402 126.59 C26.066 126.012 25.73 125.433 25.383 124.837 C24.663 123.597 23.946 122.356 23.231 121.113 C22.102 119.15 20.966 117.191 19.827 115.233 C18.29 112.587 16.754 109.94 15.222 107.291 C7.982 94.786 0.646 82.358 -7.13 70.178 C-12.58 61.616 -17.821 52.929 -23.071 44.244 C-23.42 43.667 -23.769 43.09 -24.129 42.495 C-25.133 40.834 -26.135 39.172 -27.138 37.51 C-28.676 34.992 -30.258 32.511 -31.863 30.035 C-35.285 24.582 -35.862 19.086 -36.07 12.738 C-34.36 7.892 -31.443 6.709 -26.945 4.551 C-25.859 4.009 -24.772 3.468 -23.652 2.91 C-15.699 -0.802 -8.328 -4.098 0 0 Z " fill="#8A8C8E" transform="translate(398.9453125,162.44921875)"/>
  <ns0:path d="M0 0 C8.558 8.605 16.115 19.498 16.676 31.812 C16.216 45.164 10.657 55.165 2.113 65.125 C1.299 66.107 1.299 66.107 0.469 67.109 C-8.86 77.406 -23.439 85.193 -37.238 86.316 C-46.389 86.725 -55.917 85.033 -63.137 79.062 C-67.814 74.464 -71.856 69.288 -75.887 64.125 C-76.491 63.386 -77.096 62.648 -77.719 61.887 C-82.147 56.338 -84.201 51.538 -83.762 44.312 C-83.039 38.819 -81.287 34.097 -78.887 29.125 C-78.522 28.346 -78.157 27.568 -77.781 26.766 C-71.693 15.3 -60.615 4.639 -48.887 -0.875 C-47.943 -1.333 -47 -1.79 -46.027 -2.262 C-31.194 -8.967 -13.455 -10.785 0 0 Z M-53.887 18.125 C-56.186 20.628 -58.075 23.255 -59.887 26.125 C-60.547 27.115 -61.207 28.105 -61.887 29.125 C-63.032 33.568 -63.369 37.734 -61.699 42.062 C-59.787 45.294 -59.239 45.845 -55.887 47.125 C-47.048 48.637 -40.287 45.81 -32.887 41.125 C-29.947 38.771 -29.947 38.771 -27.887 36.125 C-27.437 35.617 -26.987 35.109 -26.523 34.586 C-22.197 29.638 -21.504 25.962 -21.625 19.57 C-21.774 16.951 -21.774 16.951 -23.262 14.125 C-33.283 6.49 -44.939 11.287 -53.887 18.125 Z " fill="#262D36" transform="translate(339.88671875,190.875)"/>
  <ns0:path d="M0 0 C1.276 2.185 2.546 4.373 3.812 6.562 C4.169 7.172 4.525 7.781 4.893 8.408 C9.893 17.079 13.264 25.318 11.375 35.5 C7.712 49.124 -1.496 59.206 -13 67 C-13.882 67.599 -13.882 67.599 -14.781 68.211 C-24.159 73.681 -36.63 74.99 -47.098 72.855 C-58.412 69.521 -64.897 61.679 -71.812 52.625 C-72.533 51.707 -72.533 51.707 -73.269 50.77 C-78.1 44.252 -79.124 38.011 -79 30 C-69.767 24.961 -60.418 21.571 -50.438 18.375 C-32.574 13.108 -32.574 13.108 -16.062 4.812 C-10.212 0.981 -6.967 -0.158 0 0 Z " fill="#16181C" transform="translate(398,280)"/>
  <ns0:path d="M0 0 C4.027 3.752 7.916 7.614 11.75 11.562 C12.637 12.408 13.524 13.254 14.438 14.125 C15.201 14.929 15.964 15.734 16.75 16.562 C17.289 17.097 17.828 17.632 18.383 18.184 C22.895 23.231 23.547 27.444 23.199 34.129 C20.948 51.336 11.133 65.118 -2.355 75.602 C-11.784 81.989 -21.642 86.91 -33.25 85.562 C-44.327 82.613 -55.856 70.822 -62.25 61.562 C-64.989 54.747 -64.511 48.998 -62 42.188 C-54.089 23.817 -39.479 8.548 -21.375 0.125 C-14.524 -2.403 -6.746 -2.984 0 0 Z M-41.25 28.562 C-44.475 33.742 -45.975 38.396 -45.25 44.562 C-44.418 47.127 -43.709 48.192 -41.625 49.875 C-37.043 51.201 -33.158 50.51 -28.977 48.434 C-21.877 43.988 -15.001 37.653 -12.25 29.562 C-11.763 26.126 -11.634 22.988 -12.25 19.562 C-14.853 16.249 -16.427 15.687 -20.562 15.062 C-29.589 16.286 -35.593 21.638 -41.25 28.562 Z " fill="#252C34" transform="translate(157.25,258.4375)"/>
  <ns0:path d="M0 0 C4.707 3.869 7.291 8.597 10.125 13.875 C10.769 15.041 10.769 15.041 11.426 16.23 C13.884 20.732 16.063 25.251 18 30 C12.079 28.299 10.343 24.358 7.258 19.336 C5.168 16.739 5.168 16.739 1.949 16.352 C-3.527 16.792 -8.45 19.638 -13.312 22 C-15.286 22.941 -17.262 23.878 -19.238 24.812 C-20.105 25.231 -20.972 25.65 -21.865 26.082 C-24 27 -24 27 -26 27 C-25.783 27.976 -25.567 28.952 -25.344 29.957 C-25.065 31.229 -24.787 32.502 -24.5 33.812 C-24.222 35.077 -23.943 36.342 -23.656 37.645 C-23 41 -23 41 -23 44 C-22.01 44 -21.02 44 -20 44 C-19.491 45.56 -18.993 47.123 -18.5 48.688 C-18.222 49.558 -17.943 50.428 -17.656 51.324 C-17.001 53.994 -16.882 56.264 -17 59 C-21.93 61.04 -25.58 62.407 -31 62 C-31.42 61.004 -31.42 61.004 -31.848 59.988 C-35.094 52.839 -37.998 49.357 -45.039 46.039 C-57.292 41.45 -74.271 42.694 -86.059 47.911 C-89.643 49.603 -93.164 51.397 -96.664 53.258 C-100 55 -100 55 -103 56 C-103.135 53.561 -103.234 51.129 -103.312 48.688 C-103.354 47.997 -103.396 47.307 -103.439 46.596 C-103.488 44.574 -103.488 44.574 -103 41 C-99 38.048 -94.238 36.208 -89.711 34.191 C-88.903 33.828 -88.095 33.466 -87.263 33.092 C-84.635 31.912 -82.005 30.737 -79.375 29.562 C-77.556 28.748 -75.738 27.933 -73.919 27.118 C-69.429 25.106 -64.938 23.099 -60.446 21.093 C-58.225 20.1 -56.004 19.107 -53.784 18.112 C-42.58 13.093 -31.366 8.103 -20.062 3.312 C-19.293 2.985 -18.523 2.657 -17.729 2.32 C-11.798 -0.168 -6.384 -2.259 0 0 Z " fill="#0058B9" transform="translate(382,132)"/>
  <ns0:path d="M0 0 C0.33 0.33 0.66 0.66 1 1 C0.935 2.545 0.797 4.088 0.625 5.625 C0.486 6.982 0.486 6.982 0.344 8.367 C0 11 0 11 -0.875 14.75 C-1.303 18.098 -1.303 18.098 0.75 20.875 C4.162 24.428 8.079 27.45 11.918 30.523 C15.091 33.073 18.209 35.678 21.312 38.312 C22.125 39.001 22.125 39.001 22.953 39.704 C28.133 44.103 33.294 48.525 38.449 52.953 C40.844 55.01 43.243 57.061 45.645 59.109 C50.881 63.578 56.096 68.054 61.188 72.688 C65.51 76.617 69.995 80.308 74.555 83.957 C77 86 77 86 79.086 88.184 C81.742 90.705 84.488 91.189 88 92 C87.625 94.75 87.625 94.75 86 98 C81.147 101.145 75.25 103.042 69.477 102.062 C64.075 99.745 59.835 95.328 55.547 91.394 C53.441 89.496 51.233 87.746 49 86 C45.122 82.927 41.331 79.767 37.562 76.562 C32.773 72.49 27.944 68.475 23.07 64.504 C13.474 56.678 3.909 48.817 -5.512 40.782 C-9.649 37.265 -13.882 33.886 -18.172 30.559 C-20 29 -20 29 -21 27 C-21.364 19.583 -20.002 12.792 -17 6 C-14.574 3.57 -12.181 2.233 -9 1 C-6.018 -0.491 -3.284 -0.119 0 0 Z " fill="#878A8C" transform="translate(82,294)"/>
  <ns0:path d="M0 0 C1.73 1.574 1.73 1.574 3.188 3.688 C3.92 4.714 3.92 4.714 4.668 5.762 C9.123 13.247 9.235 21.598 7.312 30.008 C2.684 43.545 -5.73 54.754 -18.328 61.777 C-25.727 65.163 -34.017 67.481 -42 65 C-52.647 60.356 -62.8 51.34 -68 41 C-69.106 37.858 -69.164 34.884 -69.188 31.562 C-69.202 30.636 -69.216 29.709 -69.23 28.754 C-68.98 25.76 -68.422 23.647 -67 21 C-63.875 20.188 -63.875 20.188 -61 20 C-59 23 -59 23 -59.25 25.562 C-60 28 -60 28 -62 30 C-62.751 33.372 -62.751 33.372 -62 37 C-58.075 41.124 -53.694 42.866 -48.062 43.312 C-40.396 43.237 -33.036 40.651 -27 36 C-26.34 36 -25.68 36 -25 36 C-24.751 35.257 -24.502 34.515 -24.246 33.75 C-22.889 30.755 -21.463 29.217 -19.062 27 C-14.977 23.212 -12.126 20.314 -11.812 14.555 C-11.874 13.34 -11.936 12.126 -12 10.875 C-12.326 4.445 -12.326 4.445 -10.617 2.113 C-7.357 -0.131 -3.877 -0.378 0 0 Z " fill="#1F252A" transform="translate(237,341)"/>
  <ns0:path d="M0 0 C2.316 1.802 3.818 3.188 5.25 5.75 C5.438 8.5 5.438 8.5 5.25 10.75 C4.281 10.399 3.311 10.049 2.312 9.688 C-8.28 6.828 -17.335 12.479 -26.562 17 C-28.087 17.735 -29.613 18.468 -31.139 19.199 C-34.225 20.68 -37.309 22.165 -40.39 23.655 C-46.436 26.569 -52.529 29.379 -58.625 32.188 C-71.253 38.029 -83.834 43.969 -96.408 49.927 C-103.295 53.189 -110.191 56.418 -117.138 59.552 C-123.118 62.294 -129.022 65.203 -134.936 68.084 C-135.917 68.558 -136.899 69.031 -137.91 69.52 C-138.793 69.949 -139.676 70.378 -140.586 70.82 C-142.75 71.75 -142.75 71.75 -144.75 71.75 C-144.38 65.338 -144.38 65.338 -141.562 62.707 C-138.762 60.759 -136.001 59.197 -132.945 57.684 C-131.816 57.121 -130.688 56.559 -129.525 55.98 C-128.308 55.382 -127.092 54.785 -125.875 54.188 C-124.611 53.562 -123.347 52.936 -122.083 52.309 C-111.646 47.147 -101.15 42.111 -90.63 37.12 C-85.538 34.698 -80.457 32.254 -75.375 29.812 C-74.334 29.313 -73.292 28.813 -72.219 28.298 C-67.009 25.798 -61.802 23.293 -56.598 20.781 C-51.437 18.291 -46.269 15.816 -41.096 13.35 C-38.742 12.224 -36.39 11.094 -34.041 9.958 C-30.861 8.422 -27.675 6.9 -24.484 5.386 C-22.668 4.521 -20.859 3.641 -19.05 2.762 C-17.938 2.237 -16.825 1.713 -15.68 1.172 C-14.214 0.469 -14.214 0.469 -12.718 -0.247 C-8.22 -1.767 -4.349 -1.977 0 0 Z " fill="#707275" transform="translate(263.75,134.25)"/>
  <ns0:path d="M0 0 C0.175 3.228 0.281 6.456 0.375 9.688 C0.425 10.6 0.476 11.512 0.527 12.451 C0.547 13.337 0.566 14.224 0.586 15.137 C0.617 15.948 0.649 16.76 0.681 17.596 C-0.364 21.283 -2.918 22.99 -6 25 C-8.723 26.513 -11.518 27.802 -14.363 29.066 C-15.155 29.427 -15.946 29.788 -16.762 30.16 C-19.275 31.303 -21.793 32.433 -24.312 33.562 C-25.992 34.324 -27.671 35.086 -29.35 35.85 C-33.167 37.582 -36.984 39.314 -40.816 41.013 C-42.357 41.709 -43.886 42.43 -45.406 43.169 C-46.195 43.545 -46.985 43.921 -47.798 44.308 C-48.507 44.656 -49.217 45.003 -49.949 45.361 C-52.365 46.114 -53.642 45.822 -56 45 C-56.076 40.26 -56.059 35.544 -55.75 30.812 C-55.704 30.035 -55.657 29.258 -55.609 28.457 C-54.381 23.502 -51.935 20.572 -47.615 17.929 C-46.283 17.299 -44.942 16.686 -43.594 16.09 C-42.873 15.755 -42.153 15.42 -41.41 15.075 C-39.114 14.013 -36.807 12.975 -34.5 11.938 C-32.981 11.238 -31.463 10.537 -29.945 9.834 C-26.309 8.157 -22.659 6.514 -18.998 4.89 C-17.129 4.057 -15.267 3.207 -13.406 2.356 C-12.354 1.889 -11.303 1.422 -10.219 0.941 C-9.321 0.537 -8.423 0.133 -7.498 -0.283 C-4.609 -1.112 -2.86 -0.817 0 0 Z " fill="#1F1F2E" transform="translate(248,159)"/>
  <ns0:path d="M0 0 C-0.381 5.833 -0.827 11.662 -1.75 17.438 C-1.869 18.199 -1.987 18.961 -2.109 19.746 C-4.197 25.029 -8.844 27.725 -13.805 29.98 C-14.935 30.5 -16.066 31.02 -17.231 31.556 C-18.433 32.094 -19.636 32.633 -20.875 33.188 C-22.123 33.755 -23.37 34.323 -24.617 34.891 C-28.403 36.612 -32.2 38.309 -36 40 C-37.165 40.52 -38.329 41.04 -39.529 41.575 C-42.724 42.996 -45.923 44.408 -49.125 45.812 C-50.581 46.452 -50.581 46.452 -52.066 47.104 C-52.954 47.489 -53.843 47.873 -54.758 48.27 C-55.92 48.774 -55.92 48.774 -57.106 49.288 C-59 50 -59 50 -61 50 C-60.413 44.213 -58.847 39.224 -56.75 33.812 C-56.463 33.019 -56.175 32.226 -55.879 31.408 C-55.584 30.641 -55.289 29.873 -54.984 29.082 C-54.724 28.393 -54.463 27.705 -54.194 26.995 C-51.049 21.74 -45.293 19.497 -39.953 17.031 C-39.182 16.669 -38.412 16.307 -37.618 15.934 C-35.165 14.783 -32.707 13.641 -30.25 12.5 C-28.614 11.734 -26.979 10.967 -25.344 10.199 C-20.902 8.119 -16.457 6.047 -12 4 C-11.198 3.625 -10.396 3.25 -9.57 2.864 C-8.772 2.497 -7.974 2.13 -7.151 1.752 C-6.428 1.417 -5.705 1.081 -4.96 0.735 C-3 0 -3 0 0 0 Z " fill="#222334" transform="translate(170,193)"/>
  <ns0:path d="M0 0 C2.239 4.884 2.482 9.927 0.645 15.027 C-1.473 18.978 -4.322 22.019 -7.625 25 C-8.739 26.021 -8.739 26.021 -9.875 27.062 C-17.055 32.121 -23.798 34.195 -32.625 33 C-35.986 31.735 -36.525 31.168 -38.438 27.938 C-40.103 23.435 -40.069 19.569 -38.625 15 C-34.117 6.17 -27.432 1.14 -18.625 -3 C-12.274 -4.815 -5.29 -4.031 0 0 Z " fill="#83888F" transform="translate(316.625,205)"/>
  <ns0:path d="M0 0 C0.681 -0.024 1.363 -0.049 2.064 -0.074 C8.071 -0.109 11.339 2.135 15.75 5.938 C18.599 9.386 18.039 13.326 18 17.562 C17.991 18.835 17.982 20.107 17.973 21.418 C17.961 22.394 17.949 23.37 17.938 24.375 C13.336 22.451 10.532 19.03 7.156 15.469 C2.286 10.873 -2.029 10.88 -8.555 11.004 C-22.729 12.503 -35.032 22.96 -44.062 33.375 C-51.064 42.124 -55.368 50.899 -59.062 61.375 C-60.382 61.375 -61.703 61.375 -63.062 61.375 C-64.924 54.371 -61.674 49.277 -58.293 43.188 C-47.271 24.752 -32.631 8.307 -11.766 1.262 C-7.796 0.311 -4.057 0.008 0 0 Z " fill="#010203" transform="translate(153.0625,246.625)"/>
  <ns0:path d="M0 0 C2.684 3.417 2.84 5.633 2.602 9.906 C0.826 18.859 -5.808 25.406 -12.938 30.625 C-16.549 32.913 -19.337 33.645 -23.688 33.5 C-26.851 32.648 -28.063 32.228 -29.938 29.625 C-31.454 26.593 -31.451 23.902 -30.938 20.625 C-28.095 12.223 -22.493 5.229 -15.047 0.398 C-9.919 -2.073 -5.146 -2.409 0 0 Z " fill="#85888E" transform="translate(142.9375,275.375)"/>
  <ns0:path d="M0 0 C3.825 3.702 7.046 7.669 8 13 C7.261 13.086 6.523 13.173 5.762 13.262 C-1.065 14.207 -6.657 15.886 -12.82 18.977 C-15 20 -15 20 -17 20 C-17.366 18.44 -17.718 16.877 -18.062 15.312 C-18.26 14.442 -18.457 13.572 -18.66 12.676 C-19.038 9.697 -19.058 7.82 -18 5 C-13.015 1.507 -5.991 -1.613 0 0 Z " fill="#E39B0A" transform="translate(387,148)"/>
  <ns0:path d="M0 0 C0 1.32 0 2.64 0 4 C-0.797 4.315 -1.593 4.629 -2.414 4.953 C-8.053 7.231 -12.952 9.598 -18 13 C-20.541 14.091 -23.109 15.08 -25.691 16.066 C-28.095 16.969 -28.095 16.969 -30.5 18.5 C-32.895 19.937 -35.148 20.877 -37.75 21.875 C-42.776 23.824 -47.345 26.301 -52 29 C-52.66 29.33 -53.32 29.66 -54 30 C-53.213 25.769 -52.376 24.269 -48.832 21.73 C-42.543 17.99 -35.829 15.048 -29.188 12 C-27.872 11.391 -26.556 10.782 -25.24 10.172 C-22.689 8.99 -20.136 7.815 -17.58 6.645 C-15.284 5.59 -12.992 4.525 -10.706 3.449 C-9.726 2.992 -8.747 2.534 -7.738 2.062 C-6.889 1.662 -6.04 1.261 -5.165 0.848 C-3 0 -3 0 0 0 Z " fill="#04050E" transform="translate(170,193)"/>
  <ns0:path d="M0 0 C0 0.99 0 1.98 0 3 C-0.81 3.249 -0.81 3.249 -1.636 3.504 C-7.475 5.366 -12.935 7.691 -18.453 10.344 C-19.316 10.754 -20.18 11.164 -21.069 11.587 C-22.879 12.449 -24.687 13.313 -26.494 14.179 C-29.254 15.502 -32.017 16.816 -34.781 18.129 C-36.547 18.971 -38.313 19.813 -40.078 20.656 C-40.899 21.047 -41.72 21.438 -42.566 21.84 C-46.497 23.728 -50.308 25.665 -54 28 C-54 25.312 -54 25.312 -53 22 C-48.121 17.973 -41.957 15.417 -36.23 12.828 C-35.428 12.46 -34.625 12.092 -33.798 11.713 C-32.117 10.944 -30.436 10.178 -28.753 9.415 C-26.175 8.244 -23.6 7.066 -21.025 5.887 C-19.386 5.138 -17.746 4.389 -16.105 3.641 C-15.337 3.29 -14.568 2.939 -13.776 2.577 C-5.268 -1.281 -5.268 -1.281 0 0 Z " fill="#05060F" transform="translate(248,159)"/>
  <ns0:path d="M0 0 C2.896 2.245 3.836 3.821 4.34 7.449 C4.585 14.171 4.585 14.171 2.734 16.793 C-0.34 18.933 -3.355 18.179 -7 18 C-7.33 18.66 -7.66 19.32 -8 20 C-10.848 19.692 -12.583 19.345 -14.812 17.5 C-16.633 13.668 -16.784 10.156 -16 6 C-12.368 -0.707 -7.125 -2.021 0 0 Z " fill="#747579" transform="translate(358,114)"/>
  <ns0:path d="M0 0 C0.8 3.287 1.097 4.71 0 8 C-2.568 9.48 -5.08 10.796 -7.75 12.062 C-8.467 12.414 -9.183 12.765 -9.922 13.127 C-20.581 18.31 -20.581 18.31 -26 18 C-26.486 12.649 -26.486 12.649 -24.547 10.062 C-21.003 7.193 -17.167 5.547 -13 3.75 C-12.193 3.386 -11.386 3.023 -10.555 2.648 C-6.656 0.937 -4.358 0 0 0 Z " fill="#009AD1" transform="translate(218,201)"/>
  <ns0:path d="M0 0 C2.666 10.113 2.666 10.113 1 14 C-1.438 16.125 -1.438 16.125 -4 18 C-4.66 18.99 -5.32 19.98 -6 21 C-6.99 21 -7.98 21 -9 21 C-9.507 19.106 -10.006 17.21 -10.5 15.312 C-10.778 14.257 -11.057 13.201 -11.344 12.113 C-11.939 9.289 -12.128 6.872 -12 4 C-10.566 3.326 -9.127 2.661 -7.688 2 C-6.887 1.629 -6.086 1.257 -5.262 0.875 C-3 0 -3 0 0 0 Z " fill="#EBEEEF" transform="translate(368,155)"/>
  <ns0:path d="M0 0 C0.66 0.33 1.32 0.66 2 1 C1.542 5.926 0.653 8.608 -3 12 C-8.219 14.927 -12.911 17.387 -19 17 C-18.509 10.619 -18.509 10.619 -16.301 7.934 C-13.786 5.82 -11.449 4.611 -8.438 3.312 C-7.487 2.896 -6.537 2.48 -5.559 2.051 C-3.732 1.301 -1.874 0.625 0 0 Z " fill="#00A3DD" transform="translate(120,245)"/>
  <ns0:path d="M0 0 C-2.676 17.126 -2.676 17.126 -6.938 20.562 C-9.311 21.066 -10.695 20.65 -13 20 C-12.516 17.218 -11.99 14.456 -11.438 11.688 C-11.305 10.902 -11.173 10.116 -11.037 9.307 C-9.853 3.629 -9.853 3.629 -7.356 1.788 C-4.922 0.714 -2.675 0 0 0 Z " fill="#EDEEEC" transform="translate(95,274)"/>
  <ns0:path d="M0 0 C-0.285 1.73 -0.578 3.459 -0.875 5.188 C-1.037 6.15 -1.2 7.113 -1.367 8.105 C-1.98 10.91 -2.857 13.372 -4 16 C-6.31 16 -8.62 16 -11 16 C-8.758 5.054 -8.758 5.054 -7 2 C-4.529 0.703 -2.792 0 0 0 Z " fill="#F39C0A" transform="translate(86,278)"/>
  <ns0:path d="M0 0 C1.346 1.657 2.675 3.327 4 5 C4.529 5.663 5.057 6.325 5.602 7.008 C6.418 8.056 6.418 8.056 7.25 9.125 C7.771 9.788 8.292 10.45 8.828 11.133 C10 13 10 13 10 16 C8.02 16.66 6.04 17.32 4 18 C3.322 16.129 2.658 14.253 2 12.375 C1.443 10.809 1.443 10.809 0.875 9.211 C-0.005 5.982 -0.16 3.328 0 0 Z " fill="#151E33" transform="translate(275,154)"/>
  <ns0:path d="M0 0 C2.375 0.312 2.375 0.312 5 1 C7.209 4.314 7.225 5.345 7.125 9.188 C7.107 10.089 7.089 10.99 7.07 11.918 C7.036 12.949 7.036 12.949 7 14 C5.02 14.99 5.02 14.99 3 16 C2.927 15.06 2.927 15.06 2.852 14.102 C2.777 13.284 2.702 12.467 2.625 11.625 C2.555 10.813 2.486 10.001 2.414 9.164 C2.171 6.797 2.171 6.797 0 5 C-0.125 2.375 -0.125 2.375 0 0 Z " fill="#98999B" transform="translate(355,115)"/>
  <ns0:path d="M0 0 C3.125 -0.188 3.125 -0.188 6 0 C6.66 1.98 7.32 3.96 8 6 C2.375 9 2.375 9 -1 9 C-1.625 6.188 -1.625 6.188 -2 3 C-1.34 2.01 -0.68 1.02 0 0 Z " fill="#262E34" transform="translate(351,131)"/>
  <ns0:path d="M0 0 C-1.766 0.699 -3.538 1.384 -5.312 2.062 C-6.792 2.637 -6.792 2.637 -8.301 3.223 C-11 4 -11 4 -14 3 C-12.234 2.301 -10.462 1.616 -8.688 0.938 C-7.208 0.363 -7.208 0.363 -5.699 -0.223 C-3 -1 -3 -1 0 0 Z " fill="#000A15" transform="translate(284,344)"/>
  <ns0:path d="M0 0 C-1.266 0.532 -2.538 1.05 -3.812 1.562 C-4.52 1.853 -5.228 2.143 -5.957 2.441 C-8 3 -8 3 -11 2 C-9.734 1.468 -8.462 0.95 -7.188 0.438 C-6.48 0.147 -5.772 -0.143 -5.043 -0.441 C-3 -1 -3 -1 0 0 Z " fill="#000A15" transform="translate(264,351)"/>
  <ns0:path d="M0 0 C-2.97 0.66 -5.94 1.32 -9 2 C-5.767 -1.233 -4.451 -1.113 0 0 Z " fill="#000B16" transform="translate(319,332)"/>
  <ns0:path d="M0 0 C-4.625 2.125 -4.625 2.125 -8 1 C-3.375 -1.125 -3.375 -1.125 0 0 Z " fill="#000A15" transform="translate(301,338)"/>
  <ns0:path d="M0 0 C3 1 3 1 3 1 Z " fill="#000913" transform="translate(264,349)"/>
  <ns0:path d="M0 0 C3 1 3 1 3 1 Z " fill="#000913" transform="translate(267,348)"/>
  <ns0:path d="M0 0 C3 1 3 1 3 1 Z " fill="#000810" transform="translate(284,342)"/>
  <ns0:path d="M0 0 C3 1 3 1 3 1 Z " fill="#00070E" transform="translate(301,336)"/>
  <ns0:path d="M0 0 C3 1 3 1 3 1 Z " fill="#000812" transform="translate(304,335)"/>
  <ns0:path d="M0 0 C3 1 3 1 3 1 Z " fill="#000B16" transform="translate(307,334)"/>
  <ns0:path d="M0 0 C3 1 3 1 3 1 Z " fill="#000E1D" transform="translate(319,330)"/>
  <ns0:path d="M0 0 C2 1 2 1 2 1 Z " fill="#2463AC" transform="translate(398,162)"/>
  <ns0:path d="M0 0 C2 1 2 1 2 1 Z " fill="#3871B1" transform="translate(396,161)"/>
</svg>