<?xml version="1.0" ?>
<svg xmlns:ns0="http://www.w3.org/2000/svg" xmlns="http://www.w3.org/2000/svg" width="512" height="512" viewBox="0 0 512 512" style="background-color: transparent;">
  <ns0:path d="M0 0 C0.557 0.248 1.114 0.495 1.688 0.75 C2.688 6.5 2.688 6.5 2.688 8.75 C5.52 9.084 5.52 9.084 8.688 8.75 C10.886 6.802 10.886 6.802 12.688 4.75 C19.754 6.605 26.695 8.669 33.602 11.051 C34.977 11.52 34.977 11.52 36.379 11.999 C39.358 13.017 42.335 14.04 45.312 15.062 C47.402 15.778 49.491 16.492 51.58 17.207 C55.856 18.67 60.132 20.135 64.407 21.6 C70.308 23.622 76.214 25.631 82.121 27.637 C99.376 33.498 116.612 39.379 133.688 45.75 C133.688 48.39 133.688 51.03 133.688 53.75 C137.79 54.765 137.79 54.765 141.688 53.75 C142.34 51.725 142.34 51.725 142.688 49.75 C153.084 47.82 153.084 47.82 158 50.75 C164.898 55.895 168.737 61.375 170.688 69.75 C171.459 75.318 171.928 80.898 172.375 86.5 C172.505 88.007 172.636 89.513 172.768 91.02 C173.772 102.75 173.772 102.75 173.688 107.75 C174.516 107.849 175.345 107.949 176.199 108.051 C180.217 108.856 183.764 110.312 187.5 111.938 C193.378 114.43 199.276 116.734 205.312 118.812 C213.213 121.54 220.965 124.552 228.688 127.75 C229.33 127.993 229.973 128.236 230.636 128.487 C232.354 129.16 234.026 129.948 235.688 130.75 C236.845 134.223 236.756 137.111 236.688 140.75 C238.668 141.08 240.647 141.41 242.688 141.75 C243.348 139.44 244.007 137.13 244.688 134.75 C249.569 135.311 253.537 136.854 257.875 139.062 C258.798 139.506 258.798 139.506 259.74 139.959 C263.26 141.724 265.834 143.221 267.688 146.75 C268.906 153.646 267.526 160.588 265.938 167.312 C265.781 168.003 265.624 168.694 265.463 169.405 C264.675 172.455 263.937 174.491 261.734 176.777 C259.688 177.75 259.688 177.75 256.688 176.75 C256.408 177.474 256.129 178.198 255.842 178.945 C254.752 181.594 253.542 184.097 252.219 186.637 C251.735 187.567 251.251 188.497 250.752 189.455 C250.236 190.439 249.719 191.424 249.188 192.438 C248.656 193.453 248.125 194.469 247.578 195.515 C243.789 202.732 239.9 209.888 235.898 216.989 C234.82 218.905 233.752 220.827 232.688 222.75 C232.136 223.731 231.584 224.712 231.016 225.723 C229.369 229.477 228.666 233.099 228 237.125 C227.87 237.861 227.741 238.597 227.607 239.355 C227.292 241.152 226.989 242.951 226.688 244.75 C226.027 244.75 225.368 244.75 224.688 244.75 C223.8 246.378 223.8 246.378 222.895 248.039 C222.097 249.485 221.298 250.93 220.5 252.375 C220.113 253.088 219.725 253.801 219.326 254.535 C213.146 265.669 213.146 265.669 208.324 267.789 C204.703 267.735 201.771 266.543 198.5 265.125 C197.844 264.852 197.188 264.578 196.511 264.296 C191.114 262.016 185.88 259.466 180.688 256.75 C180.358 261.7 180.027 266.65 179.688 271.75 C180.678 272.41 181.668 273.07 182.688 273.75 C182.027 277.05 181.368 280.35 180.688 283.75 C176.528 285.136 174.546 283.803 170.711 281.973 C168.688 280.75 168.688 280.75 167.25 278.562 C166.935 276.986 166.635 275.406 166.391 273.816 C163.44 257.266 147.672 242.736 134.449 233.484 C121.836 225.481 107.414 219.051 92.164 222.285 C87.676 223.649 83.912 225.232 80.688 228.75 C79.329 232.375 79.329 232.375 78.688 235.75 C73.402 235.23 69.189 233.885 64.41 231.539 C63.73 231.215 63.049 230.89 62.348 230.556 C60.895 229.863 59.445 229.165 57.996 228.463 C55.73 227.365 53.458 226.279 51.185 225.195 C48.132 223.74 45.081 222.281 42.031 220.821 C35.983 217.931 29.904 215.111 23.812 212.312 C22.345 211.632 22.345 211.632 20.848 210.938 C19.952 210.527 19.056 210.115 18.133 209.691 C17.365 209.338 16.597 208.984 15.805 208.619 C13.715 207.682 13.715 207.682 11.483 207.311 C10.89 207.126 10.298 206.941 9.688 206.75 C8.52 203.828 8.52 203.828 7.5 200 C2.231 182.279 -11.77 169.061 -27.312 159.75 C-37.207 154.87 -46.902 151.54 -57.875 154.812 C-62.616 158.581 -63.607 163.961 -64.312 169.75 C-67.125 169.688 -67.125 169.688 -70.312 168.75 C-72.241 165.452 -73.494 163.169 -73 159.312 C-72.773 158.797 -72.546 158.281 -72.312 157.75 C-70.993 158.08 -69.672 158.41 -68.312 158.75 C-69.302 153.47 -70.293 148.19 -71.312 142.75 C-72.653 142.317 -73.994 141.884 -75.375 141.438 C-79.467 140.115 -83.366 138.455 -87.312 136.75 C-88.04 126.076 -88.596 115.406 -88.925 104.711 C-88.975 103.143 -89.031 101.575 -89.091 100.006 C-89.89 79.174 -89.89 79.174 -85.867 72.27 C-85.036 71.425 -85.036 71.425 -84.188 70.562 C-83.259 69.615 -83.259 69.615 -82.312 68.648 C-81.653 68.022 -80.993 67.395 -80.312 66.75 C-79.632 66.062 -78.951 65.373 -78.25 64.664 C-74.355 60.932 -74.355 60.932 -72.312 59.75 C-69.57 60.066 -69.57 60.066 -67.312 60.75 C-67.312 63.39 -67.312 66.03 -67.312 68.75 C-64.484 70.164 -62.439 70.069 -59.312 69.75 C-57.4 67.869 -57.4 67.869 -56.312 65.75 C-52.297 66.411 -48.812 67.649 -45.055 69.199 C-44.447 69.448 -43.839 69.697 -43.212 69.954 C-41.894 70.495 -40.577 71.037 -39.26 71.581 C-35.678 73.061 -32.091 74.525 -28.504 75.992 C-27.755 76.299 -27.005 76.606 -26.234 76.922 C-17.88 80.343 -9.506 83.71 -1.125 87.062 C-0.378 87.362 0.369 87.661 1.139 87.969 C10.227 91.604 19.335 95.174 28.498 98.619 C36.704 101.721 44.853 104.965 53.001 108.216 C54.62 108.861 56.239 109.506 57.858 110.15 C60.131 111.054 62.401 111.962 64.672 112.871 C65.366 113.147 66.059 113.422 66.774 113.706 C71.573 115.635 71.573 115.635 72.688 116.75 C72.829 119.753 72.73 122.742 72.688 125.75 C75.657 126.08 78.627 126.41 81.688 126.75 C83.837 123.197 83.837 123.197 83.688 120.75 C84.279 120.652 84.871 120.554 85.48 120.453 C91.352 119.342 95.281 117.958 99 113 C100.042 109.589 100.607 106.202 99.688 102.75 C95.614 97.748 91.075 95.935 85.121 93.711 C84.183 93.348 83.244 92.985 82.277 92.611 C79.231 91.437 76.178 90.281 73.125 89.125 C71.022 88.318 68.92 87.509 66.819 86.7 C62.666 85.101 58.512 83.509 54.355 81.922 C47.258 79.208 40.19 76.422 33.125 73.625 C16.407 67.046 -0.391 60.704 -17.246 54.483 C-27.63 50.645 -37.977 46.716 -48.312 42.75 C-48.312 39.75 -48.312 39.75 -46.293 37.586 C-45.371 36.774 -44.45 35.962 -43.5 35.125 C-43.004 34.685 -42.507 34.245 -41.996 33.791 C-37.787 30.087 -33.436 26.561 -29.074 23.039 C-25.23 19.853 -21.563 16.487 -17.887 13.109 C-14.97 10.436 -12.021 7.808 -9.023 5.227 C-7.515 3.925 -6.036 2.59 -4.562 1.25 C-2.312 -0.25 -2.312 -0.25 0 0 Z M162.688 74.75 C160.768 77.041 159.036 79.317 157.312 81.75 C156.235 83.231 155.154 84.71 154.07 86.188 C153.512 86.948 152.955 87.709 152.38 88.492 C149.753 91.997 146.976 95.373 144.188 98.75 C139.393 104.583 134.791 110.526 130.293 116.59 C125.789 122.651 121.158 128.609 116.494 134.548 C107.53 145.997 104.686 152.51 106.344 167.195 C106.619 169.423 106.9 171.649 107.188 173.875 C107.402 175.596 107.402 175.596 107.621 177.352 C107.971 180.152 108.327 182.951 108.688 185.75 C110.007 185.75 111.327 185.75 112.688 185.75 C114.373 183.819 115.727 182.002 117.125 179.875 C118.013 178.579 118.903 177.283 119.793 175.988 C120.498 174.951 120.498 174.951 121.216 173.893 C123.726 170.237 126.334 166.653 128.938 163.062 C129.482 162.309 130.027 161.555 130.588 160.778 C135.163 154.449 139.796 148.164 144.436 141.883 C150.11 134.196 155.719 126.462 161.286 118.697 C162.228 117.389 163.177 116.086 164.132 114.787 C170.596 105.946 168.829 97.218 167.75 86.812 C167.663 85.971 167.576 85.13 167.487 84.264 C167.119 80.904 166.761 77.972 165.688 74.75 C164.697 74.75 163.707 74.75 162.688 74.75 Z M-71.312 92.75 C-71.371 95.958 -71.406 99.166 -71.438 102.375 C-71.454 103.279 -71.471 104.182 -71.488 105.113 C-71.495 105.996 -71.501 106.879 -71.508 107.789 C-71.518 108.596 -71.529 109.402 -71.54 110.233 C-71.251 113.437 -70.682 115.823 -69.312 118.75 C-66.733 120.69 -66.733 120.69 -63.434 122.07 C-62.823 122.355 -62.212 122.64 -61.582 122.933 C-59.502 123.894 -57.408 124.822 -55.312 125.75 C-53.748 126.46 -52.185 127.17 -50.622 127.882 C-46.421 129.782 -42.204 131.642 -37.978 133.486 C-35.351 134.636 -32.729 135.798 -30.107 136.961 C-28.417 137.701 -26.726 138.441 -25.035 139.18 C-24.262 139.524 -23.489 139.869 -22.693 140.224 C-18.182 142.174 -14.211 143.291 -9.312 143.75 C-9.233 138.279 -9.465 132.992 -10.125 127.562 C-10.195 126.877 -10.266 126.192 -10.338 125.486 C-10.859 121.154 -11.64 118.2 -14.312 114.75 C-16.861 113.366 -19.203 112.272 -21.883 111.227 C-22.637 110.917 -23.392 110.608 -24.169 110.289 C-26.586 109.303 -29.011 108.339 -31.438 107.375 C-33.015 106.736 -34.592 106.095 -36.168 105.453 C-39.307 104.176 -42.451 102.911 -45.599 101.653 C-48.794 100.372 -51.973 99.057 -55.144 97.714 C-55.917 97.388 -56.69 97.062 -57.487 96.726 C-58.953 96.107 -60.416 95.482 -61.876 94.851 C-65.315 93.404 -67.516 92.75 -71.312 92.75 Z M-70.312 127.75 C-71.531 130.63 -71.329 131.706 -70.199 134.688 C-67.975 138.298 -66.239 139.333 -62.438 141.125 C-61.409 141.628 -60.38 142.13 -59.32 142.648 C-56.39 143.722 -54.395 143.989 -51.312 143.75 C-50.607 141.21 -50.134 139.381 -50.859 136.812 C-52.993 133.785 -55.928 132.547 -59.188 131 C-59.813 130.684 -60.438 130.368 -61.082 130.043 C-64.477 128.385 -66.461 127.75 -70.312 127.75 Z M15.688 128.75 C14.264 129.95 14.264 129.95 14.5 133.438 C14.662 146.293 14.662 146.293 19.688 157.75 C22.403 159.578 22.403 159.578 25.68 161.039 C26.591 161.474 26.591 161.474 27.521 161.918 C29.567 162.884 31.625 163.821 33.688 164.75 C34.426 165.083 35.165 165.416 35.926 165.759 C40.711 167.9 45.516 169.991 50.332 172.059 C52.846 173.139 55.357 174.228 57.867 175.316 C59.476 176.011 61.086 176.705 62.695 177.398 C63.44 177.721 64.185 178.044 64.952 178.377 C69.703 180.436 69.703 180.436 74.688 181.75 C75.347 181.42 76.007 181.09 76.688 180.75 C76.746 177.542 76.781 174.334 76.812 171.125 C76.829 170.221 76.846 169.318 76.863 168.387 C76.932 161.345 76.932 161.345 74.688 154.75 C69.959 150.174 64.998 147.876 58.941 145.43 C58.012 145.044 57.083 144.659 56.125 144.262 C53.171 143.04 50.211 141.832 47.25 140.625 C45.265 139.807 43.28 138.988 41.295 138.168 C36.844 136.33 32.389 134.502 27.929 132.683 C25.856 131.82 23.807 130.914 21.758 129.997 C18.776 128.562 18.776 128.562 15.688 128.75 Z M20.688 166.75 C19.845 170.119 19.385 172.486 20.688 175.75 C22.559 177.217 22.559 177.217 24.949 178.328 C25.821 178.766 26.693 179.205 27.592 179.656 C28.969 180.321 28.969 180.321 30.375 181 C31.274 181.459 32.173 181.918 33.1 182.391 C37.755 184.686 41.364 186.421 46.688 185.75 C47.107 181.528 47.107 181.528 45.305 177.844 C41.427 174.742 37.097 172.969 32.562 171 C31.643 170.589 30.724 170.178 29.777 169.754 C25.391 167.589 25.391 167.589 20.688 166.75 Z M182.375 192.812 C179.98 196.981 179.689 201.05 180.688 205.75 C181.705 206.904 181.705 206.904 182.742 208.082 C185.322 211.62 184.872 214.314 184.312 218.438 C184.013 220.891 183.811 223.275 183.688 225.75 C185.585 228.1 185.585 228.1 188.812 227.875 C189.761 227.834 190.71 227.793 191.688 227.75 C193.398 224.017 194.736 220.734 195.438 216.688 C196.39 212.413 198.667 210.586 202.129 208.074 C204.671 205.914 204.696 203.658 205 200.438 C204.623 195.991 203.59 194.111 200.688 190.75 C193.294 186.031 188.706 187.166 182.375 192.812 Z " fill="#0058BA" transform="translate(171.3125,118.25)"/>
  <ns0:path d="M0 0 C2.431 0.943 4.862 1.886 7.293 2.828 C9.133 3.546 9.133 3.546 11.011 4.278 C20.069 7.798 29.189 11.157 38.309 14.512 C61.082 22.89 83.714 31.62 106.318 40.443 C111.497 42.463 116.68 44.473 121.872 46.459 C123.9 47.236 125.926 48.015 127.951 48.796 C130.268 49.689 132.588 50.575 134.91 51.454 C146.389 55.903 146.389 55.903 148.812 60.75 C149.193 65.313 149.24 67.824 147.312 72 C144.247 75.372 141.305 77.727 136.812 78.75 C130.195 78.599 124.573 76.818 118.504 74.324 C117.125 73.774 117.125 73.774 115.717 73.212 C112.599 71.964 109.487 70.701 106.375 69.438 C104.129 68.535 101.882 67.635 99.635 66.735 C95.16 64.94 90.686 63.142 86.214 61.34 C74.699 56.697 63.17 52.09 51.641 47.484 C47.562 45.855 43.483 44.225 39.404 42.595 C38.39 42.19 37.375 41.784 36.33 41.367 C25.423 37.008 14.518 32.643 3.613 28.277 C2.726 27.922 1.838 27.567 0.923 27.2 C-0.369 26.683 -0.369 26.683 -1.687 26.155 C-2.518 25.822 -3.35 25.49 -4.206 25.147 C-5.792 24.512 -7.378 23.876 -8.964 23.241 C-12.118 21.977 -15.272 20.716 -18.43 19.464 C-19.315 19.113 -20.201 18.762 -21.113 18.401 C-21.825 18.12 -22.537 17.839 -23.27 17.55 C-31.209 14.239 -31.209 14.239 -33.625 10.562 C-34.43 6.538 -35.048 2.811 -34.188 -1.25 C-25.697 -12.606 -10.349 -4.083 0 0 Z " fill="#717374" transform="translate(123.1875,160.25)"/>
  <ns0:path d="M0 0 C1.575 0.545 3.15 1.088 4.726 1.629 C8.065 2.777 11.401 3.934 14.735 5.096 C22.407 7.761 30.115 10.319 37.823 12.881 C40.452 13.755 43.081 14.632 45.71 15.509 C57.64 19.487 69.59 23.405 81.552 27.29 C84.281 28.177 87.01 29.067 89.739 29.956 C100.553 33.481 100.553 33.481 111.387 36.94 C113.333 37.556 115.276 38.178 117.219 38.803 C119.484 39.531 121.752 40.247 124.025 40.948 C129.515 42.728 133.406 44.143 136.875 48.875 C137.973 52.689 137.205 56.093 135.688 59.688 C133.515 62.31 132.056 63.603 128.875 64.875 C123.281 64.462 118.33 63.241 113.047 61.355 C112.314 61.101 111.581 60.847 110.825 60.585 C109.248 60.038 107.672 59.487 106.097 58.932 C101.817 57.426 97.529 55.946 93.242 54.461 C92.366 54.156 91.489 53.852 90.586 53.538 C83.037 50.918 75.459 48.391 67.87 45.887 C49.404 39.793 31.037 33.422 12.677 27.017 C3.288 23.747 -6.082 20.513 -15.608 17.663 C-19.12 16.563 -22.438 15.22 -25.812 13.75 C-26.971 13.252 -28.13 12.755 -29.324 12.242 C-32.125 10.875 -32.125 10.875 -34.125 8.875 C-35.067 5.035 -35.493 2.747 -33.938 -0.938 C-25.764 -10.802 -9.902 -3.529 0 0 Z " fill="#737476" transform="translate(192.125,103.125)"/>
  <ns0:path d="M0 0 C13.56 9.877 29.113 23.1 32.543 40.25 C32.646 41.096 32.749 41.941 32.855 42.812 C32.255 42.889 31.654 42.965 31.035 43.043 C28.101 44.079 27.522 45.464 25.98 48.125 C23.043 52.791 20.371 55.759 14.926 57.391 C1.792 60.067 -11.047 54.325 -22.145 47.812 C-25.697 45.359 -28.944 42.706 -32.145 39.812 C-32.852 39.186 -33.56 38.56 -34.289 37.914 C-40.885 31.734 -48.328 22.825 -49.41 13.531 C-49.38 9.185 -49.185 5.767 -47.145 1.812 C-47.701 2.142 -48.258 2.473 -48.832 2.812 C-51.447 3.943 -53.325 3.969 -56.145 3.812 C-56.632 -0.28 -56.344 -1.888 -54.02 -5.375 C-39.913 -20.597 -13.931 -9.691 0 0 Z M-30.145 14.812 C-31.915 18.353 -31.78 21.956 -31.145 25.812 C-27.528 33.193 -20.761 37.803 -13.77 41.688 C-9.122 43.13 -4.967 43.559 -0.145 42.812 C2.612 41.392 2.612 41.392 3.855 38.812 C4.662 34.869 3.841 32.343 1.918 28.938 C-3.566 20.896 -10.715 15.351 -20.145 12.812 C-24.127 12.37 -26.779 12.568 -30.145 14.812 Z " fill="#272E38" transform="translate(306.14453125,351.1875)"/>
  <ns0:path d="M0 0 C0.99 0 1.98 0 3 0 C5.505 15.737 5.505 15.737 6 22 C6.077 22.811 6.155 23.622 6.234 24.457 C6.84 35.402 0.084 42.39 -6.34 50.566 C-8.909 53.852 -11.345 57.219 -13.75 60.625 C-17.765 66.302 -21.865 71.91 -26 77.5 C-30.975 84.23 -35.887 90.998 -40.734 97.82 C-44.121 102.573 -47.557 107.288 -51 112 C-51.99 111.67 -52.98 111.34 -54 111 C-54.51 107.043 -55.006 103.084 -55.5 99.125 C-55.643 98.016 -55.786 96.908 -55.934 95.766 C-58.403 75.774 -58.403 75.774 -50.996 65.934 C-49.815 64.431 -48.629 62.932 -47.438 61.438 C-46.165 59.822 -44.893 58.206 -43.621 56.59 C-43 55.803 -42.378 55.017 -41.738 54.207 C-39.467 51.323 -37.231 48.414 -35 45.5 C-31.038 40.341 -27.055 35.198 -23.062 30.062 C-22.468 29.298 -21.874 28.534 -21.262 27.747 C-18.463 24.151 -15.658 20.561 -12.836 16.984 C-12.345 16.362 -11.854 15.739 -11.347 15.097 C-10.446 13.956 -9.543 12.816 -8.639 11.678 C-6.433 8.886 -4.363 6.056 -2.379 3.105 C-1.594 2.081 -0.809 1.056 0 0 Z " fill="#1C1B25" transform="translate(334,193)"/>
  <ns0:path d="M0 0 C0.33 0 0.66 0 1 0 C1 1.65 1 3.3 1 5 C1.619 5.248 2.238 5.495 2.875 5.75 C5.444 7.261 5.963 8.237 7 11 C6.335 25.352 -2.428 39.095 -8.875 51.5 C-9.827 53.344 -10.779 55.189 -11.731 57.034 C-14.062 61.552 -16.402 66.066 -18.744 70.579 C-20.501 73.965 -22.252 77.353 -24.004 80.742 C-26.231 85.047 -28.464 89.349 -30.703 93.648 C-32.775 97.63 -34.832 101.618 -36.875 105.615 C-38.165 108.137 -39.459 110.656 -40.753 113.176 C-41.663 114.953 -42.568 116.733 -43.472 118.513 C-44.022 119.581 -44.571 120.649 -45.137 121.75 C-45.618 122.694 -46.1 123.637 -46.596 124.609 C-48.688 128.171 -50.054 129.685 -54 131 C-60.12 131.572 -63.93 130.034 -69.188 127.25 C-69.886 126.902 -70.584 126.554 -71.303 126.195 C-80.13 121.66 -80.13 121.66 -81.68 116.922 C-82.169 111.476 -81.85 107.181 -80 102 C-77 101 -77 101 -75.21 101.637 C-74.232 102.157 -74.232 102.157 -73.234 102.688 C-72.509 103.056 -71.783 103.425 -71.035 103.805 C-69.524 104.595 -68.016 105.392 -66.512 106.195 C-61.66 108.643 -58.433 109.746 -53 108 C-51.163 106.288 -51.163 106.288 -50.062 103.875 C-49.584 102.977 -49.106 102.078 -48.613 101.152 C-47.815 99.592 -47.815 99.592 -47 98 C-46.311 96.77 -45.616 95.542 -44.918 94.316 C-41.193 87.702 -38.069 81.614 -37 74 C-36.01 75.485 -36.01 75.485 -35 77 C-34.562 76.1 -34.123 75.2 -33.672 74.273 C-28.692 64.141 -23.368 54.217 -17.93 44.324 C-17.451 43.448 -16.972 42.571 -16.479 41.668 C-15.477 39.861 -14.453 38.066 -13.41 36.283 C-9.741 29.902 -7.52 23.831 -5.812 16.688 C-3.004 5.29 -3.004 5.29 0 0 Z " fill="#8C8E90" transform="translate(433,292)"/>
  <ns0:path d="M0 0 C15.801 8.897 29.765 22.226 37 39 C37.454 40.052 37.907 41.104 38.375 42.188 C39.219 45.987 39.103 48.237 38 52 C34.768 56.774 31.639 60.328 26 62 C11.075 62.92 -0.829 54.153 -11.508 44.805 C-17.104 39.512 -21.227 33.697 -25 27 C-25.362 26.372 -25.724 25.744 -26.098 25.098 C-28.57 20.211 -28.289 15.32 -28 10 C-28.99 11.485 -28.99 11.485 -30 13 C-32.625 13.188 -32.625 13.188 -35 13 C-35.492 7.096 -34.488 2.87 -31 -2 C-22.058 -9.153 -9.081 -4.513 0 0 Z M-23 2 C-22.67 2.66 -22.34 3.32 -22 4 C-21.67 3.34 -21.34 2.68 -21 2 C-21.66 2 -22.32 2 -23 2 Z M-12 21 C-13.521 25.26 -13.016 28.693 -11.27 32.848 C-7.259 39.647 -0.628 45.67 7 48 C10.547 48.407 12.797 48.601 16 47 C17.671 43.658 16.973 40.458 16 37 C14.269 33.779 14.269 33.779 12 31 C11.402 30.154 10.804 29.309 10.188 28.438 C5.513 23.228 0.935 20.605 -5.887 19.066 C-8.504 18.984 -9.836 19.55 -12 21 Z " fill="#272F37" transform="translate(142,276)"/>
  <ns0:path d="M0 0 C3.341 0.483 6.284 1.401 9.388 2.702 C10.223 3.05 11.057 3.397 11.917 3.755 C12.807 4.131 13.697 4.507 14.613 4.895 C15.542 5.283 16.47 5.672 17.427 6.072 C19.388 6.895 21.349 7.719 23.309 8.546 C26.289 9.803 29.272 11.051 32.256 12.299 C34.167 13.101 36.078 13.904 37.988 14.707 C38.872 15.077 39.755 15.447 40.666 15.828 C56.658 22.588 56.658 22.588 60 27 C60.848 30.332 61.12 33.434 61.098 36.863 C61.094 37.75 61.091 38.636 61.088 39.549 C61.075 40.917 61.075 40.917 61.062 42.312 C61.058 43.244 61.053 44.175 61.049 45.135 C61.037 47.423 61.021 49.712 61 52 C57.235 53.255 56.333 52.563 52.758 51.008 C51.701 50.554 50.645 50.101 49.556 49.633 C48.424 49.136 47.292 48.638 46.125 48.125 C44.966 47.623 43.806 47.122 42.612 46.605 C40.227 45.573 37.844 44.538 35.463 43.5 C32.282 42.122 29.09 40.772 25.891 39.438 C24.956 39.045 24.021 38.653 23.058 38.25 C21.325 37.523 19.589 36.8 17.852 36.083 C4.454 30.411 4.454 30.411 1.818 26.04 C-1.213 18.483 -1.41 9.061 -1 1 C-0.67 0.67 -0.34 0.34 0 0 Z " fill="#1F1F2E" transform="translate(187,247)"/>
  <ns0:path d="M0 0 C4.754 0.532 8.664 1.475 13.035 3.406 C14.729 4.145 14.729 4.145 16.457 4.898 C17.647 5.427 18.837 5.955 20.062 6.5 C22.561 7.599 25.061 8.693 27.562 9.785 C28.187 10.059 28.812 10.333 29.456 10.615 C33.481 12.369 37.534 14.027 41.625 15.621 C42.632 16.016 43.638 16.41 44.676 16.816 C46.557 17.547 48.443 18.265 50.334 18.969 C53.918 20.371 56.433 21.363 59.016 24.266 C60.268 27.744 60.813 31.156 61.188 34.812 C61.269 35.486 61.351 36.16 61.436 36.854 C61.975 41.591 62.069 46.234 62 51 C56.71 50.465 52.356 49.118 47.512 46.902 C46.815 46.592 46.118 46.282 45.4 45.962 C43.158 44.962 40.923 43.95 38.688 42.938 C37.152 42.249 35.616 41.561 34.08 40.874 C31.074 39.529 28.07 38.179 25.068 36.826 C21.665 35.295 18.253 33.788 14.832 32.297 C13.991 31.93 13.151 31.562 12.284 31.184 C10.808 30.54 9.33 29.898 7.85 29.26 C5.131 28.063 3.122 27.122 1 25 C0.114 21.678 -0.12 18.564 -0.098 15.137 C-0.094 14.25 -0.091 13.364 -0.088 12.451 C-0.08 11.539 -0.071 10.627 -0.062 9.688 C-0.058 8.756 -0.053 7.825 -0.049 6.865 C-0.037 4.577 -0.021 2.288 0 0 Z " fill="#212233" transform="translate(100,211)"/>
  <ns0:path d="M0 0 C7.856 3.457 14.353 8.816 18.938 16.062 C20.132 19.366 20.529 21.521 20 25 C18.625 27.375 18.625 27.375 16 29 C8.886 30.557 3.078 28.294 -3.152 24.926 C-8.018 21.636 -12.351 17.299 -15 12 C-15.203 9.941 -15.203 9.941 -15.25 7.562 C-15.289 6.389 -15.289 6.389 -15.328 5.191 C-14.923 2.483 -14.115 1.678 -12 0 C-8.207 -1.896 -4.017 -0.904 0 0 Z " fill="#83878E" transform="translate(290,365)"/>
  <ns0:path d="M0 0 C0.99 0 1.98 0 3 0 C2.413 3.362 1.74 6.669 1 10 C0.751 11.167 0.502 12.333 0.246 13.535 C-2.909 26.68 -9.551 37.982 -16.138 49.68 C-19.103 54.967 -21.984 60.298 -24.875 65.625 C-26.581 68.751 -28.29 71.876 -30 75 C-30.33 75 -30.66 75 -31 75 C-30.911 72.895 -30.803 70.791 -30.688 68.688 C-30.629 67.516 -30.571 66.344 -30.512 65.137 C-29.63 56.048 -26.422 48.117 -22.062 40.188 C-21.35 38.86 -21.35 38.86 -20.623 37.505 C-19.093 34.664 -17.547 31.832 -16 29 C-14.916 26.999 -13.833 24.998 -12.75 22.996 C-8.571 15.29 -4.377 7.596 0 0 Z " fill="#000204" transform="translate(428,295)"/>
  <ns0:path d="M0 0 C7.114 4.142 13.226 10.236 15.691 18.246 C16.196 21.142 16.332 23.335 15 26 C11.34 27.83 7.957 27.598 4.082 26.414 C-3.177 23.256 -10.03 17.176 -13.125 9.812 C-14.008 5.967 -14.326 3.712 -13 0 C-8.516 -2.973 -4.774 -1.851 0 0 Z " fill="#84878D" transform="translate(143,297)"/>
  <ns0:path d="M0 0 C15.424 8.684 30.443 22.255 37 39 C37.373 40.658 37.718 42.324 38 44 C35.509 43.027 34.247 42.434 32.902 40.074 C32.584 39.287 32.266 38.499 31.938 37.688 C25.94 24.955 15.061 14.17 2 9 C1.505 8.01 1.505 8.01 1 7 C-6.523 2.657 -14.495 2.245 -23 2 C-23.108 2.583 -23.217 3.165 -23.328 3.766 C-24.48 7.595 -27.01 10.403 -30 13 C-32.875 13.438 -32.875 13.438 -35 13 C-35.492 7.096 -34.488 2.87 -31 -2 C-22.058 -9.153 -9.081 -4.513 0 0 Z " fill="#020204" transform="translate(142,276)"/>
  <ns0:path d="M0 0 C3.407 2.148 5.778 4.113 7 8 C7.456 13.016 7.13 16.007 4 20 C1.057 23.203 -1.175 24.305 -5.438 24.562 C-10.444 24.354 -12.601 22.569 -16 19 C-17.88 15.241 -17.658 11.083 -17 7 C-12.957 -0.139 -7.991 -2.029 0 0 Z " fill="#797C81" transform="translate(369,307)"/>
  <ns0:path d="M0 0 C13.56 9.877 29.113 23.1 32.543 40.25 C32.646 41.096 32.749 41.941 32.855 42.812 C30.668 42.375 30.668 42.375 27.855 40.812 C26.479 38.625 25.348 36.363 24.18 34.059 C22.874 31.844 21.745 30.619 19.73 29.062 C16.829 26.792 15.517 25.052 13.855 21.812 C13.464 21.049 13.072 20.286 12.668 19.5 C12.4 18.943 12.132 18.386 11.855 17.812 C11.195 17.812 10.535 17.812 9.855 17.812 C9.855 17.152 9.855 16.493 9.855 15.812 C9.287 15.56 8.719 15.307 8.133 15.047 C5.564 13.655 3.621 11.98 1.418 10.062 C-4.267 5.423 -10.394 2.59 -17.145 -0.188 C-17.933 -0.566 -18.722 -0.945 -19.535 -1.336 C-23.053 -2.484 -26.424 -2.478 -30.082 -2.438 C-30.772 -2.445 -31.463 -2.453 -32.174 -2.461 C-38.062 -2.439 -42.779 -1.269 -47.707 1.938 C-51.016 3.742 -52.488 4.256 -56.145 3.812 C-56.632 -0.28 -56.344 -1.888 -54.02 -5.375 C-39.913 -20.597 -13.931 -9.691 0 0 Z " fill="#020304" transform="translate(306.14453125,351.1875)"/>
  <ns0:path d="M0 0 C3.223 1.302 6.445 2.604 9.668 3.906 C12.751 4.918 14.804 5.452 18 5 C20.201 2.561 20.201 2.561 22 0 C22.66 0 23.32 0 24 0 C23.061 7.411 21.924 13.58 18 20 C14.814 22.124 13.775 22.253 10.117 21.625 C5.804 20.352 1.953 18.112 -2 16 C-1.34 10.72 -0.68 5.44 0 0 Z " fill="#E49A06" transform="translate(363,380)"/>
  <ns0:path d="M0 0 C3.539 1.651 4.811 2.716 7 6 C7.441 10.555 7.632 12.883 5.375 16.875 C1.532 20.314 -1.516 21 -6.625 21 C-10 20 -10 20 -12.438 17.438 C-14.46 12.988 -14.693 10.851 -14 6 C-9.652 0.622 -6.829 -0.463 0 0 Z " fill="#808183" transform="translate(421,220)"/>
  <ns0:path d="M0 0 C2 2 2 2 2.5 4.812 C4.299 8.635 5.237 8.78 9 10.375 C13.686 12.471 13.686 12.471 15.137 14.914 C16.147 18.741 16.336 22.216 15 26 C14.34 26.66 13.68 27.32 13 28 C8.155 27.775 3.354 26.636 0 23 C-2.636 17.11 -4.532 11.593 -3.215 5.176 C-2 2 -2 2 0 0 Z " fill="#929495" transform="translate(84,263)"/>
  <ns0:path d="M0 0 C6.164 1.761 11.772 4.222 17.5 7.062 C18.219 7.415 18.937 7.768 19.678 8.131 C24.876 10.753 24.876 10.753 26 13 C26.04 15 26.043 17 26 19 C19.766 19.744 15.131 17.169 9.688 14.5 C8.769 14.09 7.851 13.68 6.904 13.258 C0.458 10.113 0.458 10.113 -0.861 6.906 C-1.168 4.719 -1.168 4.719 -1 1 C-0.67 0.67 -0.34 0.34 0 0 Z " fill="#009BD2" transform="translate(192,285)"/>
  <ns0:path d="M0 0 C4.562 0.567 8.137 1.771 12.25 3.812 C13.286 4.314 14.323 4.815 15.391 5.332 C18.107 7.068 19.049 7.961 20 11 C19.625 13.75 19.625 13.75 19 16 C12.634 15.585 7.317 13.558 2 10 C-0.207 6.91 -1.184 5.395 -0.688 1.625 C-0.461 1.089 -0.234 0.553 0 0 Z " fill="#00A3DE" transform="translate(101,246)"/>
  <ns0:path d="M0 0 C4.053 1.225 7.444 2.699 11 5 C10.885 6.751 10.758 8.501 10.625 10.25 C10.555 11.225 10.486 12.199 10.414 13.203 C10.015 15.896 9.365 17.67 8 20 C4.837 18.914 1.871 17.727 -1 16 C-3.281 10.958 -1.245 5.204 0 0 Z " fill="#EAEFF0" transform="translate(352,375)"/>
  <ns0:path d="M0 0 C3.3 0.33 6.6 0.66 10 1 C9.717 2.939 9.424 4.876 9.125 6.812 C8.963 7.891 8.8 8.97 8.633 10.082 C8 13 8 13 6 16 C3 16.312 3 16.312 0 16 C-2 14 -2 14 -2.012 11.25 C-1.905 10.178 -1.798 9.105 -1.688 8 C-1.588 6.928 -1.489 5.855 -1.387 4.75 C-1 2 -1 2 0 0 Z " fill="#26313C" transform="translate(357,330)"/>
  <ns0:path d="M0 0 C2.339 0.287 4.674 0.619 7 1 C5.059 15.882 5.059 15.882 3 20 C1 20.043 -1 20.041 -3 20 C-4 19 -4 19 -4.25 16.125 C-4.202 11.472 -3.388 3.388 0 0 Z " fill="#252C32" transform="translate(411,240)"/>
  <ns0:path d="M0 0 C3.375 0.688 3.375 0.688 7 2 C8.312 4.125 8.312 4.125 9 7 C9.182 7.648 9.364 8.297 9.551 8.965 C10.522 12.514 11 15.261 11 19 C8.046 18.672 6.291 18.222 3.906 16.406 C1.388 13.228 1.195 10.752 0.75 6.75 C0.6 5.487 0.451 4.223 0.297 2.922 C0.199 1.958 0.101 0.993 0 0 Z " fill="#F39C08" transform="translate(84,255)"/>
  <ns0:path d="M0 0 C3.814 1.102 6.478 1.883 9 5 C10.569 9.48 11.306 14.259 11 19 C5.25 18.25 5.25 18.25 3 16 C2.385 14.064 1.853 12.1 1.375 10.125 C1.115 9.076 0.854 8.026 0.586 6.945 C0 4 0 4 0 0 Z " fill="#F2F3F0" transform="translate(92,258)"/>
  <ns0:path d="M0 0 C1.92 5.842 -0.395 11.597 -2.932 16.976 C-5.165 21.386 -7.558 25.702 -10 30 C-11.578 24.543 -11.269 19.569 -8.734 14.438 C-7.213 11.917 -5.621 9.458 -4 7 C-3.196 5.632 -2.403 4.258 -1.625 2.875 C-1.089 1.926 -0.553 0.978 0 0 Z " fill="#EBEBE6" transform="translate(396,362)"/>
  <ns0:path d="M0 0 C1.63 0.397 3.254 0.818 4.875 1.25 C6.232 1.598 6.232 1.598 7.617 1.953 C10 3 10 3 11.32 5.109 C11.545 5.733 11.769 6.357 12 7 C11.01 8.32 10.02 9.64 9 11 C2.25 10.125 2.25 10.125 0 9 C0 6.03 0 3.06 0 0 Z " fill="#3F444C" transform="translate(244,235)"/>
  <ns0:path d="M0 0 C2.64 0.99 5.28 1.98 8 3 C8.188 5.375 8.188 5.375 8 8 C5 10 5 10 1.812 9.625 C0.42 9.316 0.42 9.316 -1 9 C-2.033 6.212 -2.045 5.132 -1.062 2.25 C-0.712 1.507 -0.361 0.765 0 0 Z " fill="#404551" transform="translate(306,164)"/>
  <ns0:path d="M0 0 C4.389 0.51 7.337 1.522 11 4 C9.875 6.5 9.875 6.5 8 9 C3.914 9.596 2.474 9.316 -1 7 C-0.67 4.69 -0.34 2.38 0 0 Z " fill="#474E58" transform="translate(104,180)"/>
  <ns0:path d="M0 0 C0.75 1.688 0.75 1.688 1 4 C-0.562 6.688 -0.562 6.688 -3 9 C-6.25 9.812 -6.25 9.812 -9 10 C-9 9.34 -9 8.68 -9 8 C-3.524 3 -3.524 3 -1 3 C-0.67 2.01 -0.34 1.02 0 0 Z " fill="#A7A8A9" transform="translate(427,230)"/>
  <ns0:path d="M0 0 C2.31 0.33 4.62 0.66 7 1 C6.67 1.99 6.34 2.98 6 4 C4.35 3.67 2.7 3.34 1 3 C0.67 2.01 0.34 1.02 0 0 Z " fill="#131518" transform="translate(411,240)"/>
  <ns0:path d="M0 0 C0.931 2.606 1.149 3.642 0.062 6.25 C-0.463 7.116 -0.463 7.116 -1 8 C-1.66 7.67 -2.32 7.34 -3 7 C-2.387 4.038 -1.746 2.619 0 0 Z " fill="#C9C8B5" transform="translate(396,362)"/>
  <ns0:path d="M0 0 C2 1 2 1 2 1 Z " fill="#DD9B31" transform="translate(94,274)"/>
</svg>