<?xml version="1.0" ?>
<svg xmlns:ns0="http://www.w3.org/2000/svg" xmlns="http://www.w3.org/2000/svg" width="512" height="512" viewBox="0 0 512 512" style="background-color: transparent;">
  <ns0:path d="M0 0 C1.64 0.108 3.281 0.215 4.921 0.322 C8.349 0.547 11.778 0.774 15.206 1.003 C19.539 1.292 23.872 1.575 28.206 1.857 C59.182 3.872 59.182 3.872 72.676 5.327 C79.655 6.075 86.639 6.498 93.647 6.867 C132.085 8.925 132.085 8.925 139.316 16.352 C143.723 25.818 144.595 37.082 146.012 47.355 C146.183 48.57 146.354 49.785 146.53 51.036 C146.887 53.581 147.241 56.126 147.593 58.672 C148.128 62.534 148.673 66.395 149.219 70.256 C149.567 72.747 149.915 75.239 150.262 77.73 C150.422 78.866 150.583 80.002 150.748 81.172 C151.791 88.765 152.477 96.331 153.004 103.977 C148.054 104.307 143.104 104.637 138.004 104.977 C138.334 112.897 138.664 120.817 139.004 128.977 C138.344 129.307 137.684 129.637 137.004 129.977 C135.87 131.993 135.87 131.993 135.004 133.977 C134.713 132.998 134.421 132.02 134.121 131.012 C131.93 123.918 129.756 117.719 125.238 111.711 C124.004 109.977 124.004 109.977 123.004 106.977 C121.15 105.893 121.15 105.893 119.004 104.977 C117.747 104.153 116.498 103.319 115.254 102.477 C106.988 97.331 99.269 97.403 89.875 99.438 C79.486 102.67 72.862 110.667 67.629 119.793 C63.272 128.329 61.752 136.492 62.164 146.059 C62.004 147.977 62.004 147.977 60.004 149.977 C57.681 150.377 55.347 150.716 53.004 150.977 C53.004 152.627 53.004 154.277 53.004 155.977 C52.674 155.977 52.344 155.977 52.004 155.977 C52.004 154.327 52.004 152.677 52.004 150.977 C51.234 151.019 50.464 151.061 49.67 151.104 C42.417 151.498 35.163 151.882 27.908 152.254 C24.178 152.445 20.449 152.641 16.719 152.846 C13.121 153.043 9.523 153.23 5.924 153.41 C4.55 153.48 3.177 153.554 1.803 153.632 C-0.119 153.741 -2.041 153.835 -3.964 153.928 C-5.059 153.986 -6.154 154.044 -7.282 154.103 C-9.996 153.977 -9.996 153.977 -12.996 151.977 C-13.444 149.414 -13.733 146.996 -13.934 144.414 C-14.604 137.929 -15.65 132.667 -18.996 126.977 C-19.808 125.586 -19.808 125.586 -20.637 124.168 C-23.652 119.232 -26.574 114.767 -30.996 110.977 C-31.572 110.425 -32.149 109.873 -32.742 109.305 C-37.447 105.143 -42.145 102.912 -48.059 101.039 C-48.719 100.828 -49.379 100.616 -50.06 100.398 C-62.152 96.876 -74.109 100.285 -84.98 106.062 C-99.389 115.208 -109.488 129.339 -113.476 145.979 C-114.198 149.295 -114.826 152.615 -115.418 155.957 C-115.996 158.977 -115.996 158.977 -116.996 160.977 C-120.956 160.977 -124.916 160.977 -128.996 160.977 C-129.326 154.377 -129.656 147.777 -129.996 140.977 C-134.946 140.647 -139.896 140.317 -144.996 139.977 C-144.996 139.647 -144.996 139.317 -144.996 138.977 C-139.056 137.987 -133.116 136.997 -126.996 135.977 C-126.666 126.737 -126.336 117.497 -125.996 107.977 C-128.563 107.988 -131.129 108 -133.773 108.012 C-136.286 108.02 -138.798 108.026 -141.31 108.031 C-143.043 108.036 -144.776 108.043 -146.509 108.052 C-149.014 108.064 -151.519 108.07 -154.023 108.074 C-155.168 108.082 -155.168 108.082 -156.335 108.09 C-161.694 108.09 -166.597 107.576 -171.996 106.977 C-171.996 100.047 -171.996 93.117 -171.996 85.977 C-176.142 86.117 -180.288 86.263 -184.434 86.414 C-185.618 86.453 -186.802 86.493 -188.021 86.533 C-189.146 86.575 -190.271 86.617 -191.43 86.66 C-192.472 86.697 -193.514 86.733 -194.588 86.771 C-196.946 86.712 -196.946 86.712 -197.996 87.977 C-198.233 90.835 -198.418 93.675 -198.559 96.539 C-198.623 97.749 -198.623 97.749 -198.689 98.982 C-198.796 100.98 -198.897 102.978 -198.996 104.977 C-200.662 105.019 -202.33 105.017 -203.996 104.977 C-206.462 102.511 -205.23 96.037 -205.246 92.727 C-205.267 91.676 -205.287 90.625 -205.309 89.543 C-205.314 88.526 -205.319 87.509 -205.324 86.461 C-205.334 85.53 -205.343 84.599 -205.353 83.64 C-204.784 79.388 -203.16 76.916 -199.843 74.238 C-196.098 72.578 -192.489 72.139 -188.453 71.797 C-187.111 71.677 -187.111 71.677 -185.742 71.554 C-171.24 70.433 -156.64 70.757 -142.105 70.839 C-138.021 70.86 -133.937 70.869 -129.854 70.879 C-121.901 70.9 -113.949 70.934 -105.996 70.977 C-105.862 69.896 -105.728 68.815 -105.59 67.701 C-105.411 66.259 -105.231 64.818 -105.052 63.376 C-104.964 62.666 -104.876 61.957 -104.786 61.226 C-100.145 23.972 -100.145 23.972 -92.121 15.414 C-87.619 12.017 -81.95 11.476 -76.52 10.617 C-73.126 10.123 -73.126 10.123 -70.602 9.012 C-66.818 7.509 -62.927 6.903 -58.934 6.164 C-50.875 4.632 -42.952 2.796 -35.06 0.552 C-23.653 -2.508 -11.647 -0.78 0 0 Z M-58.824 17.656 C-60.191 17.915 -60.191 17.915 -61.586 18.18 C-63.5 18.545 -65.412 18.913 -67.324 19.285 C-70.249 19.852 -73.177 20.405 -76.105 20.957 C-77.97 21.314 -79.835 21.672 -81.699 22.031 C-83.009 22.278 -83.009 22.278 -84.345 22.53 C-85.567 22.77 -85.567 22.77 -86.813 23.015 C-87.527 23.153 -88.24 23.29 -88.974 23.432 C-91.202 24.032 -93.021 24.785 -94.996 25.977 C-96.063 28.355 -96.063 28.355 -96.602 31.227 C-96.839 32.306 -97.077 33.384 -97.322 34.496 C-98.448 40.307 -99.434 46.123 -100.309 51.977 C-100.503 53.177 -100.697 54.377 -100.896 55.613 C-101.07 56.764 -101.243 57.916 -101.422 59.102 C-101.581 60.135 -101.74 61.169 -101.904 62.234 C-102.002 65.163 -101.547 66.533 -99.996 68.977 C-90.718 69.13 -81.47 68.74 -72.206 68.287 C-70.472 68.204 -68.738 68.128 -67.004 68.057 C-64.472 67.954 -61.941 67.832 -59.41 67.707 C-58.254 67.665 -58.254 67.665 -57.074 67.621 C-52.635 67.378 -49.444 66.88 -45.996 63.977 C-45.024 61.968 -45.024 61.968 -44.785 59.629 C-44.648 58.741 -44.51 57.852 -44.368 56.937 C-44.245 55.96 -44.123 54.983 -43.996 53.977 C-43.855 52.931 -43.714 51.886 -43.569 50.809 C-43.133 47.389 -42.746 43.966 -42.371 40.539 C-42.237 39.389 -42.103 38.238 -41.965 37.053 C-41.181 29.994 -40.818 23.077 -40.996 15.977 C-47.17 15.785 -52.772 16.476 -58.824 17.656 Z M-11.996 22.977 C-13.651 30.346 -13.216 38.145 -13.246 45.664 C-13.267 46.969 -13.287 48.274 -13.309 49.619 C-13.314 50.875 -13.319 52.132 -13.324 53.426 C-13.334 54.564 -13.343 55.701 -13.353 56.874 C-12.938 60.483 -12.458 62.282 -9.996 64.977 C-7.287 65.508 -5.178 65.699 -2.461 65.684 C-1.709 65.699 -0.957 65.714 -0.182 65.729 C2.235 65.772 4.65 65.781 7.066 65.789 C8.635 65.812 10.203 65.838 11.771 65.865 C14.917 65.916 18.061 65.942 21.208 65.948 C24.495 65.956 27.776 66.023 31.062 66.126 C31.88 66.145 32.698 66.164 33.541 66.183 C35.099 66.219 36.658 66.27 38.215 66.338 C41.562 66.394 43.638 66.213 46.479 64.379 C48.506 61.186 48.491 59.04 48.465 55.27 C48.459 53.306 48.459 53.306 48.453 51.303 C48.441 50.623 48.428 49.943 48.416 49.242 C48.379 47.181 48.375 45.122 48.375 43.061 C48.349 33.833 48.349 33.833 46.004 24.977 C42.13 21.511 37.83 21.435 32.844 21.246 C32.058 21.206 31.272 21.166 30.463 21.124 C27.956 21 25.449 20.895 22.941 20.789 C21.283 20.708 19.625 20.625 17.967 20.541 C14.019 20.347 10.072 20.186 6.122 20.05 C4.176 19.983 2.231 19.903 0.286 19.822 C-0.775 19.794 -1.836 19.767 -2.93 19.738 C-4.274 19.697 -4.274 19.697 -5.646 19.655 C-8.569 20.055 -9.898 20.926 -11.996 22.977 Z M72.004 25.977 C71.712 28.779 71.608 31.357 71.641 34.16 C71.64 34.971 71.64 35.783 71.639 36.619 C71.641 38.336 71.651 40.053 71.668 41.771 C71.691 44.4 71.688 47.029 71.682 49.658 C71.687 51.326 71.694 52.993 71.703 54.66 C71.702 55.448 71.701 56.235 71.7 57.047 C71.75 60.876 71.83 62.716 74.004 65.977 C76.922 66.49 76.922 66.49 80.391 66.488 C81.037 66.506 81.682 66.524 82.348 66.543 C84.462 66.598 86.577 66.632 88.691 66.664 C90.142 66.695 91.593 66.728 93.043 66.761 C96.679 66.839 100.314 66.897 103.95 66.947 C105.879 66.975 107.807 67.009 109.736 67.043 C112.95 67.098 116.164 67.136 119.379 67.164 C120.334 67.177 121.288 67.19 122.272 67.204 C123.14 67.205 124.008 67.206 124.902 67.207 C126.026 67.213 126.026 67.213 127.173 67.219 C129.254 67.132 129.254 67.132 131.004 64.977 C131.04 62.382 130.955 59.93 130.754 57.352 C130.699 56.6 130.645 55.848 130.589 55.073 C130.408 52.706 130.206 50.342 130.004 47.977 C129.947 47.222 129.89 46.468 129.832 45.69 C129.665 43.533 129.465 41.38 129.254 39.227 C129.135 37.953 129.017 36.679 128.895 35.367 C127.779 31.12 126.559 29.543 123.004 26.977 C117.228 26.022 111.42 25.689 105.578 25.371 C104.274 25.3 104.274 25.3 102.944 25.226 C101.121 25.128 99.298 25.032 97.475 24.937 C94.682 24.789 91.889 24.626 89.096 24.463 C87.319 24.369 85.542 24.276 83.766 24.184 C82.931 24.133 82.097 24.082 81.237 24.029 C76.33 23.77 76.33 23.77 72.004 25.977 Z M27.816 75.352 C26.585 75.421 25.354 75.491 24.086 75.562 C20.903 75.673 20.903 75.673 19.004 77.977 C18.723 80.348 18.723 80.348 18.816 82.977 C18.823 83.863 18.829 84.75 18.836 85.664 C18.858 88.003 18.858 88.003 20.004 89.977 C23.962 90.063 27.92 90.117 31.879 90.164 C33.571 90.202 33.571 90.202 35.297 90.24 C36.911 90.255 36.911 90.255 38.559 90.27 C39.554 90.285 40.549 90.301 41.574 90.317 C42.376 90.205 43.178 90.092 44.004 89.977 C46.213 86.663 46.229 85.632 46.129 81.789 C46.111 80.888 46.093 79.987 46.074 79.059 C46.051 78.372 46.028 77.684 46.004 76.977 C39.677 74.622 34.498 74.943 27.816 75.352 Z M116.004 77.977 C115.853 79.764 115.782 81.558 115.754 83.352 C115.728 84.329 115.702 85.306 115.676 86.312 C115.82 88.942 115.82 88.942 117.078 90.805 C120.04 92.607 122.638 92.373 126.066 92.352 C127.316 92.359 128.565 92.367 129.852 92.375 C130.892 92.244 131.932 92.112 133.004 91.977 C135.002 88.979 135.279 88.343 135.254 84.977 C135.259 84.296 135.264 83.615 135.27 82.914 C135.103 80.652 135.103 80.652 133.004 77.977 C129.435 76.906 125.962 76.842 122.254 76.852 C121.29 76.849 120.325 76.846 119.332 76.844 C117.043 76.715 117.043 76.715 116.004 77.977 Z " fill="#0059B9" transform="translate(275.99609375,168.0234375)"/>
  <ns0:path d="M0 0 C10.393 7.323 16.127 18.175 18.898 30.297 C21.293 44.25 17.875 57.509 10.438 69.438 C7.655 73.013 4.666 76.262 1.438 79.438 C0.923 79.951 0.409 80.464 -0.121 80.992 C-7.766 87.966 -18.57 92.022 -28.883 91.754 C-44.947 89.857 -58.082 83.258 -68.688 70.977 C-74.556 63.03 -78.135 52.854 -77.25 42.938 C-76.151 38.942 -75.459 37.131 -72.188 34.625 C-68.838 31.858 -67.424 29.394 -65.562 25.438 C-63.362 22.328 -60.976 19.383 -58.562 16.438 C-58.015 15.753 -57.467 15.069 -56.902 14.363 C-42.475 -2.998 -20.808 -12.513 0 0 Z M-36.301 28.461 C-40.568 35.145 -40.244 42.805 -39.562 50.438 C-38.123 56.213 -34.712 60.005 -29.828 63.297 C-24.834 65.811 -20.288 66.213 -14.914 64.684 C-8.334 61.848 -4.774 57.766 -1.562 51.438 C0.637 44.838 0.778 35.223 -2.188 28.812 C-4.718 24.665 -8.209 21.614 -12.562 19.438 C-23.349 18.439 -29.185 20.234 -36.301 28.461 Z " fill="#282E36" transform="translate(235.5625,286.5625)"/>
  <ns0:path d="M0 0 C9.069 5.79 15.263 15.447 17.64 25.876 C18.261 29.544 18.34 33.161 18.312 36.875 C18.308 37.664 18.304 38.454 18.3 39.267 C18.184 45.251 17.403 50.472 15 56 C14.71 56.691 14.42 57.382 14.121 58.094 C9.342 68.492 2.37 75.315 -7.875 80.438 C-19.492 82.529 -32.395 80.662 -42.625 74.562 C-52.001 67.88 -57.042 59.269 -59 48 C-59.206 44.646 -59.196 41.353 -59 38 C-57.175 37.412 -57.175 37.412 -55.312 36.812 C-51.129 35.182 -48.691 33.737 -46 30 C-44.844 26.771 -43.889 23.518 -42.953 20.219 C-40.345 11.411 -35.404 3.277 -27.312 -1.5 C-18.938 -5.137 -8.148 -3.615 0 0 Z M-23.312 25.75 C-26.583 32.048 -28.26 38.951 -26.5 46.004 C-24.77 51.185 -22.082 56.459 -17 59 C-10.889 59.509 -7.862 59.089 -3 55 C2.486 49.209 3.425 43.496 3.246 35.75 C2.737 30.067 1.331 25.833 -3.062 22.062 C-10.655 16.731 -17.536 18.88 -23.312 25.75 Z " fill="#282F37" transform="translate(388,281)"/>
  <ns0:path d="M0 0 C1.061 0.028 2.122 0.055 3.215 0.083 C4.442 0.135 5.669 0.186 6.934 0.238 C8.388 0.289 9.842 0.339 11.296 0.389 C15.323 0.537 19.348 0.724 23.372 0.928 C25.05 1.01 26.729 1.087 28.407 1.157 C30.864 1.261 33.318 1.382 35.773 1.508 C36.892 1.55 36.892 1.55 38.034 1.593 C42.421 1.842 45.61 2.265 48.934 5.238 C51.542 11.79 51.306 18.41 51.304 25.364 C51.309 27.432 51.345 29.497 51.383 31.564 C51.389 33.528 51.389 33.528 51.395 35.531 C51.403 36.723 51.411 37.914 51.419 39.141 C50.934 42.238 50.934 42.238 49.409 44.641 C45.941 46.878 42.846 46.674 38.867 46.5 C37.242 46.463 35.617 46.425 33.992 46.388 C33.155 46.362 32.319 46.335 31.458 46.308 C28.227 46.219 24.998 46.211 21.766 46.205 C18.63 46.192 15.495 46.141 12.36 46.086 C10.757 46.062 9.155 46.048 7.552 46.043 C5.19 46.033 2.83 45.993 0.469 45.945 C-0.247 45.949 -0.962 45.953 -1.699 45.957 C-3.707 45.898 -3.707 45.898 -7.066 45.238 C-10.329 41.668 -10.433 38.391 -10.395 33.688 C-10.389 32.431 -10.384 31.175 -10.379 29.881 C-10.358 28.576 -10.338 27.271 -10.316 25.926 C-10.311 24.632 -10.306 23.339 -10.301 22.006 C-10.188 8.232 -10.188 8.232 -9.066 3.238 C-6.109 0.349 -4.067 -0.125 0 0 Z " fill="#242232" transform="translate(273.06640625,187.76171875)"/>
  <ns0:path d="M0 0 C0.312 8.796 -0.513 17.363 -1.544 26.082 C-1.814 28.39 -2.065 30.701 -2.314 33.012 C-2.486 34.495 -2.658 35.978 -2.832 37.461 C-2.94 38.486 -2.94 38.486 -3.05 39.532 C-3.563 43.669 -4.438 46.682 -7 50 C-10.729 51.243 -14.327 51.343 -18.219 51.535 C-19.032 51.578 -19.845 51.621 -20.683 51.665 C-22.408 51.756 -24.132 51.844 -25.857 51.93 C-28.463 52.061 -31.067 52.199 -33.672 52.338 C-42.119 52.779 -50.538 53.162 -59 53 C-61.142 47.982 -60.943 44.101 -59.988 38.863 C-59.859 38.102 -59.73 37.341 -59.598 36.556 C-59.323 34.956 -59.041 33.357 -58.752 31.759 C-58.313 29.313 -57.902 26.863 -57.494 24.412 C-57.223 22.854 -56.95 21.296 -56.676 19.738 C-56.493 18.641 -56.493 18.641 -56.306 17.522 C-55.794 14.762 -55.307 12.453 -53.719 10.109 C-51.468 8.656 -49.442 8.114 -46.828 7.512 C-45.222 7.141 -45.222 7.141 -43.584 6.763 C-37.689 5.508 -31.786 4.32 -25.862 3.21 C-23.737 2.81 -21.615 2.398 -19.492 1.986 C-12.945 0.739 -6.682 -0.389 0 0 Z " fill="#1C1B24" transform="translate(235,184)"/>
  <ns0:path d="M0 0 C1.29 0.064 1.29 0.064 2.606 0.129 C4.429 0.221 6.252 0.319 8.075 0.422 C10.836 0.576 13.596 0.711 16.357 0.844 C18.134 0.936 19.911 1.03 21.688 1.125 C22.501 1.165 23.315 1.204 24.154 1.245 C28.38 1.493 32.544 1.933 36.722 2.622 C37.529 2.755 38.335 2.888 39.166 3.025 C41.923 4.059 42.812 5.332 44.309 7.828 C44.925 10.45 44.925 10.45 45.258 13.406 C45.383 14.485 45.509 15.564 45.639 16.676 C45.816 18.36 45.816 18.36 45.996 20.078 C46.126 21.185 46.255 22.293 46.389 23.434 C47.042 29.246 47.672 34.981 47.309 40.828 C45.309 42.828 45.309 42.828 43.478 43.071 C42.729 43.067 41.979 43.063 41.207 43.059 C40.339 43.058 39.471 43.056 38.577 43.055 C37.622 43.042 36.667 43.029 35.684 43.016 C34.693 43.007 33.703 42.998 32.683 42.99 C29.224 42.95 25.767 42.89 22.309 42.828 C20.912 42.808 19.516 42.789 18.12 42.77 C14.468 42.717 10.817 42.646 7.167 42.563 C5.72 42.531 4.273 42.505 2.826 42.483 C0.782 42.449 -1.261 42.397 -3.305 42.34 C-4.488 42.314 -5.672 42.287 -6.892 42.26 C-7.816 42.118 -8.74 41.975 -9.691 41.828 C-12.229 38.022 -11.997 34.924 -11.992 30.512 C-11.996 29.699 -12.001 28.887 -12.005 28.05 C-12.011 26.335 -12.011 24.619 -12.007 22.904 C-12.004 20.272 -12.027 17.641 -12.053 15.01 C-12.055 13.344 -12.056 11.678 -12.055 10.012 C-12.064 9.222 -12.073 8.433 -12.083 7.619 C-12.064 5.404 -12.064 5.404 -11.691 1.828 C-7.737 -0.808 -4.554 -0.263 0 0 Z " fill="#252434" transform="translate(359.69140625,192.171875)"/>
  <ns0:path d="M0 0 C4.976 0.511 9.953 1.011 14.93 1.51 C20.828 2.103 26.727 2.696 32.624 3.3 C42.529 4.311 52.436 5.283 62.353 6.18 C64.316 6.36 66.279 6.539 68.243 6.719 C71.945 7.057 75.649 7.384 79.353 7.705 C81.012 7.855 82.67 8.006 84.329 8.158 C85.082 8.22 85.836 8.282 86.612 8.346 C90.208 8.683 92.084 9.015 95.152 11.061 C95.445 13.444 95.445 13.444 95.34 16.186 C95.299 17.551 95.299 17.551 95.258 18.944 C95.223 19.643 95.188 20.341 95.152 21.061 C92.773 22.251 91.238 22.195 88.59 22.186 C87.381 22.19 87.381 22.19 86.149 22.194 C84.152 22.061 84.152 22.061 83.152 21.061 C79.01 20.814 79.01 20.814 75.152 22.061 C73.174 22.031 73.174 22.031 70.7 21.808 C69.764 21.727 68.827 21.646 67.863 21.562 C66.317 21.419 66.317 21.419 64.739 21.273 C63.656 21.177 62.573 21.081 61.457 20.982 C57.86 20.663 54.264 20.335 50.668 20.006 C48.174 19.783 45.68 19.559 43.187 19.337 C37.951 18.868 32.715 18.395 27.48 17.919 C21.435 17.369 15.39 16.826 9.345 16.285 C3.526 15.764 -2.293 15.241 -8.112 14.717 C-10.585 14.494 -13.059 14.271 -15.532 14.049 C-18.994 13.738 -22.456 13.424 -25.917 13.108 C-26.939 13.017 -27.962 12.925 -29.016 12.831 C-39.354 11.883 -39.354 11.883 -42.848 11.061 C-43.178 10.401 -43.508 9.741 -43.848 9.061 C-45.847 9.019 -47.848 9.02 -49.848 9.061 C-50.178 9.391 -50.508 9.721 -50.848 10.061 C-56.819 10.553 -62.245 10.207 -67.848 8.061 C-68.954 5.848 -69.043 4.514 -69.098 2.061 C-69.123 1.36 -69.149 0.659 -69.176 -0.064 C-69.067 -0.683 -68.959 -1.301 -68.848 -1.939 C-54.381 -11.583 -16.656 -1.719 0 0 Z " fill="#747576" transform="translate(309.8475341796875,142.93890380859375)"/>
  <ns0:path d="M0 0 C2.044 0.461 4.088 0.92 6.133 1.379 C8.738 1.975 11.343 2.574 13.94 3.203 C25.173 5.912 36.382 6.171 47.871 6.397 C49.774 6.437 49.774 6.437 51.715 6.477 C53.439 6.503 53.439 6.503 55.199 6.53 C57.812 6.688 57.812 6.688 58.812 7.688 C58.912 9.433 58.943 11.182 58.945 12.93 C58.947 13.996 58.948 15.062 58.949 16.16 C58.945 17.283 58.941 18.406 58.938 19.562 C58.941 20.678 58.945 21.793 58.949 22.941 C58.948 24.01 58.947 25.079 58.945 26.18 C58.944 27.163 58.943 28.146 58.942 29.16 C58.812 31.688 58.812 31.688 57.812 34.688 C28.71 41.295 1.992 33.488 -25.188 22.688 C-26.188 21.688 -26.188 21.688 -26.301 19.463 C-26.296 18.504 -26.291 17.546 -26.285 16.559 C-26.282 15.524 -26.279 14.49 -26.275 13.424 C-26.267 12.335 -26.259 11.247 -26.25 10.125 C-26.245 9.033 -26.241 7.94 -26.236 6.814 C-26.224 4.105 -26.208 1.396 -26.188 -1.312 C-17.463 -3.836 -8.624 -2.071 0 0 Z " fill="#8C8E90" transform="translate(88.1875,301.3125)"/>
  <ns0:path d="M0 0 C0.343 1.665 0.674 3.332 1 5 C1.205 6.042 1.205 6.042 1.414 7.105 C1.81 11.012 1.464 13.279 -0.691 16.629 C-7.168 24.187 -13.598 29.009 -23.592 29.94 C-27.537 30.038 -31.174 29.339 -35 28.438 C-35.785 28.256 -36.571 28.075 -37.38 27.888 C-46.284 25.663 -52.744 21.574 -58 14 C-60.174 9.727 -61.154 6.747 -61 2 C-17.579 -0.388 -17.579 -0.388 0 0 Z " fill="#191C20" transform="translate(328,319)"/>
  <ns0:path d="M0 0 C5.276 4.319 9.007 8.951 12.438 14.812 C13.271 16.197 13.271 16.197 14.121 17.609 C19.713 27.318 20.772 34.657 20.438 45.812 C17.798 45.483 15.158 45.153 12.438 44.812 C12.146 43.834 11.855 42.856 11.555 41.848 C9.134 34 6.566 27.347 1.438 20.812 C0.695 19.761 -0.048 18.709 -0.812 17.625 C-8.037 10.237 -16.587 6.823 -26.812 6.438 C-37.318 6.63 -45.268 10.642 -53.562 16.812 C-54.429 17.431 -55.295 18.05 -56.188 18.688 C-63.032 24.812 -70.138 32.769 -74.125 41.062 C-76.022 44.691 -78.312 46.356 -81.562 48.812 C-83.888 44.162 -80.111 35.646 -78.562 30.812 C-75.417 22.921 -71.141 16.195 -65.562 9.812 C-65.053 9.209 -64.544 8.606 -64.02 7.984 C-47.062 -10.606 -20.565 -14.589 0 0 Z " fill="#020204" transform="translate(242.5625,275.1875)"/>
  <ns0:path d="M0 0 C6.214 5.911 8.708 10.837 8.938 19.5 C8.957 26.441 7.975 31.925 3.562 37.438 C-1.06 41.801 -5.914 44.298 -12.305 44.609 C-17.876 44.16 -22.561 41.314 -26.438 37.438 C-31.491 30.914 -31.309 23.352 -30.438 15.438 C-28.739 8.218 -24.462 3.594 -18.438 -0.562 C-12.457 -2.556 -5.743 -2.61 0 0 Z " fill="#8B8F93" transform="translate(226.4375,307.5625)"/>
  <ns0:path d="M0 0 C1.037 0.01 2.074 0.021 3.142 0.032 C4.264 0.038 5.385 0.045 6.541 0.051 C7.716 0.068 8.892 0.085 10.103 0.102 C11.878 0.116 11.878 0.116 13.689 0.129 C16.619 0.153 19.548 0.186 22.478 0.227 C22.503 6.383 22.521 12.54 22.533 18.696 C22.538 20.789 22.545 22.882 22.553 24.976 C22.566 27.989 22.571 31.003 22.576 34.016 C22.581 34.948 22.586 35.879 22.591 36.839 C22.592 41.42 22.421 45.719 21.478 50.227 C12.964 49.732 3.208 49.092 -4.522 45.227 C-4.571 39.14 -4.608 33.053 -4.632 26.965 C-4.642 24.893 -4.656 22.821 -4.673 20.75 C-4.697 17.776 -4.708 14.802 -4.717 11.829 C-4.728 10.898 -4.738 9.968 -4.749 9.01 C-4.749 8.149 -4.749 7.288 -4.749 6.401 C-4.753 5.642 -4.758 4.882 -4.762 4.1 C-4.355 0.927 -3.05 0.275 0 0 Z " fill="#000000" transform="translate(81.52197265625,253.77294921875)"/>
  <ns0:path d="M0 0 C4.789 2.49 7.366 5.317 10 10 C12.326 17.396 11.739 25.164 8.281 32.055 C5.903 35.666 2.877 38.061 -1 40 C-6.006 40.501 -8.018 40.63 -12.312 37.875 C-16.816 33.057 -18.733 28.338 -19.25 21.875 C-18.801 14.908 -17.229 7.93 -12 3 C-7.908 0.42 -4.827 -0.704 0 0 Z " fill="#8B8D8F" transform="translate(380,300)"/>
  <ns0:path d="M0 0 C10.851 10.851 15.36 25.411 17.312 40.312 C16.312 41.312 16.312 41.312 13.75 41.375 C12.946 41.354 12.141 41.334 11.312 41.312 C9.323 37.632 7.871 34.04 6.562 30.062 C3.282 20.93 -2.074 13.087 -10.688 8.312 C-18.359 5.452 -28.41 4.448 -36.062 7.812 C-47.073 14.488 -50.89 26.515 -54.012 38.352 C-54.688 40.312 -54.688 40.312 -56.688 42.312 C-57.678 42.312 -58.668 42.312 -59.688 42.312 C-60.236 27.513 -55.567 14.418 -45.688 3.312 C-31.162 -10.025 -16.185 -10.163 0 0 Z " fill="#000103" transform="translate(396.6875,272.6875)"/>
  <ns0:path d="M0 0 C0.147 1.004 0.294 2.008 0.445 3.043 C1.968 12.589 4.447 20.394 9 29 C-2.339 33.098 -12.254 30.637 -23 26 C-29.532 22.382 -34.547 17.976 -39 12 C-39 11.34 -39 10.68 -39 10 C-30.42 9.01 -21.84 8.02 -13 7 C-12.34 4.69 -11.68 2.38 -11 0 C-3.375 -1.125 -3.375 -1.125 0 0 Z " fill="#121519" transform="translate(158,329)"/>
  <ns0:path d="M0 0 C8.58 0 17.16 0 26 0 C26 9.9 26 19.8 26 30 C8.125 33.25 8.125 33.25 0 30 C0 20.1 0 10.2 0 0 Z " fill="#EC9B01" transform="translate(113,276)"/>
  <ns0:path d="M0 0 C2.191 0.193 4.383 0.386 6.574 0.578 C11.883 1.045 17.192 1.52 22.5 2 C22.5 4.97 22.5 7.94 22.5 11 C20.063 11.342 17.626 11.674 15.188 12 C14.517 12.095 13.846 12.191 13.154 12.289 C2.709 13.662 -7.716 12.904 -18.19 12.2 C-20.26 12.062 -22.331 11.93 -24.402 11.799 C-25.742 11.711 -27.082 11.623 -28.422 11.535 C-29.614 11.457 -30.806 11.378 -32.034 11.297 C-42.133 10.431 -42.133 10.431 -43.938 8.312 C-44.626 5.48 -44.632 2.904 -44.5 0 C-33.829 -6.648 -11.875 -1.076 0 0 Z " fill="#707172" transform="translate(235.5,156)"/>
  <ns0:path d="M0 0 C14.081 0.609 28.121 1.536 42.169 2.675 C45.485 2.941 48.802 3.196 52.119 3.451 C54.245 3.622 56.371 3.793 58.496 3.965 C59.479 4.039 60.463 4.113 61.476 4.189 C65.982 4.566 69.899 4.92 74 7 C74 9.31 74 11.62 74 14 C59.82 13.41 45.659 12.654 31.499 11.698 C28.512 11.497 25.524 11.301 22.537 11.105 C20.609 10.977 18.682 10.848 16.754 10.719 C15.875 10.661 14.996 10.604 14.09 10.545 C9.35 10.221 4.694 9.739 0 9 C0 6.03 0 3.06 0 0 Z " fill="#717374" transform="translate(268,159)"/>
  <ns0:path d="M0 0 C1.429 -0.021 1.429 -0.021 2.887 -0.043 C5.312 0.188 5.312 0.188 7.312 2.188 C7.54 4.25 7.54 4.25 7.508 6.758 C7.501 7.654 7.495 8.55 7.488 9.473 C7.472 10.41 7.455 11.347 7.438 12.312 C7.428 13.257 7.419 14.202 7.41 15.176 C7.387 17.513 7.354 19.85 7.312 22.188 C5.085 22.411 2.855 22.615 0.625 22.812 C-1.237 22.987 -1.237 22.987 -3.137 23.164 C-6.688 23.188 -6.688 23.188 -11.688 21.188 C-11.358 14.587 -11.027 7.988 -10.688 1.188 C-6.875 0.425 -3.822 0.026 0 0 Z " fill="#939597" transform="translate(430.6875,295.8125)"/>
  <ns0:path d="M0 0 C1.657 1.657 1.171 3.607 1.188 5.875 C1.202 6.759 1.216 7.644 1.23 8.555 C1 11 1 11 -1 14 C-3.43 14.341 -3.43 14.341 -6.445 14.293 C-7.522 14.283 -8.598 14.274 -9.707 14.264 C-10.835 14.239 -11.963 14.213 -13.125 14.188 C-14.261 14.174 -15.396 14.16 -16.566 14.146 C-19.378 14.111 -22.189 14.062 -25 14 C-26.239 11.522 -26.167 9.763 -26.188 7 C-26.202 6.113 -26.216 5.226 -26.23 4.312 C-26 2 -26 2 -24 0 C-16.143 -1.214 -7.839 -1.537 0 0 Z " fill="#00A7DA" transform="translate(321,244)"/>
  <ns0:path d="M0 0 C3.969 3.337 5.5 5.593 6.25 10.75 C5.606 15.336 4.069 17.141 0.75 20.312 C-3.176 22.628 -5.881 22.405 -10.25 21.312 C-11.937 19.626 -11.495 17.372 -11.625 15.062 C-11.97 10.614 -12.757 8.052 -15.25 4.312 C-15.188 2.125 -15.188 2.125 -14.25 0.312 C-9.849 -3.073 -4.677 -2.429 0 0 Z " fill="#7F8081" transform="translate(154.25,185.6875)"/>
  <ns0:path d="M0 0 C3.63 0 7.26 0 11 0 C11.025 3.969 11.043 7.939 11.055 11.908 C11.06 13.259 11.067 14.61 11.075 15.962 C11.088 17.9 11.093 19.839 11.098 21.777 C11.103 22.945 11.108 24.113 11.114 25.316 C11 28 11 28 10 29 C6.7 29 3.4 29 0 29 C0 19.43 0 9.86 0 0 Z " fill="#F3F5F3" transform="translate(139,276)"/>
  <ns0:path d="M0 0 C3.335 2.168 3.872 3.538 4.938 7.375 C5.009 11.533 4.253 13.54 2 17 C-1.302 19.201 -3.068 19.769 -7 20 C-11.274 18.659 -12.661 17.58 -14.938 13.688 C-16.065 9.776 -16.279 7.838 -15 4 C-10.403 -1.486 -6.704 -1.515 0 0 Z " fill="#7B7C80" transform="translate(107,196)"/>
  <ns0:path d="M0 0 C2.97 0 5.94 0 9 0 C9 10.23 9 20.46 9 31 C4.545 30.01 4.545 30.01 0 29 C-0.922 25.314 -1.05 22.877 -0.879 19.141 C-0.831 18.026 -0.782 16.911 -0.732 15.762 C-0.648 14.023 -0.648 14.023 -0.562 12.25 C-0.51 11.076 -0.458 9.901 -0.404 8.691 C-0.275 5.794 -0.14 2.897 0 0 Z " fill="#F2F0EA" transform="translate(104,275)"/>
  <ns0:path d="M0 0 C4.301 0.039 7.863 0.317 11.812 2.188 C13.376 5.315 13.212 8.767 12.812 12.188 C11.822 13.673 11.822 13.673 10.812 15.188 C7.66 15.586 7.66 15.586 3.875 15.562 C2.628 15.57 1.382 15.578 0.098 15.586 C-3.188 15.188 -3.188 15.188 -5.113 14.016 C-6.618 11.455 -6.515 9.512 -6.438 6.562 C-6.422 5.58 -6.407 4.598 -6.391 3.586 C-6.021 -0.777 -3.901 0.026 0 0 Z " fill="#00A8EB" transform="translate(398.1875,244.8125)"/>
  <ns0:path d="M0 0 C0.861 0.041 1.723 0.082 2.61 0.124 C4.439 0.213 6.269 0.305 8.098 0.4 C10.867 0.541 13.636 0.669 16.406 0.795 C18.188 0.883 19.969 0.972 21.75 1.062 C22.567 1.099 23.384 1.136 24.226 1.173 C30.089 1.492 35.68 2.448 41.406 3.73 C41.901 5.215 41.901 5.215 42.406 6.73 C35.519 6.47 28.632 6.202 21.746 5.931 C19.403 5.839 17.061 5.749 14.719 5.66 C11.35 5.533 7.982 5.4 4.613 5.266 C3.567 5.227 2.521 5.188 1.444 5.149 C-0.027 5.089 -0.027 5.089 -1.528 5.028 C-2.387 4.994 -3.247 4.961 -4.132 4.927 C-6.682 4.723 -9.098 4.281 -11.594 3.73 C-11.264 2.74 -10.934 1.75 -10.594 0.73 C-7.282 -0.926 -3.622 -0.185 0 0 Z " fill="#0B0A13" transform="translate(359.59375,192.26953125)"/>
  <ns0:path d="M0 0 C3.5 0.125 3.5 0.125 4.5 1.125 C4.587 3.052 4.607 4.982 4.598 6.91 C4.594 8.08 4.591 9.25 4.588 10.455 C4.58 11.687 4.571 12.918 4.562 14.188 C4.558 15.423 4.553 16.659 4.549 17.932 C4.537 20.996 4.521 24.061 4.5 27.125 C1.86 27.125 -0.78 27.125 -3.5 27.125 C-3.696 22.813 -3.88 18.5 -4.062 14.188 C-4.119 12.956 -4.175 11.724 -4.232 10.455 C-4.281 9.285 -4.329 8.115 -4.379 6.91 C-4.426 5.826 -4.473 4.742 -4.522 3.625 C-4.488 -0.292 -4.038 0.144 0 0 Z " fill="#2A2D30" transform="translate(147.5,210.875)"/>
  <ns0:path d="M0 0 C1.678 0.082 3.357 0.159 5.035 0.229 C7.491 0.333 9.946 0.454 12.401 0.58 C13.52 0.622 13.52 0.622 14.661 0.665 C19.049 0.914 22.089 1.55 25.561 4.31 C26.374 6.998 26.374 6.998 26.561 9.31 C25.441 8.84 24.321 8.369 23.167 7.885 C16.39 5.632 9.345 5.544 2.271 5.229 C-0.104 5.124 -2.477 5.001 -4.851 4.875 C-14.055 4.405 -23.221 4.201 -32.439 4.31 C-28.177 -5.126 -9.123 -0.461 0 0 Z " fill="#0D0C17" transform="translate(296.438720703125,188.689697265625)"/>
  <ns0:path d="M0 0 C0.196 2.687 0.382 5.374 0.562 8.062 C0.619 8.815 0.675 9.567 0.732 10.342 C1.04 15.075 0.915 19.338 0 24 C-1 25 -1 25 -4 25.125 C-7 25 -7 25 -8 24 C-8.087 22.292 -8.107 20.581 -8.098 18.871 C-8.094 17.837 -8.091 16.802 -8.088 15.736 C-8.08 14.648 -8.071 13.559 -8.062 12.438 C-8.058 11.345 -8.053 10.253 -8.049 9.127 C-8.037 6.418 -8.021 3.709 -8 1 C-5.291 -0.354 -2.991 -0.065 0 0 Z " fill="#F0F3F6" transform="translate(422,272)"/>
  <ns0:path d="M0 0 C1.454 0.031 1.454 0.031 2.938 0.062 C4.001 5.236 4.054 10.186 4 15.438 C3.995 16.269 3.991 17.1 3.986 17.957 C3.975 19.992 3.957 22.027 3.938 24.062 C1.298 24.062 -1.342 24.062 -4.062 24.062 C-4.091 20.25 -4.109 16.438 -4.125 12.625 C-4.133 11.536 -4.142 10.448 -4.15 9.326 C-4.154 8.292 -4.157 7.257 -4.16 6.191 C-4.165 5.233 -4.171 4.275 -4.176 3.287 C-3.998 -0.198 -3.564 0.073 0 0 Z " fill="#F8AB0F" transform="translate(426.0625,271.9375)"/>
  <ns0:path d="M0 0 C3.062 0.125 3.062 0.125 5.062 1.125 C5.089 4.083 5.109 7.042 5.125 10 C5.133 10.842 5.142 11.684 5.15 12.551 C5.154 13.356 5.157 14.162 5.16 14.992 C5.165 15.736 5.171 16.479 5.176 17.246 C5.062 19.125 5.062 19.125 4.062 21.125 C1.752 21.125 -0.558 21.125 -2.938 21.125 C-3.133 17.813 -3.318 14.5 -3.5 11.188 C-3.556 10.242 -3.612 9.296 -3.67 8.322 C-3.718 7.423 -3.767 6.524 -3.816 5.598 C-3.864 4.765 -3.911 3.932 -3.959 3.074 C-3.923 -0.145 -3.24 0.138 0 0 Z " fill="#272F36" transform="translate(101.9375,217.875)"/>
  <ns0:path d="M0 0 C2.97 0.495 2.97 0.495 6 1 C6 9.25 6 17.5 6 26 C1 27 1 27 -1 26 C-1.163 17.282 -0.657 8.688 0 0 Z " fill="#E8DDC5" transform="translate(71,272)"/>
  <ns0:path d="M0 0 C2.339 0.287 4.674 0.619 7 1 C7.917 6.385 8.111 11.542 8 17 C6.521 17.027 5.042 17.046 3.562 17.062 C2.327 17.08 2.327 17.08 1.066 17.098 C-1 17 -1 17 -2 16 C-1.935 13.483 -1.809 11.008 -1.625 8.5 C-1.581 7.797 -1.537 7.095 -1.492 6.371 C-1.129 1.129 -1.129 1.129 0 0 Z " fill="#413F43" transform="translate(260,151)"/>
  <ns0:path d="M0 0 C2.31 0 4.62 0 7 0 C7 5.61 7 11.22 7 17 C5.02 17 3.04 17 1 17 C-1.398 6.168 -1.398 6.168 -1 1 C-0.67 0.67 -0.34 0.34 0 0 Z " fill="#0161BD" transform="translate(413,297)"/>
  <ns0:path d="M0 0 C1.454 0.031 1.454 0.031 2.938 0.062 C3.794 3.143 4.207 6.13 4.5 9.312 C4.584 10.205 4.668 11.097 4.754 12.016 C4.814 12.691 4.875 13.367 4.938 14.062 C-1.812 14.188 -1.812 14.188 -4.062 13.062 C-4.089 11.083 -4.109 9.104 -4.125 7.125 C-4.137 6.023 -4.148 4.921 -4.16 3.785 C-4.022 -0.075 -3.909 0.08 0 0 Z " fill="#4C4D51" transform="translate(390.0625,162.9375)"/>
  <ns0:path d="M0 0 C3.332 3.117 4.927 4.992 5.098 9.699 C5.086 10.685 5.074 11.671 5.062 12.688 C5.053 13.681 5.044 14.675 5.035 15.699 C5.024 16.458 5.012 17.218 5 18 C2.596 17.038 1.243 16.355 -0.238 14.195 C-1.127 11.633 -1.232 9.583 -1.188 6.875 C-1.178 5.572 -1.178 5.572 -1.168 4.242 C-1 2 -1 2 0 0 Z " fill="#B2B3B4" transform="translate(138,188)"/>
  <ns0:path d="M0 0 C1.98 0 3.96 0 6 0 C6 2.64 6 5.28 6 8 C3.69 8.33 1.38 8.66 -1 9 C-0.67 6.03 -0.34 3.06 0 0 Z " fill="#39383B" transform="translate(205,167)"/>
  <ns0:path d="M0 0 C3.248 0.45 6.338 0.731 9.625 0.625 C9.295 1.615 8.965 2.605 8.625 3.625 C6.334 3.679 4.042 3.718 1.75 3.75 C-0.164 3.785 -0.164 3.785 -2.117 3.82 C-5.375 3.625 -5.375 3.625 -7.375 1.625 C-4.069 -0.579 -3.681 -0.565 0 0 Z " fill="#0097DD" transform="translate(400.375,256.375)"/>
  <ns0:path d="M0 0 C1.98 0.495 1.98 0.495 4 1 C4.33 3.97 4.66 6.94 5 10 C3.68 10 2.36 10 1 10 C-0.837 6.218 -1.158 4.054 0 0 Z " fill="#949597" transform="translate(92,201)"/>
  <ns0:path d="M0 0 C3.332 3.117 4.927 4.992 5.098 9.699 C5.086 10.685 5.074 11.671 5.062 12.688 C5.053 13.681 5.044 14.675 5.035 15.699 C5.024 16.458 5.012 17.218 5 18 C3.68 17.34 2.36 16.68 1 16 C1.99 15.67 2.98 15.34 4 15 C3.34 11.7 2.68 8.4 2 5 C1.01 4.67 0.02 4.34 -1 4 C-0.67 2.68 -0.34 1.36 0 0 Z " fill="#97989A" transform="translate(138,188)"/>
  <ns0:path d="M0 0 C3.96 0 7.92 0 12 0 C11.67 0.99 11.34 1.98 11 3 C7.37 2.67 3.74 2.34 0 2 C0 1.34 0 0.68 0 0 Z " fill="#676B6F" transform="translate(408,314)"/>
  <ns0:path d="M0 0 C2.875 -0.125 2.875 -0.125 6 0 C6.66 0.66 7.32 1.32 8 2 C5.291 3.354 2.991 3.065 0 3 C0 2.01 0 1.02 0 0 Z " fill="#1C2023" transform="translate(99,218)"/>
  <ns0:path d="M0 0 C3 1 3 1 3 1 Z " fill="#C28F4A" transform="translate(128,307)"/>
  <ns0:path d="M0 0 C3 1 3 1 3 1 Z " fill="#868FAD" transform="translate(139,305)"/>
  <ns0:path d="M0 0 C2 1 2 1 2 1 Z " fill="#C78F55" transform="translate(136,306)"/>
  <ns0:path d="M0 0 C4 1 4 1 4 1 Z " fill="#D19E4B" transform="translate(421,296)"/>
  <ns0:path d="M0 0 C3 1 3 1 3 1 Z " fill="#343639" transform="translate(136,337)"/>
  <ns0:path d="M0 0 C3 1 3 1 3 1 Z " fill="#06111D" transform="translate(416,314)"/>
  <ns0:path d="M0 0 C3 1 3 1 3 1 Z " fill="#706C6E" transform="translate(107,305)"/>
  <ns0:path d="M0 0 C3 1 3 1 3 1 Z " fill="#1A1A1B" transform="translate(95,303)"/>
  <ns0:path d="M0 0 C2 1 2 1 2 1 Z " fill="#B4863C" transform="translate(113,306)"/>
  <ns0:path d="M0 0 C2 1 2 1 2 1 Z " fill="#1E1E20" transform="translate(77,299)"/>
</svg>