<?xml version="1.0" ?>
<svg xmlns:ns0="http://www.w3.org/2000/svg" xmlns="http://www.w3.org/2000/svg" width="512" height="512" viewBox="0 0 512 512" style="background-color: transparent;">
  <ns0:path d="M0 0 C4.074 0.21 7.084 1.035 10.917 2.403 C11.917 2.754 11.917 2.754 12.937 3.112 C14.377 3.618 15.816 4.129 17.252 4.644 C21.131 6.034 25.022 7.389 28.913 8.747 C29.722 9.031 30.531 9.314 31.365 9.606 C41.287 13.067 51.294 16.265 61.306 19.454 C84.526 26.849 84.526 26.849 86.877 29.2 C86.786 32.067 86.64 34.903 86.44 37.763 C86.388 38.569 86.336 39.375 86.282 40.206 C86.152 42.204 86.015 44.202 85.877 46.2 C88.187 46.2 90.497 46.2 92.877 46.2 C93.537 41.91 94.197 37.62 94.877 33.2 C99.877 32.2 99.877 32.2 101.897 33.028 C104.825 35.35 106.63 36.984 107.393 40.735 C107.442 43.617 107.237 46.341 106.877 49.2 C106.803 49.979 106.728 50.757 106.651 51.56 C105.929 56.294 104.263 59.266 101.377 63.075 C97.454 68.387 96.531 72.715 95.877 79.2 C95.696 80.767 95.512 82.333 95.327 83.899 C94.811 88.33 94.336 92.763 93.877 97.2 C92.392 97.695 92.392 97.695 90.877 98.2 C90.768 97.562 90.658 96.924 90.545 96.267 C90.308 95.027 90.308 95.027 90.065 93.763 C89.914 92.939 89.763 92.115 89.608 91.267 C89.367 90.585 89.126 89.903 88.877 89.2 C85.918 87.828 85.918 87.828 83.393 89.388 C70.731 98.51 64.849 119.679 59.94 133.7 C59.374 135.31 59.374 135.31 58.796 136.952 C57.08 142.006 55.689 146.859 54.874 152.138 C54.124 156.65 52.971 159.22 49.877 162.7 C44.238 169.408 39.448 176.648 34.627 183.95 C33.851 185.123 33.075 186.295 32.299 187.468 C31.549 188.602 30.799 189.737 30.049 190.872 C29.337 191.949 28.625 193.026 27.891 194.136 C26.605 196.093 25.329 198.057 24.067 200.03 C23.535 200.855 23.003 201.679 22.456 202.528 C21.773 203.602 21.773 203.602 21.078 204.697 C20.484 205.441 20.484 205.441 19.877 206.2 C19.217 206.2 18.557 206.2 17.877 206.2 C17.547 206.86 17.217 207.52 16.877 208.2 C16.547 205.23 16.217 202.26 15.877 199.2 C12.813 197.808 12.813 197.808 9.69 199.575 C-3.753 207.906 -10.441 224.27 -16.298 238.281 C-17.548 241.191 -18.936 244.034 -20.31 246.888 C-24.874 256.754 -27.442 267.075 -29.816 277.641 C-31.027 283.009 -31.027 283.009 -32.123 285.2 C-33.773 284.54 -35.423 283.88 -37.123 283.2 C-35.919 280.707 -34.668 278.519 -33.123 276.2 C-32.98 273.598 -32.935 271.109 -32.998 268.513 C-33.007 267.811 -33.016 267.109 -33.025 266.386 C-33.048 264.657 -33.084 262.929 -33.123 261.2 C-37.155 264.915 -39.545 269.11 -42.244 273.837 C-44.123 276.2 -44.123 276.2 -46.471 276.957 C-49.489 277.234 -50.754 276.813 -53.428 275.453 C-54.247 275.045 -55.066 274.636 -55.91 274.216 C-56.787 273.761 -57.664 273.306 -58.568 272.837 C-59.492 272.371 -60.417 271.905 -61.369 271.425 C-64.336 269.925 -67.291 268.407 -70.248 266.888 C-72.183 265.907 -74.119 264.927 -76.056 263.948 C-91.736 256.005 -107.283 247.809 -122.782 239.521 C-132.447 234.361 -142.319 229.583 -152.141 224.73 C-155.314 223.162 -158.485 221.589 -161.656 220.016 C-163.284 219.209 -164.914 218.405 -166.545 217.602 C-168.937 216.424 -171.325 215.239 -173.712 214.052 C-174.445 213.693 -175.177 213.335 -175.931 212.966 C-181.009 210.428 -181.009 210.428 -182.123 208.2 C-182.334 206.452 -182.492 204.698 -182.623 202.942 C-182.705 201.854 -182.787 200.766 -182.871 199.645 C-182.996 197.878 -182.996 197.878 -183.123 196.075 C-183.209 194.86 -183.296 193.644 -183.386 192.392 C-184.198 180.668 -184.819 168.949 -185.123 157.2 C-185.151 156.102 -185.18 155.005 -185.209 153.874 C-185.286 150.503 -185.334 147.134 -185.373 143.763 C-185.394 142.738 -185.415 141.714 -185.438 140.659 C-185.474 132.56 -184.304 125.252 -179.123 118.763 C-178.628 118.125 -178.133 117.487 -177.623 116.829 C-176.123 115.2 -176.123 115.2 -173.123 113.2 C-171.488 113.967 -169.854 114.736 -168.224 115.513 C-164.187 116.833 -160.178 116.242 -156.123 115.2 C-153.494 113.313 -152.417 111.737 -150.877 108.928 C-148.774 105.658 -146.234 103.032 -143.49 100.308 C-142.927 99.742 -142.364 99.175 -141.784 98.592 C-139.932 96.731 -138.072 94.878 -136.212 93.024 C-134.921 91.731 -133.63 90.438 -132.339 89.145 C-129.638 86.441 -126.933 83.741 -124.226 81.043 C-120.75 77.578 -117.283 74.104 -113.818 70.628 C-111.156 67.959 -108.49 65.295 -105.822 62.632 C-104.541 61.352 -103.262 60.071 -101.984 58.789 C-100.203 57.003 -98.415 55.223 -96.626 53.445 C-96.096 52.911 -95.565 52.376 -95.019 51.825 C-91.351 48.2 -91.351 48.2 -89.123 48.2 C-88.896 47.643 -88.669 47.086 -88.435 46.513 C-87.126 44.207 -85.63 42.657 -83.748 40.817 C-81.76 38.84 -79.838 36.807 -77.908 34.774 C-76.334 33.145 -74.76 31.516 -73.185 29.888 C-72.399 29.052 -71.614 28.216 -70.804 27.354 C-70.034 26.565 -69.264 25.775 -68.47 24.962 C-67.779 24.24 -67.089 23.517 -66.377 22.773 C-63.478 20.75 -61.585 21.067 -58.123 21.2 C-57.463 20.54 -56.803 19.88 -56.123 19.2 C-56.184 18.272 -56.246 17.344 -56.31 16.388 C-56.123 13.2 -56.123 13.2 -53.935 10.263 C-51.123 8.2 -51.123 8.2 -48.742 8.465 C-46.234 9.169 -43.832 9.969 -41.4 10.899 C-40.532 11.221 -39.664 11.543 -38.769 11.874 C-36.956 12.553 -35.146 13.24 -33.339 13.937 C-32.472 14.254 -31.606 14.572 -30.712 14.899 C-29.535 15.345 -29.535 15.345 -28.333 15.801 C-25.521 16.309 -24.473 15.764 -22.123 14.2 C-21.318 13.355 -20.514 12.509 -19.685 11.638 C-17.005 9.088 -15.732 8.51 -12.123 8.2 C-11.793 9.19 -11.463 10.18 -11.123 11.2 C-9.143 11.53 -7.163 11.86 -5.123 12.2 C-5.062 11.418 -5.001 10.635 -4.939 9.829 C-4.855 8.817 -4.771 7.805 -4.685 6.763 C-4.563 5.249 -4.563 5.249 -4.439 3.704 C-3.973 0.014 -3.814 0.245 0 0 Z M29.397 36.075 C26.642 39.524 23.763 42.861 20.877 46.2 C17.322 50.324 13.809 54.472 10.377 58.7 C6.945 62.928 3.432 67.075 -0.123 71.2 C-5.222 77.121 -10.202 83.129 -15.123 89.2 C-19.92 95.104 -24.757 100.968 -29.685 106.763 C-33.479 111.226 -37.189 115.741 -40.822 120.337 C-42.698 122.672 -44.598 124.982 -46.517 127.282 C-47.13 128.019 -47.743 128.756 -48.375 129.516 C-49.588 130.971 -50.804 132.424 -52.024 133.873 C-60.802 143.85 -60.802 143.85 -64.123 156.2 C-63.477 160.432 -62.827 162.514 -59.748 165.513 C-54.673 167.875 -49.634 168.475 -44.123 169.2 C-43.067 169.423 -42.011 169.646 -40.923 169.876 C-37.934 170.539 -37.934 170.539 -35.31 168.2 C-32.861 165.358 -32.861 165.358 -32.732 161.833 C-32.036 157.686 -30.951 156.177 -28.185 153.075 C-24.816 149.171 -21.56 145.241 -18.435 141.138 C-17.597 140.041 -16.758 138.945 -15.919 137.849 C-15.475 137.268 -15.031 136.688 -14.574 136.09 C-11.793 132.469 -8.989 128.866 -6.185 125.263 C-5.585 124.491 -4.984 123.72 -4.366 122.925 C-0.361 117.782 3.66 112.653 7.691 107.531 C16.282 96.609 24.798 85.63 33.252 74.603 C35.238 72.021 37.242 69.454 39.252 66.892 C44.83 59.776 50.386 52.649 55.69 45.325 C56.104 44.761 56.519 44.196 56.946 43.615 C60.618 38.474 61.442 34.524 60.877 28.2 C58.157 24.605 54.992 22.569 50.545 21.794 C39.713 21.385 35.724 28.142 29.397 36.075 Z M58.877 77.2 C59.877 79.2 59.877 79.2 59.877 79.2 Z M57.877 79.2 C52.386 85.356 47.595 92.203 42.69 98.825 C42.096 99.624 41.502 100.423 40.89 101.246 C31.086 114.562 28.333 124.426 28.877 141.2 C29.537 141.2 30.197 141.2 30.877 141.2 C32.195 139.771 32.195 139.771 33.495 137.86 C34.273 136.772 34.273 136.772 35.068 135.662 C35.902 134.474 35.902 134.474 36.752 133.263 C37.325 132.457 37.897 131.652 38.486 130.823 C39.685 129.134 40.881 127.443 42.074 125.75 C43.815 123.289 45.572 120.841 47.334 118.396 C48.412 116.893 49.488 115.391 50.565 113.888 C51.069 113.19 51.574 112.492 52.094 111.773 C59.267 101.682 59.118 91.283 58.877 79.2 C58.547 79.2 58.217 79.2 57.877 79.2 Z M41.877 133.2 C40.311 135.064 38.867 136.921 37.44 138.888 C36.266 140.471 36.266 140.471 35.069 142.087 C30.905 147.808 30.905 147.808 29.19 154.513 C29.087 155.73 28.984 156.946 28.877 158.2 C29.867 158.2 30.857 158.2 31.877 158.2 C33.302 156.743 33.302 156.743 34.542 154.771 C35.024 154.058 35.506 153.345 36.002 152.61 C36.497 151.856 36.992 151.102 37.502 150.325 C38.005 149.579 38.508 148.832 39.026 148.063 C42.662 142.638 44.002 139.929 43.877 133.2 C43.217 133.2 42.557 133.2 41.877 133.2 Z M12.877 139.2 C12.013 140.286 11.194 141.407 10.393 142.54 C9.877 143.265 9.36 143.989 8.828 144.736 C8.267 145.528 7.706 146.321 7.127 147.138 C2.615 153.459 -1.989 159.687 -6.748 165.825 C-11.065 171.425 -15.267 177.087 -19.31 182.888 C-19.768 183.535 -20.226 184.182 -20.697 184.849 C-21.331 185.771 -21.331 185.771 -21.978 186.712 C-22.346 187.243 -22.713 187.773 -23.092 188.32 C-25.536 192.779 -26.393 197.232 -26.755 202.255 C-26.881 203.918 -26.881 203.918 -27.009 205.614 C-27.088 206.756 -27.167 207.898 -27.248 209.075 C-27.334 210.241 -27.42 211.406 -27.509 212.606 C-27.721 215.471 -27.925 218.335 -28.123 221.2 C-24.86 220.113 -24.501 219.712 -22.662 217.017 C-22.197 216.346 -21.732 215.675 -21.253 214.983 C-20.756 214.25 -20.259 213.518 -19.748 212.763 C-18.669 211.202 -17.59 209.642 -16.509 208.083 C-15.673 206.871 -15.673 206.871 -14.819 205.635 C-12.121 201.763 -9.338 197.953 -6.56 194.138 C-2.3 188.257 1.921 182.351 6.065 176.388 C6.523 175.736 6.98 175.084 7.452 174.413 C13.487 165.664 14.056 157.52 13.94 147.2 C13.935 146.425 13.931 145.651 13.926 144.853 C13.915 142.968 13.897 141.084 13.877 139.2 C13.547 139.2 13.217 139.2 12.877 139.2 Z M-166.123 152.2 C-168.211 156.377 -167.307 161.861 -167.31 166.45 C-167.322 167.583 -167.335 168.716 -167.347 169.884 C-167.349 170.983 -167.351 172.083 -167.353 173.216 C-167.357 174.219 -167.361 175.222 -167.365 176.256 C-167.02 180.448 -166.532 183.959 -163.274 186.828 C-162.506 187.246 -161.738 187.664 -160.947 188.095 C-159.598 188.838 -159.598 188.838 -158.222 189.597 C-157.199 190.126 -156.176 190.655 -155.123 191.2 C-153.985 191.792 -152.848 192.385 -151.676 192.995 C-147.782 194.998 -143.86 196.945 -139.935 198.888 C-138.502 199.601 -137.068 200.314 -135.635 201.028 C-126.692 205.472 -117.713 209.837 -108.678 214.095 C-103.328 216.627 -98.033 219.249 -92.767 221.95 C-91.495 222.599 -90.224 223.248 -88.952 223.897 C-86.497 225.15 -84.052 226.418 -81.61 227.695 C-75.71 230.709 -70.812 233.12 -64.123 233.2 C-61.462 230.539 -62.464 223.482 -62.29 219.692 C-62.221 218.291 -62.138 216.89 -62.042 215.491 C-61.132 206.29 -61.132 206.29 -64.478 198.048 C-68.512 194.384 -73.399 192.35 -78.373 190.263 C-80.539 189.312 -82.704 188.359 -84.869 187.403 C-86.036 186.892 -87.204 186.381 -88.407 185.854 C-94.427 183.195 -100.358 180.346 -106.303 177.524 C-112.9 174.396 -119.512 171.3 -126.123 168.2 C-126.917 167.827 -127.712 167.454 -128.531 167.07 C-133.383 164.794 -138.24 162.531 -143.104 160.281 C-144.648 159.565 -146.19 158.846 -147.731 158.123 C-149.874 157.119 -152.023 156.127 -154.173 155.138 C-154.805 154.839 -155.437 154.539 -156.088 154.231 C-159.576 152.644 -162.285 151.859 -166.123 152.2 Z M-18.123 218.2 C-19.95 220.415 -21.574 222.586 -23.185 224.95 C-23.632 225.584 -24.078 226.219 -24.539 226.872 C-29.032 233.081 -29.032 233.081 -30.248 240.45 C-30.206 241.688 -30.165 242.925 -30.123 244.2 C-29.133 244.2 -28.143 244.2 -27.123 244.2 C-25.291 242.006 -23.671 239.86 -22.06 237.513 C-21.613 236.887 -21.167 236.261 -20.707 235.616 C-16.593 229.745 -14.835 225.531 -15.123 218.2 C-16.113 218.2 -17.103 218.2 -18.123 218.2 Z " fill="#005CBC" transform="translate(279.12255859375,142.7998046875)"/>
  <ns0:path d="M0 0 C3.349 1.275 6.339 2.678 8 6 C8.869 17.083 2.47 23.723 -4 32 C-5.118 33.44 -6.235 34.88 -7.352 36.32 C-9.76 39.424 -12.174 42.524 -14.59 45.621 C-17.408 49.236 -20.209 52.863 -23 56.5 C-31.272 67.27 -39.573 78.019 -48.09 88.598 C-50.798 92.003 -53.44 95.458 -56.086 98.912 C-59.575 103.463 -63.118 107.971 -66.672 112.472 C-70.983 117.948 -75.209 123.49 -79.409 129.052 C-89.982 142.975 -89.982 142.975 -97 146 C-102.914 146.657 -107.722 145.809 -113 143 C-116.102 140.299 -116.726 137.187 -117.039 133.121 C-116.872 124.057 -110.06 117.992 -104.418 111.62 C-102.345 109.252 -100.359 106.817 -98.375 104.375 C-97.648 103.483 -96.921 102.591 -96.172 101.672 C-95.455 100.79 -94.738 99.908 -94 99 C-88.74 92.529 -83.418 86.119 -78.016 79.766 C-75.29 76.551 -72.618 73.304 -70 70 C-66.471 65.547 -62.817 61.211 -59.135 56.885 C-56.237 53.475 -53.383 50.036 -50.562 46.562 C-46.605 41.699 -42.535 36.941 -38.442 32.192 C-35.411 28.667 -32.43 25.11 -29.5 21.5 C-25.923 17.104 -22.295 12.756 -18.625 8.438 C-18.113 7.829 -17.6 7.221 -17.072 6.594 C-11.697 0.298 -8.083 -1.027 0 0 Z " fill="#717374" transform="translate(332,165)"/>
  <ns0:path d="M0 0 C2.5 1.562 2.5 1.562 3.5 2.562 C3.872 8.139 3.774 10.877 0.5 15.562 C-0.912 17.106 -2.373 18.606 -3.875 20.062 C-4.672 20.841 -5.468 21.62 -6.289 22.422 C-7.019 23.128 -7.748 23.835 -8.5 24.562 C-9.861 25.924 -9.861 25.924 -11.25 27.312 C-21 37.062 -30.75 46.812 -40.5 56.562 C-41.252 57.315 -42.003 58.067 -42.777 58.842 C-45.628 61.691 -48.486 64.534 -51.344 67.375 C-57.048 73.046 -62.746 78.722 -68.442 84.401 C-71.881 87.83 -75.323 91.257 -78.768 94.68 C-82.111 98.001 -85.449 101.327 -88.784 104.656 C-90.052 105.921 -91.322 107.184 -92.594 108.445 C-94.372 110.209 -96.144 111.979 -97.915 113.75 C-98.438 114.267 -98.962 114.783 -99.502 115.315 C-102.361 118.191 -104.544 121.014 -106.5 124.562 C-108.8 127.455 -110.537 128.082 -114.188 128.5 C-119.457 128.862 -123.402 127.992 -127.5 124.562 C-130.319 119.894 -131.176 115.968 -130.5 110.562 C-127.611 104.478 -123.71 100.544 -118.75 96.062 C-117.215 94.647 -115.68 93.232 -114.145 91.816 C-113.368 91.106 -112.592 90.396 -111.792 89.665 C-108.312 86.473 -104.876 83.236 -101.438 80 C-100.125 78.769 -98.813 77.539 -97.5 76.309 C-96.848 75.697 -96.195 75.086 -95.523 74.457 C-93.413 72.481 -91.3 70.508 -89.188 68.535 C-88.476 67.87 -87.765 67.205 -87.031 66.52 C-85.685 65.261 -84.338 64.004 -82.99 62.748 C-79.291 59.288 -75.673 55.766 -72.124 52.153 C-70.435 50.499 -68.679 48.964 -66.875 47.438 C-63.061 44.157 -59.534 40.637 -56 37.062 C-51.991 33.008 -47.941 29.123 -43.59 25.434 C-40.781 22.919 -38.149 20.244 -35.5 17.562 C-31.001 13.013 -26.405 8.677 -21.5 4.562 C-20.934 4.069 -20.368 3.575 -19.785 3.066 C-13.765 -2.129 -7.368 -3.026 0 0 Z " fill="#747576" transform="translate(232.5,131.4375)"/>
  <ns0:path d="M0 0 C6.812 0.448 12.21 3.144 18.312 6.062 C19.999 6.855 19.999 6.855 21.72 7.663 C24.825 9.123 27.927 10.591 31.026 12.063 C36.527 14.674 42.035 17.267 47.542 19.862 C49.692 20.877 51.839 21.895 53.987 22.914 C61.23 26.343 68.499 29.688 75.848 32.887 C77.275 33.512 78.701 34.138 80.128 34.764 C82.803 35.937 85.487 37.085 88.178 38.22 C100.006 43.393 100.006 43.393 103.148 47.704 C105.226 53.303 104.339 59.521 103.938 65.375 C103.868 66.78 103.801 68.185 103.736 69.59 C103.221 79.779 103.221 79.779 102 81 C96.256 80.625 92.198 79.459 87.027 76.789 C86.073 76.304 86.073 76.304 85.1 75.808 C83.744 75.117 82.39 74.42 81.039 73.717 C78.173 72.228 75.293 70.764 72.414 69.299 C70.965 68.562 69.517 67.823 68.07 67.082 C62.303 64.137 56.483 61.321 50.625 58.562 C41.447 54.204 32.306 49.77 23.196 45.269 C21.663 44.513 20.127 43.761 18.59 43.012 C16.428 41.958 14.272 40.891 12.117 39.82 C11.472 39.509 10.828 39.198 10.163 38.878 C6.043 36.808 3.024 34.479 0 31 C-1.744 25.413 -1.147 19.065 -1.125 13.25 C-1.129 12.197 -1.133 11.144 -1.137 10.059 C-1.135 9.054 -1.134 8.05 -1.133 7.016 C-1.132 6.101 -1.131 5.186 -1.129 4.243 C-1 2 -1 2 0 0 Z " fill="#22222F" transform="translate(113,295)"/>
  <ns0:path d="M0 0 C0.66 0 1.32 0 2 0 C2.33 1.65 2.66 3.3 3 5 C3.66 5 4.32 5 5 5 C5 5.66 5 6.32 5 7 C5.734 7.121 6.468 7.241 7.224 7.365 C9.953 7.989 11.956 8.837 14.414 10.152 C15.26 10.6 16.105 11.048 16.977 11.51 C17.851 11.981 18.725 12.452 19.625 12.938 C21.325 13.843 23.026 14.747 24.727 15.652 C25.684 16.164 26.641 16.676 27.628 17.203 C42.174 24.956 56.814 32.517 71.5 40 C109.71 59.47 109.71 59.47 124.002 67.846 C127.927 70.082 131.361 72.02 136 72 C138.121 70.509 138.121 70.509 139.688 68.25 C140.248 67.533 140.809 66.817 141.387 66.078 C141.919 65.392 142.451 64.707 143 64 C143.983 62.983 144.977 61.977 146 61 C146.99 61.66 147.98 62.32 149 63 C150.712 72.008 148.809 78.859 144.02 86.477 C140.781 90.523 138.321 92.74 133.188 93.75 C126.308 93.39 120.343 89.513 114.418 86.301 C111.835 84.911 109.233 83.562 106.625 82.219 C96.355 76.924 86.171 71.487 76.044 65.923 C67.41 61.193 58.707 56.595 50 52 C40.142 46.794 30.291 41.579 20.5 36.25 C19.666 35.798 18.832 35.345 17.973 34.879 C13.793 32.593 9.647 30.25 5.531 27.852 C4.302 27.137 4.302 27.137 3.049 26.409 C0.076 24.365 -0.91 22.405 -2 19 C-2.211 18.37 -2.423 17.739 -2.641 17.09 C-4.033 12.458 -4.193 8.773 -3 4 C-1.562 1.562 -1.562 1.562 0 0 Z " fill="#939596" transform="translate(97,365)"/>
  <ns0:path d="M0 0 C4.06 1.275 7.804 2.778 11.605 4.688 C12.661 5.216 13.717 5.744 14.804 6.289 C16.479 7.136 16.479 7.136 18.188 8 C19.353 8.586 20.518 9.172 21.719 9.776 C29.055 13.476 36.342 17.258 43.594 21.119 C50.669 24.867 57.832 28.435 65 32 C75.333 37.14 85.598 42.387 95.781 47.818 C98.905 49.482 102.035 51.136 105.164 52.79 C108.444 54.525 111.722 56.263 115 58 C115 63.61 115 69.22 115 75 C110.955 74.191 108.772 73.553 105.289 71.699 C104.386 71.223 103.483 70.747 102.553 70.256 C101.587 69.738 100.62 69.221 99.625 68.688 C97.544 67.587 95.464 66.487 93.383 65.387 C92.321 64.823 91.259 64.258 90.165 63.677 C85.289 61.094 80.395 58.548 75.5 56 C73.581 54.999 71.661 53.998 69.742 52.996 C68.793 52.501 67.844 52.006 66.866 51.496 C64.017 50.009 61.169 48.522 58.32 47.035 C56.912 46.3 56.912 46.3 55.474 45.55 C53.578 44.56 51.682 43.57 49.785 42.579 C44.692 39.92 39.594 37.272 34.488 34.637 C15.389 24.772 15.389 24.772 7.5 20.375 C6.438 19.785 5.376 19.194 4.281 18.586 C2 17 2 17 1 14 C0.774 11.607 0.592 9.211 0.438 6.812 C0.354 5.54 0.27 4.268 0.184 2.957 C0.123 1.981 0.062 1.005 0 0 Z " fill="#F9FAFA" transform="translate(106,357)"/>
  <ns0:path d="M0 0 C1.32 0.66 2.64 1.32 4 2 C4 5.3 4 8.6 4 12 C3.092 11.691 2.185 11.381 1.25 11.062 C-1.166 10.273 -3.528 9.571 -6 9 C-5.01 9.66 -4.02 10.32 -3 11 C-0.158 12.968 0.017 14.089 0.68 17.59 C1.171 22.115 0.547 26.035 -0.5 30.438 C-0.682 31.216 -0.863 31.995 -1.05 32.797 C-5.593 51.16 -15.615 76.513 -31.535 87.797 C-35.015 89.495 -37.302 88.89 -41 88 C-41.99 87.34 -42.98 86.68 -44 86 C-42.01 67.193 -35.172 49.773 -26.578 33.07 C-25.365 30.711 -24.233 28.345 -23.125 25.938 C-18.275 16.341 -10.632 3.544 0 0 Z M-17 36 C-24.043 45.784 -27.536 56.001 -28 68 C-26.35 68.33 -24.7 68.66 -23 69 C-14.714 60.32 -8.615 48.614 -7.75 36.5 C-7.85 34.004 -7.85 34.004 -9 32 C-13.139 32 -14.031 33.1 -17 36 Z " fill="#272F38" transform="translate(292,340)"/>
  <ns0:path d="M0 0 C0.33 0 0.66 0 1 0 C1.385 18.42 -1.072 29.668 -12.188 44.688 C-13.344 46.269 -14.5 47.851 -15.656 49.434 C-16.223 50.207 -16.791 50.98 -17.375 51.777 C-19.67 54.917 -21.931 58.081 -24.188 61.25 C-24.582 61.801 -24.977 62.353 -25.384 62.921 C-27.533 65.926 -29.66 68.944 -31.77 71.977 C-32.455 72.954 -32.455 72.954 -33.154 73.952 C-34.034 75.209 -34.909 76.47 -35.778 77.735 C-36.802 79.193 -37.895 80.602 -39 82 C-39.66 82 -40.32 82 -41 82 C-40.778 78.019 -40.517 74.041 -40.25 70.062 C-40.188 68.946 -40.126 67.829 -40.062 66.678 C-39.348 56.52 -36.413 49.335 -30.375 41.25 C-29.94 40.653 -29.504 40.057 -29.056 39.442 C-25.773 34.97 -22.388 30.577 -18.98 26.199 C-12.386 17.688 -5.973 8.959 0 0 Z " fill="#222537" transform="translate(292,282)"/>
  <ns0:path d="M0 0 C2.188 0.875 2.188 0.875 3.188 1.875 C3.767 8.023 2.859 13.712 1.25 19.625 C1.033 20.431 0.817 21.236 0.593 22.066 C-3.719 37.252 -10.244 56.936 -23.184 66.98 C-24.812 67.875 -24.812 67.875 -27.5 67.938 C-29.902 66.834 -31.803 65.587 -33.812 63.875 C-33.152 62.885 -32.493 61.895 -31.812 60.875 C-31.386 58.969 -31.021 57.049 -30.688 55.125 C-29.27 48.118 -27.113 41.493 -24.75 34.75 C-24.397 33.742 -24.045 32.735 -23.681 31.696 C-19.827 20.865 -19.827 20.865 -17.395 18.492 C-15.215 16.264 -13.983 13.735 -12.5 11 C-6.013 -0.267 -6.013 -0.267 0 0 Z M-7.812 17.875 C-16.21 26.857 -20.05 38.778 -19.812 50.875 C-15.857 51.33 -15.857 51.33 -13.875 49.062 C-10.962 44.561 -8.887 39.808 -6.812 34.875 C-6.379 33.885 -5.946 32.895 -5.5 31.875 C-4.436 27.233 -4.661 22.615 -4.812 17.875 C-5.803 17.875 -6.793 17.875 -7.812 17.875 Z " fill="#242C35" transform="translate(363.8125,239.125)"/>
  <ns0:path d="M0 0 C0.33 0 0.66 0 1 0 C1.107 5.38 1.044 10.751 0.75 16.125 C0.68 17.521 0.68 17.521 0.609 18.945 C-0.913 26.578 -5.697 32.676 -10.25 38.812 C-11.11 39.987 -11.11 39.987 -11.988 41.186 C-13.129 42.744 -14.272 44.3 -15.418 45.854 C-17.521 48.706 -19.605 51.571 -21.688 54.438 C-22.289 55.261 -22.891 56.085 -23.512 56.934 C-24.71 58.597 -25.863 60.294 -27 62 C-27.66 62 -28.32 62 -29 62 C-29.453 48.042 -28.556 37.36 -20 26 C-19.51 25.344 -19.019 24.688 -18.514 24.013 C-15.217 19.613 -11.869 15.255 -8.49 10.917 C-7.198 9.255 -5.918 7.583 -4.641 5.91 C-4.017 5.094 -3.393 4.278 -2.75 3.438 C-2.229 2.756 -1.708 2.074 -1.172 1.371 C-0.785 0.919 -0.398 0.466 0 0 Z " fill="#1F2132" transform="translate(337,222)"/>
  <ns0:path d="M0 0 C0.33 0 0.66 0 1 0 C1.061 0.759 1.121 1.519 1.184 2.301 C1.309 3.792 1.309 3.792 1.438 5.312 C1.519 6.299 1.6 7.285 1.684 8.301 C1.918 11.094 1.918 11.094 3 14 C1.559 16.699 1.559 16.699 -0.562 19.688 C-1.244 20.681 -1.926 21.675 -2.629 22.699 C-5 25 -5 25 -7.84 25.582 C-11.848 24.844 -15.09 23.972 -18 21 C-18.984 18.078 -18.981 15.313 -18.938 12.25 C-18.954 11.457 -18.97 10.664 -18.986 9.848 C-19.022 7.899 -19.015 5.949 -19 4 C-18.34 3.67 -17.68 3.34 -17 3 C-15.23 3.812 -15.23 3.812 -13.188 5 C-10.596 6.34 -9.202 6.991 -6.25 7.125 C-3.015 5.507 -1.818 3.051 0 0 Z " fill="#F69F07" transform="translate(239,412)"/>
  <ns0:path d="M0 0 C1.32 0.66 2.64 1.32 4 2 C4 5.3 4 8.6 4 12 C3.092 11.691 2.185 11.381 1.25 11.062 C-1.166 10.273 -3.528 9.571 -6 9 C-7.136 10.349 -8.267 11.7 -9.387 13.062 C-10.513 14.415 -11.663 15.747 -12.832 17.062 C-18.649 23.855 -22.353 31.169 -26.129 39.196 C-27.228 41.472 -28.464 43.664 -29.688 45.875 C-32.304 51.064 -33.647 56.56 -35.115 62.155 C-36.925 68.991 -39.287 75.465 -42 82 C-42.949 78.978 -43.009 77.037 -42.215 73.98 C-42.017 73.213 -41.819 72.446 -41.616 71.655 C-41.392 70.841 -41.168 70.026 -40.938 69.188 C-40.709 68.342 -40.48 67.496 -40.244 66.624 C-36.96 54.866 -32.154 43.906 -26.578 33.07 C-25.365 30.711 -24.233 28.345 -23.125 25.938 C-18.275 16.341 -10.632 3.544 0 0 Z " fill="#020304" transform="translate(292,340)"/>
  <ns0:path d="M0 0 C2.404 4.807 0.368 10.834 -1.16 15.68 C-3.832 23.017 -6.92 30.826 -13 36 C-15.652 36.789 -15.652 36.789 -18 37 C-19 36 -19 36 -19.055 33.918 C-18.318 22.728 -13.629 8.902 -5.004 1.223 C-3 0 -3 0 0 0 Z " fill="#808389" transform="translate(283,372)"/>
  <ns0:path d="M0 0 C2.7 1.8 4.542 3.084 6 6 C6.381 10.04 6.424 12.293 4.312 15.812 C0.912 19.029 -1.372 20.033 -6.062 19.938 C-9.877 18.72 -11.037 17.473 -13 14 C-13.486 10.115 -13.341 7.768 -11.75 4.188 C-8.44 0.05 -5.221 -0.639 0 0 Z " fill="#7A7B7E" transform="translate(378,152)"/>
  <ns0:path d="M0 0 C2.573 2.123 3.856 3.548 4.191 6.934 C3.95 10.8 3.117 12.832 0.875 16.062 C-2 18 -2 18 -5.562 18.062 C-9.317 16.902 -10.792 16.227 -13 13 C-14.064 9.097 -14.397 6.941 -12.812 3.188 C-8.965 -1.456 -5.793 -1.552 0 0 Z " fill="#7F8082" transform="translate(275,119)"/>
  <ns0:path d="M0 0 C3.653 2.348 3.653 2.348 5 5 C4.979 13.248 2.982 20.559 -2.438 26.812 C-4.786 28.818 -5.959 29.783 -9 30 C-9.33 29.67 -9.66 29.34 -10 29 C-9.91 26.643 -9.753 24.288 -9.562 21.938 C-9.461 20.647 -9.359 19.357 -9.254 18.027 C-9.17 17.028 -9.086 16.029 -9 15 C-8.34 15 -7.68 15 -7 15 C-6.732 14.257 -6.464 13.515 -6.188 12.75 C-5 10 -5 10 -3.5 8.062 C-1.653 5.523 -0.885 2.995 0 0 Z " fill="#8B8E93" transform="translate(383,211)"/>
  <ns0:path d="M0 0 C0.99 0 1.98 0 3 0 C4.03 11.422 0.263 20.89 -5.691 30.512 C-7.262 32.298 -8.831 33.069 -11 34 C-12 33 -12 33 -12.312 30.25 C-12.125 20.107 -7.209 7.209 0 0 Z " fill="#7C8187" transform="translate(356,257)"/>
  <ns0:path d="M0 0 C1.875 1.188 1.875 1.188 2.875 3.188 C3.009 6.861 3.042 9.686 1.875 13.188 C1.215 13.188 0.555 13.188 -0.125 13.188 C-0.785 11.868 -1.445 10.548 -2.125 9.188 C-5.375 9.466 -6.985 10.077 -9.562 12.125 C-12.4 15.516 -14.533 19.037 -16.695 22.883 C-18.003 24.991 -19.295 26.531 -21.125 28.188 C-20.513 23.615 -18.662 19.887 -16.5 15.875 C-16.145 15.213 -15.789 14.551 -15.423 13.869 C-6.41 -2.451 -6.41 -2.451 0 0 Z " fill="#010407" transform="translate(367.125,230.8125)"/>
  <ns0:path d="M0 0 C2.339 0.287 4.674 0.619 7 1 C8.447 4.872 7.544 7.823 6.562 11.75 C6.275 12.92 5.988 14.091 5.691 15.297 C5.463 16.189 5.235 17.081 5 18 C0.25 19.125 0.25 19.125 -2 18 C-2.12 12.229 -1.917 6.706 -1 1 C-0.67 0.67 -0.34 0.34 0 0 Z " fill="#24303B" transform="translate(367,171)"/>
  <ns0:path d="M0 0 C2 -0.043 4 -0.041 6 0 C7 1 7 1 7.133 4.055 C7.13 5.315 7.128 6.576 7.125 7.875 C7.128 9.131 7.13 10.386 7.133 11.68 C7 15 7 15 6 18 C4.125 18.812 4.125 18.812 2 19 C1.01 18.34 0.02 17.68 -1 17 C-1.056 14.035 -0.957 11.311 -0.688 8.375 C-0.626 7.573 -0.565 6.771 -0.502 5.945 C-0.349 3.962 -0.176 1.981 0 0 Z " fill="#212A33" transform="translate(268,137)"/>
  <ns0:path d="M0 0 C0.99 0 1.98 0 3 0 C3.816 9.793 -1.623 16.141 -7.098 23.875 C-7.725 24.576 -8.353 25.277 -9 26 C-9.99 26 -10.98 26 -12 26 C-12.499 19.427 -11.48 16.065 -7.688 10.75 C-7.283 10.152 -6.879 9.554 -6.463 8.938 C-5.332 7.275 -4.167 5.637 -3 4 C-2.205 2.801 -2.205 2.801 -1.395 1.578 C-0.934 1.057 -0.474 0.537 0 0 Z " fill="#009FDB" transform="translate(261,361)"/>
  <ns0:path d="M0 0 C5.75 1.875 5.75 1.875 8 3 C8.476 5.706 8.841 8.336 9.125 11.062 C9.211 11.821 9.298 12.58 9.387 13.361 C9.599 15.24 9.801 17.12 10 19 C7 20 7 20 4.438 18.75 C-0.079 13.654 -0.132 6.602 0 0 Z " fill="#FAAC0D" transform="translate(98,353)"/>
  <ns0:path d="M0 0 C0.66 0 1.32 0 2 0 C3.167 7.504 -0.816 12.059 -5 18 C-5.486 18.746 -5.972 19.493 -6.473 20.262 C-7.75 22.188 -7.75 22.188 -10 25 C-10.99 25 -11.98 25 -13 25 C-13 15.085 -6.298 7.222 0 0 Z " fill="#0097D1" transform="translate(321,276)"/>
  <ns0:path d="M0 0 C0.66 0.33 1.32 0.66 2 1 C2.861 16.046 2.861 16.046 -0.5 19.938 C-1.738 20.958 -1.738 20.958 -3 22 C-5.744 19.256 -5.331 17.578 -5.375 13.75 C-5.298 7.454 -4.439 4.439 0 0 Z " fill="#E0E7EB" transform="translate(245,403)"/>
  <ns0:path d="M0 0 C1.999 6.142 0.441 13.137 -2.402 18.785 C-3.836 20.997 -5.205 23.069 -7 25 C-7.66 25 -8.32 25 -9 25 C-8.468 14.847 -6.124 8.11 0 0 Z " fill="#DC9B17" transform="translate(383,201)"/>
  <ns0:path d="M0 0 C0.66 1.32 1.32 2.64 2 4 C-0.125 6.562 -0.125 6.562 -3 9 C-6.312 8.812 -6.312 8.812 -9 8 C-9 7.34 -9 6.68 -9 6 C-7.031 4.492 -7.031 4.492 -4.5 2.875 C-3.665 2.336 -2.829 1.797 -1.969 1.242 C-1.319 0.832 -0.669 0.422 0 0 Z " fill="#485260" transform="translate(244,304)"/>
  <ns0:path d="M0 0 C1.165 3.496 0.807 5.334 0.188 8.938 C-0.07 10.498 -0.07 10.498 -0.332 12.09 C-0.932 14.703 -1.678 16.686 -3 19 C-3.66 19 -4.32 19 -5 19 C-4.225 4.225 -4.225 4.225 0 0 Z " fill="#CFDBE4" transform="translate(379,207)"/>
  <ns0:path d="M0 0 C0.99 0.33 1.98 0.66 3 1 C2.75 2.875 2.75 2.875 2 5 C0.062 6.312 0.062 6.312 -2 7 C-2.66 6.67 -3.32 6.34 -4 6 C-2.848 3.532 -1.952 1.952 0 0 Z " fill="#445065" transform="translate(221,158)"/>
  <ns0:path d="M0 0 C2.31 0.33 4.62 0.66 7 1 C7.33 1.99 7.66 2.98 8 4 C5.36 4 2.72 4 0 4 C0 2.68 0 1.36 0 0 Z " fill="#15181B" transform="translate(367,171)"/>
  <ns0:path d="M0 0 C3 1 3 1 3 1 Z " fill="#C49E5B" transform="translate(230,437)"/>
</svg>