<?xml version="1.0" ?>
<svg xmlns:ns0="http://www.w3.org/2000/svg" xmlns="http://www.w3.org/2000/svg" width="512" height="512" viewBox="0 0 512 512" style="background-color: transparent;">
  <ns0:path d="M0 0 C0.33 0 0.66 0 1 0 C1.025 0.651 1.05 1.301 1.076 1.972 C1.192 4.919 1.315 7.866 1.438 10.812 C1.477 11.837 1.516 12.861 1.557 13.916 C1.599 14.899 1.64 15.882 1.684 16.895 C1.739 18.253 1.739 18.253 1.795 19.64 C1.921 22.15 1.921 22.15 3 25 C3.99 25.66 4.98 26.32 6 27 C5.67 27.66 5.34 28.32 5 29 C4.608 34.776 4.903 38.905 8 44 C12.562 46.737 16.601 47.319 21.844 47.75 C24.724 48.084 27.303 48.963 30 50 C30.495 49.01 30.495 49.01 31 48 C86.11 48 141.22 48 198 48 C199.607 51.215 199.057 54.436 199 58 C202.3 58 205.6 58 209 58 C209 54.7 209 51.4 209 48 C213.95 47.67 218.9 47.34 224 47 C224.801 49.581 225.591 52.164 226.375 54.75 C226.597 55.46 226.818 56.171 227.047 56.902 C230.236 67.502 231.314 78.113 231.668 89.141 C231.712 90.348 231.756 91.555 231.801 92.798 C231.891 95.329 231.978 97.86 232.06 100.392 C232.188 104.254 232.33 108.115 232.475 111.977 C232.561 114.448 232.646 116.919 232.73 119.391 C232.794 121.11 232.794 121.11 232.86 122.863 C232.893 123.945 232.927 125.027 232.962 126.142 C232.993 127.082 233.025 128.023 233.058 128.993 C232.987 132.678 232.457 136.342 232 140 C224.41 140 216.82 140 209 140 C208.67 142.64 208.34 145.28 208 148 C207.428 150.703 206.715 153.329 206 156 C209.63 156 213.26 156 217 156 C215.68 156.33 214.36 156.66 213 157 C212.34 160.3 211.68 163.6 211 167 C208.03 167 205.06 167 202 167 C201.769 166.143 201.539 165.286 201.301 164.402 C198.621 155.006 196.55 148.996 188.125 143.75 C186.427 142.814 184.72 141.895 183 141 C181.928 140.423 180.855 139.845 179.75 139.25 C161.437 133.146 141.184 135.38 123.758 143.116 C120.368 144.821 117.521 147.071 114.699 149.582 C113 151 113 151 110 152 C109.34 153.65 108.68 155.3 108 157 C106.68 160.3 105.36 163.6 104 167 C77.6 167 51.2 167 24 167 C22.68 164.03 21.36 161.06 20 158 C12.845 147.142 0.358 140.165 -12.09 137.285 C-20.654 135.835 -29.335 135.423 -38 135 C-38 134.67 -38 134.34 -38 134 C-35.187 133.945 -32.376 133.906 -29.562 133.875 C-28.779 133.858 -27.996 133.841 -27.189 133.824 C-21.542 133.778 -16.456 134.553 -11 136 C-11.012 134.737 -11.023 133.473 -11.035 132.172 C-11.181 109.666 -10.411 87.492 -7.585 65.165 C-6.079 53.204 -5.008 41.233 -4.127 29.211 C-3.373 19.33 -1.875 9.724 0 0 Z M1 25 C2 28 2 28 2 28 Z M19 85 C18.692 88.763 18.722 92.539 18.688 96.312 C18.658 97.371 18.629 98.43 18.6 99.521 C18.591 100.542 18.583 101.562 18.574 102.613 C18.56 103.55 18.545 104.486 18.53 105.45 C19.16 108.868 20.278 109.868 23 112 C26.162 112.613 26.162 112.613 29.74 112.533 C30.744 112.546 30.744 112.546 31.767 112.56 C33.971 112.582 36.174 112.575 38.379 112.566 C39.913 112.572 41.447 112.578 42.981 112.585 C46.193 112.596 49.405 112.591 52.617 112.576 C56.736 112.559 60.853 112.583 64.971 112.618 C68.138 112.64 71.304 112.638 74.471 112.63 C75.989 112.629 77.508 112.636 79.027 112.651 C81.148 112.668 83.267 112.654 85.389 112.631 C87.199 112.63 87.199 112.63 89.047 112.628 C92.178 112.29 92.178 112.29 93.871 109.642 C95.975 104.717 96.193 99.744 96.312 94.438 C96.35 93.343 96.387 92.249 96.426 91.121 C95.901 87.271 94.771 85.684 92 83 C88.71 81.835 85.524 81.867 82.057 81.855 C80.26 81.845 80.26 81.845 78.426 81.835 C77.134 81.834 75.843 81.833 74.512 81.832 C73.167 81.829 71.821 81.825 70.476 81.822 C67.658 81.816 64.839 81.814 62.021 81.815 C58.423 81.815 54.826 81.801 51.228 81.784 C48.449 81.773 45.67 81.771 42.891 81.771 C40.925 81.77 38.958 81.759 36.991 81.748 C27.414 81.276 27.414 81.276 19 85 Z M126 84 C124.054 87.892 124.218 92.589 123.812 96.875 C123.705 97.882 123.597 98.889 123.486 99.926 C123.394 100.896 123.302 101.867 123.207 102.867 C123.119 103.755 123.031 104.643 122.941 105.558 C123.007 108.302 123.447 109.747 125 112 C128.558 113.186 131.405 113.134 135.162 113.145 C135.887 113.149 136.613 113.152 137.36 113.155 C139.76 113.165 142.159 113.167 144.559 113.168 C146.226 113.171 147.894 113.175 149.562 113.178 C153.058 113.184 156.554 113.186 160.05 113.185 C164.53 113.185 169.01 113.199 173.491 113.216 C176.935 113.227 180.379 113.229 183.824 113.229 C185.475 113.23 187.127 113.234 188.779 113.242 C191.089 113.252 193.399 113.249 195.709 113.243 C197.023 113.244 198.338 113.246 199.692 113.247 C202.776 113.017 204.551 112.864 207 111 C207.651 107.853 207.9 105.193 208 102 C208.026 101.36 208.052 100.72 208.078 100.061 C208.158 97.915 208.208 95.771 208.25 93.625 C208.282 92.572 208.282 92.572 208.315 91.498 C208.352 87.554 208.352 87.554 206.672 84.086 C202.931 81.656 199.445 81.868 195.114 81.855 C194.417 81.851 193.721 81.848 193.004 81.845 C190.702 81.835 188.4 81.833 186.098 81.832 C184.497 81.829 182.897 81.825 181.296 81.822 C177.942 81.816 174.587 81.814 171.232 81.815 C166.933 81.815 162.635 81.801 158.336 81.784 C155.031 81.773 151.725 81.771 148.42 81.771 C146.835 81.77 145.25 81.766 143.665 81.758 C141.449 81.748 139.232 81.751 137.016 81.757 C135.755 81.756 134.494 81.754 133.194 81.753 C130.17 81.987 128.481 82.305 126 84 Z M57 122 C56.79 126.141 56.79 126.141 58 130 C62.093 130.049 66.187 130.086 70.28 130.11 C71.673 130.12 73.066 130.134 74.459 130.151 C76.46 130.175 78.46 130.185 80.461 130.195 C81.665 130.206 82.87 130.216 84.111 130.227 C87.128 130.305 87.128 130.305 89 128 C89.25 124.458 89.25 124.458 89 121 C86.375 118.375 78.783 119.814 75.25 119.812 C73.459 119.794 73.459 119.794 71.633 119.775 C70.48 119.773 69.328 119.772 68.141 119.77 C67.084 119.765 66.027 119.761 64.938 119.757 C61.919 120.007 59.732 120.727 57 122 Z M180.758 123.383 C179.957 126.149 179.876 127.378 181 130 C183.476 132.476 190.109 131.186 193.438 131.188 C194.513 131.2 195.589 131.212 196.697 131.225 C197.724 131.227 198.751 131.228 199.809 131.23 C200.755 131.235 201.702 131.239 202.677 131.243 C205.194 131.226 205.194 131.226 207 129 C207.25 125.458 207.25 125.458 207 122 C204.499 119.499 197.982 120.669 194.625 120.625 C193.558 120.588 192.49 120.55 191.391 120.512 C185.404 120.19 185.404 120.19 180.758 123.383 Z " fill="#005BBB" transform="translate(198,183)"/>
  <ns0:path d="M0 0 C0.66 2.64 1.32 5.28 2 8 C5.465 7.505 5.465 7.505 9 7 C9.33 4.69 9.66 2.38 10 0 C32.11 0 54.22 0 77 0 C77 12.388 77 12.388 76.449 18.379 C76.391 19.024 76.332 19.669 76.272 20.334 C76.082 22.41 75.885 24.486 75.688 26.562 C75.551 28.046 75.415 29.53 75.28 31.014 C74.684 37.428 74.056 43.829 73.203 50.215 C70.164 73.025 69.76 96.023 69 119 C68.4 118.931 67.799 118.861 67.181 118.79 C66.384 118.699 65.587 118.608 64.766 118.515 C63.98 118.425 63.194 118.335 62.384 118.242 C44.837 116.461 26.295 118.512 12.125 129.938 C6.668 135.01 4.56 139.636 3.492 146.926 C3.33 147.61 3.167 148.295 3 149 C-0.215 150.607 -3.436 150.057 -7 150 C-9.15 144.753 -10.333 140.899 -9.26 135.18 C-8.935 132.458 -9.181 129.967 -9.461 127.242 C-9.559 126.258 -9.658 125.275 -9.759 124.261 C-9.878 123.142 -9.878 123.142 -10 122 C-10.777 122.005 -11.554 122.01 -12.355 122.016 C-15.862 122.037 -19.368 122.05 -22.875 122.062 C-24.098 122.071 -25.322 122.079 -26.582 122.088 C-27.749 122.091 -28.915 122.094 -30.117 122.098 C-31.735 122.106 -31.735 122.106 -33.386 122.114 C-36 122 -36 122 -38 121 C-39.07 118.262 -39.07 118.262 -40.125 114.688 C-40.478 113.536 -40.831 112.385 -41.195 111.199 C-43.358 101.841 -41.873 92.72 -39.562 83.562 C-39.168 81.929 -39.168 81.929 -38.766 80.262 C-38.021 77.188 -37.264 74.117 -36.504 71.046 C-35.592 67.343 -34.702 63.634 -33.809 59.926 C-31.911 52.057 -29.991 44.193 -28.062 36.332 C-27.386 33.579 -26.713 30.825 -26.043 28.071 C-25.221 24.692 -24.393 21.314 -23.562 17.938 C-23.328 16.969 -23.093 16.001 -22.852 15.003 C-22.634 14.124 -22.416 13.245 -22.191 12.34 C-22.008 11.591 -21.824 10.842 -21.635 10.07 C-20.236 5.511 -18.603 3.097 -14.285 0.75 C-9.671 -0.764 -4.792 -0.283 0 0 Z M-28 58 C-30.448 61.784 -30.272 65.513 -29.68 69.844 C-28.489 73.62 -26.285 74.897 -23 77 C-22.01 77.33 -21.02 77.66 -20 78 C-18.902 80.836 -18.902 80.836 -17.938 84.375 C-16.908 88.105 -16.155 90.768 -14 94 C-10.182 93.725 -10.182 93.725 -7 92 C-7.065 90.475 -7.204 88.954 -7.375 87.438 C-7.47 86.535 -7.566 85.633 -7.664 84.703 C-7.871 83.042 -8.108 81.383 -8.398 79.734 C-9.3 74.487 -9.3 74.487 -7.5 71.562 C-5.525 68.189 -5.704 65.958 -6.312 62.16 C-7.208 59.347 -8.628 57.503 -11.055 55.809 C-16.61 53.499 -23.474 53.899 -28 58 Z " fill="#0056BC" transform="translate(118,200)"/>
  <ns0:path d="M0 0 C2 2 2 2 2.125 5.125 C2.084 6.074 2.042 7.023 2 8 C6.651 8.269 6.651 8.269 11 7 C11.33 4.69 11.66 2.38 12 0 C59.52 0 107.04 0 156 0 C157.98 3.96 157.98 3.96 160 8 C162.64 7.67 165.28 7.34 168 7 C167.959 6.216 167.918 5.433 167.875 4.625 C168 2 168 2 170 0 C173.982 -0.346 176.607 -0.113 180 2 C184.401 9.781 186.1 18.582 188.147 27.212 C188.752 29.76 189.373 32.304 189.996 34.848 C190.389 36.476 190.781 38.105 191.172 39.734 C191.448 40.867 191.448 40.867 191.73 42.023 C192.613 45.775 193.081 49.157 193 53 C191.949 53.002 190.898 53.005 189.815 53.007 C164.252 53.066 138.688 53.142 113.125 53.236 C100.763 53.281 88.4 53.32 76.038 53.346 C65.264 53.369 54.49 53.403 43.716 53.449 C38.011 53.473 32.305 53.491 26.6 53.498 C21.23 53.504 15.86 53.524 10.491 53.554 C8.52 53.563 6.548 53.567 4.577 53.565 C1.886 53.563 -0.805 53.58 -3.496 53.601 C-4.666 53.594 -4.666 53.594 -5.86 53.587 C-10.681 53.649 -13.823 54.655 -18 57 C-20.312 56.875 -20.312 56.875 -22 56 C-23.041 52.876 -23.129 50.682 -23.133 47.406 C-23.134 46.292 -23.135 45.179 -23.137 44.031 C-23.133 42.866 -23.129 41.701 -23.125 40.5 C-23.129 39.366 -23.133 38.231 -23.137 37.062 C-23.114 17.38 -23.114 17.38 -19 8 C-18.567 6.987 -18.567 6.987 -18.125 5.953 C-14.264 -0.749 -6.979 -2.186 0 0 Z " fill="#005CBF" transform="translate(222,152)"/>
  <ns0:path d="M0 0 C0.846 -0.003 1.692 -0.006 2.564 -0.009 C5.416 -0.018 8.268 -0.019 11.12 -0.021 C13.158 -0.025 15.196 -0.03 17.234 -0.036 C22.784 -0.049 28.334 -0.055 33.884 -0.06 C37.349 -0.063 40.815 -0.067 44.281 -0.071 C55.121 -0.085 65.96 -0.095 76.799 -0.098 C89.32 -0.103 101.84 -0.12 114.36 -0.149 C124.031 -0.171 133.703 -0.181 143.374 -0.182 C149.153 -0.184 154.932 -0.189 160.71 -0.207 C166.148 -0.224 171.586 -0.226 177.023 -0.217 C179.018 -0.216 181.014 -0.221 183.009 -0.231 C185.734 -0.243 188.459 -0.237 191.185 -0.227 C191.973 -0.235 192.76 -0.243 193.572 -0.251 C199.43 -0.199 204.291 0.86 208.848 4.828 C210.726 8.916 210.608 13.012 209.23 17.215 C208.519 18.884 207.722 20.517 206.91 22.14 C206.25 22.14 205.59 22.14 204.91 22.14 C204.91 22.8 204.91 23.46 204.91 24.14 C186.129 30.401 159.603 26.232 139.856 26.139 C136.854 26.125 133.853 26.112 130.851 26.1 C120.359 26.057 109.866 26.008 99.373 25.953 C89.619 25.903 79.865 25.868 70.111 25.839 C61.696 25.814 53.281 25.778 44.866 25.732 C39.857 25.706 34.848 25.684 29.838 25.673 C25.143 25.663 20.448 25.639 15.753 25.604 C14.033 25.594 12.314 25.589 10.595 25.589 C8.244 25.588 5.895 25.569 3.545 25.546 C2.231 25.54 0.918 25.534 -0.435 25.528 C-4.684 25.077 -7.312 24.102 -11.09 22.14 C-14.361 17.779 -15.49 13.61 -15.449 8.144 C-14.84 4.749 -12.703 3.194 -10.09 1.14 C-6.914 -0.447 -3.488 -0.004 0 0 Z " fill="#747575" transform="translate(217.0898895263672,205.85955810546875)"/>
  <ns0:path d="M0 0 C0.736 -0.003 1.472 -0.006 2.23 -0.009 C4.709 -0.018 7.188 -0.019 9.666 -0.021 C11.439 -0.025 13.211 -0.03 14.983 -0.036 C19.807 -0.049 24.632 -0.055 29.457 -0.06 C32.47 -0.063 35.484 -0.067 38.497 -0.071 C47.924 -0.085 57.351 -0.095 66.777 -0.098 C77.662 -0.103 88.547 -0.12 99.432 -0.149 C107.842 -0.171 116.253 -0.181 124.663 -0.182 C129.687 -0.184 134.711 -0.189 139.736 -0.207 C144.464 -0.224 149.193 -0.226 153.921 -0.217 C155.655 -0.216 157.389 -0.221 159.123 -0.231 C161.494 -0.243 163.864 -0.237 166.235 -0.227 C166.918 -0.235 167.6 -0.243 168.304 -0.251 C174.303 -0.19 178.836 1.356 183.435 5.265 C185.535 9.29 185.282 12.835 183.935 17.14 C182.235 19.598 181.223 20.078 178.278 20.713 C174.691 21.172 171.247 21.266 167.63 21.267 C166.56 21.27 166.56 21.27 165.469 21.272 C163.09 21.276 160.711 21.273 158.332 21.27 C156.622 21.271 154.912 21.273 153.201 21.275 C148.563 21.28 143.924 21.278 139.286 21.275 C134.425 21.272 129.565 21.275 124.704 21.276 C116.539 21.278 108.374 21.276 100.209 21.271 C90.782 21.265 81.355 21.267 71.928 21.273 C63.825 21.277 55.722 21.278 47.619 21.275 C42.783 21.274 37.948 21.273 33.113 21.277 C28.563 21.28 24.013 21.278 19.464 21.272 C17.798 21.271 16.133 21.271 14.468 21.273 C-6.958 21.299 -6.958 21.299 -11.565 18.765 C-14.375 15.721 -14.454 12.159 -14.424 8.144 C-13.815 4.749 -11.678 3.194 -9.065 1.14 C-6.141 -0.321 -3.205 -0.004 0 0 Z " fill="#717274" transform="translate(223.0648651123047,130.85955810546875)"/>
  <ns0:path d="M0 0 C1.601 0.102 1.601 0.102 3.234 0.207 C15.047 1.401 25.255 5.884 34 14 C37.861 19.622 39.625 25.244 40 32 C34.125 28.375 34.125 28.375 33 25 C32.34 24.67 31.68 24.34 31 24 C31.046 24.629 31.093 25.258 31.141 25.906 C31.452 33.297 30.321 38.24 25.375 43.84 C14.109 54.566 -0.893 58.525 -16.115 58.352 C-26.926 57.976 -37.961 55.352 -45.66 47.254 C-49.568 41.774 -50.267 35.56 -51 29 C-52.98 29.33 -54.96 29.66 -57 30 C-54.751 19.794 -50.69 14.86 -41.826 9.078 C-29.422 1.754 -14.245 -0.96 0 0 Z M-27 30 C-28.75 33.937 -29.271 36.012 -28.125 40.188 C-25.23 44.019 -22.63 45.726 -18 47 C-8.788 48.011 -1.944 47.258 5.375 41.438 C8.285 38.735 8.883 38.05 9.312 34.188 C8.918 30.167 7.875 28.799 5 26 C-4.02 19.293 -19.538 22.099 -27 30 Z " fill="#293038" transform="translate(360,318)"/>
  <ns0:path d="M0 0 C0.674 -0.005 1.348 -0.01 2.042 -0.015 C4.259 -0.029 6.475 -0.028 8.692 -0.026 C10.24 -0.03 11.787 -0.034 13.335 -0.039 C16.576 -0.047 19.816 -0.046 23.057 -0.041 C27.2 -0.035 31.344 -0.052 35.487 -0.075 C38.683 -0.09 41.879 -0.091 45.074 -0.088 C46.602 -0.088 48.129 -0.094 49.657 -0.104 C51.796 -0.116 53.935 -0.109 56.074 -0.098 C57.897 -0.099 57.897 -0.099 59.756 -0.1 C63.65 0.336 67.255 1.427 70.102 4.275 C70.612 12.137 70.316 20.497 69.102 28.275 C66.617 30.759 65.177 30.514 61.787 30.535 C60.678 30.526 60.678 30.526 59.547 30.518 C58.768 30.519 57.989 30.521 57.186 30.523 C54.605 30.527 52.023 30.516 49.442 30.505 C47.653 30.504 45.865 30.503 44.077 30.504 C40.326 30.502 36.576 30.494 32.826 30.48 C28.008 30.463 23.19 30.46 18.372 30.46 C14.679 30.46 10.986 30.455 7.293 30.447 C5.516 30.444 3.739 30.442 1.962 30.442 C-0.516 30.439 -2.994 30.431 -5.473 30.42 C-6.214 30.42 -6.955 30.421 -7.719 30.421 C-12.784 30.389 -12.784 30.389 -13.898 29.275 C-14.595 20.166 -13.272 11.251 -11.898 2.275 C-7.81 0.333 -4.506 0.017 0 0 Z " fill="#242434" transform="translate(335.898193359375,264.725341796875)"/>
  <ns0:path d="M0 0 C6.104 4.682 12.064 9.254 13.188 17.188 C11.207 16.197 9.228 15.207 7.188 14.188 C7.15 15.056 7.113 15.925 7.074 16.82 C6.636 24.51 6.121 29.752 1 35.75 C-10.235 45.487 -23.071 48.064 -37.728 47.367 C-50.523 46.267 -63.674 41.625 -72.441 31.953 C-77.478 25.468 -77.16 19.025 -76.812 11.188 C-77.242 12.4 -77.242 12.4 -77.68 13.637 C-78.24 14.899 -78.24 14.899 -78.812 16.188 C-80.938 17 -80.938 17 -82.812 17.188 C-82.812 17.848 -82.812 18.507 -82.812 19.188 C-83.472 19.188 -84.132 19.188 -84.812 19.188 C-85.378 13.758 -84.522 10.673 -81.426 6.172 C-62.708 -16.851 -22.765 -15.808 0 0 Z M-50.812 16.188 C-53.275 19.881 -53.603 22.901 -52.812 27.188 C-49.387 32.049 -44.461 34.636 -38.812 36.188 C-31.108 37.121 -24.203 36.923 -17.812 32.188 C-15.055 29.688 -14.851 28.487 -14.375 24.75 C-14.901 20.467 -15.658 19.105 -18.812 16.188 C-27.84 9.764 -41.757 9.849 -50.812 16.188 Z " fill="#282F37" transform="translate(206.8125,328.8125)"/>
  <ns0:path d="M0 0 C2.281 0.005 4.562 -0 6.843 -0.006 C14.261 -0.012 21.675 0.101 29.087 0.451 C30.363 0.508 31.64 0.564 32.956 0.623 C36.349 1.151 37.845 1.684 40.216 4.13 C41.525 9.342 41.151 14.13 40.466 19.38 C40.391 20.087 40.316 20.793 40.239 21.521 C39.612 26.54 39.612 26.54 38.076 28.829 C35.299 30.772 33.045 30.504 29.68 30.503 C29.022 30.506 28.363 30.51 27.684 30.514 C25.507 30.522 23.33 30.508 21.153 30.494 C19.64 30.493 18.127 30.494 16.614 30.495 C13.443 30.495 10.272 30.485 7.101 30.467 C3.036 30.444 -1.03 30.443 -5.095 30.45 C-8.22 30.453 -11.344 30.447 -14.468 30.437 C-15.967 30.433 -17.466 30.432 -18.966 30.434 C-21.06 30.434 -23.155 30.421 -25.249 30.405 C-26.442 30.4 -27.634 30.396 -28.862 30.391 C-31.784 30.13 -31.784 30.13 -34.784 28.13 C-36.323 23.516 -36.01 18.901 -36.034 14.068 C-36.065 12.539 -36.065 12.539 -36.097 10.98 C-36.102 10.007 -36.107 9.035 -36.113 8.033 C-36.122 7.141 -36.131 6.248 -36.141 5.329 C-35.964 4.241 -35.964 4.241 -35.784 3.13 C-32.198 0.74 -29.387 0.69 -25.226 0.513 C-24.099 0.457 -24.099 0.457 -22.949 0.399 C-15.301 0.049 -7.655 -0.021 0 0 Z " fill="#232232" transform="translate(252.784423828125,264.86962890625)"/>
  <ns0:path d="M0 0 C1.601 0.102 1.601 0.102 3.234 0.207 C15.047 1.401 25.255 5.884 34 14 C37.861 19.622 39.625 25.244 40 32 C34.125 28.375 34.125 28.375 33 25 C32.402 24.897 31.804 24.794 31.188 24.688 C27.774 23.615 26.853 20.954 25 18 C19.663 11.687 10.588 8.715 2.539 7.685 C-13.172 6.601 -29.104 8.298 -42 18 C-44.253 20.179 -46.126 22.496 -48 25 C-50.625 27.938 -50.625 27.938 -53 30 C-54.32 30 -55.64 30 -57 30 C-54.751 19.794 -50.69 14.86 -41.826 9.078 C-29.422 1.754 -14.245 -0.96 0 0 Z " fill="#010102" transform="translate(360,318)"/>
  <ns0:path d="M0 0 C3.217 2.289 5.327 3.866 7.25 7.312 C7.83 11.373 7.721 13.484 5.688 17.062 C-0.168 22.467 -5.779 22.86 -13.523 22.664 C-19.659 21.996 -23.905 19.668 -28.812 16.062 C-31.054 12.881 -31.491 11.067 -31.238 7.242 C-30.386 3.875 -28.449 2.352 -25.75 0.312 C-18.744 -3.24 -7.129 -3.328 0 0 Z " fill="#8A8D91" transform="translate(184.75,342.6875)"/>
  <ns0:path d="M0 0 C3.718 2.909 5.556 4.417 6.375 9.125 C5.692 13.394 3.903 15.222 0.875 18.25 C-5.872 23.022 -13.081 22.932 -21.125 22.25 C-25.754 20.996 -28.361 19.261 -31.25 15.438 C-32.408 11.22 -31.93 9.221 -30.125 5.25 C-22.984 -2.223 -9.452 -5.108 0 0 Z " fill="#8A8C8F" transform="translate(363.125,342.75)"/>
  <ns0:path d="M0 0 C2.966 2.966 3.197 6.455 4.121 10.469 C4.826 13.32 4.826 13.32 8 15 C11.198 15.167 11.198 15.167 14.75 15 C24.992 14.905 24.992 14.905 29 17 C30.877 21.243 31.615 25.389 31 30 C28.768 32.848 27.45 33.85 24 35 C21.025 35.224 18.045 35.185 15.062 35.188 C14.251 35.2 13.44 35.212 12.604 35.225 C11.818 35.227 11.032 35.228 10.223 35.23 C9.509 35.235 8.795 35.239 8.059 35.243 C5.64 34.958 4.063 34.284 2 33 C-4.068 21.73 -3.268 11.944 0 0 Z " fill="#8E8F92" transform="translate(79,323)"/>
  <ns0:path d="M0 0 C0.66 0.33 1.32 0.66 2 1 C2.815 3.86 3.505 6.66 4.125 9.562 C4.307 10.349 4.489 11.136 4.676 11.947 C6.372 19.682 6.602 26.19 4.188 33.875 C3.851 34.986 3.515 36.097 3.168 37.242 C2 40 2 40 -1 42 C-3.88 42.248 -6.621 42.37 -9.5 42.375 C-10.272 42.399 -11.044 42.424 -11.84 42.449 C-17.427 42.478 -17.427 42.478 -20.047 40.293 C-21.194 37.533 -21.159 35.887 -20.75 32.938 C-20.642 32.08 -20.533 31.223 -20.422 30.34 C-20 28 -20 28 -19 25 C-17.411 24.961 -17.411 24.961 -15.789 24.922 C-14.401 24.866 -13.013 24.808 -11.625 24.75 C-10.926 24.736 -10.228 24.722 -9.508 24.707 C-7.223 24.64 -7.223 24.64 -4 24 C-2.096 21.187 -1.667 18.575 -1.367 15.234 C-1.283 14.345 -1.2 13.455 -1.113 12.539 C-0.995 11.158 -0.995 11.158 -0.875 9.75 C-0.789 8.814 -0.702 7.878 -0.613 6.914 C-0.402 4.61 -0.198 2.305 0 0 Z " fill="#959799" transform="translate(430,315)"/>
  <ns0:path d="M0 0 C3.184 1.791 4.527 3.205 6.375 6.312 C7.221 9.95 6.967 12.39 6 16 C1.129 21.745 1.129 21.745 -2.988 22.238 C-7.051 22.368 -9.372 22.374 -12.938 20.25 C-15.397 17.567 -16.872 15.494 -17.188 11.816 C-16.828 7.492 -16.335 5.421 -13.562 1.938 C-9.422 -0.943 -4.826 -0.87 0 0 Z " fill="#7F8185" transform="translate(105,255)"/>
  <ns0:path d="M0 0 C1.152 0.002 2.305 0.004 3.492 0.006 C5.283 0.024 5.283 0.024 7.109 0.043 C8.923 0.044 8.923 0.044 10.773 0.045 C19.719 0.09 19.719 0.09 20.859 1.23 C21.047 4.668 21.047 4.668 20.859 8.23 C18.859 10.23 18.859 10.23 15.97 10.458 C14.766 10.447 13.561 10.437 12.32 10.426 C10.367 10.416 10.367 10.416 8.375 10.406 C6.995 10.39 5.615 10.373 4.234 10.355 C2.846 10.345 1.458 10.336 0.07 10.328 C-3.334 10.304 -6.737 10.272 -10.141 10.23 C-11.495 7.522 -11.206 5.221 -11.141 2.23 C-7.278 0.432 -4.247 -0.017 0 0 Z " fill="#00A5DA" transform="translate(266.140625,302.76953125)"/>
  <ns0:path d="M0 0 C5.61 0.33 11.22 0.66 17 1 C20 12.5 20 12.5 20 17 C17.434 18.283 15.49 18.204 12.625 18.25 C11.669 18.276 10.712 18.302 9.727 18.328 C6.498 17.94 5.25 17.335 3 15 C1.953 12.441 1.953 12.441 1.25 9.562 C1.008 8.615 0.765 7.668 0.516 6.691 C0 4 0 4 0 0 Z " fill="#E99B07" transform="translate(80,321)"/>
  <ns0:path d="M0 0 C3.077 2.683 3.883 4.562 4.938 8.5 C5.008 12.453 4.442 13.947 2 17 C-1.389 19.259 -3.041 19.228 -6.996 18.602 C-10.376 17.587 -11.951 15.794 -14 13 C-15.038 9.678 -15.161 7.693 -14.375 4.312 C-10.987 -1.386 -5.916 -2.005 0 0 Z " fill="#7C7D80" transform="translate(124,169)"/>
  <ns0:path d="M0 0 C0.947 0.004 1.893 0.008 2.869 0.012 C3.896 0.014 4.922 0.016 5.98 0.018 C7.056 0.031 8.132 0.043 9.24 0.055 C10.32 0.056 11.399 0.057 12.511 0.057 C20.537 0.103 20.537 0.103 21.677 1.243 C21.865 4.68 21.865 4.68 21.677 8.243 C19.108 10.813 18.088 10.5 14.521 10.509 C12.988 10.512 12.988 10.512 11.424 10.516 C10.352 10.509 9.281 10.501 8.177 10.493 C6.571 10.505 6.571 10.505 4.931 10.516 C3.909 10.514 2.887 10.511 1.834 10.509 C0.893 10.506 -0.047 10.504 -1.016 10.502 C-3.323 10.243 -3.323 10.243 -5.323 8.243 C-4.676 0.489 -4.676 0.489 0 0 Z " fill="#00A9EB" transform="translate(383.322509765625,303.757080078125)"/>
  <ns0:path d="M0 0 C3.96 0 7.92 0 12 0 C11.277 13.158 11.277 13.158 8 17 C5.301 17.488 5.301 17.488 2.312 17.312 C1.319 17.267 0.325 17.222 -0.699 17.176 C-1.458 17.118 -2.218 17.06 -3 17 C-2.368 11.208 -1.33 5.674 0 0 Z " fill="#F7A809" transform="translate(418,323)"/>
  <ns0:path d="M0 0 C3.63 0 7.26 0 11 0 C10.483 5.605 9.71 10.641 8 16 C4.37 16 0.74 16 -3 16 C-2.41 10.492 -1.433 5.351 0 0 Z " fill="#F9FAFA" transform="translate(407,323)"/>
  <ns0:path d="M0 0 C0.507 1.894 1.006 3.79 1.5 5.688 C1.778 6.743 2.057 7.799 2.344 8.887 C2.95 11.763 3.368 14.085 3 17 C0 19 0 19 -2.688 18.625 C-3.832 18.316 -3.832 18.316 -5 18 C-5.672 15.897 -6.337 13.793 -7 11.688 C-7.557 9.93 -7.557 9.93 -8.125 8.137 C-9 5 -9 5 -9 2 C-2.25 0 -2.25 0 0 0 Z " fill="#262F38" transform="translate(108,275)"/>
  <ns0:path d="M0 0 C3.63 0 7.26 0 11 0 C13.143 11.116 13.143 11.116 13 16 C10.03 16 7.06 16 4 16 C2.092 10.607 0.605 5.685 0 0 Z " fill="#ECEFF0" transform="translate(97,322)"/>
  <ns0:path d="M0 0 C1.134 0.021 2.269 0.041 3.438 0.062 C3.993 3.019 4.532 5.977 5.062 8.938 C5.222 9.779 5.382 10.621 5.547 11.488 C5.689 12.294 5.83 13.1 5.977 13.93 C6.113 14.673 6.249 15.417 6.389 16.183 C6.405 16.803 6.421 17.424 6.438 18.062 C4.438 20.062 4.438 20.062 1.812 20.188 C1.029 20.146 0.245 20.105 -0.562 20.062 C-2.799 16.391 -3.236 12.561 -3.75 8.375 C-3.845 7.686 -3.939 6.997 -4.037 6.287 C-4.261 4.551 -4.417 2.807 -4.562 1.062 C-3.562 0.062 -3.562 0.062 0 0 Z " fill="#252F39" transform="translate(121.5625,187.9375)"/>
  <ns0:path d="M0 0 C6.104 4.682 12.064 9.254 13.188 17.188 C11.453 16.454 9.72 15.718 7.992 14.969 C6.688 14.404 5.377 13.854 4.062 13.312 C1.36 11.691 -0.588 9.412 -2.812 7.188 C-7.665 3.063 -12.685 2.108 -18.789 0.898 C-21.812 0.188 -21.812 0.188 -23.734 -0.883 C-26.886 -2.293 -30.049 -2.108 -33.438 -2.062 C-34.152 -2.056 -34.867 -2.05 -35.604 -2.044 C-41.199 -1.94 -46.401 -1.276 -51.812 0.188 C-53.073 0.479 -53.073 0.479 -54.359 0.777 C-61.244 2.54 -67.144 5.527 -71.41 11.379 C-71.873 11.976 -72.336 12.573 -72.812 13.188 C-73.472 13.188 -74.132 13.188 -74.812 13.188 C-75.472 12.527 -76.132 11.868 -76.812 11.188 C-77.06 11.992 -77.308 12.796 -77.562 13.625 C-78.812 16.188 -78.812 16.188 -80.938 17 C-81.556 17.062 -82.175 17.124 -82.812 17.188 C-82.812 17.848 -82.812 18.507 -82.812 19.188 C-83.472 19.188 -84.132 19.188 -84.812 19.188 C-85.378 13.758 -84.522 10.673 -81.426 6.172 C-62.708 -16.851 -22.765 -15.808 0 0 Z " fill="#030305" transform="translate(206.8125,328.8125)"/>
  <ns0:path d="M0 0 C5.979 0.119 5.979 0.119 7.09 1.23 C7.232 4.234 7.132 7.223 7.09 10.23 C3.79 10.23 0.49 10.23 -2.91 10.23 C-3.887 4.176 -3.887 4.176 -3.91 2.23 C-1.91 0.23 -1.91 0.23 0 0 Z " fill="#4C535D" transform="translate(399.91015625,230.76953125)"/>
  <ns0:path d="M0 0 C24.75 0 49.5 0 75 0 C75 0.33 75 0.66 75 1 C50.25 1 25.5 1 0 1 C0 0.67 0 0.34 0 0 Z " fill="#0E4182" transform="translate(326,295)"/>
  <ns0:path d="M0 0 C0.33 0 0.66 0 1 0 C1 3.3 1 6.6 1 10 C-1.97 10 -4.94 10 -8 10 C-7.67 7.03 -7.34 4.06 -7 1 C-4.03 1.495 -4.03 1.495 -1 2 C-0.67 1.34 -0.34 0.68 0 0 Z " fill="#44454E" transform="translate(229,231)"/>
  <ns0:path d="M0 0 C3.96 0 7.92 0 12 0 C11.67 2.64 11.34 5.28 11 8 C8.36 8 5.72 8 3 8 C2.876 6.866 2.752 5.731 2.625 4.562 C2.419 3.387 2.212 2.211 2 1 C1.34 0.67 0.68 0.34 0 0 Z " fill="#454B54" transform="translate(378,152)"/>
  <ns0:path d="M0 0 C2 -0.043 4 -0.041 6 0 C7 1 7 1 7.098 2.848 C7.049 5.924 7.049 5.924 7 9 C4.36 9 1.72 9 -1 9 C-2.033 6.212 -2.045 5.132 -1.062 2.25 C-0.712 1.507 -0.361 0.765 0 0 Z " fill="#3F434B" transform="translate(226,151)"/>
  <ns0:path d="M0 0 C2.31 0 4.62 0 7 0 C6.67 1.65 6.34 3.3 6 5 C4.188 5.625 4.188 5.625 2 6 C1.01 5.34 0.02 4.68 -1 4 C-0.67 2.68 -0.34 1.36 0 0 Z " fill="#0F1114" transform="translate(118,188)"/>
  <ns0:path d="M0 0 C2.64 0 5.28 0 8 0 C7.67 0.99 7.34 1.98 7 3 C5.125 3.812 5.125 3.812 3 4 C2.01 3.34 1.02 2.68 0 2 C0 1.34 0 0.68 0 0 Z " fill="#1C2023" transform="translate(117,190)"/>
  <ns0:path d="M0 0 C2.31 0 4.62 0 7 0 C6.67 0.99 6.34 1.98 6 3 C4.02 2.34 2.04 1.68 0 1 C0 0.67 0 0.34 0 0 Z " fill="#423F43" transform="translate(222,231)"/>
  <ns0:path d="M0 0 C4.29 0 8.58 0 13 0 C13 0.33 13 0.66 13 1 C8.71 1 4.42 1 0 1 C0 0.67 0 0.34 0 0 Z " fill="#092E60" transform="translate(273,265)"/>
  <ns0:path d="M0 0 C3.96 0 7.92 0 12 0 C12 0.33 12 0.66 12 1 C8.04 1 4.08 1 0 1 C0 0.67 0 0.34 0 0 Z " fill="#092F61" transform="translate(225,265)"/>
  <ns0:path d="M0 0 C1.98 0 3.96 0 6 0 C6 0.33 6 0.66 6 1 C4.02 1 2.04 1 0 1 C0 0.67 0 0.34 0 0 Z " fill="#3168A0" transform="translate(356,205)"/>
  <ns0:path d="M0 0 C1.98 0 3.96 0 6 0 C6 0.33 6 0.66 6 1 C4.02 1 2.04 1 0 1 C0 0.67 0 0.34 0 0 Z " fill="#3168A0" transform="translate(348,205)"/>
  <ns0:path d="M0 0 C4 1 4 1 4 1 Z " fill="#003068" transform="translate(150,319)"/>
  <ns0:path d="M0 0 C1 4 1 4 1 4 Z " fill="#084DA0" transform="translate(127,200)"/>
  <ns0:path d="M0 0 C3 1 3 1 3 1 Z " fill="#34689F" transform="translate(266,205)"/>
  <ns0:path d="M0 0 C2 1 2 1 2 1 Z " fill="#013069" transform="translate(131,328)"/>
  <ns0:path d="M0 0 C2 1 2 1 2 1 Z " fill="#003D84" transform="translate(139,323)"/>
  <ns0:path d="M0 0 C2 1 2 1 2 1 Z " fill="#003778" transform="translate(144,321)"/>
  <ns0:path d="M0 0 C2 1 2 1 2 1 Z " fill="#003474" transform="translate(147,320)"/>
  <ns0:path d="M0 0 C2 1 2 1 2 1 Z " fill="#0D4892" transform="translate(122,208)"/>
  <ns0:path d="M0 0 C2 1 2 1 2 1 Z " fill="#2561A7" transform="translate(205,207)"/>
  <ns0:path d="M0 0 C2 1 2 1 2 1 Z " fill="#2561A6" transform="translate(207,206)"/>
  <ns0:path d="M0 0 C2 1 2 1 2 1 Z " fill="#386A9D" transform="translate(354,205)"/>
  <ns0:path d="M0 0 C2 1 2 1 2 1 Z " fill="#3068A1" transform="translate(346,205)"/>
  <ns0:path d="M0 0 C2 1 2 1 2 1 Z " fill="#3269A0" transform="translate(338,205)"/>
  <ns0:path d="M0 0 C2 1 2 1 2 1 Z " fill="#38699C" transform="translate(270,205)"/>
  <ns0:path d="M0 0 C2 1 2 1 2 1 Z " fill="#1762AA" transform="translate(382,160)"/>
  <ns0:path d="M0 0 C2 1 2 1 2 1 Z " fill="#2F639D" transform="translate(216,151)"/>
  <ns0:path d="M0 0 C2 1 2 1 2 1 Z " fill="#092D5D" transform="translate(241,265)"/>
  <ns0:path d="M0 0 C3 1 3 1 3 1 Z " fill="#2F68A2" transform="translate(335,205)"/>
  <ns0:path d="M0 0 C2 1 2 1 2 1 Z " fill="#3068A2" transform="translate(328,205)"/>
  <ns0:path d="M0 0 C2 1 2 1 2 1 Z " fill="#35689F" transform="translate(272,205)"/>
  <ns0:path d="M0 0 C2 1 2 1 2 1 Z " fill="#35689F" transform="translate(264,205)"/>
  <ns0:path d="M0 0 C2 1 2 1 2 1 Z " fill="#3A699B" transform="translate(256,205)"/>
</svg>