<?xml version="1.0" ?>
<svg xmlns:ns0="http://www.w3.org/2000/svg" xmlns="http://www.w3.org/2000/svg" width="512" height="512" viewBox="0 0 512 512" style="background-color: transparent;">
  <ns0:path d="M0 0 C3.823 0.022 7.645 0.04 11.468 0.059 C20.482 0.103 29.496 0.153 38.51 0.207 C47.787 0.263 57.065 0.307 66.342 0.345 C74.345 0.379 82.347 0.42 90.349 0.467 C95.113 0.495 99.877 0.521 104.641 0.538 C109.11 0.555 113.578 0.581 118.047 0.614 C119.682 0.625 121.317 0.632 122.952 0.636 C125.19 0.642 127.428 0.659 129.667 0.68 C130.917 0.687 132.166 0.694 133.454 0.701 C139.824 1.163 145.551 2.164 150.1 6.965 C157.265 17.867 158.228 32.069 160.162 44.653 C160.547 47.136 160.933 49.619 161.324 52.102 C161.565 53.634 161.802 55.167 162.035 56.7 C162.793 61.541 163.853 66.225 165.1 70.965 C172.85 71.142 180.6 71.306 188.35 71.465 C189.523 71.49 190.695 71.514 191.904 71.539 C205.611 71.817 219.312 72.006 233.022 71.961 C234.808 71.956 234.808 71.956 236.631 71.951 C242.372 71.93 248.113 71.894 253.855 71.84 C255.936 71.828 258.018 71.817 260.1 71.805 C261.043 71.792 261.987 71.778 262.959 71.764 C271.099 71.733 271.099 71.733 275.1 73.965 C278.981 78.124 279.227 82.09 279.198 87.606 C279.194 88.676 279.191 89.746 279.188 90.848 C279.179 91.959 279.171 93.07 279.162 94.215 C279.158 95.342 279.153 96.469 279.149 97.629 C279.137 100.408 279.121 103.187 279.1 105.965 C276.35 106.164 273.601 106.349 270.85 106.528 C270.092 106.584 269.334 106.64 268.553 106.698 C261.816 107.119 256.027 106.543 249.1 105.965 C249.76 114.215 250.42 122.465 251.1 130.965 C254.73 131.295 258.36 131.625 262.1 131.965 C263.09 132.625 264.08 133.285 265.1 133.965 C261.8 134.295 258.5 134.625 255.1 134.965 C254.77 141.235 254.44 147.505 254.1 153.965 C243.08 153.965 243.08 153.965 240.1 151.965 C239.28 149.461 239.28 149.461 238.975 146.403 C237.804 137.479 235.614 131.134 230.307 123.813 C229.1 121.965 229.1 121.965 229.1 119.965 C228.11 119.635 227.12 119.305 226.1 118.965 C224.9 117.501 223.701 116.035 222.519 114.556 C220.208 111.966 217.397 110.16 214.475 108.34 C213.865 107.954 213.256 107.568 212.628 107.17 C207.388 103.949 202.024 101.652 196.1 99.965 C195.152 99.683 195.152 99.683 194.186 99.395 C185.775 97.662 177.676 98.691 169.6 101.215 C168.942 101.42 168.284 101.624 167.607 101.835 C153.607 106.562 143.293 118.595 136.725 131.403 C134.12 137.113 133.765 141.921 133.381 148.129 C133.1 150.965 133.1 150.965 132.1 151.965 C129.413 152.215 126.755 152.39 124.061 152.516 C123.187 152.558 122.314 152.6 121.413 152.643 C108.951 153.172 96.476 153.153 84.004 153.151 C80.402 153.151 76.801 153.164 73.199 153.181 C70.392 153.193 67.585 153.195 64.778 153.194 C62.809 153.196 60.841 153.207 58.872 153.218 C57.676 153.214 56.479 153.211 55.247 153.208 C54.201 153.21 53.156 153.211 52.079 153.213 C48.828 152.943 46.144 152.111 43.1 150.965 C42.941 149.95 42.783 148.934 42.619 147.887 C40.691 136.236 37.991 125.747 30.237 116.489 C29.1 114.965 29.1 114.965 29.1 112.965 C28.559 112.715 28.017 112.465 27.459 112.208 C25.1 110.965 25.1 110.965 22.428 109.161 C9.699 100.599 -4.211 96.965 -19.552 99.59 C-28.668 101.663 -35.616 105.144 -42.9 110.965 C-43.639 111.549 -44.377 112.133 -45.138 112.735 C-52.068 118.911 -56.983 128.213 -59.9 136.965 C-62.872 135.841 -65.234 134.742 -67.9 132.965 C-67.24 132.965 -66.58 132.965 -65.9 132.965 C-65.57 124.055 -65.24 115.145 -64.9 105.965 C-71.335 106.46 -71.335 106.46 -77.9 106.965 C-81.576 107.002 -85.228 107.032 -88.9 106.965 C-85.721 86.86 -82.222 66.819 -78.433 46.82 C-77.997 44.512 -77.564 42.203 -77.134 39.894 C-76.522 36.611 -75.897 33.331 -75.267 30.051 C-74.999 28.594 -74.999 28.594 -74.725 27.107 C-72.995 18.253 -71.067 9.938 -63.779 4.122 C-59.039 1.205 -54.548 0.561 -49.071 0.337 C-47.797 0.28 -47.797 0.28 -46.498 0.222 C-31.012 -0.355 -15.492 -0.09 0 0 Z M-49.771 23.829 C-55.321 34.333 -55.27 51.318 -54.9 62.965 C-51.279 65.234 -48.242 65.219 -44.024 65.224 C-43.34 65.228 -42.657 65.231 -41.953 65.235 C-39.698 65.244 -37.444 65.238 -35.189 65.231 C-33.617 65.232 -32.046 65.234 -30.474 65.237 C-27.18 65.24 -23.887 65.235 -20.593 65.226 C-16.381 65.215 -12.169 65.221 -7.957 65.233 C-4.711 65.24 -1.465 65.238 1.781 65.233 C3.334 65.232 4.886 65.233 6.439 65.238 C8.614 65.243 10.789 65.235 12.965 65.224 C14.201 65.223 15.436 65.221 16.71 65.219 C20.2 64.958 22.906 64.395 26.1 62.965 C27.256 59.497 27.366 56.28 27.487 52.665 C27.512 51.951 27.538 51.237 27.564 50.501 C27.616 48.991 27.665 47.48 27.712 45.969 C27.787 43.671 27.878 41.374 27.969 39.077 C28.018 37.606 28.065 36.135 28.112 34.665 C28.141 33.983 28.17 33.302 28.2 32.6 C28.311 28.319 27.814 24.9 26.1 20.965 C23.34 19.585 21.106 19.83 18.017 19.82 C16.739 19.814 15.46 19.807 14.143 19.801 C12.739 19.799 11.335 19.798 9.932 19.797 C8.494 19.794 7.057 19.791 5.619 19.787 C2.6 19.781 -0.419 19.779 -3.437 19.78 C-7.293 19.78 -11.148 19.767 -15.004 19.749 C-17.977 19.738 -20.949 19.736 -23.922 19.737 C-25.342 19.735 -26.763 19.731 -28.183 19.723 C-30.179 19.713 -32.175 19.718 -34.17 19.722 C-35.303 19.721 -36.437 19.72 -37.604 19.718 C-42.123 20.057 -46.476 20.547 -49.771 23.829 Z M60.1 22.965 C58.085 25.894 57.852 28.274 57.869 31.782 C57.87 32.706 57.871 33.63 57.872 34.583 C57.886 35.555 57.899 36.527 57.912 37.528 C57.922 38.518 57.931 39.509 57.941 40.53 C57.626 52.096 57.626 52.096 60.6 63.028 C64.859 66.329 69.797 66.965 75.1 66.965 C76.266 66.983 76.266 66.983 77.455 67 C83.718 67.061 89.908 66.828 96.155 66.394 C107.123 65.659 118.116 65.356 129.1 64.965 C132.995 58.345 132.431 52.094 132.174 44.688 C132.1 42.406 132.069 40.126 132.041 37.842 C132.001 36.382 131.958 34.922 131.912 33.461 C131.878 32.143 131.843 30.825 131.807 29.467 C131.301 25.913 131.301 25.913 129.299 23.059 C124.449 19.885 119.788 20.072 114.1 19.965 C113.136 19.935 112.172 19.906 111.179 19.875 C108.247 19.802 105.318 19.775 102.385 19.762 C100.797 19.754 100.797 19.754 99.177 19.745 C96.963 19.736 94.748 19.729 92.534 19.725 C89.146 19.715 85.759 19.684 82.371 19.653 C80.209 19.646 78.047 19.641 75.885 19.637 C74.877 19.625 73.868 19.613 72.829 19.6 C65.932 19.558 65.932 19.558 60.1 22.965 Z M63.1 75.965 C63.1 80.255 63.1 84.545 63.1 88.965 C69.079 90.161 74.71 90.149 80.787 90.153 C81.94 90.165 83.094 90.177 84.282 90.19 C85.93 90.193 85.93 90.193 87.612 90.196 C88.617 90.2 89.622 90.204 90.657 90.208 C93.28 90.208 93.28 90.208 95.1 87.965 C96.348 83.389 96.193 80.252 94.1 75.965 C90.904 74.74 87.701 74.836 84.311 74.833 C83.205 74.831 82.099 74.83 80.959 74.829 C79.809 74.832 78.66 74.836 77.475 74.84 C76.317 74.836 75.16 74.833 73.967 74.829 C72.312 74.831 72.312 74.831 70.623 74.833 C69.612 74.834 68.6 74.835 67.558 74.836 C65.095 74.801 65.095 74.801 63.1 75.965 Z M-57.9 76.965 C-60.06 80.204 -60.172 81.214 -60.15 84.965 C-60.155 85.832 -60.16 86.698 -60.166 87.59 C-60.054 90.231 -60.054 90.231 -57.9 92.965 C-55.63 93.43 -55.63 93.43 -52.998 93.364 C-51.539 93.37 -51.539 93.37 -50.05 93.375 C-49.031 93.364 -48.012 93.352 -46.963 93.34 C-45.947 93.352 -44.932 93.364 -43.886 93.375 C-42.426 93.37 -42.426 93.37 -40.935 93.364 C-39.595 93.359 -39.595 93.359 -38.228 93.354 C-35.452 92.891 -34.608 92.155 -32.9 89.965 C-31.337 86.838 -31.501 83.386 -31.9 79.965 C-32.56 78.975 -33.22 77.985 -33.9 76.965 C-36.383 76.499 -36.383 76.499 -39.275 76.567 C-40.342 76.563 -41.41 76.559 -42.509 76.555 C-43.628 76.567 -44.747 76.578 -45.9 76.59 C-47.019 76.579 -48.138 76.567 -49.291 76.555 C-50.892 76.561 -50.892 76.561 -52.525 76.567 C-53.507 76.57 -54.49 76.574 -55.502 76.577 C-56.689 76.769 -56.689 76.769 -57.9 76.965 Z " fill="#0059B6" transform="translate(161.9000883102417,168.03467202186584)"/>
  <ns0:path d="M0 0 C7.969 7.17 13.794 18.532 14.84 29.262 C14.962 31.954 14.938 34.564 14.84 37.262 C13.19 37.262 11.54 37.262 9.84 37.262 C9.826 38.422 9.811 39.582 9.797 40.777 C9.397 56.637 5.352 68.254 -6.285 79.387 C-16.297 87.864 -27.815 91.968 -41.02 91.066 C-52.71 89.07 -62.196 82.871 -70.16 74.262 C-70.985 73.395 -71.81 72.529 -72.66 71.637 C-79.821 62.849 -82.736 51.394 -82.16 40.262 C-81.83 39.272 -81.5 38.282 -81.16 37.262 C-84.13 38.252 -87.1 39.242 -90.16 40.262 C-91.458 27.287 -84.03 13.086 -76.098 3.137 C-54.348 -20.197 -23.748 -19.11 0 0 Z M-53.473 30.512 C-57.854 37.652 -58.944 44.061 -57.16 52.262 C-54.956 58.875 -49.601 63.232 -43.723 66.699 C-37.292 68.111 -31.815 67.87 -26.016 64.594 C-20.96 60.964 -17.393 56.427 -16.16 50.262 C-15.301 43.309 -16.637 37.33 -20.16 31.262 C-24.158 26.667 -28.669 23.757 -34.773 22.891 C-43.051 22.687 -47.601 24.799 -53.473 30.512 Z " fill="#283038" transform="translate(189.16015625,280.73828125)"/>
  <ns0:path d="M0 0 C3.961 2.969 7.342 6.238 10.605 9.953 C11.439 10.893 11.439 10.893 12.289 11.852 C19.269 20.381 21.258 28.889 20.436 39.678 C19.166 52.01 13.712 63.832 4.582 72.359 C-6.644 81.411 -18.179 84.463 -32.395 82.953 C-44.929 80.496 -55.407 72.746 -63.395 62.953 C-65.599 59.499 -67.606 55.997 -69.539 52.387 C-71.174 49.36 -72.924 46.478 -74.77 43.578 C-77.3 39.426 -78.511 35.724 -79.395 30.953 C-78.629 30.704 -77.863 30.456 -77.074 30.199 C-74.063 28.799 -73.226 27.807 -71.52 25.016 C-71.013 24.213 -70.506 23.409 -69.984 22.582 C-68.908 20.802 -67.838 19.018 -66.773 17.23 C-61.095 7.906 -54.302 -0.103 -44.395 -5.047 C-43.767 -5.365 -43.139 -5.684 -42.492 -6.012 C-28.453 -11.859 -12.106 -8.127 0 0 Z M-43.77 22.391 C-48.035 29.117 -48.142 36.22 -47.395 43.953 C-45.703 50.204 -41.708 54.418 -36.395 57.953 C-30.579 60.675 -24.502 60.788 -18.395 59.016 C-12.409 56.484 -7.843 51.462 -5.379 45.492 C-3.565 38.119 -4.62 31.313 -8.145 24.641 C-12.579 19.344 -17.176 15.506 -24.227 14.582 C-32.941 14.388 -37.716 16.178 -43.77 22.391 Z " fill="#272E38" transform="translate(374.39453125,288.046875)"/>
  <ns0:path d="M0 0 C1.291 -0.006 2.583 -0.013 3.913 -0.019 C5.314 -0.021 6.714 -0.022 8.115 -0.023 C9.558 -0.026 11.001 -0.029 12.444 -0.033 C15.461 -0.039 18.479 -0.041 21.497 -0.04 C25.365 -0.04 29.233 -0.054 33.101 -0.071 C36.078 -0.082 39.055 -0.084 42.031 -0.083 C43.458 -0.085 44.885 -0.089 46.311 -0.097 C48.302 -0.107 50.294 -0.102 52.285 -0.098 C53.418 -0.099 54.551 -0.101 55.718 -0.102 C58.513 0.145 58.513 0.145 61.513 2.145 C63.033 10.044 62.457 18.02 62.138 26.02 C62.094 27.338 62.051 28.655 62.005 30.012 C61.646 39.746 61.646 39.746 60.513 43.145 C56.101 45.121 52.17 45.398 47.378 45.404 C46.691 45.408 46.004 45.411 45.296 45.415 C43.043 45.423 40.79 45.418 38.537 45.411 C36.963 45.412 35.389 45.414 33.816 45.417 C30.526 45.42 27.236 45.415 23.946 45.406 C19.731 45.395 15.517 45.401 11.303 45.413 C8.056 45.42 4.81 45.418 1.564 45.413 C0.01 45.412 -1.544 45.413 -3.098 45.418 C-5.269 45.423 -7.44 45.415 -9.61 45.404 C-10.845 45.402 -12.079 45.401 -13.351 45.399 C-16.319 45.159 -17.993 44.708 -20.487 43.145 C-20.684 35.628 -20.109 28.351 -19.174 20.895 C-19.056 19.846 -18.938 18.797 -18.817 17.716 C-18.155 12.349 -17.536 7.753 -14.487 3.145 C-9.79 0.014 -5.551 0.019 0 0 Z " fill="#222333" transform="translate(127.48681640625,187.854736328125)"/>
  <ns0:path d="M0 0 C1.453 -0.01 1.453 -0.01 2.934 -0.019 C3.971 -0.02 5.008 -0.022 6.075 -0.023 C7.154 -0.026 8.233 -0.029 9.345 -0.033 C11.627 -0.038 13.909 -0.04 16.191 -0.04 C19.659 -0.042 23.126 -0.06 26.593 -0.079 C28.816 -0.082 31.04 -0.084 33.263 -0.085 C34.289 -0.092 35.316 -0.1 36.373 -0.107 C49.425 -0.066 49.425 -0.066 55.001 2.145 C58.534 5.862 58.439 9.398 58.4 14.305 C58.403 15.092 58.405 15.878 58.408 16.688 C58.41 18.346 58.405 20.005 58.392 21.663 C58.376 24.203 58.392 26.741 58.411 29.28 C58.409 30.893 58.406 32.505 58.4 34.118 C58.406 34.877 58.412 35.637 58.418 36.419 C58.348 41.628 58.348 41.628 56.861 43.844 C54.173 45.725 52.112 45.534 48.849 45.549 C47.581 45.562 46.313 45.575 45.006 45.588 C43.62 45.586 42.235 45.583 40.849 45.579 C39.428 45.583 38.007 45.589 36.586 45.595 C33.607 45.604 30.629 45.601 27.651 45.591 C23.836 45.58 20.023 45.6 16.208 45.629 C13.273 45.648 10.338 45.647 7.404 45.642 C5.997 45.641 4.591 45.647 3.185 45.66 C1.218 45.675 -0.75 45.661 -2.717 45.647 C-3.836 45.647 -4.955 45.647 -6.108 45.646 C-9.647 45.033 -10.79 43.914 -12.999 41.145 C-14.68 37.782 -14.39 33.976 -14.561 30.27 C-14.602 29.414 -14.642 28.558 -14.683 27.676 C-14.796 25.166 -14.898 22.656 -14.999 20.145 C-15.054 18.908 -15.11 17.67 -15.167 16.395 C-15.194 15.364 -15.221 14.333 -15.249 13.27 C-15.275 12.386 -15.3 11.502 -15.327 10.591 C-14.789 6.584 -12.809 3.955 -9.999 1.145 C-6.641 0.251 -3.464 0.016 0 0 Z " fill="#201F2E" transform="translate(234.998779296875,187.854736328125)"/>
  <ns0:path d="M0 0 C0.78 -0.003 1.56 -0.006 2.364 -0.009 C4.969 -0.017 7.573 -0.011 10.178 -0.005 C12.049 -0.008 13.92 -0.011 15.792 -0.015 C20.868 -0.025 25.944 -0.021 31.021 -0.015 C36.336 -0.01 41.651 -0.014 46.966 -0.017 C55.893 -0.021 64.82 -0.016 73.747 -0.007 C84.062 0.004 94.378 0.001 104.693 -0.01 C113.554 -0.02 122.414 -0.021 131.275 -0.016 C136.565 -0.012 141.855 -0.012 147.145 -0.019 C152.12 -0.024 157.095 -0.02 162.07 -0.009 C163.894 -0.006 165.718 -0.007 167.542 -0.011 C170.035 -0.017 172.529 -0.01 175.022 0 C175.741 -0.004 176.459 -0.009 177.2 -0.014 C181.88 0.023 185.674 0.809 190.074 2.254 C190.812 5.427 191.169 7.793 190.512 11.004 C189.074 13.254 189.074 13.254 186.574 14.566 C182.033 15.458 177.685 15.418 173.074 15.254 C173.074 14.594 173.074 13.934 173.074 13.254 C171.094 13.254 169.114 13.254 167.074 13.254 C167.074 13.914 167.074 14.574 167.074 15.254 C146.621 15.277 126.169 15.295 105.716 15.306 C96.22 15.311 86.724 15.318 77.228 15.329 C68.954 15.339 60.68 15.346 52.407 15.348 C48.023 15.349 43.64 15.352 39.256 15.36 C35.135 15.366 31.014 15.369 26.893 15.367 C25.376 15.367 23.859 15.369 22.342 15.373 C20.279 15.378 18.217 15.377 16.155 15.374 C14.998 15.375 13.841 15.376 12.649 15.377 C10.074 15.254 10.074 15.254 9.074 14.254 C6.074 14.087 6.074 14.087 3.074 14.254 C2.744 14.584 2.414 14.914 2.074 15.254 C-0.049 15.353 -2.175 15.384 -4.301 15.379 C-5.463 15.382 -6.626 15.384 -7.824 15.387 C-10.926 15.254 -10.926 15.254 -13.926 14.254 C-13.926 10.294 -13.926 6.334 -13.926 2.254 C-9.216 0.403 -5.002 -0.031 0 0 Z " fill="#727374" transform="translate(113.92552185058594,139.74603271484375)"/>
  <ns0:path d="M0 0 C51.48 0 102.96 0 156 0 C156 3.3 156 6.6 156 10 C152.318 12.455 149.584 12.263 145.329 12.213 C144.537 12.211 143.745 12.21 142.929 12.209 C140.258 12.201 137.588 12.179 134.918 12.156 C133.003 12.147 131.089 12.139 129.174 12.132 C123.904 12.108 118.634 12.07 113.363 12.027 C109.962 12 106.56 11.975 103.158 11.95 C87.457 11.835 71.756 11.69 56.056 11.536 C49.704 11.475 43.353 11.415 37.002 11.355 C24.668 11.239 12.334 11.12 0 11 C0 7.37 0 3.74 0 0 Z " fill="#737577" transform="translate(124,157)"/>
  <ns0:path d="M0 0 C5.282 3.092 9.207 7.843 11.625 13.438 C13.062 19.5 13.113 25.669 10.625 31.438 C7.033 36.838 2.985 41.259 -3.379 43.07 C-10.625 44.403 -16.142 43.378 -22.375 39.438 C-27.074 35.209 -30.052 30.751 -30.676 24.352 C-30.711 14.491 -29.499 8.727 -22.375 1.438 C-16.146 -3.12 -6.952 -3.102 0 0 Z " fill="#84898F" transform="translate(357.375,304.5625)"/>
  <ns0:path d="M0 0 C6.035 2.753 9.874 7.028 12.492 13.125 C14.64 19.567 14.497 26.111 11.859 32.391 C9.068 36.937 4.78 40.074 0.242 42.75 C-6.121 44.147 -11.657 43.964 -17.398 40.703 C-22.733 36.843 -27.013 32.065 -28.168 25.445 C-28.734 17.515 -27.443 11.512 -22.32 5.312 C-15.763 -0.765 -8.738 -2.589 0 0 Z " fill="#878A90" transform="translate(159.3203125,304.6875)"/>
  <ns0:path d="M0 0 C6.688 5.164 11.503 10.927 16.078 17.996 C16.498 18.589 16.919 19.182 17.352 19.793 C21.894 26.691 23.322 35.879 23.078 43.996 C17.435 41.613 15.537 39.433 13.176 33.871 C7.423 21.097 -2.646 11.813 -15.238 5.91 C-25.365 2.175 -38.631 2.404 -48.504 6.676 C-60.016 12.962 -67.491 22.671 -73.865 33.855 C-77.563 40.324 -77.563 40.324 -79.922 41.996 C-81.242 41.996 -82.562 41.996 -83.922 41.996 C-85.138 26.751 -78.828 16.37 -69.238 5 C-50.201 -15.499 -21.987 -15.079 0 0 Z " fill="#010203" transform="translate(378.921875,277.00390625)"/>
  <ns0:path d="M0 0 C7.969 7.17 13.794 18.532 14.84 29.262 C14.962 31.954 14.938 34.564 14.84 37.262 C12.86 37.262 10.88 37.262 8.84 37.262 C8.53 35.344 8.53 35.344 8.215 33.387 C6.432 25.358 1.535 18.111 -4.16 12.262 C-5.15 12.262 -6.14 12.262 -7.16 12.262 C-8.15 10.777 -8.15 10.777 -9.16 9.262 C-11.46 7.956 -13.718 6.773 -16.098 5.637 C-16.731 5.325 -17.365 5.013 -18.018 4.691 C-27.802 -0.082 -39.094 -0.186 -49.727 1.992 C-62.334 6.642 -71.893 17.724 -78.16 29.262 C-78.679 30.77 -79.165 32.29 -79.598 33.824 C-81.16 37.262 -81.16 37.262 -83.332 38.414 C-85.6 39.178 -87.816 39.79 -90.16 40.262 C-91.458 27.287 -84.03 13.086 -76.098 3.137 C-54.348 -20.197 -23.748 -19.11 0 0 Z " fill="#010103" transform="translate(189.16015625,280.73828125)"/>
  <ns0:path d="M0 0 C0.98 2.941 1.116 4.825 1.098 7.887 C1.094 8.825 1.091 9.762 1.088 10.729 C1.075 12.193 1.075 12.193 1.062 13.688 C1.058 14.676 1.053 15.664 1.049 16.682 C1.037 19.121 1.021 21.561 1 24 C-2.856 26.129 -6.107 26.272 -10.438 26.188 C-11.144 26.177 -11.85 26.167 -12.578 26.157 C-14.719 26.118 -16.859 26.059 -19 26 C-20.196 25.982 -21.392 25.964 -22.625 25.945 C-29.917 25.653 -34.999 24.202 -41 20 C-41 19.67 -41 19.34 -41 19 C-38.69 19 -36.38 19 -34 19 C-34 12.73 -34 6.46 -34 0 C-29.532 -1.489 -25.058 -1.457 -20.375 -1.688 C-19.415 -1.747 -18.454 -1.807 -17.465 -1.869 C-11.645 -2.157 -5.441 -2.421 0 0 Z " fill="#8D8F92" transform="translate(450,303)"/>
  <ns0:path d="M0 0 C0.929 0.044 1.858 0.088 2.814 0.133 C3.782 0.184 4.749 0.236 5.746 0.289 C6.717 0.333 7.689 0.377 8.689 0.422 C15.923 0.784 15.923 0.784 18.184 1.914 C18.567 18.292 18.567 18.292 16.184 24.914 C12.682 26.665 8.673 26.345 4.809 26.539 C3.513 26.616 3.513 26.616 2.191 26.695 C0.938 26.761 0.938 26.761 -0.34 26.828 C-1.102 26.869 -1.864 26.91 -2.65 26.952 C-4.859 26.913 -6.703 26.535 -8.816 25.914 C-8.844 23.06 -8.863 20.206 -8.879 17.352 C-8.887 16.552 -8.896 15.752 -8.904 14.928 C-8.924 10.142 -8.621 5.633 -7.816 0.914 C-4.816 -0.086 -3.11 -0.149 0 0 Z " fill="#919394" transform="translate(69.81640625,301.0859375)"/>
  <ns0:path d="M0 0 C1.582 0.007 3.164 0.019 4.746 0.035 C5.552 0.04 6.359 0.044 7.189 0.049 C9.188 0.061 11.186 0.079 13.184 0.098 C13.409 4.389 13.611 8.68 13.809 12.973 C13.873 14.196 13.938 15.419 14.004 16.68 C14.081 18.43 14.081 18.43 14.16 20.215 C14.213 21.294 14.265 22.372 14.319 23.484 C14.184 26.098 14.184 26.098 12.184 28.098 C9.25 28.328 9.25 28.328 5.746 28.285 C4.592 28.279 3.439 28.272 2.25 28.266 C-0.816 28.098 -0.816 28.098 -3.816 27.098 C-4.012 22.785 -4.197 18.473 -4.379 14.16 C-4.435 12.928 -4.491 11.697 -4.549 10.428 C-4.597 9.258 -4.646 8.088 -4.695 6.883 C-4.742 5.799 -4.79 4.715 -4.838 3.598 C-4.803 -0.468 -4.245 0.109 0 0 Z " fill="#E69902" transform="translate(427.81640625,273.90234375)"/>
  <ns0:path d="M0 0 C1.291 -0.006 2.582 -0.013 3.913 -0.019 C5.303 -0.016 6.693 -0.011 8.083 -0.007 C9.523 -0.008 10.963 -0.01 12.403 -0.013 C15.409 -0.016 18.415 -0.011 21.42 -0.002 C25.273 0.009 29.125 0.003 32.978 -0.009 C35.946 -0.016 38.914 -0.014 41.882 -0.009 C43.303 -0.008 44.724 -0.009 46.145 -0.014 C48.127 -0.019 50.108 -0.01 52.09 0 C53.78 0.002 53.78 0.002 55.505 0.005 C58.286 0.259 58.286 0.259 61.286 2.259 C60.956 3.579 60.626 4.899 60.286 6.259 C35.206 6.259 10.126 6.259 -15.714 6.259 C-13.714 2.259 -13.714 2.259 -10.508 1.025 C-6.89 0.294 -3.685 0.005 0 0 Z " fill="#05060E" transform="translate(127.7138671875,187.7412109375)"/>
  <ns0:path d="M0 0 C0.86 -0.001 1.72 -0.003 2.605 -0.004 C3.957 0.002 3.957 0.002 5.336 0.008 C6.214 0.004 7.092 0 7.996 -0.004 C22.596 0.018 22.596 0.018 25.711 3.133 C25.977 5.445 25.977 5.445 25.961 8.133 C25.969 9.463 25.969 9.463 25.977 10.82 C25.711 13.133 25.711 13.133 23.711 15.133 C21.376 15.376 21.376 15.376 18.477 15.363 C17.427 15.361 16.378 15.359 15.297 15.357 C14.196 15.345 13.095 15.333 11.961 15.32 C10.876 15.32 9.79 15.319 8.672 15.318 C3.474 15.29 -1.117 14.995 -6.289 14.133 C-6.289 9.843 -6.289 5.553 -6.289 1.133 C-3.962 -0.031 -2.59 0.004 0 0 Z " fill="#009ED4" transform="translate(231.2890625,242.8671875)"/>
  <ns0:path d="M0 0 C2.398 -0.388 2.398 -0.388 5.375 -0.398 C6.976 -0.404 6.976 -0.404 8.609 -0.41 C9.728 -0.399 10.847 -0.387 12 -0.375 C13.119 -0.387 14.238 -0.398 15.391 -0.41 C16.458 -0.406 17.525 -0.402 18.625 -0.398 C19.607 -0.395 20.59 -0.392 21.602 -0.388 C22.393 -0.26 23.185 -0.132 24 0 C26.475 3.712 26.433 6.7 26 11 C24.991 13.81 24.666 14.667 22 16 C18.339 16.266 14.67 16.232 11 16.25 C9.976 16.271 8.953 16.291 7.898 16.312 C6.921 16.318 5.944 16.323 4.938 16.328 C4.039 16.337 3.141 16.347 2.215 16.356 C1.118 16.18 1.118 16.18 0 16 C-2.159 12.761 -2.272 11.751 -2.25 8 C-2.255 7.134 -2.26 6.268 -2.266 5.375 C-2 3 -2 3 0 0 Z " fill="#00AAE1" transform="translate(104,245)"/>
  <ns0:path d="M0 0 C1.616 -0.003 1.616 -0.003 3.265 -0.006 C5.542 -0.007 7.818 -0.003 10.094 0.005 C13.552 0.016 17.01 0.005 20.469 -0.008 C22.688 -0.006 24.906 -0.004 27.125 0 C28.148 -0.004 29.172 -0.008 30.226 -0.012 C46.656 0.093 46.656 0.093 50.828 4.266 C50.453 6.391 50.453 6.391 49.828 8.266 C49.828 7.606 49.828 6.946 49.828 6.266 C27.058 6.266 4.288 6.266 -19.172 6.266 C-17.172 2.266 -17.172 2.266 -14.745 1.032 C-9.803 -0.028 -5.041 -0.02 0 0 Z " fill="#050409" transform="translate(241.171875,187.734375)"/>
  <ns0:path d="M0 0 C1 1 1 1 1.114 3.592 C1.108 4.718 1.103 5.844 1.098 7.004 C1.094 8.219 1.091 9.434 1.088 10.686 C1.08 11.965 1.071 13.244 1.062 14.562 C1.058 15.846 1.053 17.129 1.049 18.451 C1.037 21.634 1.019 24.817 1 28 C-3.62 28 -8.24 28 -13 28 C-12.859 24.625 -12.712 21.25 -12.562 17.875 C-12.523 16.924 -12.484 15.972 -12.443 14.992 C-12.229 10.254 -11.934 5.664 -11 1 C-7.117 -0.294 -4.093 -0.132 0 0 Z " fill="#F59B03" transform="translate(84,274)"/>
  <ns0:path d="M0 0 C3.849 1.674 5.458 3.144 7 7 C7.327 10.809 7.096 14.527 4.766 17.66 C1.79 20.291 -1.026 21.898 -5 22 C-9.011 20.924 -11.285 19.103 -14 16 C-15.771 12.458 -15.029 8.728 -14 5 C-9.65 -0.199 -6.399 -0.813 0 0 Z " fill="#797A7C" transform="translate(412,191)"/>
  <ns0:path d="M0 0 C1.514 0.017 1.514 0.017 3.059 0.035 C4.071 0.044 5.082 0.053 6.125 0.062 C7.299 0.08 7.299 0.08 8.496 0.098 C8.583 4.202 8.636 8.305 8.684 12.41 C8.721 14.161 8.721 14.161 8.76 15.947 C8.774 17.625 8.774 17.625 8.789 19.336 C8.813 20.883 8.813 20.883 8.837 22.462 C8.496 25.098 8.496 25.098 7.271 26.977 C4.884 28.484 3.564 28.224 0.809 27.785 C0 27.665 -0.808 27.545 -1.641 27.422 C-2.256 27.315 -2.87 27.208 -3.504 27.098 C-3.533 22.785 -3.551 18.473 -3.566 14.16 C-3.575 12.928 -3.583 11.697 -3.592 10.428 C-3.595 9.258 -3.598 8.088 -3.602 6.883 C-3.607 5.799 -3.612 4.715 -3.617 3.598 C-3.464 0.226 -3.374 0.132 0 0 Z " fill="#F5F6F5" transform="translate(88.50390625,273.90234375)"/>
  <ns0:path d="M0 0 C3.96 0 7.92 0 12 0 C13.305 2.61 13.113 4.527 13.098 7.445 C13.094 8.522 13.091 9.598 13.088 10.707 C13.08 11.835 13.071 12.963 13.062 14.125 C13.058 15.261 13.053 16.396 13.049 17.566 C13.037 20.378 13.021 23.189 13 26 C11.188 26.027 9.375 26.046 7.562 26.062 C6.553 26.074 5.544 26.086 4.504 26.098 C2 26 2 26 1 25 C0.842 23.148 0.749 21.291 0.684 19.434 C0.642 18.309 0.6 17.184 0.557 16.025 C0.517 14.841 0.478 13.657 0.438 12.438 C0.394 11.25 0.351 10.062 0.307 8.838 C0.2 5.892 0.1 2.946 0 0 Z " fill="#EFF1F1" transform="translate(411,274)"/>
  <ns0:path d="M0 0 C2.462 3.693 2.57 6.713 2 11 C0.257 14.236 -0.472 14.824 -4 16 C-8.394 16.488 -10.305 16.503 -13.938 13.875 C-16 11 -16 11 -16.625 8.062 C-15.744 3.746 -14.154 2.082 -11 -1 C-7.266 -2.992 -3.781 -1.4 0 0 Z " fill="#7E7F83" transform="translate(390,203)"/>
  <ns0:path d="M0 0 C2.373 3.56 1.915 4.903 1.109 8.951 C0.95 9.689 0.79 10.427 0.625 11.188 C0.397 12.312 0.397 12.312 0.164 13.459 C-0.213 15.308 -0.605 17.154 -1 19 C-4.63 19 -8.26 19 -12 19 C-11.67 12.73 -11.34 6.46 -11 0 C-6.506 -0.899 -4.293 -1.145 0 0 Z " fill="#025FB6" transform="translate(99,303)"/>
  <ns0:path d="M0 0 C2.64 0 5.28 0 8 0 C8 7.92 8 15.84 8 24 C5.36 24 2.72 24 0 24 C0 16.08 0 8.16 0 0 Z " fill="#272D33" transform="translate(403,216)"/>
  <ns0:path d="M0 0 C1.98 0 3.96 0 6 0 C6.66 5.28 7.32 10.56 8 16 C5.03 16 2.06 16 -1 16 C-1.027 14.083 -1.046 12.167 -1.062 10.25 C-1.074 9.183 -1.086 8.115 -1.098 7.016 C-1.015 4.466 -0.746 2.421 0 0 Z " fill="#3E3E40" transform="translate(281,153)"/>
  <ns0:path d="M0 0 C1.675 0.286 3.344 0.618 5 1 C6.507 4.477 7.154 6.37 6.242 10.105 C5.791 11.123 5.34 12.14 4.875 13.188 C4.439 14.212 4.004 15.237 3.555 16.293 C1.953 19.082 0.588 20.19 -2 22 C-1.862 18.52 -1.713 15.041 -1.562 11.562 C-1.523 10.569 -1.484 9.576 -1.443 8.553 C-1.401 7.608 -1.36 6.664 -1.316 5.691 C-1.28 4.817 -1.243 3.942 -1.205 3.041 C-1 1 -1 1 0 0 Z " fill="#0B0C0E" transform="translate(199,317)"/>
  <ns0:path d="M0 0 C2.31 0 4.62 0 7 0 C6.67 5.94 6.34 11.88 6 18 C4.02 18 2.04 18 0 18 C0 12.06 0 6.12 0 0 Z " fill="#262B2F" transform="translate(380,222)"/>
  <ns0:path d="M0 0 C1.98 0 3.96 0 6 0 C7.323 4.961 7.089 9.911 7 15 C4.03 15 1.06 15 -2 15 C-1.34 10.05 -0.68 5.1 0 0 Z " fill="#48484A" transform="translate(117,153)"/>
  <ns0:path d="M0 0 C6.625 -0.25 6.625 -0.25 10 2 C10.438 8.125 10.438 8.125 9 11 C6.351 11.594 3.708 11.742 1 12 C0.039 9.118 -0.106 7.301 -0.062 4.312 C-0.053 3.504 -0.044 2.696 -0.035 1.863 C-0.024 1.248 -0.012 0.634 0 0 Z " fill="#727374" transform="translate(288,157)"/>
  <ns0:path d="M0 0 C2 3 2 3 1.68 5.27 C0.04 10.452 -1.603 14.727 -5 19 C-5.66 19.33 -6.32 19.66 -7 20 C-6.453 16.625 -5.945 14.918 -4 12 C-3.311 9.673 -2.645 7.339 -2 5 C-1.358 3.324 -0.701 1.652 0 0 Z " fill="#1C2228" transform="translate(204,319)"/>
  <ns0:path d="M0 0 C0.33 0 0.66 0 1 0 C1 3.3 1 6.6 1 10 C1.66 10 2.32 10 3 10 C2.625 12.438 2.625 12.438 2 15 C1.01 15.495 1.01 15.495 0 16 C0 10.72 0 5.44 0 0 Z " fill="#111316" transform="translate(198,318)"/>
</svg>