<?xml version="1.0" ?>
<svg xmlns:ns0="http://www.w3.org/2000/svg" xmlns="http://www.w3.org/2000/svg" width="512" height="512" viewBox="0 0 512 512" style="background-color: transparent;">
  <ns0:path d="M0 0 C7.297 2.285 13.985 5.998 20.711 9.574 C35.555 17.426 50.515 25.051 65.472 32.686 C68.248 34.104 71.022 35.524 73.794 36.951 C76.838 38.516 79.887 40.072 82.938 41.625 C84.184 42.271 84.184 42.271 85.456 42.929 C90.252 45.351 94.739 46.887 100 48 C100 48.66 100 49.32 100 50 C101.65 50.33 103.3 50.66 105 51 C105.33 51.99 105.66 52.98 106 54 C98.544 53.807 93.084 50.817 86.601 47.313 C84.068 45.944 81.52 44.604 78.973 43.261 C77.649 42.563 76.325 41.863 75.002 41.162 C68.581 37.762 62.109 34.467 55.612 31.214 C53.861 30.337 52.113 29.453 50.364 28.57 C44.008 25.386 37.641 22.539 31 20 C31.33 23.63 31.66 27.26 32 31 C30.733 30.397 29.466 29.793 28.16 29.172 C26.461 28.365 24.762 27.557 23.062 26.75 C22.232 26.354 21.401 25.959 20.545 25.551 C15.662 23.233 10.759 20.979 5.81 18.806 C4.526 18.234 3.257 17.629 2 17 C-1.109 16.453 -3.9 16.369 -7 17 C-11.863 20.517 -13.714 25.633 -16 31 C-18.625 33.875 -18.625 33.875 -21 36 C-24.615 39.615 -23.13 51.287 -23.23 56.355 C-23.154 57.228 -23.078 58.101 -23 59 C-22.967 59.703 -22.934 60.406 -22.9 61.13 C-22.598 63.727 -22.161 65.651 -21 68 C-17.92 70.401 -14.453 71.589 -10.812 72.938 C-8.537 73.858 -6.264 74.784 -3.992 75.715 C-3.373 75.964 -2.754 76.213 -2.117 76.47 C5.718 79.643 13.357 83.243 21.017 86.814 C25.243 88.783 29.476 90.74 33.707 92.699 C34.519 93.076 35.332 93.452 36.168 93.84 C41.736 96.42 47.314 98.974 52.899 101.515 C63.183 106.195 73.368 111.056 83.528 116 C89.686 118.979 95.87 121.867 102.121 124.645 C102.792 124.943 103.464 125.241 104.155 125.549 C107.423 126.998 110.695 128.437 113.973 129.863 C115.14 130.376 116.306 130.889 117.508 131.418 C118.546 131.869 119.584 132.321 120.653 132.786 C123 134 123 134 124 136 C121.69 136 119.38 136 117 136 C117 136.66 117 137.32 117 138 C117.66 138 118.32 138 119 138 C119 138.66 119 139.32 119 140 C116.159 141.461 114.7 142.197 111.562 141.312 C109.705 140.361 107.851 139.402 106 138.438 C103.202 137.097 101.011 136.588 98 136 C96.866 135.464 95.731 134.928 94.562 134.375 C90.59 132.842 89.011 132.72 85 134 C78.063 137.469 74.712 143.666 71.277 150.355 C68.808 154.686 65.378 157.708 61.688 161 C60.26 162.308 58.834 163.618 57.41 164.93 C56.32 165.931 56.32 165.931 55.208 166.952 C51.619 170.281 48.11 173.687 44.625 177.125 C43.989 177.74 43.353 178.355 42.698 178.988 C38.666 182.988 36.087 185.957 35.918 191.867 C36.835 202.609 36.835 202.609 43.188 210.938 C44.116 211.618 45.044 212.299 46 213 C39.893 220.263 33.31 226.983 26.632 233.718 C25.205 235.161 23.784 236.61 22.368 238.064 C20.309 240.178 18.235 242.274 16.156 244.367 C15.528 245.018 14.9 245.669 14.252 246.34 C10.69 249.885 8.287 251.977 3 252 C0.07 250.82 0.07 250.82 -2.875 249.125 C-7.822 246.492 -11.374 244.9 -17 245 C-19.596 245.676 -19.596 245.676 -21 248 C-22.301 253.61 -22.301 253.61 -21 259 C-20.077 266.096 -23.043 271.547 -26 277.875 C-26.458 278.913 -26.915 279.95 -27.387 281.02 C-30.591 287.982 -34.821 296.411 -42 300 C-45.275 300.285 -47.363 300.327 -50.312 298.812 C-52.452 296.514 -52.587 295.096 -53 292 C-52.919 290.059 -52.772 288.119 -52.562 286.188 C-52.461 285.212 -52.359 284.236 -52.254 283.23 C-52.17 282.494 -52.086 281.758 -52 281 C-52.66 281 -53.32 281 -54 281 C-55.053 284.16 -55.133 286.434 -55.125 289.75 C-55.128 290.755 -55.13 291.761 -55.133 292.797 C-54.99 296.251 -54.509 299.582 -54 303 C-55.361 302.541 -55.361 302.541 -56.749 302.073 C-79.416 294.438 -102.156 287.085 -125 280 C-124.323 278.974 -124.323 278.974 -123.631 277.928 C-119.747 271.953 -116.275 266.01 -113.375 259.5 C-112.807 258.232 -112.807 258.232 -112.227 256.939 C-107.044 244.969 -102.777 231.272 -102.938 218.125 C-102.947 217.158 -102.956 216.191 -102.965 215.195 C-102.976 214.471 -102.988 213.746 -103 213 C-103.909 212.636 -103.909 212.636 -104.836 212.266 C-106.599 211.561 -108.359 210.849 -110.117 210.133 C-112 209.393 -113.902 208.698 -115.82 208.055 C-122.659 205.682 -122.659 205.682 -124.625 201.75 C-124.749 200.842 -124.873 199.935 -125 199 C-127.693 198.158 -129.247 197.721 -132 198 C-138.506 201.977 -142.226 207.903 -145.562 214.562 C-146.026 215.476 -146.49 216.389 -146.969 217.33 C-155.187 234.05 -159.071 250.451 -160 269 C-164.891 266.258 -164.891 266.258 -165.875 263.938 C-166.061 259.576 -165.546 255.324 -165 251 C-165.66 250.67 -166.32 250.34 -167 250 C-165.722 241.835 -164.153 233.784 -162.32 225.727 C-162.066 224.6 -161.812 223.474 -161.551 222.314 C-161.016 219.949 -160.48 217.584 -159.942 215.22 C-159.129 211.642 -158.324 208.064 -157.52 204.484 C-150.356 172.77 -150.356 172.77 -145.562 163.625 C-144.959 162.47 -144.356 161.315 -143.734 160.125 C-141.989 156.981 -140.168 153.926 -138.192 150.923 C-137.042 149.068 -136.094 147.208 -135.159 145.238 C-133.122 141.118 -130.732 137.357 -128.148 133.562 C-127.69 132.879 -127.231 132.196 -126.758 131.492 C-125.301 129.325 -123.839 127.162 -122.375 125 C-120.463 122.169 -118.554 119.336 -116.648 116.5 C-116.177 115.798 -115.705 115.096 -115.218 114.373 C-111.515 108.835 -107.977 103.205 -104.475 97.537 C-101.685 93.04 -98.736 88.694 -95.658 84.387 C-91.862 78.922 -88.452 73.186 -84.986 67.508 C-84.399 66.567 -83.812 65.626 -83.207 64.656 C-82.686 63.809 -82.165 62.961 -81.628 62.088 C-79.878 59.844 -78.512 59.21 -76 58 C-75.67 57.01 -75.34 56.02 -75 55 C-72.29 52.848 -70.298 52.048 -66.875 51.5 C-62.16 52.108 -58.588 53.805 -54.355 55.906 C-52.131 57.14 -52.131 57.14 -50 57 C-48.358 54.87 -48.358 54.87 -46.625 52.062 C-43.254 46.875 -39.773 41.792 -36.188 36.75 C-32.084 30.966 -28.016 25.159 -24 19.312 C-23.556 18.666 -23.111 18.019 -22.653 17.353 C-20.7 14.504 -18.773 11.65 -16.891 8.754 C-12.588 2.486 -8.021 -1.79 0 0 Z M-51.43 72.465 C-56.676 78.621 -63.253 86.403 -64.355 94.664 C-65.323 99.674 -67.624 103.977 -69.812 108.562 C-76.608 123.189 -85.707 143.586 -79.875 159.875 C-75.895 166.509 -68.557 168.614 -61.625 171.25 C-60.718 171.614 -59.81 171.977 -58.875 172.352 C-52.044 174.97 -46.502 176.501 -39.5 173.5 C-29.469 166.873 -24.277 157.471 -19 147 C-18.506 146.025 -18.506 146.025 -18.002 145.029 C-11.627 132.167 -7.743 118.247 -6 104 C-5.863 102.906 -5.727 101.811 -5.586 100.684 C-5.037 94.494 -5.037 94.494 -7.516 89.074 C-9.927 87.417 -12.338 86.219 -15 85 C-16.241 84.37 -17.479 83.734 -18.715 83.094 C-22.119 81.342 -25.55 79.659 -29 78 C-28.978 76.915 -28.956 75.829 -28.934 74.711 C-29.009 70.5 -29.498 68.39 -32 65 C-39.752 61.836 -46.129 67.088 -51.43 72.465 Z M-81 74 C-82.482 75.735 -82.482 75.735 -84 78.062 C-84.619 78.971 -85.238 79.88 -85.875 80.816 C-86.576 81.867 -87.278 82.918 -88 84 C-88.393 84.589 -88.786 85.178 -89.191 85.785 C-90.895 88.338 -92.598 90.892 -94.289 93.454 C-96.763 97.194 -99.332 100.831 -102 104.438 C-107.991 113.059 -107.533 122.865 -108 133 C-107.34 133.33 -106.68 133.66 -106 134 C-106.66 134.969 -107.32 135.939 -108 136.938 C-110.513 141.256 -110.398 145.126 -110 150 C-104.034 144.576 -98.517 137.737 -96 130 C-96 128.68 -96 127.36 -96 126 C-98.962 126.613 -100.381 127.254 -103 129 C-102.322 128.019 -101.644 127.038 -100.945 126.027 C-98.469 122.44 -96.006 118.843 -93.544 115.246 C-92.079 113.115 -90.598 110.996 -89.113 108.879 C-88.221 107.586 -87.329 106.293 -86.438 105 C-86.021 104.415 -85.604 103.829 -85.174 103.226 C-80.562 96.469 -79.732 89.525 -79.375 81.5 C-79.336 80.773 -79.298 80.046 -79.258 79.297 C-79.165 77.532 -79.081 75.766 -79 74 C-79.66 74 -80.32 74 -81 74 Z M-120 133 C-125.59 139.421 -130.191 146.623 -134.812 153.75 C-135.813 155.272 -135.813 155.272 -136.834 156.824 C-137.473 157.805 -138.111 158.786 -138.77 159.797 C-139.63 161.117 -139.63 161.117 -140.507 162.464 C-143.707 167.901 -144.906 173.519 -146.188 179.625 C-146.378 180.484 -146.568 181.342 -146.764 182.227 C-146.938 183.052 -147.113 183.877 -147.293 184.727 C-147.453 185.475 -147.613 186.223 -147.778 186.995 C-148.164 189.205 -148.164 189.205 -147 192 C-141.528 185.074 -136.295 178.161 -131.664 170.633 C-129.43 167.098 -126.971 163.744 -124.48 160.387 C-120.94 154.68 -120.475 148.659 -119.875 142.125 C-119.789 141.246 -119.702 140.367 -119.613 139.461 C-119.403 137.308 -119.2 135.154 -119 133 C-119.33 133 -119.66 133 -120 133 Z M-145 194 C-146.372 195.741 -147.697 197.519 -149 199.312 C-149.722 200.299 -150.444 201.285 -151.188 202.301 C-154.099 206.636 -154.097 209.878 -154 215 C-150.409 213.803 -149.897 212.791 -147.875 209.688 C-147.098 208.518 -147.098 208.518 -146.305 207.324 C-143.811 202.882 -143.903 199.054 -144 194 C-144.33 194 -144.66 194 -145 194 Z " fill="#000000" transform="translate(288,97)"/>
  <ns0:path d="M0 0 C2.365 1.16 4.73 2.318 7.095 3.476 C8.658 4.242 10.221 5.008 11.784 5.774 C17.77 8.711 23.785 11.585 29.812 14.438 C50.784 24.411 71.58 34.823 92.055 45.778 C94.503 47.071 96.967 48.33 99.434 49.586 C100.301 50.031 101.169 50.477 102.063 50.936 C103.713 51.782 105.367 52.622 107.025 53.453 C112.724 56.394 117.092 59.102 119.613 65.277 C119.927 66.465 120.24 67.652 120.562 68.875 C120.889 70.06 121.215 71.244 121.551 72.465 C122.584 77.596 122.95 80.678 120.375 85.312 C116.224 90.653 109.735 96.719 103.25 98.938 C99.086 98.47 95.709 97.443 91.926 95.672 C90.912 95.201 89.898 94.73 88.853 94.245 C87.767 93.731 86.681 93.217 85.562 92.688 C84.414 92.151 83.266 91.615 82.082 91.062 C72.967 86.789 63.909 82.399 54.851 78.007 C44.505 73.013 34.057 68.259 23.589 63.529 C14.699 59.511 5.839 55.44 -3 51.312 C-14.063 46.15 -25.182 41.121 -36.337 36.162 C-37.481 35.652 -38.626 35.142 -39.805 34.617 C-40.81 34.171 -41.815 33.725 -42.851 33.265 C-51.571 29.272 -51.571 29.272 -52.773 27.027 C-53.16 24.664 -53.506 22.321 -53.75 19.938 C-53.856 19.137 -53.961 18.336 -54.07 17.512 C-54.706 8.849 -50.71 2.652 -45.453 -3.945 C-31.826 -19.577 -15.405 -7.607 0 0 Z " fill="#8A8C8E" transform="translate(317.75,136.0625)"/>
  <ns0:path d="M0 0 C7.297 2.285 13.985 5.998 20.711 9.574 C35.555 17.426 50.515 25.051 65.472 32.686 C68.248 34.104 71.022 35.524 73.794 36.951 C76.838 38.516 79.887 40.072 82.938 41.625 C84.184 42.271 84.184 42.271 85.456 42.929 C90.252 45.351 94.739 46.887 100 48 C100 48.66 100 49.32 100 50 C101.65 50.33 103.3 50.66 105 51 C105.33 51.99 105.66 52.98 106 54 C98.544 53.807 93.084 50.817 86.601 47.313 C84.068 45.944 81.52 44.604 78.973 43.261 C77.649 42.563 76.325 41.863 75.002 41.162 C68.581 37.762 62.109 34.467 55.612 31.214 C53.861 30.337 52.113 29.453 50.364 28.57 C44.008 25.386 37.641 22.539 31 20 C31.33 23.63 31.66 27.26 32 31 C30.733 30.397 29.466 29.793 28.16 29.172 C26.461 28.365 24.762 27.557 23.062 26.75 C22.232 26.354 21.401 25.959 20.545 25.551 C15.662 23.233 10.759 20.979 5.81 18.806 C4.526 18.234 3.257 17.629 2 17 C-1.109 16.453 -3.9 16.369 -7 17 C-11.863 20.517 -13.714 25.633 -16 31 C-18.625 33.875 -18.625 33.875 -21 36 C-24.617 39.617 -23.183 51.486 -23.191 56.562 C-22.982 59.224 -22.341 61.557 -21.625 64.125 C-20.91 67.219 -20.766 68.503 -22.133 71.406 C-23.643 73.478 -25.081 75.299 -27 77 C-27.66 77 -28.32 77 -29 77 C-29.11 76.385 -29.219 75.77 -29.332 75.137 C-29.491 74.328 -29.649 73.52 -29.812 72.688 C-29.963 71.887 -30.114 71.086 -30.27 70.262 C-31.093 67.711 -31.857 66.592 -34 65 C-40.063 65 -44.442 67.209 -49 71 C-54.962 77.231 -59.15 84.33 -63 92 C-63.66 92 -64.32 92 -65 92 C-65.253 92.82 -65.505 93.64 -65.766 94.484 C-66.92 97.772 -68.255 100.855 -69.716 104.011 C-75.224 115.936 -80.516 127.991 -81.815 141.159 C-83.01 152.757 -87.765 159.197 -95.248 167.89 C-98.122 171.351 -100.641 175.045 -103.188 178.75 C-109.467 187.763 -116.122 196.434 -123 205 C-123.66 203.02 -124.32 201.04 -125 199 C-127.693 198.158 -129.247 197.721 -132 198 C-138.506 201.977 -142.226 207.903 -145.562 214.562 C-146.026 215.476 -146.49 216.389 -146.969 217.33 C-155.187 234.05 -159.071 250.451 -160 269 C-164.891 266.258 -164.891 266.258 -165.875 263.938 C-166.061 259.576 -165.546 255.324 -165 251 C-165.66 250.67 -166.32 250.34 -167 250 C-165.722 241.835 -164.153 233.784 -162.32 225.727 C-162.066 224.6 -161.812 223.474 -161.551 222.314 C-161.016 219.949 -160.48 217.584 -159.942 215.22 C-159.129 211.642 -158.324 208.064 -157.52 204.484 C-150.356 172.77 -150.356 172.77 -145.562 163.625 C-144.959 162.47 -144.356 161.315 -143.734 160.125 C-141.989 156.981 -140.168 153.926 -138.192 150.923 C-137.042 149.068 -136.094 147.208 -135.159 145.238 C-133.122 141.118 -130.732 137.357 -128.148 133.562 C-127.69 132.879 -127.231 132.196 -126.758 131.492 C-125.301 129.325 -123.839 127.162 -122.375 125 C-120.463 122.169 -118.554 119.336 -116.648 116.5 C-116.177 115.798 -115.705 115.096 -115.218 114.373 C-111.515 108.835 -107.977 103.205 -104.475 97.537 C-101.685 93.04 -98.736 88.694 -95.658 84.387 C-91.862 78.922 -88.452 73.186 -84.986 67.508 C-84.399 66.567 -83.812 65.626 -83.207 64.656 C-82.686 63.809 -82.165 62.961 -81.628 62.088 C-79.878 59.844 -78.512 59.21 -76 58 C-75.67 57.01 -75.34 56.02 -75 55 C-72.29 52.848 -70.298 52.048 -66.875 51.5 C-62.16 52.108 -58.588 53.805 -54.355 55.906 C-52.131 57.14 -52.131 57.14 -50 57 C-48.358 54.87 -48.358 54.87 -46.625 52.062 C-43.254 46.875 -39.773 41.792 -36.188 36.75 C-32.084 30.966 -28.016 25.159 -24 19.312 C-23.556 18.666 -23.111 18.019 -22.653 17.353 C-20.7 14.504 -18.773 11.65 -16.891 8.754 C-12.588 2.486 -8.021 -1.79 0 0 Z M-81 74 C-82.482 75.735 -82.482 75.735 -84 78.062 C-84.619 78.971 -85.238 79.88 -85.875 80.816 C-86.576 81.867 -87.278 82.918 -88 84 C-88.393 84.589 -88.786 85.178 -89.191 85.785 C-90.895 88.338 -92.598 90.892 -94.289 93.454 C-96.763 97.194 -99.332 100.831 -102 104.438 C-107.991 113.059 -107.533 122.865 -108 133 C-107.34 133.33 -106.68 133.66 -106 134 C-106.66 134.969 -107.32 135.939 -108 136.938 C-110.513 141.256 -110.398 145.126 -110 150 C-104.034 144.576 -98.517 137.737 -96 130 C-96 128.68 -96 127.36 -96 126 C-98.962 126.613 -100.381 127.254 -103 129 C-102.322 128.019 -101.644 127.038 -100.945 126.027 C-98.469 122.44 -96.006 118.843 -93.544 115.246 C-92.079 113.115 -90.598 110.996 -89.113 108.879 C-88.221 107.586 -87.329 106.293 -86.438 105 C-86.021 104.415 -85.604 103.829 -85.174 103.226 C-80.562 96.469 -79.732 89.525 -79.375 81.5 C-79.336 80.773 -79.298 80.046 -79.258 79.297 C-79.165 77.532 -79.081 75.766 -79 74 C-79.66 74 -80.32 74 -81 74 Z M-120 133 C-125.59 139.421 -130.191 146.623 -134.812 153.75 C-135.813 155.272 -135.813 155.272 -136.834 156.824 C-137.473 157.805 -138.111 158.786 -138.77 159.797 C-139.63 161.117 -139.63 161.117 -140.507 162.464 C-143.707 167.901 -144.906 173.519 -146.188 179.625 C-146.378 180.484 -146.568 181.342 -146.764 182.227 C-146.938 183.052 -147.113 183.877 -147.293 184.727 C-147.453 185.475 -147.613 186.223 -147.778 186.995 C-148.164 189.205 -148.164 189.205 -147 192 C-141.528 185.074 -136.295 178.161 -131.664 170.633 C-129.43 167.098 -126.971 163.744 -124.48 160.387 C-120.94 154.68 -120.475 148.659 -119.875 142.125 C-119.789 141.246 -119.702 140.367 -119.613 139.461 C-119.403 137.308 -119.2 135.154 -119 133 C-119.33 133 -119.66 133 -120 133 Z M-145 194 C-146.372 195.741 -147.697 197.519 -149 199.312 C-149.722 200.299 -150.444 201.285 -151.188 202.301 C-154.099 206.636 -154.097 209.878 -154 215 C-150.409 213.803 -149.897 212.791 -147.875 209.688 C-147.098 208.518 -147.098 208.518 -146.305 207.324 C-143.811 202.882 -143.903 199.054 -144 194 C-144.33 194 -144.66 194 -145 194 Z " fill="#0257B3" transform="translate(288,97)"/>
  <ns0:path d="M0 0 C0.95 0.45 1.9 0.9 2.879 1.363 C4.292 2.003 4.292 2.003 5.734 2.656 C22.063 10.222 22.063 10.222 24.023 15.465 C21.992 43.904 13.029 74.779 -8.945 94.172 C-12.243 96.691 -15.421 97.128 -19.517 97.073 C-24.893 96.347 -29.835 93.999 -34.809 91.926 C-35.94 91.474 -37.071 91.022 -38.236 90.557 C-48.841 86.23 -48.841 86.23 -51.184 81.176 C-54.831 65.747 -49.056 48.85 -42.996 34.738 C-42.695 34.026 -42.395 33.314 -42.085 32.58 C-36.534 19.589 -29.315 5.648 -17.234 -2.441 C-10.854 -4.78 -5.845 -2.667 0 0 Z M-27.371 21.113 C-36.241 29.983 -41.269 43.069 -41.371 55.488 C-41.335 59.777 -41.335 59.777 -39.996 63.738 C-36.213 63.414 -33.951 62.39 -31.383 59.562 C-23.352 48.997 -18.465 37.233 -18.66 23.883 C-18.813 21.528 -18.813 21.528 -20.996 19.738 C-24.877 19.404 -24.877 19.404 -27.371 21.113 Z " fill="#252C34" transform="translate(258.99609375,175.26171875)"/>
  <ns0:path d="M0 0 C7.346 4.06 12.525 7.181 15.375 15.324 C18.837 33.001 12.125 51.753 3.012 66.719 C-2.58 74.91 -10.829 85.047 -20.938 87.574 C-28.641 88.335 -34.568 85.795 -41.625 82.887 C-42.739 82.452 -43.854 82.017 -45.002 81.568 C-51.699 78.86 -56.902 76.747 -60.188 70.012 C-61.92 62.072 -63.113 55.825 -58.938 48.574 C-57.212 46.596 -55.512 44.773 -53.641 42.949 C-52.873 42.184 -52.873 42.184 -52.09 41.404 C-51.01 40.331 -49.928 39.263 -48.842 38.197 C-47.199 36.586 -45.568 34.964 -43.938 33.34 C-35.39 24.86 -35.39 24.86 -30.898 21.199 C-27.85 18.497 -26.205 16.155 -24.312 12.574 C-18.636 2.372 -12.295 -5.968 0 0 Z " fill="#191C20" transform="translate(384.9375,231.42578125)"/>
  <ns0:path d="M0 0 C1.176 0.474 2.351 0.949 3.562 1.438 C3.944 2.39 4.326 3.343 4.719 4.324 C7.401 8.854 10.726 9.339 15.625 10.688 C17.263 11.167 18.9 11.651 20.535 12.141 C21.26 12.343 21.984 12.546 22.731 12.755 C24.562 13.438 24.562 13.438 26.562 15.438 C29.99 35.524 18.209 60.558 7.891 77.121 C5.302 80.757 2.871 83.899 -1.438 85.438 C-7.547 84.991 -12.968 83.527 -18.75 81.562 C-19.547 81.306 -20.345 81.049 -21.166 80.785 C-21.932 80.529 -22.699 80.272 -23.488 80.008 C-24.176 79.779 -24.863 79.549 -25.572 79.313 C-27.716 78.307 -28.931 77.258 -30.438 75.438 C-34.167 64.25 -30.906 51.3 -27.438 40.438 C-27.229 39.783 -27.02 39.128 -26.804 38.454 C-22.385 25.022 -16.629 9.573 -5.438 0.438 C-3.438 -0.562 -3.438 -0.562 0 0 Z M-11.438 19.438 C-21.328 29.893 -23.815 42.484 -23.438 56.438 C-19.622 56.861 -19.622 56.861 -17.91 55.18 C-11.611 46.839 -7.236 35.724 -7.375 25.188 C-7.384 24.295 -7.393 23.403 -7.402 22.484 C-7.414 21.809 -7.426 21.133 -7.438 20.438 C-8.757 20.108 -10.077 19.777 -11.438 19.438 Z " fill="#242A31" transform="translate(159.4375,294.5625)"/>
  <ns0:path d="M0 0 C1.65 0.33 3.3 0.66 5 1 C4.87 1.964 4.74 2.928 4.605 3.922 C4.468 5.185 4.33 6.448 4.188 7.75 C4.037 9.003 3.886 10.256 3.73 11.547 C3.612 15.128 3.612 15.128 6.301 17.078 C7.192 17.712 8.082 18.347 9 19 C9.387 19.993 9.773 20.985 10.172 22.008 C13.024 26.676 17.182 27.354 22.25 28.875 C23.179 29.182 24.109 29.489 25.066 29.805 C30.137 31.411 34.626 32.571 40 32 C40.99 31.34 41.98 30.68 43 30 C48.026 30.371 52.601 31.671 57.391 33.188 C58.085 33.406 58.78 33.624 59.495 33.849 C61.749 34.56 64 35.279 66.25 36 C67.812 36.498 69.374 36.995 70.936 37.493 C74.099 38.502 77.26 39.516 80.421 40.532 C84.007 41.685 87.599 42.819 91.194 43.945 C94.258 44.909 97.316 45.893 100.375 46.875 C101.484 47.219 102.593 47.563 103.735 47.918 C109.438 49.779 113.224 51.278 117 56 C119.529 58.682 121.597 60.542 125 62 C121.25 65.875 121.25 65.875 119 67 C112.932 66.887 107.261 65.397 101.527 63.543 C100.715 63.288 99.902 63.033 99.064 62.77 C96.353 61.917 93.645 61.052 90.938 60.188 C89.005 59.576 87.071 58.966 85.138 58.356 C81.978 57.359 78.819 56.362 75.66 55.361 C67.206 52.686 58.739 50.054 50.266 47.438 C45.903 46.09 41.541 44.737 37.179 43.385 C33.584 42.271 29.989 41.159 26.392 40.052 C22.968 38.998 19.547 37.938 16.127 36.872 C14.258 36.292 12.386 35.718 10.515 35.145 C-4.57 30.43 -4.57 30.43 -8 27 C-8.629 18.824 -7.735 8.673 -2.312 2.188 C-1.549 1.466 -0.786 0.744 0 0 Z " fill="#87898B" transform="translate(119,347)"/>
  <ns0:path d="M0 0 C4.246 1.853 6.776 2.993 8.953 7.18 C10.762 25.875 6.699 45.697 -4.82 60.895 C-12.03 69.306 -12.03 69.306 -17.758 70.93 C-23.067 71.099 -27.312 69.699 -32.297 67.992 C-33.225 67.704 -34.153 67.416 -35.109 67.119 C-41.026 65.14 -44.252 63.325 -47.672 58.055 C-50.077 51.413 -51.521 42.351 -48.656 35.695 C-48.331 35.154 -48.007 34.613 -47.672 34.055 C-46.682 34.385 -45.692 34.715 -44.672 35.055 C-44.767 35.947 -44.863 36.839 -44.961 37.758 C-45.072 38.928 -45.183 40.099 -45.297 41.305 C-45.471 43.045 -45.471 43.045 -45.648 44.82 C-45.672 48.01 -45.477 49.476 -43.672 52.055 C-40.783 53.499 -38.875 53.432 -35.672 53.055 C-32.963 50.68 -32.963 50.68 -30.672 48.055 C-29.187 47.56 -29.187 47.56 -27.672 47.055 C-26.565 44.756 -26.565 44.756 -25.672 42.055 C-24.89 40.364 -24.095 38.679 -23.289 37 C-22.844 36.055 -22.4 35.11 -21.941 34.137 C-21.013 32.169 -20.076 30.205 -19.129 28.246 C-16.001 21.543 -14.804 17.309 -16.297 9.992 C-16.757 6.385 -16.204 4.338 -14.672 1.055 C-10.635 -3.759 -5.19 -1.836 0 0 Z " fill="#22282E" transform="translate(281.671875,342.9453125)"/>
  <ns0:path d="M0 0 C4.81 0.559 8.34 1.959 12.625 4.188 C14.035 4.912 15.445 5.636 16.855 6.359 C17.654 6.771 18.452 7.183 19.275 7.607 C22.989 9.505 26.725 11.359 30.46 13.215 C41.67 18.785 52.846 24.405 63.875 30.328 C66.785 31.961 66.785 31.961 69.116 32.839 C71 34 71 34 71.821 35.924 C71.968 36.69 72.115 37.456 72.266 38.246 C72.433 39.083 72.601 39.921 72.773 40.783 C72.931 41.659 73.088 42.535 73.25 43.438 C73.423 44.31 73.595 45.182 73.773 46.08 C74.427 49.453 75 52.557 75 56 C70.329 55.409 66.674 53.378 62.625 51.125 C55.904 47.477 49.099 44.084 42.188 40.812 C41.245 40.357 40.303 39.902 39.332 39.433 C34.368 37.04 29.389 34.718 24.331 32.533 C21.735 31.4 19.16 30.224 16.586 29.041 C15.334 28.478 14.072 27.934 12.803 27.411 C8.729 25.725 5.232 24.024 2 21 C0.267 16.313 -0.012 11.967 0 7 C-0.004 5.701 -0.009 4.402 -0.013 3.063 C-0.009 2.052 -0.004 1.041 0 0 Z " fill="#000000" transform="translate(319,117)"/>
  <ns0:path d="M0 0 C2.55 7.65 -0.32 19.217 -3.516 26.414 C-5.217 29.073 -7.032 31.533 -9 34 C-10.112 35.599 -11.216 37.203 -12.312 38.812 C-13.54 40.543 -14.77 42.272 -16 44 C-16.865 45.234 -17.73 46.468 -18.594 47.703 C-19.5 48.99 -20.406 50.276 -21.312 51.562 C-21.745 52.183 -22.178 52.803 -22.624 53.443 C-25.773 57.886 -25.773 57.886 -28 59 C-27.386 54.99 -26.697 50.996 -26 47 C-25.852 45.967 -25.704 44.935 -25.551 43.871 C-23.761 33.731 -18.71 26.335 -13 18 C-11.989 16.499 -10.979 14.998 -9.969 13.496 C-2.565 2.565 -2.565 2.565 0 0 Z " fill="#222436" transform="translate(168,230)"/>
  <ns0:path d="M0 0 C0.66 0 1.32 0 2 0 C1.469 14.927 -1.11 24.419 -9.562 36.871 C-11.187 39.276 -12.78 41.7 -14.375 44.125 C-15.541 45.876 -16.707 47.626 -17.875 49.375 C-18.714 50.652 -18.714 50.652 -19.57 51.955 C-20.101 52.74 -20.632 53.526 -21.18 54.336 C-21.651 55.043 -22.123 55.75 -22.609 56.478 C-23.068 56.98 -23.527 57.483 -24 58 C-24.99 58 -25.98 58 -27 58 C-26.411 42.584 -23.164 33.629 -14.394 21.02 C-12.068 17.65 -9.82 14.228 -7.562 10.812 C-1.829 2.149 -1.829 2.149 0 0 Z " fill="#1E2031" transform="translate(207,171)"/>
  <ns0:path d="M0 0 C2.375 0.688 2.375 0.688 3.375 1.688 C5.228 15.08 -0.729 28.214 -8.625 38.688 C-10.231 40.709 -11.572 42.078 -13.625 43.688 C-14.945 43.688 -16.265 43.688 -17.625 43.688 C-20.527 37.884 -19.333 29.634 -17.531 23.555 C-9.181 -1.093 -9.181 -1.093 0 0 Z " fill="#81868C" transform="translate(236.625,195.3125)"/>
  <ns0:path d="M0 0 C9.468 2.683 19.691 6.97 25.887 14.957 C28.104 19.026 29.07 23.49 30 28 C24.974 26.677 21.07 24.306 16.734 21.547 C13.902 19.945 11.133 18.994 8.062 17.938 C4.357 16.357 3.268 15.617 1.641 11.867 C0.72 7.915 0 4.067 0 0 Z " fill="#0056B7" transform="translate(390,150)"/>
  <ns0:path d="M0 0 C3.287 2.396 4.684 3.905 5.812 7.812 C5.874 8.534 5.936 9.256 6 10 C4.484 10.495 4.484 10.495 2.938 11 C-1.955 13.047 -4.803 16.909 -8 21 C-11.789 20.281 -11.789 20.281 -13.688 17.75 C-15.836 13.248 -16.405 11.237 -14.812 6.375 C-11.336 -0.098 -7.124 -1.359 0 0 Z " fill="#737579" transform="translate(278,87)"/>
  <ns0:path d="M0 0 C3.128 4.238 3.31 7.839 3 13 C0.237 12.477 -2.326 11.891 -5 11 C-9.487 10.577 -12.637 10.692 -16.324 13.465 C-20.961 17.712 -25.467 22.374 -28.645 27.816 C-29.092 28.537 -29.539 29.258 -30 30 C-30.66 30 -31.32 30 -32 30 C-30.532 19.708 -22.706 9.379 -14.582 3.145 C-9.64 -0.123 -5.89 -2.404 0 0 Z " fill="#010204" transform="translate(256,162)"/>
  <ns0:path d="M0 0 C4.624 0.134 7.425 0.965 10.75 4.375 C11.256 7.224 11.042 9.45 10.75 12.375 C9.737 12.329 8.724 12.282 7.68 12.234 C6.328 12.197 4.977 12.16 3.625 12.125 C2.96 12.091 2.295 12.058 1.609 12.023 C-4.464 11.904 -7.803 14.091 -12.125 18.125 C-12.496 18.537 -12.868 18.95 -13.25 19.375 C-13.791 15.122 -14.014 12.64 -11.762 8.91 C-4.851 0.083 -4.851 0.083 0 0 Z " fill="#E39A08" transform="translate(285.25,112.625)"/>
  <ns0:path d="M0 0 C0.598 0.227 1.196 0.454 1.812 0.688 C3.075 12.363 -1.015 24.551 -7.66 34.086 C-9.355 35.864 -10.94 36.731 -13.188 37.688 C-14.987 35.888 -14.445 33.308 -14.5 30.875 C-14.404 19.96 -10.485 9.519 -3.785 0.879 C-2.188 -0.312 -2.188 -0.312 0 0 Z " fill="#808389" transform="translate(150.1875,314.3125)"/>
  <ns0:path d="M0 0 C4.889 0.623 8.803 2.713 13.125 4.938 C13.84 5.298 14.556 5.658 15.293 6.029 C18.328 7.569 21.161 9.107 24 11 C24.408 13.712 24.133 16.244 24 19 C17.812 18.548 13.435 16.444 8.062 13.438 C7.283 13.013 6.504 12.588 5.701 12.15 C3.796 11.11 1.897 10.056 0 9 C0 6.03 0 3.06 0 0 Z " fill="#E8E9E2" transform="translate(296,117)"/>
  <ns0:path d="M0 0 C3.062 1.562 3.062 1.562 5 4 C5.587 7.485 5.611 10.778 4 14 C1.121 13.063 -1.686 12.145 -4.438 10.875 C-9.203 9.248 -12.846 9.496 -17.438 11.5 C-18.283 11.995 -19.129 12.49 -20 13 C-18.332 7.996 -15.649 2.706 -11.113 -0.215 C-7.35 -1.613 -3.833 -0.921 0 0 Z " fill="#707274" transform="translate(232,140)"/>
  <ns0:path d="M0 0 C7.581 0.838 14.081 4.333 20 9 C21.405 12.151 21.548 14.615 21 18 C13.7 16.981 6.901 13.281 1 9 C-0.5 5.835 -0.626 3.422 0 0 Z " fill="#E9EBE7" transform="translate(394,166)"/>
  <ns0:path d="M0 0 C0.66 0 1.32 0 2 0 C1.438 4.003 0.251 6.512 -2.062 9.809 C-2.691 10.715 -3.319 11.621 -3.966 12.554 C-4.637 13.506 -5.309 14.457 -6 15.438 C-7.369 17.406 -8.736 19.377 -10.102 21.348 C-10.768 22.308 -11.435 23.269 -12.122 24.258 C-15.366 28.994 -18.418 33.845 -21.461 38.711 C-21.969 39.466 -22.477 40.222 -23 41 C-23.33 41 -23.66 41 -24 41 C-24.49 35.685 -23.275 33.297 -20.125 29.062 C-19.298 27.927 -18.472 26.79 -17.648 25.652 C-17.215 25.061 -16.782 24.469 -16.335 23.859 C-14.049 20.675 -11.905 17.398 -9.75 14.125 C-8.179 11.742 -6.597 9.366 -5 7 C-4.558 6.34 -4.117 5.679 -3.662 4.999 C-2.494 3.296 -1.252 1.643 0 0 Z " fill="#060916" transform="translate(207,171)"/>
  <ns0:path d="M0 0 C0.33 0.99 0.66 1.98 1 3 C-0.305 5.473 -1.657 7.733 -3.188 10.062 C-3.632 10.756 -4.077 11.449 -4.535 12.163 C-6.01 14.45 -7.503 16.726 -9 19 C-9.536 19.818 -10.072 20.636 -10.624 21.479 C-13.244 25.473 -15.876 29.459 -18.531 33.43 C-18.96 34.071 -19.388 34.713 -19.83 35.375 C-21 37 -21 37 -23 39 C-22.567 33.129 -20.925 29.618 -17.598 24.824 C-17.16 24.173 -16.722 23.522 -16.271 22.851 C-14.88 20.788 -13.471 18.738 -12.062 16.688 C-11.119 15.292 -10.177 13.895 -9.236 12.498 C-2.413 2.413 -2.413 2.413 0 0 Z " fill="#040611" transform="translate(168,230)"/>
  <ns0:path d="M0 0 C7.183 -0.609 7.183 -0.609 10.938 2.188 C12.977 4.969 13.709 6.606 14 10 C7.6 13.077 7.6 13.077 4.562 12.688 C4.047 12.461 3.531 12.234 3 12 C3 11.34 3 10.68 3 10 C2.01 10 1.02 10 0 10 C-1.125 3.375 -1.125 3.375 0 0 Z " fill="#85868A" transform="translate(270,87)"/>
  <ns0:path d="M0 0 C0.33 0 0.66 0 1 0 C0.685 3.335 0.346 6.668 0 10 C-0.124 11.258 -0.248 12.516 -0.375 13.812 C-1.026 17.132 -2.078 19.242 -4 22 C-5.32 21.67 -6.64 21.34 -8 21 C-7.184 12.688 -5.554 6.412 0 0 Z " fill="#F6F4EE" transform="translate(129,326)"/>
  <ns0:path d="M0 0 C-0.209 9.391 -6.858 17.316 -13 24 C-13.33 24 -13.66 24 -14 24 C-14.85 15.213 -12.062 10.033 -6.594 3.258 C-4.29 0.772 -3.488 0 0 0 Z " fill="#0092CE" transform="translate(192,223)"/>
  <ns0:path d="M0 0 C0.33 0 0.66 0 1 0 C1.447 7.148 -0.054 12.831 -4.562 18.5 C-5.367 19.325 -6.171 20.15 -7 21 C-7.66 21 -8.32 21 -9 21 C-9.629 13.45 -7.021 8.317 -2.312 2.5 C-1.549 1.675 -0.786 0.85 0 0 Z " fill="#0097D7" transform="translate(143,291)"/>
  <ns0:path d="M0 0 C3.312 0.188 3.312 0.188 7 1 C9.349 3.879 10 5.275 10 9 C6.17 8.705 3.648 8.47 0.5 6.188 C-1 4 -1 4 -0.75 1.75 C-0.502 1.172 -0.255 0.595 0 0 Z " fill="#96989A" transform="translate(274,88)"/>
  <ns0:path d="M0 0 C3.181 0.946 4.721 1.631 6.75 4.312 C7.961 6.916 8.595 9.168 9 12 C5.625 11.453 3.918 10.945 1 9 C0.488 6.836 0.488 6.836 0.312 4.375 C0.247 3.558 0.181 2.74 0.113 1.898 C0.076 1.272 0.039 0.645 0 0 Z " fill="#E39C15" transform="translate(414,176)"/>
  <ns0:path d="M0 0 C0.877 5.701 -1.462 8.761 -4.59 13.242 C-5.288 14.112 -5.288 14.112 -6 15 C-6.33 15 -6.66 15 -7 15 C-7.483 10.172 -7.821 6.345 -4.625 2.438 C-2 0 -2 0 0 0 Z " fill="#E3E7E9" transform="translate(272,128)"/>
  <ns0:path d="M0 0 C0.33 0 0.66 0 1 0 C1 2.31 1 4.62 1 7 C0.34 6.34 -0.32 5.68 -1 5 C-2.32 5.99 -3.64 6.98 -5 8 C-3.63 5.049 -2.068 2.517 0 0 Z " fill="#008CD1" transform="translate(143,291)"/>
  <ns0:path d="M0 0 C0 3 0 3 0 3 Z " fill="#272219" transform="translate(394,172)"/>
  <ns0:path d="M0 0 C2 1 2 1 2 1 Z " fill="#B69553" transform="translate(294,125)"/>
  <ns0:path d="M0 0 C2 1 2 1 2 1 Z " fill="#9D927A" transform="translate(290,124)"/>
</svg>