<?xml version="1.0" ?>
<svg xmlns:ns0="http://www.w3.org/2000/svg" xmlns="http://www.w3.org/2000/svg" width="512" height="512" viewBox="0 0 512 512" style="background-color: transparent;">
  <ns0:path d="M0 0 C1.111 0.528 2.222 1.057 3.366 1.601 C5.813 2.766 8.256 3.935 10.696 5.112 C14.784 7.081 18.886 9.016 22.992 10.945 C34.705 16.454 46.404 21.994 58.096 27.548 C61.412 29.123 64.73 30.698 68.047 32.273 C69.678 33.047 71.309 33.822 72.939 34.596 C82.233 39.009 91.548 43.358 100.938 47.562 C129.332 60.362 139.211 71.888 150.658 100.802 C151.881 103.891 153.112 106.977 154.344 110.062 C155.131 112.039 155.917 114.015 156.703 115.992 C157.25 117.366 157.25 117.366 157.808 118.767 C159.539 123.144 161.198 127.512 162.625 132 C160.315 131.67 158.005 131.34 155.625 131 C155.625 130.34 155.625 129.68 155.625 129 C152.985 128.34 150.345 127.68 147.625 127 C148.109 129.782 148.635 132.544 149.188 135.312 C149.32 136.098 149.452 136.884 149.588 137.693 C150.068 139.994 150.539 141.912 151.625 144 C155.121 145.749 155.121 145.749 158.625 147 C159.746 149.453 159.746 149.453 160.062 152.25 C160.176 153.227 160.289 154.204 160.406 155.211 C160.478 156.131 160.551 157.052 160.625 158 C160.769 159.279 160.914 160.558 161.062 161.875 C160.482 166.02 158.698 167.467 155.625 170 C154.082 171.415 152.541 172.832 151 174.25 C147.471 177.413 143.873 180.458 140.188 183.438 C135.412 187.299 130.888 191.377 126.371 195.535 C123.706 197.927 120.977 200.193 118.188 202.438 C114.193 205.659 110.379 209.007 106.625 212.5 C102.022 216.783 97.272 220.802 92.352 224.723 C89.404 227.185 86.692 229.825 83.938 232.5 C80.673 235.53 78.421 237.572 73.938 238.125 C72.844 238.084 71.751 238.043 70.625 238 C70.955 237.134 71.285 236.268 71.625 235.375 C73.371 229.437 72.778 223.122 72.625 217 C67.132 214.143 61.674 211.782 55.84 209.723 C55.021 209.429 54.202 209.136 53.359 208.834 C51.634 208.218 49.909 207.603 48.183 206.991 C45.592 206.073 43.004 205.148 40.416 204.221 C35.492 202.461 30.561 200.724 25.625 199 C24.892 198.743 24.16 198.486 23.405 198.221 C21.378 197.514 19.348 196.815 17.316 196.121 C15.62 195.538 15.62 195.538 13.889 194.943 C10.434 193.945 7.213 193.27 3.625 193 C-1.599 196.374 -5.4 201.26 -9.375 206 C-13.066 205.343 -16.481 204.355 -20.016 203.114 C-21.125 202.727 -22.233 202.339 -23.376 201.94 C-24.565 201.52 -25.755 201.1 -26.98 200.668 C-28.832 200.018 -28.832 200.018 -30.721 199.356 C-33.333 198.439 -35.945 197.52 -38.556 196.599 C-41.875 195.429 -45.196 194.264 -48.517 193.1 C-51.714 191.979 -54.91 190.855 -58.105 189.73 C-59.285 189.317 -60.464 188.903 -61.68 188.477 C-68.311 186.136 -74.872 183.678 -81.375 181 C-81.145 180.401 -80.914 179.802 -80.677 179.185 C-78.55 173.556 -78.089 168.998 -78.375 163 C-86.631 159.423 -95 156.311 -103.502 153.378 C-116.913 148.74 -129.907 143.578 -142.688 137.398 C-143.657 136.937 -144.626 136.475 -145.625 136 C-146.414 135.608 -147.203 135.216 -148.016 134.812 C-151.071 133.76 -153.169 133.506 -156.375 134 C-158.52 136.265 -158.52 136.265 -160.188 139.25 C-163.324 143.863 -165.826 146.894 -171.137 148.82 C-175.462 149.168 -178.134 146.54 -181.375 144 C-182.7 143.317 -184.033 142.648 -185.375 142 C-185.039 141.433 -184.703 140.866 -184.356 140.282 C-182.757 137.584 -181.16 134.886 -179.562 132.188 C-178.969 131.184 -178.375 130.181 -177.763 129.147 C-174.589 123.777 -171.441 118.393 -168.341 112.98 C-162.334 102.501 -156.015 92.226 -149.664 81.953 C-145.494 75.208 -141.364 68.439 -137.247 61.661 C-136.508 60.443 -135.768 59.225 -135.028 58.008 C-131.402 52.046 -127.792 46.085 -124.375 40 C-123.715 40.99 -123.055 41.98 -122.375 43 C-119.959 43.798 -119.959 43.798 -117.25 44.188 C-115.885 44.425 -115.885 44.425 -114.492 44.668 C-113.794 44.778 -113.095 44.887 -112.375 45 C-111.847 44.13 -111.847 44.13 -111.309 43.242 C-105.333 33.787 -99.381 28.915 -88.5 26.312 C-68.633 24.326 -50.763 31.245 -34.375 42 C-34.603 41.432 -34.831 40.863 -35.066 40.277 C-37.049 34.952 -37.285 31.684 -36.375 26 C-37.668 24.036 -37.668 24.036 -39.375 23 C-38.385 22.505 -38.385 22.505 -37.375 22 C-36.492 19.365 -36.492 19.365 -35.812 16.25 C-35.564 15.203 -35.315 14.157 -35.059 13.078 C-34.641 11.199 -34.272 9.307 -33.988 7.402 C-33.237 4.46 -31.989 2.7 -30.125 0.312 C-29.542 -0.454 -28.96 -1.221 -28.359 -2.012 C-20.225 -10.162 -8.7 -4.262 0 0 Z M-6.375 10 C-8.619 12.244 -7.701 17.24 -7.75 20.25 C-7.787 21.11 -7.825 21.97 -7.863 22.855 C-7.92 26.929 -7.838 29.296 -5.562 32.754 C-0.966 35.993 3.906 38.329 9 40.688 C10.096 41.203 11.192 41.718 12.321 42.249 C15.748 43.85 19.184 45.429 22.625 47 C23.727 47.504 24.829 48.008 25.964 48.528 C29.094 49.951 32.232 51.355 35.375 52.75 C36.81 53.395 36.81 53.395 38.275 54.053 C39.169 54.443 40.063 54.833 40.984 55.234 C41.763 55.577 42.541 55.92 43.343 56.272 C45.882 57.082 47.976 57.132 50.625 57 C50.58 43.596 50.58 43.596 44.833 31.95 C42.505 29.894 40.446 28.749 37.617 27.484 C36.639 27.041 35.66 26.598 34.652 26.142 C33.612 25.683 32.572 25.223 31.5 24.75 C29.898 24.032 29.898 24.032 28.264 23.299 C26.09 22.326 23.915 21.356 21.738 20.39 C18.91 19.127 16.095 17.84 13.285 16.539 C11.711 15.817 10.137 15.096 8.562 14.375 C7.857 14.045 7.151 13.714 6.423 13.374 C2.122 11.431 -1.652 10.349 -6.375 10 Z M-101.375 46 C-110.619 57.846 -115.594 67.787 -114.375 83 C-111.221 97.693 -100.328 111.191 -87.91 119.395 C-74.798 127.476 -60.599 131.883 -45.277 128.27 C-36.304 124.954 -31.759 119.425 -26.402 111.785 C-24.078 108.592 -21.533 105.716 -18.82 102.852 C-14.249 96.995 -14.634 90.069 -15.375 83 C-17.715 73.662 -22.412 66.429 -28.375 59 C-29.118 57.969 -29.86 56.938 -30.625 55.875 C-41.622 44.378 -56.702 36.195 -72.699 34.797 C-84.042 34.572 -93.214 37.941 -101.375 46 Z M71.625 45 C71.74 47.522 71.867 50.042 72 52.562 C72.031 53.267 72.062 53.971 72.094 54.697 C72.437 63.107 72.437 63.107 76.731 69.974 C80.057 72.303 83.514 73.998 87.207 75.645 C87.939 75.977 88.671 76.31 89.425 76.653 C91.759 77.713 94.098 78.763 96.438 79.812 C97.966 80.505 99.494 81.199 101.021 81.893 C104.797 83.605 108.58 85.298 112.366 86.986 C114.658 88.015 116.941 89.06 119.224 90.107 C120.674 90.763 122.124 91.419 123.574 92.074 C124.242 92.385 124.91 92.696 125.598 93.016 C129.488 94.837 129.488 94.837 133.625 94 C132.556 90.787 131.467 87.58 130.375 84.375 C130.075 83.471 129.774 82.568 129.465 81.637 C126.769 73.778 124.318 68.348 116.625 64.438 C116.008 64.121 115.391 63.804 114.755 63.478 C104.126 58.118 93.235 53.244 82.411 48.293 C80.75 47.522 79.104 46.713 77.501 45.828 C75.357 44.731 75.357 44.731 71.625 45 Z M24.625 53 C23.276 54.156 23.276 54.156 23.062 57.25 C23.237 60.851 23.237 60.851 24.918 62.363 C31.703 66.804 41.501 72 49.625 72 C50.04 68.939 50.292 66.95 49.625 64 C44.556 58.205 33.745 55.533 26.625 53 C25.965 53 25.305 53 24.625 53 Z M119.625 97 C119.691 100.303 119.834 102.969 121.898 105.66 C126.914 110.263 133.715 114 140.625 114 C140.956 110.444 140.977 108.546 139.016 105.5 C136.251 102.609 133.771 101.306 130.125 99.688 C129.001 99.176 127.877 98.664 126.719 98.137 C123.549 96.77 123.549 96.77 119.625 97 Z M75.91 118.414 C74.415 119.919 74.415 119.919 74.625 122 C74.041 122.248 73.457 122.495 72.855 122.75 C70.296 124.185 68.83 125.767 66.938 128 C66.336 128.701 65.734 129.403 65.113 130.125 C61.009 135.296 61.946 142.703 62.625 149 C64.761 158.206 68.754 165.672 74.625 173 C75.28 173.899 75.28 173.899 75.949 174.816 C84.004 185.241 97.193 194.25 110.312 196 C119.826 196.432 125.643 192.003 132.625 186 C133.127 185.576 133.629 185.152 134.146 184.715 C135.779 183.326 137.391 181.917 139 180.5 C139.512 180.062 140.024 179.623 140.552 179.172 C144.822 175.318 147 171.221 148.094 165.586 C148.321 149.49 137.74 135.678 127.195 124.473 C117.183 114.84 105.557 108.557 91.594 108.727 C84.669 109.364 80.64 113.653 75.91 118.414 Z " fill="#000001" transform="translate(270.375,148)"/>
  <ns0:path d="M0 0 C1.111 0.528 2.222 1.057 3.366 1.601 C5.813 2.766 8.256 3.935 10.696 5.112 C14.784 7.081 18.886 9.016 22.992 10.945 C34.705 16.454 46.404 21.994 58.096 27.548 C61.412 29.123 64.73 30.698 68.047 32.273 C69.678 33.047 71.309 33.822 72.939 34.596 C82.233 39.009 91.548 43.358 100.938 47.562 C129.332 60.362 139.211 71.888 150.658 100.802 C151.881 103.891 153.112 106.977 154.344 110.062 C155.131 112.039 155.917 114.015 156.703 115.992 C157.25 117.366 157.25 117.366 157.808 118.767 C159.539 123.144 161.198 127.512 162.625 132 C160.315 131.67 158.005 131.34 155.625 131 C155.625 130.34 155.625 129.68 155.625 129 C151.665 128.01 151.665 128.01 147.625 127 C148.109 129.782 148.635 132.544 149.188 135.312 C149.32 136.098 149.452 136.884 149.588 137.693 C150.068 139.994 150.539 141.912 151.625 144 C155.124 145.735 155.124 145.735 158.625 147 C159.746 149.559 159.746 149.559 160.062 152.438 C160.185 153.385 160.307 154.332 160.434 155.309 C160.592 157.534 160.625 159.769 160.625 162 C158.239 161.424 155.958 160.778 153.625 160 C152.849 158.042 152.849 158.042 152.246 155.52 C150.754 150.084 148.534 145.534 145.688 140.688 C145.209 139.868 144.73 139.048 144.237 138.204 C139.584 130.504 134.069 124.23 127.625 118 C126.901 117.245 126.176 116.489 125.43 115.711 C116.36 106.779 101.393 99.278 88.562 98.625 C82.52 99.2 77.456 100.123 73.125 104.562 C70.728 108.458 70.377 111.036 70.062 115.625 C69.937 117.408 69.937 117.408 69.809 119.227 C69.748 120.142 69.687 121.057 69.625 122 C62.438 119.724 55.561 116.943 48.625 114 C46.925 113.294 45.224 112.588 43.523 111.883 C37.94 109.559 32.373 107.198 26.809 104.828 C25.503 104.272 25.503 104.272 24.171 103.705 C20.541 102.159 16.911 100.612 13.282 99.064 C10.604 97.922 7.925 96.781 5.246 95.641 C4.424 95.29 3.602 94.939 2.756 94.577 C1.994 94.253 1.232 93.929 0.447 93.595 C-0.555 93.168 -0.555 93.168 -1.576 92.732 C-3.152 92.091 -4.762 91.538 -6.375 91 C-6.45 90.189 -6.525 89.378 -6.602 88.543 C-8.337 73.93 -16.438 60.843 -27.375 51 C-28.039 50.402 -28.703 49.804 -29.387 49.188 C-33.121 45.723 -33.121 45.723 -37.375 43 C-37.045 42.34 -36.715 41.68 -36.375 41 C-35.715 41.33 -35.055 41.66 -34.375 42 C-34.603 41.432 -34.831 40.863 -35.066 40.277 C-37.049 34.952 -37.285 31.684 -36.375 26 C-37.668 24.036 -37.668 24.036 -39.375 23 C-38.715 22.67 -38.055 22.34 -37.375 22 C-36.492 19.365 -36.492 19.365 -35.812 16.25 C-35.564 15.203 -35.315 14.157 -35.059 13.078 C-34.641 11.199 -34.272 9.307 -33.988 7.402 C-33.237 4.46 -31.989 2.7 -30.125 0.312 C-29.542 -0.454 -28.96 -1.221 -28.359 -2.012 C-20.225 -10.162 -8.7 -4.262 0 0 Z M-6.375 10 C-8.619 12.244 -7.701 17.24 -7.75 20.25 C-7.787 21.11 -7.825 21.97 -7.863 22.855 C-7.92 26.929 -7.838 29.296 -5.562 32.754 C-0.966 35.993 3.906 38.329 9 40.688 C10.096 41.203 11.192 41.718 12.321 42.249 C15.748 43.85 19.184 45.429 22.625 47 C23.727 47.504 24.829 48.008 25.964 48.528 C29.094 49.951 32.232 51.355 35.375 52.75 C36.81 53.395 36.81 53.395 38.275 54.053 C39.169 54.443 40.063 54.833 40.984 55.234 C41.763 55.577 42.541 55.92 43.343 56.272 C45.882 57.082 47.976 57.132 50.625 57 C50.58 43.596 50.58 43.596 44.833 31.95 C42.505 29.894 40.446 28.749 37.617 27.484 C36.639 27.041 35.66 26.598 34.652 26.142 C33.612 25.683 32.572 25.223 31.5 24.75 C29.898 24.032 29.898 24.032 28.264 23.299 C26.09 22.326 23.915 21.356 21.738 20.39 C18.91 19.127 16.095 17.84 13.285 16.539 C11.711 15.817 10.137 15.096 8.562 14.375 C7.857 14.045 7.151 13.714 6.423 13.374 C2.122 11.431 -1.652 10.349 -6.375 10 Z M71.625 45 C71.74 47.522 71.867 50.042 72 52.562 C72.031 53.267 72.062 53.971 72.094 54.697 C72.437 63.107 72.437 63.107 76.731 69.974 C80.057 72.303 83.514 73.998 87.207 75.645 C87.939 75.977 88.671 76.31 89.425 76.653 C91.759 77.713 94.098 78.763 96.438 79.812 C97.966 80.505 99.494 81.199 101.021 81.893 C104.797 83.605 108.58 85.298 112.366 86.986 C114.658 88.015 116.941 89.06 119.224 90.107 C120.674 90.763 122.124 91.419 123.574 92.074 C124.242 92.385 124.91 92.696 125.598 93.016 C129.488 94.837 129.488 94.837 133.625 94 C132.556 90.787 131.467 87.58 130.375 84.375 C130.075 83.471 129.774 82.568 129.465 81.637 C126.769 73.778 124.318 68.348 116.625 64.438 C116.008 64.121 115.391 63.804 114.755 63.478 C104.126 58.118 93.235 53.244 82.411 48.293 C80.75 47.522 79.104 46.713 77.501 45.828 C75.357 44.731 75.357 44.731 71.625 45 Z M24.625 53 C23.276 54.156 23.276 54.156 23.062 57.25 C23.237 60.851 23.237 60.851 24.918 62.363 C31.703 66.804 41.501 72 49.625 72 C50.04 68.939 50.292 66.95 49.625 64 C44.556 58.205 33.745 55.533 26.625 53 C25.965 53 25.305 53 24.625 53 Z M119.625 97 C119.691 100.303 119.834 102.969 121.898 105.66 C126.914 110.263 133.715 114 140.625 114 C140.956 110.444 140.977 108.546 139.016 105.5 C136.251 102.609 133.771 101.306 130.125 99.688 C129.001 99.176 127.877 98.664 126.719 98.137 C123.549 96.77 123.549 96.77 119.625 97 Z " fill="#0059B8" transform="translate(270.375,148)"/>
  <ns0:path d="M0 0 C1.414 1.129 1.414 1.129 3.102 3.816 C3.368 6.986 2.891 9.747 2.102 12.816 C1.862 13.751 1.862 13.751 1.618 14.704 C-0.429 21.721 -4.122 27.498 -8.023 33.629 C-8.733 34.76 -9.442 35.892 -10.149 37.025 C-11.257 38.8 -12.366 40.574 -13.478 42.346 C-17.643 48.984 -21.712 55.678 -25.773 62.379 C-26.135 62.975 -26.496 63.57 -26.869 64.184 C-33.824 75.651 -40.635 87.194 -47.367 98.793 C-47.982 99.85 -48.596 100.908 -49.23 101.997 C-50.427 104.058 -51.622 106.119 -52.815 108.183 C-53.932 110.106 -55.058 112.024 -56.193 113.937 C-57.373 115.93 -58.531 117.937 -59.67 119.954 C-60.257 120.953 -60.844 121.952 -61.449 122.98 C-61.968 123.885 -62.486 124.789 -63.021 125.721 C-64.898 127.816 -64.898 127.816 -67.885 128.661 C-71.699 128.858 -74.725 128.097 -78.398 127.066 C-79.667 126.721 -80.935 126.375 -82.242 126.02 C-86.923 124.479 -91.824 122.861 -94.898 118.816 C-96.339 114.468 -95.206 110.901 -94 106.617 C-93.776 105.821 -93.552 105.024 -93.321 104.203 C-90.73 95.534 -86.661 87.875 -82.273 80.004 C-81.459 78.512 -80.647 77.018 -79.837 75.524 C-78.248 72.598 -76.652 69.675 -75.048 66.757 C-72.31 61.758 -69.695 56.697 -67.086 51.629 C-62.851 43.482 -58.377 35.481 -53.821 27.51 C-51.012 22.588 -48.252 17.647 -45.582 12.648 C-45.047 11.649 -44.512 10.65 -43.961 9.621 C-42.947 7.721 -41.941 5.817 -40.944 3.908 C-37.865 -1.854 -35.095 -6.312 -29.336 -9.684 C-19.026 -11.183 -8.493 -5.295 0 0 Z " fill="#8A8C8E" transform="translate(145.8984375,170.18359375)"/>
  <ns0:path d="M0 0 C5.141 3.971 9.503 7.777 13.449 12.969 C13.88 13.531 14.31 14.094 14.754 14.674 C20.762 22.766 24.495 31.099 24.637 41.219 C24.662 42.32 24.688 43.42 24.715 44.555 C24.053 51.19 20.26 55.484 16.012 60.281 C13.053 63.671 10.197 66.944 7.824 70.781 C3.854 75.77 -2.208 79.805 -8.613 80.844 C-25.866 81.959 -40.508 78.18 -53.801 66.531 C-55.422 64.987 -57.027 63.425 -58.613 61.844 C-59.325 61.155 -60.036 60.467 -60.77 59.758 C-69.892 50.32 -74.97 38.794 -74.992 25.686 C-74.832 19.229 -73.141 15.136 -69.613 9.844 C-69.27 9.293 -68.926 8.742 -68.572 8.175 C-62.508 -1.518 -55.951 -9.176 -44.551 -12.594 C-28.027 -14.954 -13.369 -9.624 0 0 Z M-33.863 7.844 C-36.058 11.606 -36.88 14.495 -36.613 18.844 C-34.059 27.784 -27.441 33.695 -19.824 38.617 C-14.031 41.831 -9.17 42.534 -2.613 41.844 C0.606 40.57 1.862 39.631 3.762 36.781 C5.199 30.024 4.227 24.501 0.512 18.656 C-4.086 12.609 -10.407 8.246 -17.613 5.844 C-26.109 5.001 -26.109 5.001 -33.863 7.844 Z " fill="#272D34" transform="translate(230.61328125,196.15625)"/>
  <ns0:path d="M0 0 C0.801 0.413 1.601 0.825 2.426 1.25 C3.642 1.869 3.642 1.869 4.883 2.5 C20.149 10.963 30.521 24.439 37.426 40.25 C37.859 41.24 38.292 42.23 38.738 43.25 C40.3 50.063 40.288 56.255 36.727 62.398 C32.608 68.261 26.948 72.584 21.426 77.062 C20.845 77.543 20.263 78.024 19.665 78.519 C14.442 82.651 9.141 84.753 2.363 84.312 C-12.975 82.445 -26.301 71.023 -35.574 59.312 C-43.532 48.093 -47.342 35.957 -45.574 22.25 C-43.75 18.646 -41.487 16.019 -38.574 13.25 C-37.78 12.391 -37.78 12.391 -36.969 11.516 C-35.574 10.25 -35.574 10.25 -33.574 10.25 C-33.336 9.676 -33.097 9.103 -32.852 8.512 C-31.309 5.781 -29.494 4.125 -27.137 2.062 C-26.354 1.368 -25.572 0.673 -24.766 -0.043 C-17.888 -5.4 -7.373 -3.386 0 0 Z M-11.574 18.25 C-12.704 25.653 -10.199 31.25 -6.172 37.387 C-1.63 43.216 4.382 47.032 11.426 49.25 C14.913 48.979 16.877 48.611 19.801 46.688 C22.138 43.182 22.204 40.259 21.426 36.25 C18.616 28.092 13.56 21.33 6.121 16.867 C-0.421 13.717 -6.328 12.078 -11.574 18.25 Z " fill="#272D35" transform="translate(378.57421875,259.75)"/>
  <ns0:path d="M0 0 C6.302 0.765 11.226 2.896 16.831 5.797 C32.222 13.428 48.256 19.091 64.532 24.534 C74.033 27.757 74.033 27.757 77.081 30.235 C78.762 35.434 76.863 41.19 74.542 45.914 C72.222 49.598 69.362 52.676 66.362 55.817 C64.341 57.959 62.573 60.163 60.769 62.485 C54.93 69.101 47.127 72.345 38.456 73.235 C22.858 73.737 10.109 67.086 -1.106 56.61 C-9.424 48.008 -14.24 37.178 -14.044 25.172 C-13.123 17.054 -8.633 7.881 -3.548 1.52 C-1.919 0.235 -1.919 0.235 0 0 Z " fill="#14181C" transform="translate(115.9189453125,280.765380859375)"/>
  <ns0:path d="M0 0 C5.905 0.677 11.16 1.941 16.719 4.024 C17.932 4.463 17.932 4.463 19.17 4.911 C21.732 5.841 24.288 6.788 26.844 7.735 C28.524 8.346 30.205 8.957 31.887 9.567 C36.883 11.385 41.866 13.239 46.844 15.11 C47.701 15.431 48.559 15.753 49.442 16.085 C51.954 17.031 54.462 17.986 56.969 18.945 C57.733 19.234 58.498 19.523 59.285 19.82 C64.612 21.878 64.612 21.878 66.844 24.11 C67.978 32.993 67.394 40.901 61.844 48.11 C58.055 52.07 54.068 55.622 49.844 59.11 C49.154 59.682 48.464 60.254 47.754 60.844 C42.02 65.264 35.993 66.813 28.844 66.11 C14.974 62.829 2.68 54.238 -5.047 42.152 C-9.528 33.68 -13.269 23.249 -10.434 13.668 C-5.505 0.28 -5.505 0.28 0 0 Z " fill="#1A1E22" transform="translate(277.15625,340.8904724121094)"/>
  <ns0:path d="M0 0 C2.43 0.982 4.815 2.034 7.199 3.122 C8.107 3.524 9.014 3.925 9.949 4.339 C11.887 5.197 13.823 6.061 15.757 6.929 C18.618 8.211 21.487 9.473 24.359 10.728 C30.162 13.263 35.954 15.821 41.745 18.383 C43.884 19.329 46.023 20.274 48.163 21.218 C52.187 22.995 56.209 24.775 60.23 26.557 C61.816 27.259 63.402 27.96 64.988 28.66 C73.321 32.341 81.613 36.042 89.699 40.247 C89.699 41.567 89.699 42.887 89.699 44.247 C90.183 49.033 90.183 49.033 91.824 53.497 C92.113 54.075 92.402 54.652 92.699 55.247 C92.369 56.237 92.039 57.227 91.699 58.247 C90.585 57.583 89.472 56.919 88.324 56.235 C75.982 49.034 63.288 42.691 48.699 42.247 C47.441 42.165 46.183 42.082 44.887 41.997 C35.806 42.178 27.09 44.61 20.699 51.247 C18.18 54.47 15.885 57.79 13.699 61.247 C12.053 60.939 10.407 60.626 8.762 60.31 C7.845 60.136 6.929 59.962 5.984 59.782 C3.699 59.247 3.699 59.247 2.699 58.247 C2.122 51.178 4.317 46.178 7.262 39.935 C9.133 35.134 9.919 30.324 10.699 25.247 C9.482 24.876 8.265 24.505 7.012 24.122 C2.858 22.766 -0.946 20.991 -4.863 19.06 C-11.201 16.065 -15.504 14.981 -22.301 17.247 C-23.008 18.897 -23.666 20.568 -24.301 22.247 C-27.773 28.071 -27.773 28.071 -31.301 29.247 C-30.739 25.812 -29.924 23.19 -28.176 20.185 C-27.73 19.416 -27.284 18.648 -26.824 17.856 C-26.321 16.995 -25.819 16.134 -25.301 15.247 C-24.454 13.708 -24.454 13.708 -23.59 12.138 C-22.999 11.081 -22.409 10.024 -21.801 8.935 C-20.981 7.455 -20.981 7.455 -20.145 5.946 C-14.694 -2.033 -8.725 -2.855 0 0 Z " fill="#0058BB" transform="translate(144.30078125,132.7529296875)"/>
  <ns0:path d="M0 0 C6.132 -0.639 10.084 0.055 15.273 3.418 C19.389 7.189 20.67 11.675 21.875 17 C22.161 18.196 22.447 19.392 22.742 20.625 C23.049 24.643 22.504 25.901 20 29 C17.793 31.035 17.793 31.035 15.188 33.062 C10.683 36.637 6.285 40.299 1.938 44.062 C-2.778 48.13 -7.558 52.084 -12.445 55.945 C-15.487 58.392 -18.464 60.908 -21.438 63.438 C-26.221 67.505 -31.044 71.517 -35.914 75.48 C-39.077 78.063 -42.224 80.662 -45.371 83.263 C-56.426 92.394 -56.426 92.394 -61.25 96.25 C-62.186 97 -62.186 97 -63.141 97.766 C-67.405 100.597 -70.765 101.372 -75.871 100.539 C-79.568 99.603 -82.906 98.25 -86 96 C-87.5 93.25 -87.5 93.25 -88 91 C-87 90 -87 90 -83.797 89.75 C-79.174 88.837 -77.563 87.295 -74.25 84 C-73.206 82.987 -72.159 81.977 -71.109 80.969 C-70.589 80.465 -70.069 79.961 -69.533 79.441 C-67.29 77.332 -64.906 75.42 -62.5 73.5 C-58.524 70.301 -54.733 66.974 -51 63.5 C-46.412 59.231 -41.666 55.242 -36.781 51.312 C-33.76 48.8 -30.876 46.176 -28 43.5 C-22.528 38.416 -16.83 33.672 -11 29 C-8.955 27.358 -6.914 25.712 -4.875 24.062 C-3.51 22.966 -3.51 22.966 -2.117 21.848 C0.071 20.174 0.071 20.174 1 18 C1.185 13.462 1.185 13.462 0.5 9 C-0.249 6.006 -0.059 3.07 0 0 Z " fill="#888A8C" transform="translate(429,295)"/>
  <ns0:path d="M0 0 C6.779 0.287 12.269 3.175 18.312 6.062 C20.45 7.069 22.588 8.074 24.727 9.078 C25.783 9.575 26.839 10.072 27.927 10.584 C30.731 11.876 33.551 13.104 36.398 14.297 C37.62 14.813 37.62 14.813 38.866 15.34 C40.365 15.968 41.869 16.584 43.378 17.186 C49.329 19.709 52.601 22.832 55.273 28.883 C56.127 32.544 56.451 36.133 56.625 39.875 C56.683 40.908 56.683 40.908 56.742 41.961 C56.835 43.64 56.919 45.32 57 47 C50.605 46.519 45.768 44.884 40.004 42.141 C39.171 41.754 38.338 41.368 37.48 40.97 C35.727 40.155 33.976 39.334 32.228 38.509 C29.579 37.258 26.922 36.022 24.264 34.789 C22.552 33.99 20.84 33.191 19.129 32.391 C18.347 32.026 17.566 31.661 16.761 31.285 C12.811 29.417 8.909 27.472 5.054 25.413 C4.325 25.023 3.595 24.634 2.843 24.232 C1 23 1 23 -1 20 C-1.243 17.931 -1.243 17.931 -1.23 15.586 C-1.229 14.743 -1.227 13.9 -1.225 13.031 C-1.212 12.155 -1.2 11.278 -1.188 10.375 C-1.187 9.491 -1.186 8.606 -1.186 7.695 C-1.14 1.14 -1.14 1.14 0 0 Z " fill="#242232" transform="translate(264,158)"/>
  <ns0:path d="M0 0 C3.768 1.325 7.261 3.12 10.812 4.938 C13.043 6.043 15.273 7.149 17.504 8.254 C18.718 8.862 19.931 9.47 21.145 10.079 C27.404 13.209 33.712 16.241 40.011 19.29 C43.765 21.109 47.517 22.934 51.27 24.758 C52.752 25.478 54.235 26.199 55.717 26.919 C58.459 28.251 61.201 29.584 63.943 30.917 C76.599 37.068 89.278 43.155 102.06 49.039 C131.981 62.82 131.981 62.82 135 68 C135.188 70.75 135.188 70.75 135 73 C130.564 71.612 126.441 69.893 122.242 67.902 C121.595 67.597 120.947 67.291 120.28 66.976 C118.144 65.966 116.009 64.952 113.875 63.938 C112.354 63.218 110.833 62.498 109.311 61.779 C106.13 60.274 102.949 58.768 99.77 57.26 C95.235 55.11 90.696 52.968 86.156 50.828 C73.584 44.901 61.016 38.965 48.469 32.984 C46.684 32.135 44.9 31.285 43.116 30.435 C39.734 28.824 36.354 27.21 32.974 25.594 C25.077 21.826 17.155 18.112 9.18 14.512 C8.442 14.174 7.704 13.836 6.945 13.488 C0.247 10.495 -5.403 9.07 -12.625 10.938 C-13.409 11.288 -14.192 11.639 -15 12 C-15.312 9.312 -15.312 9.312 -15 6 C-10.483 0.651 -6.956 -0.983 0 0 Z " fill="#737576" transform="translate(258,133)"/>
  <ns0:path d="M0 0 C6.154 0.503 11.119 3.243 16.562 5.938 C18.612 6.94 20.661 7.941 22.711 8.941 C24.271 9.705 24.271 9.705 25.862 10.485 C28.905 11.954 31.965 13.374 35.039 14.777 C35.99 15.215 36.94 15.653 37.92 16.104 C39.725 16.933 41.534 17.753 43.348 18.562 C52.479 22.798 54.917 28.532 58.312 37.688 C58.684 38.65 59.056 39.612 59.439 40.604 C61.438 45.906 61.438 45.906 62 48 C61.505 48.99 61.505 48.99 61 50 C55.112 48.145 49.486 46.012 43.887 43.418 C43.151 43.081 42.415 42.745 41.657 42.398 C40.113 41.69 38.569 40.98 37.027 40.267 C34.706 39.196 32.381 38.132 30.057 37.068 C26.367 35.377 22.686 33.669 19.012 31.944 C17.712 31.334 16.411 30.727 15.109 30.122 C13.428 29.339 11.755 28.539 10.082 27.738 C9.163 27.302 8.243 26.865 7.296 26.415 C3.728 24.216 2.27 22.09 1.27 18.047 C0.427 11.971 -0.241 6.135 0 0 Z " fill="#252435" transform="translate(342,193)"/>
  <ns0:path d="M0 0 C7.556 0.92 13.574 4.614 18.434 10.418 C18.96 10.993 19.485 11.568 20.027 12.16 C24.335 17.22 25.925 21.742 25.434 28.418 C24.301 31.757 23.631 33.683 20.602 35.543 C15.513 37.597 10.509 37.144 5.395 35.355 C-2.654 31.606 -11.038 25.929 -14.566 17.418 C-15.58 13.068 -16.125 9.703 -14.316 5.543 C-13.739 4.842 -13.161 4.14 -12.566 3.418 C-11.957 2.625 -11.957 2.625 -11.336 1.816 C-8.021 -0.804 -4.052 -0.095 0 0 Z " fill="#8A8D92" transform="translate(209.56640625,201.58203125)"/>
  <ns0:path d="M0 0 C7.667 3.243 14.366 10.107 18 17.562 C19.234 21.804 19.505 24.596 19 29 C16.993 32.01 15.703 32.81 12.223 33.75 C5.707 34.255 -0.348 30.26 -5.191 26.133 C-10.26 20.681 -14.031 14.227 -14.562 6.688 C-14 3 -14 3 -12.062 0.438 C-7.714 -1.604 -4.569 -1.295 0 0 Z " fill="#8A8C8F" transform="translate(381,275)"/>
  <ns0:path d="M0 0 C4.114 0.466 6.959 1.59 10.66 3.422 C12.375 4.257 12.375 4.257 14.125 5.109 C15.411 5.759 15.411 5.759 16.723 6.422 C16.441 8.382 16.147 10.34 15.848 12.297 C15.685 13.387 15.523 14.478 15.355 15.602 C14.723 18.422 14.723 18.422 12.723 20.422 C11.816 20.012 10.91 19.602 9.977 19.18 C3.315 16.216 -3.05 13.668 -10.277 12.422 C-9.649 9.176 -8.532 6.886 -6.652 4.172 C-6.186 3.465 -5.719 2.759 -5.238 2.031 C-3.277 0.422 -3.277 0.422 0 0 Z " fill="#EA9C08" transform="translate(128.27734375,147.578125)"/>
  <ns0:path d="M0 0 C3.124 3.471 4.084 6.853 4.25 11.5 C2.94 14.579 1.595 16.155 -0.75 18.5 C-2.07 18.5 -3.39 18.5 -4.75 18.5 C-6.5 16.5 -6.5 16.5 -7.75 14.5 C-9.73 15.16 -11.71 15.82 -13.75 16.5 C-16.477 13.887 -17.035 11.715 -17.188 8.062 C-17.072 4.712 -16.748 3.497 -15 0.5 C-10.257 -3.716 -5.434 -2.964 0 0 Z " fill="#7C7D81" transform="translate(166.75,115.5)"/>
  <ns0:path d="M0 0 C6.806 0.447 12.215 3.15 18.312 6.062 C20.447 7.065 22.583 8.066 24.719 9.066 C25.774 9.563 26.83 10.059 27.918 10.571 C33.084 12.967 38.31 15.228 43.554 17.449 C50.129 20.305 50.129 20.305 52 23 C52 23.99 52 24.98 52 26 C47.811 24.686 43.939 23.105 40 21.172 C38.308 20.347 38.308 20.347 36.581 19.505 C34.808 18.636 34.808 18.636 33 17.75 C16.336 9.576 16.336 9.576 -1 3 C-0.67 2.01 -0.34 1.02 0 0 Z " fill="#0B0913" transform="translate(264,158)"/>
  <ns0:path d="M0 0 C6.155 0.503 11.118 3.244 16.562 5.938 C18.609 6.935 20.656 7.933 22.703 8.93 C23.743 9.439 24.782 9.947 25.854 10.472 C28.928 11.965 32.015 13.43 35.109 14.883 C36.069 15.334 37.029 15.785 38.017 16.25 C39.852 17.111 41.687 17.97 43.524 18.826 C44.759 19.409 44.759 19.409 46.02 20.004 C47.104 20.512 47.104 20.512 48.21 21.03 C50 22 50 22 52 24 C52 24.99 52 25.98 52 27 C47.278 25.537 42.855 23.634 38.398 21.516 C37.681 21.178 36.963 20.839 36.224 20.491 C34.708 19.777 33.194 19.06 31.68 18.343 C29.404 17.264 27.126 16.19 24.848 15.117 C16.51 11.184 8.221 7.173 0 3 C0 2.01 0 1.02 0 0 Z " fill="#0A0A15" transform="translate(342,193)"/>
  <ns0:path d="M0 0 C7.708 1.865 19.196 5.196 25 11 C25.141 13.671 25.042 16.324 25 19 C19.398 18.413 14.815 16.37 9.75 14.062 C8.935 13.702 8.121 13.342 7.281 12.971 C1.268 10.268 1.268 10.268 -1 8 C-1.188 4.438 -1.188 4.438 -1 1 C-0.67 0.67 -0.34 0.34 0 0 Z " fill="#00A3D8" transform="translate(295,201)"/>
  <ns0:path d="M0 0 C4.309 0.718 7.163 1.307 11 3 C10.548 8.915 9.842 14.352 8 20 C7.01 20 6.02 20 5 20 C3.625 18.367 2.294 16.698 1 15 C0.01 14.34 -0.98 13.68 -2 13 C-1.34 8.71 -0.68 4.42 0 0 Z " fill="#EBEEEF" transform="translate(144,155)"/>
  <ns0:path d="M0 0 C4.55 0.565 8.093 1.763 12.188 3.812 C13.212 4.314 14.237 4.815 15.293 5.332 C18.016 7.01 19.42 8.244 21 11 C21.188 14.25 21.188 14.25 21 17 C14.08 16.454 7.968 13.172 2.438 9.125 C0.449 6.186 0.269 3.491 0 0 Z " fill="#00A3E7" transform="translate(390,245)"/>
  <ns0:path d="M0 0 C5.75 0.875 5.75 0.875 8 2 C8.805 4.462 9.496 6.868 10.125 9.375 C10.307 10.061 10.489 10.747 10.676 11.453 C11.433 14.381 12 16.963 12 20 C8.265 19.502 6.188 19.125 3 17 C2.051 14.355 2.051 14.355 1.312 11.188 C1.061 10.15 0.81 9.112 0.551 8.043 C0.05 5.274 -0.109 2.803 0 0 Z " fill="#F0F3F3" transform="translate(418,275)"/>
  <ns0:path d="M0 0 C2.75 0.312 2.75 0.312 6 2 C8.563 6.854 10 11.513 10 17 C7.69 16.67 5.38 16.34 3 16 C2.305 13.523 1.619 11.043 0.938 8.562 C0.639 7.502 0.639 7.502 0.334 6.42 C-0.156 4.625 -0.583 2.813 -1 1 C-0.67 0.67 -0.34 0.34 0 0 Z " fill="#F7A90B" transform="translate(427,278)"/>
  <ns0:path d="M0 0 C1.239 3.718 0.57 5.439 -0.438 9.188 C-0.725 10.274 -1.012 11.361 -1.309 12.48 C-1.651 13.728 -1.651 13.728 -2 15 C-5.01 15.934 -5.867 16.044 -9 15 C-8.399 10.993 -6.334 8.445 -3.938 5.25 C-2.837 3.773 -2.837 3.773 -1.715 2.266 C-1.149 1.518 -0.583 0.77 0 0 Z " fill="#151D31" transform="translate(236,155)"/>
  <ns0:path d="M0 0 C2.248 2.052 3.002 3.007 4 6 C3.062 8.688 3.062 8.688 2 11 C-3.875 9.125 -3.875 9.125 -5 8 C-5.375 5.625 -5.375 5.625 -5 3 C-2.5 1.188 -2.5 1.188 0 0 Z " fill="#2A2F33" transform="translate(159,129)"/>
  <ns0:path d="M0 0 C0.426 5.537 -1.095 9.897 -3 15 C-5.405 12.595 -5.296 11.918 -5.312 8.625 C-5.249 5.577 -5.091 4.17 -3.625 1.438 C-2 0 -2 0 0 0 Z " fill="#ABACAE" transform="translate(155,115)"/>
  <ns0:path d="M0 0 C4.999 0.476 7.978 2.032 12 5 C8.571 6.188 6.622 5.802 3.25 4.562 C2.451 4.275 1.652 3.988 0.828 3.691 C0.225 3.463 -0.378 3.235 -1 3 C-0.67 2.01 -0.34 1.02 0 0 Z " fill="#011023" transform="translate(85,291)"/>
  <ns0:path d="M0 0 C1.32 0 2.64 0 4 0 C4 0.66 4 1.32 4 2 C5.65 2 7.3 2 9 2 C9.33 2.99 9.66 3.98 10 5 C2.429 3.143 2.429 3.143 0 0 Z " fill="#0091D9" transform="translate(395,255)"/>
  <ns0:path d="M0 0 C2.97 0.495 2.97 0.495 6 1 C5.01 1.33 4.02 1.66 3 2 C2.01 1.34 1.02 0.68 0 0 Z " fill="#000C19" transform="translate(193,331)"/>
  <ns0:path d="M0 0 C2.475 0.495 2.475 0.495 5 1 C4.01 1.33 3.02 1.66 2 2 C1.34 1.34 0.68 0.68 0 0 Z " fill="#000811" transform="translate(245,349)"/>
  <ns0:path d="M0 0 C2.475 0.495 2.475 0.495 5 1 C4.01 1.33 3.02 1.66 2 2 C1.34 1.34 0.68 0.68 0 0 Z " fill="#00070F" transform="translate(228,343)"/>
  <ns0:path d="M0 0 C4 1 4 1 4 1 Z " fill="#B79F71" transform="translate(430,294)"/>
  <ns0:path d="M0 0 C2 1 2 1 2 1 Z " fill="#295A92" transform="translate(112,162)"/>
  <ns0:path d="M0 0 C2 1 2 1 2 1 Z " fill="#4B78AA" transform="translate(114,161)"/>
  <ns0:path d="M0 0 C5.75 0.75 5.75 0.75 8 3 C2.25 2.25 2.25 2.25 0 0 Z " fill="#000912" transform="translate(208,336)"/>
  <ns0:path d="M0 0 C3 1 3 1 3 1 Z " fill="#000810" transform="translate(253,352)"/>
  <ns0:path d="M0 0 C3 1 3 1 3 1 Z " fill="#000B17" transform="translate(250,351)"/>
  <ns0:path d="M0 0 C3 1 3 1 3 1 Z " fill="#00050A" transform="translate(242,348)"/>
  <ns0:path d="M0 0 C3 1 3 1 3 1 Z " fill="#00060D" transform="translate(239,347)"/>
  <ns0:path d="M0 0 C3 1 3 1 3 1 Z " fill="#000912" transform="translate(236,346)"/>
  <ns0:path d="M0 0 C3 1 3 1 3 1 Z " fill="#000A15" transform="translate(233,345)"/>
  <ns0:path d="M0 0 C3 1 3 1 3 1 Z " fill="#00040A" transform="translate(225,342)"/>
  <ns0:path d="M0 0 C3 1 3 1 3 1 Z " fill="#00060E" transform="translate(222,341)"/>
  <ns0:path d="M0 0 C3 1 3 1 3 1 Z " fill="#000B17" transform="translate(219,340)"/>
  <ns0:path d="M0 0 C3 1 3 1 3 1 Z " fill="#000A14" transform="translate(216,339)"/>
  <ns0:path d="M0 0 C3 1 3 1 3 1 Z " fill="#00060D" transform="translate(205,335)"/>
  <ns0:path d="M0 0 C3 1 3 1 3 1 Z " fill="#00050C" transform="translate(202,334)"/>
  <ns0:path d="M0 0 C3 1 3 1 3 1 Z " fill="#00070F" transform="translate(199,333)"/>
  <ns0:path d="M0 0 C3 1 3 1 3 1 Z " fill="#001021" transform="translate(190,330)"/>
  <ns0:path d="M0 0 C2 1 2 1 2 1 Z " fill="#000F1E" transform="translate(258,354)"/>
  <ns0:path d="M0 0 C2 1 2 1 2 1 Z " fill="#000811" transform="translate(256,353)"/>
</svg>