<?xml version="1.0" ?>
<svg xmlns:ns0="http://www.w3.org/2000/svg" xmlns="http://www.w3.org/2000/svg" width="512" height="512" viewBox="0 0 512 512" style="background-color: transparent;">
  <ns0:path d="M0 0 C0.924 0.014 1.848 0.029 2.8 0.044 C9.735 0.312 15.197 2.119 20.296 6.943 C24.885 14.591 26.115 23.676 27.761 32.318 C28.016 33.635 28.271 34.953 28.526 36.27 C29.06 39.029 29.59 41.789 30.117 44.55 C30.777 48.008 31.445 51.464 32.117 54.92 C34.718 68.316 37.226 81.724 39.425 95.193 C39.601 96.254 39.777 97.314 39.958 98.407 C40.11 99.366 40.262 100.326 40.419 101.314 C40.553 102.152 40.688 102.991 40.826 103.855 C40.904 104.796 40.904 104.796 40.983 105.755 C39.983 106.755 39.983 106.755 37.759 106.869 C36.321 106.861 36.321 106.861 34.854 106.853 C33.923 106.851 32.992 106.848 32.032 106.845 C30.84 106.836 29.649 106.827 28.421 106.818 C24.647 106.797 20.872 106.777 16.983 106.755 C17.313 115.665 17.643 124.575 17.983 133.755 C16.003 134.745 16.003 134.745 13.983 135.755 C13.178 137.805 13.178 137.805 12.983 139.755 C12.711 138.903 12.711 138.903 12.433 138.033 C8.532 126.05 3.507 115.724 -7.329 108.568 C-8.216 107.97 -9.103 107.372 -10.017 106.755 C-10.017 106.095 -10.017 105.435 -10.017 104.755 C-10.727 104.632 -11.437 104.508 -12.169 104.38 C-15.104 103.736 -17.77 102.818 -20.579 101.755 C-33.584 96.849 -47.179 97.378 -60.017 102.755 C-67.005 105.995 -74.685 110.259 -79.017 116.755 C-79.677 116.755 -80.337 116.755 -81.017 116.755 C-81.357 117.714 -81.357 117.714 -81.704 118.693 C-83.017 121.755 -83.017 121.755 -84.122 123.388 C-89.175 131.068 -90.117 140.046 -91.615 148.949 C-92.017 150.755 -92.017 150.755 -93.017 151.755 C-95.689 151.856 -98.336 151.892 -101.009 151.885 C-102.265 151.887 -102.265 151.887 -103.546 151.89 C-106.328 151.894 -109.11 151.892 -111.892 151.888 C-113.816 151.889 -115.74 151.89 -117.665 151.891 C-121.703 151.893 -125.742 151.89 -129.78 151.886 C-134.969 151.88 -140.158 151.883 -145.347 151.889 C-149.323 151.893 -153.298 151.892 -157.273 151.889 C-159.187 151.889 -161.101 151.889 -163.015 151.892 C-165.685 151.894 -168.354 151.89 -171.024 151.885 C-171.823 151.887 -172.622 151.889 -173.446 151.891 C-178.902 151.87 -178.902 151.87 -180.017 150.755 C-180.299 149.304 -180.532 147.844 -180.743 146.38 C-182.474 133.266 -182.474 133.266 -189.431 122.376 C-191.147 120.622 -191.93 118.937 -193.017 116.755 C-194.474 115.492 -195.937 114.233 -197.454 113.041 C-199.017 111.755 -199.017 111.755 -201.329 109.255 C-210.174 101.027 -222.539 98.167 -234.392 97.591 C-242.718 98.056 -252.033 100.1 -259.017 104.755 C-260.007 104.755 -260.997 104.755 -262.017 104.755 C-262.017 105.415 -262.017 106.075 -262.017 106.755 C-266.401 109.755 -266.401 109.755 -269.017 109.755 C-269.017 110.415 -269.017 111.075 -269.017 111.755 C-270.337 112.912 -270.337 112.912 -272.142 114.255 C-276.11 117.499 -278.319 121.217 -280.755 125.681 C-282.017 127.755 -282.017 127.755 -284.017 128.755 C-284.938 131.481 -285.756 134.172 -286.517 136.943 C-290.585 151.404 -290.585 151.404 -292.704 153.13 C-295.017 153.755 -295.017 153.755 -302.017 153.755 C-302.347 147.815 -302.677 141.875 -303.017 135.755 C-304.997 135.095 -306.977 134.435 -309.017 133.755 C-305.372 131.326 -303.304 131.594 -299.017 131.755 C-299.028 130.465 -299.04 129.175 -299.052 127.845 C-299.061 126.128 -299.07 124.41 -299.079 122.693 C-299.087 121.845 -299.096 120.998 -299.104 120.125 C-299.123 115.219 -298.85 110.591 -298.017 105.755 C-299.228 105.763 -299.228 105.763 -300.463 105.771 C-304.106 105.792 -307.749 105.805 -311.392 105.818 C-312.663 105.826 -313.934 105.835 -315.243 105.843 C-316.455 105.846 -317.667 105.85 -318.915 105.853 C-320.596 105.861 -320.596 105.861 -322.311 105.869 C-325.017 105.755 -325.017 105.755 -327.017 104.755 C-327.075 101.401 -327.11 98.047 -327.142 94.693 C-327.158 93.75 -327.175 92.807 -327.192 91.835 C-327.278 79.591 -327.278 79.591 -323.306 74.611 C-320.424 72.275 -318.827 72.168 -315.142 72.005 C-313.891 71.95 -312.641 71.895 -311.353 71.837 C-303.591 71.659 -295.83 71.688 -288.067 71.737 C-269.71 71.847 -251.369 71.689 -233.017 71.255 C-232 71.231 -230.984 71.207 -229.937 71.183 C-224.296 71.048 -218.656 70.905 -213.017 70.755 C-211.476 64.945 -210.368 59.184 -209.466 53.244 C-209.177 51.415 -208.887 49.586 -208.597 47.757 C-208.149 44.919 -207.706 42.081 -207.275 39.241 C-202.75 9.6 -202.75 9.6 -193.763 2.708 C-189.702 0.492 -185.645 0.619 -181.091 0.59 C-180.394 0.585 -179.697 0.579 -178.979 0.573 C-176.643 0.556 -174.307 0.545 -171.971 0.534 C-170.295 0.523 -168.619 0.511 -166.943 0.499 C-162.384 0.468 -157.825 0.443 -153.266 0.419 C-149.445 0.399 -145.625 0.375 -141.805 0.352 C-132.767 0.296 -123.73 0.245 -114.692 0.198 C-105.425 0.149 -96.157 0.093 -86.889 0.032 C-78.901 -0.019 -70.912 -0.067 -62.924 -0.11 C-58.168 -0.136 -53.412 -0.164 -48.656 -0.196 C-14.769 -0.418 -14.769 -0.418 0 0 Z M-180.017 24.755 C-180.424 27.942 -180.424 27.942 -180.501 31.705 C-180.525 32.395 -180.549 33.086 -180.574 33.798 C-180.622 35.263 -180.666 36.728 -180.705 38.194 C-180.766 40.417 -180.849 42.64 -180.935 44.863 C-180.979 46.289 -181.022 47.716 -181.063 49.142 C-181.103 50.433 -181.143 51.725 -181.184 53.055 C-181.002 57.073 -180.385 59.991 -179.017 63.755 C-176.207 65.16 -173.845 64.914 -170.703 64.948 C-170.055 64.956 -169.408 64.965 -168.741 64.973 C-166.596 64.998 -164.451 65.014 -162.306 65.029 C-161.573 65.034 -160.841 65.039 -160.086 65.045 C-156.211 65.072 -152.335 65.091 -148.46 65.105 C-144.456 65.122 -140.452 65.167 -136.449 65.218 C-133.371 65.251 -130.293 65.263 -127.214 65.269 C-125.738 65.275 -124.262 65.291 -122.787 65.315 C-120.72 65.346 -118.656 65.346 -116.589 65.339 C-115.414 65.347 -114.239 65.355 -113.028 65.363 C-109.832 65.006 -109.832 65.006 -107.644 62.392 C-105.77 59.356 -105.43 57.489 -105.267 53.943 C-105.214 52.811 -105.161 51.679 -105.106 50.513 C-105.062 48.653 -105.062 48.653 -105.017 46.755 C-104.986 45.732 -104.986 45.732 -104.955 44.688 C-104.194 32.847 -104.194 32.847 -108.954 22.443 C-112.348 19.666 -115.248 19.624 -119.479 19.594 C-120.597 19.585 -121.715 19.575 -122.867 19.565 C-124.077 19.561 -125.286 19.557 -126.532 19.552 C-128.399 19.544 -128.399 19.544 -130.303 19.535 C-132.939 19.526 -135.575 19.519 -138.211 19.515 C-140.908 19.511 -143.604 19.497 -146.3 19.474 C-150.19 19.444 -154.08 19.433 -157.97 19.427 C-159.171 19.415 -160.372 19.403 -161.61 19.39 C-168.732 19.409 -174.715 19.454 -180.017 24.755 Z M-74.907 21.048 C-76.858 24.049 -76.442 27.536 -76.415 31.001 C-76.418 31.809 -76.421 32.617 -76.424 33.449 C-76.426 35.156 -76.42 36.863 -76.408 38.57 C-76.392 41.18 -76.408 43.788 -76.427 46.398 C-76.425 48.057 -76.421 49.717 -76.415 51.376 C-76.421 52.156 -76.427 52.935 -76.433 53.738 C-76.394 56.808 -76.178 59.368 -74.992 62.217 C-68.848 67.003 -57.271 64.919 -49.755 64.923 C-48.276 64.927 -46.797 64.93 -45.319 64.933 C-42.233 64.939 -39.148 64.941 -36.062 64.941 C-32.115 64.941 -28.167 64.954 -24.22 64.971 C-21.172 64.983 -18.124 64.985 -15.076 64.984 C-13.62 64.985 -12.164 64.99 -10.709 64.997 C-8.675 65.007 -6.641 65.003 -4.608 64.998 C-2.875 65 -2.875 65 -1.108 65.003 C2.023 64.752 4.21 64.214 6.983 62.755 C9.067 57.164 7.418 50.715 6.733 44.943 C6.611 43.792 6.488 42.642 6.362 41.457 C5.252 29.98 5.252 29.98 -1.017 20.755 C-4.422 19.62 -7.052 19.615 -10.644 19.594 C-11.312 19.589 -11.981 19.584 -12.67 19.579 C-14.879 19.565 -17.088 19.558 -19.298 19.552 C-20.833 19.546 -22.369 19.541 -23.904 19.535 C-27.122 19.524 -30.34 19.519 -33.558 19.515 C-37.684 19.51 -41.81 19.486 -45.936 19.457 C-49.107 19.439 -52.277 19.433 -55.448 19.432 C-56.97 19.429 -58.491 19.421 -60.013 19.408 C-62.139 19.391 -64.264 19.392 -66.39 19.399 C-67.6 19.395 -68.81 19.392 -70.057 19.388 C-72.985 19.522 -72.985 19.522 -74.907 21.048 Z M-142.017 76.755 C-143.193 79.109 -143.183 80.636 -143.204 83.255 C-143.218 84.049 -143.232 84.843 -143.247 85.662 C-143.213 87.976 -143.213 87.976 -141.017 89.755 C-138.038 90.068 -138.038 90.068 -134.548 90.021 C-133.255 90.024 -131.962 90.026 -130.63 90.029 C-129.618 90.023 -129.618 90.023 -128.585 90.016 C-126.524 90.005 -124.464 90.016 -122.403 90.029 C-121.11 90.026 -119.817 90.024 -118.485 90.021 C-117.294 90.019 -116.102 90.016 -114.874 90.014 C-111.885 90.051 -111.885 90.051 -110.017 87.755 C-109.697 85.156 -109.697 85.156 -109.767 82.255 C-109.761 81.276 -109.756 80.296 -109.751 79.287 C-109.766 76.586 -109.766 76.586 -112.017 74.755 C-114.669 74.444 -114.669 74.444 -117.759 74.49 C-118.907 74.487 -120.056 74.485 -121.239 74.482 C-123.047 74.494 -123.047 74.494 -124.892 74.505 C-126.688 74.494 -126.688 74.494 -128.521 74.482 C-129.672 74.485 -130.823 74.487 -132.009 74.49 C-133.592 74.493 -133.592 74.493 -135.208 74.497 C-138.023 74.756 -139.668 75.212 -142.017 76.755 Z M-14.017 75.755 C-16.057 78.816 -16.333 79.69 -16.392 83.193 C-16.42 83.955 -16.448 84.717 -16.478 85.501 C-16.124 87.853 -16.124 87.853 -14.688 90.013 C-10.366 92.831 -5.931 92.293 -0.892 92.193 C0.63 92.204 0.63 92.204 2.183 92.214 C6.105 92.216 6.105 92.216 9.983 91.755 C12.024 88.695 12.299 87.82 12.358 84.318 C12.401 83.175 12.401 83.175 12.444 82.009 C12.09 79.658 12.09 79.658 10.655 77.498 C6.333 74.679 1.897 75.218 -3.142 75.318 C-4.663 75.307 -4.663 75.307 -6.216 75.296 C-10.138 75.294 -10.138 75.294 -14.017 75.755 Z " fill="#005ABA" transform="translate(398.0166015625,168.24462890625)"/>
  <ns0:path d="M0 0 C4.244 3.395 8.359 7.098 11.875 11.25 C11.875 11.91 11.875 12.57 11.875 13.25 C12.535 13.25 13.195 13.25 13.875 13.25 C15.531 14.973 15.531 14.973 17.375 17.312 C17.983 18.067 18.592 18.821 19.219 19.598 C21.194 22.76 22.009 25.629 22.875 29.25 C23.139 30.326 23.404 31.403 23.676 32.512 C25.735 46.297 18.407 56.383 10.746 67.277 C3.737 75.837 -7.156 82.476 -18.125 84.25 C-33.372 85.156 -44.153 82.369 -56.164 72.59 C-64.69 64.646 -69.781 54.301 -70.441 42.711 C-70.735 34.228 -70.954 26.554 -66.125 19.25 C-65.689 18.509 -65.254 17.768 -64.805 17.004 C-57.966 5.924 -47.941 -2.899 -35.156 -6.277 C-22.33 -8.277 -10.821 -7.617 0 0 Z M-40 23.062 C-44.388 29.644 -46.375 35.386 -45.125 43.25 C-42.459 50.897 -38.998 55.164 -31.875 59 C-25.244 61.21 -20.289 61.075 -13.875 58.188 C-8.24 55.046 -5.252 51.844 -3.316 45.672 C-1.712 38.539 -1.786 32.546 -5.32 26.055 C-8.657 21.113 -12.339 17.894 -18.125 16.25 C-26.234 14.992 -34.367 16.791 -40 23.062 Z " fill="#282F37" transform="translate(188.125,286.75)"/>
  <ns0:path d="M0 0 C2.569 1.98 4.982 4.058 7.387 6.234 C8.11 6.853 8.833 7.472 9.578 8.109 C16.602 14.507 20.954 23.089 23.387 32.234 C23.861 47.193 20.119 59.709 9.949 70.922 C9.104 71.685 8.258 72.448 7.387 73.234 C6.898 73.715 6.41 74.196 5.906 74.691 C-3.563 83.576 -14.658 85.815 -27.203 85.578 C-36.682 85.089 -44.607 80.357 -51.613 74.234 C-52.206 73.757 -52.799 73.28 -53.41 72.789 C-61.533 65.637 -66.46 54.043 -67.261 43.417 C-68.092 29.852 -65.757 21.242 -57.613 10.234 C-56.747 8.935 -56.747 8.935 -55.863 7.609 C-42.046 -6.975 -17.049 -11.519 0 0 Z M-38.051 25.172 C-42.246 30.594 -42.96 37.967 -42.418 44.641 C-41.105 50.845 -38.121 55.425 -32.988 59.047 C-27.744 62.059 -22.404 62.89 -16.445 61.859 C-10.251 59.942 -5.584 55.825 -2.477 50.164 C0.138 43.562 0.149 36.524 -2.559 29.934 C-5.812 24.214 -10.308 20.336 -16.613 18.234 C-24.839 17.227 -32.059 19.325 -38.051 25.172 Z " fill="#293038" transform="translate(381.61328125,285.765625)"/>
  <ns0:path d="M0 0 C0.665 -0.005 1.331 -0.011 2.016 -0.016 C4.216 -0.029 6.416 -0.02 8.616 -0.01 C10.146 -0.012 11.677 -0.015 13.208 -0.019 C16.418 -0.023 19.627 -0.017 22.836 -0.003 C26.945 0.014 31.052 0.004 35.16 -0.014 C38.322 -0.025 41.484 -0.021 44.647 -0.013 C46.161 -0.011 47.675 -0.014 49.189 -0.021 C51.31 -0.028 53.43 -0.017 55.551 0 C56.756 0.002 57.962 0.005 59.204 0.007 C62.72 0.426 64.581 1.294 67.405 3.388 C70.309 7.156 70.941 10.462 71.467 15.138 C71.618 16.449 71.769 17.76 71.924 19.111 C72 19.803 72.075 20.496 72.153 21.209 C72.416 23.481 72.724 25.744 73.042 28.009 C73.246 29.531 73.451 31.054 73.655 32.576 C73.759 33.294 73.864 34.012 73.971 34.752 C74.34 37.644 74.519 39.995 73.702 42.814 C71.994 44.887 71.047 44.925 68.405 45.388 C66.145 45.486 63.882 45.526 61.62 45.533 C60.946 45.537 60.273 45.54 59.579 45.544 C57.357 45.553 55.135 45.555 52.913 45.556 C51.363 45.559 49.814 45.563 48.265 45.566 C45.018 45.572 41.772 45.574 38.525 45.573 C34.374 45.573 30.222 45.587 26.071 45.604 C22.871 45.615 19.671 45.617 16.471 45.617 C14.941 45.618 13.411 45.622 11.881 45.63 C9.736 45.64 7.592 45.637 5.448 45.631 C3.621 45.633 3.621 45.633 1.757 45.635 C-1.723 45.379 -4.4 44.784 -7.595 43.388 C-10.127 39.59 -9.901 36.509 -9.896 32.107 C-9.9 31.297 -9.905 30.487 -9.909 29.653 C-9.915 27.941 -9.915 26.23 -9.911 24.519 C-9.908 21.898 -9.931 19.278 -9.957 16.658 C-9.959 14.995 -9.96 13.332 -9.958 11.669 C-9.972 10.493 -9.972 10.493 -9.986 9.292 C-9.941 3.919 -9.941 3.919 -8.484 1.682 C-5.671 -0.245 -3.386 0.007 0 0 Z " fill="#252434" transform="translate(331.59521484375,187.61181640625)"/>
  <ns0:path d="M0 0 C1.125 -0.01 2.249 -0.019 3.408 -0.029 C4.619 -0.033 5.829 -0.038 7.076 -0.042 C8.948 -0.051 8.948 -0.051 10.857 -0.059 C13.496 -0.069 16.134 -0.076 18.773 -0.079 C22.147 -0.085 25.52 -0.109 28.894 -0.137 C32.121 -0.16 35.349 -0.162 38.576 -0.167 C39.785 -0.179 40.993 -0.192 42.238 -0.204 C43.366 -0.201 44.494 -0.198 45.656 -0.195 C46.646 -0.199 47.635 -0.203 48.655 -0.206 C52.997 0.376 56.717 2.683 59.393 6.161 C61.743 14.951 60.576 25.307 60.143 34.349 C60.096 35.353 60.05 36.357 60.002 37.392 C59.215 40.971 57.985 42.576 55.393 45.161 C52.388 45.783 52.388 45.783 48.836 45.776 C48.187 45.782 47.537 45.787 46.868 45.793 C44.729 45.805 42.591 45.781 40.451 45.755 C38.962 45.753 37.473 45.753 35.984 45.755 C32.866 45.753 29.748 45.735 26.63 45.703 C22.633 45.663 18.637 45.659 14.639 45.667 C11.565 45.67 8.492 45.658 5.418 45.64 C3.944 45.633 2.47 45.63 0.996 45.631 C-1.063 45.629 -3.121 45.608 -5.18 45.581 C-6.937 45.568 -6.937 45.568 -8.73 45.556 C-11.607 45.161 -11.607 45.161 -13.466 43.806 C-17.356 38.199 -15.696 29.236 -15.53 22.684 C-15.498 21.249 -15.477 19.813 -15.467 18.378 C-15.451 16.291 -15.404 14.208 -15.349 12.122 C-15.327 10.882 -15.305 9.643 -15.282 8.366 C-14.607 5.161 -14.607 5.161 -12.311 2.789 C-8.166 0.294 -4.797 0.033 0 0 Z " fill="#242232" transform="translate(232.607177734375,187.8388671875)"/>
  <ns0:path d="M0 0 C0.789 -0.002 1.578 -0.005 2.391 -0.007 C5.03 -0.013 7.67 -0.012 10.31 -0.012 C12.205 -0.015 14.099 -0.018 15.993 -0.022 C21.135 -0.031 26.278 -0.033 31.42 -0.034 C35.712 -0.034 40.004 -0.038 44.296 -0.042 C54.419 -0.05 64.543 -0.052 74.666 -0.052 C85.114 -0.051 95.562 -0.062 106.01 -0.077 C114.978 -0.09 123.947 -0.096 132.915 -0.095 C138.272 -0.095 143.629 -0.098 148.987 -0.108 C154.023 -0.118 159.059 -0.118 164.096 -0.111 C165.945 -0.11 167.794 -0.112 169.643 -0.118 C172.166 -0.126 174.688 -0.121 177.211 -0.114 C178.31 -0.121 178.31 -0.121 179.432 -0.129 C183.43 -0.102 186.504 0.367 190.105 2.134 C190.186 3.925 190.244 5.717 190.293 7.509 C190.328 8.506 190.362 9.504 190.398 10.532 C190.302 11.391 190.205 12.249 190.105 13.134 C186.498 15.539 184.757 15.373 180.48 15.321 C179.312 15.315 178.145 15.308 176.941 15.302 C174.105 15.134 174.105 15.134 173.105 14.134 C170.105 13.967 170.105 13.967 167.105 14.134 C166.775 14.464 166.445 14.794 166.105 15.134 C164.67 15.233 163.231 15.262 161.792 15.263 C160.851 15.266 159.91 15.269 158.94 15.273 C157.361 15.27 157.361 15.27 155.75 15.267 C154.629 15.268 153.509 15.269 152.354 15.271 C148.542 15.272 144.73 15.266 140.918 15.259 C138.914 15.257 136.911 15.256 134.907 15.255 C93.305 15.218 51.704 14.635 10.105 14.134 C10.105 13.474 10.105 12.814 10.105 12.134 C7.795 12.134 5.485 12.134 3.105 12.134 C3.105 12.794 3.105 13.454 3.105 14.134 C0.647 14.161 -1.811 14.181 -4.27 14.196 C-4.968 14.205 -5.667 14.213 -6.387 14.222 C-11.668 14.247 -11.668 14.247 -13.895 13.134 C-15.068 9.613 -15.096 6.827 -14.895 3.134 C-10.934 -0.826 -5.301 -0.011 0 0 Z " fill="#747576" transform="translate(221.8946533203125,139.8662872314453)"/>
  <ns0:path d="M0 0 C20.192 -0.023 40.384 -0.041 60.577 -0.052 C69.952 -0.057 79.326 -0.064 88.701 -0.075 C96.87 -0.085 105.038 -0.092 113.206 -0.094 C117.534 -0.095 121.861 -0.098 126.189 -0.106 C130.257 -0.112 134.326 -0.115 138.395 -0.113 C139.892 -0.113 141.39 -0.115 142.888 -0.119 C144.924 -0.124 146.959 -0.122 148.995 -0.12 C150.137 -0.121 151.28 -0.122 152.456 -0.123 C155 0 155 0 156 1 C156.072 2.686 156.084 4.375 156.062 6.062 C156.053 6.982 156.044 7.901 156.035 8.848 C156.018 9.913 156.018 9.913 156 11 C142.583 11.133 129.165 11.264 115.748 11.391 C109.512 11.451 103.276 11.511 97.04 11.573 C72.541 11.816 48.042 12.047 23.541 12.088 C21.511 12.092 19.48 12.097 17.449 12.104 C14.681 12.113 11.912 12.115 9.143 12.115 C8.324 12.119 7.506 12.122 6.662 12.126 C1.115 12.115 1.115 12.115 0 11 C-0.072 9.147 -0.084 7.292 -0.062 5.438 C-0.053 4.426 -0.044 3.414 -0.035 2.371 C-0.024 1.589 -0.012 0.806 0 0 Z " fill="#717274" transform="translate(232,157)"/>
  <ns0:path d="M0 0 C14.339 -0.556 26.715 4.316 37.82 13.121 C48.49 23.131 56.68 38.81 57.398 53.547 C57.402 54.369 57.402 54.369 57.406 55.207 C53.409 54.636 50.651 53.634 47.406 51.207 C45.922 48.203 45.922 48.203 44.656 44.645 C41.866 37.488 38.058 32.475 32.406 27.207 C31.61 26.465 30.813 25.722 29.992 24.957 C20.665 16.903 11.518 14.378 -0.656 14.891 C-14.055 15.967 -23.336 20.752 -32.086 30.945 C-35.608 35.318 -37.821 39.639 -39.734 44.91 C-41.93 50.779 -41.93 50.779 -44.531 52.457 C-46.594 53.207 -46.594 53.207 -49.594 53.207 C-49.38 38.975 -46.475 27.964 -36.594 17.207 C-36.045 16.604 -35.495 16 -34.93 15.379 C-25.755 6.406 -12.628 1.008 0 0 Z " fill="#000102" transform="translate(356.59375,265.79296875)"/>
  <ns0:path d="M0 0 C5.385 4.067 7.989 8.676 9.383 15.25 C10.282 22.43 8.732 27.933 5.258 34.188 C0.497 38.46 -5.203 41.597 -11.68 42 C-17.142 41.623 -21.796 39.607 -26.18 36.375 C-31.304 30.452 -33.615 24.955 -33.523 17.141 C-32.768 11.06 -29.802 5.478 -25.242 1.375 C-17.555 -3.645 -8.133 -4.742 0 0 Z " fill="#8B8F93" transform="translate(176.1796875,305.625)"/>
  <ns0:path d="M0 0 C6.06 3.458 9.357 8.352 11.312 14.941 C12.471 21.388 11.481 27.959 7.75 33.375 C2.998 38.348 -1.417 42.253 -8.562 42.434 C-14.822 42.138 -19.549 40.585 -24.25 36.375 C-28.707 31.286 -30.428 26.097 -30.25 19.375 C-29.793 13.171 -28.485 8.372 -24.078 3.848 C-16.978 -1.872 -8.449 -3.773 0 0 Z " fill="#8C8E90" transform="translate(369.25,305.625)"/>
  <ns0:path d="M0 0 C9.349 7.836 18.114 18.681 21.027 30.723 C21.237 34.738 21.208 38.707 21.027 42.723 C14.614 40.787 14.614 40.787 13.07 37.988 C12.615 36.613 12.179 35.231 11.762 33.844 C9.785 28.133 5.313 23.809 1.027 19.723 C0.476 19.104 -0.076 18.485 -0.645 17.848 C-7.109 10.795 -16.038 5.094 -25.781 4.484 C-41.556 4.104 -53.308 7.462 -65.098 18.348 C-70.354 23.814 -74.833 30.637 -76.879 37.973 C-77.973 40.723 -77.973 40.723 -80.137 41.965 C-80.949 42.174 -81.761 42.382 -82.598 42.598 C-83.415 42.822 -84.232 43.046 -85.074 43.277 C-85.701 43.424 -86.327 43.571 -86.973 43.723 C-88.067 29.767 -81.404 18.415 -72.723 8.031 C-53.862 -12.287 -22.713 -17.401 0 0 Z " fill="#020304" transform="translate(195.97265625,276.27734375)"/>
  <ns0:path d="M0 0 C1.194 0.092 2.389 0.184 3.619 0.279 C4.852 0.387 6.085 0.495 7.355 0.605 C8.608 0.702 9.86 0.798 11.15 0.896 C20.394 1.644 20.394 1.644 21.543 2.793 C21.629 4.136 21.65 5.483 21.641 6.828 C21.637 7.637 21.634 8.446 21.631 9.279 C21.618 10.555 21.618 10.555 21.605 11.855 C21.601 12.709 21.596 13.563 21.592 14.443 C21.58 16.56 21.562 18.676 21.543 20.793 C24.183 20.793 26.823 20.793 29.543 20.793 C22.655 26.356 16.857 27.311 8.23 27.543 C7.236 27.586 6.241 27.628 5.217 27.672 C-0.79 27.885 -6.51 27.69 -12.457 26.793 C-14.069 25.181 -13.587 23.432 -13.59 21.207 C-13.591 20.276 -13.592 19.346 -13.594 18.387 C-13.59 17.407 -13.586 16.427 -13.582 15.418 C-13.586 14.446 -13.59 13.474 -13.594 12.473 C-13.592 11.539 -13.591 10.606 -13.59 9.645 C-13.589 8.787 -13.588 7.929 -13.586 7.045 C-13.457 4.793 -13.457 4.793 -12.457 1.793 C-8.14 -0.156 -4.674 -0.376 0 0 Z " fill="#8D8F91" transform="translate(74.45703125,301.20703125)"/>
  <ns0:path d="M0 0 C1 3 1.116 4.974 1.098 8.105 C1.094 9.088 1.091 10.071 1.088 11.084 C1.08 12.108 1.071 13.132 1.062 14.188 C1.058 15.223 1.053 16.259 1.049 17.326 C1.037 19.884 1.021 22.442 1 25 C-2.403 25.787 -5.38 26.081 -8.863 25.879 C-9.75 25.831 -10.636 25.782 -11.549 25.732 C-12.461 25.676 -13.373 25.62 -14.312 25.562 C-15.244 25.51 -16.175 25.458 -17.135 25.404 C-19.424 25.275 -21.712 25.14 -24 25 C-26.158 19.75 -26.24 15.192 -26.125 9.625 C-26.116 8.794 -26.107 7.962 -26.098 7.105 C-26.074 5.07 -26.038 3.035 -26 1 C-17.808 -1.731 -8.442 -1.31 0 0 Z " fill="#949698" transform="translate(450,302)"/>
  <ns0:path d="M0 0 C5.94 0.33 11.88 0.66 18 1 C18.081 5.292 18.14 9.583 18.188 13.875 C18.213 15.098 18.238 16.322 18.264 17.582 C18.273 18.749 18.283 19.915 18.293 21.117 C18.309 22.196 18.324 23.275 18.341 24.386 C18.228 25.249 18.116 26.111 18 27 C14.316 29.456 11.553 29.227 7.312 29.125 C4.899 29.084 2.486 29.043 0 29 C0 19.43 0 9.86 0 0 Z " fill="#EC9C04" transform="translate(71,273)"/>
  <ns0:path d="M0 0 C1.815 -0.018 1.815 -0.018 3.666 -0.037 C5.396 -0.04 5.396 -0.04 7.16 -0.043 C8.75 -0.049 8.75 -0.049 10.371 -0.055 C12.938 0.188 12.938 0.188 14.938 2.188 C15.203 4.719 15.203 4.719 15.188 7.688 C15.195 9.157 15.195 9.157 15.203 10.656 C14.938 13.188 14.938 13.188 12.938 15.188 C10.08 15.446 10.08 15.446 6.469 15.453 C5.176 15.456 3.883 15.458 2.551 15.461 C1.876 15.457 1.201 15.453 0.506 15.448 C-1.555 15.438 -3.615 15.448 -5.676 15.461 C-6.969 15.458 -8.262 15.456 -9.594 15.453 C-10.785 15.451 -11.977 15.449 -13.205 15.446 C-16.062 15.188 -16.062 15.188 -18.062 13.188 C-18.328 11.129 -18.328 11.129 -18.312 8.75 C-18.318 7.968 -18.323 7.185 -18.328 6.379 C-18.062 4.188 -18.062 4.188 -16.062 1.188 C-10.889 -0.537 -5.415 0.003 0 0 Z " fill="#00A9DB" transform="translate(273.0625,242.8125)"/>
  <ns0:path d="M0 0 C3.583 -0.663 7.238 -0.463 10.875 -0.438 C12.385 -0.467 12.385 -0.467 13.926 -0.498 C21.244 -0.493 21.244 -0.493 24.672 1.742 C26.16 4.271 26.483 5.649 26.375 8.562 C26.356 9.709 26.356 9.709 26.336 10.879 C26 13 26 13 24 16 C20.417 16.663 16.762 16.463 13.125 16.438 C11.615 16.467 11.615 16.467 10.074 16.498 C2.756 16.493 2.756 16.493 -0.672 14.258 C-2.16 11.729 -2.483 10.351 -2.375 7.438 C-2.362 6.673 -2.349 5.909 -2.336 5.121 C-2 3 -2 3 0 0 Z " fill="#00A9EA" transform="translate(384,244)"/>
  <ns0:path d="M0 0 C0.998 -0.007 0.998 -0.007 2.015 -0.015 C4.226 -0.03 6.437 -0.036 8.647 -0.042 C10.181 -0.048 11.715 -0.053 13.248 -0.059 C16.47 -0.07 19.691 -0.076 22.913 -0.079 C27.036 -0.085 31.16 -0.109 35.284 -0.137 C38.454 -0.156 41.625 -0.161 44.796 -0.162 C46.316 -0.165 47.835 -0.173 49.355 -0.187 C51.486 -0.204 53.616 -0.202 55.746 -0.195 C56.958 -0.199 58.169 -0.203 59.418 -0.206 C62.938 0.196 64.818 1.046 67.632 3.161 C68.127 4.151 68.127 4.151 68.632 5.161 C42.892 5.161 17.152 5.161 -9.368 5.161 C-6.522 -0.532 -6.18 0.035 0 0 Z " fill="#08060D" transform="translate(331.3681640625,187.8388671875)"/>
  <ns0:path d="M0 0 C3.96 0 7.92 0 12 0 C12.34 2.812 12.672 5.624 13 8.438 C13.095 9.221 13.191 10.004 13.289 10.811 C13.915 16.244 14.088 21.531 14 27 C9.71 27 5.42 27 1 27 C-0.331 24.338 -0.113 22.313 -0.098 19.336 C-0.094 18.214 -0.091 17.093 -0.088 15.938 C-0.08 14.762 -0.071 13.586 -0.062 12.375 C-0.058 11.192 -0.053 10.008 -0.049 8.789 C-0.037 5.859 -0.019 2.93 0 0 Z " fill="#FBA802" transform="translate(427,275)"/>
  <ns0:path d="M0 0 C1.125 -0.01 2.249 -0.019 3.408 -0.029 C4.619 -0.033 5.829 -0.038 7.076 -0.042 C8.948 -0.051 8.948 -0.051 10.857 -0.059 C13.496 -0.069 16.134 -0.076 18.773 -0.079 C22.147 -0.085 25.52 -0.109 28.894 -0.137 C32.121 -0.16 35.349 -0.162 38.576 -0.167 C39.785 -0.179 40.993 -0.192 42.238 -0.204 C43.366 -0.201 44.494 -0.198 45.656 -0.195 C46.646 -0.199 47.635 -0.203 48.655 -0.206 C52.591 0.322 55.146 2.172 58.205 4.599 C59.393 6.161 59.393 6.161 59.393 10.161 C58.403 9.831 57.413 9.501 56.393 9.161 C56.393 8.171 56.393 7.181 56.393 6.161 C52.735 5.321 49.346 5.03 45.596 5.016 C43.884 5.006 43.884 5.006 42.137 4.997 C40.301 4.995 40.301 4.995 38.428 4.993 C37.162 4.99 35.896 4.987 34.591 4.983 C31.916 4.978 29.24 4.975 26.565 4.976 C23.148 4.976 19.731 4.962 16.313 4.945 C13.039 4.931 9.765 4.932 6.49 4.931 C5.268 4.923 4.046 4.916 2.787 4.909 C1.643 4.912 0.498 4.915 -0.681 4.918 C-1.683 4.917 -2.685 4.915 -3.717 4.914 C-7.663 5.251 -11.075 6.395 -14.607 8.161 C-14.234 5.459 -13.823 4.362 -11.795 2.474 C-7.946 0.164 -4.434 0.031 0 0 Z " fill="#0B0A14" transform="translate(232.607177734375,187.8388671875)"/>
  <ns0:path d="M0 0 C3.96 0 7.92 0 12 0 C14 23 14 23 12 27 C10.188 27.027 8.375 27.046 6.562 27.062 C5.553 27.074 4.544 27.086 3.504 27.098 C1 27 1 27 0 26 C-0.087 24.073 -0.107 22.143 -0.098 20.215 C-0.094 19.045 -0.091 17.875 -0.088 16.67 C-0.08 15.438 -0.071 14.207 -0.062 12.938 C-0.058 11.702 -0.053 10.466 -0.049 9.193 C-0.037 6.129 -0.019 3.064 0 0 Z " fill="#F7F7F6" transform="translate(415,275)"/>
  <ns0:path d="M0 0 C3.962 3.082 5.1 4.567 5.75 9.688 C5.632 13.203 5.247 13.753 2.875 16.688 C-1.218 19.903 -3.528 20.104 -8.75 19.75 C-12.896 17.96 -14.926 15.878 -16.75 11.75 C-17.193 8.206 -16.98 6.257 -15.5 3 C-11.512 -2.128 -5.87 -2.668 0 0 Z " fill="#808183" transform="translate(109.75,192.25)"/>
  <ns0:path d="M0 0 C3.63 0 7.26 0 11 0 C10.67 8.58 10.34 17.16 10 26 C6.7 26 3.4 26 0 26 C0 17.42 0 8.84 0 0 Z " fill="#F2F5F6" transform="translate(89,274)"/>
  <ns0:path d="M0 0 C2.963 2.105 3.832 3.474 4.938 6.938 C5.014 10.687 4.349 12.103 2 15 C-0.642 17.086 -2.118 18 -5.5 18 C-9.033 16.587 -10.723 15.058 -13 12 C-13.695 8.982 -13.455 7.185 -13 4 C-9.06 -1.122 -6.18 -1.385 0 0 Z " fill="#7B7C80" transform="translate(133,202)"/>
  <ns0:path d="M0 0 C2.31 0.33 4.62 0.66 7 1 C7 8.92 7 16.84 7 25 C4.36 25 1.72 25 -1 25 C-1.029 21.021 -1.047 17.042 -1.062 13.062 C-1.071 11.926 -1.079 10.79 -1.088 9.619 C-1.091 8.54 -1.094 7.46 -1.098 6.348 C-1.103 5.347 -1.108 4.347 -1.114 3.317 C-1 1 -1 1 0 0 Z " fill="#282D30" transform="translate(102,215)"/>
  <ns0:path d="M0 0 C0 6.27 0 12.54 0 19 C-2.64 19 -5.28 19 -8 19 C-10.798 13.815 -12.897 6.922 -12 1 C-9 -1 -9 -1 0 0 Z " fill="#0263BF" transform="translate(424,303)"/>
  <ns0:path d="M0 0 C0.061 1.23 0.121 2.46 0.184 3.727 C0.268 5.359 0.353 6.992 0.438 8.625 C0.477 9.433 0.516 10.241 0.557 11.074 C0.788 15.452 1.169 19.685 2 24 C-4.712 19.473 -7.88 13.003 -9.637 5.156 C-9.817 4.089 -9.817 4.089 -10 3 C-9.34 3 -8.68 3 -8 3 C-8 2.34 -8 1.68 -8 1 C-3.375 -1.125 -3.375 -1.125 0 0 Z " fill="#1D2127" transform="translate(315,318)"/>
  <ns0:path d="M0 0 C2.31 0 4.62 0 7 0 C7 5.61 7 11.22 7 17 C4.36 17 1.72 17 -1 17 C-1.105 11.214 -0.993 5.707 0 0 Z " fill="#413F43" transform="translate(225,152)"/>
  <ns0:path d="M0 0 C2.31 0 4.62 0 7 0 C7 5.94 7 11.88 7 18 C5.02 18 3.04 18 1 18 C0 17 0 17 -0.098 13.184 C-0.091 11.602 -0.079 10.019 -0.062 8.438 C-0.058 7.631 -0.053 6.825 -0.049 5.994 C-0.037 3.996 -0.019 1.998 0 0 Z " fill="#252D35" transform="translate(125,222)"/>
  <ns0:path d="M0 0 C1.454 0.031 1.454 0.031 2.938 0.062 C4.354 2.895 4.284 5.537 4.5 8.688 C4.584 9.876 4.668 11.065 4.754 12.289 C4.814 13.204 4.875 14.12 4.938 15.062 C1.967 15.062 -1.002 15.062 -4.062 15.062 C-4.089 12.75 -4.109 10.438 -4.125 8.125 C-4.137 6.837 -4.148 5.549 -4.16 4.223 C-4.032 0.082 -4.032 0.082 0 0 Z " fill="#4E4E51" transform="translate(392.0625,152.9375)"/>
  <ns0:path d="M0 0 C-0.33 3.63 -0.66 7.26 -1 11 C-4.312 11.312 -4.312 11.312 -8 11 C-10.345 8.352 -10.953 6.706 -11.188 3.188 C-11.126 2.466 -11.064 1.744 -11 1 C-6.469 -0.791 -5.018 -1.004 0 0 Z " fill="#6F7173" transform="translate(225,158)"/>
  <ns0:path d="M0 0 C0 0.99 0 1.98 0 3 C-2.64 3 -5.28 3 -8 3 C-8 2.34 -8 1.68 -8 1 C-5.108 0.174 -3.113 0 0 0 Z " fill="#015DAF" transform="translate(424,319)"/>
  <ns0:path d="M0 0 C-0.33 0.66 -0.66 1.32 -1 2 C-3.97 2 -6.94 2 -10 2 C-3.75 -1.125 -3.75 -1.125 0 0 Z " fill="#697F97" transform="translate(92,301)"/>
  <ns0:path d="M0 0 C0.33 0 0.66 0 1 0 C1 2.31 1 4.62 1 7 C0.67 7 0.34 7 0 7 C0 4.69 0 2.38 0 0 Z " fill="#EFC365" transform="translate(88,281)"/>
  <ns0:path d="M0 0 C1 4 1 4 1 4 Z " fill="#FDDEA2" transform="translate(427,284)"/>
  <ns0:path d="M0 0 C4 1 4 1 4 1 Z " fill="#6E7C6E" transform="translate(75,273)"/>
</svg>