<?xml version="1.0" ?>
<svg xmlns:ns0="http://www.w3.org/2000/svg" xmlns="http://www.w3.org/2000/svg" width="512" height="512" viewBox="0 0 512 512" style="background-color: transparent;">
  <ns0:path d="M0 0 C1.98 0.495 1.98 0.495 4 1 C4.99 7.435 4.99 7.435 6 14 C7.013 14.098 8.026 14.196 9.07 14.297 C10.422 14.447 11.774 14.598 13.125 14.75 C13.79 14.812 14.455 14.874 15.141 14.938 C20.721 15.594 24.705 17.156 28.296 21.606 C32.01 27.158 33.179 32.27 34.086 38.828 C34.244 39.869 34.403 40.911 34.566 41.983 C35.066 45.32 35.536 48.659 36 52 C36.155 53.09 36.309 54.181 36.469 55.304 C37.414 61.983 38.312 68.667 39.183 75.356 C39.627 78.763 40.079 82.169 40.531 85.574 C40.826 87.815 41.12 90.056 41.414 92.297 C41.544 93.278 41.675 94.258 41.809 95.269 C43.088 105.157 44.036 115.077 45 125 C31.652 125.267 18.304 125.528 4.955 125.782 C-1.249 125.901 -7.454 126.021 -13.658 126.146 C-47.11 126.815 -80.542 127.144 -114 127 C-113.975 128.01 -113.951 129.019 -113.925 130.059 C-113.91 130.709 -113.894 131.359 -113.877 132.028 C-113.843 133.447 -113.808 134.865 -113.773 136.283 C-113.701 139.214 -113.63 142.145 -113.568 145.076 C-113.525 147.059 -113.47 149.041 -113.414 151.023 C-113.383 152.312 -113.351 153.6 -113.319 154.927 C-113.315 158.105 -113.315 158.105 -111 160 C-110.865 162.797 -110.865 162.797 -111.023 166.32 C-111.075 167.577 -111.127 168.834 -111.18 170.129 C-111.245 171.461 -111.31 172.793 -111.375 174.125 C-111.433 175.465 -111.491 176.805 -111.547 178.145 C-111.689 181.43 -111.84 184.715 -112 188 C-112.33 188 -112.66 188 -113 188 C-115.146 180.949 -116.83 173.865 -117.375 166.5 C-118.712 151.89 -122.211 136.071 -131.766 124.621 C-133 123 -133 123 -134 120 C-136.424 118.83 -136.424 118.83 -139 118 C-139.66 117.67 -140.32 117.34 -141 117 C-146.015 116.575 -149.887 116.572 -154.273 119.426 C-167.179 131.192 -168.013 149.712 -169.675 165.874 C-170 168 -170 168 -171 169 C-182.455 168.913 -194.903 166.899 -206 164 C-206.086 162.849 -206.173 161.698 -206.262 160.512 C-208.178 136.706 -208.178 136.706 -219 116 C-221.329 114.583 -222.644 114.019 -225.375 113.875 C-231.008 116.289 -233.887 122.181 -236.188 127.625 C-239.265 136.678 -239.914 146.543 -241 156 C-240.34 156 -239.68 156 -239 156 C-239 156.66 -239 157.32 -239 158 C-240.666 158.043 -242.334 158.041 -244 158 C-246.06 155.94 -245.504 151.898 -245.688 149.062 C-245.777 147.95 -245.777 147.95 -245.869 146.814 C-245.997 144.88 -246.006 142.939 -246 141 C-245.01 140.01 -245.01 140.01 -244 139 C-243.63 136.871 -243.63 136.871 -243.586 134.43 C-243.547 133.534 -243.509 132.638 -243.469 131.715 C-243.438 130.778 -243.407 129.841 -243.375 128.875 C-243.317 127.458 -243.317 127.458 -243.258 126.012 C-243.163 123.675 -243.078 121.338 -243 119 C-245.31 119 -247.62 119 -250 119 C-250.962 114.328 -251.007 110.128 -250.688 105.375 C-250.609 104.083 -250.53 102.792 -250.449 101.461 C-250.038 98.291 -249.713 96.62 -248 94 C-241.872 91.189 -234.048 91.585 -227.438 91.375 C-226.429 91.336 -225.42 91.298 -224.381 91.258 C-221.921 91.165 -219.461 91.079 -217 91 C-216.95 90.16 -216.9 89.321 -216.848 88.456 C-213.599 34.599 -213.599 34.599 -206.562 27.562 C-202.175 25.638 -197.725 24.242 -193.121 22.93 C-190.085 22.101 -190.085 22.101 -187.66 20.945 C-185 20 -185 20 -181.023 19.604 C-175.534 19.031 -170.306 17.741 -164.965 16.383 C-163.928 16.125 -162.891 15.867 -161.823 15.602 C-158.526 14.782 -155.232 13.954 -151.938 13.125 C-143.635 11.039 -135.326 8.989 -127 7 C-125.838 6.714 -125.838 6.714 -124.652 6.423 C-113.642 3.76 -103.663 4.031 -92.5 5.125 C-90.779 5.277 -89.058 5.428 -87.336 5.576 C-83.025 5.954 -78.716 6.356 -74.408 6.77 C-71.485 7.049 -68.562 7.32 -65.639 7.59 C-61.115 8.007 -56.592 8.431 -52.07 8.867 C-35.73 10.439 -19.364 11.71 -3 13 C-2.927 11.844 -2.927 11.844 -2.852 10.664 C-2.777 9.661 -2.702 8.658 -2.625 7.625 C-2.555 6.627 -2.486 5.63 -2.414 4.602 C-2 2 -2 2 0 0 Z M-83.716 28.37 C-86.862 32.364 -85.244 39.147 -85 44 C-84.947 45.062 -84.894 46.125 -84.839 47.219 C-84.644 50.835 -84.421 54.449 -84.188 58.062 C-84.118 59.252 -84.048 60.442 -83.976 61.668 C-83.895 62.8 -83.814 63.932 -83.73 65.098 C-83.662 66.114 -83.594 67.129 -83.524 68.176 C-82.932 71.369 -81.89 73.375 -80 76 C-76.735 77.633 -73.107 77.365 -69.512 77.527 C-68.66 77.569 -67.808 77.61 -66.931 77.653 C-58.228 78.062 -49.522 78.346 -40.812 78.562 C-40 78.583 -39.188 78.603 -38.351 78.624 C-25.693 78.929 -13.033 79.154 -0.371 79.231 C1.413 79.244 3.197 79.261 4.982 79.284 C7.463 79.313 9.944 79.323 12.426 79.328 C13.167 79.34 13.907 79.353 14.671 79.365 C16.93 79.391 16.93 79.391 20 79 C22.509 75.236 21.96 72.879 21.375 68.625 C21.28 67.891 21.185 67.156 21.088 66.399 C20.241 60.156 19.19 53.948 18.062 47.75 C17.826 46.411 17.826 46.411 17.585 45.045 C16.72 40.499 15.878 36.757 13 33 C10.131 31.566 7.482 31.649 4.281 31.427 C3.59 31.379 2.898 31.33 2.186 31.279 C-0.114 31.118 -2.414 30.963 -4.715 30.809 C-6.326 30.698 -7.936 30.587 -9.547 30.477 C-12.939 30.244 -16.331 30.015 -19.723 29.788 C-24.015 29.501 -28.307 29.204 -32.598 28.904 C-35.936 28.672 -39.275 28.446 -42.614 28.222 C-44.192 28.115 -45.77 28.006 -47.348 27.895 C-56.039 27.287 -64.723 26.868 -73.436 26.746 C-74.247 26.725 -75.059 26.704 -75.895 26.682 C-80.099 26.538 -80.099 26.538 -83.716 28.37 Z M-137.387 30.059 C-138.572 30.28 -139.757 30.501 -140.979 30.729 C-142.202 30.962 -143.426 31.196 -144.688 31.438 C-145.923 31.668 -147.159 31.898 -148.432 32.135 C-154.788 33.282 -154.788 33.282 -161 35 C-162.02 43.235 -162.186 51.404 -162.185 59.689 C-162.188 61.957 -162.206 64.226 -162.225 66.494 C-162.228 67.943 -162.23 69.391 -162.23 70.84 C-162.235 72.143 -162.239 73.446 -162.243 74.789 C-162.252 78.153 -162.252 78.153 -160 81 C-157.428 81.149 -155.131 81.115 -152.578 80.926 C-151.841 80.882 -151.103 80.838 -150.343 80.793 C-148.779 80.696 -147.215 80.593 -145.652 80.482 C-143.274 80.314 -140.896 80.172 -138.516 80.033 C-136.995 79.936 -135.474 79.838 -133.953 79.738 C-133.247 79.695 -132.54 79.653 -131.812 79.608 C-127.595 79.298 -123.949 78.505 -120 77 C-119.686 66.912 -120.192 56.882 -120.812 46.812 C-120.883 45.523 -120.953 44.234 -121.025 42.906 C-121.106 41.685 -121.186 40.465 -121.27 39.207 C-121.338 38.109 -121.406 37.01 -121.476 35.878 C-122.061 32.668 -122.546 31.163 -125 29 C-129.243 28.519 -133.211 29.274 -137.387 30.059 Z M-191.062 40.188 C-191.77 40.302 -192.477 40.416 -193.205 40.533 C-196.394 41.123 -198.78 41.846 -201.449 43.711 C-203.495 46.731 -203.604 48.798 -203.75 52.438 C-203.804 53.75 -203.858 55.062 -203.914 56.414 C-203.947 57.943 -203.976 59.471 -204 61 C-204.015 61.898 -204.03 62.796 -204.046 63.722 C-204.086 66.585 -204.11 69.449 -204.125 72.312 C-204.13 73.238 -204.135 74.163 -204.14 75.117 C-204.137 75.982 -204.135 76.847 -204.133 77.738 C-204.132 78.512 -204.131 79.286 -204.129 80.083 C-204.118 82.085 -204.118 82.085 -203 84 C-199.041 83.89 -195.083 83.76 -191.125 83.625 C-189.997 83.594 -188.869 83.563 -187.707 83.531 C-186.631 83.493 -185.554 83.454 -184.445 83.414 C-183.45 83.383 -182.455 83.351 -181.43 83.319 C-178.821 83.228 -178.821 83.228 -177 81 C-175.613 73.678 -175.816 66.241 -175.812 58.812 C-175.8 57.555 -175.788 56.298 -175.775 55.002 C-175.773 53.791 -175.772 52.58 -175.77 51.332 C-175.765 50.236 -175.761 49.14 -175.757 48.011 C-176.006 44.92 -176.577 42.748 -178 40 C-182.269 38.215 -186.656 39.351 -191.062 40.188 Z M-132 92 C-133.783 96.457 -134.277 97.722 -133.812 102.125 C-133.736 102.973 -133.66 103.821 -133.582 104.695 C-132.89 107.435 -132.35 108.428 -130 110 C-127.258 110.363 -127.258 110.363 -124.312 110.188 C-122.822 110.147 -122.822 110.147 -121.301 110.105 C-120.542 110.071 -119.782 110.036 -119 110 C-117.033 106.711 -116.756 104.244 -116.812 100.438 C-116.819 99.487 -116.825 98.537 -116.832 97.559 C-116.899 94.88 -116.899 94.88 -118 92 C-122.62 92 -127.24 92 -132 92 Z M-191 93 C-192.305 94.082 -192.305 94.082 -192.133 96.688 C-192.13 97.781 -192.128 98.874 -192.125 100 C-192.128 101.093 -192.13 102.186 -192.133 103.312 C-192.305 105.918 -192.305 105.918 -191 107 C-188.98 107.072 -186.958 107.084 -184.938 107.062 C-183.833 107.053 -182.728 107.044 -181.59 107.035 C-180.735 107.024 -179.881 107.012 -179 107 C-177.618 104.235 -177.905 101.954 -177.938 98.875 C-177.947 97.779 -177.956 96.684 -177.965 95.555 C-177.976 94.712 -177.988 93.869 -178 93 C-182.625 91.985 -186.354 92.089 -191 93 Z " fill="#005CBC" transform="translate(381,151)"/>
  <ns0:path d="M0 0 C1 1 1 1 1.114 3.5 C1.108 4.584 1.103 5.668 1.098 6.785 C1.094 7.955 1.091 9.125 1.088 10.33 C1.08 11.562 1.071 12.793 1.062 14.062 C1.058 15.298 1.053 16.534 1.049 17.807 C1.037 20.871 1.021 23.936 1 27 C-1.97 27.99 -4.363 28.281 -7.473 28.525 C-8.603 28.615 -9.734 28.706 -10.898 28.799 C-12.13 28.894 -13.363 28.988 -14.633 29.086 C-15.917 29.187 -17.201 29.289 -18.524 29.394 C-22.003 29.669 -25.483 29.939 -28.963 30.208 C-31.845 30.431 -34.726 30.656 -37.607 30.882 C-46.738 31.597 -55.869 32.301 -65 33 C-66.143 33.088 -67.287 33.175 -68.465 33.266 C-75.039 33.768 -81.613 34.263 -88.188 34.75 C-88.971 34.809 -89.755 34.867 -90.563 34.928 C-100.106 35.64 -109.648 36.218 -119.208 36.659 C-123.713 36.869 -128.196 37.155 -132.688 37.562 C-143.325 38.414 -154.734 39.3 -165 36 C-166.377 33.246 -166.13 31.012 -166.133 27.934 C-166.134 26.726 -166.135 25.519 -166.137 24.275 C-166.131 22.376 -166.131 22.376 -166.125 20.438 C-166.129 19.167 -166.133 17.897 -166.137 16.588 C-166.135 15.382 -166.134 14.176 -166.133 12.934 C-166.132 11.82 -166.131 10.707 -166.129 9.56 C-166 7 -166 7 -165 6 C-161.975 5.952 -158.966 5.962 -155.942 6.004 C-143.911 6.084 -131.942 5.548 -119.93 4.941 C-117.67 4.831 -115.411 4.722 -113.151 4.612 C-107.253 4.326 -101.356 4.034 -95.458 3.74 C-84.928 3.217 -74.398 2.705 -63.867 2.191 C-62.75 2.137 -61.633 2.082 -60.482 2.026 C-47.972 1.417 -35.462 0.813 -22.945 0.34 C-21.961 0.302 -20.976 0.264 -19.961 0.225 C-5.807 -0.272 -5.807 -0.272 0 0 Z " fill="#919394" transform="translate(435,305)"/>
  <ns0:path d="M0 0 C0.847 0.012 1.695 0.024 2.567 0.036 C11.169 0.19 19.75 0.645 28.334 1.2 C29.525 1.275 29.525 1.275 30.74 1.352 C34.914 1.616 39.088 1.887 43.261 2.164 C47.554 2.447 51.848 2.707 56.142 2.963 C59.472 3.165 62.801 3.383 66.13 3.607 C67.715 3.71 69.3 3.807 70.885 3.898 C73.087 4.026 75.286 4.177 77.486 4.334 C78.734 4.414 79.983 4.494 81.269 4.576 C84.922 5.351 86.154 6.347 88.431 9.247 C91.285 14.892 91.784 21.355 92.773 27.539 C93.118 29.676 93.478 31.81 93.84 33.944 C94.063 35.315 94.285 36.685 94.506 38.056 C94.708 39.291 94.91 40.527 95.118 41.8 C95.429 45.217 95.222 47.919 94.431 51.247 C92.71 52.969 90.511 52.375 88.215 52.386 C87.096 52.383 87.096 52.383 85.955 52.38 C84.784 52.382 84.784 52.382 83.589 52.384 C80.995 52.386 78.401 52.38 75.806 52.372 C74.918 52.371 74.03 52.37 73.115 52.368 C59.612 52.347 46.117 52.156 32.619 51.81 C31.838 51.79 31.057 51.77 30.253 51.75 C25.755 51.635 21.259 51.492 16.763 51.325 C14.248 51.241 11.732 51.186 9.215 51.129 C7.492 51.075 5.768 51.019 4.045 50.962 C3.242 50.95 2.44 50.938 1.613 50.926 C-2.003 50.784 -4.144 50.577 -7.044 48.327 C-9.493 44.985 -9.791 42.746 -10.104 38.638 C-10.191 37.496 -10.279 36.355 -10.369 35.179 C-12.556 4.5 -12.556 4.5 -10.285 1.617 C-7.318 -0.751 -3.629 -0.096 0 0 Z " fill="#22222E" transform="translate(307.568603515625,177.7529296875)"/>
  <ns0:path d="M0 0 C0.335 2.862 0.665 5.724 0.992 8.586 C1.134 9.79 1.134 9.79 1.278 11.019 C1.961 17.032 2.24 22.947 2 29 C-0.869 29.802 -3.528 30.173 -6.5 30.31 C-7.397 30.354 -8.294 30.397 -9.218 30.442 C-10.195 30.485 -11.171 30.528 -12.178 30.573 C-13.212 30.621 -14.247 30.67 -15.313 30.721 C-18.74 30.882 -22.167 31.037 -25.594 31.191 C-27.981 31.302 -30.368 31.412 -32.755 31.523 C-37.765 31.755 -42.775 31.985 -47.785 32.212 C-54.183 32.502 -60.58 32.798 -66.977 33.096 C-71.912 33.326 -76.847 33.552 -81.782 33.778 C-84.139 33.886 -86.495 33.995 -88.852 34.105 C-92.164 34.258 -95.475 34.408 -98.787 34.557 C-99.748 34.602 -100.708 34.647 -101.698 34.694 C-108.486 34.994 -115.187 35 -122 35 C-122 24.11 -122 13.22 -122 2 C-81.347 0.064 -40.692 -0.16 0 0 Z " fill="#FCFCFC" transform="translate(417,276)"/>
  <ns0:path d="M0 0 C2.629 -0.342 4.359 -0.315 6.906 0.453 C15.749 8.092 19.753 19.124 22.456 30.122 C23.657 34.891 25.337 38.31 27.906 42.453 C29.318 46.058 30.527 49.729 31.359 53.512 C32.201 57.291 32.201 57.291 34.969 59.828 C38.28 60.533 41.546 60.929 44.918 61.207 C46.906 61.453 46.906 61.453 48.906 62.453 C48.168 73.717 44.639 85.626 35.906 93.328 C29.498 97.867 23.167 98.137 15.531 98.766 C14.42 98.877 13.309 98.989 12.164 99.104 C4.299 99.764 -0.495 99.452 -6.719 94.266 C-20.265 78.225 -21.684 58.572 -21.094 38.453 C-21.754 38.123 -22.414 37.793 -23.094 37.453 C-17.203 10.444 -17.203 10.444 -8.094 2.453 C-5.302 0.997 -3.026 0.655 0 0 Z M-9.094 31.453 C-13.807 40.147 -13.402 51.711 -10.844 61.016 C-8.983 66.29 -6.843 70.287 -2.094 73.453 C0.417 73.519 0.417 73.519 2.906 72.453 C9.367 65.623 10.225 58.586 10.125 49.465 C9.477 40.537 7.302 32.849 0.906 26.453 C-4.131 25.5 -6.087 27.576 -9.094 31.453 Z " fill="#293038" transform="translate(237.09375,281.546875)"/>
  <ns0:path d="M0 0 C1.21 -0.018 1.21 -0.018 2.445 -0.037 C3.617 -0.04 3.617 -0.04 4.812 -0.043 C5.52 -0.047 6.228 -0.051 6.957 -0.055 C9.318 0.225 10.944 1.022 13 2.188 C13.054 4.146 13.093 6.104 13.125 8.062 C13.148 9.153 13.171 10.244 13.195 11.367 C13 14.188 13 14.188 11 16.188 C8.539 17.039 8.539 17.039 5.625 17.812 C4.19 18.203 4.19 18.203 2.727 18.602 C0 19.188 0 19.188 -4 19.188 C-4.495 18.197 -4.495 18.197 -5 17.188 C-7.31 17.188 -9.62 17.188 -12 17.188 C-12.495 19.662 -12.495 19.662 -13 22.188 C-25.952 26.124 -39.001 29.564 -52.125 32.875 C-55.006 33.604 -57.887 34.335 -60.768 35.066 C-62.541 35.516 -64.314 35.965 -66.087 36.412 C-69.695 37.326 -73.28 38.261 -76.843 39.339 C-80 40.188 -80 40.188 -84 40.188 C-84 39.528 -84 38.868 -84 38.188 C-86.31 38.188 -88.62 38.188 -91 38.188 C-91 38.847 -91 39.507 -91 40.188 C-97.152 40.285 -97.152 40.285 -99 40.188 C-100 39.188 -100 39.188 -100.098 36.902 C-100.086 35.986 -100.074 35.069 -100.062 34.125 C-100.053 33.206 -100.044 32.287 -100.035 31.34 C-100.024 30.63 -100.012 29.919 -100 29.188 C-94.573 27.109 -89.129 25.213 -83.586 23.473 C-82.789 23.221 -81.993 22.969 -81.172 22.709 C-78.574 21.887 -75.974 21.069 -73.375 20.25 C-71.562 19.678 -69.749 19.105 -67.937 18.532 C-64.184 17.347 -60.431 16.162 -56.677 14.979 C-51.113 13.224 -45.55 11.462 -39.988 9.699 C-37.389 8.876 -34.79 8.053 -32.191 7.23 C-30.529 6.704 -28.866 6.177 -27.203 5.65 C-24.89 4.916 -22.576 4.185 -20.262 3.453 C-19.581 3.237 -18.901 3.021 -18.2 2.798 C-11.824 0.787 -6.656 0.005 0 0 Z " fill="#757676" transform="translate(281,121.8125)"/>
  <ns0:path d="M0 0 C3.141 3.151 3.461 5.863 3.73 10.207 C3.811 11.428 3.892 12.648 3.975 13.906 C4.045 15.195 4.115 16.484 4.188 17.812 C4.308 19.771 4.308 19.771 4.431 21.768 C4.943 30.52 5.272 39.235 5 48 C0.355 49.77 -4.028 50.44 -8.953 50.738 C-9.695 50.787 -10.436 50.836 -11.2 50.886 C-12.756 50.985 -14.312 51.08 -15.869 51.17 C-18.258 51.313 -20.644 51.481 -23.031 51.65 C-24.547 51.744 -26.062 51.836 -27.578 51.926 C-28.293 51.979 -29.007 52.032 -29.743 52.086 C-31.747 52.189 -31.747 52.189 -35 52 C-37.493 48.261 -37.245 46.305 -37.23 41.84 C-37.23 41.135 -37.23 40.431 -37.229 39.705 C-37.226 38.211 -37.218 36.718 -37.206 35.224 C-37.188 32.97 -37.185 30.717 -37.186 28.463 C-37.166 20.92 -36.929 13.495 -36 6 C-32.313 5.183 -28.626 4.372 -24.938 3.562 C-23.899 3.332 -22.861 3.102 -21.791 2.865 C-5.735 -0.652 -5.735 -0.652 0 0 Z " fill="#252535" transform="translate(256,180)"/>
  <ns0:path d="M0 0 C-0.361 9.393 -4.764 18.706 -11.308 25.484 C-17.225 30.785 -24.422 31.896 -32.062 32.812 C-33.017 32.946 -33.972 33.079 -34.955 33.217 C-42.928 34.246 -49.222 34.172 -56.02 29.57 C-63.79 23.409 -69.358 14.834 -71 5 C-68.041 4.014 -65.7 3.739 -62.602 3.519 C-60.943 3.399 -60.943 3.399 -59.252 3.277 C-58.055 3.195 -56.858 3.112 -55.625 3.027 C-53.773 2.896 -53.773 2.896 -51.883 2.763 C-48.593 2.531 -45.303 2.303 -42.012 2.077 C-38.702 1.847 -35.392 1.609 -32.082 1.373 C-29.534 1.195 -26.986 1.017 -24.438 0.84 C-23.257 0.755 -22.076 0.671 -20.86 0.584 C-13.893 0.111 -6.982 -0.107 0 0 Z " fill="#1D2126" transform="translate(400,336)"/>
  <ns0:path d="M0 0 C4.766 2.214 7.21 8.048 9.109 12.698 C10.106 15.627 10.996 18.567 11.848 21.542 C12.309 23.038 12.309 23.038 12.778 24.565 C16.451 36.961 16.451 36.961 13.973 41.917 C13.733 43.391 13.535 44.871 13.36 46.354 C11.001 65.197 11.001 65.197 6.973 72.917 C6.669 73.55 6.365 74.183 6.052 74.835 C5.385 76.208 4.685 77.566 3.973 78.917 C-0.094 79.304 -3.165 79.064 -6.515 76.55 C-15.715 66.613 -17.424 50.873 -18.027 37.917 C-18.079 36.889 -18.132 35.862 -18.187 34.803 C-18.511 23.026 -16.787 10.477 -8.777 1.354 C-5.7 -0.254 -3.441 -0.652 0 0 Z M-6.027 19.917 C-12.09 26.336 -11.361 33.336 -11.249 41.686 C-11.057 47.16 -10.226 52.346 -6.546 56.647 C-5.101 58.141 -5.101 58.141 -3.027 57.854 C-0.441 56.642 0.512 55.353 1.973 52.917 C4.812 43.513 4.202 30.687 -0.027 21.917 C-2.842 19.639 -2.842 19.639 -6.027 19.917 Z " fill="#282E36" transform="translate(160.026611328125,276.083251953125)"/>
  <ns0:path d="M0 0 C0.99 4.372 0.983 7.672 0 12 C-1.977 12.528 -3.957 13.047 -5.938 13.562 C-7.04 13.853 -8.142 14.143 -9.277 14.441 C-10.625 14.718 -10.625 14.718 -12 15 C-12.33 14.67 -12.66 14.34 -13 14 C-15.328 13.632 -17.662 13.298 -20 13 C-20 13.99 -20 14.98 -20 16 C-56.503 25.411 -56.503 25.411 -75 24 C-76.286 23.906 -77.572 23.812 -78.897 23.716 C-83.413 23.379 -87.926 23.008 -92.438 22.625 C-93.19 22.562 -93.943 22.499 -94.719 22.435 C-96.875 22.251 -99.029 22.054 -101.184 21.852 C-102.447 21.736 -103.711 21.621 -105.013 21.502 C-108 21 -108 21 -110 19 C-98.416 16.241 -86.828 13.501 -75.234 10.786 C-69.849 9.524 -64.466 8.256 -59.086 6.972 C-53.883 5.731 -48.677 4.508 -43.467 3.296 C-41.491 2.833 -39.517 2.364 -37.545 1.889 C-7.873 -5.248 -7.873 -5.248 0 0 Z " fill="#727374" transform="translate(398,136)"/>
  <ns0:path d="M0 0 C1.984 3.832 2.246 7.058 2.23 11.332 C2.229 12.543 2.227 13.754 2.225 15.002 C2.206 16.888 2.206 16.888 2.188 18.812 C2.187 20.058 2.186 21.304 2.186 22.588 C2.103 39.897 2.103 39.897 -1 43 C-3.43 43.319 -3.43 43.319 -6.445 43.414 C-7.522 43.453 -8.598 43.491 -9.707 43.531 C-11.399 43.578 -11.399 43.578 -13.125 43.625 C-14.261 43.664 -15.396 43.702 -16.566 43.742 C-19.377 43.837 -22.188 43.922 -25 44 C-26.161 41.678 -26.129 40.323 -26.133 37.738 C-26.135 36.873 -26.137 36.008 -26.14 35.117 C-26.135 34.191 -26.13 33.266 -26.125 32.312 C-26.12 31.371 -26.115 30.429 -26.11 29.459 C-26.086 26.639 -26.048 23.82 -26 21 C-25.987 20.21 -25.975 19.42 -25.962 18.606 C-25.917 16.549 -25.835 14.493 -25.75 12.438 C-25.704 11.281 -25.657 10.125 -25.609 8.934 C-24.848 5.269 -24.065 4.141 -21 2 C-18.284 1.209 -15.829 0.634 -13.062 0.188 C-12.359 0.054 -11.656 -0.079 -10.932 -0.217 C-3.595 -1.503 -3.595 -1.503 0 0 Z " fill="#242333" transform="translate(203,191)"/>
  <ns0:path d="M0 0 C11.88 7.722 16.397 24.534 19.289 37.488 C21.573 48.264 21.573 48.264 21.375 53.5 C20.715 53.5 20.055 53.5 19.375 53.5 C16.65 48.634 14.915 44.091 13.5 38.688 C11.668 31.984 9.086 26.359 5.375 20.5 C4.986 19.836 4.596 19.172 4.195 18.488 C2.593 16.118 1.137 14.67 -1.691 14.039 C-6.889 13.81 -11.137 14.79 -15.625 17.5 C-24.453 26.158 -26.382 38.86 -28.625 50.5 C-29.945 50.5 -31.265 50.5 -32.625 50.5 C-33.588 33.978 -30.227 16.192 -19.375 3.281 C-13.734 -2.461 -7.136 -2.953 0 0 Z " fill="#000103" transform="translate(243.625,268.5)"/>
  <ns0:path d="M0 0 C3.774 1.038 5.531 3.482 7.5 6.688 C12.417 16.927 13.142 28.943 9.5 39.688 C7.696 42.731 5.995 45.192 3.5 47.688 C-0.212 47.607 -1.962 47.195 -4.688 44.625 C-6.854 41.114 -8.274 37.615 -9.5 33.688 C-9.687 33.095 -9.874 32.502 -10.066 31.891 C-11.701 23.585 -11.6 13.25 -7.5 5.688 C-5.125 2.624 -3.741 1.029 0 0 Z " fill="#898C8E" transform="translate(235.5,307.3125)"/>
  <ns0:path d="M0 0 C6.93 0 13.86 0 21 0 C21 10.89 21 21.78 21 33 C17.721 33.021 14.441 33.041 11.062 33.062 C10.027 33.072 8.992 33.081 7.926 33.09 C7.116 33.093 6.307 33.095 5.473 33.098 C4.224 33.106 4.224 33.106 2.949 33.114 C1 33 1 33 0 32 C-0.088 29.624 -0.115 27.278 -0.098 24.902 C-0.096 24.193 -0.095 23.485 -0.093 22.754 C-0.088 20.482 -0.075 18.21 -0.062 15.938 C-0.057 14.4 -0.053 12.863 -0.049 11.326 C-0.039 7.551 -0.019 3.775 0 0 Z " fill="#FAAA06" transform="translate(274,278)"/>
  <ns0:path d="M0 0 C6.469 0.167 12.734 1.484 19 3 C19.627 14.805 17.793 27.153 9.938 36.438 C6.392 39.297 3.195 39.11 -1.188 39.062 C-2.818 39.049 -2.818 39.049 -4.48 39.035 C-5.312 39.024 -6.143 39.012 -7 39 C-8.516 34.267 -7.218 30.709 -5.688 26.188 C-3.331 18.811 -2.108 11.691 -1.359 4 C-1 1 -1 1 0 0 Z " fill="#252A31" transform="translate(175,315)"/>
  <ns0:path d="M0 0 C1.278 0.004 1.278 0.004 2.581 0.009 C11.206 0.073 19.791 0.519 28.396 1.075 C29.587 1.15 29.587 1.15 30.802 1.227 C34.977 1.491 39.15 1.762 43.324 2.039 C47.616 2.322 51.91 2.582 56.205 2.838 C59.535 3.04 62.864 3.258 66.193 3.482 C67.777 3.585 69.362 3.682 70.947 3.773 C73.149 3.901 75.348 4.052 77.548 4.209 C78.797 4.289 80.045 4.369 81.331 4.451 C84.986 5.226 86.212 6.225 88.494 9.122 C90.669 13.146 90.671 16.599 90.494 21.122 C90.164 21.122 89.834 21.122 89.494 21.122 C89.301 20.496 89.107 19.869 88.908 19.224 C88.648 18.406 88.387 17.589 88.119 16.747 C87.864 15.935 87.608 15.123 87.345 14.286 C86.595 11.957 86.595 11.957 84.494 10.122 C81.907 9.401 81.907 9.401 78.994 8.935 C78.014 8.755 77.035 8.576 76.025 8.392 C73.503 7.893 73.503 7.893 71.494 9.122 C69.634 8.804 69.634 8.804 67.41 8.224 C62.858 7.142 58.495 6.701 53.83 6.489 C52.637 6.427 52.637 6.427 51.42 6.363 C49.748 6.277 48.076 6.195 46.404 6.117 C43.895 5.998 41.388 5.868 38.881 5.735 C30.004 5.284 21.177 5.044 12.289 5.189 C9.494 5.122 9.494 5.122 7.494 4.122 C5.02 3.971 2.593 3.891 0.119 3.872 C-0.554 3.851 -1.227 3.831 -1.92 3.81 C-6.092 3.777 -8.482 4.175 -11.506 7.122 C-11.131 4.185 -11.131 4.185 -10.506 1.122 C-7.226 -0.518 -3.603 -0.021 0 0 Z " fill="#0C0A16" transform="translate(307.506103515625,177.8779296875)"/>
  <ns0:path d="M0 0 C2.438 0 2.438 0 5 1 C8.847 7.182 9.204 12.749 9.25 19.812 C9.271 20.594 9.291 21.376 9.312 22.182 C9.348 27.557 8.516 31.231 6 36 C5.34 36.66 4.68 37.32 4 38 C1.351 37.829 0.255 37.255 -1.625 35.375 C-4.903 29.713 -5.341 23.871 -5.312 17.5 C-5.329 16.779 -5.345 16.059 -5.361 15.316 C-5.366 10.156 -4.381 6.589 -2 2 C-1.34 1.34 -0.68 0.68 0 0 Z " fill="#878A8F" transform="translate(154,296)"/>
  <ns0:path d="M0 0 C9.329 7.23 11.929 19.966 14 31 C14.252 34.105 14.222 36.887 14 40 C11.14 37.14 10.7 33.681 9.688 29.875 C7.395 20.594 7.395 20.594 2 13 C-0.765 11.806 -3.047 11.351 -6 12 C-12.664 16.154 -13.956 22.793 -16 30 C-16.842 33.985 -17.504 37.958 -18 42 C-18.66 42 -19.32 42 -20 42 C-20.831 28.919 -18.464 13.282 -9.875 2.938 C-6.604 -0.664 -4.797 -1.562 0 0 Z " fill="#020406" transform="translate(160,265)"/>
  <ns0:path d="M0 0 C4.62 0 9.24 0 14 0 C15.017 3.051 15.166 5.242 15.188 8.438 C15.202 9.385 15.216 10.332 15.23 11.309 C14.996 14.045 14.397 15.664 13 18 C11.23 18.081 9.459 18.139 7.688 18.188 C6.701 18.222 5.715 18.257 4.699 18.293 C2 18 2 18 0.195 16.793 C-1.32 14.52 -1.569 12.839 -1.812 10.125 C-1.901 9.282 -1.99 8.439 -2.082 7.57 C-2 5 -2 5 0 0 Z " fill="#00A7EA" transform="translate(249,243)"/>
  <ns0:path d="M0 0 C1.996 1.996 1.41 5.817 1.562 8.562 C1.606 9.273 1.649 9.984 1.693 10.717 C1.8 12.478 1.9 14.239 2 16 C3.65 16.33 5.3 16.66 7 17 C7 18.32 7 19.64 7 21 C4.375 21.027 1.75 21.047 -0.875 21.062 C-1.621 21.071 -2.368 21.079 -3.137 21.088 C-8.773 21.113 -8.773 21.113 -11 20 C-11 13.73 -11 7.46 -11 1 C-7.117 -0.294 -4.093 -0.132 0 0 Z " fill="#8D8F91" transform="translate(135,292)"/>
  <ns0:path d="M0 0 C2.97 0 5.94 0 9 0 C9.889 6.332 10.294 12.613 10.562 19 C10.606 19.966 10.649 20.931 10.693 21.926 C10.798 24.284 10.9 26.642 11 29 C8.03 29 5.06 29 2 29 C1.662 25.292 1.331 21.584 1 17.875 C0.905 16.828 0.809 15.782 0.711 14.703 C0.275 9.788 -0.137 4.94 0 0 Z " fill="#FCA306" transform="translate(417,276)"/>
  <ns0:path d="M0 0 C2.31 0 4.62 0 7 0 C7 10.56 7 21.12 7 32 C4.69 31.67 2.38 31.34 0 31 C0 20.77 0 10.54 0 0 Z " fill="#FDFBF7" transform="translate(267,278)"/>
  <ns0:path d="M0 0 C2.27 1.78 3.617 3.259 4.938 5.812 C5.044 9.534 3.877 11.832 2 15 C-1.649 16.689 -3.814 17.27 -7.75 16.375 C-10.34 14.792 -11.58 13.69 -13 11 C-13.579 7.111 -13.333 5.517 -11.188 2.188 C-7.536 -1.464 -4.795 -1.272 0 0 Z " fill="#7E7E82" transform="translate(151,204)"/>
  <ns0:path d="M0 0 C2 2 2 2 2 5 C1.128 5.141 0.256 5.282 -0.643 5.427 C-3.907 5.957 -7.17 6.49 -10.433 7.026 C-11.84 7.257 -13.247 7.486 -14.655 7.713 C-16.688 8.042 -18.721 8.376 -20.754 8.711 C-22.584 9.009 -22.584 9.009 -24.451 9.314 C-28.064 10.012 -31.48 10.938 -35 12 C-35.33 10.02 -35.66 8.04 -36 6 C-32.313 5.183 -28.626 4.372 -24.938 3.562 C-23.899 3.332 -22.861 3.102 -21.791 2.865 C-6.606 -0.461 -6.606 -0.461 0 0 Z " fill="#0C0A14" transform="translate(256,180)"/>
  <ns0:path d="M0 0 C0.027 1.958 0.046 3.917 0.062 5.875 C0.074 6.966 0.086 8.056 0.098 9.18 C0 12 0 12 -1 14 C-2.979 14.027 -4.958 14.046 -6.938 14.062 C-8.04 14.074 -9.142 14.086 -10.277 14.098 C-13 14 -13 14 -14 13 C-14.099 11.002 -14.13 9 -14.125 7 C-14.128 5.907 -14.13 4.814 -14.133 3.688 C-14 1 -14 1 -13 0 C-8.354 -0.911 -4.625 -1.015 0 0 Z " fill="#00A6DA" transform="translate(203,244)"/>
  <ns0:path d="M0 0 C2.64 0 5.28 0 8 0 C8.058 3.292 8.094 6.583 8.125 9.875 C8.142 10.812 8.159 11.749 8.176 12.715 C8.182 13.611 8.189 14.507 8.195 15.43 C8.206 16.257 8.216 17.085 8.227 17.937 C8 20 8 20 6 22 C3.438 22.188 3.438 22.188 1 22 C0 21 0 21 -0.114 18.959 C-0.108 18.084 -0.103 17.21 -0.098 16.309 C-0.094 15.364 -0.091 14.42 -0.088 13.447 C-0.08 12.454 -0.071 11.461 -0.062 10.438 C-0.058 9.44 -0.053 8.443 -0.049 7.416 C-0.037 4.944 -0.021 2.472 0 0 Z " fill="#E79803" transform="translate(130,270)"/>
  <ns0:path d="M0 0 C3.5 0.125 3.5 0.125 4.5 1.125 C5.42 6.85 5.591 12.331 5.5 18.125 C1.87 18.125 -1.76 18.125 -5.5 18.125 C-5.36 15.312 -5.213 12.5 -5.062 9.688 C-5.023 8.885 -4.984 8.083 -4.943 7.256 C-4.554 0.163 -4.554 0.163 0 0 Z " fill="#4A4C50" transform="translate(272.5,137.875)"/>
  <ns0:path d="M0 0 C2.31 0 4.62 0 7 0 C7 6.27 7 12.54 7 19 C4.69 19.33 2.38 19.66 0 20 C0 13.4 0 6.8 0 0 Z " fill="#262B2F" transform="translate(145,223)"/>
  <ns0:path d="M0 0 C0.33 0.99 0.66 1.98 1 3 C-7.311 4.762 -15.504 6.42 -24 7 C-23.67 5.68 -23.34 4.36 -23 3 C-21.126 2.518 -19.251 2.039 -17.375 1.562 C-15.809 1.162 -15.809 1.162 -14.211 0.754 C-9.139 -0.437 -5.103 -1.351 0 0 Z " fill="#0C0A14" transform="translate(203,191)"/>
  <ns0:path d="M0 0 C1.32 0.33 2.64 0.66 4 1 C4.66 5.29 5.32 9.58 6 14 C-0.75 14.125 -0.75 14.125 -3 13 C-2.886 11.208 -2.759 9.416 -2.625 7.625 C-2.555 6.627 -2.486 5.63 -2.414 4.602 C-2 2 -2 2 0 0 Z " fill="#434549" transform="translate(381,151)"/>
  <ns0:path d="M0 0 C1.32 0 2.64 0 4 0 C4 6.6 4 13.2 4 20 C2.68 20.33 1.36 20.66 0 21 C0 14.07 0 7.14 0 0 Z " fill="#D9DDD9" transform="translate(134,270)"/>
  <ns0:path d="M0 0 C2.31 0 4.62 0 7 0 C6.67 3.63 6.34 7.26 6 11 C4.02 11.66 2.04 12.32 0 13 C0 8.71 0 4.42 0 0 Z " fill="#3D3A3D" transform="translate(190,160)"/>
  <ns0:path d="M0 0 C2.31 0 4.62 0 7 0 C7 0.99 7 1.98 7 3 C4.69 3.33 2.38 3.66 0 4 C0 2.68 0 1.36 0 0 Z " fill="#424245" transform="translate(378,149)"/>
  <ns0:path d="M0 0 C0.66 1.32 1.32 2.64 2 4 C0.02 4.99 0.02 4.99 -2 6 C-1.125 1.125 -1.125 1.125 0 0 Z " fill="#262B32" transform="translate(166,349)"/>
  <ns0:path d="M0 0 C0.33 0 0.66 0 1 0 C1 1.98 1 3.96 1 6 C0.67 6 0.34 6 0 6 C0 4.02 0 2.04 0 0 Z " fill="#262C32" transform="translate(173,318)"/>
  <ns0:path d="M0 0 C4 1 4 1 4 1 Z " fill="#40464C" transform="translate(275,342)"/>
  <ns0:path d="M0 0 C4 1 4 1 4 1 Z " fill="#363C41" transform="translate(385,336)"/>
  <ns0:path d="M0 0 C3 1 3 1 3 1 Z " fill="#31383E" transform="translate(284,343)"/>
  <ns0:path d="M0 0 C3 1 3 1 3 1 Z " fill="#464B51" transform="translate(271,341)"/>
  <ns0:path d="M0 0 C2 1 2 1 2 1 Z " fill="#3E4349" transform="translate(399,335)"/>
  <ns0:path d="M0 0 C1 4 1 4 1 4 Z " fill="#272D35" transform="translate(172,328)"/>
  <ns0:path d="M0 0 C4 1 4 1 4 1 Z " fill="#476B8F" transform="translate(295,157)"/>
  <ns0:path d="M0 0 C2 1 2 1 2 1 Z " fill="#4B6C8D" transform="translate(309,158)"/>
</svg>