<?xml version="1.0" ?>
<svg xmlns:ns0="http://www.w3.org/2000/svg" xmlns="http://www.w3.org/2000/svg" width="512" height="512" viewBox="0 0 512 512" style="background-color: transparent;">
  <ns0:path d="M0 0 C1.699 -0.006 3.399 -0.013 5.098 -0.021 C9.693 -0.039 14.288 -0.038 18.883 -0.032 C22.728 -0.029 26.572 -0.035 30.416 -0.041 C39.489 -0.055 48.562 -0.053 57.635 -0.042 C66.977 -0.031 76.32 -0.045 85.662 -0.071 C93.701 -0.094 101.739 -0.1 109.778 -0.094 C114.571 -0.091 119.365 -0.093 124.158 -0.111 C128.667 -0.126 133.175 -0.122 137.684 -0.103 C139.333 -0.1 140.981 -0.103 142.63 -0.113 C152.949 -0.174 161.995 0.37 170.602 6.724 C173.535 9.792 174.726 12.298 176.164 16.279 C176.656 17.604 177.148 18.928 177.641 20.252 C177.887 20.931 178.134 21.611 178.388 22.311 C179.93 26.468 181.651 30.555 183.336 34.656 C185.164 39.183 185.164 39.183 185.164 41.404 C187.142 41.396 187.142 41.396 189.16 41.388 C213.196 41.302 237.234 41.283 261.268 41.668 C263.398 41.7 265.528 41.728 267.658 41.75 C270.636 41.783 273.613 41.835 276.59 41.892 C277.896 41.902 277.896 41.902 279.229 41.912 C285.27 42.058 290.045 43.063 294.996 46.779 C296.518 48.896 297.147 50.899 297.852 53.404 C298.103 54.27 298.355 55.137 298.614 56.029 C299.164 58.404 299.164 58.404 299.164 61.404 C289.805 62.129 280.558 62.547 271.164 62.404 C271.525 63.464 271.886 64.523 272.258 65.615 C272.727 67.003 273.196 68.391 273.664 69.779 C273.903 70.478 274.141 71.176 274.387 71.896 C276.164 77.177 276.164 77.177 276.164 79.404 C277.484 79.734 278.804 80.064 280.164 80.404 C280.694 82.527 281.212 84.652 281.727 86.779 C282.017 87.962 282.307 89.146 282.606 90.365 C283.164 93.404 283.164 93.404 282.164 95.404 C278.012 95.57 274.195 95.475 270.164 94.404 C267.653 91.762 266.541 88.743 265.164 85.404 C256.4 70.45 240.131 63.603 224.204 58.935 C207.702 54.638 190.326 57.141 175.528 65.197 C173.164 66.404 173.164 66.404 171.164 66.404 C170.834 67.394 170.504 68.384 170.164 69.404 C168.742 70.605 167.317 71.805 165.832 72.927 C161.299 76.941 159.664 80.14 158.977 86.154 C158.236 92.333 158.236 92.333 157.164 93.404 C154.334 93.499 151.528 93.53 148.697 93.518 C147.81 93.518 146.922 93.518 146.007 93.518 C143.058 93.517 140.109 93.51 137.16 93.502 C135.122 93.5 133.083 93.498 131.044 93.497 C125.666 93.494 120.289 93.484 114.911 93.473 C109.429 93.463 103.946 93.458 98.463 93.453 C87.697 93.442 76.931 93.425 66.164 93.404 C65.973 92.516 65.782 91.629 65.585 90.714 C65.326 89.547 65.068 88.38 64.801 87.177 C64.548 86.022 64.295 84.866 64.034 83.675 C61.905 75.669 56.878 70.09 50.164 65.404 C34.037 56.249 14.486 54.77 -3.39 59.228 C-12.745 62.421 -21.871 66.98 -29.453 73.373 C-30.836 74.404 -30.836 74.404 -32.836 74.404 C-33.084 74.953 -33.333 75.502 -33.59 76.068 C-35.606 79.849 -38.289 83.137 -40.863 86.552 C-42.933 89.382 -42.933 89.382 -44.402 92.693 C-45.836 95.404 -45.836 95.404 -48.836 96.404 C-51.169 96.444 -53.503 96.448 -55.836 96.404 C-54.692 85.426 -54.692 85.426 -51.836 81.404 C-49.82 81.052 -47.803 80.703 -45.777 80.416 C-43.527 79.486 -43.527 79.486 -42.426 76.549 C-40.93 71.719 -39.836 67.477 -39.836 62.404 C-40.514 62.416 -41.192 62.427 -41.89 62.439 C-48.278 62.501 -54.495 62.174 -60.836 61.404 C-59.204 55.359 -56.075 50.278 -52.961 44.904 C-49.409 38.732 -45.885 32.561 -42.59 26.248 C-42.073 25.266 -41.557 24.285 -41.025 23.273 C-40.052 21.414 -39.092 19.549 -38.147 17.676 C-33.811 9.449 -28.828 3.965 -19.787 1.047 C-13.313 -0.363 -6.596 -0.02 0 0 Z M-14.836 14.404 C-16.088 16.828 -17.124 19.065 -18.086 21.592 C-20.771 28.34 -20.771 28.34 -21.836 29.404 C-22.002 31.904 -22.002 31.904 -21.836 34.404 C-19.927 36.313 -16.507 35.572 -13.977 35.597 C-12.901 35.609 -12.901 35.609 -11.804 35.622 C-9.421 35.647 -7.039 35.663 -4.656 35.677 C-3.438 35.685 -3.438 35.685 -2.196 35.694 C2.1 35.72 6.395 35.74 10.691 35.754 C15.136 35.771 19.58 35.816 24.025 35.867 C27.435 35.9 30.846 35.912 34.257 35.917 C35.896 35.924 37.535 35.939 39.173 35.963 C41.465 35.995 43.755 35.995 46.047 35.988 C47.352 35.996 48.656 36.004 50.001 36.012 C53.333 35.728 53.333 35.728 55.077 32.999 C57.824 26.442 57.638 18.421 57.164 11.404 C55.347 9.587 52.517 10.248 50.072 10.227 C48.766 10.214 47.461 10.201 46.117 10.188 C44.679 10.18 43.242 10.173 41.805 10.166 C41.084 10.162 40.363 10.158 39.62 10.153 C35.802 10.133 31.984 10.118 28.165 10.109 C24.223 10.098 20.281 10.063 16.339 10.024 C13.307 9.998 10.276 9.989 7.244 9.986 C5.791 9.981 4.338 9.969 2.885 9.951 C0.849 9.926 -1.188 9.93 -3.225 9.934 C-4.963 9.925 -4.963 9.925 -6.736 9.916 C-10.525 10.513 -12.137 11.722 -14.836 14.404 Z M86.918 12.687 C85.238 15.29 84.538 16.472 84.571 19.506 C84.573 20.243 84.576 20.98 84.578 21.74 C84.607 22.495 84.635 23.251 84.664 24.029 C84.662 24.792 84.659 25.555 84.656 26.342 C84.722 30.6 84.722 30.6 86.508 34.365 C89.862 36.469 92.809 36.539 96.658 36.565 C97.783 36.575 98.908 36.584 100.066 36.594 C101.282 36.599 102.498 36.603 103.75 36.607 C104.999 36.613 106.248 36.619 107.535 36.624 C110.18 36.634 112.824 36.641 115.469 36.644 C118.851 36.65 122.232 36.674 125.613 36.702 C128.847 36.725 132.08 36.727 135.313 36.732 C137.13 36.751 137.13 36.751 138.984 36.77 C140.681 36.765 140.681 36.765 142.412 36.76 C143.404 36.764 144.397 36.768 145.419 36.772 C148.664 36.337 150.556 35.359 153.164 33.404 C153.808 30.946 153.808 30.946 153.539 28.217 C153.488 27.242 153.436 26.267 153.383 25.263 C153.275 23.848 153.275 23.848 153.164 22.404 C153.149 21.236 153.149 21.236 153.133 20.045 C152.971 16.452 152.506 14.735 149.901 12.217 C144.951 9.189 139.115 9.814 133.504 9.838 C132.282 9.831 131.059 9.825 129.799 9.819 C127.22 9.812 124.64 9.815 122.061 9.828 C118.112 9.842 114.166 9.807 110.217 9.769 C107.709 9.768 105.2 9.77 102.692 9.775 C101.511 9.762 100.331 9.749 99.115 9.735 C92.593 9.759 92.593 9.759 86.918 12.687 Z M88.164 42.404 C88.093 43.756 88.08 45.112 88.102 46.467 C88.122 47.766 88.143 49.065 88.164 50.404 C94.663 51.243 101.058 51.513 107.602 51.529 C108.395 51.534 109.188 51.538 110.006 51.543 C113.311 51.534 116.007 51.456 119.164 50.404 C119.331 46.987 119.331 46.987 119.164 43.404 C117.305 41.116 117.305 41.116 114.383 41.161 C112.648 41.167 112.648 41.167 110.879 41.174 C109.627 41.176 108.375 41.177 107.084 41.179 C105.77 41.192 104.456 41.204 103.102 41.217 C101.784 41.217 100.466 41.218 99.108 41.219 C93.255 40.67 93.255 40.67 88.164 42.404 Z M-28.836 43.404 C-29.641 45.51 -29.641 45.51 -30.023 47.967 C-30.182 48.793 -30.34 49.619 -30.504 50.47 C-30.613 51.109 -30.723 51.747 -30.836 52.404 C-27.092 54.276 -22.644 53.718 -18.523 53.779 C-17.573 53.816 -16.622 53.854 -15.642 53.892 C-10.877 53.952 -8.59 53.963 -4.664 51.052 C-2.563 48.563 -2.563 48.563 -2.898 45.654 C-3.616 43.242 -3.616 43.242 -5.836 42.404 C-7.322 42.309 -8.812 42.273 -10.301 42.271 C-11.624 42.269 -11.624 42.269 -12.974 42.267 C-13.898 42.271 -14.822 42.275 -15.773 42.279 C-16.693 42.275 -17.613 42.271 -18.56 42.267 C-19.886 42.269 -19.886 42.269 -21.238 42.271 C-22.452 42.273 -22.452 42.273 -23.691 42.275 C-26.022 42.323 -26.022 42.323 -28.836 43.404 Z " fill="#0058B5" transform="translate(137.835693359375,150.595947265625)"/>
  <ns0:path d="M0 0 C11.717 -0.023 23.435 -0.041 35.152 -0.052 C40.592 -0.057 46.032 -0.064 51.472 -0.075 C56.718 -0.086 61.963 -0.092 67.209 -0.095 C69.215 -0.097 71.221 -0.1 73.227 -0.106 C76.026 -0.113 78.825 -0.114 81.625 -0.114 C82.463 -0.117 83.301 -0.121 84.164 -0.124 C89.886 -0.114 89.886 -0.114 91 1 C91.118 2.846 91.167 4.697 91.189 6.548 C91.206 7.738 91.223 8.928 91.24 10.154 C91.254 11.458 91.267 12.762 91.281 14.105 C91.299 15.464 91.318 16.822 91.337 18.18 C91.387 21.784 91.431 25.387 91.474 28.991 C91.541 34.668 91.612 40.345 91.69 46.022 C91.709 47.412 91.728 48.801 91.745 50.19 C91.87 59.827 92.137 69.443 92.846 79.057 C93.272 85.969 93.134 92.554 88.438 97.938 C87.633 98.618 86.829 99.299 86 100 C85.67 100.66 85.34 101.32 85 102 C67.918 102.166 50.838 101.956 33.758 101.682 C31.336 101.644 28.915 101.609 26.493 101.578 C23.04 101.533 19.586 101.475 16.133 101.414 C15.085 101.403 14.037 101.391 12.957 101.379 C11.983 101.359 11.008 101.339 10.004 101.319 C9.155 101.306 8.306 101.292 7.432 101.278 C4.596 100.954 2.515 100.358 0 99 C-4.211 91.19 -2.288 78.216 -2.266 69.57 C-2.267 67.688 -2.269 65.807 -2.271 63.925 C-2.274 60 -2.27 56.075 -2.261 52.149 C-2.249 47.119 -2.256 42.089 -2.268 37.058 C-2.275 33.181 -2.273 29.303 -2.268 25.426 C-2.266 23.57 -2.268 21.714 -2.273 19.859 C-2.278 17.272 -2.27 14.685 -2.259 12.098 C-2.263 11.333 -2.267 10.569 -2.271 9.781 C-2.241 6.035 -2.093 3.179 0 0 Z " fill="#000000" transform="translate(205,245)"/>
  <ns0:path d="M0 0 C0.987 -0.021 1.974 -0.041 2.99 -0.062 C12.428 -0.112 20.658 1.784 28.961 6.277 C31.158 7.359 33.35 8.085 35.688 8.812 C38.914 9.838 41.491 10.804 43.938 13.25 C43.938 13.91 43.938 14.57 43.938 15.25 C44.494 15.312 45.051 15.374 45.625 15.438 C48.928 16.598 50.656 18.652 52.938 21.25 C52.938 21.91 52.938 22.57 52.938 23.25 C54.423 23.745 54.423 23.745 55.938 24.25 C57 25.922 57 25.922 57.938 28 C58.458 29.081 58.458 29.081 58.988 30.184 C59.729 31.797 60.434 33.427 61.125 35.062 C63.231 37.604 64.453 37.924 67.551 38.887 C68.779 39.275 68.779 39.275 70.032 39.671 C70.661 39.862 71.29 40.053 71.938 40.25 C71.967 43.5 71.984 46.75 72 50 C72.008 50.92 72.017 51.841 72.025 52.789 C72.029 53.679 72.032 54.568 72.035 55.484 C72.04 56.301 72.046 57.118 72.051 57.96 C71.869 61.633 71.579 63.608 68.938 66.25 C68.505 68.423 68.162 70.615 67.875 72.812 C67.035 79.153 67.035 79.153 65.938 80.25 C65.611 82.771 65.326 85.285 65.062 87.812 C64.894 89.294 64.718 90.774 64.535 92.254 C64.455 92.922 64.375 93.591 64.293 94.28 C63.798 97.022 62.842 99.473 61.723 102.016 C60.58 105.267 60.037 108.616 59.438 112 C56.143 130.253 56.143 130.253 52.938 135.562 C48.388 138.122 43.921 137.513 38.938 136.25 C37.422 133.22 37.289 129.951 36.875 126.625 C36.739 125.565 36.739 125.565 36.6 124.484 C36.376 122.74 36.156 120.995 35.938 119.25 C34.125 119.222 32.313 119.203 30.5 119.188 C29.491 119.176 28.481 119.164 27.441 119.152 C24.861 119.224 22.508 119.415 19.967 119.752 C14.295 120.398 8.667 120.357 2.965 120.312 C1.842 120.309 0.72 120.305 -0.437 120.301 C-3.999 120.289 -7.562 120.27 -11.125 120.25 C-15.824 120.223 -20.523 120.203 -25.223 120.188 C-26.291 120.179 -27.358 120.171 -28.459 120.162 C-34.096 120.144 -39.487 120.402 -45.062 121.25 C-45.901 114.587 -46.263 108.032 -46.379 101.32 C-46.4 100.291 -46.42 99.261 -46.442 98.2 C-46.485 96.026 -46.526 93.853 -46.565 91.68 C-46.624 88.419 -46.689 85.159 -46.756 81.898 C-46.961 71.445 -47.132 60.996 -47.019 50.54 C-46.979 44.644 -47.353 38.809 -48.059 32.954 C-48.64 26.425 -46.173 23.022 -42.316 17.957 C-37.421 12.474 -33.271 8.459 -26.25 6.039 C-23.129 4.913 -20.148 3.513 -17.141 2.117 C-11.538 -0.221 -5.985 0.03 0 0 Z M-27.062 16.25 C-28.135 16.951 -29.207 17.653 -30.312 18.375 C-37.741 26.141 -40.302 35.775 -41.062 46.25 C-41.112 46.901 -41.161 47.552 -41.211 48.222 C-41.809 57.234 -41.457 64.631 -36.062 72.25 C-35.566 72.955 -35.07 73.66 -34.559 74.387 C-24.204 87.485 -6.68 93.654 9.371 95.535 C21.852 96.062 34.618 91.402 43.812 83 C54.051 71.711 56.387 55.215 56.371 40.52 C55.292 32.382 49.683 26.702 43.938 21.25 C40.418 18.619 36.767 16.397 32.938 14.25 C32.294 13.85 31.651 13.451 30.988 13.039 C13.499 2.947 -10.927 5.031 -27.062 16.25 Z " fill="#000000" transform="translate(344.0625,207.75)"/>
  <ns0:path d="M0 0 C5.285 4.602 9.787 9.071 12.035 15.816 C12.158 18.126 12.211 20.441 12.223 22.754 C12.237 23.98 12.251 25.206 12.266 26.469 C12.179 29.886 11.672 33.122 11.062 36.484 C9.905 43.058 9.586 49.528 9.41 56.191 C9.373 57.428 9.336 58.664 9.297 59.938 C9.041 69.335 8.934 78.729 8.91 88.129 C8.903 90.004 8.903 90.004 8.896 91.917 C8.907 97.979 9.097 103.825 10.035 109.816 C2.823 110.865 -4.373 111.233 -11.652 111.504 C-12.635 111.541 -12.635 111.541 -13.637 111.579 C-27.206 112.056 -40.664 111.394 -54.204 110.491 C-54.974 110.441 -55.745 110.391 -56.538 110.339 C-57.989 110.243 -59.439 110.141 -60.889 110.034 C-64.544 109.714 -64.544 109.714 -67.965 110.816 C-69.395 115.107 -69.298 119.383 -69.488 123.883 C-69.646 124.851 -69.803 125.819 -69.965 126.816 C-73.597 129.238 -75.348 129.027 -79.652 128.941 C-80.832 128.923 -82.011 128.905 -83.227 128.887 C-84.13 128.864 -85.034 128.84 -85.965 128.816 C-88.133 125.137 -88.847 121.231 -89.656 117.094 C-89.806 116.352 -89.957 115.61 -90.111 114.846 C-90.589 112.483 -91.058 110.118 -91.527 107.754 C-92.001 105.386 -92.477 103.019 -92.954 100.652 C-93.25 99.181 -93.544 97.709 -93.836 96.238 C-94.412 93.357 -95.035 90.607 -95.965 87.816 C-97.211 76.318 -97.276 64.671 -97.37 53.118 C-97.392 51.12 -97.426 49.122 -97.472 47.124 C-97.963 25.747 -97.963 25.747 -90.965 15.816 C-90.305 15.816 -89.645 15.816 -88.965 15.816 C-88.695 15.225 -88.426 14.633 -88.148 14.023 C-82.268 3.059 -68.236 -3.467 -56.965 -7.184 C-37.928 -12.226 -16.495 -12.148 0 0 Z M-82.355 18.922 C-87.768 25.294 -89.748 30.665 -89.383 39.082 C-87.694 54.168 -84.518 67 -72.383 77.062 C-60.265 85.852 -46.468 87.392 -31.828 85.387 C-19.978 82.824 -6.522 76.846 0.555 66.621 C5.346 58.474 6.535 51.14 6.035 41.816 C5.999 41.135 5.964 40.455 5.927 39.753 C5.315 29.581 4.257 20.287 -1.965 11.816 C-2.955 11.486 -3.945 11.156 -4.965 10.816 C-5.46 9.331 -5.46 9.331 -5.965 7.816 C-29.942 -9.929 -63.013 -1.441 -82.355 18.922 Z " fill="#000000" transform="translate(189.96484375,217.18359375)"/>
  <ns0:path d="M0 0 C6.641 5.593 12.97 11.198 14.059 20.191 C14.316 33.753 12.397 50.84 2.688 61.125 C1.81 62.067 1.81 62.067 0.914 63.027 C-7.61 71.255 -18.888 74.921 -30.562 75.438 C-46.239 74.916 -63.635 68.181 -74.641 56.695 C-75.275 55.888 -75.909 55.081 -76.562 54.25 C-77.207 53.448 -77.852 52.646 -78.516 51.82 C-85.496 41.35 -84.282 28.19 -82.117 16.223 C-79.421 5.845 -74.505 -1.313 -65.312 -6.875 C-44.079 -17.572 -18.753 -14.375 0 0 Z M-55.312 10.125 C-57.544 13.87 -57.647 16.496 -57.031 20.746 C-55.418 26.085 -51.748 29.586 -47.117 32.512 C-39.643 36.027 -30.779 36.648 -22.816 34.43 C-18.118 32.316 -15.003 29.497 -12.312 25.125 C-11.344 20.839 -11.919 17.912 -13.875 14 C-20.109 6.647 -25.951 3.003 -35.672 1.844 C-43.792 1.508 -50.052 3.782 -55.312 10.125 Z " fill="#262D36" transform="translate(386.3125,227.875)"/>
  <ns0:path d="M0 0 C0.565 0.483 1.129 0.967 1.711 1.465 C1.711 2.125 1.711 2.785 1.711 3.465 C2.701 3.795 3.691 4.125 4.711 4.465 C11.361 13.518 12.115 23.631 12.711 34.465 C12.782 35.536 12.853 36.607 12.926 37.711 C13.265 47.266 10.984 55.009 4.781 62.367 C-5.954 73.245 -20.577 78.411 -35.602 78.777 C-48.482 78.559 -60.355 75.104 -70.102 66.34 C-80.013 55.453 -83.143 39.74 -82.688 25.391 C-81.415 16.046 -74.288 9.239 -67.289 3.465 C-47.294 -10.466 -20.939 -14.043 0 0 Z M-54.289 16.465 C-57.141 20.743 -57.134 24.447 -56.289 29.465 C-54.04 34.074 -50.715 36.607 -45.977 38.402 C-37.227 40.739 -29.305 39.835 -21.289 35.465 C-17.082 31.717 -13.528 27.947 -12.977 22.215 C-13.432 16.744 -15.745 13.967 -19.602 10.215 C-31.483 2.478 -45.282 6.751 -54.289 16.465 Z " fill="#262D35" transform="translate(183.2890625,224.53515625)"/>
  <ns0:path d="M0 0 C1.049 0.001 2.097 0.001 3.178 0.002 C4.262 0.018 5.347 0.034 6.465 0.051 C7.553 0.048 8.642 0.044 9.764 0.041 C18.844 0.102 18.844 0.102 22.402 2.363 C27.662 10.802 29.691 20.934 27.995 30.708 C27.418 33.08 26.767 35.415 26.079 37.757 C25.832 38.636 25.585 39.516 25.33 40.422 C24.518 43.297 23.688 46.166 22.855 49.035 C22.281 51.046 21.708 53.058 21.135 55.07 C19.937 59.272 18.729 63.47 17.514 67.667 C15.96 73.038 14.427 78.415 12.901 83.794 C11.721 87.943 10.532 92.089 9.339 96.235 C8.77 98.216 8.203 100.199 7.64 102.182 C6.852 104.953 6.049 107.721 5.243 110.487 C5.014 111.301 4.786 112.115 4.55 112.953 C2.979 118.272 1.19 123.437 -3.561 126.719 C-7.477 127.957 -11.464 127.69 -15.535 127.676 C-16.429 127.692 -17.323 127.708 -18.244 127.725 C-21.937 127.727 -25.149 127.483 -28.727 126.531 C-31.933 122.816 -30.924 118.074 -30.598 113.363 C-30.03 109.803 -29.174 106.355 -28.254 102.871 C-28.009 101.898 -27.764 100.926 -27.512 99.924 C-26.988 97.848 -26.459 95.774 -25.925 93.702 C-24.519 88.242 -23.157 82.771 -21.793 77.301 C-21.519 76.205 -21.245 75.11 -20.963 73.982 C-18.442 63.857 -16.151 53.691 -13.973 43.488 C-13.811 42.736 -13.65 41.984 -13.483 41.209 C-12.495 36.599 -11.536 31.984 -10.598 27.363 C-10.373 26.273 -10.147 25.182 -9.916 24.059 C-9.723 23.08 -9.53 22.102 -9.332 21.094 C-9.084 19.847 -9.084 19.847 -8.831 18.575 C-8.477 15.218 -9.489 12.506 -10.598 9.363 C-11.035 6.113 -11.035 6.113 -10.598 3.363 C-7.04 0.669 -4.416 -0.014 0 0 Z " fill="#8A8C8E" transform="translate(429.59765625,227.63671875)"/>
  <ns0:path d="M0 0 C1.033 0.009 2.065 0.018 3.129 0.027 C4.272 0.045 4.272 0.045 5.438 0.062 C10.322 10.552 7.348 24.233 4.438 35.062 C1.101 43.387 -4.832 49.588 -12.562 54.062 C-24.888 59.268 -36.913 59.149 -49.562 55.062 C-60.854 50.218 -69.557 43.927 -74.66 32.535 C-78.023 23.319 -76.47 12.659 -75.562 3.062 C-71.828 -0.672 -59.527 1.004 -54.429 0.995 C-49.244 1.004 -44.06 1.029 -38.875 1.062 C-34.684 1.089 -30.492 1.109 -26.301 1.125 C-24.885 1.137 -24.885 1.137 -23.44 1.15 C-18.396 1.169 -13.5 0.942 -8.496 0.289 C-5.66 -0.043 -2.852 -0.033 0 0 Z " fill="#15171A" transform="translate(374.5625,325.9375)"/>
  <ns0:path d="M0 0 C1.53 0.101 3.061 0.201 4.591 0.299 C5.81 0.38 5.81 0.38 7.054 0.462 C27.709 1.798 48.162 1.51 68.828 0.625 C72.32 10.21 73.059 23.769 69.73 33.555 C68.319 36.514 66.808 39.017 64.828 41.625 C64.345 42.291 63.861 42.958 63.363 43.645 C56.026 52.214 43.187 56.948 32.223 57.836 C21.057 58.245 10.579 55.093 1.855 48.027 C-7.214 39.574 -10.778 26.765 -11.492 14.617 C-11.642 4.374 -11.642 4.374 -9.172 0.625 C-6.183 -0.869 -3.247 -0.242 0 0 Z " fill="#111417" transform="translate(131.171875,326.375)"/>
  <ns0:path d="M0 0 C0.884 0.005 1.767 0.009 2.678 0.014 C4.848 0.025 7.018 0.043 9.188 0.062 C10.813 2.992 11.56 5.505 12.063 8.808 C13.35 16.357 15.282 23.728 17.18 31.141 C17.571 32.681 17.962 34.221 18.353 35.761 C19.169 38.976 19.988 42.189 20.809 45.403 C21.85 49.477 22.887 53.553 23.922 57.629 C24.923 61.571 25.926 65.512 26.93 69.453 C27.115 70.183 27.301 70.912 27.492 71.664 C28.374 75.127 29.26 78.589 30.157 82.049 C30.872 84.814 31.561 87.585 32.236 90.36 C32.579 91.732 32.923 93.104 33.266 94.476 C33.713 96.304 33.713 96.304 34.169 98.17 C34.962 101.346 34.962 101.346 38.188 103.062 C37.312 107.938 37.312 107.938 36.188 109.062 C29.167 110.175 22.89 110.576 16.188 108.062 C11.698 104.687 10.781 100.504 9.363 95.318 C9.11 94.437 8.857 93.555 8.597 92.646 C7.767 89.736 6.956 86.822 6.145 83.906 C5.571 81.881 4.996 79.856 4.42 77.831 C2.908 72.503 1.412 67.171 -0.081 61.837 C-1.604 56.411 -3.142 50.989 -4.678 45.566 C-6.918 37.649 -9.153 29.73 -11.376 21.807 C-11.609 20.976 -11.842 20.146 -12.083 19.291 C-12.297 18.525 -12.511 17.76 -12.732 16.971 C-12.918 16.309 -13.103 15.647 -13.295 14.965 C-14.617 10.106 -14.897 6.111 -14.812 1.062 C-9.897 -0.23 -5.04 -0.049 0 0 Z " fill="#878A8C" transform="translate(68.8125,244.9375)"/>
  <ns0:path d="M0 0 C1.517 -0.005 3.034 -0.01 4.551 -0.015 C8.648 -0.028 12.745 -0.035 16.842 -0.039 C19.405 -0.042 21.968 -0.046 24.53 -0.051 C32.559 -0.064 40.588 -0.074 48.617 -0.078 C57.868 -0.082 67.118 -0.1 76.369 -0.129 C83.536 -0.15 90.702 -0.16 97.868 -0.162 C102.142 -0.163 106.416 -0.169 110.69 -0.187 C114.708 -0.203 118.724 -0.205 122.742 -0.196 C124.212 -0.196 125.683 -0.2 127.154 -0.21 C141.149 -0.299 141.149 -0.299 146.861 3.161 C149.537 6.528 149.861 7.773 149.861 12.161 C90.131 11.831 30.401 11.501 -31.139 11.161 C-30.132 6.125 -29.799 5.266 -26.139 2.161 C-18.776 -1.52 -8.018 0.006 0 0 Z " fill="#6F7275" transform="translate(149.13916015625,139.8388671875)"/>
  <ns0:path d="M0 0 C1.977 -0.005 1.977 -0.005 3.993 -0.009 C5.428 0.003 6.862 0.015 8.296 0.028 C9.768 0.031 11.239 0.033 12.711 0.034 C15.79 0.039 18.869 0.053 21.948 0.075 C25.903 0.104 29.857 0.114 33.812 0.119 C36.848 0.123 39.884 0.133 42.92 0.145 C44.379 0.15 45.838 0.155 47.297 0.159 C49.329 0.166 51.362 0.18 53.395 0.195 C54.553 0.202 55.711 0.209 56.904 0.216 C59.503 0.356 59.503 0.356 60.503 1.356 C61.163 8.673 60.323 16.258 58.503 23.356 C56.503 25.356 56.503 25.356 53.46 25.604 C52.153 25.602 50.846 25.601 49.499 25.599 C48.418 25.602 48.418 25.602 47.316 25.605 C44.929 25.609 42.542 25.598 40.156 25.587 C38.502 25.586 36.848 25.585 35.194 25.586 C31.726 25.584 28.259 25.576 24.791 25.562 C20.336 25.545 15.882 25.541 11.427 25.542 C8.012 25.542 4.597 25.536 1.182 25.529 C-0.461 25.526 -2.105 25.524 -3.748 25.523 C-6.039 25.521 -8.331 25.512 -10.622 25.502 C-12.582 25.496 -12.582 25.496 -14.581 25.49 C-17.497 25.356 -17.497 25.356 -18.497 24.356 C-19.156 20.009 -17.637 17.199 -15.637 13.481 C-14.172 10.751 -12.903 7.938 -11.622 5.118 C-8.635 0.441 -5.312 -0.017 0 0 Z " fill="#232333" transform="translate(134.496826171875,160.6435546875)"/>
  <ns0:path d="M0 0 C1.222 -0.002 2.443 -0.005 3.702 -0.007 C6.283 -0.006 8.865 0.007 11.446 0.032 C15.392 0.066 19.337 0.053 23.283 0.033 C25.793 0.04 28.303 0.05 30.812 0.062 C32.58 0.055 32.58 0.055 34.383 0.047 C44.888 0.198 44.888 0.198 49.473 4.629 C50.197 7.576 50.433 9.66 50.473 12.629 C50.581 14.044 50.581 14.044 50.691 15.488 C50.743 16.463 50.795 17.437 50.848 18.441 C50.897 19.355 50.946 20.269 50.996 21.211 C50.473 23.629 50.473 23.629 48.297 25.256 C45.167 26.777 43.212 27.009 39.752 27.017 C38.627 27.027 37.503 27.036 36.344 27.046 C35.139 27.04 33.933 27.034 32.691 27.027 C30.822 27.032 30.822 27.032 28.915 27.036 C25.609 27.039 22.304 27.027 18.998 27.01 C16.974 27.004 14.952 27.01 12.928 27.02 C9.037 27.039 5.146 27.036 1.254 27.027 C-0.554 27.036 -0.554 27.036 -2.399 27.046 C-3.523 27.036 -4.648 27.027 -5.807 27.017 C-6.793 27.015 -7.779 27.012 -8.796 27.01 C-12.305 26.52 -15.005 25.151 -17.527 22.629 C-17.735 19.861 -17.852 17.15 -17.902 14.379 C-17.94 13.614 -17.977 12.85 -18.016 12.062 C-18.027 11.316 -18.039 10.57 -18.051 9.801 C-18.071 9.121 -18.09 8.441 -18.111 7.741 C-15.662 -1.122 -7.49 -0.084 0 0 Z " fill="#1F202F" transform="translate(240.52734375,160.37109375)"/>
  <ns0:path d="M0 0 C4.546 3.264 8.905 6.678 11 12 C11.849 18.477 11.849 18.477 9.902 21.969 C6.688 26.015 3.162 28.991 -2 30 C-11.609 30.936 -20.415 30.532 -28.133 24.27 C-32.017 20.331 -34.079 16.76 -34.262 11.172 C-33.811 7.43 -32.539 4.777 -30 2 C-21.206 -4.697 -9.767 -4.624 0 0 Z " fill="#83878E" transform="translate(363,233)"/>
  <ns0:path d="M0 0 C3.885 3.504 6.804 6.958 7.312 12.25 C6.836 17.971 4.28 20.72 0.312 24.688 C-5.131 28.928 -11.832 30.623 -18.668 30.348 C-24.358 29.499 -29.986 27.491 -34.125 23.375 C-36.687 18.763 -37.24 15.151 -36 10 C-32.07 3.088 -25.886 -0.57 -18.438 -2.75 C-11.793 -3.432 -5.988 -3.13 0 0 Z " fill="#85888E" transform="translate(163,234)"/>
  <ns0:path d="M0 0 C1.521 4.562 1.767 8.16 -0.117 12.68 C-1.358 15.154 -2.641 17.589 -4 20 C-4.33 19.01 -4.66 18.02 -5 17 C-12.59 17.33 -20.18 17.66 -28 18 C-25.215 4.077 -25.215 4.077 -21 0.125 C-14.386 -2.355 -6.837 -1.215 0 0 Z " fill="#919394" transform="translate(83,228)"/>
  <ns0:path d="M0 0 C1.318 -0.003 2.636 -0.006 3.994 -0.01 C5.439 -0.008 6.883 -0.006 8.328 -0.003 C9.802 -0.004 11.277 -0.005 12.751 -0.006 C15.842 -0.008 18.933 -0.006 22.024 -0.001 C25.995 0.005 29.965 0.001 33.936 -0.005 C36.98 -0.008 40.025 -0.007 43.069 -0.004 C44.534 -0.004 45.998 -0.005 47.463 -0.007 C49.505 -0.009 51.547 -0.005 53.59 0 C55.336 0.001 55.336 0.001 57.118 0.002 C59.73 0.129 59.73 0.129 60.73 1.129 C60.73 2.779 60.73 4.429 60.73 6.129 C37.3 5.799 13.87 5.469 -10.27 5.129 C-7.44 -0.529 -5.972 0.004 0 0 Z " fill="#030206" transform="translate(134.269775390625,160.87060546875)"/>
  <ns0:path d="M0 0 C2.753 1.796 4.526 3.053 6 6 C6.361 11.588 6.329 13.562 3 18 C2.731 20.719 2.863 23.258 3 26 C0.03 26 -2.94 26 -6 26 C-6.062 25.072 -6.124 24.144 -6.188 23.188 C-6.658 19.828 -6.658 19.828 -9.438 18.438 C-10.283 17.963 -11.129 17.489 -12 17 C-13.728 14.094 -14.016 12.381 -13.875 9 C-12.865 5.538 -11.461 3.61 -9 1 C-5.9 -0.55 -3.421 -0.29 0 0 Z " fill="#78797C" transform="translate(400,166)"/>
  <ns0:path d="M0 0 C1.652 -0.019 1.652 -0.019 3.338 -0.039 C5.124 -0.042 5.124 -0.042 6.946 -0.045 C8.783 -0.055 8.783 -0.055 10.657 -0.066 C13.25 -0.076 15.843 -0.08 18.437 -0.08 C22.4 -0.084 26.363 -0.121 30.327 -0.159 C32.846 -0.165 35.365 -0.169 37.884 -0.17 C39.66 -0.192 39.66 -0.192 41.473 -0.214 C52.074 -0.155 52.074 -0.155 56.614 4.291 C56.614 5.281 56.614 6.271 56.614 7.291 C55.909 7.128 55.204 6.966 54.478 6.799 C51.516 6.273 48.793 6.164 45.786 6.161 C44.064 6.156 44.064 6.156 42.307 6.152 C40.462 6.155 40.462 6.155 38.579 6.158 C37.308 6.157 36.037 6.156 34.728 6.155 C32.044 6.154 29.36 6.155 26.676 6.16 C23.241 6.166 19.806 6.163 16.37 6.157 C13.086 6.152 9.801 6.155 6.516 6.158 C5.284 6.156 4.052 6.154 2.782 6.152 C1.637 6.155 0.492 6.158 -0.687 6.161 C-1.693 6.162 -2.7 6.163 -3.737 6.164 C-6.113 6.277 -8.115 6.611 -10.386 7.291 C-8.378 1.422 -6.115 0.048 0 0 Z " fill="#06060C" transform="translate(233.385986328125,160.70947265625)"/>
  <ns0:path d="M0 0 C1.314 -0.012 2.628 -0.024 3.982 -0.037 C5.235 -0.039 6.487 -0.041 7.777 -0.043 C8.934 -0.047 10.09 -0.051 11.281 -0.055 C14.062 0.188 14.062 0.188 16.062 2.188 C16.188 5.812 16.188 5.812 16.062 9.188 C12.194 10.477 8.53 10.335 4.5 10.312 C3.694 10.311 2.888 10.309 2.057 10.307 C-3.665 10.265 -9.258 9.92 -14.938 9.188 C-15.035 3.035 -15.035 3.035 -14.938 1.188 C-12.182 -1.568 -3.718 0.002 0 0 Z " fill="#009BD2" transform="translate(240.9375,191.8125)"/>
  <ns0:path d="M0 0 C0.915 -0.012 1.83 -0.024 2.773 -0.037 C3.653 -0.039 4.532 -0.041 5.438 -0.043 C6.241 -0.047 7.044 -0.051 7.871 -0.055 C10 0.188 10 0.188 13 2.188 C12.51 7.695 12.51 7.695 10.26 9.866 C7.624 11.407 6.119 11.549 3.086 11.516 C1.698 11.508 1.698 11.508 0.281 11.5 C-0.678 11.479 -1.637 11.459 -2.625 11.438 C-3.592 11.432 -4.559 11.427 -5.555 11.422 C-12.691 11.342 -12.691 11.342 -15 10.188 C-14.746 8.705 -14.471 7.227 -14.188 5.75 C-14.037 4.926 -13.886 4.103 -13.73 3.254 C-13.489 2.572 -13.248 1.89 -13 1.188 C-8.682 -0.252 -4.522 0.003 0 0 Z " fill="#00A4DE" transform="translate(122,192.8125)"/>
  <ns0:path d="M0 0 C1.883 -0.039 1.883 -0.039 3.805 -0.078 C7.125 0.25 7.125 0.25 8.965 1.379 C11.521 5.502 12.072 10.586 13.125 15.25 C4.71 15.745 4.71 15.745 -3.875 16.25 C-4.556 13.796 -5.236 11.341 -5.938 8.812 C-6.155 8.038 -6.373 7.264 -6.598 6.467 C-7.068 4.739 -7.474 2.995 -7.875 1.25 C-5.943 -0.682 -2.564 0.031 0 0 Z " fill="#E29906" transform="translate(428.875,211.75)"/>
  <ns0:path d="M0 0 C7.284 -0.023 14.568 -0.041 21.853 -0.052 C25.235 -0.057 28.617 -0.064 31.999 -0.075 C35.883 -0.088 39.768 -0.093 43.652 -0.098 C44.872 -0.103 46.092 -0.108 47.349 -0.113 C49.03 -0.113 49.03 -0.113 50.746 -0.114 C51.738 -0.116 52.731 -0.118 53.754 -0.12 C56 0 56 0 57 1 C57 2.65 57 4.3 57 6 C33.57 5.67 10.14 5.34 -14 5 C-13.67 4.01 -13.34 3.02 -13 2 C-12.67 2.66 -12.34 3.32 -12 4 C-5.797 3.88 0.406 3.756 6.61 3.628 C8.711 3.585 10.812 3.543 12.913 3.503 C15.97 3.444 19.026 3.38 22.082 3.316 C22.99 3.3 23.898 3.283 24.834 3.266 C34.245 3.062 43.582 2.496 53 2 C35.51 1.67 18.02 1.34 0 1 C0 0.67 0 0.34 0 0 Z " fill="#0C0D18" transform="translate(138,161)"/>
  <ns0:path d="M0 0 C3.96 0 7.92 0 12 0 C14.054 5.089 15.432 9.545 16 15 C9.7 18.029 9.7 18.029 6.902 17.914 C5 17 5 17 3.77 14.707 C3.454 13.752 3.138 12.797 2.812 11.812 C2.484 10.822 2.155 9.833 1.816 8.812 C0.968 5.888 0.328 3.03 0 0 Z " fill="#EDF0EF" transform="translate(409,213)"/>
  <ns0:path d="M0 0 C3.3 0 6.6 0 10 0 C11.807 6.335 9.806 12.213 7 18 C4.139 20.098 1.501 20 -2 20 C-4.271 16.594 -4.091 15.205 -3.492 11.273 C-2.652 7.393 -1.342 3.735 0 0 Z " fill="#EFF0EF" transform="translate(88,212)"/>
  <ns0:path d="M0 0 C0.905 0.023 1.81 0.046 2.742 0.07 C4.107 0.097 4.107 0.097 5.5 0.125 C6.199 0.148 6.897 0.171 7.617 0.195 C7.137 5.764 6.318 10.866 4.617 16.195 C-2.313 15.7 -2.313 15.7 -9.383 15.195 C-3.839 0.315 -3.839 0.315 0 0 Z " fill="#F29B08" transform="translate(79.3828125,211.8046875)"/>
  <ns0:path d="M0 0 C2.047 2.047 1.7 6.304 2 9 C-0.97 9 -3.94 9 -7 9 C-7 6.36 -7 3.72 -7 1 C-4.516 -0.242 -2.748 -0.141 0 0 Z " fill="#272D33" transform="translate(401,183)"/>
</svg>