<?xml version="1.0" ?>
<svg xmlns:ns0="http://www.w3.org/2000/svg" xmlns="http://www.w3.org/2000/svg" width="512" height="512" viewBox="0 0 512 512" style="background-color: transparent;">
  <ns0:path d="M0 0 C5.554 0.458 11.11 0.9 16.666 1.344 C18.723 1.509 20.779 1.676 22.836 1.844 C29.733 2.401 36.63 2.912 43.536 3.339 C44.22 3.382 44.903 3.424 45.607 3.469 C48.847 3.671 52.087 3.865 55.328 4.045 C71.624 5.037 71.624 5.037 76.192 8.279 C76.618 8.843 77.043 9.406 77.482 9.986 C77.922 10.537 78.363 11.087 78.817 11.654 C82.362 17.552 83.697 23.022 84.493 29.768 C84.653 31.026 84.653 31.026 84.817 32.31 C85.039 34.075 85.256 35.839 85.469 37.605 C85.793 40.292 86.133 42.977 86.476 45.662 C86.691 47.385 86.905 49.107 87.118 50.83 C87.218 51.625 87.318 52.42 87.421 53.239 C87.965 57.797 88.203 62.209 88.107 66.799 C89.42 66.788 90.734 66.778 92.088 66.767 C97.07 66.73 102.052 66.708 107.034 66.689 C109.17 66.679 111.306 66.665 113.442 66.648 C124.59 66.559 135.721 66.624 146.845 67.432 C147.709 67.476 148.572 67.521 149.463 67.566 C153.748 67.942 156.263 68.404 159.123 71.759 C162.958 77.635 162.483 82.952 162.732 89.861 C162.783 91.084 162.835 92.307 162.888 93.566 C162.932 94.727 162.975 95.888 163.021 97.084 C163.082 98.691 163.082 98.691 163.144 100.33 C163.107 102.799 163.107 102.799 162.107 103.799 C160.107 103.886 158.104 103.906 156.103 103.896 C154.28 103.892 154.28 103.892 152.421 103.887 C151.142 103.878 149.862 103.87 148.544 103.861 C147.261 103.857 145.977 103.852 144.655 103.848 C141.472 103.836 138.289 103.819 135.107 103.799 C135.081 103.228 135.056 102.658 135.031 102.07 C134.915 99.501 134.792 96.931 134.669 94.361 C134.61 93.015 134.61 93.015 134.55 91.641 C134.508 90.787 134.466 89.933 134.423 89.053 C134.386 88.262 134.35 87.471 134.312 86.656 C134.301 84.785 134.301 84.785 133.107 83.799 C130.867 83.704 128.625 83.681 126.384 83.685 C125.681 83.685 124.979 83.685 124.255 83.685 C121.923 83.685 119.591 83.693 117.259 83.701 C115.646 83.703 114.033 83.704 112.42 83.705 C108.167 83.709 103.914 83.719 99.661 83.73 C95.325 83.74 90.988 83.745 86.651 83.75 C78.136 83.761 69.621 83.778 61.107 83.799 C60.777 91.059 60.447 98.319 60.107 105.799 C40.967 106.129 21.827 106.459 2.107 106.799 C1.13 121.038 1.13 121.038 3.107 134.799 C5.107 136.008 5.107 136.008 7.107 136.799 C7.107 137.459 7.107 138.119 7.107 138.799 C5.127 139.129 3.147 139.459 1.107 139.799 C1.107 147.719 1.107 155.639 1.107 163.799 C0.777 162.809 0.447 161.819 0.107 160.799 C-0.853 160.613 -0.853 160.613 -1.831 160.424 C-3.893 159.799 -3.893 159.799 -4.968 157.818 C-6.186 153.845 -6.444 149.99 -6.768 145.861 C-8.296 129.682 -13.192 113.421 -23.893 100.799 C-27.756 97.676 -30.876 95.903 -35.893 95.799 C-39.077 97.099 -39.077 97.099 -41.893 98.799 C-43.378 99.294 -43.378 99.294 -44.893 99.799 C-45.998 101.616 -45.998 101.616 -46.893 103.799 C-47.272 104.499 -47.651 105.199 -48.042 105.92 C-53.762 116.722 -56.794 127.965 -57.456 140.111 C-57.521 141.222 -57.521 141.222 -57.587 142.355 C-57.692 144.17 -57.793 145.984 -57.893 147.799 C-65.235 148.037 -72.046 147.135 -79.268 145.861 C-80.887 145.588 -80.887 145.588 -82.538 145.309 C-90.427 143.954 -90.427 143.954 -93.893 142.799 C-94.414 139.083 -94.864 135.428 -95.042 131.678 C-95.634 119.25 -97.528 105.596 -105.893 95.799 C-108.786 93.774 -108.786 93.774 -111.893 93.799 C-115.098 94.737 -116.44 96.082 -118.21 98.881 C-124.34 110.501 -126.735 122.71 -125.893 135.799 C-125.563 136.459 -125.233 137.119 -124.893 137.799 C-126.543 137.799 -128.193 137.799 -129.893 137.799 C-129.893 132.519 -129.893 127.239 -129.893 121.799 C-128.903 121.304 -128.903 121.304 -127.893 120.799 C-127.563 113.869 -127.233 106.939 -126.893 99.799 C-128.873 99.469 -130.853 99.139 -132.893 98.799 C-133.092 86.002 -132.588 73.324 -131.722 60.557 C-131.518 57.539 -131.326 54.52 -131.136 51.502 C-129.158 20.976 -129.158 20.976 -123.893 14.799 C-121.359 13.613 -119.305 12.837 -116.647 12.143 C-115.943 11.941 -115.239 11.74 -114.513 11.533 C-107.03 9.446 -99.444 7.83 -91.831 6.299 C-88.927 5.706 -86.023 5.11 -83.12 4.514 C-82.41 4.369 -81.7 4.224 -80.969 4.075 C-76.763 3.209 -72.587 2.267 -68.417 1.24 C-67.44 1.006 -66.463 0.771 -65.456 0.529 C-63.742 0.113 -62.032 -0.32 -60.329 -0.779 C-41.03 -5.367 -19.542 -1.619 0 0 Z M3.107 11.799 C-0.365 14.113 -1.558 13.749 -5.517 13.136 C-10.014 12.498 -14.548 12.34 -19.081 12.111 C-20.052 12.051 -21.024 11.991 -22.024 11.93 C-22.965 11.883 -23.905 11.836 -24.874 11.787 C-25.719 11.741 -26.563 11.695 -27.433 11.648 C-30.322 11.825 -32.336 12.449 -34.893 13.799 C-36.16 17.598 -36.042 21.153 -36.018 25.111 C-36.015 25.936 -36.012 26.761 -36.008 27.612 C-35.954 34.323 -35.776 41.029 -35.518 47.736 C-35.488 48.677 -35.457 49.618 -35.425 50.587 C-35.386 51.47 -35.348 52.354 -35.308 53.264 C-35.276 54.043 -35.245 54.823 -35.212 55.627 C-34.856 58.057 -34.182 59.713 -32.893 61.799 C-29.799 63.346 -26.486 63.185 -23.081 63.361 C-21.908 63.425 -21.908 63.425 -20.71 63.49 C-11.108 63.959 -1.504 63.884 8.107 63.799 C8.437 64.459 8.767 65.119 9.107 65.799 C12.407 65.799 15.707 65.799 19.107 65.799 C19.107 65.139 19.107 64.479 19.107 63.799 C19.773 63.829 20.439 63.859 21.125 63.891 C34.761 64.494 48.395 64.931 62.044 65.049 C63.908 65.081 63.908 65.081 65.81 65.113 C66.969 65.118 68.128 65.122 69.321 65.127 C70.855 65.141 70.855 65.141 72.419 65.155 C75.562 64.738 76.928 64.094 79.107 61.799 C80.788 54.408 78.403 45.414 77.294 38.049 C77.128 36.856 76.963 35.664 76.792 34.435 C76.621 33.282 76.45 32.128 76.274 30.939 C76.047 29.385 76.047 29.385 75.814 27.8 C75.023 24.446 73.831 21.776 72.107 18.799 C69.837 17.664 68.306 17.567 65.78 17.394 C64.886 17.331 63.992 17.268 63.07 17.202 C62.103 17.139 61.135 17.075 60.138 17.01 C58.651 16.908 58.651 16.908 57.134 16.805 C55.036 16.663 52.938 16.524 50.839 16.387 C47.619 16.175 44.4 15.952 41.181 15.728 C39.146 15.592 37.11 15.457 35.075 15.322 C34.108 15.255 33.14 15.187 32.143 15.117 C31.248 15.06 30.354 15.003 29.433 14.945 C28.644 14.892 27.855 14.84 27.042 14.786 C25.022 14.657 25.022 14.657 23.107 15.799 C22.859 15.201 22.612 14.603 22.357 13.986 C20.811 11.282 19.9 10.231 17.107 8.799 C11.651 8.043 7.587 8.373 3.107 11.799 Z M-75.018 20.736 C-76.416 21.01 -76.416 21.01 -77.843 21.289 C-79.171 21.555 -79.171 21.555 -80.526 21.826 C-81.34 21.988 -82.153 22.151 -82.992 22.318 C-84.891 22.625 -84.891 22.625 -85.893 23.799 C-86.007 26.587 -86.058 29.35 -86.061 32.139 C-86.065 32.976 -86.068 33.813 -86.072 34.676 C-86.077 36.45 -86.079 38.225 -86.079 40 C-86.081 42.721 -86.099 45.442 -86.118 48.164 C-86.121 49.885 -86.123 51.605 -86.124 53.326 C-86.131 54.144 -86.138 54.962 -86.146 55.804 C-86.318 60.274 -86.318 60.274 -83.893 63.799 C-81.595 64 -81.595 64 -78.956 63.81 C-77.979 63.763 -77.002 63.716 -75.995 63.668 C-74.972 63.608 -73.948 63.548 -72.893 63.486 C-71.87 63.438 -70.846 63.39 -69.792 63.34 C-64.677 63.265 -64.677 63.265 -59.893 61.799 C-58.459 58.088 -58.714 54.07 -58.69 50.146 C-58.682 49.041 -58.682 49.041 -58.673 47.913 C-58.664 46.357 -58.657 44.801 -58.653 43.245 C-58.644 40.873 -58.612 38.501 -58.581 36.129 C-58.574 34.614 -58.569 33.099 -58.565 31.584 C-58.553 30.879 -58.541 30.173 -58.528 29.446 C-58.548 25.093 -59.085 22.191 -61.893 18.799 C-66.381 18.799 -70.631 19.852 -75.018 20.736 Z M-111.518 27.111 C-112.186 27.242 -112.854 27.373 -113.542 27.508 C-116.874 28.197 -119.026 28.887 -121.893 30.799 C-122.497 33.372 -122.497 33.372 -122.624 36.4 C-122.705 37.531 -122.785 38.661 -122.868 39.826 C-122.938 41.013 -123.009 42.201 -123.081 43.424 C-123.163 44.588 -123.245 45.752 -123.329 46.951 C-123.73 52.903 -124.103 58.834 -123.893 64.799 C-122.881 66.039 -122.881 66.039 -120.792 65.868 C-117.846 65.777 -114.901 65.67 -111.956 65.549 C-110.928 65.522 -109.9 65.495 -108.841 65.467 C-107.368 65.407 -107.368 65.407 -105.866 65.346 C-104.961 65.313 -104.056 65.281 -103.124 65.247 C-100.515 64.996 -100.515 64.996 -98.893 61.799 C-98.722 59.113 -98.661 56.533 -98.698 53.85 C-98.702 52.691 -98.702 52.691 -98.707 51.508 C-98.718 49.042 -98.743 46.577 -98.768 44.111 C-98.779 42.439 -98.788 40.766 -98.796 39.094 C-98.818 34.995 -98.852 30.897 -98.893 26.799 C-103.424 25.74 -107.019 26.14 -111.518 27.111 Z M-86.893 73.799 C-86.966 75.818 -86.977 77.84 -86.956 79.861 C-86.947 80.966 -86.938 82.071 -86.929 83.209 C-86.917 84.064 -86.905 84.918 -86.893 85.799 C-84.051 86.746 -82.217 86.933 -79.268 86.924 C-78.472 86.926 -77.675 86.929 -76.854 86.932 C-74.89 87.014 -74.89 87.014 -73.893 85.799 C-73.769 83.989 -73.718 82.175 -73.706 80.361 C-73.692 79.373 -73.678 78.384 -73.663 77.365 C-73.632 74.633 -73.632 74.633 -75.893 72.799 C-78.298 72.518 -78.298 72.518 -80.956 72.611 C-82.304 72.621 -82.304 72.621 -83.679 72.631 C-85.867 72.555 -85.867 72.555 -86.893 73.799 Z M-125.893 75.799 C-125.893 80.089 -125.893 84.379 -125.893 88.799 C-122.923 89.294 -122.923 89.294 -119.893 89.799 C-117.593 87.936 -117.593 87.936 -117.698 84.978 C-117.721 83.888 -117.745 82.797 -117.768 81.674 C-117.787 80.578 -117.805 79.482 -117.823 78.353 C-117.846 77.51 -117.87 76.667 -117.893 75.799 C-120.533 75.799 -123.173 75.799 -125.893 75.799 Z " fill="#0056B6" transform="translate(263.89349365234375,171.20123291015625)"/>
  <ns0:path d="M0 0 C1.711 -0.018 1.711 -0.018 3.457 -0.037 C9.323 -0.047 14.348 0.161 19.875 2.188 C20.765 6.758 21.009 11.096 21 15.75 C21.003 17.03 21.005 18.31 21.008 19.629 C20.896 22.631 20.579 25.278 19.875 28.188 C15.132 29.296 10.374 29.635 5.531 30.02 C4.595 30.096 3.659 30.173 2.694 30.251 C-0.412 30.504 -3.519 30.752 -6.625 31 C-8.813 31.176 -11.001 31.352 -13.189 31.529 C-139.886 41.699 -139.886 41.699 -150.125 36.188 C-152.31 31.818 -151.576 25.997 -151.75 21.188 C-151.802 19.973 -151.853 18.759 -151.906 17.508 C-151.95 16.35 -151.994 15.193 -152.039 14 C-152.08 12.934 -152.121 11.868 -152.163 10.77 C-152.125 8.188 -152.125 8.188 -151.125 6.188 C-144.67 4.674 -137.661 5.149 -131.062 5.188 C-108.305 5.313 -85.579 4.305 -62.869 2.921 C-52.279 2.28 -41.696 1.827 -31.09 1.529 C-26.588 1.394 -22.143 1.239 -17.672 0.672 C-11.795 -0.047 -5.913 0.003 0 0 Z " fill="#8B8D8F" transform="translate(416.125,304.8125)"/>
  <ns0:path d="M0 0 C0.699 -0.003 1.398 -0.007 2.119 -0.01 C4.441 -0.02 6.764 -0.022 9.086 -0.023 C10.694 -0.026 12.302 -0.029 13.91 -0.033 C17.286 -0.039 20.661 -0.041 24.036 -0.04 C28.369 -0.04 32.701 -0.054 37.033 -0.071 C40.356 -0.082 43.678 -0.084 47.001 -0.083 C48.599 -0.085 50.196 -0.089 51.794 -0.097 C54.025 -0.107 56.257 -0.104 58.488 -0.098 C60.396 -0.1 60.396 -0.1 62.342 -0.102 C65.309 0.145 65.309 0.145 67.309 2.145 C67.563 4.195 67.563 4.195 67.568 6.747 C67.574 7.701 67.58 8.656 67.587 9.639 C67.583 10.672 67.579 11.706 67.574 12.77 C67.576 13.828 67.578 14.886 67.58 15.976 C67.582 18.215 67.578 20.455 67.57 22.694 C67.559 26.131 67.569 29.568 67.582 33.005 C67.581 35.177 67.578 37.348 67.574 39.52 C67.579 40.554 67.583 41.587 67.587 42.652 C67.577 44.083 67.577 44.083 67.568 45.544 C67.566 46.386 67.564 47.228 67.563 48.096 C67.309 50.145 67.309 50.145 65.309 52.145 C59.202 53.185 53.061 53.424 46.879 53.68 C45.89 53.723 44.901 53.766 43.882 53.811 C41.792 53.9 39.703 53.989 37.614 54.075 C34.478 54.206 31.343 54.344 28.207 54.483 C16.233 54.998 4.294 55.273 -7.691 55.145 C-7.716 47.473 -7.734 39.801 -7.746 32.129 C-7.751 29.517 -7.758 26.904 -7.767 24.292 C-7.779 20.546 -7.784 16.801 -7.789 13.055 C-7.794 11.879 -7.799 10.703 -7.804 9.492 C-7.805 7.87 -7.805 7.87 -7.805 6.216 C-7.807 5.259 -7.809 4.302 -7.811 3.316 C-7.554 -1.338 -3.883 0.012 0 0 Z " fill="#000000" transform="translate(331.691162109375,253.854736328125)"/>
  <ns0:path d="M0 0 C11.095 9.442 15.76 24.506 20.578 37.844 C21.027 39.05 21.475 40.257 21.938 41.5 C22.179 42.156 22.421 42.812 22.67 43.488 C23.339 45.195 24.131 46.853 24.938 48.5 C25.928 48.83 26.918 49.16 27.938 49.5 C28.57 51.461 28.57 51.461 29.062 53.875 C30.114 57.474 30.114 57.474 32.988 59.691 C35.345 60.462 35.345 60.462 37.684 60.965 C40.003 61.516 41.851 62.364 43.938 63.5 C41.757 74.81 39.306 84.743 29.969 92.164 C21.32 97.853 6.854 97.345 -3.062 96.5 C-8.781 94.843 -12.942 90.398 -16.062 85.5 C-26.564 65.441 -30.991 39.946 -24.371 17.934 C-21.711 10.955 -18.735 4.508 -13.062 -0.5 C-8.269 -2.098 -4.59 -2.248 0 0 Z M-10.625 23.312 C-14.613 26.891 -16.634 31.657 -17.431 36.948 C-17.561 39.458 -17.567 41.926 -17.5 44.438 C-17.486 45.315 -17.472 46.192 -17.458 47.096 C-17.237 54.85 -16.324 61.633 -11.812 68.125 C-9.199 70.78 -9.199 70.78 -5.5 71.188 C-1.979 70.793 -1.979 70.793 0.25 68.375 C3.767 62.383 4.296 57.037 4.25 50.25 C4.246 49.406 4.242 48.562 4.237 47.693 C4.08 39.003 2.732 31.317 -3.062 24.5 C-6.074 22.569 -7.205 22.228 -10.625 23.312 Z " fill="#262E37" transform="translate(236.0625,282.5)"/>
  <ns0:path d="M0 0 C10.984 -0.262 21.908 0.085 32.875 0.75 C34.105 0.812 35.335 0.873 36.603 0.937 C38.342 1.053 38.342 1.053 40.117 1.172 C41.673 1.266 41.673 1.266 43.261 1.362 C46.612 2.142 47.865 3.351 50 6 C50.723 8.129 50.723 8.129 51.062 10.562 C51.206 11.522 51.349 12.481 51.496 13.469 C51.746 15.217 51.746 15.217 52 17 C52.258 18.532 52.52 20.063 52.785 21.594 C56.207 41.591 56.207 41.591 55 46 C51.806 49.052 49.524 49.368 45.18 49.328 C44.016 49.324 42.852 49.319 41.653 49.314 C40.406 49.293 39.16 49.272 37.875 49.25 C36.598 49.239 35.321 49.228 34.005 49.217 C21.329 49.073 8.662 48.603 -4 48 C-4.025 47.304 -4.05 46.609 -4.076 45.892 C-4.192 42.72 -4.315 39.547 -4.438 36.375 C-4.477 35.281 -4.516 34.186 -4.557 33.059 C-4.599 31.995 -4.64 30.932 -4.684 29.836 C-4.72 28.862 -4.757 27.888 -4.795 26.884 C-5.009 23.875 -5.459 20.967 -6 18 C-5.072 17.752 -5.072 17.752 -4.125 17.5 C-1.4 15.577 -1.047 13.63 -0.297 10.461 C0.125 6.96 0.044 3.526 0 0 Z " fill="#1C1B24" transform="translate(288,187)"/>
  <ns0:path d="M0 0 C3.979 -0.029 7.958 -0.047 11.938 -0.062 C13.054 -0.071 14.171 -0.079 15.322 -0.088 C21.64 -0.106 27.738 0.157 34 1 C33.965 1.808 33.93 2.616 33.895 3.449 C33.854 5.052 33.854 5.052 33.812 6.688 C33.778 7.743 33.743 8.799 33.707 9.887 C34.035 13.372 35.081 15.125 37 18 C37 18.66 37 19.32 37 20 C39.475 20.99 39.475 20.99 42 22 C42 31.57 42 41.14 42 51 C35.663 51.048 29.336 51.058 23 51 C21.615 50.991 21.615 50.991 20.202 50.982 C17.487 50.954 14.776 50.888 12.062 50.812 C11.217 50.807 10.372 50.801 9.501 50.795 C5.716 50.656 3.604 50.434 0.48 48.191 C-1.803 43.268 -1.681 38.493 -1.75 33.125 C-1.777 32.008 -1.805 30.892 -1.833 29.741 C-1.907 26.494 -1.955 23.248 -2 20 C-2.039 18.398 -2.079 16.797 -2.121 15.195 C-2.217 9.48 -2.245 5.282 0 0 Z " fill="#1B1A24" transform="translate(230,184)"/>
  <ns0:path d="M0 0 C-0.339 8.983 -4.319 16.467 -10.438 23 C-19.533 31.231 -33.578 31.651 -45.355 31.367 C-52.696 30.348 -57.538 24.974 -62.168 19.559 C-65.172 15.363 -67.137 10.792 -69 6 C-67.09 4.09 -63.713 4.529 -61.16 4.316 C-60.102 4.227 -60.102 4.227 -59.022 4.135 C-56.702 3.94 -54.383 3.751 -52.062 3.562 C-50.469 3.43 -48.876 3.298 -47.282 3.165 C-43.276 2.832 -39.27 2.506 -35.263 2.183 C-33.145 2.012 -31.026 1.839 -28.908 1.666 C-25.355 1.377 -21.803 1.093 -18.25 0.812 C-16.684 0.687 -16.684 0.687 -15.086 0.559 C-10.039 0.17 -5.062 -0.092 0 0 Z " fill="#1A1D21" transform="translate(393,337)"/>
  <ns0:path d="M0 0 C0.664 3.387 1.093 6.316 0.625 9.75 C-1.969 13.342 -5.776 14.113 -10 15 C-11.32 15 -12.64 15 -14 15 C-14 14.34 -14 13.68 -14 13 C-15.98 13 -17.96 13 -20 13 C-20.195 13.778 -20.389 14.556 -20.59 15.357 C-22 18 -22 18 -24.879 19.314 C-26.702 19.793 -26.702 19.793 -28.562 20.281 C-29.222 20.461 -29.882 20.64 -30.561 20.825 C-32.703 21.403 -34.851 21.952 -37 22.5 C-38.465 22.889 -39.929 23.28 -41.393 23.674 C-44.277 24.446 -47.163 25.207 -50.052 25.96 C-55.714 27.442 -61.335 29.063 -66.959 30.68 C-69.752 31.463 -72.081 32 -75 32 C-75 31.34 -75 30.68 -75 30 C-76.98 30 -78.96 30 -81 30 C-81 30.66 -81 31.32 -81 32 C-86.75 32.125 -86.75 32.125 -89 31 C-89.054 29.542 -89.093 28.084 -89.125 26.625 C-89.16 25.407 -89.16 25.407 -89.195 24.164 C-89 22 -89 22 -87 20 C-85.01 19.253 -82.991 18.583 -80.961 17.953 C-80.343 17.759 -79.725 17.565 -79.088 17.366 C-77.043 16.726 -74.994 16.095 -72.945 15.465 C-71.523 15.022 -70.1 14.579 -68.678 14.135 C-64.93 12.968 -61.179 11.808 -57.428 10.65 C-54.37 9.704 -51.314 8.753 -48.259 7.802 C-44.613 6.667 -40.967 5.534 -37.32 4.402 C-36.625 4.187 -35.93 3.971 -35.214 3.749 C-33.242 3.137 -31.27 2.527 -29.297 1.918 C-28.175 1.571 -27.053 1.224 -25.897 0.866 C-17.33 -1.695 -8.789 -1.598 0 0 Z " fill="#727374" transform="translate(234,141)"/>
  <ns0:path d="M0 0 C0.762 -0.031 1.524 -0.062 2.309 -0.094 C5.727 0.807 6.661 2.569 8.562 5.5 C9.793 8.007 10.795 10.564 11.75 13.188 C12.011 13.897 12.272 14.607 12.542 15.338 C14.448 20.726 15.545 25.763 15.562 31.5 C15.586 32.432 15.586 32.432 15.609 33.384 C15.71 39.639 15.141 45.733 14.375 51.938 C14.274 52.91 14.173 53.883 14.068 54.885 C12.989 63.618 9.971 70.565 4.562 77.5 C0.384 77.336 -1.846 77.007 -5.062 74.25 C-11.045 65.997 -13.362 55.449 -14.438 45.5 C-14.583 44.264 -14.729 43.028 -14.879 41.754 C-16.264 28.021 -14.977 12.962 -6.059 1.77 C-3.96 0.126 -2.646 0.036 0 0 Z M-4.438 19.5 C-10.19 27.479 -10.068 36.515 -8.688 46 C-7.989 50.098 -6.881 53.108 -4.438 56.5 C-1.846 57.387 -1.846 57.387 0.562 57.5 C5.014 52.081 4.771 46.999 4.812 40.25 C4.833 39.429 4.854 38.608 4.875 37.762 C4.92 30.733 3.522 25.44 -0.438 19.5 C-1.757 19.5 -3.077 19.5 -4.438 19.5 Z " fill="#272F37" transform="translate(154.4375,276.5)"/>
  <ns0:path d="M0 0 C1.265 -0.005 2.529 -0.01 3.832 -0.016 C6.919 0.229 8.612 0.615 11.188 2.25 C11.312 8.875 11.312 8.875 10.188 12.25 C4.165 13.716 -0.716 14.575 -6.812 13.25 C-7.142 14.24 -7.472 15.23 -7.812 16.25 C-10.161 17.029 -12.337 17.589 -14.75 18.074 C-15.463 18.225 -16.176 18.376 -16.91 18.532 C-18.432 18.851 -19.956 19.162 -21.48 19.467 C-23.753 19.925 -26.016 20.415 -28.281 20.908 C-38.57 23.067 -48.323 23.715 -58.812 23.25 C-60.108 23.194 -61.403 23.139 -62.738 23.082 C-66.413 22.889 -70.08 22.643 -73.75 22.375 C-74.992 22.296 -76.234 22.218 -77.514 22.137 C-78.694 22.053 -79.874 21.969 -81.09 21.883 C-82.671 21.773 -82.671 21.773 -84.285 21.661 C-86.812 21.25 -86.812 21.25 -88.812 19.25 C-74.325 15.145 -59.619 11.947 -44.938 8.625 C-42.336 8.034 -39.734 7.443 -37.133 6.852 C-25.209 4.143 -25.209 4.143 -19.711 2.905 C-17.859 2.486 -16.008 2.064 -14.158 1.635 C-13.368 1.454 -12.577 1.272 -11.762 1.085 C-10.753 0.851 -10.753 0.851 -9.723 0.612 C-6.455 -0.007 -3.329 -0.014 0 0 Z " fill="#737475" transform="translate(320.8125,148.75)"/>
  <ns0:path d="M0 0 C2.513 3.632 2.273 7.441 2.23 11.688 C2.23 12.797 2.23 12.797 2.229 13.928 C2.226 15.488 2.218 17.048 2.206 18.608 C2.188 20.992 2.185 23.375 2.186 25.758 C2.181 27.276 2.175 28.794 2.168 30.312 C2.167 31.023 2.166 31.734 2.165 32.466 C2.101 39.167 2.101 39.167 1 42 C-2.901 43.951 -7.701 43.484 -12 43.688 C-13.024 43.747 -14.047 43.807 -15.102 43.869 C-16.079 43.916 -17.056 43.963 -18.062 44.012 C-19.41 44.081 -19.41 44.081 -20.785 44.151 C-23 44 -23 44 -25 42 C-25.175 39.131 -25.231 36.36 -25.195 33.492 C-25.192 32.652 -25.19 31.811 -25.187 30.945 C-25.176 28.255 -25.15 25.565 -25.125 22.875 C-25.115 21.053 -25.106 19.232 -25.098 17.41 C-25.076 12.94 -25.041 8.47 -25 4 C-20.716 2.209 -16.491 1.16 -11.938 0.312 C-11.23 0.17 -10.523 0.028 -9.795 -0.119 C-2.813 -1.437 -2.813 -1.437 0 0 Z " fill="#1F2030" transform="translate(203,191)"/>
  <ns0:path d="M0 0 C0.049 4.93 0.086 9.859 0.11 14.789 C0.12 16.466 0.134 18.143 0.151 19.82 C0.175 22.23 0.186 24.64 0.195 27.051 C0.206 27.801 0.216 28.551 0.227 29.324 C0.227 33.103 0.151 34.774 -2 38 C-4.231 38.448 -4.231 38.448 -6.973 38.547 C-8.445 38.607 -8.445 38.607 -9.947 38.668 C-11.489 38.709 -11.489 38.709 -13.062 38.75 C-14.094 38.793 -15.126 38.835 -16.189 38.879 C-21.72 39.075 -21.72 39.075 -24 39 C-24.33 38.67 -24.66 38.34 -25 38 C-24.934 34.926 -24.806 31.881 -24.625 28.812 C-24.548 27.462 -24.548 27.462 -24.47 26.084 C-24.365 24.257 -24.258 22.429 -24.148 20.601 C-24.016 18.277 -23.908 15.954 -23.812 13.629 C-23.751 12.39 -23.689 11.151 -23.625 9.875 C-23.576 8.779 -23.527 7.684 -23.477 6.555 C-23.319 5.712 -23.162 4.869 -23 4 C-19.615 1.743 -16.536 1.079 -12.625 0.312 C-11.965 0.17 -11.305 0.028 -10.625 -0.119 C-6.722 -0.9 -3.844 -0.898 0 0 Z " fill="#232434" transform="translate(165,198)"/>
  <ns0:path d="M0 0 C6.157 -0.031 6.157 -0.031 12.438 -0.062 C14.382 -0.076 14.382 -0.076 16.365 -0.09 C17.884 -0.094 17.884 -0.094 19.434 -0.098 C20.476 -0.103 21.518 -0.108 22.592 -0.114 C25 0 25 0 26 1 C26.29 5.238 26.314 9.482 26.35 13.728 C26.367 15.156 26.394 16.584 26.432 18.011 C26.487 20.068 26.509 22.122 26.523 24.18 C26.543 25.414 26.563 26.649 26.583 27.921 C26 31 26 31 23.658 32.904 C20.486 34.212 18.113 34.366 14.688 34.312 C13.619 34.309 12.55 34.305 11.449 34.301 C8 34 8 34 0 32 C0 21.44 0 10.88 0 0 Z " fill="#E89B04" transform="translate(273,277)"/>
  <ns0:path d="M0 0 C6.939 3.785 10.172 9.225 14 16 C14.465 16.807 14.931 17.614 15.41 18.445 C20.864 28.552 24.203 40.366 24.062 51.875 C24.053 52.842 24.044 53.809 24.035 54.805 C24.024 55.529 24.012 56.254 24 57 C20.875 53.462 19.67 49.47 18.25 45.062 C14.723 34.624 10.318 22.367 1.125 15.625 C-3.024 14.405 -6.626 14.324 -10.531 16.246 C-19.803 22.833 -22.308 36.818 -24.25 47.312 C-24.508 48.874 -24.762 50.436 -25 52 C-25.99 52 -26.98 52 -28 52 C-28.76 35.94 -26.43 18.648 -16.359 5.469 C-11.605 0.332 -6.738 -1.814 0 0 Z " fill="#010204" transform="translate(234,267)"/>
  <ns0:path d="M0 0 C1 0.005 2 0.01 3.031 0.016 C4.111 0.019 5.19 0.022 6.302 0.026 C8.007 0.038 8.007 0.038 9.746 0.051 C11.456 0.058 11.456 0.058 13.201 0.065 C16.028 0.077 18.856 0.093 21.683 0.114 C21.708 4.368 21.726 8.622 21.738 12.876 C21.743 14.324 21.75 15.772 21.759 17.221 C21.771 19.298 21.777 21.376 21.781 23.453 C21.789 25.331 21.789 25.331 21.797 27.246 C21.683 30.114 21.683 30.114 20.683 31.114 C18.903 31.201 17.119 31.221 15.336 31.211 C14.256 31.208 13.177 31.205 12.064 31.201 C10.928 31.193 9.792 31.185 8.621 31.176 C7.481 31.172 6.34 31.167 5.166 31.162 C2.338 31.151 -0.489 31.134 -3.317 31.114 C-3.341 26.859 -3.359 22.605 -3.372 18.351 C-3.377 16.903 -3.383 15.455 -3.392 14.006 C-3.404 11.929 -3.41 9.851 -3.414 7.774 C-3.42 6.522 -3.425 5.27 -3.43 3.981 C-3.279 0.161 -3.279 0.161 0 0 Z " fill="#F3F4F3" transform="translate(302.316650390625,276.886474609375)"/>
  <ns0:path d="M0 0 C2.209 0.284 4.417 0.578 6.625 0.875 C8.47 1.119 8.47 1.119 10.352 1.367 C13.74 1.955 16.777 2.82 20 4 C20.848 13.795 19.11 26.09 13.5 34.375 C10.114 37.93 7.551 39.205 2.672 39.414 C1.873 39.453 1.073 39.491 0.25 39.531 C-0.988 39.578 -0.988 39.578 -2.25 39.625 C-3.09 39.664 -3.931 39.702 -4.797 39.742 C-6.864 39.836 -8.932 39.919 -11 40 C-9.976 37.912 -8.923 35.864 -7.772 33.842 C-4.186 27.31 -2.963 21.43 -2.25 14.062 C-2.028 12.032 -1.804 10.002 -1.578 7.973 C-1.49 7.088 -1.401 6.204 -1.31 5.293 C-1 3 -1 3 0 0 Z " fill="#23292F" transform="translate(170,314)"/>
  <ns0:path d="M0 0 C5.905 4.271 7.665 10.187 8.938 17.125 C9.245 20.276 9.318 23.397 9.312 26.562 C9.312 27.814 9.312 27.814 9.312 29.092 C9.181 36.161 8.079 41.983 2.938 47.125 C-0.375 47.625 -0.375 47.625 -4.062 47.125 C-9.667 42.285 -11.654 36.142 -12.247 28.86 C-12.388 26.259 -12.459 23.667 -12.5 21.062 C-12.522 20.224 -12.545 19.385 -12.568 18.521 C-12.545 12.371 -11.216 7.438 -8.062 2.125 C-4.988 -0.788 -4.086 -1.167 0 0 Z " fill="#82878D" transform="translate(231.0625,305.875)"/>
  <ns0:path d="M0 0 C6.6 0 13.2 0 20 0 C20 9.57 20 19.14 20 29 C16.886 29.186 13.771 29.371 10.562 29.562 C9.58 29.624 8.597 29.685 7.584 29.748 C6.815 29.791 6.046 29.834 5.254 29.879 C4.463 29.926 3.672 29.973 2.858 30.022 C1 30 1 30 0 29 C-0.088 26.854 -0.107 24.706 -0.098 22.559 C-0.094 21.253 -0.091 19.948 -0.088 18.604 C-0.08 17.215 -0.071 15.826 -0.062 14.438 C-0.057 13.045 -0.053 11.652 -0.049 10.26 C-0.037 6.84 -0.019 3.42 0 0 Z " fill="#F4F2E8" transform="translate(399,275)"/>
  <ns0:path d="M0 0 C3.074 1.705 5.406 3.812 7 7 C7.602 11.596 8.068 16.11 5.73 20.246 C2.423 24.117 0.469 25.878 -4.75 26.312 C-9.177 26.24 -11.64 24.969 -15 22 C-17.916 17.627 -18.569 14.213 -18 9 C-16.48 5.815 -14.717 3.264 -12 1 C-7.931 -0.356 -4.25 -0.666 0 0 Z " fill="#77797C" transform="translate(281,180)"/>
  <ns0:path d="M0 0 C6.719 3.425 9.244 10.171 11.5 17.062 C13.06 22.564 13.93 27.917 14.188 33.625 C11.557 29.679 10.074 25.394 8.398 20.986 C6.847 16.965 6.847 16.965 4.188 13.625 C1.128 13.064 -1.747 13.12 -4.812 13.625 C-11.809 19.109 -13.264 30.905 -14.32 39.191 C-14.812 41.625 -14.812 41.625 -16.812 43.625 C-18.378 42.059 -17.982 40.552 -18 38.375 C-17.828 26.296 -15.899 12.637 -8.188 2.875 C-5.319 0.157 -3.931 -0.524 0 0 Z " fill="#010306" transform="translate(154.8125,264.375)"/>
  <ns0:path d="M0 0 C2.312 0.125 2.312 0.125 5 1 C8.944 7.339 9.206 13.069 9.25 20.312 C9.271 21.142 9.291 21.972 9.312 22.826 C9.347 28.321 8.626 32.145 6 37 C4.062 38.188 4.062 38.188 2 38 C-1.748 35.244 -2.756 32.374 -4 28 C-5.243 19.541 -6.569 9.142 -1.422 1.727 C-0.953 1.157 -0.483 0.587 0 0 Z " fill="#808389" transform="translate(150,296)"/>
  <ns0:path d="M0 0 C2.68 2.68 1.881 9.439 2 13 C1.864 18.013 1.443 23.006 1 28 C-2.3 28 -5.6 28 -9 28 C-9.797 24.5 -10.119 21.286 -10.098 17.699 C-10.094 16.723 -10.091 15.746 -10.088 14.74 C-10.08 13.733 -10.071 12.725 -10.062 11.688 C-10.058 10.661 -10.053 9.634 -10.049 8.576 C-10.037 6.051 -10.021 3.525 -10 1 C-6.747 -0.627 -3.608 -0.115 0 0 Z " fill="#282F35" transform="translate(282,209)"/>
  <ns0:path d="M0 0 C2.64 0 5.28 0 8 0 C8.025 4.112 8.043 8.223 8.055 12.335 C8.06 13.735 8.067 15.135 8.075 16.534 C8.088 18.542 8.093 20.551 8.098 22.559 C8.103 23.768 8.108 24.978 8.114 26.224 C8 29 8 29 7 30 C4.69 30 2.38 30 0 30 C0 20.1 0 10.2 0 0 Z " fill="#ED9D0B" transform="translate(419,275)"/>
  <ns0:path d="M0 0 C2.31 0 4.62 0 7 0 C7 9.9 7 19.8 7 30 C5.02 30 3.04 30 1 30 C-1.558 24.147 -1.261 18.447 -1.188 12.188 C-1.187 11.126 -1.186 10.064 -1.186 8.971 C-1.14 1.14 -1.14 1.14 0 0 Z " fill="#EAEDED" transform="translate(266,277)"/>
  <ns0:path d="M0 0 C0.722 0.003 1.444 0.005 2.188 0.008 C2.909 0.005 3.631 0.003 4.375 0 C6.188 0.133 6.188 0.133 7.188 1.133 C7.261 3.829 7.28 6.5 7.25 9.195 C7.245 9.954 7.241 10.713 7.236 11.494 C7.225 13.374 7.207 15.253 7.188 17.133 C8.838 17.133 10.488 17.133 12.188 17.133 C12.518 17.793 12.847 18.453 13.188 19.133 C10.709 19.327 8.23 19.513 5.75 19.695 C5.043 19.751 4.336 19.807 3.607 19.865 C1.803 19.995 -0.005 20.068 -1.812 20.133 C-3.335 18.611 -2.942 17.251 -2.945 15.133 C-2.947 14.328 -2.948 13.524 -2.949 12.695 C-2.945 11.85 -2.941 11.004 -2.938 10.133 C-2.941 9.287 -2.945 8.442 -2.949 7.57 C-2.948 6.766 -2.947 5.962 -2.945 5.133 C-2.944 4.39 -2.943 3.648 -2.942 2.883 C-2.762 0.455 -2.424 0.178 0 0 Z " fill="#8F9193" transform="translate(126.8125,291.8671875)"/>
  <ns0:path d="M0 0 C2.938 0.188 2.938 0.188 3.938 1.188 C4.025 2.968 4.044 4.752 4.035 6.535 C4.032 7.615 4.029 8.694 4.025 9.807 C4.017 10.943 4.009 12.079 4 13.25 C3.995 14.39 3.991 15.53 3.986 16.705 C3.974 19.533 3.958 22.36 3.938 25.188 C1.298 25.188 -1.342 25.188 -4.062 25.188 C-4.288 21.397 -4.49 17.605 -4.688 13.812 C-4.752 12.732 -4.816 11.652 -4.883 10.539 C-4.934 9.508 -4.986 8.477 -5.039 7.414 C-5.091 6.461 -5.144 5.508 -5.198 4.526 C-4.977 0.706 -3.67 0.225 0 0 Z " fill="#282C2F" transform="translate(395.0625,212.8125)"/>
  <ns0:path d="M0 0 C1.642 1.642 1.288 3.492 1.375 5.75 C1.33 9.64 1.17 10.755 -1.125 14.062 C-4.214 16.144 -6.313 16.743 -10 17 C-12.87 13.76 -14.774 11.406 -15 7 C-14.158 3.82 -13.095 3.062 -10.312 1.25 C-6.628 -0.14 -3.907 -0.306 0 0 Z " fill="#ACADAE" transform="translate(407,193)"/>
  <ns0:path d="M0 0 C0.99 0.66 1.98 1.32 3 2 C3.293 4.602 3.293 4.602 3.188 7.625 C3.16 8.628 3.133 9.631 3.105 10.664 C3.071 11.435 3.036 12.206 3 13 C-7.253 15.703 -7.253 15.703 -11 14 C-12.762 11.116 -13.072 9.543 -12.625 6.188 C-12.419 5.466 -12.212 4.744 -12 4 C-10.68 3.67 -9.36 3.34 -8 3 C-8 2.34 -8 1.68 -8 1 C-5.229 -0.386 -3.067 -0.188 0 0 Z " fill="#949596" transform="translate(284,187)"/>
  <ns0:path d="M0 0 C1.021 0.804 1.021 0.804 2.062 1.625 C2.062 2.285 2.062 2.945 2.062 3.625 C1.448 3.758 0.833 3.891 0.199 4.027 C-1.013 4.292 -1.013 4.292 -2.25 4.562 C-3.051 4.737 -3.851 4.911 -4.676 5.09 C-7.083 5.624 -7.083 5.624 -9.938 6.625 C-11.282 11.76 -10.476 14.055 -7.938 18.625 C-7.938 19.615 -7.938 20.605 -7.938 21.625 C-15.879 18.628 -15.879 18.628 -17.938 14.625 C-19.145 10.261 -19.138 7.607 -16.938 3.625 C-12.3 -1.761 -6.594 -3.086 0 0 Z " fill="#7E7F82" transform="translate(403.9375,189.375)"/>
  <ns0:path d="M0 0 C0.896 -0.014 1.792 -0.028 2.715 -0.043 C5.062 0.188 5.062 0.188 7.062 2.188 C7.293 4.754 7.293 4.754 7.25 7.75 C7.24 9.237 7.24 9.237 7.23 10.754 C7.062 13.188 7.062 13.188 6.062 14.188 C4.607 14.286 3.146 14.317 1.688 14.312 C0.896 14.315 0.105 14.318 -0.711 14.32 C-2.938 14.188 -2.938 14.188 -5.938 13.188 C-5.964 11.208 -5.984 9.229 -6 7.25 C-6.012 6.148 -6.023 5.046 -6.035 3.91 C-5.871 -0.67 -4.113 0.03 0 0 Z " fill="#009BD2" transform="translate(182.9375,243.8125)"/>
  <ns0:path d="M0 0 C2.97 0.495 2.97 0.495 6 1 C6 7.93 6 14.86 6 22 C2 23 2 23 -1 22 C-1.029 18.521 -1.047 15.042 -1.062 11.562 C-1.071 10.569 -1.079 9.576 -1.088 8.553 C-1.091 7.608 -1.094 6.664 -1.098 5.691 C-1.103 4.817 -1.108 3.942 -1.114 3.041 C-1 1 -1 1 0 0 Z " fill="#D9E6F2" transform="translate(131,270)"/>
  <ns0:path d="M0 0 C0.33 1.32 0.66 2.64 1 4 C-2.98 5.809 -6.677 6.45 -11 7 C-11.66 7.206 -12.32 7.412 -13 7.625 C-16.092 8.205 -18.93 7.531 -22 7 C-22.66 8.65 -23.32 10.3 -24 12 C-24.33 12 -24.66 12 -25 12 C-25 9.36 -25 6.72 -25 4 C-20.767 2.103 -16.473 1.156 -11.938 0.312 C-11.23 0.17 -10.523 0.028 -9.795 -0.119 C-6.277 -0.783 -3.401 -1.316 0 0 Z " fill="#06050C" transform="translate(203,191)"/>
  <ns0:path d="M0 0 C0 0.99 0 1.98 0 3 C-1.234 3.364 -1.234 3.364 -2.492 3.734 C-9.485 5.834 -16.279 8.148 -23 11 C-23.188 7.625 -23.188 7.625 -23 4 C-19.615 1.743 -16.536 1.079 -12.625 0.312 C-11.965 0.17 -11.305 0.028 -10.625 -0.119 C-6.783 -0.888 -3.779 -1.087 0 0 Z " fill="#03040C" transform="translate(165,198)"/>
  <ns0:path d="M0 0 C2.97 0.495 2.97 0.495 6 1 C6.33 5.95 6.66 10.9 7 16 C4.03 16 1.06 16 -2 16 C-2.054 14.271 -2.093 12.542 -2.125 10.812 C-2.148 9.85 -2.171 8.887 -2.195 7.895 C-1.991 4.872 -1.269 2.732 0 0 Z " fill="#3B3C3E" transform="translate(214,153)"/>
  <ns0:path d="M0 0 C7.92 0 15.84 0 24 0 C24.023 4.254 24.043 8.508 24.055 12.762 C24.06 14.211 24.067 15.659 24.075 17.107 C24.088 19.185 24.093 21.262 24.098 23.34 C24.106 25.217 24.106 25.217 24.114 27.133 C24 30 24 30 23 31 C21 31.041 19 31.043 17 31 C17.99 30.34 18.98 29.68 20 29 C21.082 26.062 21.184 23.126 21.316 20.016 C21.358 19.081 21.4 18.146 21.443 17.184 C21.483 16.216 21.522 15.247 21.562 14.25 C21.606 13.266 21.649 12.283 21.693 11.27 C21.799 8.846 21.901 6.423 22 4 C21.01 4 20.02 4 19 4 C19 3.01 19 2.02 19 1 C12.73 1 6.46 1 0 1 C0 0.67 0 0.34 0 0 Z " fill="#E9D395" transform="translate(300,277)"/>
  <ns0:path d="M0 0 C0.33 4.62 0.66 9.24 1 14 C-1.64 13.67 -4.28 13.34 -7 13 C-7 8.71 -7 4.42 -7 0 C-3 -1 -3 -1 0 0 Z " fill="#3C3A3F" transform="translate(321,162)"/>
  <ns0:path d="M0 0 C2.64 0 5.28 0 8 0 C8 3.96 8 7.92 8 12 C4 14 4 14 0 13 C0 8.71 0 4.42 0 0 Z " fill="#00A6DF" transform="translate(138,247)"/>
  <ns0:path d="M0 0 C2.062 0.438 2.062 0.438 4 1 C3.34 1 2.68 1 2 1 C2.11 4.292 2.24 7.584 2.375 10.875 C2.421 12.281 2.421 12.281 2.469 13.715 C2.507 14.611 2.546 15.507 2.586 16.43 C2.617 17.257 2.649 18.085 2.681 18.937 C2.826 21.22 2.826 21.22 5 23 C3.02 22.67 1.04 22.34 -1 22 C-1.029 18.521 -1.047 15.042 -1.062 11.562 C-1.071 10.569 -1.079 9.576 -1.088 8.553 C-1.091 7.608 -1.094 6.664 -1.098 5.691 C-1.103 4.817 -1.108 3.942 -1.114 3.041 C-1 1 -1 1 0 0 Z " fill="#ED9D17" transform="translate(131,270)"/>
  <ns0:path d="M0 0 C1.98 0 3.96 0 6 0 C6 3.3 6 6.6 6 10 C3.69 10.33 1.38 10.66 -1 11 C-0.67 7.37 -0.34 3.74 0 0 Z " fill="#464649" transform="translate(153,171)"/>
  <ns0:path d="M0 0 C3.96 0.33 7.92 0.66 12 1 C8.705 4.295 7.535 4.811 3 5 C1.125 3.688 1.125 3.688 0 2 C0 1.34 0 0.68 0 0 Z " fill="#878A8F" transform="translate(394,205)"/>
  <ns0:path d="M0 0 C0.33 0.99 0.66 1.98 1 3 C-2.63 3 -6.26 3 -10 3 C-10 2.34 -10 1.68 -10 1 C-6.785 -0.607 -3.564 -0.057 0 0 Z " fill="#1A1B1E" transform="translate(282,209)"/>
  <ns0:path d="M0 0 C4 1 4 1 4 1 Z " fill="#2E353D" transform="translate(268,342)"/>
  <ns0:path d="M0 0 C3 1 3 1 3 1 Z " fill="#262C35" transform="translate(276,344)"/>
  <ns0:path d="M0 0 C3 1 3 1 3 1 Z " fill="#191A1A" transform="translate(357,339)"/>
  <ns0:path d="M0 0 C2 1 2 1 2 1 Z " fill="#293038" transform="translate(273,343)"/>
  <ns0:path d="M0 0 C2 1 2 1 2 1 Z " fill="#121314" transform="translate(333,341)"/>
  <ns0:path d="M0 0 C2 1 2 1 2 1 Z " fill="#080808" transform="translate(324,309)"/>
  <ns0:path d="M0 0 C2 1 2 1 2 1 Z " fill="#141516" transform="translate(389,306)"/>
</svg>