<?xml version="1.0" ?>
<svg xmlns:ns0="http://www.w3.org/2000/svg" xmlns="http://www.w3.org/2000/svg" width="512" height="512" viewBox="0 0 512 512" style="background-color: transparent;">
  <ns0:path d="M0 0 C1 1 2 2 3 3 C5.599 4.19 5.599 4.19 8 5 C5.75 6.5 3.724 7.68 1.312 8.84 C0.614 9.181 -0.085 9.522 -0.805 9.873 C-2.267 10.582 -3.73 11.288 -5.195 11.99 C-5.894 12.332 -6.593 12.675 -7.312 13.027 C-7.948 13.334 -8.584 13.641 -9.238 13.957 C-11.2 15.118 -12.557 16.233 -14 18 C-14.337 20.625 -14.475 22.938 -14.438 25.562 C-14.43 26.313 -14.422 27.063 -14.415 27.836 C-13.746 51.352 -3.179 80.238 13.848 96.797 C15.524 98.292 17.17 99.699 19 101 C19.845 101.605 19.845 101.605 20.707 102.223 C27.878 104.654 36.125 100.391 42.75 97.812 C43.777 97.438 44.805 97.064 45.863 96.678 C50.235 94.988 53.37 93.652 56.656 90.254 C58.363 86.122 58.667 82.557 58.75 78.125 C58.78 77.341 58.809 76.558 58.84 75.75 C58.91 73.834 58.957 71.917 59 70 C61.397 72.397 61.262 73.224 61.625 76.5 C62.652 81.995 65.007 85.033 68.613 89.203 C71.289 92.339 73.709 95.6 76.125 98.938 C77.057 100.215 77.99 101.492 78.922 102.77 C80.543 104.996 82.162 107.223 83.779 109.451 C85.641 112.012 87.508 114.568 89.375 117.125 C90.249 118.333 90.249 118.333 91.141 119.566 C94.176 123.714 97.184 127.545 101 131 C101.33 131 101.66 131 102 131 C102.289 129.866 102.577 128.731 102.875 127.562 C103.432 125.799 103.432 125.799 104 124 C104.66 123.67 105.32 123.34 106 123 C106.33 122.01 106.66 121.02 107 120 C109.812 119.688 109.812 119.688 113 120 C114.886 122.389 116 123.919 116 127 C116.99 127.33 117.98 127.66 119 128 C122.273 131.273 122.567 134.5 123 139 C122.464 138.319 121.928 137.639 121.375 136.938 C120.591 135.968 119.808 134.999 119 134 C118.277 133.082 118.277 133.082 117.539 132.145 C117.031 131.519 116.523 130.894 116 130.25 C115.526 129.657 115.051 129.064 114.562 128.453 C112.719 126.738 111.476 126.333 109 126 C106.785 126.44 106.785 126.44 105 128 C104.794 128.973 104.587 129.946 104.375 130.949 C103 134 103 134 99.445 135.391 C98.011 135.704 96.57 135.989 95.125 136.25 C88.665 137.202 88.665 137.202 83 140 C81.424 144.976 82.237 149.708 83.062 154.75 C83.198 155.581 83.334 156.413 83.474 157.269 C86.564 174.78 93.308 192.714 104 207 C95.535 210.198 87.066 212.933 78.307 215.212 C73.658 216.444 69.426 218.091 65 220 C61.471 221.148 57.892 222.114 54.316 223.105 C50.825 224.097 47.499 225.16 44.184 226.645 C40.84 228.068 38.591 228.263 35 228 C34.67 228.66 34.34 229.32 34 230 C34.104 228.744 34.209 227.489 34.316 226.195 C35.038 216.657 35.038 216.657 32.242 207.758 C29.961 205.276 27.61 203.13 25 201 C23.778 199.805 22.568 198.598 21.375 197.375 C20.814 196.823 20.254 196.272 19.676 195.703 C15.913 191.879 12.46 187.752 9.027 183.633 C3.437 177.059 3.437 177.059 -4 173 C-8.445 173.089 -12.428 174.785 -16.547 176.332 C-17.479 176.68 -17.479 176.68 -18.429 177.035 C-20.249 177.726 -22.057 178.448 -23.863 179.172 C-27 180 -27 180 -28.961 179.272 C-31.206 177.871 -32.894 176.346 -34.759 174.468 C-35.839 173.387 -35.839 173.387 -36.942 172.285 C-37.709 171.508 -38.476 170.73 -39.266 169.93 C-40.059 169.133 -40.852 168.337 -41.67 167.517 C-44.201 164.974 -46.726 162.425 -49.25 159.875 C-50.966 158.149 -52.682 156.424 -54.398 154.699 C-58.604 150.471 -62.804 146.238 -67 142 C-66.202 141.213 -65.405 140.426 -64.583 139.615 C-59.304 134.27 -57.36 128.964 -56.688 121.562 C-57.155 116.235 -59.415 113.341 -63.438 109.938 C-64.706 108.978 -64.706 108.978 -66 108 C-67.678 106.345 -69.343 104.676 -71 103 C-71.851 102.172 -72.702 101.345 -73.578 100.492 C-82.644 91.612 -90.389 81.991 -97.859 71.727 C-102.146 66.235 -102.146 66.235 -108.062 62.875 C-113.008 63.032 -116.505 64.631 -120.977 66.652 C-124.909 68.405 -128.898 69.701 -133 71 C-133.476 67.228 -133.676 63.755 -133 60 C-129.776 56.113 -125.362 54.856 -120.5 54.188 C-118.767 54.095 -118.767 54.095 -117 54 C-117 53.01 -117 52.02 -117 51 C-111.605 47.915 -107.21 46.444 -101 46 C-100.67 45.01 -100.34 44.02 -100 43 C-95.454 39.885 -90.245 38.484 -85 37 C-83.305 36.049 -81.636 35.049 -80 34 C-73.737 30.607 -69.103 29.861 -62 30 C-61.918 29.402 -61.835 28.804 -61.75 28.188 C-60.762 25.305 -59.611 24.523 -57 23 C-53.015 21.815 -49.135 21.919 -45 22 C-45 20.68 -45 19.36 -45 18 C-39.751 14.823 -34.985 14.343 -29 14 C-28.974 13.403 -28.948 12.806 -28.922 12.191 C-28 10 -28 10 -25.016 8.402 C-23.766 7.899 -22.511 7.411 -21.25 6.938 C-16.943 5.253 -12.923 3.479 -9 1 C-5.606 -0.656 -3.56 -1.543 0 0 Z " fill="#000000" transform="translate(245,169)"/>
  <ns0:path d="M0 0 C2.592 3.177 4.781 6.557 7 10 C7.513 10.664 8.026 11.328 8.555 12.012 C12.805 17.738 12.661 23.069 12 30 C11.939 30.794 11.879 31.588 11.816 32.406 C11.5 34.5 11.5 34.5 10 38 C7.354 39.5 4.77 40.759 2 42 C0.96 42.478 -0.08 42.956 -1.152 43.449 C-4.294 44.888 -7.441 46.317 -10.59 47.74 C-14.257 49.397 -17.922 51.06 -21.586 52.723 C-22.353 53.071 -23.12 53.419 -23.911 53.777 C-38.633 60.461 -53.317 67.229 -68 74 C-68.638 74.294 -69.277 74.589 -69.934 74.892 C-85.074 81.876 -100.171 88.949 -115.25 96.062 C-116.421 96.615 -116.421 96.615 -117.616 97.178 C-119.854 98.233 -122.091 99.29 -124.328 100.348 C-124.985 100.658 -125.643 100.967 -126.32 101.287 C-126.951 101.585 -127.581 101.884 -128.231 102.192 C-128.846 102.482 -129.46 102.773 -130.093 103.072 C-131.45 103.732 -132.795 104.415 -134.132 105.112 C-134.835 105.478 -135.537 105.844 -136.261 106.22 C-136.893 106.557 -137.526 106.894 -138.178 107.241 C-141.494 108.622 -143.647 108.078 -147 107 C-149.931 105.277 -152.445 103.236 -155 101 C-156.114 100.045 -156.114 100.045 -157.25 99.07 C-160.469 96.116 -162.675 93.89 -164.188 89.75 C-163.795 81.909 -162.183 74.098 -157 68 C-153.404 64.852 -149.799 62.756 -145.5 60.688 C-138.465 57.253 -131.506 53.685 -124.563 50.068 C-64.275 18.69 -64.275 18.69 -37.355 7.477 C-32.586 5.378 -27.953 3.023 -23.326 0.626 C-15.686 -3.295 -7.456 -5.394 0 0 Z " fill="#8A8C8E" transform="translate(236,127)"/>
  <ns0:path d="M0 0 C5.919 3.718 9.426 8.848 12.973 14.734 C15.399 18.642 18.021 22.379 20.688 26.125 C21.195 26.839 21.702 27.553 22.225 28.289 C23.276 29.767 24.328 31.244 25.38 32.721 C28.629 37.292 31.852 41.881 35.079 46.467 C35.549 47.134 36.019 47.801 36.504 48.488 C37.156 49.414 37.156 49.414 37.821 50.358 C38.795 51.714 39.812 53.04 40.84 54.355 C42 56 42 56 42 58 C42.846 57.567 43.691 57.134 44.562 56.688 C56.865 50.648 56.865 50.648 63 52 C69.046 56.147 73.033 61.453 76.812 67.625 C77.945 69.419 79.08 71.212 80.215 73.004 C81.125 74.452 81.125 74.452 82.054 75.93 C85.211 80.911 88.454 85.836 91.694 90.764 C92.886 92.579 94.075 94.395 95.264 96.212 C99.319 102.405 103.386 108.59 107.478 114.759 C109.529 117.852 111.576 120.948 113.623 124.044 C114.605 125.528 115.59 127.011 116.577 128.492 C122.792 137.821 128.67 147.247 133.982 157.123 C134.946 158.9 135.941 160.659 136.938 162.418 C142.215 172.155 144.614 182.068 147 192.812 C147.423 194.658 147.847 196.503 148.273 198.348 C149.544 203.892 150.777 209.445 152 215 C152.189 215.857 152.378 216.713 152.573 217.596 C159 246.724 159 246.724 159 251 C158.34 251.33 157.68 251.66 157 252 C157.195 253.212 157.195 253.212 157.395 254.449 C158.508 263.074 158.508 263.074 156.953 265.91 C155.563 267.25 155.563 267.25 153 269 C151.791 266.582 151.965 265.19 152.062 262.5 C152.137 252.042 148.83 241.988 146 232 C145.536 230.36 145.536 230.36 145.062 228.688 C143.248 222.76 141.005 218.108 137.375 213.09 C136.01 211.015 135.218 209.16 134.438 206.812 C133.062 202.695 130.869 200.237 128 197 C127.691 196.237 127.381 195.474 127.062 194.688 C126.038 192.624 126.038 192.624 122.875 192.25 C121.926 192.168 120.977 192.085 120 192 C119.67 193.32 119.34 194.64 119 196 C118.34 196 117.68 196 117 196 C116.814 197.702 116.814 197.702 116.625 199.438 C116.419 200.613 116.212 201.789 116 203 C115.34 203.33 114.68 203.66 114 204 C110.533 200.649 107.482 197.21 104.562 193.375 C104.145 192.827 103.727 192.279 103.297 191.715 C98.241 185.052 93.305 178.3 88.355 171.559 C84.831 166.761 81.261 161.999 77.672 157.25 C74.577 153.085 73.451 149.843 72.625 144.812 C67.387 115.138 67.387 115.138 52 90 C52 89.01 52 88.02 52 87 C51.34 87 50.68 87 50 87 C49.752 86.134 49.505 85.267 49.25 84.375 C46.554 77.097 41.169 69.729 34.5 65.562 C30.904 63.957 28.872 63.384 25 64 C22.136 66.213 21.472 68.189 20.812 71.688 C20.654 72.496 20.495 73.304 20.332 74.137 C20.222 74.752 20.113 75.366 20 76 C15.342 75.371 15.342 75.371 13.5 73.375 C13.005 72.921 12.51 72.468 12 72 C9.599 72.196 9.599 72.196 7 73 C5.001 73.339 3.001 73.674 1 74 C3.319 71.681 4.901 71.339 8 70.375 C12.369 68.679 12.369 68.679 14.625 64.5 C14.936 62.368 14.936 62.368 15 60 C15.081 58.509 15.081 58.509 15.164 56.988 C15.305 51.768 15.212 47.801 13 43 C13.66 43 14.32 43 15 43 C14.752 41.783 14.505 40.566 14.25 39.312 C14.041 38.286 14.041 38.286 13.828 37.238 C12.743 34.306 10.996 32.401 9 30 C6.93 26.905 4.915 23.778 2.902 20.645 C1.101 17.813 1.101 17.813 -2 16 C-7.981 16.271 -12.965 18.399 -18.375 20.75 C-19.174 21.085 -19.973 21.42 -20.797 21.766 C-25.786 23.897 -30.495 26.309 -35.174 29.056 C-37 30 -37 30 -39 30 C-39 26.7 -39 23.4 -39 20 C-42.499 20.581 -45.311 21.478 -48.46 23.098 C-49.313 23.532 -50.165 23.967 -51.043 24.415 C-51.954 24.888 -52.866 25.36 -53.805 25.848 C-54.761 26.338 -55.717 26.828 -56.702 27.333 C-59.763 28.904 -62.819 30.483 -65.875 32.062 C-67.893 33.099 -69.911 34.135 -71.93 35.17 C-81.684 40.181 -91.408 45.238 -101.043 50.474 C-103.657 51.823 -106.248 52.967 -109 54 C-109 53.34 -109 52.68 -109 52 C-111.475 52.495 -111.475 52.495 -114 53 C-112.625 51.5 -112.625 51.5 -111 50 C-110.34 50 -109.68 50 -109 50 C-109 49.34 -109 48.68 -109 48 C-108.327 47.841 -107.655 47.682 -106.962 47.519 C-100.005 45.765 -93.902 43.294 -87.531 40.027 C-86.571 39.545 -85.61 39.062 -84.621 38.565 C-81.576 37.032 -78.538 35.485 -75.5 33.938 C-73.495 32.927 -71.49 31.917 -69.484 30.908 C-58.652 25.446 -47.879 19.876 -37.16 14.195 C-7.075 -1.73 -7.075 -1.73 0 0 Z M71 75 C71.037 91.857 75.539 102.065 85.461 115.52 C89.165 120.552 92.57 125.779 96 131 C96.66 131.99 97.32 132.98 98 134 C98.66 134 99.32 134 100 134 C99.433 120.772 98.456 110.331 90.109 99.715 C88.048 97.061 86.266 94.356 84.5 91.5 C80.944 85.835 77.311 80.124 73 75 C72.34 75 71.68 75 71 75 Z M88 126 C88.321 132.954 90.38 136.931 94.438 142.5 C94.941 143.227 95.444 143.954 95.963 144.703 C97.874 147.437 97.874 147.437 100 150 C100.66 150 101.32 150 102 150 C103.062 141.961 99.666 137.345 95 131 C94.325 130.065 93.649 129.131 92.953 128.168 C92.309 127.453 91.664 126.737 91 126 C90.01 126 89.02 126 88 126 Z M111 133 C111.811 146.615 112.999 155.743 121 167 C121.801 168.141 122.602 169.281 123.402 170.422 C125.907 173.968 128.449 177.487 131 181 C131.405 181.559 131.81 182.118 132.228 182.694 C134.48 185.8 136.737 188.902 139 192 C141.588 183.644 137.389 171.969 133.742 164.384 C130.543 158.662 126.808 153.327 123 148 C122.02 146.581 121.042 145.16 120.066 143.738 C116.282 137.546 116.282 137.546 111 133 Z M136 194 C135.873 202.526 138.683 207.476 144 214 C144.99 213.67 145.98 213.34 147 213 C145.755 205.671 142.571 199.864 138 194 C137.34 194 136.68 194 136 194 Z " fill="#0258B6" transform="translate(232,97)"/>
  <ns0:path d="M0 0 C17.995 12.164 27.815 39.248 32.34 59.578 C33.073 64.49 33.233 69.431 33.34 74.391 C33.366 75.156 33.392 75.922 33.419 76.711 C33.434 81.944 32.518 84.994 28.965 89.078 C26.73 90.547 26.73 90.547 24.215 91.578 C22.776 92.17 22.776 92.17 21.309 92.773 C20.205 93.204 19.102 93.635 17.965 94.078 C16.621 94.637 15.277 95.197 13.934 95.758 C12.528 96.325 11.122 96.89 9.715 97.453 C9.054 97.728 8.393 98.004 7.712 98.287 C3.067 100.078 -0.211 100.231 -5.035 99.078 C-22.228 89.766 -31.407 67.404 -36.973 49.578 C-37.707 47.087 -38.378 44.592 -39.035 42.078 C-39.28 41.141 -39.525 40.204 -39.777 39.238 C-41.516 31.32 -43.533 19.491 -40.031 11.902 C-38.149 10.079 -36.426 9.18 -34.035 8.078 C-33.445 7.793 -32.854 7.508 -32.246 7.214 C-8.856 -4.011 -8.856 -4.011 0 0 Z M2.965 22.078 C0.408 25.913 0.43 28.651 0.965 33.078 C3.566 45.759 8.139 58.345 18.965 66.078 C21.013 65.515 21.013 65.515 22.965 64.078 C25.806 54.496 21.36 44.145 17.152 35.578 C16.833 34.92 16.514 34.262 16.186 33.584 C13.762 28.903 11 25.496 6.965 22.078 C5.645 22.078 4.325 22.078 2.965 22.078 Z " fill="#262B32" transform="translate(271.03515625,172.921875)"/>
  <ns0:path d="M0 0 C4.646 2.672 7.115 6.891 10.062 11.23 C17.746 22.214 27.111 33.259 37.516 41.781 C42.846 46.158 48.459 51.346 49.5 58.375 C48.594 64.944 47.014 71.382 42 76 C39.128 77.664 36.089 78.798 33 80 C31.551 80.6 30.104 81.202 28.656 81.805 C27.063 82.454 25.469 83.103 23.875 83.75 C23.111 84.068 22.347 84.386 21.56 84.714 C15.75 87.02 11.049 88.062 4.938 85.934 C-10.361 78.142 -19.041 64.699 -24.781 48.801 C-28.898 35.962 -31.852 21.754 -26 9 C-20.168 2.257 -8.547 -1.916 0 0 Z " fill="#191D22" transform="translate(140,232)"/>
  <ns0:path d="M0 0 C11.841 10.904 17.008 26.528 21.75 41.438 C21.961 42.1 22.172 42.762 22.389 43.444 C24.422 50.023 25.199 56.195 25.25 63.062 C25.271 63.757 25.291 64.451 25.312 65.166 C25.347 69.647 24.8 72.47 22 76 C14.706 80.541 3.694 85.116 -5 84 C-17.828 76.791 -23.941 58.395 -28 45 C-34.057 23.063 -34.057 23.063 -33 15 C-30.277 11.358 -27.396 10.144 -23.125 8.812 C-22.117 8.489 -21.109 8.165 -20.07 7.832 C-17.056 7.015 -14.087 6.456 -11 6 C-10.752 5.051 -10.505 4.103 -10.25 3.125 C-9 0 -9 0 -7.188 -1.5 C-3.945 -2.241 -2.876 -1.739 0 0 Z M2 18 C0.61 19.18 0.61 19.18 0.625 22.5 C0.762 33.203 4.735 46.04 12 54 C12.99 54.66 13.98 55.32 15 56 C15.99 55.505 15.99 55.505 17 55 C17.969 42.043 14.723 31.358 7.527 20.574 C5.728 18.719 4.548 18.281 2 18 Z " fill="#252B32" transform="translate(359,296)"/>
  <ns0:path d="M0 0 C5.746 4.058 10.568 9.415 15.094 14.773 C17.016 17.019 18.996 19.204 21.001 21.377 C21.959 22.418 22.912 23.464 23.858 24.516 C25.992 26.878 28.1 29.089 30.484 31.207 C34.725 35.14 36.422 38.022 36.743 43.926 C36.766 50.766 36.031 56.335 32 62 C27.753 66.119 23.152 67.606 17.625 69.312 C16.8 69.589 15.975 69.866 15.125 70.15 C10.069 71.743 6.26 72.423 1 71 C-10.929 64.034 -17.486 48.958 -21.039 36.297 C-23.03 27.403 -26.01 13.311 -21 5 C-18.285 3.453 -18.285 3.453 -15.062 2.25 C-14.002 1.843 -12.941 1.435 -11.848 1.016 C-7.253 -0.623 -4.794 -1.254 0 0 Z " fill="#1C2125" transform="translate(244,342)"/>
  <ns0:path d="M0 0 C3.164 0.171 4.702 0.746 7.125 2.812 C11.151 9.657 12.861 18.109 12 26 C9.069 29.681 5.015 30.535 0.676 31.871 C-0.19 32.146 -1.056 32.42 -1.948 32.703 C-4.858 33.624 -7.773 34.531 -10.688 35.438 C-12.743 36.084 -14.799 36.732 -16.854 37.38 C-21.381 38.805 -25.909 40.223 -30.439 41.638 C-36.47 43.52 -42.498 45.412 -48.525 47.307 C-55.778 49.588 -63.033 51.864 -70.288 54.139 C-71.721 54.588 -73.153 55.037 -74.586 55.487 C-78.707 56.78 -82.828 58.07 -86.951 59.357 C-88.814 59.939 -90.675 60.523 -92.537 61.107 C-110.576 66.73 -110.576 66.73 -117 65 C-119.438 62.938 -119.438 62.938 -121 61 C-119.307 60.154 -117.615 59.307 -115.922 58.461 C-113.758 57.02 -113.758 57.02 -112.41 54.119 C-109.239 50.015 -106.351 49.148 -101.52 47.633 C-100.682 47.352 -99.844 47.071 -98.981 46.781 C-96.265 45.875 -93.539 44.999 -90.812 44.125 C-88.945 43.511 -87.078 42.896 -85.211 42.279 C-81.516 41.061 -77.816 39.856 -74.113 38.661 C-69.718 37.24 -65.343 35.77 -60.973 34.277 C-58.774 33.538 -56.575 32.8 -54.375 32.062 C-52.915 31.559 -52.915 31.559 -51.425 31.045 C-45.511 29.116 -40.816 28.092 -35 31 C-28.709 30.894 -22.708 29.331 -16.75 27.438 C-15.974 27.223 -15.198 27.008 -14.398 26.787 C-9.861 25.343 -7.615 23.992 -5.141 19.848 C-4.79 19.148 -4.44 18.448 -4.079 17.727 C-3 16 -3 16 0 15 C-0.084 14.001 -0.168 13.002 -0.254 11.973 C-0.407 10.037 -0.407 10.037 -0.562 8.062 C-0.719 6.131 -0.719 6.131 -0.879 4.16 C-0.939 2.596 -0.939 2.596 -1 1 C-0.67 0.67 -0.34 0.34 0 0 Z " fill="#87898B" transform="translate(389,348)"/>
  <ns0:path d="M0 0 C-0.143 2.021 -0.289 4.042 -0.438 6.062 C-0.559 7.751 -0.559 7.751 -0.684 9.473 C-0.788 10.637 -0.892 11.801 -1 13 C-1.061 14.221 -1.121 15.441 -1.184 16.699 C-2 20 -2 20 -4.352 22.047 C-5.972 22.89 -5.972 22.89 -7.625 23.75 C-8.244 24.078 -8.863 24.406 -9.501 24.744 C-11.651 25.865 -13.821 26.937 -16 28 C-16.776 28.381 -17.552 28.762 -18.352 29.154 C-22.903 31.373 -27.474 33.546 -32.055 35.703 C-37.457 38.253 -42.83 40.859 -48.195 43.484 C-48.988 43.872 -49.782 44.26 -50.599 44.659 C-53.802 46.224 -57.004 47.79 -60.204 49.363 C-62.453 50.468 -64.705 51.568 -66.957 52.668 C-67.639 53.005 -68.322 53.342 -69.025 53.689 C-73.773 56 -73.773 56 -76 56 C-75.634 50.601 -74.792 45.495 -73.438 40.25 C-73.168 39.183 -72.899 38.115 -72.621 37.016 C-69.144 30.548 -60.532 27.63 -54.137 24.488 C-53.305 24.075 -52.474 23.662 -51.617 23.236 C-48.976 21.925 -46.332 20.618 -43.688 19.312 C-40.232 17.603 -36.778 15.89 -33.324 14.176 C-32.474 13.756 -31.624 13.336 -30.749 12.903 C-26.327 10.706 -21.949 8.451 -17.612 6.091 C-16.746 5.623 -15.88 5.154 -14.988 4.671 C-13.337 3.772 -11.693 2.864 -10.055 1.943 C-9.317 1.542 -8.58 1.141 -7.82 0.727 C-7.176 0.369 -6.533 0.01 -5.87 -0.359 C-3.552 -1.154 -2.281 -0.787 0 0 Z " fill="#000000" transform="translate(194,117)"/>
  <ns0:path d="M0 0 C4.421 1.504 6.25 4.929 8.625 8.688 C9.502 10.041 10.38 11.393 11.258 12.746 C11.707 13.445 12.156 14.143 12.618 14.863 C14.873 18.351 17.189 21.799 19.5 25.25 C20.323 26.484 21.146 27.719 21.969 28.953 C22.639 29.959 23.309 30.964 24 32 C29.067 39.6 28.516 50.165 29 59 C28.34 59 27.68 59 27 59 C25.323 56.88 25.323 56.88 23.332 53.918 C22.239 52.301 22.239 52.301 21.123 50.65 C20.353 49.496 19.583 48.342 18.812 47.188 C18.062 46.076 17.312 44.964 16.561 43.854 C13.02 38.595 9.521 33.309 6.074 27.988 C5.254 26.722 5.254 26.722 4.417 25.431 C2.138 21.52 0.782 18.108 0.586 13.574 C0.547 12.778 0.509 11.982 0.469 11.162 C0.438 10.345 0.407 9.529 0.375 8.688 C0.336 7.852 0.298 7.016 0.258 6.154 C0.164 4.103 0.081 2.052 0 0 Z " fill="#242334" transform="translate(303,172)"/>
  <ns0:path d="M0 0 C4.962 4.464 8.366 9.749 12 15.312 C12.603 16.225 13.207 17.137 13.828 18.076 C15.016 19.877 16.195 21.683 17.367 23.494 C18.371 25.035 19.395 26.565 20.45 28.073 C24.029 33.335 25.519 38.57 26.875 44.75 C27.099 45.682 27.324 46.614 27.555 47.574 C29.273 55.06 29.273 55.06 28 59 C22.911 52.365 17.99 45.639 13.25 38.75 C12.803 38.102 12.356 37.453 11.895 36.785 C10.583 34.866 9.286 32.937 8 31 C7.539 30.307 7.079 29.615 6.604 28.901 C4.364 25.441 2.432 22.443 1.75 18.312 C1.613 17.486 1.477 16.66 1.336 15.809 C0.707 10.552 0.315 5.284 0 0 Z " fill="#252537" transform="translate(343,230)"/>
  <ns0:path d="M0 0 C5.183 0.673 7.011 2.503 10.23 6.445 C16.366 15.303 21.586 27.426 20.836 38.402 C20.375 40.312 20.375 40.312 19 43 C17.515 43.495 17.515 43.495 16 44 C6.626 38.302 2.013 26.163 -1 16 C-2.041 11.542 -2.407 7.564 -2 3 C-1.34 2.01 -0.68 1.02 0 0 Z " fill="#878A8F" transform="translate(274,195)"/>
  <ns0:path d="M0 0 C-0.287 1.543 -0.58 3.084 -0.875 4.625 C-1.037 5.484 -1.2 6.342 -1.367 7.227 C-1.576 8.142 -1.785 9.057 -2 10 C-2.197 11.017 -2.394 12.034 -2.598 13.082 C-4.615 17.279 -7.421 18.248 -11.562 20.062 C-13.015 20.738 -14.467 21.415 -15.918 22.094 C-16.62 22.416 -17.321 22.738 -18.044 23.07 C-21.279 24.608 -24.335 26.434 -27.398 28.285 C-27.927 28.521 -28.455 28.757 -29 29 C-29.66 28.67 -30.32 28.34 -31 28 C-30.43 26.1 -29.844 24.205 -29.25 22.312 C-28.925 21.257 -28.6 20.201 -28.266 19.113 C-25.519 12.358 -21.234 9.615 -15.062 6.312 C-14.008 5.728 -14.008 5.728 -12.932 5.131 C-3.573 0 -3.573 0 0 0 Z " fill="#0056B7" transform="translate(123,149)"/>
  <ns0:path d="M0 0 C0.99 0.495 0.99 0.495 2 1 C-2.046 4.37 -6.539 5.878 -11.418 7.719 C-12.27 8.142 -13.122 8.564 -14 9 C-14.33 9.99 -14.66 10.98 -15 12 C-17.582 12.914 -17.582 12.914 -20.812 13.625 C-21.871 13.865 -22.929 14.105 -24.02 14.352 C-25.495 14.673 -25.495 14.673 -27 15 C-28.335 15.328 -29.669 15.658 -31 16 C-31 17.32 -31 18.64 -31 20 C-31.82 20.11 -32.64 20.219 -33.484 20.332 C-34.562 20.491 -35.64 20.649 -36.75 20.812 C-37.817 20.963 -38.885 21.114 -39.984 21.27 C-43.103 22.025 -44.707 22.788 -47 25 C-47.33 25.99 -47.66 26.98 -48 28 C-48.75 28.086 -49.5 28.173 -50.273 28.262 C-58.222 29.353 -66.145 31.145 -72 37 C-75.125 37.125 -75.125 37.125 -78 37 C-74.44 34.019 -70.432 32.202 -66.238 30.297 C-65.081 29.764 -65.081 29.764 -63.901 29.221 C-61.373 28.059 -58.843 26.905 -56.312 25.75 C-54.565 24.948 -52.817 24.146 -51.07 23.344 C-45.717 20.888 -40.359 18.443 -35 16 C-34.159 15.616 -33.317 15.233 -32.451 14.838 C-25.614 11.722 -18.776 8.61 -11.933 5.509 C-11.274 5.21 -10.614 4.911 -9.935 4.603 C-8.169 3.803 -6.403 3.004 -4.637 2.205 C-3.081 1.494 -1.531 0.765 0 0 Z " fill="#070707" transform="translate(231,171)"/>
  <ns0:path d="M0 0 C8.554 1.244 13.815 7.664 18.809 14.23 C20.052 15.963 21.254 17.725 22.438 19.5 C22.062 21.688 22.062 21.688 21.438 23.5 C20.99 23.029 20.543 22.559 20.082 22.074 C13.534 15.21 13.534 15.21 4.562 13.25 C0.453 13.373 -3.514 13.796 -7.562 14.5 C-7.858 9.475 -7.591 6.576 -4.562 2.5 C-2.562 0.5 -2.562 0.5 0 0 Z " fill="#020305" transform="translate(259.5625,159.5)"/>
  <ns0:path d="M0 0 C3.491 0.741 5.088 2.704 7.191 5.465 C8.918 8.917 8.693 12.69 8.191 16.465 C6.191 19.527 6.191 19.527 4.191 21.465 C0.396 20.926 -0.886 19.51 -3.184 16.527 C-6.088 13.021 -8.21 11.362 -12.809 10.465 C-10.718 2.798 -8.051 -0.332 0 0 Z " fill="#7B7C80" transform="translate(240.80859375,86.53515625)"/>
  <ns0:path d="M0 0 C5.424 1.707 6.901 4.283 9.574 9.098 C14.179 18.472 15.605 26.577 15 37 C13.515 37.495 13.515 37.495 12 38 C4.217 30.587 -0.545 18.29 -1.133 7.578 C-1.13 6.81 -1.128 6.042 -1.125 5.25 C-1.128 4.471 -1.13 3.693 -1.133 2.891 C-1 1 -1 1 0 0 Z " fill="#84878A" transform="translate(361,314)"/>
  <ns0:path d="M0 0 C4.894 5.051 9.788 11.182 10.188 18.375 C10.095 19.674 10.095 19.674 10 21 C6.783 18.498 3.878 15.878 1 13 C-2.003 11.498 -4.791 11.907 -8.125 11.938 C-9.406 11.947 -10.688 11.956 -12.008 11.965 C-12.995 11.976 -13.983 11.988 -15 12 C-15.826 8.696 -16.429 6.176 -15 3 C-10.537 -0.129 -5.13 -2.342 0 0 Z " fill="#E59E17" transform="translate(232,113)"/>
  <ns0:path d="M0 0 C3.925 1.341 5.492 3.738 7.75 7.125 C8.67 8.49 8.67 8.49 9.609 9.883 C10.068 10.581 10.527 11.28 11 12 C10.67 12.66 10.34 13.32 10 14 C9.505 13.505 9.01 13.01 8.5 12.5 C5.004 10.403 1.922 10.34 -2 11 C-4.43 11.944 -6.712 13.01 -9.02 14.223 C-11 15 -11 15 -14 14 C-15.137 8.841 -15.137 8.841 -15 6 C-10.661 0.488 -6.884 -0.766 0 0 Z " fill="#727475" transform="translate(289,139)"/>
  <ns0:path d="M0 0 C0.33 2.64 0.66 5.28 1 8 C-2.674 11.016 -6.726 13.1 -10.938 15.25 C-11.641 15.626 -12.344 16.003 -13.068 16.391 C-18.307 19.061 -18.307 19.061 -22.004 18.734 C-22.663 18.492 -23.321 18.25 -24 18 C-24.056 15.177 -24.031 13.57 -23 11 C-17.612 5.799 -7.551 0 0 0 Z " fill="#EDECE6" transform="translate(216,117)"/>
  <ns0:path d="M0 0 C0.17 3.192 0.022 5.956 -1 9 C-3.65 11.419 -6.653 12.681 -9.938 14.062 C-11.193 14.645 -11.193 14.645 -12.475 15.24 C-18.525 18 -18.525 18 -21 18 C-21.244 14.768 -21.102 12.066 -20 9 C-16.993 6.314 -13.645 4.68 -10 3 C-9.303 2.66 -8.605 2.319 -7.887 1.969 C-5.094 0.677 -3.105 0 0 0 Z " fill="#E7EAEA" transform="translate(118,166)"/>
  <ns0:path d="M0 0 C4.421 1.504 6.25 4.929 8.625 8.688 C9.502 10.041 10.38 11.393 11.258 12.746 C11.707 13.445 12.156 14.143 12.618 14.863 C14.873 18.351 17.189 21.799 19.5 25.25 C20.323 26.484 21.146 27.719 21.969 28.953 C22.639 29.959 23.309 30.964 24 32 C26.152 35.228 26.201 36.284 26 40 C22.862 36.193 20.042 32.224 17.305 28.125 C16.871 27.478 16.438 26.831 15.991 26.165 C15.081 24.804 14.171 23.442 13.263 22.08 C11.877 20.003 10.484 17.931 9.09 15.859 C8.203 14.532 7.316 13.203 6.43 11.875 C6.015 11.26 5.6 10.646 5.173 10.012 C3.028 6.777 1.281 3.669 0 0 Z " fill="#090A16" transform="translate(303,172)"/>
  <ns0:path d="M0 0 C4.962 4.464 8.366 9.749 12 15.312 C12.603 16.225 13.207 17.137 13.828 18.076 C15.01 19.868 16.185 21.665 17.352 23.467 C18.41 25.094 19.487 26.71 20.586 28.31 C21.053 29.006 21.519 29.701 22 30.418 C22.413 31.018 22.825 31.617 23.25 32.235 C24.221 34.52 23.675 35.669 23 38 C22.374 37.036 21.749 36.072 21.104 35.078 C18.787 31.51 16.463 27.946 14.138 24.383 C13.131 22.839 12.126 21.294 11.123 19.747 C9.683 17.528 8.237 15.312 6.789 13.098 C6.34 12.403 5.891 11.708 5.428 10.992 C3.259 7.432 3.259 7.432 0 5 C0 3.35 0 1.7 0 0 Z " fill="#090A16" transform="translate(343,230)"/>
  <ns0:path d="M0 0 C1.707 0.098 1.707 0.098 4 1 C5.719 3.123 7.209 5.16 8.688 7.438 C9.09 8.036 9.493 8.635 9.908 9.252 C13.648 14.847 14.107 17.386 14 24 C9.759 22.586 8.254 19.506 5.875 15.938 C5.192 14.972 5.192 14.972 4.496 13.986 C1.328 9.272 0.316 5.671 0 0 Z " fill="#009DD6" transform="translate(320,223)"/>
  <ns0:path d="M0 0 C2.375 0.375 2.375 0.375 4.375 2.375 C4.962 5.992 4.533 7.153 2.375 10.188 C1.715 10.909 1.055 11.631 0.375 12.375 C-4.08 11.385 -4.08 11.385 -8.625 10.375 C-7.224 5.237 -5.77 0.824 0 0 Z " fill="#B1B2B3" transform="translate(236.625,86.625)"/>
  <ns0:path d="M0 0 C4 1.333 4.54 3.08 6.625 6.688 C7.236 7.723 7.847 8.758 8.477 9.824 C9.984 12.968 10.618 15.553 11 19 C7 19 7 19 5.332 17.383 C1.438 11.597 0.029 6.975 0 0 Z " fill="#0096DE" transform="translate(368,291)"/>
  <ns0:path d="M0 0 C6.569 5.889 7.733 12.62 9 21 C6.625 20.688 6.625 20.688 4 20 C1.862 16.793 1.466 14.884 0.875 11.125 C0.707 10.096 0.54 9.068 0.367 8.008 C0.036 5.297 -0.07 2.726 0 0 Z " fill="#F9F4EA" transform="translate(382,326)"/>
  <ns0:path d="M0 0 C0.99 0.33 1.98 0.66 3 1 C2.207 6.373 2.207 6.373 1 9 C-1.306 10.635 -3.242 11.183 -6 12 C-5.634 4.684 -5.634 4.684 -2.625 1.438 C-1.759 0.963 -0.892 0.489 0 0 Z " fill="#DF9A11" transform="translate(96,176)"/>
  <ns0:path d="M0 0 C0.66 0.33 1.32 0.66 2 1 C2.412 4.603 2.154 5.784 0 8.812 C-0.66 9.534 -1.32 10.256 -2 11 C-6.455 10.01 -6.455 10.01 -11 9 C-10.67 8.34 -10.34 7.68 -10 7 C-7.75 6.438 -7.75 6.438 -5 6 C-2.5 5.5 -2.5 5.5 0 5 C0 3.35 0 1.7 0 0 Z " fill="#A1A3A6" transform="translate(239,88)"/>
  <ns0:path d="M0 0 C0.99 0.495 0.99 0.495 2 1 C2.629 3.332 3.155 5.693 3.625 8.062 C3.885 9.353 4.146 10.643 4.414 11.973 C4.607 12.972 4.801 13.971 5 15 C4.01 14.67 3.02 14.34 2 14 C1.34 9.38 0.68 4.76 0 0 Z " fill="#FAAC0F" transform="translate(386,332)"/>
  <ns0:path d="M0 0 C4.923 4.185 4.923 4.185 5.312 8.312 C5.209 9.199 5.106 10.086 5 11 C1.125 9.25 1.125 9.25 0 7 C-0.04 4.667 -0.043 2.333 0 0 Z " fill="#D8E3EE" transform="translate(242,129)"/>
  <ns0:path d="M0 0 C4 1 4 1 4 1 Z " fill="#0E0E0E" transform="translate(305,389)"/>
  <ns0:path d="M0 0 C4 1 4 1 4 1 Z " fill="#181A1B" transform="translate(346,376)"/>
  <ns0:path d="M0 0 C3 1 3 1 3 1 Z " fill="#040405" transform="translate(293,393)"/>
  <ns0:path d="M0 0 C3 1 3 1 3 1 Z " fill="#020202" transform="translate(317,385)"/>
  <ns0:path d="M0 0 C3 1 3 1 3 1 Z " fill="#050505" transform="translate(330,381)"/>
  <ns0:path d="M0 0 C2 1 2 1 2 1 Z " fill="#080808" transform="translate(291,394)"/>
  <ns0:path d="M0 0 C2 1 2 1 2 1 Z " fill="#060606" transform="translate(297,392)"/>
  <ns0:path d="M0 0 C2 1 2 1 2 1 Z " fill="#050505" transform="translate(315,386)"/>
  <ns0:path d="M0 0 C2 1 2 1 2 1 Z " fill="#101111" transform="translate(322,384)"/>
  <ns0:path d="M0 0 C2 1 2 1 2 1 Z " fill="#0E0F0F" transform="translate(325,383)"/>
  <ns0:path d="M0 0 C2 1 2 1 2 1 Z " fill="#0F0F0F" transform="translate(328,382)"/>
  <ns0:path d="M0 0 C2 1 2 1 2 1 Z " fill="#161717" transform="translate(341,378)"/>
  <ns0:path d="M0 0 C2 1 2 1 2 1 Z " fill="#020202" transform="translate(343,377)"/>
  <ns0:path d="M0 0 C2 1 2 1 2 1 Z " fill="#0A0A0B" transform="translate(130,218)"/>
  <ns0:path d="M0 0 C2 1 2 1 2 1 Z " fill="#A9B9C4" transform="translate(215,116)"/>
  <ns0:path d="M0 0 C1 4 1 4 1 4 Z " fill="#030303" transform="translate(302,228)"/>
</svg>