<?xml version="1.0" ?>
<svg xmlns:ns0="http://www.w3.org/2000/svg" xmlns="http://www.w3.org/2000/svg" width="512" height="512" viewBox="0 0 512 512" style="background-color: transparent;">
  <ns0:path d="M0 0 C4.435 3.168 7.556 6.762 11 11 C12.655 12.678 14.324 14.343 16 16 C16.909 16.92 17.818 17.841 18.754 18.789 C19.681 19.725 20.608 20.661 21.562 21.625 C22.265 22.34 22.265 22.34 22.982 23.07 C24.302 24.4 25.65 25.701 27 27 C27.648 27.626 28.297 28.253 28.965 28.898 C31.991 30.537 33.713 29.878 37 29 C39.595 28.11 42.136 27.185 44.688 26.188 C46.102 25.648 47.516 25.109 48.93 24.57 C51.417 23.613 53.9 22.649 56.383 21.68 C57.35 21.311 58.316 20.942 59.312 20.562 C60.154 20.234 60.996 19.905 61.863 19.566 C64 19 64 19 67 20 C67.33 21.65 67.66 23.3 68 25 C69.98 25 71.96 25 74 25 C74.33 21.7 74.66 18.4 75 15 C78.742 13.753 81.048 13.554 85 14 C88.222 15.717 91.097 17.795 94 20 C94.749 20.519 95.498 21.039 96.27 21.574 C96.841 22.045 97.412 22.515 98 23 C98 23.66 98 24.32 98 25 C98.592 25.27 99.184 25.54 99.795 25.818 C101.985 26.992 103.493 28.198 105.285 29.906 C106.197 30.768 106.197 30.768 107.127 31.646 C107.766 32.258 108.404 32.87 109.062 33.5 C110.408 34.773 111.755 36.045 113.102 37.316 C114.094 38.256 114.094 38.256 115.106 39.215 C117.691 41.652 120.309 44.048 122.938 46.438 C123.801 47.23 124.665 48.023 125.555 48.84 C127.942 51.001 127.942 51.001 130.383 52.816 C134.489 55.988 136.403 58.065 137.438 63.25 C137.632 64.833 137.82 66.416 138 68 C138.33 68.99 138.66 69.98 139 71 C138.538 72.915 138.069 74.83 137.551 76.73 C136.656 80.418 136.108 84.204 136 88 C136.33 88.33 136.66 88.66 137 89 C138.65 89 140.3 89 142 89 C143.65 83.72 145.3 78.44 147 73 C148.65 72.67 150.3 72.34 152 72 C153.879 73.293 153.879 73.293 155.562 75.188 C156.452 76.16 156.452 76.16 157.359 77.152 C157.901 77.762 158.442 78.372 159 79 C159.763 79.743 160.526 80.485 161.312 81.25 C164.501 84.557 165.276 86.64 165.25 91.125 C165.012 101.714 165.012 101.714 163 106 C159.489 109.327 155.699 111.27 151.312 113.25 C150.174 113.771 149.036 114.292 147.863 114.828 C145 116 145 116 143 116 C142.34 120.95 141.68 125.9 141 131 C141.66 131.33 142.32 131.66 143 132 C141.515 137.94 141.515 137.94 140 144 C137.03 144.66 134.06 145.32 131 146 C130.938 144.618 130.876 143.236 130.812 141.812 C130.407 138.178 130.064 137.083 127.75 134.062 C121.522 129.392 115.548 129.3 108 130 C99.264 131.699 92.719 135.867 85.715 141.074 C83 143 83 143 80 144 C80 144.66 80 145.32 80 146 C78.895 147.005 77.738 147.954 76.562 148.875 C69.205 155.137 59.313 166.086 57.661 176.041 C56.826 180.097 55.94 182.332 52.496 184.781 C49.036 186.533 45.517 188.075 41.938 189.562 C40.611 190.141 39.286 190.722 37.963 191.307 C35.868 192.232 33.771 193.155 31.669 194.065 C26.262 196.411 20.935 198.9 15.625 201.457 C14.855 201.827 14.085 202.196 13.292 202.577 C10.259 204.034 7.226 205.492 4.198 206.962 C2.093 207.981 -0.017 208.988 -2.129 209.992 C-2.752 210.298 -3.374 210.603 -4.016 210.918 C-7.49 212.556 -10.154 213.349 -14 213 C-14.254 212.385 -14.508 211.77 -14.77 211.137 C-15.114 210.328 -15.458 209.52 -15.812 208.688 C-16.149 207.887 -16.485 207.086 -16.832 206.262 C-18.644 202.753 -20.081 201.391 -23.742 199.832 C-39.413 195.83 -54.497 201.264 -68 209 C-83.894 218.826 -96.593 232.083 -101.002 250.468 C-102.015 254.283 -102.933 255.943 -105.969 258.539 C-109 260 -109 260 -112 259 C-112.949 257.152 -112.949 257.152 -113.688 254.938 C-113.939 254.204 -114.19 253.471 -114.449 252.715 C-114.631 252.149 -114.813 251.583 -115 251 C-109.25 248 -109.25 248 -107 248 C-107.66 242.39 -108.32 236.78 -109 231 C-110.314 231.661 -111.627 232.323 -112.98 233.004 C-114.716 233.857 -116.451 234.71 -118.188 235.562 C-119.052 236 -119.916 236.438 -120.807 236.889 C-121.648 237.298 -122.489 237.707 -123.355 238.129 C-124.125 238.511 -124.895 238.893 -125.688 239.287 C-128.605 240.186 -130.142 240.06 -133 239 C-134.574 237.132 -134.574 237.132 -135.91 234.68 C-136.414 233.773 -136.919 232.867 -137.438 231.933 C-137.953 230.965 -138.469 229.997 -139 229 C-139.522 228.05 -140.044 227.101 -140.582 226.122 C-142.218 223.132 -143.83 220.13 -145.438 217.125 C-149.351 209.845 -153.329 202.64 -157.551 195.535 C-159.021 192.963 -160.332 190.353 -161.625 187.688 C-165.163 180.459 -169.188 173.511 -173.17 166.521 C-176.728 160.27 -180.203 153.995 -183.535 147.621 C-184.976 144.902 -184.976 144.902 -187.059 142.272 C-189.299 138.497 -189.506 136.375 -189.518 132.02 C-189.528 131.014 -189.528 131.014 -189.539 129.987 C-189.556 127.785 -189.545 125.585 -189.531 123.383 C-189.534 121.841 -189.538 120.299 -189.543 118.758 C-189.549 115.532 -189.54 112.306 -189.521 109.08 C-189.499 104.962 -189.512 100.845 -189.536 96.727 C-189.55 93.544 -189.546 90.361 -189.535 87.178 C-189.533 85.661 -189.536 84.143 -189.545 82.626 C-189.591 73.039 -189 66.46 -183.203 58.547 C-180.079 56.353 -177.529 56.39 -173.75 56.25 C-172.487 56.193 -171.223 56.137 -169.922 56.078 C-168.476 56.039 -168.476 56.039 -167 56 C-166.01 57.98 -165.02 59.96 -164 62 C-161.36 61.67 -158.72 61.34 -156 61 C-156.66 58.03 -157.32 55.06 -158 52 C-157.369 51.783 -156.738 51.565 -156.087 51.342 C-116.525 37.726 -116.525 37.726 -77 24 C-76.143 23.701 -75.285 23.402 -74.402 23.094 C-65.217 19.889 -56.039 16.665 -46.871 13.41 C-45.662 12.981 -45.662 12.981 -44.429 12.544 C-40.642 11.201 -36.856 9.855 -33.072 8.502 C-31.755 8.034 -30.438 7.566 -29.121 7.098 C-27.981 6.69 -26.841 6.283 -25.666 5.864 C-23 5 -23 5 -21 5 C-20.01 7.475 -20.01 7.475 -19 10 C-17.02 10 -15.04 10 -13 10 C-12.024 7.072 -11.918 5.044 -12 2 C-7.56 -0.643 -4.988 -1.663 0 0 Z M34.125 47.75 C32.523 48.378 30.919 49.004 29.315 49.628 C26.71 50.642 24.105 51.658 21.503 52.681 C14.527 55.42 7.525 58.083 0.508 60.715 C-0.568 61.118 -1.644 61.522 -2.752 61.938 C-4.964 62.767 -7.176 63.597 -9.388 64.426 C-33.373 73.426 -57.27 82.648 -81.141 91.945 C-87.676 94.489 -94.22 97.01 -100.77 99.514 C-104.668 101.006 -108.563 102.507 -112.455 104.015 C-114.17 104.679 -115.886 105.339 -117.604 105.997 C-120.012 106.922 -122.413 107.864 -124.812 108.812 C-125.483 109.067 -126.154 109.321 -126.846 109.583 C-131.793 111.574 -135.785 114.266 -138 119.25 C-138 125.093 -136.205 129.623 -132.375 134 C-127.7 136.77 -123.087 137.668 -117.727 136.508 C-117.157 136.34 -116.587 136.173 -116 136 C-115.876 136.598 -115.752 137.196 -115.625 137.812 C-115.045 140.262 -115.045 140.262 -113 143 C-109.531 142.542 -106.326 142.109 -103 141 C-103.495 136.545 -103.495 136.545 -104 132 C-79.843 122.18 -55.657 112.435 -31.441 102.763 C-27.457 101.171 -23.474 99.579 -19.49 97.986 C-14.804 96.113 -10.119 94.24 -5.432 92.368 C2.009 89.395 9.449 86.42 16.887 83.439 C18.972 82.604 21.057 81.768 23.142 80.933 C25.08 80.156 27.018 79.378 28.956 78.601 C30.684 77.908 30.684 77.908 32.448 77.202 C33.453 76.799 34.458 76.395 35.494 75.98 C37.31 75.27 39.15 74.617 41 74 C41.536 74.825 42.072 75.65 42.625 76.5 C44.786 79.293 44.786 79.293 48.062 79.438 C51.183 79.186 51.183 79.186 54 77 C53.67 74.03 53.34 71.06 53 68 C54.382 67.608 55.764 67.216 57.188 66.812 C61.527 65.377 64.058 63.585 67 60 C68.857 56.285 68.585 52.044 68 48 C65.434 44.692 63.188 42.321 58.957 41.7 C49.836 41.27 42.404 44.419 34.125 47.75 Z M-182 89 C-183.471 111.437 -183.471 111.437 -175.387 131.823 C-173.131 135.364 -171.161 139.06 -169.139 142.738 C-167.363 145.96 -165.559 149.165 -163.746 152.367 C-161.202 156.864 -158.674 161.369 -156.16 165.883 C-155.536 167.002 -154.913 168.121 -154.27 169.274 C-153.081 171.408 -151.893 173.542 -150.707 175.677 C-146.085 183.98 -146.085 183.98 -141 192 C-140.34 192 -139.68 192 -139 192 C-138.781 188.017 -138.585 184.034 -138.408 180.049 C-138.314 178.036 -138.203 176.024 -138.092 174.012 C-137.79 166.956 -137.558 161.249 -141 155 C-141.498 154.077 -141.997 153.154 -142.51 152.203 C-144.336 148.919 -146.221 145.676 -148.125 142.438 C-148.811 141.261 -149.497 140.085 -150.182 138.908 C-154.248 131.937 -158.346 124.984 -162.535 118.086 C-164.657 114.588 -166.733 111.064 -168.809 107.539 C-169.84 105.795 -170.872 104.052 -171.905 102.309 C-172.925 100.584 -173.937 98.854 -174.949 97.125 C-175.573 96.074 -176.197 95.024 -176.84 93.941 C-177.401 92.99 -177.961 92.038 -178.539 91.057 C-179.262 90.039 -179.262 90.039 -180 89 C-180.66 89 -181.32 89 -182 89 Z M51.644 102.573 C50.816 102.917 49.987 103.261 49.134 103.616 C48.251 103.994 47.367 104.372 46.457 104.762 C45.533 105.149 44.61 105.537 43.658 105.936 C41.704 106.759 39.751 107.585 37.801 108.416 C34.844 109.674 31.883 110.919 28.92 112.162 C27.015 112.965 25.111 113.769 23.207 114.574 C22.334 114.942 21.46 115.31 20.561 115.689 C16.187 117.555 11.846 119.489 7.55 121.527 C6.748 121.904 5.947 122.282 5.122 122.671 C1.672 124.832 0.273 127.181 -1 131 C-1.027 132.544 -0.991 134.09 -0.914 135.633 C-0.848 136.965 -0.848 136.965 -0.781 138.324 C-0.704 139.711 -0.704 139.711 -0.625 141.125 C-0.581 142.057 -0.537 142.989 -0.492 143.949 C-0.649 148.314 -0.649 148.314 1 152 C6.844 151.605 11.431 150.288 16.727 147.867 C17.437 147.552 18.147 147.237 18.879 146.913 C20.375 146.247 21.869 145.576 23.361 144.9 C25.594 143.889 27.833 142.892 30.074 141.898 C34.401 139.971 38.706 138 43 136 C43.685 135.682 44.37 135.364 45.076 135.036 C47.023 134.123 48.962 133.194 50.898 132.258 C52.006 131.726 53.114 131.193 54.255 130.645 C57.009 128.995 58.378 127.738 60 125 C61.692 117.264 61.113 108.873 61 101 C57.444 100.843 54.919 101.192 51.644 102.573 Z M-37.879 140.352 C-38.471 140.602 -39.063 140.853 -39.673 141.111 C-41.638 141.944 -43.6 142.784 -45.562 143.625 C-48.363 144.818 -51.166 146.007 -53.969 147.195 C-54.698 147.505 -55.426 147.814 -56.177 148.133 C-61.565 150.413 -66.978 152.622 -72.406 154.805 C-73.951 155.429 -75.496 156.053 -77.041 156.677 C-79.286 157.584 -81.532 158.488 -83.783 159.38 C-85.882 160.212 -87.974 161.058 -90.066 161.906 C-91.262 162.384 -92.458 162.861 -93.69 163.354 C-97.774 165.385 -101.895 167.79 -104 172 C-104.085 174.032 -104.107 176.067 -104.098 178.102 C-104.094 179.313 -104.091 180.525 -104.088 181.773 C-104.08 183.044 -104.071 184.315 -104.062 185.625 C-104.058 186.904 -104.053 188.183 -104.049 189.5 C-104.037 192.667 -104.021 195.833 -104 199 C-96.087 196.544 -88.58 193.328 -81 190 C-79.677 189.422 -78.354 188.845 -77.031 188.268 C-73.67 186.801 -70.311 185.329 -66.953 183.856 C-65.067 183.03 -63.181 182.205 -61.294 181.382 C-57.903 179.903 -54.514 178.421 -51.125 176.938 C-50.117 176.497 -49.109 176.057 -48.07 175.604 C-45.373 174.418 -42.685 173.214 -40 172 C-39.233 171.664 -38.465 171.327 -37.675 170.981 C-33.388 169.005 -30.417 167.238 -28 163 C-27.48 159.796 -27.48 159.796 -27.688 156.375 C-27.722 155.153 -27.757 153.931 -27.793 152.672 C-28.07 147.765 -28.442 142.883 -29 138 C-32.559 138 -34.605 138.953 -37.879 140.352 Z M20.207 152.898 C19.33 153.295 18.453 153.692 17.549 154.102 C16.646 154.522 15.743 154.942 14.812 155.375 C13.441 155.994 13.441 155.994 12.041 156.625 C7.15 158.758 7.15 158.758 3 162 C2.833 165.583 2.833 165.583 3 169 C8.223 168.44 12.754 167.182 17.625 165.188 C18.588 164.815 18.588 164.815 19.57 164.436 C23.591 162.817 26.907 161.058 30 158 C30.418 154.332 30.418 154.332 30 151 C26.194 150.795 23.665 151.322 20.207 152.898 Z M-86.151 200.476 C-86.907 200.808 -87.663 201.141 -88.441 201.484 C-89.272 201.843 -90.103 202.201 -90.959 202.57 C-91.818 202.96 -92.677 203.349 -93.562 203.75 C-94.426 204.124 -95.289 204.498 -96.178 204.883 C-99.665 206.411 -102.823 207.882 -106 210 C-106.471 212.743 -106.178 215.196 -106 218 C-105.67 218.33 -105.34 218.66 -105 219 C-99.847 218.56 -95.561 217.259 -90.812 215.25 C-89.623 214.76 -88.433 214.27 -87.207 213.766 C-83.794 211.887 -82.095 210.258 -80 207 C-79.664 204.29 -79.664 204.29 -80 202 C-82.315 200.531 -83.417 199.871 -86.151 200.476 Z " fill="#005ABB" transform="translate(266,146)"/>
  <ns0:path d="M0 0 C2.272 1.446 3.796 2.74 5.008 5.164 C5.211 7.371 5.211 7.371 5.258 9.977 C5.296 11.255 5.296 11.255 5.336 12.559 C4.924 15.826 3.933 17.492 2.008 20.164 C-0.488 21.798 -0.488 21.798 -3.43 23.18 C-4.506 23.686 -5.582 24.192 -6.691 24.713 C-11.738 26.932 -16.84 28.955 -21.992 30.914 C-24.478 31.875 -26.962 32.837 -29.445 33.805 C-30.113 34.065 -30.782 34.325 -31.47 34.593 C-39.677 37.803 -47.82 41.169 -55.969 44.523 C-74.677 52.221 -93.448 59.749 -112.27 67.164 C-114.262 67.949 -116.254 68.734 -118.246 69.52 C-119.224 69.905 -120.201 70.29 -121.208 70.687 C-127.969 73.355 -134.717 76.057 -141.457 78.777 C-142.371 79.146 -143.285 79.514 -144.227 79.893 C-148.51 81.62 -152.791 83.35 -157.069 85.09 C-183.873 95.936 -183.873 95.936 -191.992 93.164 C-197.051 90.166 -199.115 86.893 -200.645 81.371 C-201.177 77.988 -200.679 76.134 -198.992 73.164 C-194.857 69.284 -190.886 66.962 -185.57 64.957 C-184.491 64.534 -184.491 64.534 -183.389 64.103 C-181.011 63.174 -178.627 62.263 -176.242 61.352 C-174.541 60.692 -172.841 60.032 -171.14 59.37 C-165.764 57.285 -160.379 55.223 -154.992 53.164 C-153.279 52.508 -151.567 51.852 -149.854 51.195 C-141.229 47.892 -132.597 44.607 -123.961 41.332 C-116.433 38.477 -108.913 35.603 -101.398 32.715 C-79.899 24.453 -58.374 16.273 -36.77 8.289 C-35.497 7.818 -35.497 7.818 -34.199 7.338 C-32.578 6.738 -30.957 6.139 -29.335 5.541 C-25.237 4.024 -21.184 2.437 -17.152 0.75 C-11.624 -1.491 -5.66 -2.375 0 0 Z " fill="#717374" transform="translate(328.9921875,188.8359375)"/>
  <ns0:path d="M0 0 C2.381 3.174 2.472 5.302 2.539 9.184 C1.567 12.573 -0.346 14.468 -3.125 16.5 C-6.678 18.186 -10.36 19.415 -14.086 20.664 C-15.185 21.046 -16.285 21.428 -17.418 21.821 C-19.775 22.639 -22.134 23.451 -24.495 24.257 C-28.066 25.48 -31.628 26.725 -35.188 27.979 C-42.04 30.394 -48.899 32.79 -55.759 35.181 C-57.785 35.887 -59.812 36.594 -61.838 37.302 C-83.705 44.932 -105.587 52.518 -127.481 60.07 C-128.528 60.431 -129.574 60.792 -130.652 61.164 C-132.71 61.873 -134.767 62.58 -136.826 63.284 C-142.276 65.153 -147.706 67.067 -153.119 69.041 C-154.862 69.668 -154.862 69.668 -156.642 70.307 C-158.86 71.106 -161.075 71.917 -163.284 72.742 C-169.469 74.953 -175.518 76.737 -182.125 75.5 C-186.031 71.785 -186.682 67.803 -187.242 62.648 C-187.094 59.923 -186.751 58.723 -185.125 56.5 C-180.266 53.444 -175.486 51.375 -170.055 49.574 C-168.889 49.178 -168.889 49.178 -167.699 48.774 C-165.135 47.905 -162.568 47.046 -160 46.188 C-158.177 45.572 -156.355 44.957 -154.532 44.34 C-148.734 42.383 -142.93 40.441 -137.125 38.5 C-135.209 37.859 -133.293 37.217 -131.377 36.576 C-120.968 33.092 -110.554 29.623 -100.137 26.164 C-93.609 23.995 -87.084 21.816 -80.561 19.631 C-74.771 17.693 -68.976 15.77 -63.179 13.851 C-57.992 12.13 -52.816 10.377 -47.643 8.614 C-43.726 7.283 -39.803 5.968 -35.879 4.656 C-33.982 4.018 -32.086 3.373 -30.194 2.72 C-27.549 1.81 -24.897 0.924 -22.242 0.043 C-21.468 -0.23 -20.693 -0.504 -19.895 -0.785 C-13.107 -2.99 -6.521 -3.13 0 0 Z " fill="#737576" transform="translate(268.125,127.5)"/>
  <ns0:path d="M0 0 C2.735 1.368 3.231 2.985 4.656 5.684 C5.453 7.18 5.453 7.18 6.266 8.707 C6.838 9.793 7.41 10.88 8 12 C9.218 14.283 10.437 16.565 11.656 18.848 C12.293 20.042 12.93 21.237 13.566 22.432 C13.885 23.03 14.204 23.627 14.532 24.243 C15.178 25.458 15.823 26.672 16.468 27.887 C20.063 34.657 23.749 41.337 27.74 47.883 C29.345 50.579 30.718 53.353 32.062 56.188 C35.882 63.99 40.196 71.493 44.557 79.005 C49.376 87.388 51.347 94.173 52.035 103.723 C52.527 108.913 53.781 111.882 57 116 C63.21 115.556 67.605 114.085 73 111 C77.021 115.371 76.964 119.908 77.062 125.625 C75.715 129.906 74.093 130.857 70.25 132.93 C69.507 133.283 68.765 133.636 68 134 C67.319 134.333 66.639 134.665 65.938 135.008 C61.344 137 57.931 137.488 53 136 C47.907 131.876 45.586 126.717 42.812 120.875 C39.031 113.033 35.078 105.304 31.007 97.609 C27.865 91.663 24.771 85.692 21.711 79.703 C21.052 78.414 21.052 78.414 20.38 77.1 C18.594 73.602 16.81 70.104 15.026 66.605 C13.693 63.991 12.359 61.378 11.023 58.766 C10.596 57.928 10.169 57.09 9.728 56.227 C7.744 52.351 5.738 48.49 3.661 44.662 C3.297 43.99 2.933 43.318 2.558 42.626 C1.59 40.85 0.613 39.079 -0.365 37.308 C-3.956 30.045 -7.094 22.088 -5 14 C-3.062 11.625 -3.062 11.625 -1 10 C-0.34 10 0.32 10 1 10 C0.67 6.7 0.34 3.4 0 0 Z " fill="#969796" transform="translate(78,286)"/>
  <ns0:path d="M0 0 C2.923 2.615 4.874 4.843 5.312 8.875 C5.209 9.576 5.106 10.277 5 11 C3.68 11 2.36 11 1 11 C0.319 9.824 0.319 9.824 -0.375 8.625 C-2.458 5.259 -4.247 4.917 -8 4 C-7.368 4.922 -7.368 4.922 -6.723 5.863 C-6.175 6.672 -5.627 7.48 -5.062 8.312 C-4.517 9.113 -3.972 9.914 -3.41 10.738 C-0.537 15.347 -0.423 19.729 -1 25 C-5.122 40.265 -17.399 50.489 -30.59 58.203 C-42.048 64.241 -53.705 67.404 -66.543 64.406 C-71.643 62.276 -74.414 58.31 -77.457 53.828 C-77.966 53.225 -78.475 52.622 -79 52 C-79.99 52 -80.98 52 -82 52 C-81.522 39.576 -74.417 30.544 -66 22 C-65.002 20.877 -65.002 20.877 -63.984 19.73 C-50.593 5.138 -19.274 -12.57 0 0 Z M-50 34 C-52.656 37.761 -54.025 40.672 -53.938 45.312 C-52.746 48.78 -52.746 48.78 -50 51 C-43.816 52.767 -38.737 51.549 -33 49 C-26.865 45.315 -21.752 40.722 -19 34 C-18.408 30.056 -18.427 28.064 -20.312 24.562 C-31.04 18.326 -42.718 26.075 -50 34 Z " fill="#283038" transform="translate(246,347)"/>
  <ns0:path d="M0 0 C0.699 6.112 1.137 12.225 1.312 18.375 C1.369 20.088 1.369 20.088 1.426 21.836 C0.893 25.795 -0.275 27.108 -3 30 C-5.952 31.8 -5.952 31.8 -9.359 33.422 C-9.974 33.717 -10.588 34.012 -11.221 34.316 C-17.824 37.458 -24.527 40.375 -31.25 43.25 C-32.543 43.806 -33.837 44.362 -35.13 44.919 C-38.43 46.337 -41.732 47.749 -45.035 49.16 C-46.984 49.993 -48.931 50.828 -50.879 51.665 C-54.5 53.219 -58.125 54.767 -61.75 56.312 C-62.856 56.787 -63.963 57.261 -65.103 57.749 C-66.115 58.179 -67.128 58.608 -68.172 59.051 C-69.06 59.429 -69.948 59.807 -70.862 60.197 C-73 61 -73 61 -75 61 C-75.146 56.625 -75.234 52.251 -75.312 47.875 C-75.354 46.637 -75.396 45.4 -75.439 44.125 C-75.578 33.839 -75.578 33.839 -73.043 30.391 C-69.228 27.393 -65.496 25.639 -61 23.875 C-59.648 23.32 -59.648 23.32 -58.269 22.754 C-56.275 21.938 -54.278 21.128 -52.279 20.324 C-48.14 18.653 -44.019 16.938 -39.897 15.222 C-35.547 13.413 -31.193 11.614 -26.836 9.82 C-22.71 8.121 -18.589 6.412 -14.477 4.68 C-13.683 4.347 -12.89 4.015 -12.073 3.672 C-10.658 3.079 -9.245 2.481 -7.833 1.878 C-5.032 0.708 -3.073 0 0 0 Z " fill="#212232" transform="translate(237,284)"/>
  <ns0:path d="M0 0 C2.24 1.611 3.444 2.544 4.559 5.121 C4.784 8.139 4.733 11.102 4.559 14.121 C2.909 13.461 1.259 12.801 -0.441 12.121 C-0.359 13.235 -0.276 14.349 -0.191 15.496 C-0.278 27.807 -9.195 37.915 -17.254 46.371 C-25.989 54.812 -38.166 63.103 -50.754 63.371 C-56.674 63.236 -60.364 62.01 -64.723 58.047 C-67.624 54.882 -70.136 52.068 -70.816 47.734 C-69.147 35.107 -57.428 22.508 -48.441 14.121 C-47.781 14.121 -47.121 14.121 -46.441 14.121 C-46.441 13.461 -46.441 12.801 -46.441 12.121 C-44.472 10.566 -42.518 9.145 -40.441 7.746 C-39.846 7.341 -39.251 6.936 -38.638 6.519 C-27.434 -0.999 -12.852 -7.722 0 0 Z M-42.441 31.121 C-46.116 36.219 -48.472 40.677 -47.441 47.121 C-46.525 49.204 -46.525 49.204 -44.441 50.121 C-37.617 51.058 -32.984 48.6 -27.555 44.801 C-22.701 40.947 -18.209 36.208 -17.031 29.938 C-16.907 27.004 -17.116 24.7 -18.566 22.121 C-26.634 17.818 -37.134 25.169 -42.441 31.121 Z " fill="#272E38" transform="translate(392.44140625,277.87890625)"/>
  <ns0:path d="M0 0 C0.091 6.336 0.121 12.672 -0.25 19 C-0.296 19.846 -0.343 20.691 -0.391 21.562 C-1.226 24.905 -2.583 26.551 -5 29 C-7.24 30.326 -9.321 31.398 -11.688 32.438 C-12.386 32.755 -13.085 33.072 -13.806 33.398 C-16.528 34.619 -19.264 35.81 -22 37 C-23.315 37.577 -24.631 38.154 -25.946 38.731 C-29.625 40.343 -33.31 41.941 -36.999 43.53 C-38.496 44.175 -39.992 44.823 -41.487 45.473 C-43.618 46.398 -45.753 47.31 -47.891 48.219 C-48.533 48.5 -49.175 48.78 -49.837 49.07 C-53.345 50.545 -56.185 51.426 -60 51 C-62.31 48.69 -61.571 43.425 -61.75 40.312 C-61.818 39.413 -61.887 38.514 -61.957 37.588 C-62.261 32.268 -62.253 28.483 -59 24 C-54.242 20.412 -49.194 18.225 -43.691 15.996 C-42.364 15.449 -42.364 15.449 -41.01 14.891 C-38.196 13.734 -35.38 12.586 -32.562 11.438 C-30.674 10.663 -28.785 9.887 -26.896 9.111 C-24.229 8.015 -21.56 6.92 -18.89 5.829 C-17.689 5.338 -17.689 5.338 -16.463 4.838 C-15.705 4.528 -14.946 4.219 -14.165 3.9 C-12.127 3.053 -10.11 2.166 -8.094 1.27 C-5.089 0.037 -3.2 -0.291 0 0 Z " fill="#1F1F2E" transform="translate(327,247)"/>
  <ns0:path d="M0 0 C0.66 0 1.32 0 2 0 C3.49 2.129 3.49 2.129 5.238 5.133 C5.887 6.238 6.536 7.344 7.204 8.483 C7.907 9.697 8.61 10.911 9.312 12.125 C10.036 13.362 10.76 14.599 11.485 15.836 C12.959 18.351 14.428 20.868 15.895 23.387 C18.847 28.458 21.829 33.511 24.812 38.562 C25.594 39.891 25.594 39.891 26.391 41.247 C28.939 45.568 31.521 49.862 34.18 54.117 C34.687 54.931 35.193 55.745 35.716 56.584 C36.661 58.096 37.614 59.604 38.575 61.106 C38.998 61.781 39.42 62.456 39.855 63.152 C40.223 63.73 40.591 64.307 40.969 64.902 C43.589 70.235 44.238 75.15 43.977 81.027 C43.925 82.313 43.873 83.599 43.82 84.924 C43.755 86.262 43.69 87.6 43.625 88.938 C43.567 90.303 43.509 91.668 43.453 93.033 C43.312 96.356 43.161 99.678 43 103 C42.34 103 41.68 103 41 103 C31.378 86.457 21.95 69.824 12.7 53.07 C11.098 50.178 9.487 47.291 7.871 44.406 C7.402 43.568 6.933 42.73 6.45 41.867 C5.595 40.34 4.739 38.814 3.88 37.289 C0.903 31.961 -0.124 28.451 -0.098 22.363 C-0.094 21.065 -0.091 19.766 -0.088 18.428 C-0.08 17.056 -0.071 15.684 -0.062 14.312 C-0.057 12.929 -0.053 11.546 -0.049 10.162 C-0.037 6.775 -0.021 3.387 0 0 Z " fill="#212331" transform="translate(84,235)"/>
  <ns0:path d="M0 0 C3.607 3.204 5.724 6.801 7.898 11.039 C8.256 11.72 8.613 12.401 8.982 13.102 C10.12 15.273 11.248 17.449 12.375 19.625 C13.858 22.473 15.345 25.32 16.836 28.164 C17.195 28.85 17.554 29.537 17.924 30.244 C20.387 34.92 23.014 39.464 25.779 43.969 C27.38 46.632 28.732 49.381 30.062 52.188 C33.882 59.99 38.196 67.493 42.557 75.005 C46.799 82.384 49.226 88.289 49.625 96.875 C49.664 97.563 49.702 98.252 49.742 98.961 C49.835 100.64 49.919 102.32 50 104 C47.582 100.947 45.715 97.797 43.883 94.363 C43.283 93.241 42.682 92.119 42.064 90.963 C41.417 89.746 40.771 88.53 40.125 87.312 C39.452 86.051 38.779 84.79 38.106 83.529 C33.244 74.405 28.473 65.235 23.723 56.052 C19.153 47.24 14.434 38.514 9.656 29.812 C9.216 29.01 8.776 28.208 8.323 27.382 C7.426 25.768 6.516 24.161 5.593 22.561 C3.373 18.691 1.427 15.271 0.688 10.812 C0.481 9.573 0.481 9.573 0.27 8.309 C-0.056 5.52 -0.148 2.803 0 0 Z " fill="#F6F8F9" transform="translate(80,290)"/>
  <ns0:path d="M0 0 C2.24 1.611 3.444 2.544 4.559 5.121 C4.784 8.139 4.733 11.102 4.559 14.121 C0.539 12.781 -2.462 10.782 -5.793 8.242 C-10.409 5.103 -16.113 5.611 -21.441 6.121 C-27.599 7.841 -32.955 10.921 -38.441 14.121 C-39.101 14.121 -39.761 14.121 -40.441 14.121 C-40.441 14.781 -40.441 15.441 -40.441 16.121 C-41.896 17.364 -43.408 18.54 -44.941 19.684 C-53.339 26.281 -58.872 33.24 -63.801 42.715 C-65.441 45.121 -65.441 45.121 -67.645 45.965 C-68.238 46.016 -68.83 46.068 -69.441 46.121 C-68.945 41.137 -67.291 37.607 -64.566 33.496 C-64.175 32.897 -63.784 32.297 -63.381 31.679 C-59.078 25.283 -54.079 19.383 -48.441 14.121 C-47.781 14.121 -47.121 14.121 -46.441 14.121 C-46.441 13.461 -46.441 12.801 -46.441 12.121 C-44.472 10.566 -42.518 9.145 -40.441 7.746 C-39.846 7.341 -39.251 6.936 -38.638 6.519 C-27.434 -0.999 -12.852 -7.722 0 0 Z " fill="#020305" transform="translate(392.44140625,277.87890625)"/>
  <ns0:path d="M0 0 C2.688 1.562 2.688 1.562 4 4 C4.911 8.644 3.991 11.554 1.625 15.5 C-4.054 23.28 -11.018 27.428 -20.457 29.004 C-24.318 28.998 -27.019 27.883 -29.875 25.312 C-31.605 21.756 -31.072 19.784 -30 16 C-23.586 4.565 -13.061 -1.587 0 0 Z " fill="#85888E" transform="translate(223,370)"/>
  <ns0:path d="M0 0 C1.897 3.372 1.968 6.331 1.125 10 C-2.647 17.737 -8.492 22.779 -15.875 27 C-19.429 28.185 -22.145 28.266 -25.875 28 C-27.812 26.938 -27.812 26.938 -28.875 25 C-29.958 19.103 -27.899 15.267 -24.785 10.438 C-19.494 3.686 -8.99 -4.795 0 0 Z " fill="#81868C" transform="translate(373.875,300)"/>
  <ns0:path d="M0 0 C3.875 1.75 3.875 1.75 5 4 C5.68 10.189 5.186 16.55 2 22 C-2.781 26.338 -8.852 28.758 -15.25 29.25 C-18 29 -18 29 -20 27 C-20.082 24.793 -20.082 24.793 -19.812 22.188 C-19.736 21.335 -19.66 20.483 -19.582 19.605 C-18.871 16.424 -18.048 14.556 -16 12 C-13.025 10.56 -10.129 9.461 -7.006 8.416 C-4.881 7.671 -4.881 7.671 -2 6 C-0.486 2.945 -0.486 2.945 0 0 Z " fill="#8C8F92" transform="translate(426,264)"/>
  <ns0:path d="M0 0 C2.843 2.981 3.826 4.957 4.5 9 C3.753 13.483 1.759 16.555 -1.75 19.438 C-5.29 20.322 -8.506 20.012 -12 19 C-15.529 16.195 -16.858 14.233 -17.375 9.75 C-16.879 4.786 -15.525 3.443 -12 0 C-7.823 -1.392 -4.227 -1.236 0 0 Z " fill="#7B7C7F" transform="translate(419,199)"/>
  <ns0:path d="M0 0 C0.66 0 1.32 0 2 0 C3.32 2.31 4.64 4.62 6 7 C6.615 6.783 7.23 6.567 7.863 6.344 C8.672 6.065 9.48 5.787 10.312 5.5 C11.113 5.222 11.914 4.943 12.738 4.656 C15 4 15 4 18 4 C19.32 8.95 20.64 13.9 22 19 C11.601 24.546 11.601 24.546 7 24 C0.477 18.409 0.773 7.993 0 0 Z " fill="#F69D06" transform="translate(128,379)"/>
  <ns0:path d="M0 0 C0.495 0.392 0.99 0.784 1.5 1.188 C1.131 7.581 1.131 7.581 -1.613 10.219 C-4.803 12.394 -7.95 13.923 -11.5 15.438 C-12.696 15.958 -13.893 16.479 -15.125 17.016 C-18.225 18.092 -20.268 18.544 -23.5 18.188 C-24.5 17.188 -24.5 17.188 -24.598 15.34 C-24.565 13.289 -24.533 11.238 -24.5 9.188 C-4.026 -1.308 -4.026 -1.308 0 0 Z " fill="#00A6DF" transform="translate(184.5,346.8125)"/>
  <ns0:path d="M0 0 C0.312 3.25 0.312 3.25 0 7 C-3.868 10.891 -8.499 12.737 -13.5 14.75 C-14.246 15.066 -14.993 15.382 -15.762 15.707 C-19.628 17.288 -22.742 18.439 -27 18 C-27.5 14.812 -27.5 14.812 -27 11 C-24.744 8.608 -21.949 7.387 -19 6 C-17.854 5.459 -16.708 4.917 -15.527 4.359 C-5.031 -0.407 -5.031 -0.407 0 0 Z " fill="#009CD3" transform="translate(296,297)"/>
  <ns0:path d="M0 0 C2.923 2.615 4.874 4.843 5.312 8.875 C5.209 9.576 5.106 10.277 5 11 C3.68 11 2.36 11 1 11 C0.412 9.855 0.412 9.855 -0.188 8.688 C-2.922 4.632 -6.34 3.965 -11 3 C-17.39 2.071 -22.331 3.558 -28.227 6.027 C-31 7 -31 7 -34.387 7.355 C-38.82 8.146 -41.545 9.83 -45.188 12.375 C-45.832 12.818 -46.477 13.26 -47.142 13.716 C-59.797 22.548 -59.797 22.548 -68.211 35.098 C-69.409 37.986 -71.15 40.49 -72.848 43.105 C-74.177 45.195 -74.177 45.195 -75.5 48.438 C-77 51 -77 51 -79.688 51.875 C-80.451 51.916 -81.214 51.957 -82 52 C-81.522 39.576 -74.417 30.544 -66 22 C-65.002 20.877 -65.002 20.877 -63.984 19.73 C-50.593 5.138 -19.274 -12.57 0 0 Z " fill="#010203" transform="translate(246,347)"/>
  <ns0:path d="M0 0 C2.895 1.737 3.013 3.052 3.875 6.375 C4.017 10.483 3.603 11.876 1 15 C-1.897 17.349 -3.313 18.014 -7.062 17.938 C-10.559 16.822 -11.957 16.065 -14 13 C-14.455 9.817 -14.712 8.014 -14 5 C-9.465 -0.609 -6.989 -1.471 0 0 Z " fill="#808183" transform="translate(344,134)"/>
  <ns0:path d="M0 0 C1.506 5.808 2.218 10.998 2 17 C-1.73 19.034 -3.669 20 -8 20 C-8.533 18.087 -9.051 16.169 -9.562 14.25 C-9.853 13.183 -10.143 12.115 -10.441 11.016 C-11.254 6.626 -11.254 6.626 -10 4 C-8.223 2.734 -8.223 2.734 -6.062 1.75 C-5.352 1.415 -4.642 1.08 -3.91 0.734 C-2 0 -2 0 0 0 Z " fill="#F4F5F3" transform="translate(157,377)"/>
  <ns0:path d="M0 0 C-5.206 6.338 -13.712 8.277 -21.172 10.934 C-26.769 13.044 -32.175 15.624 -37.551 18.242 C-38.732 18.803 -38.732 18.803 -39.938 19.375 C-40.627 19.713 -41.317 20.05 -42.027 20.398 C-44.391 21.119 -45.694 20.795 -48 20 C-43.649 16.041 -38.98 14.055 -33.613 11.855 C-32.715 11.481 -31.817 11.107 -30.891 10.722 C-29.001 9.937 -27.109 9.157 -25.216 8.38 C-22.307 7.185 -19.406 5.973 -16.506 4.76 C-14.667 3.999 -12.828 3.239 -10.988 2.48 C-9.682 1.934 -9.682 1.934 -8.349 1.376 C-7.545 1.049 -6.74 0.721 -5.911 0.384 C-5.203 0.091 -4.494 -0.201 -3.763 -0.502 C-2 -1 -2 -1 0 0 Z " fill="#111321" transform="translate(322,249)"/>
  <ns0:path d="M0 0 C2.64 0.99 5.28 1.98 8 3 C6.962 9.067 5.66 14.437 3 20 C0.625 20.125 0.625 20.125 -2 20 C-2.66 19.34 -3.32 18.68 -4 18 C-3.87 15.45 -3.628 13.076 -3.25 10.562 C-3.162 9.881 -3.075 9.2 -2.984 8.498 C-2.492 5.008 -1.985 2.978 0 0 Z " fill="#25303B" transform="translate(405,216)"/>
  <ns0:path d="M0 0 C1.779 5.337 -0.156 10.819 -2 16 C-4.642 19.225 -8.051 20.079 -12 21 C-10.993 9.319 -10.993 9.319 -9 5 C-6.164 2.948 -3.191 1.425 0 0 Z " fill="#E39906" transform="translate(427,253)"/>
  <ns0:path d="M0 0 C1.98 0 3.96 0 6 0 C6.906 3.718 7.012 6.824 6.625 10.625 C6.535 11.566 6.445 12.507 6.352 13.477 C6 16 6 16 5 19 C3.02 19 1.04 19 -1 19 C-2.191 14.643 -1.767 11.12 -1.062 6.688 C-0.868 5.433 -0.673 4.179 -0.473 2.887 C-0.317 1.934 -0.161 0.981 0 0 Z " fill="#242B31" transform="translate(335,152)"/>
  <ns0:path d="M0 0 C-0.227 2.487 -0.468 4.97 -0.734 7.453 C-0.925 9.278 -1.071 11.107 -1.188 12.938 C-2 15 -2 15 -4.938 16.812 C-8 18 -8 18 -10 18 C-10.226 12.588 -9.878 8.123 -8 3 C-5.226 1.15 -3.36 0 0 0 Z " fill="#E9ECED" transform="translate(417,259)"/>
  <ns0:path d="M0 0 C1.498 3.371 2 5.204 2 9 C-2.052 10.602 -4.812 11.512 -9 10 C-11 7 -11 7 -10.871 4.922 C-10 3 -10 3 -8.223 1.953 C-7.153 1.605 -7.153 1.605 -6.062 1.25 C-5.352 1.008 -4.642 0.765 -3.91 0.516 C-2 0 -2 0 0 0 Z " fill="#474C54" transform="translate(161,278)"/>
  <ns0:path d="M0 0 C0.33 2.64 0.66 5.28 1 8 C-2.469 10.313 -3.922 10.425 -8 10 C-9.938 8.75 -9.938 8.75 -11 7 C-11.125 5 -11.125 5 -10 3 C-6.504 1.187 -3.96 0 0 0 Z " fill="#3D4650" transform="translate(319,215)"/>
  <ns0:path d="M0 0 C1.354 2.709 1.065 5.009 1 8 C-1.64 8.66 -4.28 9.32 -7 10 C-8.562 7.688 -8.562 7.688 -10 5 C-9 2 -9 2 -6.688 0.812 C-4 0 -4 0 0 0 Z " fill="#49515B" transform="translate(109,199)"/>
  <ns0:path d="M0 0 C0.625 3.375 0.625 3.375 1 7 C-1 9 -1 9 -4 9.312 C-4.99 9.209 -5.98 9.106 -7 9 C-9 6 -9 6 -9 3.938 C-8 2 -8 2 -5.062 0.75 C-2 0 -2 0 0 0 Z " fill="#3F4450" transform="translate(254,148)"/>
  <ns0:path d="M0 0 C2.64 0.99 5.28 1.98 8 3 C8 3.99 8 4.98 8 6 C5.03 5.67 2.06 5.34 -1 5 C-0.67 3.35 -0.34 1.7 0 0 Z " fill="#181D23" transform="translate(405,216)"/>
  <ns0:path d="M0 0 C1.98 0 3.96 0 6 0 C6 0.99 6 1.98 6 3 C4.02 3 2.04 3 0 3 C0 2.01 0 1.02 0 0 Z " fill="#131518" transform="translate(335,152)"/>
  <ns0:path d="M0 0 C2 1 2 1 2 1 Z " fill="#336796" transform="translate(134,386)"/>
</svg>