<?xml version="1.0" ?>
<svg xmlns:ns0="http://www.w3.org/2000/svg" xmlns="http://www.w3.org/2000/svg" width="512" height="512" viewBox="0 0 512 512" style="background-color: transparent;">
  <ns0:path d="M0 0 C0.727 -0.006 1.453 -0.012 2.202 -0.018 C4.614 -0.035 7.025 -0.03 9.437 -0.026 C11.176 -0.033 12.914 -0.041 14.653 -0.051 C19.36 -0.073 24.066 -0.076 28.773 -0.074 C32.709 -0.074 36.645 -0.083 40.582 -0.091 C49.872 -0.11 59.162 -0.113 68.452 -0.107 C78.02 -0.1 87.588 -0.123 97.156 -0.16 C105.385 -0.191 113.615 -0.202 121.844 -0.198 C126.753 -0.196 131.661 -0.201 136.57 -0.226 C141.188 -0.248 145.805 -0.246 150.424 -0.226 C152.112 -0.223 153.802 -0.228 155.49 -0.242 C172.941 -0.38 172.941 -0.38 180.348 5.394 C182.763 8.218 184.565 11.14 186.348 14.394 C186.837 15.228 187.325 16.061 187.829 16.919 C189.409 19.623 190.945 22.348 192.473 25.082 C193.025 26.067 193.578 27.052 194.147 28.067 C195.886 31.174 197.617 34.284 199.348 37.394 C199.931 38.437 200.514 39.48 201.115 40.555 C202.804 43.581 204.484 46.611 206.16 49.644 C206.682 50.579 207.203 51.513 207.741 52.475 C208.216 53.341 208.69 54.206 209.18 55.098 C209.6 55.857 210.02 56.617 210.452 57.399 C211.348 59.394 211.348 59.394 211.348 62.394 C204.088 62.394 196.828 62.394 189.348 62.394 C190.008 64.622 190.668 66.849 191.348 69.144 C192.536 73.154 193.348 76.198 193.348 80.394 C196.318 80.394 199.288 80.394 202.348 80.394 C203.668 85.014 204.988 89.634 206.348 94.394 C205.348 95.394 205.348 95.394 201.598 95.894 C198.953 95.871 197.781 95.777 195.777 94.008 C193.864 91.366 192.509 88.818 191.348 85.769 C190.006 82.583 187.805 80.79 185.348 78.394 C184.997 77.673 184.646 76.951 184.285 76.207 C183.045 73.809 181.762 73.568 179.348 72.394 C177.738 71.319 176.134 70.235 174.535 69.144 C156.871 57.863 136.812 54.868 116.279 58.846 C105.531 61.257 95.615 66.021 89.348 75.394 C88.818 76.17 88.288 76.946 87.742 77.746 C86.153 80.764 85.679 83.274 85.223 86.644 C84.436 92.307 84.436 92.307 83.348 93.394 C80.553 93.495 77.783 93.531 74.988 93.524 C73.674 93.526 73.674 93.526 72.333 93.529 C69.421 93.534 66.509 93.531 63.598 93.527 C61.584 93.528 59.57 93.529 57.556 93.53 C53.329 93.532 49.102 93.529 44.875 93.525 C39.444 93.519 34.013 93.522 28.582 93.528 C24.421 93.532 20.261 93.531 16.1 93.528 C14.097 93.528 12.094 93.528 10.09 93.531 C7.296 93.533 4.502 93.529 1.707 93.524 C0.452 93.527 0.452 93.527 -0.827 93.53 C-6.538 93.509 -6.538 93.509 -7.652 92.394 C-8.151 89.395 -8.553 86.388 -8.957 83.375 C-9.679 80.282 -10.667 78.808 -12.652 76.394 C-12.652 75.734 -12.652 75.074 -12.652 74.394 C-14.137 73.899 -14.137 73.899 -15.652 73.394 C-16.832 71.92 -18.011 70.444 -19.18 68.961 C-21.623 66.362 -24.492 65.006 -27.652 63.394 C-27.652 62.404 -27.652 61.414 -27.652 60.394 C-28.436 60.229 -29.22 60.064 -30.027 59.894 C-32.652 58.394 -32.652 58.394 -33.965 54.894 C-35.897 44.422 -33.737 36.479 -29.902 26.644 C-29.459 25.452 -29.015 24.26 -28.559 23.031 C-22.278 6.497 -22.278 6.497 -13.903 2.575 C-9.155 0.696 -5.165 0.015 0 0 Z M-2.652 14.394 C-3.785 21.066 -3.754 27.641 -3.652 34.394 C-0.229 36.469 2.46 36.657 6.43 36.685 C8.272 36.704 8.272 36.704 10.151 36.724 C11.487 36.727 12.824 36.729 14.16 36.73 C15.535 36.737 16.91 36.744 18.284 36.751 C21.163 36.762 24.041 36.766 26.919 36.765 C30.605 36.765 34.29 36.792 37.975 36.827 C40.813 36.849 43.651 36.853 46.489 36.852 C47.847 36.854 49.206 36.863 50.565 36.878 C52.465 36.898 54.365 36.89 56.266 36.88 C57.346 36.883 58.427 36.886 59.54 36.889 C63.048 36.271 64.226 35.213 66.348 32.394 C66.907 28.801 66.907 28.801 66.723 24.894 C66.703 22.93 66.703 22.93 66.684 20.926 C66.321 16.824 66.321 16.824 64.348 13.394 C60.797 10.895 58.368 10.018 54.042 10.006 C53.007 9.997 51.972 9.987 50.906 9.978 C49.243 9.987 49.243 9.987 47.547 9.996 C45.821 9.992 45.821 9.992 44.061 9.987 C41.629 9.985 39.198 9.991 36.766 10.003 C33.059 10.019 29.353 10.003 25.647 9.984 C23.28 9.986 20.913 9.99 18.547 9.996 C17.445 9.99 16.342 9.984 15.206 9.978 C5.593 9.971 5.593 9.971 -2.652 14.394 Z M92.348 12.394 C92.435 15.104 92.542 17.811 92.66 20.519 C92.683 21.28 92.705 22.041 92.729 22.824 C92.764 23.572 92.799 24.319 92.836 25.09 C92.862 25.771 92.888 26.451 92.915 27.153 C93.389 30.152 93.389 30.152 96.348 35.394 C121.428 35.394 146.508 35.394 172.348 35.394 C173.588 30.435 172.182 27.832 170.16 23.394 C169.855 22.683 169.55 21.971 169.236 21.238 C167.469 17.267 165.811 14.171 162.348 11.394 C159.156 10.331 156.751 10.218 153.395 10.141 C152.17 10.112 150.945 10.082 149.683 10.052 C148.345 10.025 147.006 9.998 145.668 9.973 C144.655 9.952 144.655 9.952 143.622 9.931 C140.051 9.857 136.479 9.79 132.907 9.727 C129.222 9.661 125.538 9.576 121.854 9.487 C119.017 9.422 116.179 9.371 113.341 9.323 C111.983 9.298 110.625 9.267 109.267 9.232 C107.365 9.183 105.462 9.156 103.559 9.13 C102.478 9.108 101.397 9.087 100.283 9.065 C96.947 9.439 95.07 10.482 92.348 12.394 Z M32.348 42.394 C30.981 45.127 31.219 47.376 31.348 50.394 C33.685 52.732 39.536 51.566 42.647 51.58 C43.665 51.58 43.665 51.58 44.703 51.58 C46.773 51.582 48.842 51.6 50.912 51.619 C52.21 51.621 53.507 51.623 54.844 51.625 C56.641 51.631 56.641 51.631 58.474 51.637 C61.478 51.695 61.478 51.695 63.348 49.394 C63.681 46.394 63.681 46.394 63.348 43.394 C61.526 41.15 61.526 41.15 58.889 41.151 C57.878 41.156 56.866 41.16 55.824 41.164 C54.169 41.167 54.169 41.167 52.48 41.17 C51.323 41.182 50.165 41.194 48.973 41.207 C47.823 41.208 46.673 41.208 45.488 41.209 C38.815 41.051 38.815 41.051 32.348 42.394 Z M154.348 42.394 C153.479 45.983 153.479 45.983 153.91 49.582 C156.01 52.23 158.109 52.526 161.348 53.394 C164.837 53.671 164.837 53.671 168.41 53.582 C169.597 53.575 170.785 53.569 172.008 53.562 C174.909 53.416 177.528 53.061 180.348 52.394 C180.798 47.798 180.798 47.798 179.169 43.682 C176.689 41.929 175.042 42.051 172.023 42.101 C170.995 42.111 169.967 42.121 168.908 42.131 C167.836 42.156 166.765 42.181 165.66 42.207 C164.577 42.22 163.493 42.234 162.377 42.248 C159.7 42.283 157.024 42.333 154.348 42.394 Z " fill="#0059B8" transform="translate(223.65231323242188,150.6055908203125)"/>
  <ns0:path d="M0 0 C30.03 0 60.06 0 91 0 C91.987 3.949 92.111 7.409 92.062 11.43 C92.054 12.948 92.046 14.467 92.037 15.986 C92.031 16.783 92.025 17.58 92.019 18.402 C91.921 31.39 92.032 44.334 92.562 57.312 C93.747 88.055 93.747 88.055 89 97 C87.515 97.495 87.515 97.495 86 98 C84.791 100 84.791 100 84 102 C73.734 102.069 63.469 102.123 53.203 102.155 C48.436 102.171 43.67 102.192 38.903 102.226 C34.306 102.259 29.709 102.277 25.112 102.285 C23.355 102.29 21.599 102.301 19.842 102.317 C17.387 102.339 14.934 102.342 12.479 102.341 C11.747 102.351 11.016 102.362 10.262 102.373 C8.24 102.361 8.24 102.361 5 102 C4.34 101.01 3.68 100.02 3 99 C0.941 98.276 0.941 98.276 -1 98 C-2.192 93.344 -2.103 88.877 -2.038 84.111 C-2.03 83.226 -2.022 82.34 -2.013 81.428 C-1.986 78.511 -1.95 75.593 -1.914 72.676 C-1.892 70.647 -1.871 68.619 -1.85 66.591 C-1.804 62.345 -1.755 58.099 -1.703 53.853 C-1.637 48.402 -1.58 42.951 -1.525 37.5 C-1.482 33.314 -1.435 29.129 -1.386 24.944 C-1.363 22.933 -1.342 20.922 -1.321 18.911 C-1.293 16.108 -1.258 13.305 -1.221 10.501 C-1.214 9.665 -1.207 8.829 -1.199 7.968 C-1.114 2.229 -1.114 2.229 0 0 Z " fill="#000000" transform="translate(217,245)"/>
  <ns0:path d="M0 0 C1.547 0.65 1.547 0.65 3.125 1.312 C7.764 4.035 12.062 7.334 16 11 C16 11.66 16 12.32 16 13 C16.66 13 17.32 13 18 13 C18.99 15.475 18.99 15.475 20 18 C20.66 18 21.32 18 22 18 C23.219 19.355 23.219 19.355 24.5 21.188 C24.923 21.779 25.346 22.371 25.781 22.98 C29.289 28.793 29.335 33.938 29.371 40.582 C29.38 41.628 29.389 42.674 29.398 43.751 C29.413 45.974 29.422 48.198 29.426 50.421 C29.437 53.735 29.486 57.048 29.537 60.361 C29.645 74.904 29.666 92.668 23 106 C22.822 107.413 22.681 108.831 22.562 110.25 C22.176 114.088 21.27 117.35 20 121 C19.835 122.217 19.67 123.434 19.5 124.688 C19 128 19 128 17 131 C14.066 131.328 14.066 131.328 10.562 131.25 C9.409 131.235 8.255 131.219 7.066 131.203 C4 131 4 131 1 130 C0.67 124.39 0.34 118.78 0 113 C-2.265 113.008 -2.265 113.008 -4.576 113.016 C-10.302 113.034 -16.027 113.046 -21.753 113.055 C-24.208 113.06 -26.663 113.067 -29.118 113.075 C-45.441 113.132 -61.698 112.845 -78 112 C-78 109 -78 109 -77 107 C-76.518 99.184 -77.178 91.307 -77.646 83.502 C-77.974 77.657 -78.011 71.853 -77.938 66 C-77.882 60.082 -78.156 54.611 -79.422 48.805 C-84.866 22.392 -84.866 22.392 -79 12 C-72.125 1.916 -60.668 -4.054 -48.938 -6.688 C-31.446 -9.715 -16.079 -7.446 0 0 Z M-66.242 13.773 C-71.983 21.045 -73.832 27.873 -74 37 C-74.03 37.757 -74.059 38.515 -74.09 39.295 C-74.19 41.905 -74.256 44.514 -74.312 47.125 C-74.343 47.96 -74.373 48.795 -74.404 49.656 C-74.482 58.408 -71.018 66.596 -65 73 C-52.778 83.592 -37.547 88.462 -21.562 87.938 C-8.737 86.795 1.482 81.871 10.312 72.562 C14.326 66.468 16.751 60.376 18.25 53.25 C18.416 52.465 18.582 51.68 18.754 50.871 C20.635 41.47 21.76 33.486 16.484 25.035 C7.599 12.853 -5.451 4.1 -20.438 1.375 C-37.35 -0.41 -54.095 0.643 -66.242 13.773 Z " fill="#000000" transform="translate(391,215)"/>
  <ns0:path d="M0 0 C0.99 0.66 1.98 1.32 3 2 C3 2.66 3 3.32 3 4 C3.594 4.244 4.189 4.487 4.801 4.738 C7.405 6.232 8.523 7.702 10.188 10.188 C10.697 10.924 11.206 11.66 11.73 12.418 C14.634 18.323 13.956 23.041 12.082 29.145 C8.701 41.738 9.538 54.761 9.688 67.688 C9.699 70.257 9.709 72.827 9.717 75.396 C9.73 77.852 9.745 80.307 9.762 82.762 C9.769 83.902 9.776 85.043 9.784 86.218 C9.803 87.817 9.803 87.817 9.823 89.448 C9.833 90.378 9.843 91.308 9.853 92.267 C9.952 95.058 9.952 95.058 10.507 98.011 C10.978 100.868 11.102 103.485 11.062 106.375 C11.053 107.249 11.044 108.123 11.035 109.023 C11.024 109.676 11.012 110.328 11 111 C3.851 111.026 -3.298 111.043 -10.448 111.055 C-12.874 111.06 -15.301 111.067 -17.727 111.075 C-41.632 111.159 -41.632 111.159 -52.297 110.225 C-56.005 109.916 -59.655 109.902 -63.375 109.938 C-64.641 109.947 -65.907 109.956 -67.211 109.965 C-68.131 109.976 -69.052 109.988 -70 110 C-71.43 114.291 -71.28 118.565 -71.426 123.066 C-72 126 -72 126 -73.809 127.395 C-76.901 128.249 -79.812 128.123 -83 128 C-83 127.34 -83 126.68 -83 126 C-83.598 125.959 -84.196 125.918 -84.812 125.875 C-87 125 -87 125 -88.473 122.598 C-90.42 118.011 -91.524 113.411 -92.625 108.562 C-92.842 107.647 -93.058 106.731 -93.281 105.787 C-94.191 101.877 -95.05 97.996 -95.59 94.016 C-95.906 90.992 -95.906 90.992 -96.938 88.188 C-99.423 80.731 -100.179 73.702 -100.188 65.875 C-100.189 64.747 -100.189 64.747 -100.19 63.597 C-100.148 59.351 -99.782 55.29 -99.198 51.077 C-98.902 47.971 -99.055 44.909 -99.169 41.795 C-99.617 27.765 -96.42 19.097 -87.01 8.742 C-84.524 6.162 -82.649 4.369 -79 4 C-79 3.34 -79 2.68 -79 2 C-53.653 -11.24 -25.377 -17.45 0 0 Z M-84.461 17.156 C-89.186 22.816 -90.816 28.719 -91 36 C-90.676 39.372 -90.037 42.631 -89.312 45.938 C-89.126 46.816 -88.94 47.695 -88.748 48.601 C-86.225 60.048 -82.695 70.191 -72.812 77.25 C-60.204 85.08 -45.947 86.823 -31.5 83.938 C-18.191 80.428 -5.234 73.283 2.598 61.621 C5.365 56.235 6.167 51.576 6.125 45.625 C6.118 44.559 6.118 44.559 6.11 43.47 C5.945 28.709 5.123 18.403 -5.375 7.301 C-16.174 -2.164 -29.184 -3.794 -42.964 -3.148 C-59.193 -1.968 -73.291 5.527 -84.461 17.156 Z " fill="#000000" transform="translate(202,218)"/>
  <ns0:path d="M0 0 C7.845 6.115 13.418 12.763 14.777 22.688 C15.099 26.082 15.266 29.455 15.391 32.863 C15.423 33.525 15.456 34.187 15.489 34.869 C15.989 45.588 15.222 53.325 8.328 61.926 C-2.375 73.358 -16.342 80.053 -31.922 81.082 C-44.968 81.425 -57.658 78.868 -67.711 70.012 C-77.205 59.871 -81.808 42.592 -81.609 28.863 C-80.684 19.974 -75.408 12.916 -69.102 6.883 C-61.019 0.333 -51.849 -4.201 -41.609 -6.137 C-40.674 -6.318 -39.738 -6.5 -38.773 -6.688 C-25.324 -8.597 -11.598 -7.539 0 0 Z M-50.172 16.488 C-53.306 20.555 -54.04 23.424 -53.934 28.547 C-53.526 31.459 -52.487 33.471 -50.422 35.578 C-44.272 39.939 -37.01 41.686 -29.609 40.863 C-21.839 39.265 -15.278 36.737 -10.672 30.051 C-8.884 24.688 -8.72 20.79 -11.109 15.613 C-15.33 10.971 -18.823 9.168 -25.113 8.48 C-34.818 8.187 -43.453 8.898 -50.172 16.488 Z " fill="#272D34" transform="translate(192.609375,222.13671875)"/>
  <ns0:path d="M0 0 C6.288 5.508 13.808 12.184 14.957 20.848 C15.494 33.848 12.553 50.707 3.668 60.633 C-7.166 70.952 -19.743 74.256 -34.363 74.434 C-46.458 73.882 -61.783 68.294 -70.363 59.434 C-77.194 51.103 -79.716 44.43 -79.551 33.746 C-79.536 32.409 -79.536 32.409 -79.52 31.045 C-79.483 28.508 -79.426 25.971 -79.363 23.434 C-79.345 22.311 -79.327 21.188 -79.309 20.031 C-78.834 10.296 -74.692 2.78 -67.594 -3.812 C-48.344 -18.949 -18.197 -14.687 0 0 Z M-52.078 9.234 C-54.473 13.333 -53.836 17.841 -53.363 22.434 C-51.528 27.939 -46.206 30.661 -41.363 33.434 C-35.029 35.545 -25.934 35.713 -19.637 33.457 C-16.111 31.304 -13.579 28.948 -11.363 25.434 C-10.343 21.088 -10.452 17.097 -12.617 13.145 C-17.533 7.054 -22.971 3.922 -30.734 3.059 C-38.628 2.787 -46.354 3.224 -52.078 9.234 Z " fill="#282E36" transform="translate(396.36328125,228.56640625)"/>
  <ns0:path d="M0 0 C1.3 1.814 1.3 1.814 0.993 4.365 C0.6 5.953 0.6 5.953 0.199 7.572 C-1.576 18.327 1.438 28.238 3.925 38.689 C4.426 40.878 4.925 43.067 5.422 45.257 C8.046 56.705 10.851 68.104 13.746 79.486 C14.024 80.582 14.302 81.678 14.588 82.808 C15.926 88.072 17.284 93.33 18.678 98.579 C19.172 100.483 19.666 102.387 20.16 104.291 C20.392 105.141 20.625 105.991 20.865 106.866 C22.244 112.248 22.469 116.354 21.3 121.814 C17.832 125.338 13.743 125.227 9.044 125.273 C7.717 125.263 7.717 125.263 6.363 125.252 C5.482 125.272 4.601 125.292 3.693 125.312 C-1.866 125.308 -5.527 124.847 -9.7 120.814 C-12.812 113.565 -14.777 105.909 -16.938 98.334 C-17.345 96.916 -17.752 95.498 -18.16 94.08 C-19.231 90.352 -20.298 86.623 -21.364 82.894 C-22.638 78.439 -23.917 73.986 -25.196 69.533 C-26.229 65.934 -27.259 62.335 -28.284 58.734 C-30.031 52.601 -31.79 46.473 -33.643 40.37 C-33.928 39.418 -34.213 38.466 -34.506 37.485 C-35.013 35.799 -35.529 34.116 -36.06 32.438 C-39.143 22.091 -37.836 12.717 -33.7 2.814 C-31.731 -0.392 -29.726 -1.868 -26.075 -2.998 C-5.904 -4.119 -5.904 -4.119 0 0 Z " fill="#8A8B8E" transform="translate(91.69970703125,230.185791015625)"/>
  <ns0:path d="M0 0 C0.737 -0.005 1.474 -0.01 2.233 -0.015 C4.67 -0.029 7.106 -0.028 9.543 -0.026 C11.235 -0.03 12.928 -0.034 14.62 -0.039 C18.168 -0.047 21.715 -0.046 25.263 -0.041 C29.813 -0.035 34.362 -0.052 38.912 -0.075 C42.407 -0.09 45.902 -0.091 49.397 -0.088 C51.075 -0.088 52.752 -0.094 54.43 -0.104 C56.774 -0.116 59.117 -0.109 61.461 -0.098 C62.504 -0.109 62.504 -0.109 63.567 -0.121 C66.362 -0.09 68.282 -0.029 70.63 1.564 C74.109 6.974 72.654 13.668 71.543 19.587 C70.982 22.163 70.363 24.714 69.73 27.275 C69.474 28.357 69.217 29.44 68.953 30.556 C66.262 40.181 60.69 47.287 51.98 52.275 C50.576 52.966 49.16 53.637 47.73 54.275 C46.844 54.687 45.957 55.1 45.043 55.525 C32.16 59.703 19.431 57.084 7.48 51.525 C-1.318 46.88 -7.054 40.814 -10.27 31.275 C-11.627 24.108 -11.348 16.841 -11.02 9.587 C-10.981 8.544 -10.981 8.544 -10.941 7.479 C-10.816 5.513 -10.816 5.513 -10.27 2.275 C-6.689 -0.112 -4.133 -0.015 0 0 Z " fill="#191D21" transform="translate(320.26953125,326.725341796875)"/>
  <ns0:path d="M0 0 C7.685 -0.102 15.301 -0.03 22.973 0.473 C35.771 1.245 48.588 1.352 61.406 1.552 C64.615 1.604 67.825 1.661 71.035 1.719 C72.023 1.732 73.012 1.746 74.03 1.76 C74.933 1.777 75.836 1.793 76.766 1.811 C77.96 1.829 77.96 1.829 79.179 1.849 C81 2 81 2 82 3 C82.312 6.637 82.279 10.289 82.312 13.938 C82.356 15.451 82.356 15.451 82.4 16.994 C82.493 28.066 79.203 35.725 71.539 43.676 C61.137 53.198 48.363 57.912 34.227 57.379 C23.478 56.117 13.159 52.307 6.156 43.746 C2.137 37.609 0.358 31.152 -1 24 C-1.278 22.558 -1.278 22.558 -1.562 21.086 C-2.049 17.653 -2.169 14.342 -2.188 10.875 C-2.202 9.676 -2.216 8.477 -2.23 7.242 C-2.014 4.197 -1.603 2.547 0 0 Z " fill="#13161A" transform="translate(132,327)"/>
  <ns0:path d="M0 0 C4.339 0.01 8.678 0.015 13.017 0.02 C21.448 0.03 29.879 0.047 38.31 0.069 C38.379 0.688 38.447 1.307 38.518 1.945 C38.608 2.757 38.698 3.568 38.79 4.404 C38.88 5.209 38.969 6.014 39.061 6.843 C39.315 9.108 39.585 11.37 39.873 13.631 C40.089 15.333 40.089 15.333 40.31 17.069 C41.96 17.399 43.61 17.729 45.31 18.069 C45.31 19.059 45.31 20.049 45.31 21.069 C44.441 20.792 43.573 20.514 42.677 20.229 C41.525 19.867 40.373 19.504 39.185 19.131 C38.048 18.772 36.911 18.412 35.74 18.041 C16.504 12.586 -5.184 15.998 -22.69 25.069 C-28.351 28.497 -33.101 32.336 -37.69 37.069 C-38.35 37.069 -39.01 37.069 -39.69 37.069 C-39.957 37.611 -40.223 38.154 -40.498 38.713 C-41.868 41.422 -43.303 44.089 -44.752 46.756 C-45.279 47.729 -45.807 48.703 -46.35 49.705 C-47.69 52.069 -47.69 52.069 -48.69 53.069 C-50.372 53.302 -52.061 53.481 -53.752 53.631 C-54.671 53.715 -55.59 53.799 -56.537 53.885 C-57.248 53.946 -57.958 54.006 -58.69 54.069 C-59.892 50.538 -59.485 47.94 -58.752 44.319 C-58.558 43.334 -58.363 42.349 -58.162 41.334 C-58.006 40.587 -57.85 39.839 -57.69 39.069 C-55.215 38.574 -55.215 38.574 -52.69 38.069 C-52.566 37.058 -52.442 36.047 -52.315 35.006 C-51.715 31.225 -50.795 27.73 -49.69 24.069 C-49.36 22.749 -49.03 21.429 -48.69 20.069 C-57.6 20.069 -66.51 20.069 -75.69 20.069 C-73.995 8.205 -73.995 8.205 -69.127 3.694 C-63.955 0.246 -59.123 0.714 -53.018 0.51 C-51.787 0.468 -50.556 0.426 -49.288 0.382 C-32.862 -0.121 -16.432 -0.044 0 0 Z " fill="#0059BC" transform="translate(150.68975830078125,191.93133544921875)"/>
  <ns0:path d="M0 0 C0.426 7.126 -1.133 13.096 -3.113 19.914 C-3.602 21.643 -3.602 21.643 -4.1 23.406 C-5.16 27.149 -6.235 30.887 -7.312 34.625 C-8.049 37.197 -8.783 39.77 -9.517 42.343 C-10.622 46.214 -11.729 50.084 -12.842 53.953 C-14.782 60.704 -16.691 67.462 -18.538 74.24 C-19.501 77.773 -20.479 81.303 -21.459 84.832 C-21.9 86.431 -22.333 88.032 -22.759 89.636 C-23.343 91.831 -23.953 94.017 -24.57 96.203 C-24.898 97.406 -25.225 98.609 -25.563 99.849 C-27.429 103.942 -29.336 105.426 -33 108 C-38.799 109.567 -45.17 109.364 -51 108 C-51.66 107.34 -52.32 106.68 -53 106 C-53 104.68 -53 103.36 -53 102 C-52.384 101.421 -51.769 100.842 -51.135 100.245 C-48.256 97.217 -47.691 94.04 -46.844 90.074 C-46.66 89.275 -46.476 88.475 -46.286 87.651 C-45.678 84.999 -45.089 82.344 -44.5 79.688 C-43.636 75.89 -42.76 72.095 -41.883 68.301 C-41.655 67.311 -41.428 66.322 -41.193 65.302 C-39.466 57.852 -37.606 50.443 -35.68 43.043 C-35.404 41.981 -35.128 40.919 -34.844 39.824 C-33.756 35.646 -32.665 31.469 -31.558 27.296 C-30.788 24.395 -30.03 21.491 -29.273 18.586 C-29.043 17.732 -28.812 16.879 -28.574 15.999 C-27.242 10.845 -26.778 6.325 -27 1 C-18.346 -1.769 -8.863 -2.086 0 0 Z " fill="#87898B" transform="translate(458,246)"/>
  <ns0:path d="M0 0 C1.173 0.003 2.345 0.005 3.554 0.008 C4.82 0.016 6.086 0.024 7.391 0.032 C8.735 0.037 10.079 0.041 11.423 0.045 C14.234 0.054 17.045 0.067 19.856 0.081 C23.857 0.101 27.858 0.114 31.859 0.124 C47.339 0.166 62.818 0.246 78.297 0.337 C86.037 0.383 93.776 0.422 101.516 0.448 C108.356 0.471 115.197 0.504 122.037 0.55 C125.633 0.574 129.23 0.593 132.826 0.599 C136.807 0.606 140.788 0.637 144.768 0.669 C146.536 0.667 146.536 0.667 148.34 0.665 C149.964 0.684 149.964 0.684 151.62 0.703 C152.557 0.708 153.495 0.712 154.46 0.717 C157.604 1.181 159.497 2.266 162.069 4.102 C163.804 6.746 164.069 7.886 164.069 11.102 C74.474 11.597 74.474 11.597 -16.931 12.102 C-15.931 5.102 -15.931 5.102 -13.681 2.727 C-9.234 0.099 -5.09 -0.022 0 0 Z " fill="#727477" transform="translate(229.93113708496094,139.8983612060547)"/>
  <ns0:path d="M0 0 C1.837 0.016 1.837 0.016 3.711 0.032 C5.683 0.074 5.683 0.074 7.695 0.117 C9.066 0.137 10.437 0.157 11.808 0.175 C14.676 0.218 17.544 0.271 20.412 0.333 C24.08 0.41 27.748 0.461 31.417 0.503 C34.247 0.539 37.076 0.589 39.905 0.643 C41.913 0.679 43.921 0.703 45.929 0.727 C47.154 0.757 48.379 0.786 49.641 0.816 C51.253 0.847 51.253 0.847 52.899 0.877 C56.963 1.46 59.663 3.038 62.43 6.046 C64.262 9.012 65.694 12.103 67.07 15.296 C67.351 15.913 67.632 16.529 67.922 17.164 C69.562 20.947 69.86 22.139 68.82 26.296 C43.74 26.296 18.66 26.296 -7.18 26.296 C-10.555 19.546 -10.555 19.546 -10.691 15.992 C-10.727 15.244 -10.762 14.496 -10.799 13.726 C-10.821 12.966 -10.844 12.205 -10.867 11.421 C-10.901 10.638 -10.936 9.854 -10.971 9.046 C-11.052 7.13 -11.118 5.213 -11.18 3.296 C-7.293 0.572 -4.722 -0.068 0 0 Z " fill="#252434" transform="translate(327.1796875,159.70361328125)"/>
  <ns0:path d="M0 0 C1.045 -0.01 2.089 -0.019 3.166 -0.029 C4.289 -0.033 5.412 -0.038 6.569 -0.042 C8.307 -0.051 8.307 -0.051 10.08 -0.059 C12.531 -0.069 14.981 -0.075 17.431 -0.079 C21.18 -0.089 24.928 -0.12 28.676 -0.151 C31.057 -0.158 33.438 -0.163 35.819 -0.167 C36.94 -0.179 38.061 -0.192 39.215 -0.204 C40.263 -0.201 41.311 -0.198 42.391 -0.195 C43.768 -0.201 43.768 -0.201 45.174 -0.206 C48.307 0.239 50.19 1.347 52.76 3.161 C55.373 6.645 55.093 10.429 55.135 14.661 C55.163 15.971 55.192 17.281 55.221 18.63 C54.679 22.78 54.017 23.655 50.76 26.161 C47.952 26.656 47.952 26.656 44.678 26.647 C42.836 26.656 42.836 26.656 40.957 26.666 C39.62 26.652 38.284 26.637 36.948 26.622 C35.573 26.62 34.198 26.619 32.823 26.619 C29.945 26.616 27.067 26.6 24.189 26.573 C20.503 26.539 16.818 26.531 13.133 26.533 C10.295 26.532 7.457 26.521 4.619 26.507 C3.26 26.5 1.902 26.496 0.543 26.495 C-1.357 26.491 -3.258 26.471 -5.158 26.452 C-6.238 26.444 -7.319 26.436 -8.432 26.429 C-11.211 26.164 -12.874 25.595 -15.24 24.161 C-15.462 9.333 -15.462 9.333 -14.24 4.161 C-9.954 0.57 -5.436 0.04 0 0 Z " fill="#242232" transform="translate(235.239990234375,160.8388671875)"/>
  <ns0:path d="M0 0 C3.995 3.307 5.371 6.088 6.02 11.195 C5.767 15.599 4.296 18.857 1.52 22.258 C-4.277 27.226 -12.676 29.964 -20.34 29.605 C-26.189 28.655 -32.423 26.9 -36.668 22.57 C-39.018 18.276 -39.409 15.049 -38.48 10.258 C-35.322 4.059 -30.66 0.075 -24.051 -2.199 C-16.271 -3.843 -6.963 -4.339 0 0 Z " fill="#8A8E92" transform="translate(177.48046875,233.7421875)"/>
  <ns0:path d="M0 0 C4.5 3.148 8.266 6.411 9.582 11.914 C9.818 16.151 9.457 19.39 6.852 22.82 C1.629 27.475 -2.976 28.923 -9.898 28.82 C-10.606 28.813 -11.313 28.807 -12.042 28.8 C-19.46 28.571 -23.487 26.644 -28.898 21.82 C-33.038 17.072 -33.528 14.185 -33.398 8.047 C-33.023 5.383 -33.023 5.383 -30.961 2.383 C-21.837 -3.829 -10.102 -5.41 0 0 Z " fill="#8C8E91" transform="translate(376.0234375,234.6171875)"/>
  <ns0:path d="M0 0 C4.46 4.701 5.555 10.848 7 17 C5.721 16.988 4.442 16.977 3.125 16.965 C1.417 16.955 -0.292 16.946 -2 16.938 C-2.839 16.929 -3.678 16.921 -4.543 16.912 C-9.793 16.892 -14.805 17.236 -20 18 C-20.7 15.921 -21.385 13.836 -22.062 11.75 C-22.445 10.59 -22.828 9.43 -23.223 8.234 C-24.302 3.743 -24.302 3.743 -23 1 C-16.549 -3.3 -7.019 -2.883 0 0 Z " fill="#939597" transform="translate(451,229)"/>
  <ns0:path d="M0 0 C1.225 0.01 2.45 0.021 3.712 0.032 C5.05 0.049 6.389 0.067 7.727 0.085 C9.101 0.102 10.475 0.118 11.848 0.135 C14.728 0.171 17.608 0.213 20.488 0.256 C24.172 0.311 27.856 0.348 31.541 0.38 C34.379 0.408 37.217 0.449 40.055 0.494 C41.412 0.513 42.77 0.527 44.128 0.536 C46.031 0.551 47.934 0.586 49.836 0.621 C50.917 0.635 51.998 0.649 53.113 0.664 C56.445 1.124 58.361 2.071 61.047 4.069 C61.86 6.257 61.86 6.257 62.047 8.069 C61.057 7.079 61.057 7.079 60.047 6.069 C56.971 5.736 56.971 5.736 53.303 5.75 C52.61 5.74 51.917 5.73 51.203 5.72 C48.909 5.689 46.615 5.672 44.321 5.655 C42.732 5.637 41.143 5.617 39.554 5.597 C35.368 5.545 31.183 5.506 26.997 5.468 C22.727 5.428 18.458 5.377 14.188 5.327 C5.808 5.23 -2.572 5.146 -10.953 5.069 C-10.14 3.132 -10.14 3.132 -8.953 1.069 C-5.707 -0.013 -3.412 -0.035 0 0 Z " fill="#0C0A13" transform="translate(326.95263671875,159.9306640625)"/>
  <ns0:path d="M0 0 C1.736 -0.018 1.736 -0.018 3.508 -0.037 C5.163 -0.04 5.163 -0.04 6.852 -0.043 C7.863 -0.047 8.874 -0.051 9.917 -0.055 C12.375 0.188 12.375 0.188 14.375 2.188 C14.625 5.188 14.625 5.188 14.375 8.188 C12.375 10.188 12.375 10.188 9.502 10.43 C7.705 10.424 7.705 10.424 5.871 10.418 C4.574 10.416 3.276 10.414 1.939 10.412 C1.263 10.406 0.586 10.4 -0.111 10.393 C-2.183 10.375 -4.254 10.373 -6.326 10.373 C-16.485 10.328 -16.485 10.328 -17.625 9.188 C-17.86 3.658 -17.86 3.658 -16.625 1.188 C-11.422 -0.692 -5.446 0.003 0 0 Z " fill="#00A5D9" transform="translate(272.625,191.8125)"/>
  <ns0:path d="M0 0 C3.658 2.04 5.669 3.504 8 7 C8.375 10.447 8.192 12.556 6.812 15.75 C4.733 18.332 3.142 19.066 0 20 C-0.66 19.34 -1.32 18.68 -2 18 C-3.423 18.093 -3.423 18.093 -4.875 18.188 C-8 18 -8 18 -10.375 16 C-12.438 12.191 -13.127 9.236 -12 5 C-8.349 0.827 -5.557 -1.042 0 0 Z " fill="#7B7B80" transform="translate(118,166)"/>
  <ns0:path d="M0 0 C0.702 0.014 1.404 0.027 2.127 0.041 C3.856 0.076 5.584 0.13 7.312 0.188 C7.028 1.918 6.734 3.647 6.438 5.375 C6.275 6.338 6.113 7.301 5.945 8.293 C5.312 11.188 5.312 11.188 3.312 16.188 C-2.297 15.857 -7.907 15.528 -13.688 15.188 C-11.153 3.963 -11.153 3.963 -9.562 1.312 C-6.552 -0.494 -3.397 -0.124 0 0 Z " fill="#EA9B04" transform="translate(83.6875,211.8125)"/>
  <ns0:path d="M0 0 C1.159 -0.002 2.319 -0.004 3.513 -0.006 C5.954 -0.007 8.395 -0.003 10.835 0.005 C14.579 0.016 18.323 0.005 22.066 -0.008 C24.44 -0.006 26.814 -0.004 29.188 0 C30.309 -0.004 31.431 -0.008 32.587 -0.012 C33.625 -0.006 34.664 0 35.733 0.007 C36.647 0.008 37.561 0.01 38.502 0.012 C40.828 0.266 40.828 0.266 43.828 2.266 C43.828 2.926 43.828 3.586 43.828 4.266 C23.038 4.266 2.248 4.266 -19.172 4.266 C-19.172 3.606 -19.172 2.946 -19.172 2.266 C-12.774 -0.031 -6.752 -0.025 0 0 Z " fill="#0B0A15" transform="translate(242.171875,160.734375)"/>
  <ns0:path d="M0 0 C1.601 -0.031 1.601 -0.031 3.234 -0.062 C4.258 -0.068 5.281 -0.073 6.336 -0.078 C7.277 -0.087 8.219 -0.097 9.189 -0.106 C11.625 0.25 11.625 0.25 13.444 1.54 C15.345 4.293 14.808 7.015 14.625 10.25 C7.36 11.95 -1.526 12.614 -8.688 10.188 C-11.375 8.25 -11.375 8.25 -12.375 4.625 C-12.375 -2.301 -5.532 0.027 0 0 Z " fill="#00A3E7" transform="translate(389.375,192.75)"/>
  <ns0:path d="M0 0 C3.96 0 7.92 0 12 0 C12.723 2.622 13.428 5.246 14.125 7.875 C14.436 8.995 14.436 8.995 14.754 10.137 C15.259 12.07 15.639 14.035 16 16 C14 18 14 18 11.617 18.195 C10.712 18.172 9.807 18.149 8.875 18.125 C7.51 18.098 7.51 18.098 6.117 18.07 C5.419 18.047 4.72 18.024 4 18 C3.329 15.564 2.663 13.126 2 10.688 C1.714 9.652 1.714 9.652 1.422 8.596 C0.623 5.642 0 3.074 0 0 Z " fill="#F8F7F6" transform="translate(413,213)"/>
  <ns0:path d="M0 0 C3.63 0 7.26 0 11 0 C10.429 6.42 8.327 12.016 6 18 C0.375 18.25 0.375 18.25 -3 16 C-2.579 10.395 -2.084 5.279 0 0 Z " fill="#E7ECEE" transform="translate(91,212)"/>
  <ns0:path d="M0 0 C2.421 4.091 4 8.23 4 13 C-1.94 13.495 -1.94 13.495 -8 14 C-9.747 8.987 -11.322 4.287 -12 -1 C-7.432 -2.384 -4.295 -2.108 0 0 Z " fill="#F9A906" transform="translate(437,214)"/>
  <ns0:path d="M0 0 C2 1 2 1 2 1 Z " fill="#040506" transform="translate(311,327)"/>
  <ns0:path d="M0 0 C4 1 4 1 4 1 Z " fill="#002961" transform="translate(95,245)"/>
  <ns0:path d="M0 0 C4 1 4 1 4 1 Z " fill="#021D44" transform="translate(173,207)"/>
  <ns0:path d="M0 0 C3 1 3 1 3 1 Z " fill="#00438B" transform="translate(193,212)"/>
  <ns0:path d="M0 0 C3 1 3 1 3 1 Z " fill="#002754" transform="translate(180,208)"/>
  <ns0:path d="M0 0 C3 1 3 1 3 1 Z " fill="#011B3C" transform="translate(150,208)"/>
  <ns0:path d="M0 0 C2 1 2 1 2 1 Z " fill="#004187" transform="translate(191,211)"/>
  <ns0:path d="M0 0 C2 1 2 1 2 1 Z " fill="#002F65" transform="translate(139,211)"/>
  <ns0:path d="M0 0 C2 1 2 1 2 1 Z " fill="#004A98" transform="translate(189,210)"/>
  <ns0:path d="M0 0 C2 1 2 1 2 1 Z " fill="#00295D" transform="translate(142,210)"/>
  <ns0:path d="M0 0 C2 1 2 1 2 1 Z " fill="#013067" transform="translate(185,209)"/>
  <ns0:path d="M0 0 C2 1 2 1 2 1 Z " fill="#002655" transform="translate(145,209)"/>
</svg>