<?xml version="1.0" ?>
<svg xmlns:ns0="http://www.w3.org/2000/svg" xmlns="http://www.w3.org/2000/svg" width="512" height="512" viewBox="0 0 512 512" style="background-color: transparent;">
  <ns0:path d="M0 0 C2.15 -0.003 4.301 -0.007 6.451 -0.01 C10.91 -0.016 15.369 -0.018 19.828 -0.017 C25.531 -0.017 31.235 -0.031 36.938 -0.048 C41.358 -0.059 45.778 -0.061 50.198 -0.061 C52.302 -0.062 54.406 -0.066 56.51 -0.074 C59.44 -0.084 62.37 -0.081 65.3 -0.075 C66.588 -0.083 66.588 -0.083 67.901 -0.092 C79.559 -0.031 79.559 -0.031 83.758 4.168 C85.57 13.323 86.27 22.862 86.758 32.168 C86.835 33.416 86.913 34.664 86.992 35.949 C87.039 37.197 87.085 38.445 87.133 39.73 C87.182 40.866 87.231 42.002 87.281 43.172 C86.758 46.168 86.758 46.168 84.984 48.322 C80.011 51.167 75.246 50.733 69.611 50.701 C67.764 50.714 67.764 50.714 65.88 50.728 C62.51 50.746 59.141 50.747 55.771 50.738 C52.955 50.733 50.139 50.74 47.324 50.748 C40.681 50.765 34.038 50.761 27.395 50.744 C20.546 50.727 13.698 50.743 6.849 50.776 C0.963 50.802 -4.922 50.81 -10.808 50.801 C-14.321 50.796 -17.834 50.798 -21.346 50.819 C-25.263 50.841 -29.179 50.822 -33.096 50.799 C-34.838 50.817 -34.838 50.817 -36.616 50.835 C-44.458 50.742 -44.458 50.742 -48.47 47.808 C-50.615 44.613 -50.787 42.985 -50.582 39.168 C-50.53 38.034 -50.478 36.899 -50.424 35.73 C-50.303 33.967 -50.303 33.967 -50.18 32.168 C-50.126 30.992 -50.073 29.817 -50.018 28.605 C-49.732 23.31 -49.338 19.067 -47.242 14.168 C-46.894 11.307 -46.742 8.471 -46.586 5.594 C-46.242 3.168 -46.242 3.168 -44.242 1.168 C-41.159 0.851 -38.162 0.658 -35.07 0.553 C-33.665 0.497 -33.665 0.497 -32.231 0.44 C-21.49 0.044 -10.748 0.004 0 0 Z " fill="#1C1B24" transform="translate(237.2421875,184.83203125)"/>
  <ns0:path d="M0 0 C0.817 -0.002 1.634 -0.003 2.476 -0.005 C5.229 -0.009 7.982 -0.006 10.735 -0.002 C12.702 -0.004 14.67 -0.006 16.637 -0.008 C21.992 -0.012 27.348 -0.011 32.703 -0.007 C38.297 -0.005 43.891 -0.007 49.484 -0.009 C58.88 -0.011 68.275 -0.008 77.67 -0.003 C88.546 0.002 99.422 0 110.297 -0.005 C119.62 -0.01 128.944 -0.01 138.267 -0.008 C143.841 -0.006 149.416 -0.006 154.991 -0.009 C160.231 -0.012 165.47 -0.01 170.71 -0.004 C172.638 -0.003 174.566 -0.003 176.494 -0.006 C179.116 -0.008 181.738 -0.005 184.36 0 C185.517 -0.003 185.517 -0.003 186.697 -0.007 C191.952 0.013 191.952 0.013 194.18 1.127 C195.367 4.381 195.295 7.553 195.278 10.986 C195.275 12.101 195.271 13.216 195.268 14.365 C195.26 15.524 195.251 16.683 195.243 17.877 C195.238 19.051 195.234 20.226 195.229 21.436 C195.217 24.333 195.201 27.23 195.18 30.127 C190.851 32.259 186.894 32.407 182.165 32.374 C180.962 32.378 180.962 32.378 179.735 32.382 C177.051 32.387 174.368 32.379 171.684 32.37 C169.759 32.371 167.833 32.373 165.908 32.376 C160.681 32.381 155.454 32.373 150.227 32.363 C144.759 32.354 139.292 32.356 133.825 32.356 C124.644 32.355 115.463 32.346 106.282 32.333 C95.663 32.317 85.044 32.312 74.424 32.313 C64.214 32.313 54.003 32.308 43.793 32.3 C39.445 32.296 35.097 32.294 30.749 32.294 C25.631 32.293 20.513 32.287 15.396 32.277 C13.516 32.274 11.635 32.273 9.755 32.273 C7.193 32.274 4.631 32.268 2.068 32.261 C1.321 32.262 0.573 32.264 -0.197 32.265 C-3.545 32.25 -6.619 32.171 -9.82 31.127 C-10.689 25.893 -10.973 20.866 -10.945 15.564 C-10.949 14.836 -10.953 14.107 -10.957 13.355 C-10.949 9.191 -10.811 5.197 -9.82 1.127 C-6.709 -0.428 -3.414 -0.01 0 0 Z " fill="#8C8D90" transform="translate(163.81982421875,309.8730163574219)"/>
  <ns0:path d="M0 0 C2.306 1.153 3.508 1.072 6.062 1 C9.352 0.973 12.596 1.039 15.875 1.312 C16.954 1.4 16.954 1.4 18.055 1.488 C20.498 2.131 21.441 3.035 23 5 C24.169 8.506 24.125 11.648 24.098 15.293 C24.096 16.352 24.096 16.352 24.093 17.432 C24.088 19.684 24.075 21.936 24.062 24.188 C24.057 25.715 24.053 27.243 24.049 28.771 C24.038 32.514 24.021 36.257 24 40 C13.848 40.681 3.74 41.106 -6.438 41.125 C-7.938 41.132 -7.938 41.132 -9.469 41.139 C-10.875 41.136 -10.875 41.136 -12.309 41.133 C-13.142 41.132 -13.975 41.131 -14.834 41.129 C-17 41 -17 41 -20 40 C-21.2 37.599 -21.115 36.106 -21.098 33.43 C-21.094 32.534 -21.091 31.638 -21.088 30.715 C-21.08 29.778 -21.071 28.841 -21.062 27.875 C-21.058 26.93 -21.053 25.985 -21.049 25.012 C-21.037 22.674 -21.021 20.337 -21 18 C-32.171 17.977 -43.341 17.959 -54.512 17.948 C-59.7 17.943 -64.887 17.936 -70.075 17.925 C-75.087 17.914 -80.099 17.908 -85.111 17.905 C-87.018 17.903 -88.924 17.9 -90.831 17.894 C-104.445 17.838 -104.445 17.838 -118 19 C-118.028 19.693 -118.056 20.386 -118.084 21.101 C-118.197 23.88 -118.317 26.659 -118.438 29.438 C-118.477 30.431 -118.516 31.424 -118.557 32.447 C-118.619 33.864 -118.619 33.864 -118.684 35.309 C-118.72 36.183 -118.757 37.058 -118.795 37.959 C-119 40 -119 40 -120 41 C-123.079 41.101 -126.135 41.14 -129.215 41.133 C-130.604 41.134 -130.604 41.134 -132.021 41.136 C-133.984 41.136 -135.947 41.135 -137.91 41.13 C-140.921 41.125 -143.932 41.13 -146.943 41.137 C-148.846 41.136 -150.749 41.135 -152.652 41.133 C-154.01 41.136 -154.01 41.136 -155.395 41.139 C-156.233 41.136 -157.07 41.133 -157.933 41.129 C-158.672 41.129 -159.411 41.128 -160.172 41.127 C-162 41 -162 41 -164 40 C-164.05 35.677 -164.086 31.354 -164.11 27.03 C-164.12 25.561 -164.134 24.091 -164.151 22.622 C-164.175 20.504 -164.187 18.387 -164.195 16.27 C-164.206 14.997 -164.216 13.724 -164.227 12.413 C-163.932 7.976 -163.159 5.159 -160 2 C-157.898 1.586 -157.898 1.586 -155.375 1.375 C-154.483 1.299 -153.591 1.223 -152.672 1.145 C-150.307 1.017 -147.991 1.005 -145.625 1.062 C-142.181 1.274 -142.181 1.274 -140.12 0.014 C-137.44 -1.268 -135.425 -1.267 -132.459 -1.292 C-131.332 -1.306 -130.204 -1.32 -129.043 -1.335 C-127.194 -1.342 -127.194 -1.342 -125.309 -1.351 C-124.007 -1.364 -122.706 -1.377 -121.366 -1.391 C-117.8 -1.427 -114.234 -1.45 -110.668 -1.471 C-106.935 -1.494 -103.203 -1.526 -99.47 -1.557 C-93.203 -1.608 -86.935 -1.65 -80.667 -1.688 C-73.421 -1.732 -66.175 -1.79 -58.929 -1.855 C-52.708 -1.911 -46.486 -1.959 -40.264 -2 C-36.548 -2.025 -32.833 -2.053 -29.117 -2.087 C-24.975 -2.126 -20.833 -2.147 -16.691 -2.167 C-15.459 -2.18 -14.227 -2.194 -12.957 -2.208 C-11.83 -2.21 -10.703 -2.213 -9.541 -2.216 C-8.072 -2.226 -8.072 -2.226 -6.574 -2.236 C-3.88 -1.989 -2.309 -1.362 0 0 Z " fill="#0055B8" transform="translate(326,236)"/>
  <ns0:path d="M0 0 C12.5 -0.023 24.999 -0.041 37.499 -0.052 C43.302 -0.057 49.106 -0.064 54.909 -0.075 C60.505 -0.086 66.1 -0.092 71.696 -0.095 C73.836 -0.097 75.976 -0.1 78.115 -0.106 C81.102 -0.113 84.088 -0.114 87.074 -0.114 C87.968 -0.117 88.862 -0.121 89.783 -0.124 C95.886 -0.114 95.886 -0.114 97 1 C97.094 2.688 97.117 4.38 97.114 6.071 C97.113 7.692 97.113 7.692 97.113 9.346 C97.108 10.522 97.103 11.698 97.098 12.91 C97.096 14.107 97.095 15.304 97.093 16.538 C97.088 20.379 97.075 24.221 97.062 28.062 C97.057 30.66 97.053 33.257 97.049 35.854 C97.038 42.236 97.021 48.618 97 55 C93.646 56.677 89.863 56.138 86.176 56.129 C84.805 56.132 84.805 56.132 83.406 56.135 C80.375 56.139 77.344 56.136 74.312 56.133 C72.213 56.133 70.113 56.134 68.013 56.136 C63.608 56.137 59.203 56.135 54.798 56.13 C49.142 56.125 43.485 56.128 37.829 56.134 C33.492 56.138 29.154 56.136 24.817 56.134 C22.731 56.133 20.645 56.134 18.559 56.136 C15.647 56.139 12.736 56.135 9.824 56.129 C8.521 56.132 8.521 56.132 7.192 56.136 C1.229 56.114 1.229 56.114 -1 55 C-1.025 48.614 -1.043 42.227 -1.055 35.841 C-1.06 33.671 -1.067 31.502 -1.075 29.332 C-1.088 26.202 -1.093 23.072 -1.098 19.941 C-1.103 18.982 -1.108 18.022 -1.113 17.033 C-1.113 16.113 -1.113 15.193 -1.114 14.244 C-1.116 13.447 -1.118 12.65 -1.12 11.829 C-0.952 7.862 -0.474 3.94 0 0 Z " fill="#000000" transform="translate(208,254)"/>
  <ns0:path d="M0 0 C1.315 -0.005 2.63 -0.01 3.985 -0.015 C7.567 -0.029 11.15 -0.029 14.732 -0.027 C17.732 -0.026 20.731 -0.031 23.731 -0.036 C30.809 -0.047 37.887 -0.047 44.966 -0.041 C52.252 -0.035 59.538 -0.047 66.825 -0.069 C73.098 -0.086 79.372 -0.092 85.646 -0.089 C89.385 -0.087 93.124 -0.09 96.863 -0.104 C101.033 -0.119 105.202 -0.109 109.371 -0.098 C110.6 -0.105 111.829 -0.113 113.095 -0.121 C119.6 -0.081 124.79 0.253 130.621 3.275 C131.621 6.462 131.621 6.462 131.621 9.275 C130.425 9.667 129.228 10.058 127.996 10.462 C123.726 12.043 120.947 14.198 117.621 17.275 C117.063 16.787 116.505 16.3 115.93 15.798 C113.231 14.017 111.87 13.9 108.669 13.9 C107.673 13.893 106.676 13.886 105.649 13.879 C104.562 13.887 103.474 13.894 102.354 13.902 C100.629 13.897 100.629 13.897 98.869 13.891 C95.061 13.883 91.253 13.897 87.445 13.911 C84.8 13.912 82.154 13.911 79.508 13.91 C73.959 13.909 68.41 13.92 62.861 13.938 C56.457 13.96 50.053 13.963 43.649 13.957 C37.479 13.951 31.309 13.957 25.139 13.968 C22.518 13.972 19.898 13.973 17.277 13.972 C13.61 13.971 9.943 13.984 6.276 14 C4.654 13.996 4.654 13.996 2.999 13.992 C-2.52 14.031 -7.165 14.426 -12.379 16.275 C-13.06 15.512 -13.74 14.748 -14.442 13.962 C-17.738 10.946 -20.242 9.816 -24.379 8.275 C-23.942 5.4 -23.942 5.4 -22.379 2.275 C-14.968 -0.047 -7.713 -0.016 0 0 Z " fill="#0057BE" transform="translate(202.379150390625,171.725341796875)"/>
  <ns0:path d="M0 0 C1.018 -0.001 1.018 -0.001 2.056 -0.003 C3.482 -0.004 4.907 -0.002 6.333 0.002 C8.523 0.008 10.712 0.002 12.902 -0.004 C14.289 -0.003 15.676 -0.002 17.062 0 C18.324 0.001 19.586 0.002 20.886 0.003 C23.766 0.133 23.766 0.133 24.766 1.133 C25.415 8.044 24.697 14.828 23.516 21.633 C23.406 22.315 23.297 22.997 23.185 23.699 C22.352 28.094 21.276 30.376 17.766 33.133 C14.957 33.635 14.957 33.635 11.758 33.629 C10.607 33.63 9.456 33.63 8.27 33.631 C7.072 33.611 5.874 33.591 4.641 33.57 C2.833 33.581 2.833 33.581 0.988 33.592 C-5.643 33.543 -5.643 33.543 -8.234 33.133 C-13.754 24.853 -12.501 10.735 -12.234 1.133 C-8.108 0.142 -4.237 0.004 0 0 Z " fill="#22272D" transform="translate(319.234375,341.8671875)"/>
  <ns0:path d="M0 0 C1.279 -0.001 2.559 -0.003 3.877 -0.004 C4.546 -0.002 5.214 0 5.903 0.002 C7.931 0.008 9.959 0.003 11.986 -0.004 C13.911 -0.002 13.911 -0.002 15.875 0 C17.051 0.001 18.227 0.002 19.439 0.003 C22.297 0.119 24.859 0.475 27.637 1.133 C28.882 5.807 28.612 10.173 28.324 14.945 C28.289 15.714 28.253 16.483 28.217 17.275 C27.481 30.288 27.481 30.288 24.637 33.133 C22.746 33.233 20.851 33.264 18.957 33.266 C17.223 33.268 17.223 33.268 15.453 33.27 C14.235 33.266 13.017 33.262 11.762 33.258 C10.551 33.262 9.341 33.266 8.094 33.27 C6.355 33.268 6.355 33.268 4.582 33.266 C3.515 33.264 2.448 33.263 1.348 33.262 C-1.363 33.133 -1.363 33.133 -4.363 32.133 C-9.237 22.614 -8.494 11.483 -8.363 1.133 C-5.538 -0.28 -3.156 0.003 0 0 Z " fill="#252C34" transform="translate(176.36328125,341.8671875)"/>
  <ns0:path d="M0 0 C9.9 0 19.8 0 30 0 C30 10.23 30 20.46 30 31 C25.236 31.021 20.471 31.041 15.562 31.062 C14.058 31.072 12.553 31.081 11.002 31.09 C9.827 31.093 8.652 31.095 7.441 31.098 C6.232 31.103 5.022 31.108 3.776 31.114 C1 31 1 31 0 30 C-0.088 27.781 -0.107 25.56 -0.098 23.34 C-0.095 22.124 -0.093 20.909 -0.09 19.656 C-0.081 18.099 -0.072 16.542 -0.062 14.938 C-0.042 10.008 -0.021 5.079 0 0 Z " fill="#F3F3F1" transform="translate(177,277)"/>
  <ns0:path d="M0 0 C1.21 0.005 2.419 0.01 3.666 0.016 C4.841 0.018 6.016 0.021 7.227 0.023 C8.731 0.033 10.236 0.042 11.787 0.051 C16.551 0.072 21.316 0.092 26.224 0.114 C26.224 10.344 26.224 20.574 26.224 31.114 C16.654 31.444 7.084 31.774 -2.776 32.114 C-3.4 24.624 -3.937 17.4 -3.901 9.926 C-3.905 9.082 -3.908 8.239 -3.912 7.369 C-3.901 0.16 -3.901 0.16 0 0 Z " fill="#F7F8F7" transform="translate(308.775634765625,276.886474609375)"/>
  <ns0:path d="M0 0 C1.394 1.968 1.394 1.968 2.457 4.359 C3.042 5.663 3.042 5.663 3.639 6.992 C4.026 7.902 4.413 8.812 4.812 9.75 C5.423 11.092 5.423 11.092 6.045 12.461 C8.29 17.578 9 20.14 9 26 C3.39 26 -2.22 26 -8 26 C-8.66 21.38 -9.32 16.76 -10 12 C-11.65 12 -13.3 12 -15 12 C-15.33 13.98 -15.66 15.96 -16 18 C-21.374 11.91 -22.271 6.856 -22 -1 C-14.825 -2.551 -6.705 -3.393 0 0 Z " fill="#717273" transform="translate(209,146)"/>
  <ns0:path d="M0 0 C0.721 -0.012 1.441 -0.024 2.184 -0.037 C5.99 -0.048 8.9 0.052 12.125 2.188 C12.745 8.912 12.201 13.189 8.316 18.789 C7.923 19.251 7.53 19.712 7.125 20.188 C6.795 20.188 6.465 20.188 6.125 20.188 C6.125 17.877 6.125 15.567 6.125 13.188 C3.815 13.518 1.505 13.847 -0.875 14.188 C-1.205 18.808 -1.535 23.428 -1.875 28.188 C-7.485 28.188 -13.095 28.188 -18.875 28.188 C-18.424 21.25 -16.872 15.961 -13.938 9.688 C-13.577 8.878 -13.217 8.068 -12.846 7.234 C-9.669 0.262 -7.641 0.007 0 0 Z " fill="#737475" transform="translate(312.875,143.8125)"/>
  <ns0:path d="M0 0 C4.95 0 9.9 0 15 0 C15 10.56 15 21.12 15 32 C5 33 5 33 0 32 C0 21.44 0 10.88 0 0 Z " fill="#E99A02" transform="translate(162,277)"/>
  <ns0:path d="M0 0 C4.62 0 9.24 0 14 0 C14.023 4.539 14.043 9.078 14.055 13.617 C14.06 15.162 14.067 16.707 14.075 18.253 C14.088 20.469 14.093 22.686 14.098 24.902 C14.103 25.597 14.108 26.292 14.113 27.008 C14.113 28.672 14.062 30.337 14 32 C13 33 13 33 10.059 33.098 C8.864 33.086 7.669 33.074 6.438 33.062 C4.641 33.049 4.641 33.049 2.809 33.035 C1.882 33.024 0.955 33.012 0 33 C-1.498 30.004 -1.001 27.356 -0.879 24.023 C-0.855 23.338 -0.832 22.653 -0.807 21.947 C-0.731 19.756 -0.647 17.566 -0.562 15.375 C-0.509 13.891 -0.457 12.406 -0.404 10.922 C-0.276 7.281 -0.138 3.641 0 0 Z " fill="#EE9A01" transform="translate(336,277)"/>
  <ns0:path d="M0 0 C1.91 0.133 1.91 0.133 3.91 1.133 C3.939 4.341 3.957 7.549 3.973 10.758 C3.981 11.661 3.989 12.565 3.998 13.496 C4.015 18.162 3.878 22.543 2.91 27.133 C-0.39 27.133 -3.69 27.133 -7.09 27.133 C-7.119 22.82 -7.137 18.508 -7.152 14.195 C-7.161 12.964 -7.169 11.732 -7.178 10.463 C-7.181 9.293 -7.184 8.123 -7.188 6.918 C-7.193 5.834 -7.198 4.75 -7.203 3.633 C-6.983 -1.215 -4.218 0.015 0 0 Z " fill="#27313B" transform="translate(183.08984375,209.8671875)"/>
  <ns0:path d="M0 0 C0.66 0.33 1.32 0.66 2 1 C2 9.91 2 18.82 2 28 C-1.3 28 -4.6 28 -8 28 C-8 19.09 -8 10.18 -8 1 C-5.261 -0.37 -3.029 -0.126 0 0 Z " fill="#282E32" transform="translate(334,209)"/>
  <ns0:path d="M0 0 C0.66 0.33 1.32 0.66 2 1 C3.022 4.066 3.199 6.348 3.25 9.562 C3.276 10.533 3.302 11.504 3.328 12.504 C3.22 13.328 3.112 14.151 3 15 C-0.325 17.217 -2.037 17.771 -6 18 C-9.898 16.811 -12.3 15.764 -15.062 12.75 C-16.353 8.965 -15.367 6.67 -14 3 C-13.34 3 -12.68 3 -12 3 C-11.67 2.01 -11.34 1.02 -11 0 C-6.911 -1.363 -4.254 -0.675 0 0 Z " fill="#98999B" transform="translate(183,189)"/>
  <ns0:path d="M0 0 C2.796 2.345 2.975 3.802 3.438 7.438 C2.821 12.454 0.452 14.548 -3 18 C-6.89 18.53 -8.786 18.109 -12.312 16.312 C-15 14 -15 14 -16 11.625 C-16 8.304 -15.38 6.023 -14 3 C-9.57 -1.144 -5.805 -1.347 0 0 Z " fill="#AFB1B2" transform="translate(339,188)"/>
  <ns0:path d="M0 0 C3.561 2.266 5.168 4.094 6.562 8.062 C6.89 12.752 5.784 16.44 2.875 20.125 C0.755 21.746 -0.633 22.376 -3.25 22.75 C-2.25 19.75 -2.25 19.75 -0.188 18 C2.088 15.79 2.088 15.79 2.125 12.188 C2.005 8.632 2.005 8.632 -0.25 5.75 C-4.199 4.687 -6.634 4.564 -10.562 5.75 C-14.109 8.389 -14.426 10.482 -15.25 14.75 C-15.456 15.554 -15.663 16.359 -15.875 17.188 C-15.999 17.703 -16.123 18.219 -16.25 18.75 C-18.945 14.707 -18.915 11.499 -18.25 6.75 C-16.629 3.565 -15.277 1.529 -12.438 -0.625 C-7.95 -1.907 -4.337 -1.668 0 0 Z " fill="#808185" transform="translate(339.25,183.25)"/>
  <ns0:path d="M0 0 C4.095 4.2 5.291 7.085 5.227 12.961 C4.903 15.872 3.793 17.724 2 20 C1.34 20.33 0.68 20.66 0 21 C-1.05 17.851 -1.101 15.612 -1.062 12.312 C-1.053 11.319 -1.044 10.325 -1.035 9.301 C-1.024 8.542 -1.012 7.782 -1 7 C-2.603 6.804 -4.208 6.619 -5.812 6.438 C-6.706 6.333 -7.599 6.229 -8.52 6.121 C-11.134 5.843 -11.134 5.843 -14 7 C-14.33 7.66 -14.66 8.32 -15 9 C-15.66 9 -16.32 9 -17 9 C-17.33 10.65 -17.66 12.3 -18 14 C-18.66 13.67 -19.32 13.34 -20 13 C-19.064 4.89 -19.064 4.89 -17 2 C-11.214 -2.111 -6.525 -2.76 0 0 Z " fill="#7A7C80" transform="translate(186,183)"/>
  <ns0:path d="M0 0 C1.32 0 2.64 0 4 0 C4 1.32 4 2.64 4 4 C3.34 4 2.68 4 2 4 C2.14 7.396 2.288 10.792 2.438 14.188 C2.477 15.147 2.516 16.107 2.557 17.096 C2.599 18.027 2.64 18.958 2.684 19.918 C2.739 21.198 2.739 21.198 2.795 22.505 C3.005 25.065 3.448 27.493 4 30 C5.98 30.33 7.96 30.66 10 31 C10 31.33 10 31.66 10 32 C6.7 32 3.4 32 0 32 C-0.77 24.586 -1.108 17.261 -1.125 9.812 C-1.13 8.963 -1.134 8.113 -1.139 7.237 C-1.124 1.124 -1.124 1.124 0 0 Z " fill="#E8AD2D" transform="translate(306,277)"/>
  <ns0:path d="M0 0 C2.31 0 4.62 0 7 0 C7 4.95 7 9.9 7 15 C4.36 15 1.72 15 -1 15 C-1.027 12.688 -1.046 10.375 -1.062 8.062 C-1.074 6.775 -1.086 5.487 -1.098 4.16 C-1 1 -1 1 0 0 Z " fill="#403E42" transform="translate(312,157)"/>
  <ns0:path d="M0 0 C0.33 0 0.66 0 1 0 C1.081 1.791 1.139 3.583 1.188 5.375 C1.24 6.872 1.24 6.872 1.293 8.398 C1.196 9.257 1.1 10.115 1 11 C-2.325 13.217 -4.037 13.771 -8 14 C-11.967 12.79 -14.315 11.813 -17 8.625 C-18.157 5.588 -17.962 4.061 -17 1 C-16.67 1 -16.34 1 -16 1 C-15.711 1.969 -15.423 2.939 -15.125 3.938 C-14.358 7.107 -14.358 7.107 -12 8 C-9.667 8.042 -7.333 8.041 -5 8 C-4.01 8 -3.02 8 -2 8 C-0.032 6.032 -0.338 2.652 0 0 Z " fill="#7E8084" transform="translate(185,193)"/>
  <ns0:path d="M0 0 C2.5 0.125 2.5 0.125 3.5 1.125 C3.735 3.475 3.914 5.831 4.062 8.188 C4.146 9.478 4.23 10.768 4.316 12.098 C4.377 13.097 4.438 14.096 4.5 15.125 C1.86 15.125 -0.78 15.125 -3.5 15.125 C-3.527 12.813 -3.546 10.5 -3.562 8.188 C-3.574 6.9 -3.586 5.612 -3.598 4.285 C-3.471 0.174 -3.471 0.174 0 0 Z " fill="#3C3D3F" transform="translate(196.5,156.875)"/>
  <ns0:path d="M0 0 C1.32 0 2.64 0 4 0 C5.286 4.749 4.938 9.213 4.625 14.062 C4.581 14.865 4.537 15.667 4.492 16.494 C4.275 20.131 3.968 23.475 3 27 C2.34 26.67 1.68 26.34 1 26 C-0.293 17.452 -0.142 8.628 0 0 Z " fill="#0B0C0E" transform="translate(200,343)"/>
  <ns0:path d="M0 0 C0.66 0 1.32 0 2 0 C1.67 0.99 1.34 1.98 1 3 C0.34 3 -0.32 3 -1 3 C-0.34 6.3 0.32 9.6 1 13 C4.63 13 8.26 13 12 13 C11 15 11 15 9 17 C5.11 17.53 3.214 17.109 -0.312 15.312 C-3 13 -3 13 -4 10.625 C-4 6.332 -3.053 3.053 0 0 Z " fill="#9C9DA0" transform="translate(327,189)"/>
  <ns0:path d="M0 0 C1.65 0 3.3 0 5 0 C5 8.58 5 17.16 5 26 C4.34 26 3.68 26 3 26 C2.98 25.355 2.96 24.709 2.94 24.044 C2.845 21.112 2.735 18.181 2.625 15.25 C2.594 14.234 2.563 13.218 2.531 12.172 C2.493 11.192 2.454 10.212 2.414 9.203 C2.383 8.302 2.351 7.402 2.319 6.474 C1.989 3.912 1.29 2.219 0 0 Z " fill="#F0D26A" transform="translate(202,277)"/>
  <ns0:path d="M0 0 C1.375 0.017 1.375 0.017 2.777 0.035 C3.696 0.044 4.616 0.053 5.562 0.062 C6.273 0.074 6.983 0.086 7.715 0.098 C7.758 1.764 7.755 3.431 7.715 5.098 C6.715 6.098 6.715 6.098 4.43 6.195 C3.055 6.178 3.055 6.178 1.652 6.16 C0.733 6.151 -0.186 6.142 -1.133 6.133 C-1.843 6.121 -2.553 6.11 -3.285 6.098 C-3.328 4.432 -3.326 2.764 -3.285 1.098 C-2.285 0.098 -2.285 0.098 0 0 Z " fill="#22272C" transform="translate(207.28515625,341.90234375)"/>
  <ns0:path d="M0 0 C3.3 0 6.6 0 10 0 C10 1.98 10 3.96 10 6 C7.03 6 4.06 6 1 6 C0.67 4.02 0.34 2.04 0 0 Z " fill="#24292F" transform="translate(297,342)"/>
  <ns0:path d="M0 0 C0.66 0 1.32 0 2 0 C2.66 1.65 3.32 3.3 4 5 C7.3 5.33 10.6 5.66 14 6 C13.67 6.99 13.34 7.98 13 9 C9.147 9.367 7.181 9.092 3.688 7.312 C1 5 1 5 0.125 2.25 C0.084 1.507 0.043 0.765 0 0 Z " fill="#7E8187" transform="translate(323,197)"/>
  <ns0:path d="M0 0 C2.64 0 5.28 0 8 0 C8.33 0.66 8.66 1.32 9 2 C5.785 3.607 2.564 3.057 -1 3 C-0.67 2.01 -0.34 1.02 0 0 Z " fill="#1B1F22" transform="translate(177,210)"/>
  <ns0:path d="M0 0 C3 1 3 1 3 1 Z " fill="#595F69" transform="translate(178,206)"/>
  <ns0:path d="M0 0 C2 1 2 1 2 1 Z " fill="#6A7482" transform="translate(184,204)"/>
</svg>