<?xml version="1.0" ?>
<svg xmlns:ns0="http://www.w3.org/2000/svg" xmlns="http://www.w3.org/2000/svg" width="512" height="512" viewBox="0 0 512 512" style="background-color: transparent;">
  <ns0:path d="M0 0 C1.98 0.495 1.98 0.495 4 1 C4.99 7.435 4.99 7.435 6 14 C7.013 14.098 8.026 14.196 9.07 14.297 C10.422 14.447 11.774 14.598 13.125 14.75 C13.79 14.812 14.455 14.874 15.141 14.938 C20.721 15.594 24.705 17.156 28.296 21.606 C32.01 27.158 33.179 32.27 34.086 38.828 C34.244 39.869 34.403 40.911 34.566 41.983 C35.066 45.32 35.536 48.659 36 52 C36.155 53.09 36.309 54.181 36.469 55.304 C37.414 61.983 38.312 68.667 39.183 75.356 C39.627 78.763 40.079 82.169 40.531 85.574 C40.826 87.815 41.12 90.056 41.414 92.297 C41.544 93.278 41.675 94.258 41.809 95.269 C43.088 105.157 44.036 115.077 45 125 C31.652 125.267 18.304 125.528 4.955 125.782 C-1.249 125.901 -7.454 126.021 -13.658 126.146 C-47.11 126.815 -80.542 127.144 -114 127 C-113.975 128.01 -113.951 129.019 -113.925 130.059 C-113.91 130.709 -113.894 131.359 -113.877 132.028 C-113.843 133.447 -113.808 134.865 -113.773 136.283 C-113.701 139.214 -113.63 142.145 -113.568 145.076 C-113.525 147.059 -113.47 149.041 -113.414 151.023 C-113.383 152.312 -113.351 153.6 -113.319 154.927 C-113.315 158.105 -113.315 158.105 -111 160 C-110.865 162.797 -110.865 162.797 -111.023 166.32 C-111.075 167.577 -111.127 168.834 -111.18 170.129 C-111.245 171.461 -111.31 172.793 -111.375 174.125 C-111.433 175.465 -111.491 176.805 -111.547 178.145 C-111.689 181.43 -111.84 184.715 -112 188 C-112.33 188 -112.66 188 -113 188 C-115.146 180.949 -116.83 173.865 -117.375 166.5 C-118.712 151.89 -122.211 136.071 -131.766 124.621 C-133 123 -133 123 -134 120 C-136.424 118.83 -136.424 118.83 -139 118 C-139.66 117.67 -140.32 117.34 -141 117 C-146.015 116.575 -149.887 116.572 -154.273 119.426 C-167.179 131.192 -168.013 149.712 -169.675 165.874 C-170 168 -170 168 -171 169 C-182.455 168.913 -194.903 166.899 -206 164 C-206.086 162.849 -206.173 161.698 -206.262 160.512 C-208.178 136.706 -208.178 136.706 -219 116 C-221.329 114.583 -222.644 114.019 -225.375 113.875 C-231.008 116.289 -233.887 122.181 -236.188 127.625 C-239.265 136.678 -239.914 146.543 -241 156 C-240.34 156 -239.68 156 -239 156 C-239 156.66 -239 157.32 -239 158 C-240.666 158.043 -242.334 158.041 -244 158 C-246.06 155.94 -245.504 151.898 -245.688 149.062 C-245.777 147.95 -245.777 147.95 -245.869 146.814 C-245.997 144.88 -246.006 142.939 -246 141 C-245.01 140.01 -245.01 140.01 -244 139 C-243.63 136.871 -243.63 136.871 -243.586 134.43 C-243.547 133.534 -243.509 132.638 -243.469 131.715 C-243.438 130.778 -243.407 129.841 -243.375 128.875 C-243.317 127.458 -243.317 127.458 -243.258 126.012 C-243.163 123.675 -243.078 121.338 -243 119 C-245.31 119 -247.62 119 -250 119 C-250.946 114.361 -251.036 110.159 -250.75 105.438 C-250.649 103.517 -250.649 103.517 -250.547 101.559 C-249.97 97.803 -249.328 95.969 -247 93 C-244.336 92.249 -244.336 92.249 -241.16 92.074 C-240.015 92 -238.869 91.926 -237.689 91.85 C-236.493 91.796 -235.296 91.743 -234.062 91.688 C-232.869 91.615 -231.676 91.542 -230.447 91.467 C-225.957 91.202 -221.499 91 -217 91 C-216.95 90.16 -216.9 89.321 -216.848 88.456 C-213.599 34.599 -213.599 34.599 -206.562 27.562 C-202.175 25.638 -197.725 24.242 -193.121 22.93 C-190.085 22.101 -190.085 22.101 -187.66 20.945 C-185 20 -185 20 -181.026 19.604 C-175.525 19.03 -170.283 17.739 -164.93 16.383 C-163.89 16.125 -162.851 15.867 -161.78 15.602 C-158.477 14.781 -155.176 13.954 -151.875 13.125 C-143.591 11.052 -135.304 8.994 -127 7 C-126.222 6.812 -125.443 6.625 -124.641 6.431 C-116.298 4.457 -109.012 3.662 -100.5 4.625 C-98.244 4.839 -95.987 5.051 -93.73 5.262 C-92.506 5.382 -91.282 5.502 -90.021 5.626 C-85.598 6.049 -81.169 6.382 -76.738 6.707 C-75.932 6.766 -75.127 6.826 -74.296 6.887 C-72.639 7.008 -70.982 7.13 -69.325 7.252 C-53.753 8.403 -38.215 9.783 -22.68 11.352 C-16.127 12.007 -9.568 12.525 -3 13 C-2.942 12.175 -2.885 11.351 -2.826 10.501 C-2.25 2.25 -2.25 2.25 0 0 Z M-83.935 28.37 C-86.715 32.625 -85.246 39.104 -85 44 C-84.947 45.062 -84.894 46.125 -84.839 47.219 C-84.644 50.835 -84.421 54.449 -84.188 58.062 C-84.118 59.252 -84.048 60.442 -83.976 61.668 C-83.895 62.8 -83.814 63.932 -83.73 65.098 C-83.662 66.114 -83.594 67.129 -83.524 68.176 C-82.932 71.369 -81.89 73.375 -80 76 C-76.735 77.633 -73.107 77.365 -69.512 77.527 C-68.66 77.569 -67.808 77.61 -66.931 77.653 C-58.228 78.062 -49.522 78.346 -40.812 78.562 C-40 78.583 -39.188 78.603 -38.351 78.624 C-25.693 78.929 -13.033 79.154 -0.371 79.231 C1.413 79.244 3.197 79.261 4.982 79.284 C7.463 79.313 9.944 79.323 12.426 79.328 C13.167 79.34 13.907 79.353 14.671 79.365 C16.93 79.391 16.93 79.391 20 79 C22.502 75.248 21.962 72.927 21.375 68.688 C21.279 67.956 21.182 67.224 21.083 66.47 C20.742 63.977 20.373 61.489 20 59 C19.863 58.053 19.726 57.105 19.584 56.129 C19.145 53.165 18.672 50.208 18.188 47.25 C18.047 46.31 17.906 45.37 17.761 44.401 C17.607 43.511 17.452 42.62 17.293 41.703 C17.164 40.916 17.036 40.129 16.903 39.317 C15.595 35.96 13.754 34.309 11 32 C7.666 31.096 7.666 31.096 3.941 30.973 C2.903 30.899 2.903 30.899 1.844 30.823 C-0.439 30.666 -2.723 30.542 -5.008 30.418 C-6.614 30.315 -8.221 30.21 -9.827 30.103 C-13.201 29.884 -16.575 29.679 -19.95 29.487 C-24.22 29.243 -28.487 28.975 -32.755 28.697 C-53.701 27.318 -53.701 27.318 -74.68 26.676 C-75.416 26.659 -76.152 26.642 -76.91 26.625 C-79.757 26.633 -81.575 26.699 -83.935 28.37 Z M-137.387 30.059 C-138.572 30.28 -139.757 30.501 -140.979 30.729 C-142.202 30.962 -143.426 31.196 -144.688 31.438 C-145.923 31.668 -147.159 31.898 -148.432 32.135 C-154.788 33.282 -154.788 33.282 -161 35 C-162.02 43.235 -162.186 51.404 -162.185 59.689 C-162.188 61.957 -162.206 64.226 -162.225 66.494 C-162.228 67.943 -162.23 69.391 -162.23 70.84 C-162.235 72.143 -162.239 73.446 -162.243 74.789 C-162.252 78.153 -162.252 78.153 -160 81 C-157.509 81.149 -155.302 81.116 -152.832 80.926 C-152.119 80.882 -151.406 80.838 -150.671 80.793 C-149.159 80.696 -147.646 80.593 -146.135 80.482 C-143.84 80.314 -141.545 80.172 -139.248 80.033 C-137.776 79.936 -136.304 79.838 -134.832 79.738 C-134.153 79.695 -133.473 79.653 -132.773 79.608 C-128.252 79.266 -124.296 78.361 -120 77 C-119.686 66.912 -120.192 56.882 -120.812 46.812 C-120.883 45.523 -120.953 44.234 -121.025 42.906 C-121.106 41.685 -121.186 40.465 -121.27 39.207 C-121.338 38.109 -121.406 37.01 -121.476 35.878 C-122.061 32.668 -122.546 31.163 -125 29 C-129.243 28.519 -133.211 29.274 -137.387 30.059 Z M-191.062 40.188 C-191.77 40.302 -192.477 40.416 -193.205 40.533 C-196.394 41.123 -198.78 41.846 -201.449 43.711 C-203.495 46.731 -203.604 48.798 -203.75 52.438 C-203.804 53.75 -203.858 55.062 -203.914 56.414 C-203.947 57.943 -203.976 59.471 -204 61 C-204.015 61.898 -204.03 62.796 -204.046 63.722 C-204.086 66.585 -204.11 69.449 -204.125 72.312 C-204.13 73.238 -204.135 74.163 -204.14 75.117 C-204.137 75.982 -204.135 76.847 -204.133 77.738 C-204.132 78.512 -204.131 79.286 -204.129 80.083 C-204.118 82.085 -204.118 82.085 -203 84 C-199.041 83.89 -195.083 83.76 -191.125 83.625 C-189.997 83.594 -188.869 83.563 -187.707 83.531 C-186.631 83.493 -185.554 83.454 -184.445 83.414 C-183.45 83.383 -182.455 83.351 -181.43 83.319 C-178.821 83.228 -178.821 83.228 -177 81 C-175.613 73.678 -175.816 66.241 -175.812 58.812 C-175.8 57.555 -175.788 56.298 -175.775 55.002 C-175.773 53.791 -175.772 52.58 -175.77 51.332 C-175.765 50.236 -175.761 49.14 -175.757 48.011 C-176.006 44.92 -176.577 42.748 -178 40 C-182.269 38.215 -186.656 39.351 -191.062 40.188 Z M-132 92 C-133.783 96.457 -134.277 97.722 -133.812 102.125 C-133.736 102.973 -133.66 103.821 -133.582 104.695 C-132.89 107.435 -132.35 108.428 -130 110 C-127.258 110.363 -127.258 110.363 -124.312 110.188 C-122.822 110.147 -122.822 110.147 -121.301 110.105 C-120.542 110.071 -119.782 110.036 -119 110 C-117.168 106.872 -116.752 104.609 -116.812 101 C-116.819 100.154 -116.825 99.309 -116.832 98.438 C-116.948 95.709 -116.948 95.709 -118 92 C-122.62 92 -127.24 92 -132 92 Z M-191 93 C-192.305 94.082 -192.305 94.082 -192.133 96.688 C-192.13 97.781 -192.128 98.874 -192.125 100 C-192.128 101.093 -192.13 102.186 -192.133 103.312 C-192.305 105.918 -192.305 105.918 -191 107 C-188.98 107.072 -186.958 107.084 -184.938 107.062 C-183.833 107.053 -182.728 107.044 -181.59 107.035 C-180.735 107.024 -179.881 107.012 -179 107 C-177.618 104.235 -177.905 101.954 -177.938 98.875 C-177.947 97.779 -177.956 96.684 -177.965 95.555 C-177.976 94.712 -177.988 93.869 -178 93 C-182.625 91.985 -186.354 92.089 -191 93 Z " fill="#005CBC" transform="translate(381,151)"/>
  <ns0:path d="M0 0 C1 1 1 1 1.114 3.5 C1.108 4.584 1.103 5.668 1.098 6.785 C1.094 7.955 1.091 9.125 1.088 10.33 C1.08 11.562 1.071 12.793 1.062 14.062 C1.058 15.298 1.053 16.534 1.049 17.807 C1.037 20.871 1.021 23.936 1 27 C-1.97 27.99 -4.363 28.281 -7.473 28.525 C-8.603 28.615 -9.734 28.706 -10.898 28.799 C-12.13 28.894 -13.363 28.988 -14.633 29.086 C-15.917 29.187 -17.201 29.289 -18.524 29.394 C-22.003 29.669 -25.483 29.939 -28.963 30.208 C-31.845 30.431 -34.726 30.656 -37.607 30.882 C-46.738 31.597 -55.869 32.301 -65 33 C-66.143 33.088 -67.287 33.175 -68.465 33.266 C-75.039 33.768 -81.613 34.263 -88.188 34.75 C-88.971 34.809 -89.755 34.867 -90.563 34.928 C-100.106 35.64 -109.648 36.218 -119.208 36.659 C-123.713 36.869 -128.196 37.155 -132.688 37.562 C-143.325 38.414 -154.734 39.3 -165 36 C-166.377 33.246 -166.13 31.012 -166.133 27.934 C-166.134 26.726 -166.135 25.519 -166.137 24.275 C-166.131 22.376 -166.131 22.376 -166.125 20.438 C-166.129 19.167 -166.133 17.897 -166.137 16.588 C-166.135 15.382 -166.134 14.176 -166.133 12.934 C-166.132 11.82 -166.131 10.707 -166.129 9.56 C-166 7 -166 7 -165 6 C-161.975 5.952 -158.966 5.962 -155.942 6.004 C-143.911 6.084 -131.942 5.548 -119.93 4.941 C-117.67 4.831 -115.411 4.722 -113.151 4.612 C-107.253 4.326 -101.356 4.034 -95.458 3.74 C-84.928 3.217 -74.398 2.705 -63.867 2.191 C-62.75 2.137 -61.633 2.082 -60.482 2.026 C-47.972 1.417 -35.462 0.813 -22.945 0.34 C-21.961 0.302 -20.976 0.264 -19.961 0.225 C-5.807 -0.272 -5.807 -0.272 0 0 Z " fill="#919394" transform="translate(435,305)"/>
  <ns0:path d="M0 0 C0.807 0.01 1.615 0.02 2.447 0.03 C16.463 0.309 30.469 1.275 44.455 2.186 C48.738 2.463 53.023 2.713 57.308 2.958 C60.634 3.153 63.959 3.368 67.284 3.589 C68.864 3.69 70.446 3.784 72.027 3.87 C74.227 3.99 76.423 4.14 78.621 4.298 C80.49 4.414 80.49 4.414 82.397 4.533 C86.504 5.523 88.068 7.055 90.68 10.324 C91.527 13.076 92.092 15.448 92.516 18.258 C92.644 19.013 92.773 19.769 92.905 20.547 C93.171 22.138 93.428 23.731 93.675 25.325 C94.054 27.755 94.464 30.177 94.879 32.6 C95.135 34.152 95.389 35.705 95.641 37.258 C95.822 38.336 95.822 38.336 96.006 39.436 C96.647 43.645 96.696 47.181 95.68 51.324 C93.958 53.046 91.76 52.452 89.464 52.463 C88.345 52.46 88.345 52.46 87.203 52.457 C86.032 52.459 86.032 52.459 84.837 52.461 C82.243 52.463 79.649 52.457 77.055 52.449 C76.167 52.448 75.279 52.447 74.364 52.446 C60.861 52.424 47.366 52.233 33.867 51.887 C33.086 51.867 32.305 51.848 31.501 51.827 C27.003 51.712 22.508 51.569 18.012 51.402 C15.496 51.318 12.98 51.263 10.463 51.207 C8.74 51.152 7.016 51.096 5.293 51.039 C4.49 51.027 3.688 51.015 2.861 51.003 C-0.755 50.861 -2.895 50.654 -5.796 48.405 C-8.245 45.062 -8.543 42.823 -8.855 38.715 C-8.943 37.573 -9.03 36.432 -9.12 35.256 C-11.291 4.809 -11.291 4.809 -9.255 1.694 C-6.33 -0.377 -3.451 -0.079 0 0 Z " fill="#22222E" transform="translate(306.3203125,177.67578125)"/>
  <ns0:path d="M0 0 C0.335 2.862 0.665 5.724 0.992 8.586 C1.134 9.79 1.134 9.79 1.278 11.019 C1.961 17.032 2.24 22.947 2 29 C-0.884 29.808 -3.556 30.173 -6.545 30.31 C-7.905 30.375 -7.905 30.375 -9.293 30.442 C-10.28 30.485 -11.268 30.528 -12.285 30.573 C-13.331 30.621 -14.378 30.67 -15.455 30.721 C-18.919 30.882 -22.383 31.037 -25.848 31.191 C-28.259 31.302 -30.671 31.412 -33.083 31.523 C-38.144 31.755 -43.206 31.985 -48.267 32.212 C-54.735 32.502 -61.201 32.798 -67.668 33.096 C-72.654 33.325 -77.639 33.552 -82.624 33.778 C-85.007 33.886 -87.39 33.995 -89.773 34.105 C-93.118 34.258 -96.463 34.408 -99.809 34.557 C-100.782 34.602 -101.756 34.647 -102.759 34.694 C-109.192 34.976 -115.547 35 -122 35 C-122 24.11 -122 13.22 -122 2 C-81.347 0.064 -40.692 -0.16 0 0 Z " fill="#FCFCFC" transform="translate(417,276)"/>
  <ns0:path d="M0 0 C3.503 -0.367 5.867 -0.331 8.793 1.75 C16.089 9.531 19.836 19.258 22.094 29.504 C23.122 33.311 24.823 36.542 26.672 40.008 C28.816 44.253 30.301 48.786 31.32 53.43 C32.163 57.215 32.163 57.215 34.934 59.758 C38.244 60.462 41.511 60.859 44.883 61.137 C46.871 61.383 46.871 61.383 48.871 62.383 C48.132 73.652 44.588 85.484 35.934 93.258 C30.233 97.213 24.293 97.884 17.559 98.57 C16.755 98.665 15.951 98.76 15.123 98.857 C8.42 99.564 1.878 99.798 -4.316 96.883 C-15.276 87.141 -19.796 71.569 -21.129 57.383 C-21.425 51.048 -21.315 44.72 -21.129 38.383 C-21.789 38.053 -22.449 37.723 -23.129 37.383 C-17.238 10.373 -17.238 10.373 -8.129 2.383 C-5.315 0.915 -3.076 0.553 0 0 Z M-9.129 31.383 C-13.842 40.076 -13.437 51.64 -10.879 60.945 C-9.018 66.22 -6.879 70.216 -2.129 73.383 C0.382 73.448 0.382 73.448 2.871 72.383 C9.332 65.552 10.189 58.515 10.09 49.395 C9.441 40.467 7.267 32.778 0.871 26.383 C-4.166 25.43 -6.122 27.506 -9.129 31.383 Z " fill="#293038" transform="translate(237.12890625,281.6171875)"/>
  <ns0:path d="M0 0 C1.21 -0.018 1.21 -0.018 2.445 -0.037 C3.617 -0.04 3.617 -0.04 4.812 -0.043 C5.52 -0.047 6.228 -0.051 6.957 -0.055 C9.318 0.225 10.944 1.022 13 2.188 C13.054 4.146 13.093 6.104 13.125 8.062 C13.148 9.153 13.171 10.244 13.195 11.367 C13 14.188 13 14.188 11 16.188 C8.539 17.039 8.539 17.039 5.625 17.812 C4.19 18.203 4.19 18.203 2.727 18.602 C0 19.188 0 19.188 -4 19.188 C-4.495 18.197 -4.495 18.197 -5 17.188 C-7.31 17.188 -9.62 17.188 -12 17.188 C-12.495 19.662 -12.495 19.662 -13 22.188 C-25.952 26.124 -39.001 29.564 -52.125 32.875 C-55.006 33.604 -57.887 34.335 -60.768 35.066 C-62.541 35.516 -64.314 35.965 -66.087 36.412 C-69.695 37.326 -73.28 38.261 -76.843 39.339 C-80 40.188 -80 40.188 -84 40.188 C-84 39.528 -84 38.868 -84 38.188 C-86.31 38.188 -88.62 38.188 -91 38.188 C-91 38.847 -91 39.507 -91 40.188 C-97.152 40.285 -97.152 40.285 -99 40.188 C-100 39.188 -100 39.188 -100.098 36.902 C-100.086 35.986 -100.074 35.069 -100.062 34.125 C-100.053 33.206 -100.044 32.287 -100.035 31.34 C-100.024 30.63 -100.012 29.919 -100 29.188 C-94.573 27.109 -89.129 25.213 -83.586 23.473 C-82.789 23.221 -81.993 22.969 -81.172 22.709 C-78.574 21.887 -75.974 21.069 -73.375 20.25 C-71.562 19.678 -69.749 19.105 -67.937 18.532 C-64.184 17.347 -60.431 16.162 -56.677 14.979 C-51.113 13.224 -45.55 11.462 -39.988 9.699 C-37.389 8.876 -34.79 8.053 -32.191 7.23 C-30.529 6.704 -28.866 6.177 -27.203 5.65 C-24.89 4.916 -22.576 4.185 -20.262 3.453 C-19.581 3.237 -18.901 3.021 -18.2 2.798 C-11.824 0.787 -6.656 0.005 0 0 Z " fill="#757676" transform="translate(281,121.8125)"/>
  <ns0:path d="M0 0 C3.141 3.151 3.461 5.863 3.73 10.207 C3.811 11.428 3.892 12.648 3.975 13.906 C4.045 15.195 4.115 16.484 4.188 17.812 C4.308 19.771 4.308 19.771 4.431 21.768 C4.943 30.52 5.272 39.235 5 48 C0.044 49.57 -4.634 50.411 -9.832 50.738 C-10.55 50.787 -11.268 50.836 -12.007 50.886 C-13.51 50.985 -15.014 51.079 -16.517 51.17 C-18.825 51.313 -21.13 51.481 -23.436 51.65 C-24.901 51.744 -26.366 51.836 -27.832 51.926 C-28.522 51.979 -29.211 52.032 -29.922 52.086 C-31.855 52.189 -31.855 52.189 -35 52 C-37.493 48.261 -37.245 46.305 -37.23 41.84 C-37.23 41.135 -37.23 40.431 -37.229 39.705 C-37.226 38.211 -37.218 36.718 -37.206 35.224 C-37.188 32.97 -37.185 30.717 -37.186 28.463 C-37.166 20.92 -36.929 13.495 -36 6 C-32.313 5.183 -28.626 4.372 -24.938 3.562 C-23.899 3.332 -22.861 3.102 -21.791 2.865 C-5.735 -0.652 -5.735 -0.652 0 0 Z " fill="#252535" transform="translate(256,180)"/>
  <ns0:path d="M0 0 C-0.361 9.393 -4.764 18.706 -11.308 25.484 C-17.225 30.785 -24.422 31.896 -32.062 32.812 C-33.017 32.946 -33.972 33.079 -34.955 33.217 C-42.928 34.246 -49.222 34.172 -56.02 29.57 C-63.79 23.409 -69.358 14.834 -71 5 C-68.041 4.014 -65.7 3.739 -62.602 3.519 C-60.943 3.399 -60.943 3.399 -59.252 3.277 C-58.055 3.195 -56.858 3.112 -55.625 3.027 C-53.773 2.896 -53.773 2.896 -51.883 2.763 C-48.593 2.531 -45.303 2.303 -42.012 2.077 C-38.702 1.847 -35.392 1.609 -32.082 1.373 C-29.534 1.195 -26.986 1.017 -24.438 0.84 C-23.257 0.755 -22.076 0.671 -20.86 0.584 C-13.893 0.111 -6.982 -0.107 0 0 Z " fill="#1D2126" transform="translate(400,336)"/>
  <ns0:path d="M0 0 C4.766 2.214 7.21 8.048 9.109 12.698 C10.106 15.627 10.996 18.567 11.848 21.542 C12.309 23.038 12.309 23.038 12.778 24.565 C16.451 36.961 16.451 36.961 13.973 41.917 C13.733 43.391 13.535 44.871 13.36 46.354 C11.847 58.448 10.356 68.897 2.973 78.917 C-0.979 78.684 -3.431 78.356 -6.652 75.979 C-15.169 64.996 -17.393 51.532 -18.027 37.917 C-18.079 36.889 -18.132 35.862 -18.187 34.803 C-18.511 23.026 -16.787 10.477 -8.777 1.354 C-5.7 -0.254 -3.441 -0.652 0 0 Z M-7.589 21.042 C-11.254 25.821 -11.382 31.425 -11.339 37.229 C-11.336 37.98 -11.332 38.73 -11.329 39.503 C-11.208 45.676 -10.743 51.742 -6.546 56.647 C-5.101 58.141 -5.101 58.141 -3.027 57.854 C-0.441 56.642 0.512 55.353 1.973 52.917 C4.812 43.513 4.202 30.687 -0.027 21.917 C-3.747 19.39 -3.747 19.39 -7.589 21.042 Z " fill="#282E36" transform="translate(160.026611328125,276.083251953125)"/>
  <ns0:path d="M0 0 C0.99 4.372 0.983 7.672 0 12 C-1.977 12.528 -3.957 13.047 -5.938 13.562 C-7.04 13.853 -8.142 14.143 -9.277 14.441 C-10.625 14.718 -10.625 14.718 -12 15 C-12.33 14.67 -12.66 14.34 -13 14 C-15.328 13.632 -17.662 13.298 -20 13 C-20 13.99 -20 14.98 -20 16 C-56.503 25.411 -56.503 25.411 -75 24 C-76.286 23.906 -77.572 23.812 -78.897 23.716 C-83.413 23.379 -87.926 23.008 -92.438 22.625 C-93.19 22.562 -93.943 22.499 -94.719 22.435 C-96.875 22.251 -99.029 22.054 -101.184 21.852 C-102.447 21.736 -103.711 21.621 -105.013 21.502 C-108 21 -108 21 -110 19 C-98.416 16.241 -86.828 13.501 -75.234 10.786 C-69.849 9.524 -64.466 8.256 -59.086 6.972 C-53.883 5.731 -48.677 4.508 -43.467 3.296 C-41.491 2.833 -39.517 2.364 -37.545 1.889 C-7.873 -5.248 -7.873 -5.248 0 0 Z " fill="#727374" transform="translate(398,136)"/>
  <ns0:path d="M0 0 C1.984 3.832 2.246 7.058 2.23 11.332 C2.229 12.543 2.227 13.754 2.225 15.002 C2.206 16.888 2.206 16.888 2.188 18.812 C2.187 20.058 2.186 21.304 2.186 22.588 C2.103 39.897 2.103 39.897 -1 43 C-3.43 43.319 -3.43 43.319 -6.445 43.414 C-7.522 43.453 -8.598 43.491 -9.707 43.531 C-11.399 43.578 -11.399 43.578 -13.125 43.625 C-14.261 43.664 -15.396 43.702 -16.566 43.742 C-19.377 43.837 -22.188 43.922 -25 44 C-26.161 41.678 -26.129 40.323 -26.133 37.738 C-26.135 36.873 -26.137 36.008 -26.14 35.117 C-26.135 34.191 -26.13 33.266 -26.125 32.312 C-26.12 31.371 -26.115 30.429 -26.11 29.459 C-26.086 26.639 -26.048 23.82 -26 21 C-25.987 20.21 -25.975 19.42 -25.962 18.606 C-25.917 16.549 -25.835 14.493 -25.75 12.438 C-25.704 11.281 -25.657 10.125 -25.609 8.934 C-24.848 5.269 -24.065 4.141 -21 2 C-18.284 1.209 -15.829 0.634 -13.062 0.188 C-12.359 0.054 -11.656 -0.079 -10.932 -0.217 C-3.595 -1.503 -3.595 -1.503 0 0 Z " fill="#242333" transform="translate(203,191)"/>
  <ns0:path d="M0 0 C11.88 7.722 16.397 24.534 19.289 37.488 C21.573 48.264 21.573 48.264 21.375 53.5 C20.715 53.5 20.055 53.5 19.375 53.5 C16.484 48.335 14.23 43.499 13 37.688 C11.116 29.367 7.165 19.981 0.375 14.5 C-5.23 13.184 -10.786 14.578 -15.625 17.5 C-24.453 26.158 -26.382 38.86 -28.625 50.5 C-29.945 50.5 -31.265 50.5 -32.625 50.5 C-33.551 34.623 -30.501 16.716 -20.219 4.125 C-14.226 -1.985 -7.775 -3.217 0 0 Z " fill="#000103" transform="translate(243.625,268.5)"/>
  <ns0:path d="M0 0 C6.44 0.623 12.676 1.64 19 3 C19.627 14.805 17.793 27.153 9.938 36.438 C7.094 38.73 4.523 39.13 0.988 39.316 C0.231 39.358 -0.526 39.4 -1.307 39.443 C-2.092 39.483 -2.878 39.522 -3.688 39.562 C-4.485 39.606 -5.282 39.649 -6.104 39.693 C-8.069 39.799 -10.034 39.9 -12 40 C-11.529 39.089 -11.059 38.177 -10.574 37.238 C-6.166 28.229 -3.97 19.901 -2.887 9.921 C-2.748 8.636 -2.748 8.636 -2.605 7.324 C-2.535 6.562 -2.464 5.8 -2.391 5.014 C-2 3 -2 3 0 0 Z " fill="#252A31" transform="translate(175,315)"/>
  <ns0:path d="M0 0 C3.774 1.038 5.531 3.482 7.5 6.688 C12.417 16.927 13.142 28.943 9.5 39.688 C7.696 42.731 5.995 45.192 3.5 47.688 C-0.212 47.607 -1.962 47.195 -4.688 44.625 C-6.854 41.114 -8.274 37.615 -9.5 33.688 C-9.687 33.095 -9.874 32.502 -10.066 31.891 C-11.701 23.585 -11.6 13.25 -7.5 5.688 C-5.125 2.624 -3.741 1.029 0 0 Z " fill="#898C8E" transform="translate(235.5,307.3125)"/>
  <ns0:path d="M0 0 C6.93 0 13.86 0 21 0 C21 10.89 21 21.78 21 33 C17.721 33.021 14.441 33.041 11.062 33.062 C10.027 33.072 8.992 33.081 7.926 33.09 C7.116 33.093 6.307 33.095 5.473 33.098 C4.224 33.106 4.224 33.106 2.949 33.114 C1 33 1 33 0 32 C-0.088 29.624 -0.115 27.278 -0.098 24.902 C-0.096 24.193 -0.095 23.485 -0.093 22.754 C-0.088 20.482 -0.075 18.21 -0.062 15.938 C-0.057 14.4 -0.053 12.863 -0.049 11.326 C-0.039 7.551 -0.019 3.775 0 0 Z " fill="#FAAA06" transform="translate(274,278)"/>
  <ns0:path d="M0 0 C4.283 0.278 8.568 0.528 12.854 0.772 C16.18 0.967 19.505 1.182 22.829 1.403 C24.41 1.505 25.991 1.598 27.573 1.684 C29.773 1.805 31.969 1.955 34.166 2.112 C36.035 2.228 36.035 2.228 37.942 2.347 C42.012 3.328 43.591 4.95 46.225 8.138 C47.735 11.623 47.297 15.391 47.225 19.138 C46.895 19.138 46.565 19.138 46.225 19.138 C46.032 18.512 45.838 17.885 45.639 17.24 C45.379 16.423 45.118 15.605 44.85 14.763 C44.595 13.951 44.34 13.139 44.077 12.302 C43.327 9.974 43.327 9.974 41.225 8.138 C38.432 7.198 36.026 7.077 33.1 7.201 C29.905 7.246 27.153 6.97 24.057 6.205 C16.937 4.718 9.733 4.485 2.487 4.133 C0.06 4.015 -2.366 3.884 -4.792 3.752 C-13.496 3.295 -22.147 3.062 -30.862 3.205 C-33.775 3.138 -33.775 3.138 -36.775 2.138 C-39.084 1.993 -41.399 1.918 -43.712 1.888 C-44.938 1.863 -46.164 1.837 -47.427 1.81 C-50.937 2.154 -52.263 2.747 -54.775 5.138 C-54.4 2.201 -54.4 2.201 -53.775 -0.862 C-41.007 -7.246 -14.141 -0.921 0 0 Z " fill="#0B0915" transform="translate(350.77490234375,179.861572265625)"/>
  <ns0:path d="M0 0 C2.438 0 2.438 0 5 1 C8.847 7.182 9.204 12.749 9.25 19.812 C9.271 20.594 9.291 21.376 9.312 22.182 C9.348 27.557 8.516 31.231 6 36 C5.34 36.66 4.68 37.32 4 38 C1.351 37.829 0.255 37.255 -1.625 35.375 C-4.903 29.713 -5.341 23.871 -5.312 17.5 C-5.329 16.779 -5.345 16.059 -5.361 15.316 C-5.366 10.156 -4.381 6.589 -2 2 C-1.34 1.34 -0.68 0.68 0 0 Z " fill="#878A8F" transform="translate(154,296)"/>
  <ns0:path d="M0 0 C9.329 7.23 11.929 19.966 14 31 C14.252 34.105 14.222 36.887 14 40 C11.14 37.14 10.7 33.681 9.688 29.875 C7.395 20.594 7.395 20.594 2 13 C-0.765 11.806 -3.047 11.351 -6 12 C-12.664 16.154 -13.956 22.793 -16 30 C-16.842 33.985 -17.504 37.958 -18 42 C-18.66 42 -19.32 42 -20 42 C-20.831 28.919 -18.464 13.282 -9.875 2.938 C-6.604 -0.664 -4.797 -1.562 0 0 Z " fill="#020407" transform="translate(160,265)"/>
  <ns0:path d="M0 0 C4.62 0 9.24 0 14 0 C14.82 3.28 15.162 5.683 15.188 9 C15.202 9.846 15.216 10.691 15.23 11.562 C14.985 14.154 14.306 15.77 13 18 C11.23 18.081 9.459 18.139 7.688 18.188 C6.701 18.222 5.715 18.257 4.699 18.293 C2 18 2 18 0.195 16.793 C-1.32 14.52 -1.569 12.839 -1.812 10.125 C-1.901 9.282 -1.99 8.439 -2.082 7.57 C-2 5 -2 5 0 0 Z " fill="#00A7EA" transform="translate(249,243)"/>
  <ns0:path d="M0 0 C1.996 1.996 1.41 5.817 1.562 8.562 C1.606 9.273 1.649 9.984 1.693 10.717 C1.8 12.478 1.9 14.239 2 16 C3.65 16.33 5.3 16.66 7 17 C7 18.32 7 19.64 7 21 C4.375 21.027 1.75 21.047 -0.875 21.062 C-1.621 21.071 -2.368 21.079 -3.137 21.088 C-8.773 21.113 -8.773 21.113 -11 20 C-11 13.73 -11 7.46 -11 1 C-7.117 -0.294 -4.093 -0.132 0 0 Z " fill="#8D8F91" transform="translate(135,292)"/>
  <ns0:path d="M0 0 C2.97 0 5.94 0 9 0 C9.889 6.332 10.294 12.613 10.562 19 C10.606 19.966 10.649 20.931 10.693 21.926 C10.798 24.284 10.9 26.642 11 29 C8.03 29 5.06 29 2 29 C1.662 25.292 1.331 21.584 1 17.875 C0.905 16.828 0.809 15.782 0.711 14.703 C0.275 9.788 -0.137 4.94 0 0 Z " fill="#FCA306" transform="translate(417,276)"/>
  <ns0:path d="M0 0 C2.31 0 4.62 0 7 0 C7 10.56 7 21.12 7 32 C4.69 31.67 2.38 31.34 0 31 C0 20.77 0 10.54 0 0 Z " fill="#FCFBF7" transform="translate(267,278)"/>
  <ns0:path d="M0 0 C2.27 1.78 3.617 3.259 4.938 5.812 C5.044 9.534 3.877 11.832 2 15 C-1.649 16.689 -3.814 17.27 -7.75 16.375 C-10.34 14.792 -11.58 13.69 -13 11 C-13.579 7.111 -13.333 5.517 -11.188 2.188 C-7.536 -1.464 -4.795 -1.272 0 0 Z " fill="#7E7E82" transform="translate(151,204)"/>
  <ns0:path d="M0 0 C2 2 2 2 2 5 C-2.125 5.721 -6.25 6.432 -10.378 7.136 C-11.779 7.376 -13.179 7.619 -14.579 7.864 C-28.898 10.366 -28.898 10.366 -36 10 C-36 8.68 -36 7.36 -36 6 C-32.313 5.183 -28.626 4.372 -24.938 3.562 C-23.899 3.332 -22.861 3.102 -21.791 2.865 C-6.606 -0.461 -6.606 -0.461 0 0 Z " fill="#0B0A13" transform="translate(256,180)"/>
  <ns0:path d="M0 0 C0.027 1.958 0.046 3.917 0.062 5.875 C0.074 6.966 0.086 8.056 0.098 9.18 C0 12 0 12 -1 14 C-2.979 14.027 -4.958 14.046 -6.938 14.062 C-8.04 14.074 -9.142 14.086 -10.277 14.098 C-13 14 -13 14 -14 13 C-14.099 11.002 -14.13 9 -14.125 7 C-14.128 5.907 -14.13 4.814 -14.133 3.688 C-14 1 -14 1 -13 0 C-8.354 -0.911 -4.625 -1.015 0 0 Z " fill="#00A6DA" transform="translate(203,244)"/>
  <ns0:path d="M0 0 C2.64 0 5.28 0 8 0 C8.058 3.292 8.094 6.583 8.125 9.875 C8.142 10.812 8.159 11.749 8.176 12.715 C8.182 13.611 8.189 14.507 8.195 15.43 C8.206 16.257 8.216 17.085 8.227 17.937 C8 20 8 20 6 22 C3.438 22.188 3.438 22.188 1 22 C0 21 0 21 -0.114 18.959 C-0.108 18.084 -0.103 17.21 -0.098 16.309 C-0.094 15.364 -0.091 14.42 -0.088 13.447 C-0.08 12.454 -0.071 11.461 -0.062 10.438 C-0.058 9.44 -0.053 8.443 -0.049 7.416 C-0.037 4.944 -0.021 2.472 0 0 Z " fill="#E79803" transform="translate(130,270)"/>
  <ns0:path d="M0 0 C3.5 0.125 3.5 0.125 4.5 1.125 C5.42 6.85 5.591 12.331 5.5 18.125 C1.87 18.125 -1.76 18.125 -5.5 18.125 C-5.36 15.312 -5.213 12.5 -5.062 9.688 C-5.023 8.885 -4.984 8.083 -4.943 7.256 C-4.554 0.163 -4.554 0.163 0 0 Z " fill="#4A4C4F" transform="translate(272.5,137.875)"/>
  <ns0:path d="M0 0 C2.31 0 4.62 0 7 0 C7 6.27 7 12.54 7 19 C4.69 19.33 2.38 19.66 0 20 C0 13.4 0 6.8 0 0 Z " fill="#262B2F" transform="translate(145,223)"/>
  <ns0:path d="M0 0 C0.33 0.99 0.66 1.98 1 3 C-7.311 4.762 -15.504 6.42 -24 7 C-23.67 5.68 -23.34 4.36 -23 3 C-21.126 2.518 -19.251 2.039 -17.375 1.562 C-15.809 1.162 -15.809 1.162 -14.211 0.754 C-9.139 -0.437 -5.103 -1.351 0 0 Z " fill="#0C0A14" transform="translate(203,191)"/>
  <ns0:path d="M0 0 C1.32 0.33 2.64 0.66 4 1 C4.66 5.29 5.32 9.58 6 14 C-0.75 14.125 -0.75 14.125 -3 13 C-2.886 11.208 -2.759 9.416 -2.625 7.625 C-2.555 6.627 -2.486 5.63 -2.414 4.602 C-2 2 -2 2 0 0 Z " fill="#434549" transform="translate(381,151)"/>
  <ns0:path d="M0 0 C1.32 0 2.64 0 4 0 C4 6.6 4 13.2 4 20 C2.68 20.33 1.36 20.66 0 21 C0 14.07 0 7.14 0 0 Z " fill="#D9DDD9" transform="translate(134,270)"/>
  <ns0:path d="M0 0 C2.31 0 4.62 0 7 0 C6.67 3.63 6.34 7.26 6 11 C4.02 11.66 2.04 12.32 0 13 C0 8.71 0 4.42 0 0 Z " fill="#3D3A3D" transform="translate(190,160)"/>
  <ns0:path d="M0 0 C2.31 0 4.62 0 7 0 C7 0.99 7 1.98 7 3 C4.69 3.33 2.38 3.66 0 4 C0 2.68 0 1.36 0 0 Z " fill="#424246" transform="translate(378,149)"/>
  <ns0:path d="M0 0 C4 1 4 1 4 1 Z " fill="#476B8F" transform="translate(295,157)"/>
  <ns0:path d="M0 0 C2 1 2 1 2 1 Z " fill="#4B6C8D" transform="translate(309,158)"/>
  <ns0:path d="M0 0 C4 1 4 1 4 1 Z " fill="#40464B" transform="translate(275,342)"/>
  <ns0:path d="M0 0 C4 1 4 1 4 1 Z " fill="#373C41" transform="translate(385,336)"/>
  <ns0:path d="M0 0 C3 1 3 1 3 1 Z " fill="#31383E" transform="translate(284,343)"/>
  <ns0:path d="M0 0 C3 1 3 1 3 1 Z " fill="#454B50" transform="translate(271,341)"/>
  <ns0:path d="M0 0 C2 1 2 1 2 1 Z " fill="#3E4349" transform="translate(399,335)"/>
</svg>