<?xml version="1.0" ?>
<svg xmlns:ns0="http://www.w3.org/2000/svg" xmlns="http://www.w3.org/2000/svg" width="512" height="512" viewBox="0 0 512 512" style="background-color: transparent;">
  <ns0:path d="M0 0 C29.04 0 58.08 0 88 0 C89.038 4.152 89.411 8.157 89.724 12.405 C89.79 13.251 89.855 14.097 89.922 14.969 C90.063 16.804 90.203 18.64 90.341 20.476 C90.561 23.385 90.785 26.295 91.011 29.204 C91.652 37.475 92.286 45.746 92.913 54.019 C93.298 59.081 93.689 64.143 94.084 69.205 C94.233 71.129 94.379 73.054 94.523 74.979 C94.724 77.679 94.934 80.378 95.146 83.077 C95.203 83.865 95.26 84.653 95.318 85.464 C95.804 94.45 95.804 94.45 99.988 101.875 C101.139 102.432 101.139 102.432 102.312 103 C103.072 103.392 103.831 103.784 104.613 104.188 C107.216 105.074 109.27 105.155 112 105 C112.33 104.01 112.66 103.02 113 102 C113.825 101.526 114.65 101.051 115.5 100.562 C118.084 99.3 118.084 99.3 118.639 97.301 C121.019 82.141 117.662 66.111 115.755 51.076 C115.162 46.397 114.579 41.718 114.002 37.037 C113.696 34.559 113.385 32.082 113.067 29.605 C112.29 23.345 111.836 17.308 112 11 C112.33 11 112.66 11 113 11 C114.378 21.992 115.754 32.983 117.106 43.978 C117.714 48.923 118.326 53.868 118.938 58.812 C119.066 59.853 119.194 60.893 119.327 61.964 C120.942 75.006 122.568 88.038 124.795 100.993 C127.617 118.405 127.011 135.689 125.562 153.188 C124.22 169.887 123.371 186.379 124.5 203.125 C124.572 204.291 124.572 204.291 124.645 205.48 C124.758 207.321 124.878 209.16 125 211 C123.913 210.972 122.827 210.943 121.707 210.914 C116.745 211.029 113.502 212.498 110 216 C109.424 217.992 109.424 217.992 109.188 220.25 C109.078 220.998 108.968 221.745 108.855 222.516 C108.829 225.146 108.829 225.146 110.477 227.68 C112.539 232.175 112.331 236 112.188 240.875 C112.174 241.754 112.16 242.633 112.146 243.539 C112.111 245.693 112.058 247.847 112 250 C113.98 250 115.96 250 118 250 C119.769 245.072 120.932 240.114 122 235 C123.98 234.67 125.96 234.34 128 234 C130.242 254.84 132.073 275.044 130 296 C125.289 297.837 120.981 298.333 115.977 298.414 C114.857 298.443 114.857 298.443 113.715 298.473 C111.352 298.532 108.989 298.579 106.625 298.625 C105.014 298.663 103.404 298.702 101.793 298.742 C97.862 298.839 93.931 298.919 90 299 C89.01 306.92 89.01 306.92 88 315 C87.34 314.67 86.68 314.34 86 314 C86.99 301.13 86.99 301.13 88 288 C69.543 287.076 51.156 286.873 32.684 286.931 C28.982 286.942 25.28 286.946 21.578 286.951 C14.385 286.962 7.193 286.979 0 287 C0 290.96 0 294.92 0 299 C-4.25 299.054 -8.5 299.094 -12.75 299.125 C-13.937 299.142 -15.124 299.159 -16.348 299.176 C-34.451 299.275 -34.451 299.275 -41 296 C-45.565 275.937 -42.318 255.136 -40 235 C-38.103 234.436 -38.103 234.436 -36 234 C-33.344 235.647 -32.959 237.136 -32.051 240.137 C-31.685 241.894 -31.685 241.894 -31.312 243.688 C-31.061 244.867 -30.81 246.046 -30.551 247.262 C-30.278 248.617 -30.278 248.617 -30 250 C-26.417 251.002 -26.417 251.002 -23 250 C-22.922 245.164 -23.019 240.604 -23.688 235.812 C-24.215 231.238 -23.094 229.1 -21 225 C-20.766 220.712 -21.283 217.195 -23.5 213.5 C-26.669 211.599 -29.327 211.388 -32.977 211.176 C-35 211 -35 211 -37 210 C-36.928 209.149 -36.856 208.298 -36.781 207.422 C-35.614 192.185 -35.754 177.232 -37 162 C-39.218 133.89 -38.665 106.672 -33 79 C-32.67 79 -32.34 79 -32 79 C-31.939 80.097 -31.879 81.194 -31.816 82.324 C-31.732 83.779 -31.647 85.233 -31.562 86.688 C-31.523 87.409 -31.484 88.13 -31.443 88.873 C-31.155 94.504 -31.155 94.504 -30 100 C-27.576 101.17 -27.576 101.17 -25 102 C-24.34 102.99 -23.68 103.98 -23 105 C-19.416 105.25 -19.416 105.25 -16 105 C-15.505 103.515 -15.505 103.515 -15 102 C-14.196 101.649 -13.391 101.299 -12.562 100.938 C-8.537 97.894 -8.704 93.825 -8 89 C-7.498 84.707 -7.128 80.409 -6.781 76.102 C-6.678 74.873 -6.574 73.644 -6.468 72.377 C-6.25 69.777 -6.035 67.177 -5.823 64.576 C-5.506 60.699 -5.182 56.822 -4.855 52.945 C-3.992 42.605 -3.144 32.265 -2.434 21.913 C-2.3 19.972 -2.3 19.972 -2.163 17.992 C-1.995 15.52 -1.831 13.047 -1.672 10.574 C-1.598 9.475 -1.524 8.376 -1.447 7.244 C-1.385 6.276 -1.322 5.308 -1.257 4.311 C-1 2 -1 2 0 0 Z M-25 140 C-25.419 142.587 -25.585 144.747 -25.566 147.336 C-25.573 148.052 -25.579 148.769 -25.585 149.507 C-25.592 151.021 -25.589 152.536 -25.576 154.051 C-25.563 156.361 -25.597 158.667 -25.635 160.977 C-25.636 162.451 -25.634 163.924 -25.629 165.398 C-25.642 166.085 -25.655 166.772 -25.669 167.479 C-25.604 170.865 -25.096 172.856 -23.213 175.683 C-18.334 179.201 -13.835 178.683 -7.961 178.615 C-6.741 178.621 -5.521 178.626 -4.264 178.632 C-0.925 178.642 2.413 178.629 5.752 178.606 C9.252 178.586 12.751 178.592 16.25 178.594 C22.127 178.594 28.004 178.574 33.881 178.542 C40.667 178.505 47.453 178.496 54.24 178.503 C60.777 178.51 67.313 178.499 73.85 178.479 C76.628 178.471 79.406 178.468 82.184 178.47 C86.067 178.471 89.949 178.447 93.832 178.42 C94.981 178.423 96.129 178.426 97.313 178.429 C105.114 178.402 105.114 178.402 112 175 C112.752 171.735 112.997 169.3 113 166 C113.015 164.456 113.015 164.456 113.03 162.88 C113.019 159.457 112.925 156.045 112.812 152.625 C112.794 151.451 112.775 150.276 112.756 149.066 C112.701 147.382 112.701 147.382 112.645 145.664 C112.604 144.14 112.604 144.14 112.562 142.584 C112.234 139.921 112.234 139.921 110.299 138.362 C107.523 136.717 105.862 136.623 102.649 136.619 C101.563 136.611 100.478 136.602 99.36 136.593 C98.175 136.599 96.989 136.606 95.768 136.612 C94.515 136.607 93.263 136.601 91.973 136.596 C88.541 136.585 85.109 136.588 81.677 136.597 C78.085 136.605 74.493 136.598 70.901 136.593 C64.868 136.587 58.836 136.595 52.803 136.609 C45.83 136.625 38.857 136.62 31.884 136.603 C25.895 136.59 19.907 136.588 13.919 136.596 C10.343 136.6 6.767 136.601 3.191 136.591 C-0.795 136.581 -4.781 136.595 -8.768 136.612 C-9.953 136.606 -11.139 136.6 -12.36 136.593 C-13.445 136.602 -14.531 136.61 -15.649 136.619 C-17.062 136.621 -17.062 136.621 -18.504 136.622 C-21.49 137.074 -22.863 137.885 -25 140 Z " fill="#0058BC" transform="translate(212,111)"/>
  <ns0:path d="M0 0 C1.085 -0.008 2.17 -0.017 3.288 -0.026 C4.474 -0.02 5.659 -0.013 6.881 -0.007 C8.133 -0.012 9.386 -0.018 10.676 -0.023 C14.108 -0.034 17.539 -0.032 20.971 -0.022 C24.564 -0.014 28.156 -0.021 31.748 -0.026 C37.781 -0.032 43.813 -0.024 49.845 -0.01 C56.819 0.006 63.792 0.001 70.765 -0.016 C76.753 -0.029 82.741 -0.031 88.73 -0.023 C92.306 -0.019 95.882 -0.018 99.458 -0.028 C103.444 -0.038 107.43 -0.024 111.416 -0.007 C112.602 -0.013 113.787 -0.019 115.009 -0.026 C116.094 -0.017 117.179 -0.009 118.297 0 C119.711 0.002 119.711 0.002 121.153 0.003 C124.134 0.454 125.507 1.279 127.649 3.381 C128.226 6.488 128.226 6.488 128.328 10.279 C128.35 10.951 128.371 11.623 128.393 12.316 C128.434 13.736 128.465 15.157 128.487 16.577 C128.523 18.742 128.591 20.904 128.664 23.068 C128.985 35.483 128.985 35.483 126.649 39.381 C123.115 41.141 120.219 41.635 116.297 41.655 C115.238 41.665 114.178 41.675 113.086 41.685 C111.934 41.686 110.781 41.687 109.594 41.687 C108.372 41.696 107.151 41.704 105.892 41.713 C102.549 41.733 99.206 41.743 95.863 41.748 C93.773 41.752 91.684 41.758 89.594 41.765 C82.3 41.79 75.007 41.803 67.713 41.806 C60.919 41.81 54.124 41.84 47.33 41.882 C41.491 41.917 35.653 41.932 29.814 41.933 C26.329 41.934 22.844 41.942 19.359 41.971 C15.474 42.002 11.589 41.993 7.703 41.98 C6.551 41.995 5.399 42.01 4.211 42.025 C-3.556 41.954 -3.556 41.954 -7.565 39.065 C-9.854 35.626 -10.058 32.783 -9.98 28.779 C-9.983 28.061 -9.985 27.343 -9.988 26.603 C-9.987 25.092 -9.973 23.58 -9.948 22.069 C-9.914 19.755 -9.928 17.445 -9.947 15.131 C-9.94 13.66 -9.931 12.188 -9.918 10.717 C-9.923 10.026 -9.928 9.336 -9.933 8.624 C-9.815 3.84 -9.815 3.84 -7.653 1.699 C-4.88 0.111 -3.184 0.004 0 0 Z " fill="#1B1A24" transform="translate(196.3514404296875,247.61904907226563)"/>
  <ns0:path d="M0 0 C3.25 3.25 2.78 7.59 3.242 12.031 C3.665 15.033 3.665 15.033 5.655 16.16 C8.613 17.22 11.139 17.324 14.283 17.41 C15.577 17.448 16.871 17.486 18.204 17.525 C19.637 17.556 21.071 17.587 22.504 17.617 C24.017 17.655 25.529 17.693 27.042 17.731 C44.772 18.148 62.506 18.152 80.24 18.13 C84.983 18.125 89.726 18.128 94.469 18.134 C112.231 18.152 129.992 18.106 147.749 17.673 C149.279 17.636 150.809 17.602 152.34 17.571 C154.427 17.527 156.513 17.471 158.6 17.41 C159.77 17.379 160.94 17.348 162.146 17.317 C165.199 17.199 165.199 17.199 168 15 C168.704 12.423 169.245 9.995 169.688 7.375 C169.882 6.315 169.882 6.315 170.08 5.234 C170.398 3.492 170.7 1.746 171 0 C173.584 1.91 174.003 3.016 174.676 6.227 C176.664 29.371 176.664 29.371 170.625 37 C166.4 40.219 162.87 40.127 157.637 40.14 C156.328 40.146 155.018 40.152 153.669 40.158 C152.22 40.159 150.77 40.16 149.321 40.161 C147.793 40.166 146.265 40.171 144.737 40.176 C140.589 40.189 136.44 40.196 132.291 40.2 C129.699 40.203 127.106 40.207 124.514 40.212 C116.401 40.225 108.288 40.235 100.176 40.239 C90.813 40.243 81.451 40.261 72.089 40.29 C64.849 40.312 57.61 40.322 50.371 40.323 C46.048 40.324 41.725 40.33 37.403 40.348 C33.336 40.364 29.27 40.366 25.204 40.358 C23.713 40.357 22.223 40.361 20.732 40.371 C18.694 40.384 16.655 40.376 14.617 40.367 C13.477 40.369 12.338 40.37 11.163 40.372 C6.845 39.864 3.575 38.267 0.199 35.551 C-4.637 29.297 -3.425 18.384 -3 11 C-1.747 1.747 -1.747 1.747 0 0 Z " fill="#8C8E90" transform="translate(170,407)"/>
  <ns0:path d="M0 0 C0.776 0.079 1.552 0.157 2.352 0.238 C4.375 0.688 4.375 0.688 6.375 2.688 C6.63 4.624 6.63 4.624 6.632 7.024 C6.635 7.925 6.637 8.825 6.64 9.753 C6.625 11.227 6.625 11.227 6.609 12.73 C6.6 14.27 6.6 14.27 6.591 15.84 C6.452 27.597 5.577 39.286 4.625 51 C4.442 53.304 4.259 55.608 4.076 57.912 C3.703 62.572 3.322 67.231 2.935 71.889 C2.569 76.305 2.214 80.721 1.874 85.138 C1.492 90.077 1.089 95.013 0.667 99.948 C0.515 101.761 0.371 103.574 0.234 105.389 C0.043 107.886 -0.176 110.38 -0.402 112.875 C-0.451 113.6 -0.5 114.324 -0.551 115.071 C-0.932 118.898 -1.608 120.666 -4.076 123.676 C-6.625 125.688 -6.625 125.688 -8.625 125.688 C-8.955 127.007 -9.285 128.327 -9.625 129.688 C-12.813 130 -12.813 130 -16.625 129.688 C-19.375 127.375 -19.375 127.375 -21.625 124.688 C-22.202 124.151 -22.78 123.615 -23.375 123.062 C-27.694 118.311 -25.876 108.78 -25.625 102.688 C-25.218 96.765 -24.48 90.876 -23.762 84.984 C-23.566 83.329 -23.372 81.673 -23.178 80.018 C-22.772 76.571 -22.361 73.126 -21.945 69.681 C-21.418 65.328 -20.903 60.973 -20.391 56.618 C-19.34 47.674 -18.255 38.735 -17.136 29.8 C-16.685 26.197 -16.261 22.592 -15.838 18.986 C-15.609 17.183 -15.378 15.381 -15.145 13.578 C-15.061 12.814 -14.978 12.051 -14.893 11.264 C-14.197 6.251 -12.524 3.858 -8.625 0.688 C-5.67 -0.528 -3.148 -0.353 0 0 Z " fill="#707274" transform="translate(205.625,87.3125)"/>
  <ns0:path d="M0 0 C3.409 1.872 3.872 2.295 5.188 5.75 C5.557 7.662 5.848 9.591 6.085 11.524 C6.233 12.693 6.38 13.862 6.532 15.067 C6.684 16.335 6.836 17.603 6.992 18.91 C7.157 20.245 7.323 21.58 7.49 22.915 C7.932 26.478 8.365 30.042 8.795 33.606 C9.151 36.545 9.512 39.482 9.872 42.42 C10.755 49.609 11.627 56.798 12.493 63.988 C12.974 67.989 13.46 71.989 13.95 75.989 C14.454 80.103 14.951 84.217 15.438 88.333 C15.601 89.71 15.767 91.087 15.935 92.463 C18.969 117.431 18.969 117.431 14.188 123.75 C12.188 124.938 12.188 124.938 10.188 125.75 C9.734 126.307 9.28 126.864 8.812 127.438 C7.188 128.75 7.188 128.75 4.438 128.75 C0.229 127.455 -2.765 125.956 -5.812 122.75 C-8.302 114.546 -8.603 105.957 -9.25 97.449 C-9.376 95.848 -9.503 94.246 -9.631 92.644 C-9.964 88.429 -10.29 84.213 -10.615 79.997 C-10.938 75.808 -11.271 71.62 -11.602 67.432 C-12.355 57.872 -13.09 48.312 -13.812 38.75 C-13.867 38.031 -13.921 37.312 -13.977 36.571 C-14.324 31.971 -14.664 27.37 -15 22.77 C-15.084 21.642 -15.168 20.514 -15.254 19.352 C-16.274 5.136 -16.274 5.136 -14.812 0.75 C-10.357 -2.506 -4.925 -1.878 0 0 Z " fill="#737475" transform="translate(314.8125,88.25)"/>
  <ns0:path d="M0 0 C1.746 -0.005 1.746 -0.005 3.526 -0.01 C4.797 -0.008 6.067 -0.006 7.376 -0.003 C9.351 -0.005 9.351 -0.005 11.366 -0.006 C14.172 -0.008 16.978 -0.006 19.784 -0.001 C23.305 0.005 26.825 0.001 30.346 -0.004 C47.072 -0.028 63.756 0.241 80.462 1.129 C81.374 4.462 81.463 7.059 81.158 10.516 C81.024 12.047 81.024 12.047 80.888 13.608 C80.789 14.667 80.69 15.726 80.587 16.817 C80.45 18.423 80.45 18.423 80.31 20.061 C79.596 27.996 79.596 27.996 78.462 29.129 C75.851 29.23 73.266 29.266 70.654 29.259 C69.427 29.261 69.427 29.261 68.176 29.264 C65.459 29.269 62.742 29.266 60.025 29.262 C58.145 29.263 56.266 29.264 54.386 29.265 C50.442 29.267 46.498 29.264 42.553 29.26 C37.485 29.254 32.417 29.257 27.349 29.263 C23.467 29.267 19.584 29.266 15.702 29.263 C13.832 29.263 11.963 29.263 10.094 29.266 C7.486 29.268 4.879 29.264 2.271 29.259 C1.491 29.261 0.71 29.263 -0.094 29.265 C-5.423 29.244 -5.423 29.244 -6.538 28.129 C-7.825 19.194 -7.648 10.132 -7.538 1.129 C-4.906 -0.187 -2.948 0.002 0 0 Z " fill="#000102" transform="translate(219.53759765625,396.87060546875)"/>
  <ns0:path d="M0 0 C3.076 2.051 4.538 3.539 5.66 7.086 C6.374 11.145 6.291 14.184 4.375 17.875 C1.987 21.018 0.644 22.559 -3 24 C-6.745 24.401 -9.206 24.332 -12.688 22.875 C-15.694 20.437 -17.31 18.51 -19 15 C-19.44 10.111 -18.735 6.934 -15.688 3.062 C-10.313 -1.062 -6.566 -1.767 0 0 Z " fill="#7B7E81" transform="translate(186,322)"/>
  <ns0:path d="M0 0 C3.208 1.881 5.5 4.174 7.438 7.375 C8.322 11.501 8.191 15.078 5.918 18.746 C3.765 21.458 2.318 22.894 -1 24 C-5.153 24.392 -7.49 24.255 -11.25 22.375 C-14.888 19.234 -16.8 16.691 -17.164 11.789 C-17.022 8.49 -16.78 5.985 -14.691 3.348 C-9.778 -0.88 -6.197 -1.47 0 0 Z " fill="#818285" transform="translate(337,322)"/>
  <ns0:path d="M0 0 C0.814 0.004 1.628 0.008 2.467 0.012 C3.254 0.008 4.041 0.004 4.852 0 C9.955 0.008 14.853 0.408 19.904 1.137 C20.234 6.087 20.564 11.037 20.904 16.137 C12.324 16.137 3.744 16.137 -5.096 16.137 C-5.446 13.682 -5.797 11.228 -6.158 8.699 C-6.272 7.925 -6.385 7.151 -6.502 6.354 C-6.741 4.62 -6.921 2.878 -7.096 1.137 C-5.211 -0.748 -2.505 0.004 0 0 Z " fill="#F0F1F0" transform="translate(192.095703125,408.86328125)"/>
  <ns0:path d="M0 0 C8.25 0 16.5 0 25 0 C24.856 2.454 24.711 4.909 24.562 7.438 C24.498 8.599 24.498 8.599 24.432 9.783 C24.111 14.889 24.111 14.889 23 16 C21.146 16.087 19.289 16.107 17.434 16.098 C16.309 16.094 15.184 16.091 14.025 16.088 C12.841 16.08 11.657 16.071 10.438 16.062 C9.25 16.058 8.062 16.053 6.838 16.049 C3.892 16.037 0.946 16.021 -2 16 C-2.055 14.459 -2.093 12.917 -2.125 11.375 C-2.16 10.087 -2.16 10.087 -2.195 8.773 C-2 6 -2 6 0 0 Z " fill="#F7F8F6" transform="translate(302,409)"/>
  <ns0:path d="M0 0 C4.62 0.66 9.24 1.32 14 2 C16.143 13.116 16.143 13.116 16 18 C14.606 18.109 13.209 18.186 11.812 18.25 C11.035 18.296 10.258 18.343 9.457 18.391 C5.93 17.83 4.431 16.597 2 14 C0.753 9.348 0.49 4.815 0 0 Z " fill="#E79B06" transform="translate(171,407)"/>
  <ns0:path d="M0 0 C-0.228 2.441 -0.481 4.876 -0.75 7.312 C-0.812 8.003 -0.874 8.693 -0.938 9.404 C-1.303 12.557 -1.621 14.581 -3.781 16.969 C-6.317 18.147 -7.969 18.31 -10.75 18.188 C-11.949 18.147 -11.949 18.147 -13.172 18.105 C-13.775 18.071 -14.378 18.036 -15 18 C-15.111 12.542 -14.917 7.385 -14 2 C-12.042 1.665 -10.084 1.332 -8.125 1 C-6.489 0.722 -6.489 0.722 -4.82 0.438 C-2 0 -2 0 0 0 Z " fill="#EB9B06" transform="translate(341,407)"/>
  <ns0:path d="M0 0 C0.59 4.644 1.098 9.257 1.25 13.938 C1.289 15.034 1.289 15.034 1.328 16.152 C1.22 16.762 1.112 17.372 1 18 C-2 20 -2 20 -4.562 19.812 C-7 19 -7 19 -9 16 C-9.447 13.784 -9.815 11.552 -10.125 9.312 C-10.293 8.133 -10.46 6.954 -10.633 5.738 C-10.754 4.835 -10.875 3.931 -11 3 C-9.543 2.496 -8.084 1.997 -6.625 1.5 C-5.813 1.222 -5.001 0.943 -4.164 0.656 C-2 0 -2 0 0 0 Z " fill="#26313C" transform="translate(189,343)"/>
  <ns0:path d="M0 0 C3.3 0.99 6.6 1.98 10 3 C9.719 5.293 9.425 7.584 9.125 9.875 C8.963 11.151 8.8 12.427 8.633 13.742 C8 17 8 17 6 19 C2.938 19.188 2.938 19.188 0 19 C-1 18 -1 18 -1.133 15.234 C-1.13 14.085 -1.128 12.935 -1.125 11.75 C-1.128 10.61 -1.13 9.471 -1.133 8.297 C-1 5 -1 5 0 0 Z " fill="#272E33" transform="translate(324,343)"/>
  <ns0:path d="M0 0 C5.28 0.33 10.56 0.66 16 1 C16.33 2.65 16.66 4.3 17 6 C13.332 8.347 10.283 8.443 6 8 C2.562 6.25 2.562 6.25 0 4 C0 2.68 0 1.36 0 0 Z " fill="#ADAFB1" transform="translate(323,338)"/>
  <ns0:path d="M0 0 C1.281 0.009 2.563 0.018 3.883 0.027 C4.87 0.039 5.858 0.051 6.875 0.062 C6.875 1.712 6.875 3.363 6.875 5.062 C2.261 6.6 -1.562 6.81 -6 4.688 C-8.125 3.062 -8.125 3.062 -9.125 1.062 C-6.122 -0.439 -3.334 -0.03 0 0 Z " fill="#949698" transform="translate(179.125,339.9375)"/>
  <ns0:path d="M0 0 C8.25 0 16.5 0 25 0 C25 0.33 25 0.66 25 1 C17.41 1 9.82 1 2 1 C0.515 7.435 0.515 7.435 -1 14 C-1.33 14 -1.66 14 -2 14 C-2.196 8.314 -1.896 5.688 0 0 Z " fill="#C6D0D5" transform="translate(302,409)"/>
  <ns0:path d="M0 0 C1.32 0 2.64 0 4 0 C4.33 4.95 4.66 9.9 5 15 C4.01 15 3.02 15 2 15 C2.33 10.71 2.66 6.42 3 2 C2.01 2 1.02 2 0 2 C0 1.34 0 0.68 0 0 Z " fill="#EED472" transform="translate(208,410)"/>
  <ns0:path d="M0 0 C0.33 0.99 0.66 1.98 1 3 C0.67 3.66 0.34 4.32 0 5 C-3.557 5.851 -5.493 6.169 -9 5 C-9 4.34 -9 3.68 -9 3 C-6.03 2.01 -3.06 1.02 0 0 Z " fill="#1F2226" transform="translate(187,343)"/>
  <ns0:path d="M0 0 C0.99 0 1.98 0 3 0 C1.515 6.435 1.515 6.435 0 13 C-0.33 13 -0.66 13 -1 13 C-1.077 8.484 -1.102 4.409 0 0 Z " fill="#EFB019" transform="translate(301,410)"/>
  <ns0:path d="M0 0 C2 1 2 1 2 1 Z " fill="#606059" transform="translate(212,425)"/>
</svg>