<?xml version="1.0" ?>
<svg xmlns:ns0="http://www.w3.org/2000/svg" xmlns="http://www.w3.org/2000/svg" width="512" height="512" viewBox="0 0 512 512" style="background-color: transparent;">
  <ns0:path d="M0 0 C7.708 7.433 11.798 14.857 12.25 25.688 C12.918 29.77 13.665 30.758 17.082 33.223 C21.248 35.476 25.608 37.241 30 39 C31.474 39.621 32.947 40.245 34.418 40.871 C37.956 42.364 41.512 43.804 45.078 45.227 C47.816 46.328 50.532 47.477 53.25 48.625 C57.387 50.358 61.554 51.979 65.75 53.562 C69.341 54.925 72.793 56.329 76.188 58.125 C80.575 60.436 85.23 61.71 90 63 C89.918 61.824 89.835 60.649 89.75 59.438 C89.775 54.748 90.999 51.596 94 48 C100.485 42.177 106.054 41.71 114.613 41.777 C119.412 42.093 123.518 43.335 128 45 C128.732 45.228 129.464 45.456 130.219 45.691 C134.982 47.247 137.546 49.266 141 53 C142.392 53.835 142.392 53.835 143.812 54.688 C144.534 55.121 145.256 55.554 146 56 C146 56.66 146 57.32 146 58 C146.681 58.165 147.361 58.33 148.062 58.5 C154.992 62.038 159.231 69.573 163.422 75.898 C164.996 78.238 164.996 78.238 168 80 C170.138 83.753 171.75 87.696 172.562 91.938 C172.832 94.393 172.832 94.393 176 96 C176.688 99.625 176.688 99.625 177 103 C179.916 103.25 179.916 103.25 183 103 C183.99 101.515 183.99 101.515 185 100 C185.859 102.637 185.859 102.637 186 106 C184.123 108.303 182.498 109.943 180.25 111.812 C179.366 112.587 179.366 112.587 178.463 113.377 C176.661 114.942 174.837 116.476 173 118 C172.46 118.449 171.921 118.898 171.365 119.361 C169.041 121.285 166.703 123.187 164.34 125.062 C162.085 126.93 160.034 128.896 158 131 C157.34 130.67 156.68 130.34 156 130 C157.062 128.938 158.125 127.875 159.188 126.812 C159.824 126.172 160.461 125.531 161.117 124.871 C162.654 123.344 164.228 121.854 165.812 120.375 C170.598 115.179 170.813 108.987 170.566 102.184 C169.166 87.21 156.57 73.498 145.816 64.141 C137.19 57.584 127.568 51.757 116.5 51.625 C115.417 51.597 114.334 51.568 113.219 51.539 C105.764 52.607 101.25 58.642 96.438 63.938 C95.145 65.343 93.852 66.748 92.559 68.152 C91.951 68.816 91.344 69.48 90.719 70.164 C89.219 71.766 87.68 73.291 86.094 74.805 C83.172 77.869 83.069 79.792 83 84 C83.916 97.108 91.648 108.373 100 118 C100.614 118.813 101.227 119.627 101.859 120.465 C109.684 129.732 121.557 137.374 133.625 139 C140.363 139.337 145.598 137.716 151.062 133.812 C151.702 133.214 152.341 132.616 153 132 C153.66 132.33 154.32 132.66 155 133 C150.527 137.58 145.976 141.986 141.121 146.16 C138.775 148.195 136.483 150.283 134.188 152.375 C129.929 156.219 125.538 159.855 121.078 163.461 C116.689 167.082 112.406 170.822 108.126 174.571 C106.425 176.057 104.715 177.531 103 179 C102.256 179.642 101.512 180.284 100.746 180.945 C100.17 181.293 99.594 181.641 99 182 C98.01 181.67 97.02 181.34 96 181 C96.016 180.344 96.031 179.688 96.048 179.012 C96.11 176.05 96.149 173.088 96.188 170.125 C96.213 169.092 96.238 168.06 96.264 166.996 C96.273 166.01 96.283 165.024 96.293 164.008 C96.309 163.097 96.324 162.185 96.341 161.247 C96.228 160.505 96.116 159.764 96 159 C92.62 156.747 90.475 156.457 86.488 155.812 C76.944 154.082 68.177 150.552 59.188 147 C42.968 139.204 42.968 139.204 26 138 C23.901 139.198 23.901 139.198 22 140.75 C21.316 141.285 20.631 141.82 19.926 142.371 C17.791 144.131 17.791 144.131 15.188 146.812 C13 149 13 149 10 150 C7.604 149.314 5.351 148.556 3.027 147.676 C2.324 147.418 1.62 147.16 0.896 146.895 C-1.427 146.043 -3.745 145.178 -6.062 144.312 C-9.319 143.111 -12.578 141.915 -15.836 140.719 C-16.67 140.411 -17.504 140.104 -18.364 139.787 C-24.194 137.644 -30.045 135.567 -35.914 133.531 C-36.7 133.258 -37.487 132.984 -38.297 132.702 C-41.345 131.643 -44.394 130.584 -47.446 129.539 C-49.543 128.82 -51.637 128.092 -53.73 127.363 C-55.516 126.749 -55.516 126.749 -57.337 126.122 C-60 125 -60 125 -61 123 C-60.333 121.667 -59.667 120.333 -59 119 C-57.824 113.945 -56.595 106.81 -59 102 C-59.538 95.473 -58.91 88.926 -58.188 82.438 C-58.117 81.735 -58.047 81.032 -57.975 80.308 C-57.73 78.309 -57.73 78.309 -57 75 C-55.515 74.01 -55.515 74.01 -54 73 C-54 72.01 -54 71.02 -54 70 C-53.475 70.144 -52.951 70.289 -52.41 70.438 C-41.768 72.987 -27.998 74.25 -18 69 C-12.836 65.803 -9.573 60.809 -6 56 C-5.346 55.162 -4.693 54.324 -4.02 53.461 C5.379 41.217 5.379 41.217 9.562 26.75 C9.377 25.512 9.191 24.275 9 23 C8.879 22.166 8.758 21.332 8.633 20.473 C7.854 15.818 7.029 11.756 4 8 C3.01 7.67 2.02 7.34 1 7 C0.505 3.535 0.505 3.535 0 0 Z " fill="#000001" transform="translate(239,201)"/>
  <ns0:path d="M0 0 C9.859 3.322 19.296 8.351 28.688 12.812 C30.275 13.564 31.863 14.316 33.451 15.067 C44.688 20.393 55.882 25.807 67.061 31.254 C77.539 36.358 88.075 41.316 98.659 46.197 C110.808 51.811 122.858 57.622 134.887 63.487 C137.606 64.809 140.332 66.115 143.062 67.414 C154.255 72.784 165.1 78.561 169.695 90.86 C170.395 92.994 171.048 95.136 171.684 97.289 C171.91 98.041 172.136 98.793 172.369 99.568 C173.304 102.708 174.231 105.846 175.071 109.013 C177.538 119.078 177.538 119.078 184.289 126.419 C187.439 128.023 190.707 129.202 194.058 130.316 C197.102 131.388 199.942 132.835 202.828 134.273 C203.894 134.788 204.96 135.302 206.059 135.832 C208.233 136.883 210.408 137.936 212.582 138.988 C213.633 139.495 214.683 140.001 215.766 140.523 C217.17 141.203 217.17 141.203 218.603 141.896 C221.061 143.081 221.061 143.081 224 144 C224 144.99 224 145.98 224 147 C225.114 147.083 226.228 147.165 227.375 147.25 C228.571 147.498 229.767 147.745 231 148 C231.325 148.666 231.65 149.333 231.984 150.02 C232.32 150.673 232.655 151.327 233 152 C235.095 152.237 237.193 152.46 239.297 152.609 C246.569 153.66 254.287 157.133 259.664 162.195 C263.287 167.09 264.18 173.047 264 179 C259.832 178.479 256.692 176.928 253.062 174.938 C250.732 173.878 248.518 173.42 246 173 C246.595 175.544 247.201 178.085 247.812 180.625 C248.061 181.694 248.061 181.694 248.314 182.785 C249.388 187.203 250.803 190.982 253 195 C254.865 198.823 255.176 200.885 254 205 C252.02 204.67 250.04 204.34 248 204 C247.732 202.886 247.464 201.773 247.188 200.625 C246.342 196.782 246.342 196.782 243 195 C242 192.375 242 192.375 241 189 C239.255 183.322 237.433 180.124 233 176 C231.978 174.684 230.979 173.349 230 172 C228.181 169.502 226.36 167.259 224.125 165.125 C223.424 164.424 222.723 163.722 222 163 C222 162.34 222 161.68 222 161 C220.35 160.34 218.7 159.68 217 159 C217 158.34 217 157.68 217 157 C216.278 156.752 215.556 156.505 214.812 156.25 C211.724 154.877 209.49 153.276 207 151 C207 150.34 207 149.68 207 149 C205.484 148.845 205.484 148.845 203.938 148.688 C199.893 147.981 196.725 146.687 193 145 C186.642 142.972 178.109 142.719 171.938 145.375 C170.968 145.911 169.999 146.447 169 147 C168.237 147.309 167.474 147.619 166.688 147.938 C164.456 149.343 164.022 150.572 163 153 C162.569 154.905 162.196 156.824 161.875 158.75 C161.624 160.227 161.624 160.227 161.367 161.734 C161.246 162.482 161.125 163.23 161 164 C154.784 163.459 149.71 161.437 144 159 C143.001 158.593 142.002 158.185 140.973 157.766 C136.594 155.977 132.257 154.19 128.062 152 C124.963 150.407 121.83 149.15 118.562 147.938 C111.545 145.293 104.682 142.318 97.812 139.312 C96.689 138.825 95.565 138.337 94.406 137.834 C93.351 137.369 92.295 136.904 91.207 136.426 C89.776 135.798 89.776 135.798 88.316 135.157 C86 134 86 134 84 132 C83.475 129.828 83.028 127.636 82.625 125.438 C78.936 107.797 67.596 94.145 52.941 83.852 C40.867 76.053 27.623 70.595 13.125 70.625 C11.944 70.626 11.944 70.626 10.74 70.628 C4.498 70.754 -0.515 71.917 -6 75 C-6.99 75.516 -7.98 76.031 -9 76.562 C-11.26 78.009 -11.26 78.009 -13 81 C-13.66 81 -14.32 81 -15 81 C-15.289 81.743 -15.577 82.485 -15.875 83.25 C-16.432 84.611 -16.432 84.611 -17 86 C-17.289 86.743 -17.577 87.485 -17.875 88.25 C-19 90 -19 90 -20.688 90.938 C-24.27 91.034 -26.788 89.544 -30 88 C-29.346 82.93 -27.145 78.58 -25 74 C-21.535 74.495 -21.535 74.495 -18 75 C-17.34 69.39 -16.68 63.78 -16 58 C-17.629 57.381 -19.259 56.762 -20.938 56.125 C-25.875 54.25 -25.875 54.25 -27 52 C-29.277 51.125 -29.277 51.125 -31.938 50.438 C-36.858 49.071 -36.858 49.071 -39 48 C-37.216 43.04 -34.669 38.537 -32.125 33.938 C-31.645 33.07 -31.166 32.203 -30.672 31.309 C-27.05 24.804 -23.35 18.348 -19.562 11.938 C-19.067 11.087 -18.572 10.237 -18.061 9.361 C-17.352 8.175 -17.352 8.175 -16.629 6.965 C-16.217 6.27 -15.805 5.575 -15.381 4.859 C-11.155 -0.83 -6.584 -0.852 0 0 Z M4.203 17.664 C2.895 20.203 1.754 22.7 0.75 25.375 C0.394 26.29 0.038 27.205 -0.328 28.148 C-1.182 31.772 -1.42 33.51 0 37 C2.926 39.156 6.177 40.498 9.5 41.938 C10.5 42.392 11.5 42.847 12.531 43.315 C14.767 44.329 17.008 45.333 19.253 46.329 C23.325 48.137 27.369 50.003 31.414 51.871 C34.317 53.207 37.221 54.542 40.125 55.875 C40.818 56.193 41.511 56.512 42.225 56.84 C51.045 60.882 59.893 64.64 69 68 C72.435 64.565 71.369 59.719 71.375 55.062 C71.412 53.54 71.412 53.54 71.449 51.986 C71.453 51.012 71.457 50.039 71.461 49.035 C71.469 48.142 71.477 47.249 71.486 46.328 C71.203 43.894 71.203 43.894 69.321 42.355 C66.731 40.843 64.125 39.536 61.398 38.285 C60.28 37.769 59.162 37.253 58.01 36.721 C56.811 36.174 55.611 35.627 54.375 35.062 C52.491 34.199 50.607 33.335 48.723 32.471 C47.429 31.878 46.136 31.285 44.841 30.693 C41.019 28.941 37.212 27.158 33.419 25.342 C31.642 24.49 29.862 23.645 28.083 22.801 C25.864 21.746 23.65 20.682 21.441 19.608 C12.73 15.013 12.73 15.013 4.203 17.664 Z M-6 43 C-7.456 45.312 -8 46.743 -8 49.5 C-6.574 53.066 -4.266 54.294 -1 56 C0.286 56.673 0.286 56.673 1.598 57.359 C6.863 59.938 11.108 62.003 17 61 C19.225 58.263 19.225 58.263 19 55.562 C17.22 51 12.733 49.356 8.492 47.297 C7.299 46.786 6.105 46.276 4.875 45.75 C3.676 45.229 2.477 44.708 1.242 44.172 C-2.052 42.773 -2.052 42.773 -6 43 Z M98 58 C95.442 61.837 95.877 63.758 96.188 68.312 C96.264 69.608 96.34 70.904 96.418 72.238 C97.117 76.756 97.822 80.366 101.645 83.234 C106.426 86.175 111.264 88.646 116.41 90.883 C117.181 91.224 117.952 91.565 118.747 91.916 C121.183 92.991 123.623 94.058 126.062 95.125 C127.701 95.847 129.34 96.57 130.979 97.293 C134.664 98.917 138.349 100.541 142.043 102.145 C143.355 102.718 144.662 103.3 145.965 103.892 C148.833 105.175 150.818 106 154 106 C153.462 92.265 153.462 92.265 148 80 C145.195 78.131 145.195 78.131 141.688 76.562 C141.024 76.245 140.36 75.928 139.677 75.602 C138.096 74.85 136.512 74.106 134.925 73.368 C132.082 72.039 129.251 70.688 126.42 69.333 C123.715 68.039 121.007 66.754 118.297 65.47 C116.935 64.825 115.573 64.177 114.212 63.527 C112.275 62.604 110.334 61.691 108.391 60.781 C107.257 60.246 106.123 59.71 104.954 59.158 C101.908 57.757 101.908 57.757 98 58 Z M101 90 C100.331 93.287 100.331 93.287 101 97 C103.277 99.35 106.076 100.592 109 102 C110.061 102.53 111.122 103.06 112.215 103.605 C117.502 106.155 122.135 108.26 128 109 C128.418 105.668 128.418 105.668 128 102 C124.123 98.161 119.385 96.028 114.5 93.75 C113.754 93.386 113.007 93.023 112.238 92.648 C108.373 90.829 105.377 89.479 101 90 Z " fill="#0058B4" transform="translate(168,100)"/>
  <ns0:path d="M0 0 C3.514 0.711 6.553 1.046 10.125 0.812 C15.581 0.645 20.073 3.061 24.562 6 C25.058 6.99 25.058 6.99 25.562 8 C27.202 8.65 27.202 8.65 28.875 9.312 C32.57 10.79 34.182 12.799 36.562 16 C37.88 16.697 39.212 17.37 40.562 18 C42.562 21 42.562 21 42.562 24 C44.542 24.66 46.523 25.32 48.562 26 C48.893 28.31 49.222 30.62 49.562 33 C50.177 33.095 50.792 33.191 51.426 33.289 C53.562 34 53.562 34 54.793 35.461 C58.412 42.699 59.794 51.103 57.562 59 C56.322 62.046 54.98 65.032 53.562 68 C52.468 64.551 52.619 61.593 52.812 58 C52.881 45.768 46.29 34.08 38.02 25.301 C25.427 13.418 10.243 5.574 -7.312 5.789 C-17.574 6.482 -26.029 11.087 -33 18.562 C-39.874 26.95 -46.221 35.384 -45.203 46.578 C-43.091 61.698 -32.967 75.383 -21.438 85 C-15.734 88.933 -9.968 92.593 -3.438 95 C-5.188 99.875 -5.188 99.875 -7.438 101 C-7.928 103.461 -8.286 105.825 -8.562 108.312 C-8.647 109.029 -8.732 109.745 -8.82 110.482 C-9.504 116.663 -9.649 122.784 -9.438 129 C-11.418 129 -13.397 129 -15.438 129 C-15.726 129.99 -16.015 130.98 -16.312 132 C-16.475 132.557 -16.637 133.114 -16.805 133.688 C-17.465 135.911 -17.465 135.911 -17.708 137.886 C-18.447 142.169 -18.975 143.629 -22.5 146.453 C-23.791 147.098 -25.106 147.695 -26.438 148.25 C-27.489 148.701 -27.489 148.701 -28.562 149.162 C-38.403 152.782 -47.812 149.189 -57.152 145.555 C-68.776 140.054 -75.21 130.377 -80.438 119 C-75.688 115 -75.688 115 -73.438 115 C-73.535 112.079 -73.618 109.766 -74.438 107 C-77.456 104.384 -80.401 102.432 -84.438 102 C-85.427 102.495 -85.427 102.495 -86.438 103 C-86.759 97.105 -86.085 91.775 -84.938 86 C-83.571 79.072 -83.183 72.498 -83.461 65.445 C-83.584 61.674 -83.598 60.241 -81.438 57 C-80.778 57 -80.118 57 -79.438 57 C-79.417 56.072 -79.396 55.144 -79.375 54.188 C-78.694 49.351 -76.002 45.873 -73.332 41.887 C-71.548 39.169 -69.971 36.427 -68.438 33.562 C-67.95 32.67 -67.463 31.778 -66.961 30.859 C-65.867 28.806 -64.814 26.73 -63.789 24.641 C-59.539 16.448 -59.539 16.448 -56.496 15.211 C-54.339 15.186 -52.534 15.501 -50.438 16 C-49.022 16.178 -47.605 16.345 -46.188 16.5 C-44.95 16.665 -43.713 16.83 -42.438 17 C-41.118 17 -39.798 17 -38.438 17 C-38.438 14.36 -38.438 11.72 -38.438 9 C-37.798 8.897 -37.159 8.794 -36.5 8.688 C-35.819 8.461 -35.139 8.234 -34.438 8 C-34.108 7.01 -33.778 6.02 -33.438 5 C-32.778 4.67 -32.118 4.34 -31.438 4 C-31.108 3.01 -30.778 2.02 -30.438 1 C-27.771 0.661 -25.105 0.328 -22.438 0 C-21.322 -0.143 -21.322 -0.143 -20.184 -0.289 C-13.328 -1.124 -6.808 -1.492 0 0 Z " fill="#000000" transform="translate(190.4375,175)"/>
  <ns0:path d="M0 0 C1.751 1.517 3.482 3.057 5.188 4.625 C5.835 5.217 6.482 5.808 7.148 6.418 C14.752 14.211 21.285 26.963 21.438 37.812 C21.463 38.899 21.489 39.986 21.516 41.105 C20.751 49.303 17.063 54.613 11.812 60.75 C10.966 61.765 10.966 61.765 10.102 62.801 C8.992 64.128 7.877 65.451 6.755 66.768 C5.753 67.955 4.766 69.155 3.8 70.371 C-1.317 76.793 -6.966 78.643 -15 79.562 C-32.4 80.374 -46.441 72.856 -59.086 61.602 C-68.982 52.246 -77.904 39.836 -78.836 25.832 C-78.708 13.741 -71.166 4.373 -63.203 -4.145 C-44.466 -21.626 -18.402 -14.586 0 0 Z M-38.688 6.875 C-40.838 10.219 -41.175 13.695 -40.445 17.578 C-37.64 26.375 -30.455 32.834 -22.812 37.625 C-17.698 40.071 -12.389 40.23 -6.812 39.625 C-3.823 38.379 -2.42 37.435 -0.5 34.875 C1.065 29.754 0.518 24.743 -1.512 19.809 C-5.752 12.69 -12.797 6.099 -20.812 3.625 C-27.958 1.863 -32.542 2.778 -38.688 6.875 Z " fill="#262D35" transform="translate(222.8125,194.375)"/>
  <ns0:path d="M0 0 C0.619 0.317 1.239 0.634 1.877 0.961 C4.479 2.317 6.602 3.539 8.688 5.625 C9.193 11.489 8.604 16.435 5.688 21.625 C1.587 25.625 1.587 25.625 -1.312 25.625 C-1.586 26.351 -1.86 27.076 -2.142 27.823 C-3.27 30.523 -4.556 32.932 -6.043 35.449 C-6.591 36.382 -7.139 37.314 -7.703 38.275 C-8.296 39.278 -8.889 40.28 -9.5 41.312 C-10.775 43.483 -12.05 45.653 -13.324 47.824 C-13.983 48.946 -14.643 50.068 -15.322 51.224 C-18.513 56.675 -21.662 62.15 -24.812 67.625 C-29.705 76.119 -34.621 84.598 -39.562 93.062 C-40.134 94.045 -40.706 95.028 -41.296 96.041 C-44.035 100.745 -46.793 105.436 -49.598 110.102 C-50.11 110.962 -50.622 111.823 -51.149 112.709 C-52.099 114.304 -53.057 115.893 -54.026 117.476 C-56.664 121.931 -57.752 125.398 -58.312 130.625 C-60.313 132.625 -60.313 132.625 -63.25 133 C-69.905 132.791 -76.206 130.124 -81.562 126.312 C-83.949 122.647 -83.13 120.854 -82.312 116.625 C-78.978 102.948 -72 90.893 -65.312 78.625 C-64.823 77.724 -64.334 76.822 -63.83 75.894 C-61.404 71.425 -58.965 66.962 -56.52 62.504 C-53.192 56.424 -49.925 50.312 -46.661 44.198 C-34.752 21.899 -34.752 21.899 -29.353 12.448 C-28.357 10.703 -27.375 8.949 -26.395 7.195 C-21.798 -0.619 -21.798 -0.619 -17.812 -2.562 C-10.91 -4.165 -6.167 -3.339 0 0 Z " fill="#8A8C8E" transform="translate(133.3125,163.375)"/>
  <ns0:path d="M0 0 C18.151 8.512 33.348 23.514 41.188 42.105 C43.1 49.065 43.478 57.5 40.75 64.312 C35.026 73.642 23.549 82.273 13.625 86.5 C2.119 88.285 -7.372 84.343 -16.729 77.865 C-32.078 66.528 -44.095 50.194 -47.102 31.098 C-46.921 25.687 -45.025 22.14 -41.328 18.254 C-40.312 17.367 -39.285 16.491 -38.25 15.625 C-34.616 12.459 -31.218 9.342 -28.125 5.625 C-20.29 -3.46 -11.106 -4.242 0 0 Z M-9.562 17.125 C-11.972 22.049 -11.347 25.653 -10.062 30.875 C-6.938 38.45 -0.152 45.246 6.957 49.219 C10.618 50.731 14.043 51.409 18 51.062 C21.245 49.983 21.245 49.983 23 47.062 C24.428 40.585 22.779 35.125 19.613 29.453 C15.259 23.001 9.595 17.357 2 15.062 C-2.681 14.25 -5.778 14.079 -9.562 17.125 Z " fill="#252C35" transform="translate(368,253.9375)"/>
  <ns0:path d="M0 0 C6.209 0.07 11.867 2.257 17.188 5.375 C22.383 10.878 24.177 17.629 24.812 25.062 C24.657 28.607 23.823 30.322 21.375 32.875 C20.004 34.071 18.606 35.236 17.188 36.375 C16.423 37.016 15.659 37.656 14.871 38.316 C12.565 40.229 10.237 42.113 7.902 43.99 C4.521 46.721 1.168 49.487 -2.188 52.25 C-2.917 52.85 -3.647 53.451 -4.398 54.069 C-9.392 58.186 -14.346 62.347 -19.276 66.538 C-25.274 71.63 -31.38 76.585 -37.484 81.547 C-41.406 84.743 -45.321 87.938 -49.148 91.246 C-49.716 91.735 -50.284 92.224 -50.87 92.727 C-51.962 93.67 -53.051 94.617 -54.134 95.57 C-59.986 100.611 -65.221 104.098 -73.18 103.77 C-78.895 102.913 -85.074 101.004 -88.812 96.375 C-89.312 93.5 -89.312 93.5 -88.812 90.375 C-87.203 88.39 -85.745 87.007 -83.812 85.375 C-83.096 84.716 -82.379 84.058 -81.641 83.379 C-77.33 79.419 -72.927 75.617 -68.375 71.938 C-63.544 68.028 -58.941 63.92 -54.367 59.715 C-52.186 57.717 -49.982 55.754 -47.75 53.812 C-42.209 48.994 -36.762 44.069 -31.34 39.117 C-27.087 35.248 -22.781 31.495 -18.312 27.875 C-17.411 27.127 -16.51 26.38 -15.582 25.609 C-13.711 24.1 -11.788 22.652 -9.824 21.266 C-6.968 19.101 -4.808 17.359 -2.812 14.375 C-2.623 9.758 -3.645 5.809 -4.812 1.375 C-3.812 0.375 -3.812 0.375 0 0 Z " fill="#898B8D" transform="translate(426.8125,292.625)"/>
  <ns0:path d="M0 0 C8.94 3.61 8.94 3.61 11 6 C11.808 11.09 11.808 11.09 11 14 C8 16.5 8 16.5 5 18 C5.933 19.752 6.872 21.502 7.812 23.25 C8.335 24.225 8.857 25.199 9.395 26.203 C10.908 28.978 10.908 28.978 12.699 31.234 C14 33 14 33 14 35 C14.601 35.271 15.201 35.541 15.82 35.82 C17.976 36.987 19.195 38.122 20.875 39.875 C26.036 44.416 32.465 45.461 39 47 C39.955 47.296 40.91 47.593 41.895 47.898 C49.238 49.898 53.735 47.89 60.348 44.383 C63 43 63 43 65 43 C65.182 41.519 65.182 41.519 65.367 40.008 C65.535 38.726 65.702 37.445 65.875 36.125 C66.037 34.849 66.2 33.573 66.367 32.258 C67 29 67 29 69 27 C74.568 27.568 74.568 27.568 76 29 C76.168 30.785 76.168 30.785 76.188 33.062 C76.202 33.796 76.216 34.529 76.23 35.285 C75.627 42.393 73.676 47.282 69.438 52.875 C68.771 53.773 68.771 53.773 68.092 54.689 C54.797 72.374 54.797 72.374 43 74.555 C30.031 76.082 17.786 72.856 7.455 64.794 C-3.871 55.468 -11.097 45.553 -13.348 30.707 C-13.861 19.518 -6.757 9.99 -1 1 C-0.67 0.67 -0.34 0.34 0 0 Z " fill="#20252A" transform="translate(106,276)"/>
  <ns0:path d="M0 0 C11.815 2.664 22.841 6.38 34.075 10.866 C42.648 14.273 50.743 16.804 59.888 18.162 C63.421 19.113 64.813 20.1 67 23 C67.461 26.461 67.461 26.461 67.375 30.375 C67.362 31.661 67.349 32.948 67.336 34.273 C67.012 37.862 66.422 40.696 65 44 C62.875 44.875 62.875 44.875 61 45 C61.495 46.98 61.495 46.98 62 49 C60.188 50.062 60.188 50.062 58 51 C57.01 50.67 56.02 50.34 55 50 C54.67 50.99 54.34 51.98 54 53 C39.909 53 26.757 47.9 16.625 38.125 C7.889 29.388 2.216 19.441 1 7 C0.671 4.666 0.338 2.333 0 0 Z " fill="#0D0E10" transform="translate(269,338)"/>
  <ns0:path d="M0 0 C4.253 0.357 7.425 1.596 11.182 3.47 C12.211 3.963 12.211 3.963 13.261 4.465 C15.479 5.53 17.688 6.613 19.897 7.697 C22.186 8.802 24.477 9.902 26.768 11.003 C28.292 11.735 29.815 12.47 31.337 13.205 C38.68 16.751 46.102 20.106 53.561 23.401 C54.373 23.764 55.185 24.127 56.022 24.501 C56.717 24.808 57.411 25.115 58.127 25.431 C59.834 26.322 59.834 26.322 61.834 28.322 C62.287 31.969 62.158 35.649 62.147 39.322 C62.163 40.345 62.179 41.369 62.196 42.423 C62.196 43.4 62.197 44.378 62.198 45.384 C62.2 46.283 62.203 47.181 62.207 48.107 C62.084 48.838 61.961 49.569 61.834 50.322 C60.844 50.982 59.854 51.642 58.834 52.322 C56.322 51.487 54.112 50.576 51.737 49.443 C51.031 49.12 50.325 48.796 49.598 48.463 C48.098 47.775 46.6 47.081 45.105 46.382 C42.916 45.36 40.72 44.359 38.518 43.365 C34.876 41.721 31.24 40.062 27.607 38.397 C24.667 37.05 21.725 35.707 18.784 34.364 C16.605 33.365 14.431 32.355 12.257 31.346 C9.188 29.926 6.097 28.572 2.986 27.247 C2.201 26.903 1.415 26.559 0.606 26.204 C-0.897 25.545 -2.408 24.904 -3.927 24.283 C-5.967 23.374 -5.967 23.374 -9.166 21.322 C-10.829 16.399 -9.786 13.298 -7.853 8.572 C-7.403 7.443 -6.954 6.313 -6.49 5.15 C-4.736 1.405 -4.19 0.426 0 0 Z " fill="#232333" transform="translate(177.165771484375,115.67822265625)"/>
  <ns0:path d="M0 0 C1.386 0.685 2.772 1.37 4.16 2.052 C6.932 3.418 9.701 4.789 12.469 6.163 C17.599 8.705 22.766 11.169 27.938 13.625 C34.031 16.529 40.117 19.449 46.191 22.395 C58.189 28.213 70.205 33.974 82.312 39.562 C91.685 43.899 101.049 48.253 110.37 52.7 C111.652 53.31 112.935 53.918 114.22 54.522 C116.005 55.362 117.784 56.214 119.562 57.066 C120.578 57.549 121.594 58.032 122.641 58.53 C125.408 60.117 127.307 61.583 129.312 64.062 C129.562 67.812 129.562 67.812 129.312 71.062 C124.595 69.604 120.192 67.695 115.75 65.562 C115.019 65.215 114.287 64.867 113.534 64.509 C111.125 63.364 108.719 62.213 106.312 61.062 C104.612 60.252 102.911 59.443 101.21 58.633 C98.567 57.375 95.923 56.117 93.281 54.857 C87.363 52.036 81.44 49.228 75.512 46.43 C60.366 39.279 45.246 32.084 30.188 24.75 C19.747 19.667 9.277 14.652 -1.25 9.75 C-2.392 9.217 -3.533 8.683 -4.709 8.134 C-15.401 2.717 -15.401 2.717 -27 0.812 C-28.232 0.836 -28.232 0.836 -29.488 0.859 C-31.863 0.995 -31.863 0.995 -34.688 2.062 C-34.383 -1.489 -33.712 -2.909 -31.375 -5.688 C-22.073 -13.475 -9.098 -4.572 0 0 Z " fill="#717375" transform="translate(189.6875,99.9375)"/>
  <ns0:path d="M0 0 C1.32 0.33 2.64 0.66 4 1 C4.11 1.918 4.219 2.836 4.332 3.781 C6.547 20.928 13.215 33.907 27 45 C30.878 47.175 34.772 48.653 39 50 C39.891 50.327 40.781 50.655 41.699 50.992 C48.638 53.394 53.931 53.062 61 51 C61 54 61 54 58.84 56.375 C50.772 63.672 45.434 67.682 34.117 67.344 C21.189 65.918 10.216 57.719 2 48 C-4.46 39.32 -9.899 29.593 -9.387 18.48 C-8.239 11.119 -5.07 5.351 0 0 Z " fill="#24292F" transform="translate(266,337)"/>
  <ns0:path d="M0 0 C4.488 0.573 8.06 1.739 12.148 3.66 C13.894 4.474 13.894 4.474 15.674 5.304 C16.908 5.89 18.142 6.476 19.375 7.062 C20.637 7.659 21.9 8.256 23.162 8.852 C25.646 10.027 28.128 11.208 30.608 12.392 C33.48 13.754 36.363 15.083 39.258 16.395 C40.672 17.054 42.086 17.714 43.5 18.375 C45.279 19.191 45.279 19.191 47.094 20.023 C51.878 23.277 53.54 27.017 54.828 32.57 C54.967 33.743 55.107 34.916 55.25 36.125 C55.4 37.303 55.549 38.481 55.703 39.695 C55.954 42.492 56.063 45.196 56 48 C50.672 47.415 46.46 45.609 41.672 43.359 C40.883 42.995 40.094 42.631 39.281 42.256 C36.767 41.094 34.259 39.922 31.75 38.75 C30.08 37.977 28.409 37.205 26.738 36.434 C22.82 34.621 18.91 32.79 15.007 30.945 C13.243 30.115 11.475 29.296 9.705 28.479 C8.818 28.058 7.93 27.637 7.016 27.203 C6.291 26.864 5.567 26.526 4.821 26.177 C1.569 24.076 0.207 21.621 -1 18 C-1.279 15.494 -1.508 13.013 -1.688 10.5 C-1.747 9.823 -1.807 9.146 -1.869 8.449 C-2.143 4.648 -2.179 3.269 0 0 Z " fill="#1F1F2F" transform="translate(266,158)"/>
  <ns0:path d="M0 0 C6.202 5.23 11.156 9.965 13 18 C13.348 22.176 13.58 25.56 11 29 C7.191 32.333 3.48 32.517 -1.383 32.344 C-10.875 31.097 -17.637 24.821 -23.875 18 C-27.053 13.514 -28 9.845 -28 4.375 C-26.632 -0.242 -24.98 -1.347 -21 -4 C-13.813 -6.396 -6.033 -4.241 0 0 Z " fill="#85888E" transform="translate(210,202)"/>
  <ns0:path d="M0 0 C7.862 1.364 13.458 6.344 18.363 12.41 C22.178 18.063 24.259 23.38 23.836 30.266 C23.363 32.41 23.363 32.41 21.426 35.098 C17.048 36.974 13.893 36.785 9.363 35.41 C1.33 31.564 -6.192 24.592 -9.637 16.285 C-11.148 11.316 -11.533 7.242 -9.199 2.473 C-5.965 -0.13 -4.063 -0.259 0 0 Z " fill="#82878D" transform="translate(367.63671875,268.58984375)"/>
  <ns0:path d="M0 0 C5.561 -0.36 9.446 0.702 14.348 3.148 C15.377 3.641 15.377 3.641 16.427 4.144 C18.645 5.209 20.853 6.292 23.062 7.375 C25.352 8.48 27.643 9.581 29.934 10.681 C31.458 11.414 32.981 12.148 34.503 12.884 C41.846 16.429 49.268 19.785 56.727 23.08 C57.539 23.443 58.351 23.806 59.188 24.18 C59.882 24.486 60.577 24.793 61.293 25.109 C63 26 63 26 65 28 C65.125 30.625 65.125 30.625 65 33 C63.02 32.34 61.04 31.68 59 31 C59 30.34 59 29.68 59 29 C58.01 28.752 57.02 28.505 56 28.25 C52.462 27.243 49.393 25.753 46.141 24.059 C43.941 22.971 41.726 22.07 39.438 21.188 C32.474 18.459 25.754 15.202 19 12 C16.678 10.9 14.356 9.801 12.033 8.704 C10.537 7.997 9.041 7.288 7.547 6.577 C4.722 5.241 1.968 3.989 -1 3 C-0.67 2.01 -0.34 1.02 0 0 Z " fill="#05060F" transform="translate(174,116)"/>
  <ns0:path d="M0 0 C4.488 0.573 8.06 1.739 12.148 3.66 C13.894 4.474 13.894 4.474 15.674 5.304 C16.908 5.89 18.142 6.476 19.375 7.062 C20.637 7.659 21.9 8.256 23.162 8.852 C25.646 10.027 28.128 11.208 30.608 12.392 C33.48 13.754 36.363 15.083 39.258 16.395 C40.672 17.054 42.086 17.714 43.5 18.375 C45.279 19.191 45.279 19.191 47.094 20.023 C50.905 22.615 52.081 24.833 54 29 C53.75 31.438 53.75 31.438 53 33 C53 32.01 53 31.02 53 30 C52.34 30 51.68 30 51 30 C50.398 29.392 49.796 28.784 49.177 28.157 C46.918 25.918 45.042 24.821 42.176 23.484 C41.237 23.042 40.299 22.599 39.332 22.142 C38.336 21.683 37.339 21.223 36.312 20.75 C35.288 20.271 34.264 19.791 33.209 19.297 C31.128 18.323 29.046 17.353 26.963 16.385 C24.292 15.137 21.636 13.864 18.984 12.574 C18.231 12.21 17.478 11.847 16.702 11.472 C15.326 10.807 13.952 10.137 12.581 9.462 C8.133 7.336 3.815 6.072 -1 5 C-0.67 3.35 -0.34 1.7 0 0 Z " fill="#050711" transform="translate(266,158)"/>
  <ns0:path d="M0 0 C5.162 0.466 9.5 2.252 14.188 4.312 C14.898 4.608 15.609 4.904 16.342 5.209 C20.145 6.866 23.019 8.146 25 12 C24.59 16.41 24.59 16.41 23 18 C16.819 18.619 12.972 16.956 7.688 14.125 C6.973 13.76 6.258 13.395 5.521 13.02 C2.698 11.556 0.262 10.262 -2 8 C-1.423 1.423 -1.423 1.423 0 0 Z " fill="#00A5DE" transform="translate(162,143)"/>
  <ns0:path d="M0 0 C2.438 1.562 2.438 1.562 4 4 C4.693 7.836 4.476 10.942 2.875 14.5 C0.216 16.627 -1.661 16.2 -5 16 C-5.866 16.248 -6.733 16.495 -7.625 16.75 C-10 17 -10 17 -12.25 15.438 C-14.381 12.469 -14.925 10.651 -15 7 C-13.694 3.881 -12.341 2.284 -9.75 0.125 C-6.036 -1.394 -3.843 -1.048 0 0 Z " fill="#74767A" transform="translate(403,225)"/>
  <ns0:path d="M0 0 C5.903 0.515 10.448 2.293 15.75 4.875 C16.504 5.227 17.258 5.579 18.035 5.941 C24.723 9.137 24.723 9.137 27 12 C27.188 15.688 27.188 15.688 27 19 C20.303 17.877 14.91 15.737 9 12.438 C8.238 12.026 7.476 11.614 6.691 11.189 C1.198 8.198 1.198 8.198 0 7 C-0.041 4.667 -0.042 2.333 0 0 Z " fill="#009AD2" transform="translate(269,190)"/>
  <ns0:path d="M0 0 C1.654 0.537 3.298 1.106 4.938 1.688 C5.854 2.001 6.771 2.314 7.715 2.637 C10 4 10 4 10.906 6.219 C11.022 9.643 10.401 12.493 9.562 15.812 C9.275 16.974 8.988 18.135 8.691 19.332 C8.463 20.212 8.235 21.093 8 22 C4.688 21.938 4.688 21.938 1 21 C-0.875 17.625 -0.875 17.625 -2 14 C-2.33 13.01 -2.66 12.02 -3 11 C-2.695 8.555 -2.695 8.555 -2.125 5.875 C-1.942 4.986 -1.759 4.096 -1.57 3.18 C-1 1 -1 1 0 0 Z " fill="#F2F3F2" transform="translate(142,153)"/>
  <ns0:path d="M0 0 C1.626 0.477 3.251 0.957 4.875 1.438 C5.78 1.704 6.685 1.971 7.617 2.246 C10 3 10 3 12 4 C12.212 9.192 11.591 13.127 10 18 C4.281 16.145 -1.356 14.069 -7 12 C-5.277 7.338 -2.956 3.967 0 0 Z " fill="#F49C06" transform="translate(129,148)"/>
  <ns0:path d="M0 0 C6.596 1.099 6.596 1.099 9 3 C9.946 5.763 10.653 8.29 11.25 11.125 C11.423 11.879 11.595 12.633 11.773 13.41 C12.197 15.27 12.601 17.135 13 19 C10.178 19.862 8.598 20.246 5.828 19.105 C3.048 15.904 2.569 12.402 1.75 8.312 C1.577 7.515 1.405 6.718 1.227 5.896 C0.804 3.934 0.4 1.967 0 0 Z " fill="#E5EAEC" transform="translate(414,273)"/>
  <ns0:path d="M0 0 C4.228 0.622 7.538 1.441 11 4 C12.978 8.641 14.627 13.118 13 18 C9.559 17.625 6.892 16.941 4 15 C1.735 10.398 0 5.18 0 0 Z " fill="#E39A07" transform="translate(423,277)"/>
  <ns0:path d="M0 0 C2.25 0.25 2.25 0.25 4 1 C4.33 3.64 4.66 6.28 5 9 C3.684 8.55 2.373 8.09 1.062 7.625 C0.332 7.37 -0.399 7.115 -1.152 6.852 C-3 6 -3 6 -4 4 C-2.25 1.938 -2.25 1.938 0 0 Z " fill="#252D33" transform="translate(398,240)"/>
  <ns0:path d="M0 0 C4 1 4 1 4 1 Z " fill="#101114" transform="translate(208,273)"/>
  <ns0:path d="M0 0 C3 1 3 1 3 1 Z " fill="#0D0E10" transform="translate(191,272)"/>
  <ns0:path d="M0 0 C2 1 2 1 2 1 Z " fill="#121517" transform="translate(214,272)"/>
  <ns0:path d="M0 0 C2 1 2 1 2 1 Z " fill="#0F1113" transform="translate(217,271)"/>
  <ns0:path d="M0 0 C2 1 2 1 2 1 Z " fill="#14161A" transform="translate(219,270)"/>
  <ns0:path d="M0 0 C0 3 0 3 0 3 Z " fill="#181818" transform="translate(121,208)"/>
  <ns0:path d="M0 0 C0 3 0 3 0 3 Z " fill="#1E1E1F" transform="translate(125,201)"/>
  <ns0:path d="M0 0 C3 1 3 1 3 1 Z " fill="#AAA69B" transform="translate(425,292)"/>
  <ns0:path d="M0 0 C2 1 2 1 2 1 Z " fill="#0F62C0" transform="translate(421,275)"/>
  <ns0:path d="M0 0 C2 1 2 1 2 1 Z " fill="#075BBB" transform="translate(419,274)"/>
  <ns0:path d="M0 0 C2 1 2 1 2 1 Z " fill="#0056B9" transform="translate(417,273)"/>
  <ns0:path d="M0 0 C2 1 2 1 2 1 Z " fill="#0053B4" transform="translate(410,253)"/>
  <ns0:path d="M0 0 C2 1 2 1 2 1 Z " fill="#0057BC" transform="translate(407,252)"/>
  <ns0:path d="M0 0 C2 1 2 1 2 1 Z " fill="#0254B4" transform="translate(397,247)"/>
  <ns0:path d="M0 0 C2 1 2 1 2 1 Z " fill="#010409" transform="translate(220,184)"/>
</svg>