<?xml version="1.0" ?>
<svg xmlns:ns0="http://www.w3.org/2000/svg" xmlns="http://www.w3.org/2000/svg" width="512" height="512" viewBox="0 0 512 512" style="background-color: transparent;">
  <ns0:path d="M0 0 C0.133 1.071 0.266 2.142 0.402 3.246 C0.581 4.643 0.759 6.04 0.938 7.438 C1.025 8.145 1.112 8.852 1.201 9.58 C1.382 13.088 1.382 13.088 3 16 C6.046 16.378 9.077 16.695 12.133 16.969 C13.073 17.055 14.014 17.142 14.982 17.231 C24.612 18.095 34.253 18.73 43.903 19.319 C46.958 19.505 50.012 19.696 53.066 19.888 C61.459 20.415 69.852 20.933 78.246 21.434 C80.385 21.563 82.524 21.693 84.663 21.824 C87.153 21.976 89.643 22.124 92.134 22.266 C97.752 22.611 103.26 23.147 108.824 24 C115.916 25.068 122.981 25.491 130.134 25.833 C165.444 27.575 165.444 27.575 173 35 C176.853 40.172 178.35 46.009 179.48 52.277 C179.606 52.97 179.731 53.663 179.861 54.377 C181.274 62.31 182.456 70.278 183.625 78.25 C183.95 80.455 184.276 82.661 184.604 84.866 C184.896 86.834 185.186 88.802 185.475 90.771 C185.911 93.827 185.911 93.827 186.575 96.061 C187.17 98.778 187.001 101.302 186.879 104.078 C186.831 105.238 186.782 106.398 186.732 107.594 C186.676 108.8 186.62 110.007 186.562 111.25 C186.51 112.472 186.458 113.694 186.404 114.953 C186.275 117.969 186.14 120.985 186 124 C186.66 124.33 187.32 124.66 188 125 C187.443 125.389 186.886 125.779 186.312 126.18 C175.035 134.447 168.412 144.765 164 158 C163.799 160.164 163.637 162.331 163.5 164.5 C163.283 167.938 163.091 170.728 162 174 C154.858 175.658 147.967 176.386 140.648 176.633 C139.591 176.674 138.533 176.716 137.443 176.759 C135.216 176.845 132.989 176.927 130.762 177.005 C127.405 177.124 124.048 177.254 120.691 177.387 C109.122 177.83 97.578 178.137 86 178 C85.965 177.059 85.929 176.118 85.893 175.149 C85.315 161.658 81.897 150.085 74 139 C73.01 138.34 72.02 137.68 71 137 C71 136.34 71 135.68 71 135 C70.46 134.742 69.92 134.484 69.363 134.219 C65.515 132.234 61.862 129.912 58.168 127.656 C48.19 122.44 35.271 122.331 24.562 125.562 C18.719 127.823 13.901 131.146 9 135 C7.948 135.763 6.896 136.526 5.812 137.312 C-6.496 149.074 -12.224 165.935 -15.387 182.227 C-16 185 -16 185 -17 186 C-19.64 186.33 -22.28 186.66 -25 187 C-25.33 179.41 -25.66 171.82 -26 164 C-22.04 163.01 -22.04 163.01 -18 162 C-18 152.43 -18 142.86 -18 133 C-23.723 133.093 -23.723 133.093 -29.562 133.188 C-42.035 133.274 -54.384 132.552 -66.812 131.562 C-68.092 131.461 -68.092 131.461 -69.398 131.358 C-71.856 131.161 -74.313 130.959 -76.77 130.754 C-77.498 130.693 -78.226 130.633 -78.976 130.571 C-83.348 130.191 -87.664 129.658 -92 129 C-91.427 122.413 -90.565 115.954 -89.363 109.453 C-89.203 108.571 -89.043 107.689 -88.879 106.78 C-88.361 103.936 -87.838 101.093 -87.312 98.25 C-87.134 97.279 -86.955 96.308 -86.771 95.307 C-85.692 89.439 -84.602 83.573 -83.506 77.708 C-83.035 75.188 -82.568 72.666 -82.101 70.145 C-81.334 66.01 -80.545 61.88 -79.75 57.75 C-79.529 56.558 -79.307 55.366 -79.079 54.138 C-77.706 47.161 -76.333 40.412 -71.195 35.152 C-62.848 30.254 -53.581 27.772 -44.367 25.012 C-38.623 23.285 -32.893 21.51 -27.163 19.735 C-25.205 19.13 -23.244 18.531 -21.284 17.932 C-20.091 17.565 -18.897 17.198 -17.668 16.82 C-16.598 16.493 -15.529 16.166 -14.427 15.829 C-12.079 15.226 -12.079 15.226 -11 14 C-10.769 12.653 -10.588 11.296 -10.438 9.938 C-10.293 8.638 -10.149 7.339 -10 6 C-9.34 6 -8.68 6 -8 6 C-8 4.02 -8 2.04 -8 0 C-5.138 -1.431 -3.066 -0.6 0 0 Z M-53.603 42.068 C-55.62 42.624 -57.645 43.146 -59.672 43.668 C-60.961 44.019 -62.251 44.372 -63.539 44.727 C-65.29 45.2 -65.29 45.2 -67.077 45.682 C-70.674 47.304 -71.479 48.389 -73 52 C-73.655 54.629 -74.194 57.158 -74.641 59.82 C-74.838 60.931 -74.838 60.931 -75.039 62.064 C-75.312 63.622 -75.581 65.18 -75.845 66.739 C-76.25 69.127 -76.675 71.51 -77.102 73.895 C-77.366 75.411 -77.629 76.928 -77.891 78.445 C-78.018 79.158 -78.145 79.87 -78.275 80.605 C-78.818 83.868 -79.064 85.808 -78 89 C-68.986 88.604 -59.976 88.133 -51 87.188 C-49.701 87.057 -48.401 86.927 -47.062 86.793 C-44.003 86.35 -44.003 86.35 -42.903 84.47 C-41.619 80.958 -41.068 77.37 -40.492 73.691 C-40.297 72.486 -40.297 72.486 -40.097 71.256 C-39.824 69.559 -39.553 67.862 -39.286 66.165 C-38.877 63.574 -38.457 60.985 -38.035 58.396 C-37.77 56.745 -37.506 55.093 -37.242 53.441 C-37.117 52.67 -36.992 51.899 -36.863 51.105 C-36.28 47.371 -35.851 43.782 -36 40 C-42.14 38.251 -47.659 40.416 -53.603 42.068 Z M-3 45 C-3.703 47.741 -4.139 50.039 -4.398 52.812 C-4.483 53.544 -4.567 54.276 -4.653 55.031 C-4.826 56.569 -4.988 58.109 -5.141 59.649 C-5.375 61.996 -5.64 64.337 -5.91 66.68 C-6.075 68.182 -6.238 69.685 -6.398 71.188 C-6.475 71.881 -6.552 72.575 -6.632 73.29 C-7.028 77.385 -6.935 80.988 -6 85 C-2.979 88.021 4.608 87.164 8.682 87.253 C9.967 87.283 11.251 87.312 12.575 87.343 C13.959 87.37 15.343 87.396 16.727 87.422 C17.783 87.443 17.783 87.443 18.861 87.464 C22.582 87.537 26.303 87.604 30.024 87.667 C33.859 87.734 37.693 87.818 41.527 87.907 C44.487 87.972 47.446 88.024 50.406 88.071 C51.82 88.097 53.234 88.127 54.648 88.163 C56.624 88.211 58.6 88.238 60.577 88.265 C61.699 88.286 62.822 88.307 63.978 88.33 C67.417 87.955 69.271 87.099 72 85 C73.33 80.533 73.156 75.886 73.125 71.25 C73.12 70.16 73.12 70.16 73.115 69.049 C73.063 63.382 72.889 57.723 72.625 52.062 C72.594 51.287 72.563 50.512 72.532 49.714 C72.432 45.394 72.432 45.394 70 42 C65.368 40.955 60.675 40.717 55.945 40.465 C55.174 40.422 54.404 40.378 53.609 40.334 C45.179 39.868 36.745 39.467 28.31 39.101 C26.841 39.037 25.373 38.971 23.905 38.903 C19.916 38.719 15.93 38.589 11.938 38.5 C10.983 38.457 10.029 38.415 9.045 38.371 C8.173 38.362 7.301 38.353 6.402 38.344 C5.665 38.325 4.927 38.306 4.168 38.287 C0.671 39.437 -1.206 41.924 -3 45 Z M102.438 45.812 C97.529 53.282 99.955 64.825 100.312 73.438 C100.335 74.194 100.357 74.951 100.38 75.731 C100.613 80.472 101.421 83.88 104 88 C106.457 89.228 108.221 89.206 110.969 89.316 C112.003 89.359 113.038 89.401 114.104 89.444 C115.224 89.483 116.345 89.522 117.5 89.562 C118.647 89.604 119.793 89.645 120.975 89.687 C129.482 89.966 137.988 90.134 146.5 90.188 C147.621 90.2 148.742 90.213 149.896 90.227 C151.448 90.229 151.448 90.229 153.031 90.23 C153.945 90.235 154.858 90.239 155.799 90.243 C158.208 90.209 158.208 90.209 160 88 C160.295 85.462 160.295 85.462 160.23 82.504 C160.229 81.387 160.227 80.27 160.225 79.119 C160.212 77.945 160.2 76.772 160.188 75.562 C160.187 74.424 160.186 73.285 160.186 72.111 C160.823 59.692 160.823 59.692 157.188 48.375 C152.829 45.636 148.115 45.729 143.086 45.465 C142.316 45.422 141.547 45.379 140.754 45.335 C139.125 45.245 137.496 45.156 135.867 45.07 C133.404 44.939 130.942 44.801 128.48 44.662 C114.835 42.788 114.835 42.788 102.438 45.812 Z M-11 102 C-11.435 105.02 -11.435 105.02 -11.438 108.438 C-11.477 109.591 -11.517 110.745 -11.559 111.934 C-11.294 115.086 -11.294 115.086 -9.039 116.883 C-4.932 118.393 -1.281 118.476 3.062 118.438 C3.865 118.457 4.667 118.477 5.494 118.498 C10.357 118.497 10.357 118.497 14.496 116.098 C17.278 112.217 17.522 108.686 17 104 C16.359 102.654 15.695 101.319 15 100 C11.042 99.942 7.084 99.906 3.125 99.875 C1.997 99.858 0.869 99.841 -0.293 99.824 C-1.369 99.818 -2.446 99.811 -3.555 99.805 C-4.55 99.794 -5.545 99.784 -6.57 99.773 C-9.182 99.756 -9.182 99.756 -11 102 Z M105 100 C105 104.29 105 108.58 105 113 C110.425 113.904 115.295 114.183 120.75 114.188 C122.044 114.206 122.044 114.206 123.363 114.225 C124.187 114.227 125.011 114.228 125.859 114.23 C126.98 114.237 126.98 114.237 128.124 114.243 C130.245 114.162 130.245 114.162 132 112 C132.319 109.63 132.319 109.63 132.25 107 C132.255 106.113 132.26 105.226 132.266 104.312 C132.221 101.806 132.221 101.806 130 100 C127.84 99.614 127.84 99.614 125.352 99.551 C124.429 99.508 123.506 99.464 122.555 99.42 C121.588 99.384 120.621 99.349 119.625 99.312 C118.666 99.265 117.707 99.218 116.719 99.17 C112.453 98.989 109.189 98.953 105 100 Z " fill="#0059B6" transform="translate(165,144)"/>
  <ns0:path d="M0 0 C0.633 0.267 1.266 0.534 1.918 0.809 C10.184 4.914 15.073 12.969 19 21 C19.592 22.069 19.592 22.069 20.195 23.16 C25.967 34.925 23.859 50.961 20 63 C14.925 75.59 7.68 84.35 -4.691 90.293 C-14.308 94.263 -22.764 94.957 -32.875 92.312 C-33.572 92.131 -34.269 91.949 -34.987 91.762 C-45.811 88.809 -52.957 83.784 -61 76 C-62.361 74.855 -62.361 74.855 -63.75 73.688 C-70.079 66.127 -73.386 56.912 -74.25 47.188 C-73.939 44.463 -73.736 43.17 -72 41 C-70.718 40.593 -69.424 40.223 -68.125 39.875 C-65.391 38.962 -64.291 38.504 -62.832 35.977 C-62.213 34.264 -61.62 32.541 -61.047 30.812 C-59.161 25.745 -56.012 21.458 -53 17 C-52.442 16.118 -51.884 15.237 -51.309 14.328 C-46.166 6.454 -40.592 0.735 -31.375 -1.938 C-20.854 -4.098 -9.992 -4.22 0 0 Z M-33.438 31 C-37.412 38.63 -38.623 47.004 -36.348 55.41 C-33.679 61.355 -29.105 65.12 -23.625 68.438 C-18.246 69.59 -13.05 68.822 -8.188 66.25 C-2.624 62.323 1.205 57.249 2.477 50.453 C3.359 43.024 2.91 37.479 -0.75 30.812 C-4.415 26.231 -8.119 22.553 -14.164 21.691 C-22.72 21.243 -28.086 24.414 -33.438 31 Z " fill="#272F37" transform="translate(221,285)"/>
  <ns0:path d="M0 0 C10.272 5.34 17.357 14.366 21.188 25.25 C24.544 38.551 22.167 53.186 15.312 65 C14.32 66.498 13.302 67.98 12.25 69.438 C11.837 70.02 11.425 70.603 11 71.203 C6.054 77.647 -0.719 82.07 -8.75 83.438 C-22.119 83.715 -35.321 81.159 -45.375 72.062 C-46.159 71.196 -46.942 70.33 -47.75 69.438 C-48.244 68.924 -48.737 68.411 -49.246 67.883 C-56.723 59.791 -58.932 51.204 -58.75 40.438 C-58.184 40.328 -57.618 40.218 -57.035 40.105 C-56.302 39.947 -55.568 39.788 -54.812 39.625 C-54.082 39.474 -53.351 39.323 -52.598 39.168 C-51.988 38.927 -51.378 38.686 -50.75 38.438 C-50.42 37.447 -50.09 36.457 -49.75 35.438 C-49.145 34.872 -48.541 34.306 -47.918 33.723 C-45.142 30.796 -43.716 27.497 -42.062 23.875 C-36.956 13.264 -31.002 4.092 -19.75 -0.562 C-13.455 -2.661 -6.161 -2.512 0 0 Z M-18.75 22.438 C-23.925 27.735 -25.771 33.945 -26.125 41.25 C-25.963 47.502 -24.431 53.417 -20.207 58.176 C-17.211 60.61 -14.549 61.756 -10.688 62 C-5.117 61.204 -2.264 59.077 1.5 55 C6.117 48.239 5.971 41.401 5.25 33.438 C3.634 27.524 0.334 23.727 -4.75 20.438 C-10.327 18.815 -13.772 19.488 -18.75 22.438 Z " fill="#262E37" transform="translate(377.75,279.5625)"/>
  <ns0:path d="M0 0 C1.012 0.023 2.024 0.047 3.066 0.071 C6.036 0.154 9.003 0.271 11.971 0.406 C14.245 0.508 16.519 0.6 18.794 0.69 C23.905 0.897 29.015 1.131 34.125 1.375 C34.962 1.414 35.799 1.453 36.661 1.492 C39.078 1.608 41.494 1.736 43.91 1.867 C44.989 1.917 44.989 1.917 46.089 1.969 C57.178 2.615 57.178 2.615 60.062 5.5 C60.309 8.173 60.491 10.821 60.625 13.5 C60.666 14.302 60.707 15.104 60.749 15.931 C61.013 21.515 61.194 27.097 61.25 32.688 C61.269 33.709 61.269 33.709 61.289 34.752 C61.298 39.316 60.742 43.246 59.062 47.5 C55.737 49.844 52.731 49.719 48.753 49.651 C46.835 49.626 46.835 49.626 44.879 49.6 C43.485 49.571 42.092 49.541 40.699 49.512 C39.264 49.488 37.83 49.465 36.395 49.443 C33.388 49.395 30.381 49.339 27.374 49.279 C23.535 49.201 19.695 49.137 15.855 49.077 C12.891 49.03 9.927 48.978 6.963 48.925 C5.548 48.9 4.133 48.875 2.718 48.852 C0.732 48.818 -1.254 48.778 -3.24 48.737 C-4.367 48.715 -5.494 48.694 -6.655 48.672 C-10.166 48.488 -13.493 48.223 -16.938 47.5 C-19.099 44.258 -19.157 43.84 -18.766 40.211 C-18.636 38.934 -18.636 38.934 -18.505 37.631 C-18.4 36.722 -18.295 35.812 -18.188 34.875 C-18.035 33.475 -18.035 33.475 -17.88 32.047 C-17.67 30.128 -17.457 28.209 -17.239 26.292 C-16.96 23.71 -16.733 21.131 -16.527 18.543 C-16.394 17.049 -16.259 15.556 -16.125 14.062 C-16.08 13.384 -16.034 12.706 -15.987 12.007 C-14.938 1.523 -9.216 -0.412 0 0 Z " fill="#222333" transform="translate(176.9375,182.5)"/>
  <ns0:path d="M0 0 C4.229 0.422 8.46 0.831 12.69 1.242 C19.768 1.932 26.845 2.631 33.922 3.336 C42.086 4.149 50.252 4.949 58.418 5.742 C66.324 6.51 74.229 7.285 82.134 8.064 C85.48 8.394 88.827 8.722 92.173 9.048 C96.103 9.43 100.033 9.82 103.961 10.215 C105.398 10.358 106.835 10.499 108.273 10.638 C110.24 10.828 112.207 11.027 114.173 11.227 C115.271 11.336 116.369 11.445 117.501 11.557 C126.583 12.92 126.583 12.92 128.7 15.037 C128.61 16.728 128.454 18.417 128.262 20.099 C128.161 21.019 128.059 21.938 127.954 22.885 C127.87 23.595 127.786 24.305 127.7 25.037 C124.685 26.042 122.658 26.14 119.512 26.099 C118.611 26.09 117.71 26.081 116.782 26.072 C116.095 26.06 115.408 26.049 114.7 26.037 C114.7 25.377 114.7 24.717 114.7 24.037 C112.39 24.037 110.08 24.037 107.7 24.037 C107.7 24.697 107.7 25.357 107.7 26.037 C75.112 23.483 42.527 20.885 9.95 18.185 C6.745 17.92 3.54 17.655 0.335 17.392 C-3.462 17.08 -7.258 16.765 -11.054 16.448 C-12.452 16.332 -13.851 16.216 -15.25 16.102 C-17.17 15.944 -19.09 15.783 -21.009 15.622 C-22.085 15.533 -23.161 15.443 -24.269 15.351 C-27.308 15.036 -30.292 14.572 -33.3 14.037 C-33.3 13.377 -33.3 12.717 -33.3 12.037 C-37.441 11.827 -37.441 11.827 -41.3 13.037 C-47.653 13.445 -54.023 13.033 -60.3 12.037 C-61.544 9.549 -61.433 7.81 -61.425 5.037 C-61.428 4.15 -61.43 3.263 -61.433 2.349 C-61.3 0.037 -61.3 0.037 -60.3 -1.963 C-42.796 -7.798 -18.216 -1.826 0 0 Z " fill="#727374" transform="translate(198.30001378059387,131.9630732536316)"/>
  <ns0:path d="M0 0 C1.477 -0.004 1.477 -0.004 2.984 -0.007 C7.934 0.015 12.885 0.047 17.835 0.096 C21.286 0.127 24.737 0.137 28.188 0.139 C33.257 0.142 38.325 0.178 43.393 0.232 C45.43 0.249 47.468 0.256 49.505 0.252 C52.403 0.25 55.298 0.285 58.195 0.328 C59.068 0.319 59.941 0.31 60.841 0.301 C66.609 0.439 66.609 0.439 69.244 2.324 C72.215 5.578 73.212 8.429 73.285 12.75 C73.329 14.278 73.329 14.278 73.373 15.836 C73.379 16.883 73.385 17.929 73.391 19.008 C73.416 20.078 73.441 21.148 73.467 22.25 C73.525 24.878 73.562 27.504 73.578 30.133 C67.205 31.095 61.019 31.239 54.578 31.133 C54.688 34.717 54.819 38.3 54.953 41.883 C54.984 42.899 55.015 43.914 55.047 44.961 C55.105 46.43 55.105 46.43 55.164 47.93 C55.195 48.83 55.227 49.731 55.259 50.659 C55.593 53.246 56.387 54.842 57.578 57.133 C57.743 59.739 57.813 62.22 57.766 64.82 C57.765 65.854 57.765 65.854 57.764 66.908 C57.719 71.992 57.719 71.992 56.578 73.133 C53.641 73.383 53.641 73.383 50.578 73.133 C48.192 69.553 48.195 67.391 47.828 63.133 C46.942 54.895 43.992 48.525 38.887 41.957 C37.578 40.133 37.578 40.133 37.578 38.133 C36.918 38.133 36.258 38.133 35.578 38.133 C35.578 37.473 35.578 36.813 35.578 36.133 C34.995 35.863 34.413 35.594 33.812 35.316 C31.572 34.13 29.793 32.79 27.828 31.195 C20.436 25.627 13.781 24.259 4.578 25.133 C2.614 25.592 0.661 26.1 -1.277 26.656 C-2.247 26.931 -3.217 27.206 -4.216 27.49 C-4.944 27.702 -5.672 27.914 -6.422 28.133 C-6.284 23.653 -6.135 19.174 -5.984 14.695 C-5.945 13.416 -5.906 12.137 -5.865 10.818 C-5.823 9.603 -5.781 8.388 -5.738 7.137 C-5.702 6.011 -5.665 4.885 -5.627 3.725 C-5.289 -0.539 -3.876 0.005 0 0 Z " fill="#0057BA" transform="translate(356.421875,240.8671875)"/>
  <ns0:path d="M0 0 C1.213 0.046 2.426 0.092 3.675 0.14 C5.611 0.231 5.611 0.231 7.586 0.324 C9.551 0.408 9.551 0.408 11.555 0.493 C14.167 0.606 16.778 0.724 19.389 0.847 C22.397 0.986 25.404 1.102 28.414 1.203 C29.888 1.263 31.362 1.324 32.836 1.387 C34.688 1.46 34.688 1.46 36.578 1.535 C40.586 2.1 43.358 3.179 46.961 5.012 C50.636 12.362 49.144 23.554 49.148 31.574 C49.161 32.748 49.173 33.922 49.186 35.131 C49.187 36.248 49.189 37.365 49.191 38.516 C49.196 39.524 49.2 40.533 49.204 41.573 C48.961 44.012 48.961 44.012 46.961 46.012 C44.76 46.255 44.76 46.255 41.992 46.242 C40.958 46.241 39.924 46.24 38.858 46.239 C37.737 46.226 36.616 46.213 35.461 46.199 C34.313 46.19 33.165 46.181 31.982 46.171 C28.308 46.132 24.635 46.073 20.961 46.012 C19.125 45.991 19.125 45.991 17.251 45.969 C13.695 45.923 10.141 45.848 6.586 45.762 C5.482 45.748 4.378 45.734 3.24 45.719 C2.212 45.687 1.184 45.655 0.125 45.621 C-0.778 45.6 -1.681 45.579 -2.611 45.558 C-5.798 44.841 -7.007 43.522 -9.039 41.012 C-10.297 37.239 -10.405 33.575 -10.602 29.637 C-10.643 28.835 -10.684 28.033 -10.726 27.206 C-11.693 7.134 -11.693 7.134 -9.039 2.012 C-5.483 -0.359 -4.192 -0.177 0 0 Z " fill="#201F2F" transform="translate(276.0390625,187.98828125)"/>
  <ns0:path d="M0 0 C7.996 0.067 15.5 1.904 23.256 3.671 C38.707 7.171 53.403 9.516 69.316 9.23 C71.105 9.309 71.105 9.309 72.105 10.309 C72.386 14.26 72.337 18.224 72.355 22.184 C72.376 23.299 72.397 24.414 72.418 25.562 C72.426 27.165 72.426 27.165 72.434 28.801 C72.443 29.784 72.452 30.768 72.462 31.781 C72.105 34.309 72.105 34.309 70.747 36.114 C68.282 37.908 66.131 37.979 63.105 38.309 C62.443 38.406 61.78 38.504 61.097 38.605 C44.814 40.733 30.523 36.313 15.168 31.434 C14.138 31.107 13.108 30.781 12.047 30.445 C9.093 29.501 6.147 28.539 3.203 27.566 C2.3 27.27 1.397 26.974 0.466 26.669 C-0.358 26.389 -1.182 26.109 -2.031 25.821 C-2.756 25.577 -3.481 25.332 -4.227 25.081 C-5.895 24.309 -5.895 24.309 -6.895 22.309 C-7.203 15.309 -7.335 8.19 -5.895 1.309 C-4.224 -0.362 -2.303 0.059 0 0 Z " fill="#919394" transform="translate(67.89453125,298.69140625)"/>
  <ns0:path d="M0 0 C-0.602 8.355 -1.764 16.592 -3.102 24.855 C-3.441 26.957 -3.768 29.062 -4.096 31.166 C-4.312 32.516 -4.529 33.865 -4.746 35.215 C-4.939 36.423 -5.131 37.63 -5.33 38.875 C-5.922 41.637 -6.41 43.678 -8 46 C-11.062 46.793 -11.062 46.793 -15 47.188 C-15.696 47.261 -16.392 47.334 -17.109 47.41 C-25.383 48.233 -33.695 48.635 -42 49 C-43.263 45.211 -42.573 42.274 -41.891 38.445 C-41.763 37.707 -41.636 36.968 -41.504 36.207 C-41.232 34.645 -40.956 33.083 -40.677 31.522 C-40.253 29.143 -39.849 26.761 -39.445 24.379 C-39.178 22.859 -38.91 21.34 -38.641 19.82 C-38.462 18.758 -38.462 18.758 -38.28 17.673 C-37.524 13.555 -36.709 10.239 -34 7 C-31.077 5.682 -31.077 5.682 -27.539 4.727 C-26.911 4.554 -26.284 4.381 -25.637 4.203 C-24.313 3.843 -22.987 3.492 -21.658 3.15 C-19.632 2.627 -17.617 2.072 -15.602 1.512 C-4.843 -1.379 -4.843 -1.379 0 0 Z " fill="#22222E" transform="translate(129,184)"/>
  <ns0:path d="M0 0 C2.988 1.915 5.901 3.796 8.664 6.023 C8.664 6.683 8.664 7.343 8.664 8.023 C9.24 8.221 9.816 8.418 10.41 8.621 C13.555 10.577 14.981 13.299 16.727 16.461 C17.077 17.091 17.427 17.722 17.787 18.371 C23.237 28.511 24.116 37.568 23.664 49.023 C20.355 48.531 20.355 48.531 16.664 47.023 C15.047 44.497 14.373 41.779 13.602 38.898 C11.153 30.947 8.199 25.558 2.289 19.648 C1.753 19.112 1.217 18.576 0.664 18.023 C0.664 17.363 0.664 16.703 0.664 16.023 C0.107 15.92 -0.45 15.817 -1.023 15.711 C-3.336 15.023 -3.336 15.023 -5.586 13.586 C-15.053 8.207 -27.356 8.941 -37.711 11.086 C-49.043 14.398 -54.447 22.288 -60.336 32.023 C-60.894 32.908 -61.452 33.792 -62.027 34.703 C-64.531 38.732 -66.595 42.584 -68.273 47.023 C-69.81 50.73 -69.81 50.73 -72.137 52.027 C-74.086 52.586 -74.086 52.586 -77.336 53.023 C-77.277 39.066 -71.494 26.137 -63.336 15.023 C-62.877 14.381 -62.418 13.74 -61.945 13.078 C-47.144 -5.891 -20.737 -12.287 0 0 Z " fill="#010103" transform="translate(227.3359375,272.9765625)"/>
  <ns0:path d="M0 0 C5.547 2.876 9.567 7.58 11.98 13.305 C13.771 22.609 12.725 29.456 8.105 37.617 C4.429 42.267 0.835 45.066 -5.02 46.305 C-11.079 46.403 -15.292 45.28 -20.02 41.305 C-25.174 36.093 -27.306 31.383 -27.395 24.055 C-27.266 15.913 -24.855 9.14 -19.02 3.305 C-13.153 -1.036 -7.098 -2.444 0 0 Z " fill="#87898F" transform="translate(211.01953125,307.6953125)"/>
  <ns0:path d="M0 0 C1.931 5.792 3.651 11.861 3 18 C-0.743 24.514 -8.146 27.715 -15 30 C-26.476 31.4 -38.821 27.977 -47.91 20.93 C-52.413 16.772 -56.292 11.976 -58 6 C-58 5.01 -58 4.02 -58 3 C-52.016 2.174 -46.092 1.73 -40.059 1.465 C-38.669 1.4 -38.669 1.4 -37.251 1.335 C-35.304 1.245 -33.357 1.157 -31.409 1.07 C-28.443 0.938 -25.476 0.8 -22.51 0.662 C-20.609 0.575 -18.709 0.489 -16.809 0.402 C-15.929 0.362 -15.05 0.321 -14.144 0.279 C-9.423 0.071 -4.725 -0.041 0 0 Z " fill="#131619" transform="translate(317,319)"/>
  <ns0:path d="M0 0 C0.992 0.065 0.992 0.065 2.005 0.132 C3.41 0.225 4.816 0.321 6.221 0.419 C8.339 0.568 10.456 0.709 12.574 0.848 C16.509 1.11 20.442 1.399 24.375 1.695 C25.429 1.769 26.484 1.843 27.57 1.919 C28.475 1.992 29.38 2.065 30.312 2.141 C31.085 2.2 31.857 2.26 32.652 2.321 C33.221 2.444 33.789 2.568 34.375 2.695 C35.563 5.072 35.429 6.313 35.289 8.949 C35.245 9.805 35.201 10.66 35.156 11.541 C35.105 12.438 35.053 13.334 35 14.258 C34.956 15.127 34.912 15.997 34.867 16.893 C34.565 22.524 34.046 28.096 33.375 33.695 C25.848 33.023 18.5 31.656 11.098 30.166 C9.051 29.755 7.001 29.355 4.951 28.955 C3.638 28.693 2.325 28.431 1.012 28.168 C-0.167 27.933 -1.345 27.699 -2.56 27.457 C-5.207 26.799 -7.273 26.043 -9.625 24.695 C-9.769 16.734 -9.902 8.572 -8.625 0.695 C-5.685 -0.774 -3.267 -0.221 0 0 Z " fill="#FCFCF9" transform="translate(81.625,273.3046875)"/>
  <ns0:path d="M0 0 C10.287 -0.316 20.472 0.646 30.711 1.496 C32.611 1.651 34.512 1.805 36.412 1.96 C40.375 2.282 44.337 2.608 48.298 2.936 C53.372 3.356 58.446 3.769 63.52 4.18 C67.436 4.498 71.351 4.818 75.266 5.14 C77.138 5.293 79.009 5.446 80.881 5.598 C83.492 5.81 86.102 6.027 88.712 6.244 C89.481 6.306 90.25 6.368 91.042 6.431 C94.757 6.745 98.364 7.169 102 8 C103.125 13.75 103.125 13.75 102 16 C90.529 16.192 79.209 15.601 67.773 14.758 C65.968 14.628 64.163 14.498 62.358 14.369 C58.608 14.098 54.858 13.824 51.109 13.546 C46.309 13.192 41.509 12.85 36.708 12.511 C32.995 12.247 29.282 11.976 25.569 11.703 C23.798 11.574 22.027 11.447 20.256 11.323 C17.789 11.149 15.323 10.965 12.857 10.778 C12.132 10.729 11.406 10.68 10.659 10.63 C6.761 10.322 3.542 9.677 0 8 C0 5.36 0 2.72 0 0 Z " fill="#727476" transform="translate(166,151)"/>
  <ns0:path d="M0 0 C4.225 2.61 7.858 5.97 9.562 10.754 C11.033 18.304 11.341 26.626 7.281 33.383 C4.706 36.633 1.73 39.135 -2 41 C-7.524 41.562 -11.073 41.3 -15.457 37.738 C-20.22 32.373 -21.644 25.459 -21.324 18.453 C-20.499 12.206 -18.669 6.409 -14 2 C-8.973 -0.845 -5.572 -1.692 0 0 Z " fill="#83888E" transform="translate(373,300)"/>
  <ns0:path d="M0 0 C10.843 8.058 18.901 18.813 21.375 32.344 C21.752 35.743 21.734 39.04 21.609 42.457 C20.124 42.952 20.124 42.952 18.609 43.457 C16.003 40.851 15.54 38.467 14.422 34.957 C10.973 24.796 5.299 15.854 -4.188 10.43 C-10.64 7.537 -18.227 7.234 -24.984 9.219 C-37.823 14.632 -44.135 26.092 -49.689 38.237 C-50.519 40.012 -51.448 41.739 -52.391 43.457 C-53.876 43.952 -53.876 43.952 -55.391 44.457 C-56.475 29.513 -51.092 17.887 -41.703 6.391 C-30.189 -5.949 -14.362 -9.269 0 0 Z " fill="#010203" transform="translate(383.390625,270.54296875)"/>
  <ns0:path d="M0 0 C1.98 0 3.96 0 6 0 C6.147 1.143 6.147 1.143 6.297 2.309 C7.29 9.169 8.838 14.847 12 21 C12.379 21.77 12.758 22.539 13.148 23.332 C14.085 25.228 15.04 27.115 16 29 C8.038 32.658 -0.01 30.531 -8 27.938 C-18.21 24.042 -26.147 18.285 -32 9 C-30 7 -30 7 -28.109 6.84 C-27.331 6.872 -26.552 6.904 -25.75 6.938 C-21.353 7.021 -17.015 6.895 -12.625 6.625 C-11.462 6.555 -10.3 6.486 -9.102 6.414 C-6.209 6.028 -4.418 5.589 -2 4 C-0.732 1.966 -0.732 1.966 0 0 Z " fill="#1E2228" transform="translate(141,330)"/>
  <ns0:path d="M0 0 C2.452 0.214 4.904 0.417 7.357 0.619 C8.923 0.752 10.489 0.885 12.054 1.019 C13.15 1.11 13.15 1.11 14.267 1.202 C19.366 1.658 19.366 1.658 21.597 2.773 C21.793 8.828 21.793 8.828 21.597 10.773 C17.85 14.521 12.24 14.874 7.125 15.004 C5.595 15 4.065 14.985 2.535 14.961 C1.771 14.96 1.007 14.959 0.22 14.959 C-4.414 14.923 -8.831 14.532 -13.403 13.773 C-13.403 13.113 -13.403 12.453 -13.403 11.773 C-14.496 12.124 -15.589 12.474 -16.715 12.836 C-21.967 14.158 -27.116 13.832 -32.403 12.773 C-33.393 12.113 -34.383 11.453 -35.403 10.773 C-35.696 8.39 -35.696 8.39 -35.59 5.648 C-35.563 4.738 -35.536 3.828 -35.508 2.89 C-35.473 2.192 -35.438 1.493 -35.403 0.773 C-26.592 -4.697 -9.973 -0.875 0 0 Z " fill="#757677" transform="translate(133.402587890625,147.226806640625)"/>
  <ns0:path d="M0 0 C2.979 -0.027 5.958 -0.047 8.938 -0.062 C9.788 -0.071 10.638 -0.079 11.514 -0.088 C12.323 -0.091 13.131 -0.094 13.965 -0.098 C14.714 -0.103 15.463 -0.108 16.234 -0.114 C18 0 18 0 19 1 C19.158 2.998 19.251 5.001 19.316 7.004 C19.358 8.219 19.4 9.434 19.443 10.686 C19.483 11.965 19.522 13.244 19.562 14.562 C19.606 15.846 19.649 17.129 19.693 18.451 C19.8 21.634 19.902 24.817 20 28 C20.66 28.33 21.32 28.66 22 29 C21.67 29.66 21.34 30.32 21 31 C17.354 31.029 13.708 31.047 10.062 31.062 C8.501 31.075 8.501 31.075 6.908 31.088 C5.919 31.091 4.929 31.094 3.91 31.098 C2.535 31.106 2.535 31.106 1.133 31.114 C-1 31 -1 31 -2 30 C-2.029 27.949 -1.986 25.897 -1.914 23.848 C-1.87 22.597 -1.826 21.346 -1.781 20.057 C-1.73 18.739 -1.678 17.421 -1.625 16.062 C-1.581 14.748 -1.537 13.434 -1.492 12.08 C-1.128 2.256 -1.128 2.256 0 0 Z " fill="#F89D03" transform="translate(117,277)"/>
  <ns0:path d="M0 0 C0.78 0.004 1.56 0.008 2.363 0.012 C3.51 0.006 3.51 0.006 4.68 0 C12.445 0.013 12.445 0.013 16.113 1.137 C17.279 3.468 17.242 4.858 17.246 7.453 C17.248 8.723 17.248 8.723 17.25 10.018 C17.246 10.903 17.242 11.787 17.238 12.699 C17.244 14.032 17.244 14.032 17.25 15.393 C17.249 16.238 17.247 17.083 17.246 17.953 C17.245 18.731 17.244 19.509 17.243 20.311 C17.113 22.137 17.113 22.137 16.113 23.137 C4.058 24.859 -9.213 25.028 -20.887 21.137 C-20.887 20.147 -20.887 19.157 -20.887 18.137 C-15.937 18.137 -10.987 18.137 -5.887 18.137 C-6.217 17.477 -6.547 16.817 -6.887 16.137 C-6.984 13.604 -7.026 11.106 -7.012 8.574 C-7.016 7.876 -7.019 7.178 -7.023 6.459 C-7.011 -0.066 -6.463 0.011 0 0 Z " fill="#8B8D91" transform="translate(420.88671875,295.86328125)"/>
  <ns0:path d="M0 0 C1.814 0.079 1.814 0.079 3.666 0.16 C5.589 0.276 5.589 0.276 7.551 0.395 C9.509 0.491 9.509 0.491 11.506 0.59 C14.107 0.722 16.707 0.861 19.307 1.01 C22.309 1.176 25.308 1.306 28.312 1.406 C29.788 1.464 31.263 1.523 32.738 1.582 C34.591 1.656 34.591 1.656 36.48 1.73 C40.489 2.295 43.261 3.374 46.863 5.207 C48.066 7.612 47.964 9.157 47.926 11.832 C47.917 12.649 47.908 13.467 47.898 14.309 C47.887 14.935 47.875 15.562 47.863 16.207 C47.533 16.207 47.203 16.207 46.863 16.207 C46.203 13.897 45.543 11.587 44.863 9.207 C44.203 9.207 43.543 9.207 42.863 9.207 C42.863 9.537 42.863 9.867 42.863 10.207 C35.818 10.317 28.831 10.186 21.801 9.707 C15.194 9.27 8.61 9.096 1.988 9.082 C1.126 9.078 0.263 9.073 -0.625 9.068 C-1.834 9.071 -1.834 9.071 -3.066 9.074 C-4.137 9.076 -4.137 9.076 -5.23 9.078 C-7.36 9.142 -7.36 9.142 -10.137 10.207 C-10.623 4.859 -10.623 4.859 -8.505 2.017 C-5.432 -0.332 -3.83 -0.199 0 0 Z " fill="#04050C" transform="translate(276.13671875,187.79296875)"/>
  <ns0:path d="M0 0 C1.492 0.016 1.492 0.016 3.015 0.032 C4.63 0.041 4.63 0.041 6.277 0.051 C7.405 0.068 8.533 0.085 9.695 0.102 C11.398 0.116 11.398 0.116 13.136 0.129 C15.948 0.153 18.759 0.186 21.57 0.227 C23.78 4.181 24.164 7.759 23.57 12.227 C21.431 16.796 21.431 16.796 18.57 18.227 C15.619 18.378 12.709 18.458 9.757 18.477 C8.546 18.508 8.546 18.508 7.31 18.54 C-0.959 18.594 -0.959 18.594 -4.43 15.227 C-4.989 12.161 -4.989 12.161 -4.868 8.665 C-4.846 7.508 -4.824 6.352 -4.801 5.161 C-4.34 1.518 -3.75 0.35 0 0 Z " fill="#00A8E0" transform="translate(158.43017578125,243.77294921875)"/>
  <ns0:path d="M0 0 C0.963 0.034 1.926 0.069 2.918 0.104 C3.934 0.123 4.95 0.142 5.998 0.161 C9.681 0.249 13.361 0.39 17.043 0.542 C18.184 0.586 18.184 0.586 19.348 0.632 C25.269 0.865 31.187 1.131 37.105 1.417 C37.942 1.455 38.779 1.494 39.641 1.534 C42.058 1.65 44.474 1.777 46.89 1.909 C47.969 1.959 47.969 1.959 49.069 2.01 C60.158 2.657 60.158 2.657 63.043 5.542 C63.083 7.208 63.085 8.875 63.043 10.542 C62.548 9.552 62.548 9.552 62.043 8.542 C61.106 8.516 60.169 8.491 59.204 8.466 C55.67 8.369 52.136 8.27 48.603 8.169 C47.084 8.126 45.566 8.085 44.047 8.044 C35.85 7.825 27.715 7.492 19.545 6.74 C15.339 6.406 11.164 6.571 6.953 6.702 C3.905 6.534 1.789 5.831 -0.957 4.542 C-1.287 5.202 -1.617 5.862 -1.957 6.542 C-4.927 6.212 -7.897 5.882 -10.957 5.542 C-8.047 0.337 -5.541 -0.036 0 0 Z " fill="#05050C" transform="translate(173.957275390625,182.45849609375)"/>
  <ns0:path d="M0 0 C1.45 0.053 1.45 0.053 2.93 0.107 C4.314 0.172 4.314 0.172 5.727 0.238 C6.57 0.276 7.414 0.314 8.284 0.353 C10.375 0.688 10.375 0.688 12.375 2.688 C12.641 5 12.641 5 12.625 7.688 C12.63 8.574 12.635 9.461 12.641 10.375 C12.375 12.688 12.375 12.688 10.375 14.688 C8.499 14.93 8.499 14.93 6.234 14.918 C5.411 14.916 4.587 14.914 3.738 14.912 C2.445 14.894 2.445 14.894 1.125 14.875 C0.278 14.874 -0.569 14.874 -1.441 14.873 C-6.047 14.841 -10.011 14.457 -14.625 13.688 C-14.625 9.398 -14.625 5.107 -14.625 0.688 C-9.597 -0.57 -5.143 -0.252 0 0 Z " fill="#009ED4" transform="translate(284.625,243.3125)"/>
  <ns0:path d="M0 0 C0 9.57 0 19.14 0 29 C-7 30 -7 30 -12 28 C-12 18.76 -12 9.52 -12 0 C-4 -1 -4 -1 0 0 Z " fill="#F8F8F5" transform="translate(148,277)"/>
  <ns0:path d="M0 0 C3.188 -0.312 3.188 -0.312 6 0 C6.121 0.785 6.242 1.57 6.367 2.379 C7.272 8.051 8.258 13.525 10 19 C4.267 20.573 -0.157 21.243 -6 20 C-6.33 19.01 -6.66 18.02 -7 17 C-6.67 16.34 -6.34 15.68 -6 15 C-8.31 14.34 -10.62 13.68 -13 13 C-13 12.34 -13 11.68 -13 11 C-13.66 11 -14.32 11 -15 11 C-15 10.34 -15 9.68 -15 9 C-15.66 8.67 -16.32 8.34 -17 8 C-14.69 5.69 -9.241 6.211 -6.102 5.891 C-2.795 5.324 -2.795 5.324 -1.461 2.422 C-0.979 1.623 -0.497 0.823 0 0 Z " fill="#030303" transform="translate(141,330)"/>
  <ns0:path d="M0 0 C2.938 1.562 2.938 1.562 5 4 C6.216 8.106 6.261 10.273 4.812 14.312 C2.911 17.131 2.228 18.103 -1 19 C-5.232 19.462 -7.271 19.475 -10.875 17.125 C-13.6 14.4 -13.947 13.565 -14.312 9.688 C-13.951 5.425 -12.98 3.98 -10 1 C-6.786 -0.607 -3.486 -0.467 0 0 Z " fill="#797A7D" transform="translate(408,198)"/>
  <ns0:path d="M0 0 C1.685 1.685 1.13 3.788 1.133 6.094 C1.135 7.639 1.135 7.639 1.137 9.215 C1.133 10.299 1.129 11.383 1.125 12.5 C1.129 13.584 1.133 14.668 1.137 15.785 C1.135 16.815 1.134 17.845 1.133 18.906 C1.132 19.858 1.131 20.81 1.129 21.791 C1 24 1 24 0 25 C-2.97 25 -5.94 25 -9 25 C-9.33 17.08 -9.66 9.16 -10 1 C-6.398 0.1 -3.671 -0.163 0 0 Z " fill="#E49903" transform="translate(429,271)"/>
  <ns0:path d="M0 0 C2.64 0 5.28 0 8 0 C8.961 2.883 9.117 4.677 9.098 7.668 C9.094 8.561 9.091 9.453 9.088 10.373 C9.08 11.302 9.071 12.231 9.062 13.188 C9.058 14.128 9.053 15.068 9.049 16.037 C9.037 18.358 9.021 20.679 9 23 C6.36 23 3.72 23 1 23 C0.132 17.798 -0.125 12.83 -0.062 7.562 C-0.058 6.831 -0.053 6.099 -0.049 5.346 C-0.037 3.564 -0.019 1.782 0 0 Z " fill="#E9ECEA" transform="translate(411,272)"/>
  <ns0:path d="M0 0 C0.66 5.28 1.32 10.56 2 16 C-2.62 16 -7.24 16 -12 16 C-11.34 12.7 -10.68 9.4 -10 6 C-9.34 6 -8.68 6 -8 6 C-8 4.02 -8 2.04 -8 0 C-6 -1 -6 -1 0 0 Z " fill="#48494C" transform="translate(165,144)"/>
  <ns0:path d="M0 0 C1.134 0.021 2.269 0.041 3.438 0.062 C3.466 3.375 3.484 6.687 3.5 10 C3.508 10.946 3.517 11.891 3.525 12.865 C3.529 13.764 3.532 14.663 3.535 15.59 C3.54 16.422 3.546 17.255 3.551 18.113 C3.438 20.062 3.438 20.062 2.438 21.062 C0.105 21.103 -2.23 21.105 -4.562 21.062 C-4.591 17.75 -4.609 14.438 -4.625 11.125 C-4.633 10.179 -4.642 9.234 -4.65 8.26 C-4.654 7.361 -4.657 6.462 -4.66 5.535 C-4.665 4.703 -4.671 3.87 -4.676 3.012 C-4.472 -0.492 -3.635 0.064 0 0 Z " fill="#262C32" transform="translate(402.5625,219.9375)"/>
  <ns0:path d="M0 0 C2.31 0 4.62 0 7 0 C7.33 4.95 7.66 9.9 8 15 C5.03 15 2.06 15 -1 15 C-0.67 10.05 -0.34 5.1 0 0 Z " fill="#3B3B3D" transform="translate(306,156)"/>
  <ns0:path d="M0 0 C1.454 0.031 1.454 0.031 2.938 0.062 C3.267 3.363 3.597 6.662 3.938 10.062 C-0.517 11.548 -0.517 11.548 -5.062 13.062 C-4.922 11.083 -4.775 9.104 -4.625 7.125 C-4.544 6.023 -4.463 4.921 -4.379 3.785 C-3.933 -0.048 -3.923 0.08 0 0 Z " fill="#4A4C51" transform="translate(117.0625,158.9375)"/>
  <ns0:path d="M0 0 C4 1 4 1 4 1 Z " fill="#1D1D1E" transform="translate(131,336)"/>
  <ns0:path d="M0 0 C4 1 4 1 4 1 Z " fill="#39608A" transform="translate(409,314)"/>
  <ns0:path d="M0 0 C2 1 2 1 2 1 Z " fill="#0B0C0D" transform="translate(400,313)"/>
  <ns0:path d="M0 0 C2 1 2 1 2 1 Z " fill="#003F87" transform="translate(354,267)"/>
  <ns0:path d="M0 0 C2 1 2 1 2 1 Z " fill="#012555" transform="translate(361,265)"/>
  <ns0:path d="M0 0 C2 1 2 1 2 1 Z " fill="#183F6E" transform="translate(403,241)"/>
</svg>