<?xml version="1.0" ?>
<svg xmlns:ns0="http://www.w3.org/2000/svg" xmlns="http://www.w3.org/2000/svg" width="512" height="512" viewBox="0 0 512 512" style="background-color: transparent;">
  <ns0:path d="M0 0 C0 4.29 0 8.58 0 13 C1.98 13 3.96 13 6 13 C6.33 10.69 6.66 8.38 7 6 C11.625 8.312 14.573 11.627 17.938 15.453 C19.889 17.291 19.889 17.291 22.347 16.701 C24.82 16.048 27.128 15.276 29.504 14.336 C30.327 14.019 31.15 13.702 31.998 13.375 C33.714 12.706 35.427 12.031 37.139 11.352 C38.371 10.88 38.371 10.88 39.629 10.398 C40.372 10.106 41.115 9.814 41.881 9.513 C44.355 8.914 45.641 9.08 48 10 C50.618 12.618 51.918 14.082 52.25 17.812 C52.168 18.534 52.085 19.256 52 20 C52.592 20.159 53.183 20.317 53.793 20.48 C59.077 22.041 62.451 23.564 66 28 C66.33 28.99 66.66 29.98 67 31 C68.321 31.69 69.656 32.355 71 33 C72.456 34.475 72.456 34.475 73.922 36.289 C78.789 42.037 84.14 47.29 89.472 52.602 C91.264 54.389 93.05 56.18 94.836 57.973 C95.979 59.115 97.122 60.257 98.266 61.398 C98.797 61.932 99.328 62.465 99.876 63.014 C102.162 65.286 104.307 67.205 107 69 C107 69.66 107 70.32 107 71 C108.32 71.66 109.64 72.32 111 73 C111 73.66 111 74.32 111 75 C111.593 75.269 112.186 75.538 112.797 75.815 C115.006 77.003 116.473 78.208 118.252 79.962 C119.168 80.859 119.168 80.859 120.103 81.773 C121.075 82.742 121.075 82.742 122.066 83.73 C122.742 84.399 123.417 85.068 124.113 85.757 C125.538 87.172 126.961 88.59 128.382 90.011 C130.548 92.173 132.729 94.318 134.912 96.463 C136.298 97.843 137.683 99.224 139.066 100.605 C139.716 101.241 140.367 101.877 141.036 102.532 C144.945 106.481 147.044 109.809 149 115 C151.759 117.759 153.467 117.299 157.312 117.312 C159.008 117.338 159.008 117.338 160.738 117.363 C164.279 116.969 166.079 115.959 169 114 C169.66 114 170.32 114 171 114 C172.621 115.836 172.621 115.836 174.438 118.375 C175.034 119.187 175.631 119.999 176.246 120.836 C180.232 128.026 181.47 135.27 181.266 143.402 C181.254 144.291 181.242 145.18 181.231 146.095 C181.042 157.074 180.533 168.045 179.938 179.009 C179.747 182.616 179.583 186.225 179.418 189.834 C179.296 192.141 179.172 194.447 179.047 196.754 C179.002 197.827 178.957 198.899 178.911 200.005 C178.471 207.308 178.471 207.308 176.295 210.505 C173.661 212.221 171.037 213.749 168.23 215.172 C167.102 215.75 165.973 216.328 164.81 216.923 C163.602 217.532 162.395 218.141 161.188 218.75 C159.952 219.38 158.716 220.011 157.481 220.643 C155.65 221.58 153.819 222.516 151.987 223.449 C147.565 225.702 143.178 228.014 138.812 230.375 C132.129 233.957 125.364 237.356 118.571 240.725 C113.107 243.435 107.646 246.153 102.188 248.875 C101.576 249.18 100.965 249.484 100.336 249.798 C92.946 253.485 85.597 257.234 78.312 261.125 C70.787 265.115 63.2 268.977 55.562 272.75 C53.934 273.576 53.934 273.576 52.273 274.418 C51.256 274.915 50.239 275.411 49.191 275.922 C48.286 276.371 47.38 276.821 46.448 277.284 C44 278 44 278 41.832 277.298 C36.777 273.716 33.88 268.333 31 263 C30.34 263 29.68 263 29 263 C28.919 265.417 28.859 267.832 28.812 270.25 C28.787 270.932 28.762 271.614 28.736 272.316 C28.673 276.656 29.211 278.726 32 282 C31.188 284.75 31.188 284.75 30 287 C27.376 284.734 26.519 283.088 25.824 279.711 C25.64 278.861 25.455 278.011 25.265 277.135 C25.074 276.224 24.884 275.313 24.688 274.375 C18.843 248.478 7.905 219.421 -12 201 C-14.285 199.642 -15.468 199 -18.125 199 C-20.353 199.932 -20.353 199.932 -21.25 203.062 C-21.498 204.032 -21.745 205.001 -22 206 C-22.99 206 -23.98 206 -25 206 C-26.666 203.844 -28.118 201.736 -29.562 199.438 C-30.459 198.052 -31.357 196.667 -32.254 195.281 C-32.71 194.568 -33.167 193.856 -33.637 193.121 C-35.725 189.871 -37.859 186.652 -40 183.438 C-40.407 182.825 -40.814 182.213 -41.233 181.583 C-48.515 170.492 -48.515 170.492 -56.68 160.066 C-58.559 157.124 -59.029 153.999 -59.688 150.625 C-63.912 131.15 -72.431 101.745 -89 89 C-91.76 89.05 -91.76 89.05 -94 90 C-94.33 92.64 -94.66 95.28 -95 98 C-95.99 98 -96.98 98 -98 98 C-98.293 95.979 -98.584 93.958 -98.875 91.938 C-99.064 90.663 -99.254 89.388 -99.449 88.074 C-99.831 85.402 -100.104 82.778 -100.332 80.082 C-101.064 72.192 -102.438 67.35 -107.383 61.133 C-109.585 58.228 -110.341 55.561 -111 52 C-111.131 51.341 -111.263 50.683 -111.398 50.004 C-112.176 45.435 -112.078 42.156 -110 38 C-106.861 34.861 -104.411 33.504 -100 33 C-98.57 37.672 -97.596 42.131 -97 47 C-94.03 46.505 -94.03 46.505 -91 46 C-91.107 44.952 -91.214 43.904 -91.324 42.824 C-91.446 41.445 -91.567 40.066 -91.688 38.688 C-91.76 37.997 -91.833 37.307 -91.908 36.596 C-92.328 31.489 -92.328 31.489 -90.958 29.445 C-88.102 27.337 -84.936 26.384 -81.594 25.304 C-80.843 25.054 -80.091 24.803 -79.317 24.544 C-76.833 23.718 -74.344 22.904 -71.855 22.09 C-70.125 21.517 -68.395 20.943 -66.665 20.368 C-62.108 18.857 -57.547 17.356 -52.986 15.858 C-48.358 14.336 -43.733 12.803 -39.107 11.271 C-31.628 8.796 -24.147 6.327 -16.663 3.866 C-13.702 2.891 -10.753 1.91 -7.825 0.84 C-5 0 -5 0 0 0 Z M-63 26 C-65.487 29.731 -65.3 31.576 -65 36 C-63.739 40.897 -61.632 44.122 -58.5 48.062 C-54.167 53.528 -54.167 53.528 -53.094 56.559 C-51.815 59.413 -50.077 60.683 -47.646 62.575 C-44.557 65.249 -42.286 68.6 -39.875 71.875 C-38.732 73.4 -37.587 74.923 -36.441 76.445 C-35.868 77.209 -35.294 77.972 -34.704 78.759 C-32.134 82.139 -29.479 85.447 -26.812 88.75 C-22.786 93.75 -18.822 98.788 -14.92 103.887 C-9.597 110.843 -4.205 117.745 1.177 124.656 C2.982 126.977 4.785 129.301 6.586 131.625 C7.172 132.381 7.759 133.137 8.363 133.916 C9.532 135.422 10.698 136.93 11.863 138.44 C14.672 142.066 17.517 145.644 20.477 149.148 C21.304 150.14 21.304 150.14 22.148 151.152 C23.175 152.377 24.215 153.591 25.27 154.792 C28.551 158.726 29.753 161.998 30.454 167.08 C30.887 169.393 30.887 169.393 34 171 C42.436 170.629 50.43 169.247 57.375 164.312 C60.383 160.032 60.189 155.669 59.625 150.688 C57.87 145.539 53.848 141.572 50.337 137.539 C48.01 134.861 45.728 132.146 43.438 129.438 C42.731 128.606 42.731 128.606 42.011 127.758 C38.695 123.848 35.474 119.873 32.289 115.855 C29.248 112.062 26.156 108.313 23.062 104.562 C22.453 103.823 21.843 103.084 21.215 102.323 C20.021 100.875 18.826 99.428 17.632 97.98 C14.075 93.664 10.538 89.331 7 85 C4.751 82.251 2.501 79.502 0.25 76.754 C-1.255 74.912 -2.755 73.065 -4.25 71.215 C-7.854 66.766 -11.502 62.406 -15.375 58.188 C-19.469 53.701 -23.187 48.99 -26.9 44.19 C-30.431 39.654 -34.164 35.358 -38.059 31.129 C-39.75 29.274 -41.357 27.386 -42.938 25.438 C-45.677 22.199 -46.342 22.057 -50.625 21.688 C-55.34 21.739 -59.156 23.302 -63 26 Z M-64 79 C-63.777 82.315 -63.517 85.626 -63.25 88.938 C-63.188 89.864 -63.126 90.79 -63.062 91.744 C-62.21 101.872 -58.365 109.037 -52.438 117.125 C-51.659 118.205 -51.659 118.205 -50.866 119.307 C-49.789 120.797 -48.709 122.285 -47.625 123.771 C-46.02 125.973 -44.429 128.184 -42.84 130.398 C-41.852 131.766 -40.864 133.133 -39.875 134.5 C-39.414 135.141 -38.953 135.782 -38.478 136.442 C-36.196 139.725 -36.196 139.725 -33 142 C-32.549 121.571 -37.637 111.438 -50.215 95.227 C-53.914 90.459 -57.415 85.634 -60.73 80.59 C-61.359 79.803 -61.359 79.803 -62 79 C-62.66 79 -63.32 79 -64 79 Z M-47 134 C-48.461 139.202 -47.139 141.617 -44.672 146.219 C-41.78 151.03 -38.667 155.742 -35 160 C-34.34 160 -33.68 160 -33 160 C-31.433 156.082 -32.51 152.764 -34 149 C-35.47 146.404 -37.166 144.023 -38.938 141.625 C-39.602 140.683 -39.602 140.683 -40.279 139.723 C-42.945 135.98 -42.945 135.98 -47 134 Z M-18 140 C-19.799 143.599 -18.891 147.807 -18.688 151.75 C-18.652 152.645 -18.617 153.539 -18.58 154.461 C-17.573 174.842 0.919 193.34 12.692 209.233 C13.575 210.426 14.456 211.619 15.335 212.813 C16.595 214.524 17.859 216.231 19.125 217.938 C19.849 218.916 20.574 219.894 21.32 220.902 C21.875 221.595 22.429 222.287 23 223 C23.33 223 23.66 223 24 223 C23.889 219.499 23.759 216 23.625 212.5 C23.594 211.518 23.563 210.535 23.531 209.523 C23.105 198.855 20.89 190.653 14.438 181.938 C13.735 180.987 13.032 180.037 12.309 179.059 C9.47 175.298 6.599 171.565 3.715 167.84 C0.4 163.549 -2.801 159.184 -5.977 154.789 C-8.278 151.616 -10.599 148.459 -12.938 145.312 C-13.689 144.298 -14.441 143.284 -15.215 142.238 C-16.098 141.13 -16.098 141.13 -17 140 C-17.33 140 -17.66 140 -18 140 Z M149.891 155.754 C149.004 156.192 149.004 156.192 148.1 156.639 C146.819 157.273 145.54 157.911 144.263 158.552 C140.789 160.296 137.299 162.005 133.809 163.715 C133.084 164.071 132.359 164.427 131.612 164.793 C123.915 168.558 116.123 172.103 108.312 175.625 C106.939 176.246 105.566 176.868 104.193 177.49 C98.767 179.947 93.339 182.399 87.906 184.84 C84.63 186.313 81.359 187.797 78.091 189.288 C76.303 190.101 74.51 190.901 72.716 191.702 C63.881 195.624 63.881 195.624 58 203 C57.755 207.266 57.815 211.54 57.812 215.812 C57.8 217.002 57.788 218.191 57.775 219.416 C57.773 220.564 57.772 221.712 57.77 222.895 C57.765 223.945 57.761 224.995 57.757 226.077 C58.007 229.088 58.732 231.274 60 234 C66.201 233.51 70.845 231.447 76.375 228.688 C77.336 228.218 78.297 227.749 79.288 227.265 C81.535 226.167 83.78 225.064 86.023 223.958 C91.46 221.278 96.91 218.626 102.359 215.971 C106.824 213.795 111.287 211.617 115.749 209.434 C123.49 205.648 131.233 201.869 139.023 198.184 C140.181 197.635 141.338 197.086 142.53 196.521 C144.602 195.542 146.677 194.569 148.755 193.602 C157.566 189.618 157.566 189.618 163 182 C163.307 179.032 163.307 179.032 163.266 175.773 C163.268 174.577 163.271 173.381 163.273 172.148 C163.262 170.281 163.262 170.281 163.25 168.375 C163.258 167.122 163.265 165.869 163.273 164.578 C163.27 162.788 163.27 162.788 163.266 160.961 C163.262 159.318 163.262 159.318 163.259 157.642 C163.267 154.844 163.267 154.844 161 153 C156.622 152.42 153.768 153.809 149.891 155.754 Z M11 218 C10.077 228.157 15.38 234.468 21.352 242.25 C22.981 244.257 22.981 244.257 26 245 C26.747 236.977 24.8 232.902 20.188 226.438 C19.64 225.62 19.093 224.802 18.529 223.959 C16.422 220.852 16.422 220.852 14 218 C13.01 218 12.02 218 11 218 Z " fill="#005CBD" transform="translate(237,142)"/>
  <ns0:path d="M0 0 C4.951 3.095 8.117 7.499 11.676 12.074 C14.302 15.38 17.045 18.563 19.812 21.75 C23.822 26.382 27.69 31.091 31.438 35.938 C35.87 41.665 40.53 47.153 45.3 52.601 C49.215 57.076 53.011 61.632 56.754 66.254 C59.319 69.39 61.937 72.477 64.562 75.562 C68.474 80.163 72.296 84.821 76.051 89.551 C80.535 95.185 85.076 100.773 89.77 106.234 C107.113 126.419 107.113 126.419 106.938 136.625 C105.783 140.783 104.389 142.364 101 145 C96.514 147.094 91.891 147.953 87 147 C78.574 143.623 73.565 135.863 68.36 128.832 C66.277 126.026 64.136 123.265 62 120.5 C61.176 119.426 60.351 118.352 59.527 117.277 C55.067 111.48 50.527 105.745 46 100 C37.015 88.593 28.096 77.135 19.188 65.668 C17.397 63.362 15.605 61.056 13.812 58.75 C12.939 57.627 12.939 57.627 12.049 56.481 C8.463 51.872 4.863 47.275 1.25 42.688 C-2.347 38.114 -5.936 33.536 -9.5 28.938 C-10.294 27.915 -11.088 26.893 -11.906 25.84 C-16.524 19.577 -18.834 14.92 -18 7 C-13.357 1.03 -7.548 -1.39 0 0 Z " fill="#737576" transform="translate(190,164)"/>
  <ns0:path d="M0 0 C3.777 2.854 7.19 5.955 10.617 9.215 C11.247 9.806 11.877 10.397 12.525 11.006 C15.707 14.005 18.837 17.046 21.918 20.148 C24.179 22.423 26.466 24.595 28.93 26.652 C32.338 29.585 35.524 32.703 38.68 35.902 C42.391 39.665 46.198 43.23 50.219 46.66 C53.272 49.373 56.094 52.308 58.961 55.215 C60.974 57.2 63.034 59.063 65.18 60.902 C68.151 63.449 70.931 66.116 73.68 68.902 C76.408 71.668 79.165 74.315 82.117 76.84 C86.209 80.346 89.949 84.157 93.734 87.988 C95.865 90.092 98.034 92.078 100.305 94.027 C113.803 105.632 113.803 105.632 114.555 113.152 C114.414 117.853 112.981 121.63 110.18 125.402 C105.899 128.446 102.367 128.968 97.18 128.402 C94.242 127.027 94.242 127.027 92.18 125.402 C92.18 124.742 92.18 124.082 92.18 123.402 C91.52 123.402 90.86 123.402 90.18 123.402 C88.813 122.017 88.813 122.017 87.195 120.051 C82.704 114.774 77.837 109.916 72.934 105.023 C71.954 104.043 70.974 103.062 69.994 102.081 C67.953 100.038 65.91 97.997 63.865 95.957 C61.265 93.363 58.67 90.765 56.076 88.165 C54.057 86.142 52.036 84.122 50.014 82.103 C48.597 80.687 47.182 79.269 45.767 77.851 C41.253 73.353 36.683 68.996 31.848 64.844 C29.871 63.135 27.994 61.346 26.145 59.5 C25.48 58.837 24.816 58.174 24.131 57.49 C23.466 56.822 22.802 56.153 22.117 55.465 C21.115 54.468 21.115 54.468 20.092 53.451 C16.157 49.509 12.418 45.465 8.823 41.211 C7.06 39.27 5.181 37.593 3.18 35.902 C-0.203 33.032 -3.045 29.966 -5.887 26.566 C-8.157 24.026 -10.634 21.781 -13.133 19.465 C-16.957 15.675 -19.238 12.784 -19.906 7.379 C-19.77 4.256 -18.947 2.666 -16.82 0.402 C-11.74 -2.736 -5.13 -2.906 0 0 Z " fill="#717374" transform="translate(295.8203125,131.59765625)"/>
  <ns0:path d="M0 0 C2.907 2.907 1.794 11.769 2 16 C2.101 17.82 2.101 17.82 2.203 19.676 C2.239 20.793 2.275 21.911 2.312 23.062 C2.369 24.565 2.369 24.565 2.426 26.098 C1.878 29.832 0.555 32.29 -2 35 C-5.059 37.07 -8.318 38.637 -11.645 40.23 C-12.605 40.706 -13.566 41.182 -14.556 41.673 C-17.634 43.193 -20.723 44.69 -23.812 46.188 C-25.816 47.174 -27.82 48.161 -29.822 49.15 C-40.889 54.602 -52.011 59.936 -63.146 65.246 C-68.121 67.619 -73.086 70.009 -78.031 72.445 C-79.429 73.13 -79.429 73.13 -80.855 73.828 C-82.684 74.725 -84.51 75.629 -86.332 76.539 C-91.275 78.944 -95.472 80.747 -101 81 C-103.956 78.044 -102.725 67.58 -102.896 63.343 C-102.982 61.395 -103.106 59.449 -103.238 57.504 C-103.283 56.574 -103.329 55.645 -103.375 54.688 C-103.424 53.908 -103.473 53.128 -103.523 52.324 C-102.685 48.602 -100.86 46.383 -98 44 C-93.893 41.553 -89.588 39.56 -85.25 37.562 C-83.963 36.956 -82.676 36.349 -81.389 35.74 C-70.392 30.562 -59.308 25.564 -48.227 20.566 C-27.32 11.153 -27.32 11.153 -6.847 0.855 C-4.459 -0.25 -2.599 -0.211 0 0 Z " fill="#22222E" transform="translate(398,295)"/>
  <ns0:path d="M0 0 C2.291 0.916 3.751 1.691 5.312 3.625 C6.743 8.566 5.192 13.773 3.875 18.625 C3.593 19.665 3.593 19.665 3.305 20.727 C-0.732 27.76 -8.587 31.144 -15.562 34.625 C-17.627 35.678 -19.691 36.733 -21.754 37.789 C-22.797 38.322 -23.84 38.854 -24.915 39.403 C-29.654 41.856 -34.327 44.424 -39 47 C-46.452 51.095 -53.95 55.087 -61.5 59 C-68.9 62.837 -76.254 66.742 -83.562 70.75 C-86.315 72.255 -89.068 73.759 -91.821 75.262 C-94.139 76.53 -96.456 77.799 -98.772 79.07 C-102.15 80.922 -105.534 82.761 -108.922 84.594 C-110.253 85.316 -111.583 86.043 -112.909 86.773 C-114.777 87.8 -116.651 88.814 -118.527 89.824 C-120.148 90.707 -120.148 90.707 -121.801 91.608 C-126.376 93.599 -130.238 94.539 -135.062 93.062 C-140.318 89.373 -144.114 84.16 -146 78 C-146.137 75.354 -146.191 72.825 -146.125 70.188 C-146.116 69.495 -146.107 68.802 -146.098 68.088 C-146.074 66.392 -146.038 64.696 -146 63 C-144.02 62.505 -144.02 62.505 -142 62 C-141.564 62.65 -141.129 63.299 -140.68 63.969 C-139.786 65.222 -139.786 65.222 -138.875 66.5 C-138.005 67.753 -138.005 67.753 -137.117 69.031 C-135.14 71.264 -135.14 71.264 -132.236 71.295 C-128.562 70.96 -126.352 69.987 -123.105 68.254 C-121.993 67.668 -120.881 67.082 -119.736 66.479 C-118.553 65.84 -117.37 65.202 -116.188 64.562 C-114.967 63.915 -113.746 63.268 -112.524 62.623 C-110.108 61.344 -107.696 60.058 -105.288 58.765 C-101.137 56.537 -96.975 54.33 -92.812 52.125 C-92.141 51.768 -91.469 51.41 -90.778 51.042 C-86.426 48.731 -82.04 46.5 -77.625 44.312 C-67.481 39.285 -57.452 34.035 -47.408 28.811 C-43.18 26.612 -38.948 24.419 -34.715 22.23 C-33.515 21.61 -32.315 20.989 -31.115 20.368 C-28.867 19.205 -26.62 18.043 -24.372 16.882 C-22.299 15.809 -20.228 14.73 -18.161 13.645 C-15.914 12.476 -13.663 11.334 -11.394 10.21 C-9.633 9.315 -9.633 9.315 -7.836 8.402 C-6.766 7.87 -5.697 7.337 -4.595 6.789 C-1.652 4.76 -0.942 3.393 0 0 Z " fill="#939697" transform="translate(413,365)"/>
  <ns0:path d="M0 0 C0.028 1.521 0.047 3.042 0.062 4.562 C0.074 5.409 0.086 6.256 0.098 7.129 C0.065 8.076 0.033 9.024 0 10 C-0.025 11.125 -0.05 12.25 -0.076 13.409 C-1 17 -1 17 -3.932 19.31 C-5.234 20.008 -6.551 20.68 -7.879 21.328 C-8.592 21.702 -9.304 22.075 -10.039 22.46 C-12.348 23.663 -14.673 24.831 -17 26 C-18.525 26.791 -20.048 27.585 -21.57 28.381 C-25.517 30.439 -29.479 32.467 -33.447 34.484 C-36.872 36.225 -40.292 37.973 -43.713 39.721 C-45.423 40.595 -47.133 41.468 -48.843 42.341 C-59.595 47.831 -70.304 53.402 -81 59 C-81.88 59.461 -82.761 59.922 -83.668 60.396 C-93.86 65.725 -93.86 65.725 -103.988 71.172 C-104.901 71.67 -104.901 71.67 -105.833 72.178 C-107.434 73.055 -109.032 73.937 -110.629 74.82 C-113 76 -113 76 -115 76 C-115.217 73.267 -115.375 70.55 -115.5 67.812 C-115.601 66.659 -115.601 66.659 -115.703 65.482 C-115.785 63.111 -115.698 61.271 -115 59 C-112.73 56.59 -109.969 55.397 -107 54 C-106.018 53.495 -105.035 52.991 -104.023 52.47 C-101.199 51.025 -98.363 49.61 -95.516 48.211 C-92.389 46.674 -89.269 45.122 -86.148 43.57 C-85.53 43.263 -84.912 42.956 -84.276 42.64 C-76.107 38.571 -68.05 34.297 -60 30 C-49.804 24.563 -39.572 19.23 -29.217 14.101 C-24.931 11.973 -20.654 9.829 -16.375 7.688 C-13.953 6.476 -11.531 5.265 -9.108 4.056 C-7.227 3.114 -5.352 2.161 -3.477 1.207 C-1 0 -1 0 0 0 Z " fill="#F9FAFA" transform="translate(405,357)"/>
  <ns0:path d="M0 0 C7.875 1.127 12.45 7.043 17.25 13 C31.139 32.199 46 61.593 46 86 C43.966 88.685 42.507 88.896 39.25 89.562 C31.878 88.287 27.77 83.038 23.562 77.188 C12.498 60.661 2.13 40.637 1.688 20.375 C1.65 19.248 1.613 18.122 1.574 16.961 C2 14 2 14 3.895 12.102 C6 11 6 11 8 11 C8 10.34 8 9.68 8 9 C7.169 9.559 7.169 9.559 6.32 10.129 C5.596 10.602 4.871 11.075 4.125 11.562 C3.406 12.038 2.686 12.514 1.945 13.004 C1.303 13.333 0.661 13.661 0 14 C-0.66 13.67 -1.32 13.34 -2 13 C-3.505 6.054 -3.505 6.054 -1.562 2 C-1.047 1.34 -0.531 0.68 0 0 Z M11 32 C8.397 42.649 13.646 52.961 19 62 C20.879 64.523 22.823 66.719 25 69 C27.475 68.505 27.475 68.505 30 68 C31.075 56.449 25.438 45.248 19 36 C17.144 33.648 17.144 33.648 15 32 C13.68 32 12.36 32 11 32 Z " fill="#293038" transform="translate(218,340)"/>
  <ns0:path d="M0 0 C3.673 3.491 6.684 7.136 9.562 11.312 C13.281 16.616 17.094 21.833 21 27 C24.886 32.164 28.762 37.335 32.562 42.562 C32.968 43.11 33.373 43.657 33.791 44.221 C38.987 51.428 40.524 57.907 41.188 66.562 C41.269 67.482 41.351 68.402 41.436 69.35 C41.826 73.912 42.099 78.417 42 83 C37.693 78.97 34.34 74.556 30.938 69.75 C30.374 68.961 29.81 68.173 29.229 67.361 C27.481 64.911 25.74 62.456 24 60 C23.463 59.244 22.927 58.489 22.374 57.71 C-0.152 25.996 -0.152 25.996 -0.098 16.699 C-0.094 15.723 -0.091 14.746 -0.088 13.74 C-0.08 12.733 -0.071 11.725 -0.062 10.688 C-0.058 9.661 -0.053 8.634 -0.049 7.576 C-0.037 5.051 -0.021 2.525 0 0 Z " fill="#252638" transform="translate(219,282)"/>
  <ns0:path d="M0 0 C3.462 0.141 5.397 0.484 8.055 2.758 C21.789 20.618 29.382 42.373 35 64 C35.944 67.358 36.897 70.691 38 74 C35.118 75.675 32.864 76.957 29.5 77.125 C18.286 72.079 11.446 52.718 7.352 41.945 C5.792 37.508 4.423 33.02 3.125 28.5 C2.909 27.758 2.694 27.017 2.472 26.252 C1.228 21.692 0.789 17.725 1 13 C0.34 13 -0.32 13 -1 13 C-2.177 10.647 -2.166 9.119 -2.188 6.5 C-2.202 5.706 -2.216 4.912 -2.23 4.094 C-2 2 -2 2 0 0 Z M9 27 C7.802 38.558 12.214 48.988 18.473 58.523 C20.125 60.463 20.125 60.463 24 60 C25.153 48.703 20.108 37.648 13.648 28.66 C13.104 28.112 12.56 27.564 12 27 C11.01 27 10.02 27 9 27 Z " fill="#272D35" transform="translate(144,230)"/>
  <ns0:path d="M0 0 C3.887 1.296 5.109 3.626 7.312 6.875 C8.193 8.146 9.076 9.415 9.961 10.684 C10.441 11.373 10.922 12.063 11.417 12.773 C13.129 15.181 14.889 17.548 16.664 19.91 C17.289 20.744 17.914 21.577 18.557 22.436 C19.788 24.074 21.024 25.708 22.265 27.337 C29.013 36.361 31.194 44.158 31.062 55.375 C31.058 56.111 31.053 56.847 31.049 57.605 C31.037 59.404 31.019 61.202 31 63 C26.555 58.861 23.128 54.26 19.625 49.312 C19.052 48.509 18.479 47.705 17.889 46.877 C16.76 45.293 15.634 43.707 14.509 42.12 C13.267 40.374 12.005 38.642 10.738 36.914 C10.144 36.097 9.55 35.28 8.938 34.438 C8.452 33.776 7.966 33.115 7.465 32.434 C3.029 25.063 1.322 18.495 0.75 9.938 C0.673 8.977 0.595 8.016 0.516 7.025 C0.329 4.684 0.158 2.343 0 0 Z " fill="#242436" transform="translate(173,221)"/>
  <ns0:path d="M0 0 C7.875 1.127 12.45 7.043 17.25 13 C30.498 31.314 41.041 54.613 45 77 C44.594 79.41 44.594 79.41 44 81 C41.522 74.227 39.109 67.499 37.125 60.562 C32.521 45.412 22.168 18.935 7.738 10.711 C7.165 10.476 6.591 10.242 6 10 C4.02 11.32 2.04 12.64 0 14 C-0.66 13.67 -1.32 13.34 -2 13 C-3.505 6.054 -3.505 6.054 -1.562 2 C-1.047 1.34 -0.531 0.68 0 0 Z " fill="#010102" transform="translate(218,340)"/>
  <ns0:path d="M0 0 C3.736 1.245 4.188 2.634 6 6 C10.195 5.401 14.01 4.425 18 3 C19.833 8.5 19.087 14.37 18 20 C14.973 23.238 13.374 23.848 9.039 24.328 C6 24 6 24 3.848 22.305 C-1.083 15.594 -1.523 10.916 -0.465 2.711 C-0.311 1.816 -0.158 0.922 0 0 Z " fill="#F7A908" transform="translate(272,413)"/>
  <ns0:path d="M0 0 C2.774 1.261 4.483 2.311 6.312 4.75 C7.312 8.021 7.358 10.597 7 14 C5.06 17.433 3.858 18.702 0.125 20 C-3.784 20 -5.756 19.163 -9 17 C-11.22 14.262 -11.929 12.486 -12.438 9 C-11.894 5.276 -10.595 3.671 -8 1 C-5.18 -0.41 -3.13 -0.245 0 0 Z " fill="#7F8082" transform="translate(140,152)"/>
  <ns0:path d="M0 0 C2.964 0.335 4.609 0.643 6.844 2.68 C14.318 12.586 19.525 23.397 19 36 C16.525 36.495 16.525 36.495 14 37 C6.531 29.349 -0.267 17.916 -1 7 C-0.864 4.563 -0.51 2.398 0 0 Z " fill="#848689" transform="translate(229,372)"/>
  <ns0:path d="M0 0 C3.748 2.082 4.795 3.295 6 7.438 C6 11.457 5.551 12.938 3 16 C0.312 18.122 -1.119 19.021 -4.562 18.938 C-7.649 17.75 -9.031 16.672 -11 14 C-12.073 10.066 -12.42 7.945 -10.75 4.188 C-7.523 0.153 -5.01 -0.601 0 0 Z " fill="#7B7C7F" transform="translate(245,118)"/>
  <ns0:path d="M0 0 C3.462 0.141 5.397 0.484 8.055 2.758 C15.347 12.242 23.018 24.26 26 36 C25.67 36.99 25.34 37.98 25 39 C24.492 37.949 23.984 36.899 23.461 35.816 C16.956 21.16 16.956 21.16 6 10 C3.818 9.222 3.818 9.222 2 9 C1.67 10.32 1.34 11.64 1 13 C0.34 13 -0.32 13 -1 13 C-2.177 10.647 -2.166 9.119 -2.188 6.5 C-2.202 5.706 -2.216 4.912 -2.23 4.094 C-2 2 -2 2 0 0 Z " fill="#030305" transform="translate(144,230)"/>
  <ns0:path d="M0 0 C0.258 0.554 0.516 1.109 0.781 1.68 C2.166 4.316 3.812 6.672 5.5 9.125 C9.682 15.62 11 21.349 11 29 C8 30 8 30 5.625 29.062 C-0.263 24.436 -2.467 18.615 -3.738 11.395 C-4.013 8.877 -4.181 6.529 -4 4 C-2 1.688 -2 1.688 0 0 Z " fill="#8D8F92" transform="translate(128,211)"/>
  <ns0:path d="M0 0 C2.877 0.328 3.849 0.826 5.781 3.047 C11.65 12.277 15.872 21.886 15 33 C11.93 32.694 10.431 32.483 8.34 30.137 C2.795 20.452 -0.9 11.297 0 0 Z " fill="#82868A" transform="translate(153,257)"/>
  <ns0:path d="M0 0 C2.464 0.38 3.717 0.704 5.464 2.531 C6.915 4.674 8.348 6.825 9.75 9 C10.257 9.731 10.763 10.462 11.285 11.215 C14.884 16.735 15.547 20.438 15 27 C11.116 25.236 9.42 23.251 6.938 19.75 C6.266 18.817 5.594 17.883 4.902 16.922 C0.954 10.857 -0.368 7.106 0 0 Z " fill="#009FE4" transform="translate(248,360)"/>
  <ns0:path d="M0 0 C4.651 1.529 6.626 5.295 9.188 9.188 C9.638 9.835 10.089 10.483 10.553 11.15 C13.382 15.397 14.772 18.774 15 24 C14.67 24.66 14.34 25.32 14 26 C10.732 24.911 10.389 24.521 8.59 21.797 C8.157 21.146 7.725 20.495 7.279 19.824 C6.837 19.14 6.394 18.455 5.938 17.75 C5.491 17.081 5.044 16.412 4.584 15.723 C-1.247 6.85 -1.247 6.85 -0.625 2.188 C-0.419 1.466 -0.213 0.744 0 0 Z " fill="#009AD5" transform="translate(190,276)"/>
  <ns0:path d="M0 0 C0.338 1.895 0.671 3.791 1 5.688 C1.186 6.743 1.371 7.799 1.562 8.887 C1.951 11.649 2.083 14.217 2 17 C0.35 17.66 -1.3 18.32 -3 19 C-6.062 16.508 -6.578 14.402 -7.188 10.562 C-7.346 9.615 -7.505 8.668 -7.668 7.691 C-8 5 -8 5 -8 1 C-5.108 0.174 -3.113 0 0 0 Z " fill="#252D36" transform="translate(145,171)"/>
  <ns0:path d="M0 0 C-0.114 2.418 -0.241 4.833 -0.375 7.25 C-0.421 8.273 -0.421 8.273 -0.469 9.316 C-0.681 12.967 -0.917 15.932 -3 19 C-5.621 20.691 -6.826 21 -10 21 C-10.272 6.527 -10.272 6.527 -7.188 2.824 C-2.522 0 -2.522 0 0 0 Z " fill="#F7A30E" transform="translate(414,352)"/>
  <ns0:path d="M0 0 C1.98 0 3.96 0 6 0 C6 5.94 6 11.88 6 18 C1 19 1 19 -1 18 C-1.027 15.187 -1.047 12.375 -1.062 9.562 C-1.071 8.76 -1.079 7.958 -1.088 7.131 C-1.097 5.087 -1.052 3.043 -1 1 C-0.67 0.67 -0.34 0.34 0 0 Z " fill="#252F38" transform="translate(238,137)"/>
  <ns0:path d="M0 0 C5.969 5.816 5.969 5.816 6.098 10.695 C6.091 12.172 6.079 13.648 6.062 15.125 C6.058 15.879 6.053 16.633 6.049 17.41 C6.037 19.273 6.019 21.137 6 23 C5.34 23 4.68 23 4 23 C-0.348 18.639 -1.348 14.153 -1.375 8.125 C-1.202 2.405 -1.202 2.405 0 0 Z " fill="#E7EEF3" transform="translate(266,403)"/>
  <ns0:path d="M0 0 C2 2.5 2 2.5 4 5 C4.717 5.767 5.433 6.534 6.172 7.324 C8.482 10.705 8.885 13.837 9.25 17.812 C9.327 18.505 9.405 19.198 9.484 19.912 C9.671 21.606 9.838 23.303 10 25 C9.34 25 8.68 25 8 25 C1.245 17.355 -0.102 9.966 0 0 Z " fill="#E39C13" transform="translate(128,201)"/>
  <ns0:path d="M0 0 C3.086 2.433 3.949 3.772 4.828 7.672 C4.986 9.029 5.127 10.389 5.25 11.75 C5.327 12.447 5.405 13.145 5.484 13.863 C5.672 15.574 5.838 17.287 6 19 C5.34 19 4.68 19 4 19 C1.562 15.343 1.328 12.067 0.875 7.812 C0.789 7.063 0.702 6.313 0.613 5.541 C0.402 3.695 0.2 1.848 0 0 Z " fill="#E2E7E8" transform="translate(132,207)"/>
  <ns0:path d="M0 0 C3.3 1.98 6.6 3.96 10 6 C9.01 6.99 8.02 7.98 7 9 C4.438 8.875 4.438 8.875 2 8 C0 5 0 5 0 0 Z " fill="#4E5762" transform="translate(267,304)"/>
  <ns0:path d="M0 0 C1.98 0 3.96 0 6 0 C6 1.32 6 2.64 6 4 C1.25 5.125 1.25 5.125 -1 4 C-0.67 2.68 -0.34 1.36 0 0 Z " fill="#15181B" transform="translate(238,137)"/>
  <ns0:path d="M0 0 C0.33 0 0.66 0 1 0 C1.33 3.3 1.66 6.6 2 10 C1.34 10 0.68 10 0 10 C-0.66 9.01 -1.32 8.02 -2 7 C-1.67 6.01 -1.34 5.02 -1 4 C-0.658 2.669 -0.322 1.336 0 0 Z " fill="#B3C6D8" transform="translate(136,216)"/>
  <ns0:path d="M0 0 C3.243 0.559 4.931 1.413 7 4 C7 4.66 7 5.32 7 6 C4.03 5.505 4.03 5.505 1 5 C0.67 3.35 0.34 1.7 0 0 Z " fill="#434C5B" transform="translate(288,158)"/>
  <ns0:path d="M0 0 C0 0.66 0 1.32 0 2 C-3 4 -3 4 -5.188 3.625 C-5.786 3.419 -6.384 3.213 -7 3 C-7 2.34 -7 1.68 -7 1 C-4.509 0.313 -2.621 0 0 0 Z " fill="#1A1C1E" transform="translate(144,171)"/>
</svg>