<?xml version="1.0" ?>
<svg xmlns:ns0="http://www.w3.org/2000/svg" xmlns="http://www.w3.org/2000/svg" width="512" height="512" viewBox="0 0 512 512" style="background-color: transparent;">
  <ns0:path d="M0 0 C3.376 3.645 5.413 5.919 6.637 10.812 C9.937 10.483 13.237 10.153 16.637 9.812 C16.967 8.822 17.297 7.833 17.637 6.812 C19.303 8.479 20.97 10.146 22.637 11.812 C23.601 12.702 23.601 12.702 24.585 13.61 C26.962 16.161 28.507 18.759 30.211 21.801 C30.536 22.376 30.861 22.951 31.196 23.543 C31.887 24.768 32.575 25.994 33.261 27.221 C35.052 30.427 36.863 33.621 38.672 36.816 C39.023 37.439 39.375 38.062 39.737 38.704 C42.833 44.181 46.053 49.57 49.316 54.949 C53.016 61.072 56.583 67.274 60.179 73.458 C64.895 81.559 69.658 89.632 74.462 97.682 C81.637 109.759 81.637 109.759 81.637 112.812 C75.055 115.689 68.636 117.127 61.637 114.812 C58.937 112.508 57.335 109.903 55.637 106.812 C55.226 106.124 54.814 105.436 54.391 104.727 C53.437 103.109 52.531 101.464 51.637 99.812 C42.632 101.804 34.213 104.701 25.637 108.062 C23.072 109.055 20.505 110.042 17.938 111.027 C17.309 111.269 16.68 111.511 16.032 111.761 C10.664 113.819 5.26 115.754 -0.176 117.625 C-8.631 120.537 -17.008 123.627 -25.363 126.812 C-25.418 128.625 -25.457 130.437 -25.488 132.25 C-25.511 133.259 -25.535 134.269 -25.559 135.309 C-25.395 138.236 -25.005 140.696 -24.351 143.531 C-24.167 144.335 -23.983 145.139 -23.794 145.967 C-23.581 146.88 -23.581 146.88 -23.363 147.812 C-24.274 148.127 -24.274 148.127 -25.203 148.449 C-31.629 150.672 -38.055 152.895 -44.481 155.118 C-46.867 155.944 -49.252 156.769 -51.638 157.594 C-53.955 158.396 -56.272 159.197 -58.589 160 C-60.884 160.793 -63.178 161.584 -65.474 162.373 C-70.78 164.2 -76.066 166.059 -81.318 168.035 C-82.688 168.542 -82.688 168.542 -84.085 169.059 C-85.766 169.684 -87.442 170.323 -89.112 170.98 C-92.863 172.362 -94.771 172.936 -98.775 172.104 C-101.631 170.679 -103.168 169.278 -105.176 166.812 C-106.052 165.761 -106.052 165.761 -106.945 164.688 C-108.363 162.812 -108.363 162.812 -109.363 160.812 C-114.27 161.395 -118.686 162.415 -123.363 164 C-124.342 164.33 -124.342 164.33 -125.34 164.667 C-129.72 166.169 -133.973 167.884 -138.238 169.688 C-148.952 174.078 -160.201 176.806 -171.363 179.812 C-175.704 180.684 -175.704 180.684 -179.363 182.812 C-179.464 185.407 -179.502 187.969 -179.488 190.562 C-179.492 191.279 -179.496 191.996 -179.5 192.734 C-179.493 196.553 -179.284 200.102 -178.363 203.812 C-180.449 204.68 -180.449 204.68 -183.363 204.812 C-185.818 202.927 -187.838 201.126 -189.988 198.938 C-191.234 197.723 -192.483 196.51 -193.734 195.301 C-194.656 194.403 -194.656 194.403 -195.597 193.487 C-197.977 191.23 -200.489 189.171 -203.051 187.125 C-207.748 183.363 -212.173 179.37 -216.598 175.293 C-219.368 172.808 -222.214 170.458 -225.113 168.125 C-229.484 164.6 -233.514 160.898 -237.363 156.812 C-233.352 156.812 -231.62 158.574 -228.363 160.812 C-219.731 163.69 -211.344 161.61 -203.363 157.812 C-187.769 149.856 -175.736 135.96 -169.148 119.84 C-166.937 112.757 -165.279 104.084 -168.641 97.195 C-170.187 94.826 -170.187 94.826 -171.855 92.75 C-174.009 89.983 -175.375 88.028 -175.34 84.453 C-175.224 83.664 -175.108 82.875 -174.988 82.062 C-174.877 81.263 -174.767 80.464 -174.652 79.641 C-174.557 79.037 -174.462 78.434 -174.363 77.812 C-174.033 77.812 -173.703 77.812 -173.363 77.812 C-173.363 80.452 -173.363 83.092 -173.363 85.812 C-167.384 83.88 -161.507 81.779 -155.676 79.438 C-154.844 79.104 -154.013 78.771 -153.156 78.428 C-141.339 73.646 -129.666 68.511 -117.997 63.382 C-115.486 62.297 -112.976 61.243 -110.44 60.22 C-109.803 59.959 -109.165 59.697 -108.508 59.428 C-106.743 58.708 -104.974 57.999 -103.205 57.292 C-100.262 55.76 -99 54.66 -97.363 51.812 C-96.756 49.113 -96.756 49.113 -96.488 46.188 C-93.975 29.371 -80.427 15.768 -67.363 5.812 C-65.05 4.385 -62.761 3.084 -60.363 1.812 C-58.791 0.969 -58.791 0.969 -57.188 0.109 C-39.751 -9.053 -16.236 -15.028 0 0 Z M-76.426 26 C-76.857 26.568 -77.288 27.136 -77.732 27.721 C-84.931 37.421 -89.386 46.941 -87.891 59.152 C-86.445 66.447 -82.183 71.604 -77.504 77.219 C-76.073 78.953 -74.687 80.725 -73.348 82.531 C-67.994 89.697 -63.253 93.381 -54.363 94.812 C-37.548 96.108 -23.527 90.937 -10.711 80.054 C-0.353 70.832 9.691 58.033 10.793 43.793 C11.217 33.418 6.656 26.924 0.637 18.812 C0.139 18.085 -0.358 17.358 -0.871 16.609 C-6.226 8.943 -13.015 3.506 -22.363 1.812 C-43.009 -0.601 -63.986 9.512 -76.426 26 Z " fill="#000001" transform="translate(356.36328125,178.1875)"/>
  <ns0:path d="M0 0 C5.61 4.308 8.726 10.804 12.25 16.812 C12.909 17.925 13.568 19.038 14.246 20.184 C16.174 23.45 18.09 26.724 20 30 C20.778 31.329 20.778 31.329 21.572 32.684 C22.87 34.909 24.158 37.139 25.438 39.375 C25.808 40.015 26.179 40.656 26.562 41.316 C28.135 44.11 29 45.735 29 49 C27.564 49.506 26.126 50.004 24.688 50.5 C23.887 50.778 23.086 51.057 22.262 51.344 C20 52 20 52 17 52 C17 52.66 17 53.32 17 54 C13.37 55.32 9.74 56.64 6 58 C6.66 63.94 7.32 69.88 8 76 C11.96 74.515 11.96 74.515 16 73 C16.509 74.56 17.007 76.123 17.5 77.688 C17.918 78.993 17.918 78.993 18.344 80.324 C18.999 82.994 19.118 85.264 19 88 C13.043 89.855 13.043 89.855 11 90 C8.561 88.152 7.073 85.705 5.375 83.188 C-0.165 75.705 -7.867 71.753 -16.938 70.25 C-32.708 68.821 -48.048 74.398 -61 83 C-61.99 83.598 -62.98 84.196 -64 84.812 C-73.957 92.073 -83.364 100.936 -89 112 C-89.536 112.887 -90.072 113.774 -90.625 114.688 C-92.325 118.782 -92.786 122.708 -93.277 127.098 C-94.17 130.683 -95.479 132.303 -98 135 C-100.875 136.618 -100.875 136.618 -104.215 138.016 C-104.818 138.273 -105.422 138.53 -106.044 138.795 C-108.003 139.627 -109.97 140.438 -111.938 141.25 C-113.298 141.823 -114.658 142.397 -116.017 142.973 C-118.736 144.122 -121.458 145.264 -124.183 146.4 C-128.457 148.186 -132.707 150.026 -136.956 151.87 C-144.41 155.101 -151.884 158.204 -159.504 161.027 C-161.97 161.923 -161.97 161.923 -164.027 163.129 C-166.456 164.201 -168.374 164.146 -171 164 C-171.086 163.264 -171.173 162.528 -171.262 161.77 C-172.147 155.621 -172.833 151.937 -178 148 C-178.681 147.423 -179.361 146.845 -180.062 146.25 C-186.333 142.204 -195.892 143.39 -202.875 144.812 C-206.531 145.731 -209.645 147.284 -213 149 C-214.32 149 -215.64 149 -217 149 C-217.33 149.99 -217.66 150.98 -218 152 C-220.062 152.688 -220.062 152.688 -222 153 C-222 153.66 -222 154.32 -222 155 C-223.979 156.364 -225.982 157.694 -228 159 C-228.577 159.577 -229.155 160.155 -229.75 160.75 C-230.369 161.369 -230.369 161.369 -231 162 C-231.66 162 -232.32 162 -233 162 C-233.66 163.32 -234.32 164.64 -235 166 C-235.66 166 -236.32 166 -237 166 C-237.248 166.552 -237.495 167.103 -237.75 167.672 C-239.242 170.451 -241.037 172.781 -243 175.25 C-244.052 176.588 -244.052 176.588 -245.125 177.953 C-246.053 178.966 -246.053 178.966 -247 180 C-247.66 180 -248.32 180 -249 180 C-249.248 180.969 -249.495 181.939 -249.75 182.938 C-251.039 187.494 -253 191.718 -255 196 C-255.66 196 -256.32 196 -257 196 C-257.144 197.134 -257.289 198.269 -257.438 199.438 C-258 203 -258 203 -259 204 C-261 204.041 -263 204.043 -265 204 C-264.608 198.045 -263.629 193.372 -261 188 C-260.34 188 -259.68 188 -259 188 C-259.041 186.824 -259.082 185.649 -259.125 184.438 C-259.14 180.276 -258.312 176.935 -257 173 C-257.892 173.361 -258.784 173.722 -259.703 174.094 C-260.874 174.558 -262.044 175.022 -263.25 175.5 C-264.41 175.964 -265.57 176.428 -266.766 176.906 C-270 178 -270 178 -274 178 C-273.744 176.06 -273.47 174.123 -273.188 172.188 C-272.961 170.569 -272.961 170.569 -272.73 168.918 C-271.982 165.93 -271.472 164.774 -269 163 C-268.34 163 -267.68 163 -267 163 C-266.82 162.417 -266.639 161.835 -266.453 161.234 C-264.313 157.943 -261.221 156.802 -257.75 155.25 C-257.094 154.934 -256.438 154.618 -255.762 154.293 C-251.684 152.42 -248.575 151.631 -244 152 C-243.67 152.99 -243.34 153.98 -243 155 C-242.67 152.69 -242.34 150.38 -242 148 C-239.69 147.67 -237.38 147.34 -235 147 C-234.67 146.01 -234.34 145.02 -234 144 C-231.331 142.532 -228.707 141.252 -225.938 140 C-224.685 139.391 -224.685 139.391 -223.408 138.769 C-218.61 136.471 -213.945 134.633 -208.82 133.195 C-197.906 129.912 -197.906 129.912 -189.886 122.23 C-185.511 113.65 -183.21 104.218 -180.793 94.947 C-177.703 83.591 -170.974 77.175 -161.07 71.246 C-151.351 65.87 -141.219 61.331 -131.135 56.688 C-121.203 52.112 -111.315 47.443 -101.438 42.75 C-100.59 42.348 -99.743 41.945 -98.87 41.531 C-86.755 35.775 -74.679 29.943 -62.625 24.062 C-52.271 19.013 -41.894 14.023 -31.438 9.188 C-29.904 8.477 -29.904 8.477 -28.34 7.752 C-7.204 -1.949 -7.204 -1.949 0 0 Z M-31.75 20 C-32.718 20.431 -33.686 20.861 -34.683 21.305 C-38.13 22.851 -41.567 24.422 -45 26 C-45.7 26.321 -46.401 26.642 -47.122 26.973 C-51.734 29.089 -56.34 31.218 -60.94 33.361 C-62.477 34.077 -64.015 34.792 -65.554 35.505 C-67.732 36.516 -69.905 37.536 -72.078 38.559 C-72.733 38.861 -73.389 39.164 -74.064 39.476 C-78.59 41.539 -78.59 41.539 -82 45 C-82.428 47.284 -82.428 47.284 -82.328 49.816 C-82.323 50.745 -82.318 51.674 -82.312 52.631 C-82.282 54.082 -82.282 54.082 -82.25 55.562 C-82.245 56.534 -82.24 57.505 -82.234 58.506 C-82.364 63.414 -82.364 63.414 -81 68 C-74.973 67.46 -70.077 64.93 -64.688 62.375 C-62.555 61.379 -60.422 60.384 -58.289 59.391 C-57.132 58.85 -55.975 58.309 -54.782 57.752 C-50.669 55.839 -46.535 53.973 -42.398 52.109 C-41.666 51.779 -40.935 51.449 -40.18 51.109 C-37.259 49.791 -34.338 48.473 -31.414 47.161 C-23.775 43.732 -16.214 40.279 -9 36 C-8.732 31.288 -9.499 28.065 -11.375 23.75 C-11.816 22.714 -12.257 21.677 -12.711 20.609 C-13.866 17.92 -13.866 17.92 -16 16 C-21.888 15.122 -26.521 17.628 -31.75 20 Z M-17.062 46.25 C-17.77 46.55 -18.477 46.851 -19.205 47.16 C-23.131 48.893 -26.347 50.491 -29 54 C-28.857 57.2 -28.857 57.2 -28 60 C-22.921 61.776 -19.604 59.949 -15 57.812 C-14.301 57.508 -13.603 57.203 -12.883 56.889 C-8.778 55.041 -5.408 53.002 -2 50 C-2.275 46.182 -2.275 46.182 -4 43 C-8.909 42.367 -12.694 44.288 -17.062 46.25 Z M-116.508 60.113 C-117.568 60.615 -118.629 61.117 -119.722 61.634 C-120.845 62.188 -121.968 62.742 -123.125 63.312 C-124.279 63.867 -125.433 64.422 -126.622 64.993 C-128.969 66.121 -131.314 67.255 -133.655 68.395 C-136.659 69.836 -139.679 71.216 -142.727 72.562 C-143.582 72.946 -144.438 73.33 -145.32 73.725 C-146.886 74.426 -148.458 75.116 -150.036 75.792 C-155.266 78.185 -158.846 81.146 -162 86 C-163.109 88.696 -163.109 88.696 -163.375 91.375 C-163.504 92.307 -163.633 93.239 -163.766 94.199 C-164.097 98.163 -164.13 102.024 -164 106 C-159.877 105.438 -156.442 104.513 -152.648 102.812 C-151.641 102.365 -150.634 101.918 -149.597 101.457 C-148.534 100.976 -147.47 100.495 -146.375 100 C-144.726 99.262 -144.726 99.262 -143.044 98.51 C-140.789 97.5 -138.535 96.487 -136.282 95.472 C-133.224 94.101 -130.158 92.751 -127.086 91.41 C-125.307 90.628 -123.529 89.845 -121.75 89.062 C-120.936 88.71 -120.122 88.357 -119.283 87.994 C-111.65 84.672 -111.65 84.672 -106.695 78.242 C-105.892 74.494 -105.779 70.934 -105.875 67.125 C-105.884 66.437 -105.893 65.748 -105.902 65.039 C-105.926 63.359 -105.962 61.68 -106 60 C-110.317 57.733 -112.172 58.015 -116.508 60.113 Z M-117.527 90.766 C-118.402 91.161 -119.277 91.557 -120.178 91.965 C-121.088 92.389 -121.999 92.813 -122.938 93.25 C-124.298 93.863 -124.298 93.863 -125.686 94.488 C-131.665 97.208 -131.665 97.208 -137 101 C-137.481 103.049 -137.481 103.049 -137.25 105.188 C-137.167 106.446 -137.085 107.704 -137 109 C-131.165 108.447 -126.458 106.13 -121.25 103.625 C-120.388 103.225 -119.525 102.826 -118.637 102.414 C-117.813 102.022 -116.989 101.63 -116.141 101.227 C-115.393 100.872 -114.646 100.517 -113.876 100.151 C-111.691 98.991 -111.691 98.991 -110 96 C-109.833 92.875 -109.833 92.875 -110 90 C-113.594 88.802 -114.19 89.244 -117.527 90.766 Z " fill="#005AB9" transform="translate(354,100)"/>
  <ns0:path d="M0 0 C5.751 3.864 9.183 8.974 12.859 14.75 C13.505 15.723 14.151 16.696 14.816 17.699 C20.062 25.701 22.146 31.538 20.434 41.137 C16.085 57.703 4.138 70.65 -9.855 79.84 C-21.643 86.693 -33.487 89.661 -47.102 87.219 C-56.647 84.582 -61.309 78.372 -67.141 70.75 C-67.863 69.844 -68.584 68.938 -69.328 68.004 C-75.148 60.461 -78.595 53.937 -78.078 44.25 C-76.643 33.609 -71.661 26.079 -65.141 17.75 C-64.377 16.698 -63.614 15.646 -62.828 14.562 C-56.184 7.609 -47.953 2.502 -39.141 -1.25 C-38.228 -1.643 -37.315 -2.036 -36.375 -2.441 C-23.771 -7.278 -11.623 -6.787 0 0 Z M-54.141 26.75 C-57.247 31.593 -56.852 37.213 -56.141 42.75 C-54.139 46.043 -52.829 47.188 -49.191 48.398 C-42.639 49.645 -36.958 47.757 -31.141 44.75 C-28.176 42.666 -25.648 40.36 -23.141 37.75 C-22.383 36.988 -22.383 36.988 -21.609 36.211 C-17.608 31.861 -16.03 27.506 -16.266 21.625 C-17.292 18.252 -18.733 16.303 -21.141 13.75 C-33.683 7.479 -46.574 17.634 -54.141 26.75 Z " fill="#282F36" transform="translate(346.140625,185.25)"/>
  <ns0:path d="M0 0 C2.842 2.675 5.251 5.501 7 9 C6.89 10.668 6.762 12.334 6.625 14 C6.506 20.969 9.748 24.79 14 30 C16.955 35.911 15.21 44.273 13.562 50.375 C7.686 67.474 -5.919 82.796 -22 91 C-29.031 94.345 -36.192 96.481 -44 95 C-50.066 92.677 -54.812 89.033 -59.625 84.75 C-60.279 84.171 -60.934 83.592 -61.608 82.995 C-69.428 75.956 -73.729 70.693 -75 60 C-75.66 60 -76.32 60 -77 60 C-78.58 48.939 -72.894 39.887 -66.655 31.108 C-53.781 14.18 -23.343 -14.395 0 0 Z M-49 35 C-52.493 40.782 -54.711 46.128 -54 53 C-51.526 56.524 -50.054 57.793 -45.812 58.625 C-37.322 57.233 -30.219 52.822 -25 46 C-21.456 40.576 -19.136 35.493 -19.59 28.918 C-19.938 26.798 -19.938 26.798 -21.5 24.438 C-31.35 18.774 -42.99 27.215 -49 35 Z " fill="#262C34" transform="translate(175,246)"/>
  <ns0:path d="M0 0 C1.485 2.358 2.793 4.656 4.062 7.125 C4.589 8.103 4.589 8.103 5.127 9.102 C10.182 18.733 11.304 26.902 8.5 37.375 C6.211 44.283 2.672 49.48 -2 55 C-2.572 55.719 -3.145 56.439 -3.734 57.18 C-11.721 66.261 -25.127 72.126 -37.055 73.301 C-46.682 73.341 -54.687 72.202 -61.852 65.359 C-79.21 46.297 -79.21 46.297 -79.062 32.75 C-79.049 31.134 -79.049 31.134 -79.035 29.484 C-79.024 28.665 -79.012 27.845 -79 27 C-72.796 23.912 -66.523 21.429 -59.938 19.312 C-52.241 16.835 -44.717 14.006 -37.188 11.062 C-28.863 7.824 -20.521 4.684 -12.062 1.812 C-11.187 1.509 -10.311 1.206 -9.409 0.893 C-8.203 0.491 -8.203 0.491 -6.973 0.082 C-6.274 -0.153 -5.575 -0.388 -4.856 -0.63 C-3 -1 -3 -1 0 0 Z " fill="#1A1E22" transform="translate(409,278)"/>
  <ns0:path d="M0 0 C8.292 6.12 12.882 18.353 17.625 27.25 C18.868 29.571 20.111 31.891 21.355 34.211 C21.971 35.359 22.586 36.507 23.22 37.69 C25.77 42.431 28.352 47.154 30.938 51.875 C38.041 64.873 45.063 77.913 52 91 C52.455 91.855 52.91 92.71 53.378 93.59 C65.719 116.903 65.719 116.903 64 127 C59.719 132.147 53.31 134.526 46.727 135.25 C44.812 135.25 44.812 135.25 42 135 C40.825 132.231 39.89 129.574 39.133 126.656 C38.034 123.111 36.767 120.654 34.75 117.562 C30.863 111.464 27.192 105.254 23.562 99 C22.349 96.913 21.136 94.825 19.922 92.738 C19.288 91.649 18.655 90.559 18.002 89.436 C14.817 83.969 11.612 78.513 8.409 73.056 C2.308 62.662 -3.773 52.257 -9.801 41.82 C-10.172 41.181 -10.542 40.542 -10.925 39.883 C-11.655 38.604 -12.37 37.315 -13.07 36.019 C-15.487 31.583 -17.76 29.706 -22 27 C-25.658 21.842 -26.913 16.278 -27 10 C-24.025 5.24 -19.041 3.176 -14 1 C-13.01 0.567 -12.02 0.134 -11 -0.312 C-7.07 -1.213 -3.862 -1.204 0 0 Z " fill="#8A8C8E" transform="translate(397,161)"/>
  <ns0:path d="M0 0 C-0.165 0.857 -0.33 1.714 -0.5 2.598 C-1.649 9.107 -1.649 9.107 0.363 15.105 C2.487 16.897 4.706 18.434 7 20 C8.687 21.477 10.353 22.978 12 24.5 C15.135 27.325 18.273 30.145 21.438 32.938 C22.364 33.755 22.364 33.755 23.309 34.59 C25.156 36.181 25.156 36.181 28 38 C28 38.66 28 39.32 28 40 C28.597 40.267 29.194 40.534 29.809 40.809 C32.046 42.025 33.344 43.204 35.062 45.062 C37.962 48.055 41.003 50.7 44.25 53.312 C48.121 56.427 51.846 59.633 55.5 63 C59.036 66.255 62.628 69.366 66.375 72.375 C70.711 75.908 74.994 79.488 79.188 83.188 C79.765 83.675 80.342 84.162 80.937 84.664 C83.646 87.096 84.92 88.569 85.594 92.191 C85 95 85 95 83.426 96.609 C82.728 96.986 82.031 97.362 81.312 97.75 C80.574 98.151 79.835 98.552 79.074 98.965 C78.39 99.306 77.705 99.648 77 100 C76.216 100.433 75.433 100.866 74.625 101.312 C69.606 102.627 64.217 103.122 59.508 100.738 C56.849 98.895 54.361 96.945 51.875 94.875 C50.911 94.076 49.947 93.277 48.953 92.453 C47.979 91.644 47.004 90.834 46 90 C44.209 88.541 42.418 87.082 40.625 85.625 C36.547 82.291 32.514 78.909 28.5 75.5 C23.731 71.45 18.921 67.456 14.07 63.504 C-21.524 34.476 -21.524 34.476 -28 28 C-28.48 20.555 -28.153 11.85 -23.234 5.844 C-20.764 3.805 -18.434 2.59 -15.5 1.312 C-14.562 0.896 -13.623 0.48 -12.656 0.051 C-7.483 -1.996 -5.349 -2.067 0 0 Z " fill="#898B8D" transform="translate(89,294)"/>
  <ns0:path d="M0 0 C1.766 1.926 1.766 1.926 3.25 4.312 C3.75 5.092 4.25 5.872 4.766 6.676 C8.204 13.15 8.077 21.164 6.129 28.102 C3.375 35.091 -0.413 41.079 -5 47 C-5.615 47.825 -6.23 48.65 -6.863 49.5 C-13.837 57.66 -23.686 64.214 -34.453 65.371 C-46.664 65.8 -52.051 62.171 -60.79 54.149 C-66.869 48.402 -71.858 42.603 -72.434 33.922 C-72.451 32.531 -72.452 31.141 -72.438 29.75 C-72.457 29.044 -72.477 28.337 -72.498 27.609 C-72.496 25.547 -72.496 25.547 -72 22 C-69.312 19.466 -66.84 18.475 -63.281 17.641 C-62.359 17.416 -61.436 17.191 -60.486 16.959 C-59.501 16.725 -58.515 16.491 -57.5 16.25 C-42.784 12.588 -28.756 7.482 -14.637 2.004 C-5.083 -1.634 -5.083 -1.634 0 0 Z " fill="#15181D" transform="translate(248,339)"/>
  <ns0:path d="M0 0 C3.055 2.053 3.966 4.929 5.188 8.312 C5.532 9.237 5.876 10.161 6.23 11.113 C7.051 14.193 7.136 16.827 7 20 C-6.909 27.154 -21.095 33.718 -35.289 40.281 C-38.759 41.887 -42.224 43.506 -45.688 45.125 C-47.666 46.042 -49.646 46.959 -51.625 47.875 C-52.974 48.509 -52.974 48.509 -54.35 49.156 C-55.176 49.535 -56.001 49.914 -56.852 50.305 C-57.561 50.635 -58.271 50.964 -59.002 51.304 C-61 52 -61 52 -65 52 C-66.879 48.242 -66.314 43.761 -66.375 39.625 C-66.412 38.666 -66.45 37.707 -66.488 36.719 C-66.5 35.793 -66.511 34.868 -66.523 33.914 C-66.543 33.068 -66.563 32.222 -66.583 31.35 C-65.712 27.84 -63.999 26.96 -61 25 C-58.315 23.528 -55.571 22.213 -52.797 20.918 C-52.001 20.541 -51.205 20.163 -50.385 19.775 C-48.698 18.977 -47.011 18.183 -45.321 17.392 C-42.796 16.209 -40.277 15.015 -37.758 13.818 C-29.781 10.047 -21.763 6.374 -13.641 2.926 C-12.956 2.627 -12.272 2.329 -11.567 2.021 C-7.565 0.358 -4.33 -0.421 0 0 Z " fill="#252435" transform="translate(338,116)"/>
  <ns0:path d="M0 0 C3.713 2.674 5.083 4.621 6 9 C5.247 8.919 4.494 8.838 3.719 8.754 C-5.975 8.177 -12.571 10.844 -21.039 15.034 C-23.976 16.481 -26.96 17.825 -29.938 19.188 C-43.004 25.301 -55.978 31.615 -68.973 37.879 C-91.981 48.96 -115.052 59.927 -138.317 70.463 C-139.629 71.06 -139.629 71.06 -140.969 71.668 C-141.799 72.045 -142.629 72.422 -143.484 72.81 C-147.014 74.48 -150.455 76.314 -153.889 78.173 C-156 79 -156 79 -159 78 C-158.58 73.098 -156.611 71.207 -153 68 C-149.961 66.219 -149.961 66.219 -146.375 64.5 C-145.695 64.171 -145.016 63.842 -144.315 63.503 C-142.761 62.752 -141.204 62.005 -139.646 61.263 C-136.733 59.873 -133.831 58.463 -130.93 57.051 C-115.714 49.664 -100.4 42.508 -85.048 35.41 C-75.305 30.902 -65.606 26.338 -56.021 21.502 C-49.062 18.005 -42.056 14.606 -35.048 11.21 C-33.652 10.534 -32.257 9.857 -30.862 9.18 C-28.877 8.216 -26.89 7.254 -24.902 6.293 C-23.742 5.731 -22.582 5.169 -21.386 4.591 C-14.124 1.179 -8.195 -1.366 0 0 Z " fill="#737577" transform="translate(351,92)"/>
  <ns0:path d="M0 0 C0.585 16.846 0.585 16.846 -3 22 C-9.877 26.831 -17.465 30.069 -25.125 33.438 C-26.367 33.99 -27.61 34.542 -28.852 35.096 C-31.937 36.468 -35.028 37.824 -38.122 39.175 C-40.055 40.024 -41.982 40.885 -43.909 41.747 C-45.166 42.301 -46.423 42.856 -47.68 43.41 C-48.798 43.908 -49.917 44.405 -51.07 44.918 C-54 46 -54 46 -58 46 C-58.162 41.053 -58.054 36.282 -57.375 31.375 C-57.259 30.516 -57.143 29.658 -57.023 28.773 C-53.998 20.575 -47.567 17.321 -39.971 13.76 C-38.689 13.172 -37.407 12.586 -36.125 12 C-34.814 11.388 -33.503 10.776 -32.193 10.162 C-29.629 8.965 -27.059 7.778 -24.485 6.602 C-21.546 5.251 -18.626 3.871 -15.711 2.469 C-14.308 1.811 -12.905 1.154 -11.5 0.5 C-10.335 -0.047 -9.169 -0.593 -7.969 -1.156 C-4.484 -2.147 -3.121 -1.723 0 0 Z " fill="#242232" transform="translate(248,160)"/>
  <ns0:path d="M0 0 C3.016 1.689 4.292 3.099 6.375 5.75 C7.757 10.726 6.468 14.952 4.438 19.5 C-0.288 26.928 -6.483 32.522 -15 35 C-19.954 36.079 -23.677 36.473 -28.5 34.75 C-31 33 -31 33 -33 30 C-33.669 24.608 -33.773 19.64 -31.438 14.688 C-30.633 13.801 -29.829 12.914 -29 12 C-28.514 11.428 -28.028 10.855 -27.527 10.266 C-20.055 1.999 -11.165 -1.798 0 0 Z " fill="#8B8D90" transform="translate(323,198)"/>
  <ns0:path d="M0 0 C2.5 1.438 2.5 1.438 4 4 C5.328 10.209 3.549 15.222 0.539 20.645 C-4.092 27.732 -10.05 32.094 -18 35 C-22.601 35.754 -24.123 35.616 -27.938 32.938 C-30.588 29.162 -30.682 27.549 -30 23 C-27.124 13.609 -21.172 6.851 -12.797 1.91 C-8.647 -0.192 -4.571 -0.625 0 0 Z " fill="#898D91" transform="translate(151,269)"/>
  <ns0:path d="M0 0 C3.692 3.475 6.93 6.825 7.098 12.039 C7.086 13.222 7.074 14.406 7.062 15.625 C7.053 16.814 7.044 18.002 7.035 19.227 C7.024 20.142 7.012 21.057 7 22 C3.127 19.676 0.171 17.227 -2.938 13.938 C-7.838 8.972 -12.195 6.901 -19.188 6.5 C-32.247 6.945 -44.555 15.622 -53.812 24.375 C-62.947 34.21 -71.535 46.535 -72.562 60.188 C-72.646 61.274 -72.73 62.361 -72.816 63.48 C-72.877 64.312 -72.938 65.143 -73 66 C-73.33 66 -73.66 66 -74 66 C-74.495 63.03 -74.495 63.03 -75 60 C-75.66 60 -76.32 60 -77 60 C-78.58 48.939 -72.894 39.887 -66.655 31.108 C-53.781 14.18 -23.343 -14.395 0 0 Z " fill="#020203" transform="translate(175,246)"/>
  <ns0:path d="M0 0 C0.99 1.485 0.99 1.485 2 3 C1.408 3.11 0.817 3.219 0.207 3.332 C-4.495 4.275 -7.932 5.393 -12 8 C-13.877 8.692 -15.754 9.382 -17.637 10.059 C-22.58 12.028 -27.268 14.576 -32 17 C-37.609 19.848 -43.217 22.521 -49 25 C-50.691 25.847 -52.378 26.702 -54.062 27.562 C-57.641 29.376 -61.133 30.881 -65 32 C-64.887 29.715 -64.887 29.715 -64 27 C-61.908 25.564 -60.104 24.586 -57.812 23.562 C-57.134 23.242 -56.456 22.921 -55.757 22.591 C-54.149 21.834 -52.537 21.087 -50.922 20.346 C-47.498 18.769 -44.091 17.158 -40.684 15.547 C-33.141 11.99 -25.595 8.443 -18 5 C-16.884 4.493 -15.769 3.985 -14.619 3.462 C-13.052 2.775 -13.052 2.775 -11.453 2.074 C-10.542 1.672 -9.631 1.269 -8.692 0.854 C-5.596 -0.128 -3.228 -0.368 0 0 Z " fill="#090915" transform="translate(338,116)"/>
  <ns0:path d="M0 0 C0.486 5.348 0.486 5.348 -1.422 7.906 C-5.121 10.91 -9.192 12.755 -13.5 14.75 C-14.355 15.161 -15.209 15.572 -16.09 15.996 C-22.487 19 -22.487 19 -27 19 C-27.586 13.141 -27.586 13.141 -27 11 C-22.456 7.297 -17.143 5.052 -11.812 2.688 C-11.006 2.316 -10.2 1.944 -9.369 1.561 C-8.594 1.214 -7.818 0.868 -7.02 0.512 C-6.319 0.197 -5.619 -0.118 -4.898 -0.443 C-3 -1 -3 -1 0 0 Z " fill="#00A5D9" transform="translate(244,190)"/>
  <ns0:path d="M0 0 C1.314 2.164 2.067 3.432 1.766 5.988 C0.009 10.603 -5.84 12.438 -10.023 14.465 C-19.021 18.475 -19.021 18.475 -24 17 C-24.75 14.25 -24.75 14.25 -25 11 C-21.881 6.874 -17.687 5.215 -13.062 3.25 C-12.359 2.934 -11.656 2.618 -10.932 2.293 C-7.157 0.659 -4.197 -0.427 0 0 Z " fill="#00A6E9" transform="translate(350,143)"/>
  <ns0:path d="M0 0 C0 0.66 0 1.32 0 2 C-0.548 2.135 -1.096 2.271 -1.66 2.41 C-9.027 4.411 -15.714 7.56 -22.57 10.849 C-27.584 13.224 -32.64 15.509 -37.688 17.812 C-39.754 18.756 -41.821 19.7 -43.887 20.645 C-44.776 21.05 -45.665 21.456 -46.581 21.874 C-48.741 22.88 -50.875 23.922 -53 25 C-52.627 22.541 -52.366 21.317 -50.453 19.662 C-49.472 19.092 -49.472 19.092 -48.472 18.511 C-47.747 18.089 -47.022 17.667 -46.276 17.232 C-42.72 15.307 -39.114 13.534 -35.449 11.828 C-34.669 11.46 -33.888 11.092 -33.084 10.713 C-31.45 9.945 -29.816 9.178 -28.18 8.415 C-25.674 7.244 -23.172 6.066 -20.67 4.887 C-19.076 4.138 -17.481 3.389 -15.887 2.641 C-15.14 2.29 -14.393 1.939 -13.623 1.577 C-5.161 -2.371 -5.161 -2.371 0 0 Z " fill="#0A0913" transform="translate(248,160)"/>
  <ns0:path d="M0 0 C2.494 2.734 4.497 5.614 6 9 C5.67 9.99 5.34 10.98 5 12 C2.672 13.098 2.672 13.098 -0.25 14.062 C-3.88 15.284 -7.456 16.545 -11 18 C-11.34 16.439 -11.671 14.876 -12 13.312 C-12.186 12.442 -12.371 11.572 -12.562 10.676 C-12.99 8.063 -13.076 5.642 -13 3 C-4.406 -1.125 -4.406 -1.125 0 0 Z " fill="#F7A908" transform="translate(384,149)"/>
  <ns0:path d="M0 0 C2.5 2.188 2.5 2.188 4 5 C4 9.046 3.568 11.216 1.188 14.5 C-1 16 -1 16 -3 15.75 C-3.66 15.502 -4.32 15.255 -5 15 C-6.32 15 -7.64 15 -9 15 C-11.125 14.688 -11.125 14.688 -13 14 C-15.5 10.25 -15.536 8.441 -15 4 C-10.241 -1.917 -7.04 -2.717 0 0 Z " fill="#7A7B80" transform="translate(120,226)"/>
  <ns0:path d="M0 0 C2.001 6.129 3.323 11.196 0.438 17.312 C-2.526 20.58 -4.795 20.955 -9 22 C-9.532 19.585 -10.051 17.169 -10.562 14.75 C-10.79 13.727 -10.79 13.727 -11.021 12.684 C-12.433 5.922 -12.433 5.922 -11 3 C-7.031 0.903 -4.516 0 0 0 Z " fill="#F3F4F4" transform="translate(371,154)"/>
  <ns0:path d="M0 0 C-0.99 4.95 -1.98 9.9 -3 15 C-8.445 16.485 -8.445 16.485 -14 18 C-12.013 6.078 -12.013 6.078 -10 3 C-6.49 1.213 -3.959 0 0 0 Z " fill="#EA9C06" transform="translate(89,277)"/>
  <ns0:path d="M0 0 C-0.455 4.189 -1.214 8.178 -2.312 12.25 C-2.536 13.08 -2.759 13.91 -2.988 14.766 C-4.218 17.482 -5.435 18.518 -8 20 C-8.99 20 -9.98 20 -11 20 C-10.765 17.839 -10.524 15.681 -10.262 13.523 C-9.969 11.046 -9.969 11.046 -9.957 8.727 C-9.875 6.625 -9.875 6.625 -9 3 C-5.914 1.204 -3.609 0 0 0 Z " fill="#E7EAEA" transform="translate(97,273)"/>
  <ns0:path d="M0 0 C1.938 0.688 1.938 0.688 4 2 C4.75 4.625 4.75 4.625 5 7 C2.36 7.99 -0.28 8.98 -3 10 C-2.25 2.25 -2.25 2.25 0 0 Z " fill="#292E33" transform="translate(112,239)"/>
  <ns0:path d="M0 0 C0.99 0.33 1.98 0.66 3 1 C1.35 1.33 -0.3 1.66 -2 2 C-1.34 1.34 -0.68 0.68 0 0 Z " fill="#000A16" transform="translate(264,349)"/>
  <ns0:path d="M0 0 C0.99 0.33 1.98 0.66 3 1 C1.35 1.33 -0.3 1.66 -2 2 C-1.34 1.34 -0.68 0.68 0 0 Z " fill="#00070F" transform="translate(281,343)"/>
  <ns0:path d="M0 0 C1 4 1 4 1 4 Z " fill="#1164BE" transform="translate(94,284)"/>
  <ns0:path d="M0 0 C3 1 3 1 3 1 Z " fill="#031430" transform="translate(150,244)"/>
  <ns0:path d="M0 0 C2 1 2 1 2 1 Z " fill="#A69980" transform="translate(84,292)"/>
  <ns0:path d="M0 0 C2 1 2 1 2 1 Z " fill="#012551" transform="translate(121,262)"/>
  <ns0:path d="M0 0 C2 1 2 1 2 1 Z " fill="#001632" transform="translate(128,256)"/>
  <ns0:path d="M0 0 C2 1 2 1 2 1 Z " fill="#012551" transform="translate(132,253)"/>
  <ns0:path d="M0 0 C2 1 2 1 2 1 Z " fill="#0A4C9B" transform="translate(112,247)"/>
  <ns0:path d="M0 0 C-4.625 2.125 -4.625 2.125 -8 1 C-3.375 -1.125 -3.375 -1.125 0 0 Z " fill="#000912" transform="translate(304,337)"/>
  <ns0:path d="M0 0 C3 1 3 1 3 1 Z " fill="#00060E" transform="translate(267,348)"/>
  <ns0:path d="M0 0 C3 1 3 1 3 1 Z " fill="#00060D" transform="translate(270,347)"/>
  <ns0:path d="M0 0 C3 1 3 1 3 1 Z " fill="#00060D" transform="translate(273,346)"/>
  <ns0:path d="M0 0 C3 1 3 1 3 1 Z " fill="#000A15" transform="translate(276,345)"/>
  <ns0:path d="M0 0 C3 1 3 1 3 1 Z " fill="#00050B" transform="translate(284,342)"/>
  <ns0:path d="M0 0 C3 1 3 1 3 1 Z " fill="#00060C" transform="translate(287,341)"/>
  <ns0:path d="M0 0 C3 1 3 1 3 1 Z " fill="#000A14" transform="translate(290,340)"/>
  <ns0:path d="M0 0 C3 1 3 1 3 1 Z " fill="#000A15" transform="translate(293,339)"/>
  <ns0:path d="M0 0 C3 1 3 1 3 1 Z " fill="#00060C" transform="translate(304,335)"/>
  <ns0:path d="M0 0 C3 1 3 1 3 1 Z " fill="#000810" transform="translate(307,334)"/>
  <ns0:path d="M0 0 C3 1 3 1 3 1 Z " fill="#000811" transform="translate(310,333)"/>
  <ns0:path d="M0 0 C3 1 3 1 3 1 Z " fill="#000912" transform="translate(313,332)"/>
  <ns0:path d="M0 0 C3 1 3 1 3 1 Z " fill="#000B16" transform="translate(316,331)"/>
  <ns0:path d="M0 0 C3 1 3 1 3 1 Z " fill="#00070F" transform="translate(321,329)"/>
  <ns0:path d="M0 0 C3 1 3 1 3 1 Z " fill="#00060C" transform="translate(324,328)"/>
  <ns0:path d="M0 0 C3 1 3 1 3 1 Z " fill="#000A14" transform="translate(327,327)"/>
  <ns0:path d="M0 0 C3 1 3 1 3 1 Z " fill="#000409" transform="translate(330,326)"/>
  <ns0:path d="M0 0 C2 1 2 1 2 1 Z " fill="#00060D" transform="translate(319,330)"/>
</svg>