<?xml version="1.0" encoding="UTF-8"?>
<!-- Generator: visioncortex VTracer 0.6.4 -->
<svg version="1.1" xmlns="http://www.w3.org/2000/svg" width="512" height="512">
<path d="M0 0 C4.012 4.889 2.47 12.842 2.47 18.837 C2.472 20.992 2.49 23.147 2.509 25.302 C2.512 26.68 2.514 28.058 2.515 29.436 C2.519 30.684 2.523 31.931 2.527 33.216 C2.277 36.672 1.835 40.015 -0.716 42.565 C-3.109 42.726 -5.476 42.825 -7.872 42.882 C-8.607 42.903 -9.342 42.923 -10.099 42.945 C-11.67 42.988 -13.24 43.029 -14.811 43.068 C-17.15 43.126 -19.49 43.192 -21.829 43.259 C-25.678 43.366 -29.528 43.444 -33.378 43.514 C-35.761 43.566 -38.142 43.649 -40.524 43.733 C-42.057 43.77 -43.589 43.807 -45.122 43.843 C-45.828 43.875 -46.533 43.906 -47.26 43.939 C-50.489 43.991 -52.417 43.76 -55.146 41.981 C-57.237 38.763 -57.306 36.466 -57.43 32.64 C-57.466 31.641 -57.466 31.641 -57.502 30.622 C-57.547 29.216 -57.583 27.81 -57.609 26.404 C-57.653 24.269 -57.734 22.138 -57.819 20.005 C-57.858 18.633 -57.896 17.261 -57.93 15.89 C-57.963 14.653 -57.995 13.416 -58.028 12.142 C-57.663 7.965 -56.843 5.185 -54.716 1.565 C-50.172 -0.827 -45.182 -0.863 -40.134 -1.103 C-39.32 -1.147 -38.506 -1.19 -37.668 -1.236 C-35.953 -1.326 -34.238 -1.413 -32.522 -1.495 C-29.921 -1.621 -27.321 -1.764 -24.721 -1.909 C-23.046 -1.996 -21.371 -2.081 -19.696 -2.165 C-18.93 -2.208 -18.164 -2.25 -17.375 -2.294 C-3.498 -2.925 -3.498 -2.925 0 0 Z " fill="#1F1F2E" transform="translate(245.715576171875,190.43463134765625)"/>
<path d="M0 0 C0 0.99 0 1.98 0 3 C-3.695 3.95 -6.305 3.95 -10 3 C-10 3.66 -10 4.32 -10 5 C-8.68 5.33 -7.36 5.66 -6 6 C-8.833 6.175 -11.666 6.342 -14.5 6.5 C-15.383 6.549 -16.265 6.598 -17.175 6.649 C-22.266 6.903 -27.328 7.021 -32.426 6.961 C-33.489 6.949 -34.553 6.936 -35.648 6.924 C-37.72 6.892 -39.792 6.847 -41.863 6.787 C-47.746 6.696 -51.784 7.221 -57 10 C-56.25 3.25 -56.25 3.25 -54 1 C-49.607 -0.236 -45.051 -0.327 -40.516 -0.57 C-39.293 -0.638 -39.293 -0.638 -38.046 -0.708 C-36.325 -0.802 -34.603 -0.894 -32.882 -0.985 C-30.272 -1.124 -27.664 -1.274 -25.055 -1.426 C-23.375 -1.516 -21.695 -1.606 -20.016 -1.695 C-19.247 -1.741 -18.477 -1.787 -17.685 -1.834 C-4.933 -2.466 -4.933 -2.466 0 0 Z " fill="#05050B" transform="translate(246,190)"/>
<path d="M0 0 C0 0.66 0 1.32 0 2 C1.32 2.33 2.64 2.66 4 3 C-8.027 3.745 -19.987 4.107 -32.039 3.963 C-33.005 3.955 -33.97 3.946 -34.965 3.938 C-36.243 3.92 -36.243 3.92 -37.547 3.902 C-40.123 4.005 -42.489 4.43 -45 5 C-43.262 2.804 -42.321 2.062 -39.531 1.523 C-38.531 1.474 -37.531 1.425 -36.5 1.375 C-34.773 1.28 -34.773 1.28 -33.012 1.184 C-32.375 1.155 -31.739 1.127 -31.083 1.097 C-28.811 0.991 -26.541 0.859 -24.27 0.723 C-16.172 0.25 -8.114 -0.133 0 0 Z " fill="#10101A" transform="translate(236,193)"/>
</svg>
