<?xml version="1.0" encoding="UTF-8"?>
<!-- Generator: visioncortex VTracer 0.6.4 -->
<svg version="1.1" xmlns="http://www.w3.org/2000/svg" width="512" height="512">
<path d="M0 0 C0.33 0.66 0.66 1.32 1 2 C1.594 1.916 2.189 1.832 2.801 1.746 C3.63 1.644 4.459 1.542 5.312 1.438 C6.113 1.333 6.914 1.229 7.738 1.121 C17.864 0.745 27.525 3.065 37.312 5.375 C39.297 5.836 41.282 6.296 43.267 6.755 C44.577 7.058 45.886 7.362 47.195 7.666 C52.735 8.952 58.291 10.154 63.854 11.331 C82.464 15.29 82.464 15.29 87.625 22.125 C94.416 33.971 95.104 50.755 97.266 63.992 C97.408 64.862 97.55 65.732 97.696 66.628 C98 69 98 69 98 73 C98.692 72.97 99.384 72.939 100.098 72.908 C125.135 71.836 149.695 71.713 174.69 73.737 C176.931 73.915 179.173 74.078 181.416 74.226 C182.488 74.301 183.56 74.376 184.664 74.453 C186.094 74.546 186.094 74.546 187.553 74.642 C190.992 75.145 192.758 76.384 195 79 C196.984 82.229 197.237 84.658 197.195 88.422 C197.189 89.447 197.182 90.471 197.176 91.527 C197.159 92.591 197.142 93.654 197.125 94.75 C197.116 95.829 197.107 96.908 197.098 98.02 C197.074 100.68 197.041 103.34 197 106 C195.02 106.33 193.04 106.66 191 107 C191 101.06 191 95.12 191 89 C178.13 88.505 178.13 88.505 165 88 C165 95.26 165 102.52 165 110 C149.16 110 133.32 110 117 110 C116.963 120.415 116.963 120.415 117.438 130.75 C117.519 131.92 117.6 133.091 117.684 134.297 C117.707 136.913 117.707 136.913 119 138 C121.841 138.283 124.682 138.449 127.531 138.621 C128.346 138.746 129.161 138.871 130 139 C130.33 139.66 130.66 140.32 131 141 C126.05 141.99 126.05 141.99 121 143 C121 149.93 121 156.86 121 164 C119.082 163.897 117.164 163.794 115.188 163.688 C114.109 163.629 113.03 163.571 111.918 163.512 C109 163 109 163 107.199 161.922 C105.384 159.013 105.103 155.895 104.625 152.562 C101.807 135.895 93.258 121.293 79.508 111.164 C69.435 104.401 58.255 99.567 45.922 101.477 C30.429 105.019 20.031 113.876 11.598 127.219 C6.299 136.188 5.593 144.758 5 155 C1.215 155.908 -2.102 156.046 -5.984 155.838 C-7.164 155.778 -8.345 155.718 -9.562 155.656 C-10.827 155.585 -12.091 155.514 -13.395 155.441 C-15.348 155.339 -15.348 155.339 -17.341 155.235 C-20.792 155.055 -24.243 154.867 -27.693 154.678 C-31.219 154.486 -34.745 154.301 -38.271 154.115 C-45.181 153.75 -52.091 153.378 -59 153 C-59.33 153.66 -59.66 154.32 -60 155 C-60 154.34 -60 153.68 -60 153 C-62.97 152.67 -65.94 152.34 -69 152 C-70.564 148.285 -71.067 145.342 -70.875 141.375 C-70.667 129.839 -76.565 118.442 -84.375 110.188 C-91.436 103.608 -98.299 100.46 -107.875 99.688 C-117.247 100.071 -123.633 103.337 -130.379 109.844 C-136.821 117.077 -140.586 126.739 -143 136 C-143.248 135.381 -143.495 134.762 -143.75 134.125 C-145.206 131.649 -146.378 131.049 -149 130 C-148.01 130 -147.02 130 -146 130 C-146 122.08 -146 114.16 -146 106 C-150.95 106 -155.9 106 -161 106 C-159.637 90.837 -157.744 75.766 -155.651 60.688 C-155.121 56.848 -154.61 53.006 -154.098 49.164 C-153.756 46.69 -153.414 44.216 -153.07 41.742 C-152.922 40.61 -152.774 39.477 -152.622 38.311 C-151.325 29.216 -149.595 19.928 -142 14 C-137.677 11.85 -133.29 11.411 -128.547 10.969 C-127.717 10.887 -126.887 10.804 -126.032 10.72 C-117.062 9.86 -108.074 9.257 -99.081 8.681 C-94.218 8.37 -89.355 8.047 -84.492 7.723 C-83.553 7.66 -82.614 7.597 -81.647 7.533 C-75.212 7.097 -68.794 6.565 -62.375 5.938 C-49.47 4.693 -36.502 4.253 -23.552 3.697 C-22.662 3.658 -21.771 3.619 -20.853 3.578 C-19.181 3.505 -17.509 3.435 -15.836 3.367 C-10.521 3.134 -5.283 2.634 0 2 C0 1.34 0 0.68 0 0 Z M33 18 C32.76 27.877 33.264 37.374 34.599 47.156 C34.88 49.223 35.142 51.292 35.402 53.361 C35.577 54.693 35.753 56.024 35.93 57.355 C36.087 58.538 36.244 59.72 36.406 60.938 C37.113 64.735 37.113 64.735 39 68 C43.048 69.353 47.443 69.301 51.688 69.535 C52.426 69.578 53.165 69.621 53.927 69.665 C55.49 69.755 57.053 69.843 58.617 69.93 C60.965 70.061 63.312 70.199 65.66 70.338 C78.825 71.169 78.825 71.169 92 71 C93.55 69.45 93.177 68.024 93.199 65.863 C93.123 58.868 91.977 52.072 90.812 45.188 C90.616 43.891 90.419 42.595 90.217 41.26 C90.007 40.013 89.798 38.765 89.582 37.48 C89.399 36.355 89.215 35.23 89.027 34.071 C87.698 30.096 86.372 28.508 83 26 C79.841 24.878 76.652 24.313 73.352 23.762 C72.421 23.591 71.49 23.421 70.531 23.245 C68.568 22.889 66.602 22.543 64.636 22.205 C61.639 21.69 58.648 21.147 55.656 20.6 C53.742 20.256 51.828 19.914 49.914 19.574 C48.581 19.335 48.581 19.335 47.221 19.091 C42.403 18.27 37.887 17.833 33 18 Z M-26.916 22.745 C-28.725 22.832 -30.535 22.915 -32.345 22.995 C-34.972 23.11 -37.599 23.238 -40.227 23.367 C-41.032 23.401 -41.837 23.434 -42.667 23.468 C-46.8 23.686 -50.278 24.001 -54 26 C-56.565 30.144 -56.27 34.649 -56.188 39.375 C-56.178 40.162 -56.169 40.949 -56.159 41.76 C-56.121 44.174 -56.063 46.587 -56 49 C-55.986 49.739 -55.972 50.477 -55.958 51.238 C-55.912 53.286 -55.837 55.329 -55.75 57.375 C-55.68 59.15 -55.68 59.15 -55.609 60.961 C-55.177 64.017 -55.177 64.017 -53.539 66.395 C-49.652 68.852 -46.128 68.462 -41.625 68.312 C-40.216 68.287 -40.216 68.287 -38.778 68.261 C-36.688 68.219 -34.597 68.165 -32.507 68.103 C-29.343 68.01 -26.18 67.939 -23.016 67.875 C-20.271 67.818 -17.528 67.749 -14.784 67.678 C-13.429 67.643 -12.074 67.61 -10.719 67.579 C-8.807 67.534 -6.896 67.474 -4.984 67.414 C-3.878 67.383 -2.772 67.351 -1.632 67.319 C1.156 67.256 1.156 67.256 3 65 C5.016 59.508 4.186 53.084 4.185 47.301 C4.187 45.074 4.206 42.847 4.225 40.619 C4.228 39.195 4.23 37.771 4.23 36.348 C4.235 35.059 4.239 33.77 4.243 32.442 C4.009 29.131 3.543 26.919 2 24 C-5.524 19.485 -18.363 22.326 -26.916 22.745 Z M-97.324 26.453 C-98.307 26.514 -99.291 26.575 -100.304 26.638 C-102.374 26.769 -104.444 26.903 -106.514 27.042 C-109.686 27.25 -112.859 27.436 -116.033 27.621 C-118.047 27.751 -120.061 27.883 -122.074 28.016 C-123.024 28.069 -123.974 28.122 -124.953 28.177 C-126.275 28.272 -126.275 28.272 -127.624 28.368 C-128.786 28.443 -128.786 28.443 -129.971 28.519 C-132.468 29.111 -133.408 30.021 -135 32 C-137.146 38.006 -137.398 44.874 -138.125 51.188 C-138.213 51.947 -138.3 52.707 -138.391 53.49 C-138.879 58.006 -139.266 62.454 -139 67 C-137.124 69.307 -137.124 69.307 -134.077 69.243 C-132.219 69.237 -132.219 69.237 -130.324 69.23 C-129.651 69.23 -128.977 69.23 -128.283 69.23 C-126.084 69.227 -123.886 69.208 -121.688 69.188 C-120.184 69.179 -118.681 69.171 -117.177 69.164 C-108.636 69.106 -100.097 68.974 -91.562 68.625 C-90.707 68.594 -89.851 68.564 -88.969 68.532 C-84.514 68.463 -84.514 68.463 -81 66 C-79.825 61.882 -79.871 57.842 -79.867 53.582 C-79.866 52.884 -79.865 52.185 -79.864 51.465 C-79.864 49.997 -79.865 48.529 -79.87 47.061 C-79.875 44.809 -79.87 42.558 -79.863 40.307 C-79.864 38.878 -79.865 37.449 -79.867 36.02 C-79.869 34.072 -79.869 34.072 -79.871 32.085 C-79.785 29.088 -79.785 29.088 -81 27 C-86.406 25.539 -91.804 26.094 -97.324 26.453 Z M-53 78 C-53 82.29 -53 86.58 -53 91 C-47.731 91.878 -43.041 92.183 -37.75 92.188 C-36.935 92.2 -36.121 92.212 -35.281 92.225 C-33.186 92.23 -31.091 92.123 -29 92 C-26.816 90.223 -26.816 90.223 -26.734 87.941 C-26.74 87.156 -26.745 86.371 -26.75 85.562 C-26.745 84.78 -26.74 83.998 -26.734 83.191 C-26.868 80.71 -26.868 80.71 -29 78 C-31.519 77.583 -31.519 77.583 -34.445 77.707 C-36.06 77.722 -36.06 77.722 -37.707 77.736 C-39.399 77.774 -39.399 77.774 -41.125 77.812 C-42.261 77.826 -43.396 77.84 -44.566 77.854 C-47.378 77.889 -50.189 77.943 -53 78 Z M-141 80 C-143.123 83.818 -143.239 86.621 -143 91 C-142.67 91.99 -142.34 92.98 -142 94 C-139.17 95.415 -136.716 95.208 -133.562 95.25 C-131.832 95.289 -131.832 95.289 -130.066 95.328 C-127.069 95.23 -127.069 95.23 -125.105 93.836 C-123.562 91.272 -123.672 89.346 -123.75 86.375 C-123.765 85.393 -123.781 84.41 -123.797 83.398 C-123.736 81.049 -123.736 81.049 -125 80 C-127.697 79.927 -130.367 79.908 -133.062 79.938 C-134.2 79.944 -134.2 79.944 -135.361 79.951 C-137.241 79.963 -139.12 79.981 -141 80 Z " fill="#0057B5" transform="translate(244,166)"/>
<path d="M0 0 C4.29 0 8.58 0 13 0 C10.411 2.589 8.973 2.374 5.375 2.625 C4.372 2.7 3.369 2.775 2.336 2.852 C1.18 2.925 1.18 2.925 0 3 C0 2.01 0 1.02 0 0 Z " fill="#4D565F" transform="translate(92,314)"/>
<path d="M0 0 C-1.748 0.365 -3.498 0.716 -5.25 1.062 C-6.712 1.358 -6.712 1.358 -8.203 1.66 C-10.868 1.984 -12.489 1.855 -15 1 C-13.256 0.441 -11.504 -0.097 -9.75 -0.625 C-8.775 -0.927 -7.801 -1.228 -6.797 -1.539 C-3.683 -2.052 -2.584 -1.711 0 0 Z " fill="#35322E" transform="translate(412,305)"/>
<path d="M0 0 C2.875 -0.125 2.875 -0.125 6 0 C6.66 0.66 7.32 1.32 8 2 C5.36 1.67 2.72 1.34 0 1 C0 0.67 0 0.34 0 0 Z " fill="#B78D44" transform="translate(86,296)"/>
<path d="M0 0 C1.98 0 3.96 0 6 0 C6 0.33 6 0.66 6 1 C4.02 1 2.04 1 0 1 C0 0.67 0 0.34 0 0 Z " fill="#A88757" transform="translate(383,307)"/>
<path d="M0 0 C1.65 0 3.3 0 5 0 C5 0.33 5 0.66 5 1 C3.35 1 1.7 1 0 1 C0 0.67 0 0.34 0 0 Z " fill="#41454B" transform="translate(385,338)"/>
<path d="M0 0 C1.65 0 3.3 0 5 0 C5 0.33 5 0.66 5 1 C3.35 1 1.7 1 0 1 C0 0.67 0 0.34 0 0 Z " fill="#111519" transform="translate(135,278)"/>
<path d="M0 0 C4 1 4 1 4 1 Z " fill="#636466" transform="translate(247,151)"/>
<path d="M0 0 C3 1 3 1 3 1 Z " fill="#2D2E30" transform="translate(372,337)"/>
<path d="" fill="#21272D" transform="translate(0,0)"/>
<path d="M0 0 C3 1 3 1 3 1 Z " fill="#AB7D3C" transform="translate(393,307)"/>
<path d="" fill="#101417" transform="translate(0,0)"/>
<path d="M0 0 C2 1 2 1 2 1 Z " fill="#232425" transform="translate(415,303)"/>
<path d="M0 0 C2 1 2 1 2 1 Z " fill="#232425" transform="translate(420,302)"/>
<path d="M0 0 C2 1 2 1 2 1 Z " fill="#1A1A1C" transform="translate(425,301)"/>
<path d="M0 0 C2 1 2 1 2 1 Z " fill="#383433" transform="translate(433,299)"/>
<path d="" fill="#22272B" transform="translate(0,0)"/>
<path d="" fill="#1D2126" transform="translate(0,0)"/>
<path d="" fill="#1F2327" transform="translate(0,0)"/>
<path d="" fill="#3A3B3C" transform="translate(0,0)"/>
<path d="" fill="#29292A" transform="translate(0,0)"/>
<path d="" fill="#14171B" transform="translate(0,0)"/>
<path d="" fill="#070809" transform="translate(0,0)"/>
<path d="" fill="#14181D" transform="translate(0,0)"/>
<path d="" fill="#011E41" transform="translate(0,0)"/>
<path d="" fill="#1A1C1E" transform="translate(0,0)"/>
<path d="" fill="#0E1114" transform="translate(0,0)"/>
<path d="" fill="#646567" transform="translate(0,0)"/>
</svg>
