<?xml version="1.0" encoding="UTF-8"?>
<!-- Generator: visioncortex VTracer 0.6.4 -->
<svg version="1.1" xmlns="http://www.w3.org/2000/svg" width="512" height="512">
<path d="M0 0 C13.243 -0.147 26.402 0.3 39.625 1 C41.518 1.097 43.411 1.193 45.305 1.289 C49.87 1.521 54.435 1.759 59 2 C60.315 5.946 59.362 7.068 57.562 10.75 C52.779 19.834 47.287 24.053 37.613 27.273 C29.35 29.571 19.941 30.652 11.879 27.117 C6.926 24.172 1.933 20.002 -1 15 C-1.328 11.836 -1.328 11.836 -1.25 8.375 C-1.235 7.228 -1.219 6.08 -1.203 4.898 C-1 2 -1 2 0 0 Z " fill="#0E1113" transform="translate(185,319)"/>
<path d="M0 0 C0.99 0.33 1.98 0.66 3 1 C3.33 3.31 3.66 5.62 4 8 C2 6.812 2 6.812 0 5 C-0.25 2.312 -0.25 2.312 0 0 Z " fill="#1D2227" transform="translate(184,329)"/>
</svg>
