<?xml version="1.0" encoding="UTF-8"?>
<!-- Generator: visioncortex VTracer 0.6.4 -->
<svg version="1.1" xmlns="http://www.w3.org/2000/svg" width="512" height="512">
<path d="M0 0 C0.33 0.33 0.66 0.66 1 1 C0.909 3.701 0.763 6.369 0.562 9.062 C0.51 9.821 0.458 10.58 0.404 11.361 C0.274 13.241 0.138 15.121 0 17 C-1.991 17.381 -3.993 17.713 -6 18 C-7 17 -7 17 -7.098 13.402 C-7.091 11.914 -7.079 10.426 -7.062 8.938 C-7.058 8.179 -7.053 7.42 -7.049 6.639 C-7.037 4.759 -7.019 2.88 -7 1 C-4.516 -0.242 -2.748 -0.141 0 0 Z " fill="#015DB3" transform="translate(99,297)"/>
</svg>
