<?xml version="1.0" encoding="UTF-8"?>
<!-- Generator: visioncortex VTracer 0.6.4 -->
<svg version="1.1" xmlns="http://www.w3.org/2000/svg" width="512" height="512">
<path d="M0 0 C1.708 -0.055 3.416 -0.093 5.125 -0.125 C6.552 -0.16 6.552 -0.16 8.008 -0.195 C11 0 11 0 17 2 C17 8.27 17 14.54 17 21 C13.812 22.594 10.371 22.102 6.875 22.062 C6.121 22.058 5.367 22.053 4.59 22.049 C2.727 22.037 0.863 22.019 -1 22 C-1.029 18.708 -1.047 15.417 -1.062 12.125 C-1.075 10.719 -1.075 10.719 -1.088 9.285 C-1.091 8.389 -1.094 7.493 -1.098 6.57 C-1.103 5.743 -1.108 4.915 -1.114 4.063 C-1 2 -1 2 0 0 Z " fill="#909294" transform="translate(75,296)"/>
</svg>
