<?xml version="1.0" encoding="UTF-8"?>
<!-- Generator: visioncortex VTracer 0.6.4 -->
<svg version="1.1" xmlns="http://www.w3.org/2000/svg" width="512" height="512">
<path d="M0 0 C1.343 6.228 1.343 6.228 -0.25 9.812 C-2 12 -2 12 -5 14 C-5 13.34 -5 12.68 -5 12 C-5.99 11.67 -6.98 11.34 -8 11 C-8.225 7.695 -8.345 5.608 -6.688 2.688 C-4.606 0.606 -2.945 0 0 0 Z " fill="#96979A" transform="translate(420,200)"/>
<path d="M0 0 C0.66 0.66 1.32 1.32 2 2 C1.625 5.625 1.625 5.625 1 9 C-0.32 9.33 -1.64 9.66 -3 10 C-3 7.03 -3 4.06 -3 1 C-2.01 0.67 -1.02 0.34 0 0 Z " fill="#B1B2B3" transform="translate(419,201)"/>
<path d="M0 0 C0.66 0.33 1.32 0.66 2 1 C0.68 1.33 -0.64 1.66 -2 2 C-2 4.97 -2 7.94 -2 11 C-2.66 11 -3.32 11 -4 11 C-5.089 8.169 -4.961 6.835 -4.25 3.812 C-3.837 2.884 -3.425 1.956 -3 1 C-2.01 0.67 -1.02 0.34 0 0 Z " fill="#A0A2A3" transform="translate(418,200)"/>
</svg>
