<?xml version="1.0" encoding="UTF-8"?>
<!-- Generator: visioncortex VTracer 0.6.4 -->
<svg version="1.1" xmlns="http://www.w3.org/2000/svg" width="512" height="512">
<path d="M0 0 C0.125 6.75 0.125 6.75 -1 9 C-4.671 10.003 -8.361 10.237 -12.148 10.481 C-13.975 10.601 -13.975 10.601 -15.84 10.723 C-17.802 10.847 -17.802 10.847 -19.805 10.973 C-21.171 11.061 -22.537 11.149 -23.903 11.237 C-26.763 11.422 -29.622 11.604 -32.482 11.784 C-36.132 12.015 -39.783 12.25 -43.433 12.487 C-46.253 12.67 -49.074 12.85 -51.895 13.03 C-53.891 13.158 -55.887 13.287 -57.882 13.416 C-59.107 13.493 -60.332 13.569 -61.593 13.649 C-62.664 13.717 -63.735 13.785 -64.838 13.855 C-68.23 14.011 -71.606 14.024 -75 14 C-75 11.69 -75 9.38 -75 7 C-71.659 5.032 -68.842 4.618 -64.997 4.314 C-63.785 4.214 -62.573 4.114 -61.325 4.011 C-60.017 3.912 -58.71 3.813 -57.363 3.711 C-56 3.602 -54.638 3.493 -53.275 3.383 C-50.418 3.155 -47.561 2.932 -44.703 2.713 C-41.063 2.434 -37.423 2.145 -33.783 1.852 C-30.967 1.626 -28.15 1.404 -25.333 1.183 C-23.346 1.027 -21.358 0.869 -19.37 0.711 C-12.891 0.217 -6.498 -0.115 0 0 Z " fill="#747577" transform="translate(245,159)"/>
</svg>
