<?xml version="1.0" encoding="UTF-8"?>
<!-- Generator: visioncortex VTracer 0.6.4 -->
<svg version="1.1" xmlns="http://www.w3.org/2000/svg" width="512" height="512">
<path d="M0 0 C3.586 1.637 4.793 2.69 7 6 C7.677 11.087 7.825 15.557 5.25 20.062 C1.925 22.926 0.065 23.839 -4.312 24.5 C-8.593 23.92 -10.524 22.846 -13.609 19.914 C-16.079 16.515 -16.396 13.112 -16 9 C-13.067 1.667 -7.583 -1.289 0 0 Z " fill="#7A7B7D" transform="translate(368,184)"/>
<path d="M0 0 C0.624 8.924 0.624 8.924 -1.812 13.125 C-4 15 -4 15 -7 15 C-7.659 11.642 -8.131 8.427 -8 5 C-4.4 0 -4.4 0 0 0 Z " fill="#8B8C8E" transform="translate(375,191)"/>
<path d="M0 0 C0.99 0 1.98 0 3 0 C3.027 1.625 3.046 3.25 3.062 4.875 C3.074 5.78 3.086 6.685 3.098 7.617 C3 10 3 10 2 12 C1.01 12 0.02 12 -1 12 C-0.67 8.04 -0.34 4.08 0 0 Z " fill="#9A9B9C" transform="translate(372,191)"/>
</svg>
