<?xml version="1.0" encoding="UTF-8"?>
<!-- Generator: visioncortex VTracer 0.6.4 -->
<svg version="1.1" xmlns="http://www.w3.org/2000/svg" width="512" height="512">
<path d="M0 0 C0.99 4.372 0.983 7.672 0 12 C-1.977 12.528 -3.957 13.047 -5.938 13.562 C-7.04 13.853 -8.142 14.143 -9.277 14.441 C-10.625 14.718 -10.625 14.718 -12 15 C-12.33 14.67 -12.66 14.34 -13 14 C-15.328 13.632 -17.662 13.298 -20 13 C-20 13.99 -20 14.98 -20 16 C-56.503 25.411 -56.503 25.411 -75 24 C-76.286 23.906 -77.572 23.812 -78.897 23.716 C-83.413 23.379 -87.926 23.008 -92.438 22.625 C-93.19 22.562 -93.943 22.499 -94.719 22.435 C-96.875 22.251 -99.029 22.054 -101.184 21.852 C-102.447 21.736 -103.711 21.621 -105.013 21.502 C-108 21 -108 21 -110 19 C-98.416 16.241 -86.828 13.501 -75.234 10.786 C-69.849 9.524 -64.466 8.256 -59.086 6.972 C-53.883 5.731 -48.677 4.508 -43.467 3.296 C-41.491 2.833 -39.517 2.364 -37.545 1.889 C-7.873 -5.248 -7.873 -5.248 0 0 Z " fill="#727374" transform="translate(398,136)"/>
</svg>
