<?xml version="1.0" encoding="UTF-8"?>
<!-- Generator: visioncortex VTracer 0.6.4 -->
<svg version="1.1" xmlns="http://www.w3.org/2000/svg" width="512" height="512">
<path d="M0 0 C4.766 2.214 7.21 8.048 9.109 12.698 C10.106 15.627 10.996 18.567 11.848 21.542 C12.309 23.038 12.309 23.038 12.778 24.565 C16.451 36.961 16.451 36.961 13.973 41.917 C13.733 43.391 13.535 44.871 13.36 46.354 C11.001 65.197 11.001 65.197 6.973 72.917 C6.669 73.55 6.365 74.183 6.052 74.835 C5.385 76.208 4.685 77.566 3.973 78.917 C-0.094 79.304 -3.165 79.064 -6.515 76.55 C-15.715 66.613 -17.424 50.873 -18.027 37.917 C-18.079 36.889 -18.132 35.862 -18.187 34.803 C-18.511 23.026 -16.787 10.477 -8.777 1.354 C-5.7 -0.254 -3.441 -0.652 0 0 Z M-6.027 19.917 C-12.09 26.336 -11.361 33.336 -11.249 41.686 C-11.057 47.16 -10.226 52.346 -6.546 56.647 C-5.101 58.141 -5.101 58.141 -3.027 57.854 C-0.441 56.642 0.512 55.353 1.973 52.917 C4.812 43.513 4.202 30.687 -0.027 21.917 C-2.842 19.639 -2.842 19.639 -6.027 19.917 Z " fill="#282E36" transform="translate(160.026611328125,276.083251953125)"/>
</svg>
