<?xml version="1.0" encoding="UTF-8"?>
<!-- Generator: visioncortex VTracer 0.6.4 -->
<svg version="1.1" xmlns="http://www.w3.org/2000/svg" width="512" height="512">
<path d="M0 0 C2.31 0 4.62 0 7 0 C6.67 3.63 6.34 7.26 6 11 C4.02 11.66 2.04 12.32 0 13 C0 8.71 0 4.42 0 0 Z " fill="#3D3A3D" transform="translate(190,160)"/>
<path d="M0 0 C2.31 0 4.62 0 7 0 C7 0.99 7 1.98 7 3 C4.69 3.33 2.38 3.66 0 4 C0 2.68 0 1.36 0 0 Z " fill="#424245" transform="translate(378,149)"/>
<path d="M0 0 C4 1 4 1 4 1 Z " fill="#476B8F" transform="translate(295,157)"/>
<path d="M0 0 C2 1 2 1 2 1 Z " fill="#4B6C8D" transform="translate(309,158)"/>
<path d="" fill="#56575A" transform="translate(0,0)"/>
</svg>
