<?xml version="1.0" encoding="UTF-8"?>
<!-- Generator: visioncortex VTracer 0.6.4 -->
<svg version="1.1" xmlns="http://www.w3.org/2000/svg" width="512" height="512">
<path d="M0 0 C0.847 0.012 1.695 0.024 2.567 0.036 C11.169 0.19 19.75 0.645 28.334 1.2 C29.525 1.275 29.525 1.275 30.74 1.352 C34.914 1.616 39.088 1.887 43.261 2.164 C47.554 2.447 51.848 2.707 56.142 2.963 C59.472 3.165 62.801 3.383 66.13 3.607 C67.715 3.71 69.3 3.807 70.885 3.898 C73.087 4.026 75.286 4.177 77.486 4.334 C78.734 4.414 79.983 4.494 81.269 4.576 C84.922 5.351 86.154 6.347 88.431 9.247 C91.285 14.892 91.784 21.355 92.773 27.539 C93.118 29.676 93.478 31.81 93.84 33.944 C94.063 35.315 94.285 36.685 94.506 38.056 C94.708 39.291 94.91 40.527 95.118 41.8 C95.429 45.217 95.222 47.919 94.431 51.247 C92.71 52.969 90.511 52.375 88.215 52.386 C87.096 52.383 87.096 52.383 85.955 52.38 C84.784 52.382 84.784 52.382 83.589 52.384 C80.995 52.386 78.401 52.38 75.806 52.372 C74.918 52.371 74.03 52.37 73.115 52.368 C59.612 52.347 46.117 52.156 32.619 51.81 C31.838 51.79 31.057 51.77 30.253 51.75 C25.755 51.635 21.259 51.492 16.763 51.325 C14.248 51.241 11.732 51.186 9.215 51.129 C7.492 51.075 5.768 51.019 4.045 50.962 C3.242 50.95 2.44 50.938 1.613 50.926 C-2.003 50.784 -4.144 50.577 -7.044 48.327 C-9.493 44.985 -9.791 42.746 -10.104 38.638 C-10.191 37.496 -10.279 36.355 -10.369 35.179 C-12.556 4.5 -12.556 4.5 -10.285 1.617 C-7.318 -0.751 -3.629 -0.096 0 0 Z " fill="#22222E" transform="translate(307.568603515625,177.7529296875)"/>
<path d="M0 0 C1.278 0.004 1.278 0.004 2.581 0.009 C11.206 0.073 19.791 0.519 28.396 1.075 C29.587 1.15 29.587 1.15 30.802 1.227 C34.977 1.491 39.15 1.762 43.324 2.039 C47.616 2.322 51.91 2.582 56.205 2.838 C59.535 3.04 62.864 3.258 66.193 3.482 C67.777 3.585 69.362 3.682 70.947 3.773 C73.149 3.901 75.348 4.052 77.548 4.209 C78.797 4.289 80.045 4.369 81.331 4.451 C84.986 5.226 86.212 6.225 88.494 9.122 C90.669 13.146 90.671 16.599 90.494 21.122 C90.164 21.122 89.834 21.122 89.494 21.122 C89.301 20.496 89.107 19.869 88.908 19.224 C88.648 18.406 88.387 17.589 88.119 16.747 C87.864 15.935 87.608 15.123 87.345 14.286 C86.595 11.957 86.595 11.957 84.494 10.122 C81.907 9.401 81.907 9.401 78.994 8.935 C78.014 8.755 77.035 8.576 76.025 8.392 C73.503 7.893 73.503 7.893 71.494 9.122 C69.634 8.804 69.634 8.804 67.41 8.224 C62.858 7.142 58.495 6.701 53.83 6.489 C52.637 6.427 52.637 6.427 51.42 6.363 C49.748 6.277 48.076 6.195 46.404 6.117 C43.895 5.998 41.388 5.868 38.881 5.735 C30.004 5.284 21.177 5.044 12.289 5.189 C9.494 5.122 9.494 5.122 7.494 4.122 C5.02 3.971 2.593 3.891 0.119 3.872 C-0.554 3.851 -1.227 3.831 -1.92 3.81 C-6.092 3.777 -8.482 4.175 -11.506 7.122 C-11.131 4.185 -11.131 4.185 -10.506 1.122 C-7.226 -0.518 -3.603 -0.021 0 0 Z " fill="#0C0A16" transform="translate(307.506103515625,177.8779296875)"/>
<path d="M0 0 C16.335 0.99 16.335 0.99 33 2 C33 2.33 33 2.66 33 3 C30.876 3.194 28.75 3.38 26.625 3.562 C25.442 3.667 24.258 3.771 23.039 3.879 C20 4 20 4 18 3 C15.526 2.849 13.1 2.769 10.625 2.75 C9.952 2.729 9.279 2.709 8.586 2.688 C4.414 2.655 2.024 3.053 -1 6 C-0.67 4.02 -0.34 2.04 0 0 Z " fill="#15121F" transform="translate(297,179)"/>
</svg>
