<?xml version="1.0" encoding="UTF-8"?>
<!-- Generator: visioncortex VTracer 0.6.4 -->
<svg version="1.1" xmlns="http://www.w3.org/2000/svg" width="512" height="512">
<path d="M0 0 C3.898 0.529 6.839 1.581 10.387 3.324 C12.233 6.175 12.783 8.861 13.246 12.195 C13.389 13.216 13.532 14.238 13.679 15.29 C13.906 17.008 13.906 17.008 14.137 18.762 C14.387 20.62 14.387 20.62 14.643 22.515 C16.839 39.074 18.629 55.686 20.475 72.287 C20.602 73.426 20.729 74.565 20.859 75.738 C20.986 76.876 21.112 78.014 21.243 79.186 C22.087 86.744 22.971 94.297 23.883 101.848 C24.118 103.809 24.353 105.771 24.588 107.732 C24.919 110.487 25.252 113.242 25.593 115.996 C29.073 144.074 29.073 144.074 25.387 152.324 C21.63 156.186 17.614 158.221 12.18 158.395 C8.113 158.165 6.111 157.9 2.825 155.289 C-0.178 151.637 -0.557 148.667 -0.868 144.117 C-0.942 143.301 -1.016 142.485 -1.092 141.644 C-1.332 138.935 -1.539 136.224 -1.746 133.512 C-1.909 131.586 -2.074 129.661 -2.241 127.736 C-2.678 122.632 -3.087 117.526 -3.49 112.42 C-3.813 108.396 -4.154 104.373 -4.497 100.351 C-6.308 79.106 -7.908 57.847 -9.355 36.574 C-9.421 35.63 -9.486 34.686 -9.553 33.714 C-9.951 27.919 -10.307 22.124 -10.613 16.324 C-10.721 14.453 -10.721 14.453 -10.831 12.545 C-10.886 10.943 -10.886 10.943 -10.942 9.309 C-10.977 8.424 -11.012 7.539 -11.048 6.628 C-9.885 0.468 -5.348 -0.256 0 0 Z " fill="#717374" transform="translate(314.61328125,143.67578125)"/>
</svg>
