<?xml version="1.0" encoding="UTF-8"?>
<!-- Generator: visioncortex VTracer 0.6.4 -->
<svg version="1.1" xmlns="http://www.w3.org/2000/svg" width="512" height="512">
<path d="M0 0 C0.33 0 0.66 0 1 0 C1 5.94 1 11.88 1 18 C13.222 18.068 25.443 18.123 37.665 18.155 C43.339 18.171 49.014 18.192 54.688 18.226 C60.16 18.259 65.633 18.277 71.105 18.285 C73.197 18.29 75.288 18.301 77.38 18.317 C80.302 18.339 83.223 18.342 86.144 18.341 C87.016 18.351 87.888 18.362 88.786 18.373 C91.43 18.395 91.43 18.395 95 18 C95.99 16.515 95.99 16.515 97 15 C97.052 15.738 97.103 16.476 97.156 17.236 C99.465 50.236 101.827 83.23 104.688 116.188 C104.841 117.985 104.841 117.985 104.997 119.819 C105.287 123.207 105.586 126.594 105.887 129.98 C106.011 131.445 106.011 131.445 106.139 132.939 C106.531 144.047 106.531 144.047 111.438 153.188 C117.592 154.591 123.475 154.391 129.062 151.312 C134.926 144.314 133.489 134.117 132.805 125.559 C132.185 118.953 131.386 112.368 130.594 105.781 C130.346 103.667 130.1 101.553 129.854 99.439 C129.21 93.917 128.557 88.396 127.901 82.876 C126.849 74.015 125.809 65.153 124.774 56.29 C124.412 53.208 124.045 50.126 123.677 47.045 C123.454 45.153 123.232 43.261 123.01 41.369 C122.907 40.52 122.804 39.671 122.698 38.797 C122.159 34.16 121.899 29.668 122 25 C122.33 25 122.66 25 123 25 C124.854 35.675 126.322 46.347 127.438 57.125 C128.505 67.426 129.633 77.718 130.875 88 C130.957 88.678 131.039 89.357 131.123 90.056 C132.673 102.824 134.422 115.563 136.25 128.295 C137.709 138.509 139.002 148.73 140 159 C140.07 159.681 140.139 160.362 140.211 161.064 C141.48 174.053 140.423 186.723 139.25 199.688 C139.062 201.86 138.875 204.032 138.688 206.204 C138.145 212.471 137.578 218.736 137 225 C136.92 225.873 136.839 226.747 136.757 227.647 C134.297 254.301 134.297 254.301 133 259 C128.673 259.827 124.589 260.126 120.186 260.127 C119.196 260.129 119.196 260.129 118.185 260.132 C115.986 260.136 113.786 260.133 111.587 260.129 C110.005 260.131 108.423 260.133 106.841 260.135 C102.554 260.139 98.267 260.137 93.98 260.134 C89.493 260.132 85.006 260.134 80.519 260.136 C72.988 260.138 65.457 260.135 57.926 260.13 C49.214 260.125 40.503 260.127 31.791 260.132 C24.312 260.137 16.832 260.137 9.353 260.135 C4.885 260.133 0.418 260.133 -4.05 260.136 C-8.246 260.139 -12.443 260.137 -16.64 260.131 C-18.182 260.13 -19.724 260.13 -21.266 260.133 C-23.366 260.135 -25.467 260.132 -27.567 260.127 C-28.744 260.127 -29.921 260.126 -31.133 260.126 C-34 260 -34 260 -37 259 C-39.282 240.911 -41.33 222.799 -43.037 204.646 C-43.218 202.749 -43.403 200.852 -43.594 198.956 C-45.599 178.919 -44.515 159.591 -41.75 139.688 C-41.413 137.181 -41.08 134.673 -40.747 132.166 C-40.517 130.435 -40.286 128.705 -40.054 126.974 C-38.719 116.993 -37.516 106.997 -36.312 97 C-35.914 93.687 -35.514 90.375 -35.113 87.062 C-35.019 86.281 -34.924 85.499 -34.827 84.694 C-34.246 79.927 -33.627 75.166 -32.98 70.406 C-32.258 65.058 -31.606 59.706 -31 54.344 C-30.917 53.617 -30.835 52.89 -30.75 52.142 C-30.413 49.172 -30.077 46.202 -29.75 43.23 C-29.505 41.018 -29.253 38.806 -29 36.594 C-28.856 35.301 -28.711 34.009 -28.562 32.678 C-27.992 28.95 -27.114 25.594 -26 22 C-25.67 22 -25.34 22 -25 22 C-25.592 33.362 -26.794 44.61 -28.143 55.904 C-28.512 58.999 -28.876 62.095 -29.239 65.19 C-30.271 73.98 -31.313 82.768 -32.355 91.557 C-32.996 96.962 -33.632 102.367 -34.265 107.773 C-34.622 110.809 -34.985 113.845 -35.349 116.881 C-35.568 118.752 -35.787 120.624 -36.006 122.496 C-36.107 123.328 -36.209 124.16 -36.313 125.018 C-37.307 133.633 -38.071 142.055 -34 150 C-30.18 153.596 -25.105 154.122 -20 154 C-16.97 153.462 -15.69 152.757 -13 151 C-10.249 144.238 -10.223 136.795 -9.668 129.59 C-9.55 128.131 -9.432 126.671 -9.314 125.212 C-8.995 121.274 -8.686 117.334 -8.38 113.394 C-8.123 110.11 -7.861 106.827 -7.599 103.544 C-4.85 69.045 -2.389 34.525 0 0 Z M-17 192 C-17.635 195.123 -17.635 195.123 -17.566 198.715 C-17.573 199.367 -17.579 200.019 -17.585 200.691 C-17.592 202.069 -17.589 203.446 -17.576 204.824 C-17.563 206.928 -17.597 209.027 -17.635 211.131 C-17.636 212.471 -17.634 213.812 -17.629 215.152 C-17.63 216.369 -17.63 217.586 -17.631 218.84 C-17.253 222.05 -17.253 222.05 -15.186 224.166 C-10.362 226.943 -5.863 226.55 -0.388 226.502 C0.786 226.507 1.961 226.513 3.171 226.518 C6.384 226.528 9.596 226.521 12.809 226.504 C16.174 226.49 19.539 226.497 22.905 226.501 C28.555 226.503 34.204 226.49 39.854 226.467 C46.384 226.44 52.913 226.438 59.443 226.45 C65.729 226.461 72.015 226.455 78.301 226.44 C80.975 226.435 83.648 226.435 86.321 226.439 C90.054 226.442 93.785 226.426 97.518 226.404 C98.627 226.409 99.736 226.413 100.879 226.418 C101.895 226.408 102.912 226.398 103.959 226.388 C104.841 226.385 105.723 226.383 106.632 226.38 C109.53 225.915 110.907 225.038 113 223 C113.62 219.762 113.62 219.762 113.531 216.031 C113.535 215.355 113.539 214.678 113.543 213.981 C113.546 212.552 113.538 211.123 113.521 209.694 C113.5 207.507 113.521 205.323 113.547 203.137 C113.544 201.747 113.539 200.358 113.531 198.969 C113.524 197.073 113.524 197.073 113.518 195.139 C113.315 191.976 113.315 191.976 111.286 190.328 C108.591 188.762 107.015 188.623 103.914 188.619 C102.888 188.611 101.862 188.602 100.804 188.593 C99.124 188.603 99.124 188.603 97.41 188.612 C96.226 188.607 95.042 188.601 93.822 188.596 C90.578 188.585 87.335 188.588 84.091 188.597 C80.695 188.605 77.299 188.598 73.903 188.593 C68.2 188.587 62.497 188.595 56.794 188.609 C50.202 188.625 43.611 188.62 37.019 188.603 C31.358 188.59 25.697 188.588 20.036 188.596 C16.655 188.6 13.275 188.601 9.895 188.591 C6.126 188.584 2.358 188.595 -1.41 188.612 C-2.53 188.606 -3.65 188.6 -4.804 188.593 C-5.831 188.602 -6.857 188.61 -7.914 188.619 C-8.805 188.62 -9.696 188.621 -10.614 188.622 C-13.522 189.083 -14.898 189.959 -17 192 Z " fill="#005EBF" transform="translate(208,147)"/>
<path d="M0 0 C1.98 0 3.96 0 6 0 C6 0.33 6 0.66 6 1 C4.02 1 2.04 1 0 1 C0 0.67 0 0.34 0 0 Z " fill="#C49B56" transform="translate(329,424)"/>
<path d="M0 0 C0.66 0.66 1.32 1.32 2 2 C1.01 1.67 0.02 1.34 -1 1 C-0.67 0.67 -0.34 0.34 0 0 Z " fill="#1C1D21" transform="translate(203,142)"/>
<path d="M0 0 C0.99 0.495 0.99 0.495 2 1 C1.01 1.495 1.01 1.495 0 2 C0 1.34 0 0.68 0 0 Z " fill="#929392" transform="translate(341,410)"/>
<path d="" fill="#0957B6" transform="translate(0,0)"/>
<path d="" fill="#B39B73" transform="translate(0,0)"/>
<path d="" fill="#B4986A" transform="translate(0,0)"/>
<path d="" fill="#0356BA" transform="translate(0,0)"/>
<path d="M0 0 C2 1 2 1 2 1 Z " fill="#0E1014" transform="translate(308,143)"/>
<path d="" fill="#98999C" transform="translate(0,0)"/>
<path d="" fill="#125CB0" transform="translate(0,0)"/>
<path d="" fill="#1D2023" transform="translate(0,0)"/>
</svg>
