<?xml version="1.0" encoding="UTF-8"?>
<!-- Generator: visioncortex VTracer 0.6.4 -->
<svg version="1.1" xmlns="http://www.w3.org/2000/svg" width="512" height="512">
<path d="M0 0 C3.389 -0.022 6.778 -0.038 10.166 -0.051 C11.195 -0.058 12.223 -0.066 13.282 -0.074 C14.216 -0.076 15.149 -0.078 16.111 -0.08 C16.932 -0.084 17.753 -0.088 18.599 -0.092 C20.469 0.025 20.469 0.025 21.469 1.025 C21.542 3.888 21.562 6.726 21.532 9.588 C21.527 10.394 21.523 11.2 21.518 12.031 C21.506 14.029 21.488 16.027 21.469 18.025 C18.3 19.082 16.12 19.134 12.794 19.108 C11.02 19.097 11.02 19.097 9.211 19.086 C7.913 19.073 6.615 19.06 5.277 19.047 C3.897 19.037 2.518 19.027 1.138 19.018 C-2.61 18.991 -6.357 18.959 -10.105 18.925 C-14.021 18.89 -17.937 18.862 -21.852 18.833 C-29.268 18.776 -36.684 18.715 -44.1 18.652 C-52.543 18.58 -60.985 18.514 -69.428 18.449 C-86.796 18.314 -104.163 18.172 -121.531 18.025 C-121.531 12.415 -121.531 6.805 -121.531 1.025 C-106.56 0.894 -91.589 0.763 -76.618 0.634 C-69.664 0.574 -62.71 0.514 -55.756 0.452 C-49.026 0.393 -42.296 0.335 -35.565 0.277 C-33.017 0.255 -30.469 0.233 -27.921 0.21 C-18.614 0.128 -9.307 0.067 0 0 Z " fill="#FCFDFD" transform="translate(305.5307922363281,405.9747619628906)"/>
</svg>
