<?xml version="1.0" encoding="UTF-8"?>
<!-- Generator: visioncortex VTracer 0.6.4 -->
<svg version="1.1" xmlns="http://www.w3.org/2000/svg" width="512" height="512">
<path d="M0 0 C1.034 -0.008 2.068 -0.015 3.133 -0.023 C5.875 0.375 5.875 0.375 7.53 1.422 C9.6 4.428 9.237 7.503 9.136 11.016 C9.124 11.772 9.112 12.528 9.1 13.307 C8.937 21.267 8.358 29.189 7.703 37.121 C7.579 38.688 7.455 40.255 7.332 41.823 C7.005 45.967 6.67 50.111 6.332 54.255 C5.983 58.558 5.641 62.861 5.298 67.165 C4.885 72.34 4.471 77.516 4.053 82.692 C3.23 92.896 2.43 103.101 1.656 113.309 C1.394 116.731 1.131 120.153 0.868 123.574 C0.707 125.674 0.549 127.774 0.393 129.874 C0.18 132.737 -0.042 135.599 -0.266 138.461 C-0.353 139.681 -0.353 139.681 -0.442 140.925 C-1.361 152.34 -1.361 152.34 -4.75 156.25 C-10.966 159.195 -15.883 158.532 -22.145 156.359 C-24.325 155.276 -25.593 154.263 -27.125 152.375 C-30.111 143.259 -29.175 134.456 -28.071 125.064 C-27.959 124.074 -27.847 123.084 -27.731 122.063 C-27.361 118.809 -26.983 115.555 -26.605 112.301 C-26.343 110.012 -26.081 107.724 -25.82 105.435 C-25.271 100.638 -24.718 95.841 -24.163 91.044 C-23.459 84.959 -22.761 78.873 -22.065 72.786 C-21.524 68.054 -20.98 63.323 -20.436 58.591 C-20.178 56.351 -19.921 54.111 -19.665 51.872 C-18.957 45.702 -18.235 39.535 -17.488 33.37 C-17.241 31.329 -16.996 29.288 -16.755 27.247 C-16.392 24.209 -16.014 21.173 -15.63 18.137 C-15.523 17.225 -15.417 16.313 -15.307 15.374 C-14.553 9.596 -13.636 5.324 -8.82 1.586 C-5.685 0.177 -3.427 -0.026 0 0 Z " fill="#737576" transform="translate(199.125,143.625)"/>
</svg>
