<?xml version="1.0" encoding="UTF-8"?>
<!-- Generator: visioncortex VTracer 0.6.4 -->
<svg version="1.1" xmlns="http://www.w3.org/2000/svg" width="512" height="512">
<path d="M0 0 C1.026 -0.008 2.052 -0.017 3.11 -0.026 C4.23 -0.02 5.35 -0.013 6.504 -0.007 C7.688 -0.012 8.872 -0.018 10.092 -0.023 C13.336 -0.034 16.58 -0.032 19.824 -0.022 C23.22 -0.014 26.616 -0.021 30.012 -0.026 C35.715 -0.032 41.417 -0.024 47.12 -0.01 C53.712 0.006 60.303 0.001 66.895 -0.016 C72.556 -0.029 78.217 -0.031 83.879 -0.023 C87.259 -0.019 90.639 -0.018 94.02 -0.028 C97.788 -0.036 101.556 -0.024 105.324 -0.007 C107.005 -0.016 107.005 -0.016 108.719 -0.026 C109.745 -0.017 110.771 -0.009 111.829 0 C112.719 0.001 113.61 0.002 114.528 0.003 C117.439 0.464 118.814 1.333 120.914 3.381 C121.432 6.52 121.432 6.52 121.446 10.35 C121.449 11.026 121.453 11.703 121.457 12.4 C121.46 13.829 121.453 15.258 121.436 16.687 C121.414 18.874 121.436 21.057 121.461 23.244 C121.459 24.634 121.453 26.023 121.446 27.412 C121.441 28.676 121.437 29.94 121.432 31.242 C120.914 34.381 120.914 34.381 119.197 36.053 C116.518 37.612 114.957 37.76 111.873 37.769 C110.857 37.779 109.841 37.788 108.793 37.799 C107.684 37.794 106.575 37.79 105.432 37.785 C104.259 37.792 103.087 37.799 101.878 37.806 C98.665 37.821 95.453 37.823 92.24 37.817 C89.556 37.814 86.872 37.82 84.188 37.826 C77.856 37.84 71.523 37.838 65.19 37.827 C58.661 37.816 52.133 37.83 45.603 37.856 C39.994 37.879 34.385 37.885 28.775 37.879 C25.426 37.876 22.078 37.878 18.729 37.896 C14.995 37.91 11.261 37.9 7.526 37.883 C5.865 37.897 5.865 37.897 4.171 37.912 C-3.288 37.84 -3.288 37.84 -7.272 35.547 C-9.812 32.513 -9.717 30.457 -9.715 26.533 C-9.717 25.88 -9.719 25.227 -9.722 24.554 C-9.721 23.178 -9.708 21.802 -9.683 20.427 C-9.648 18.321 -9.662 16.219 -9.681 14.113 C-9.674 12.774 -9.665 11.435 -9.652 10.096 C-9.641 8.88 -9.63 7.664 -9.619 6.412 C-9.086 3.381 -9.086 3.381 -7.37 1.715 C-4.675 0.141 -3.105 0.004 0 0 Z " fill="#22212D" transform="translate(200.085693359375,335.6190490722656)"/>
</svg>
