<?xml version="1.0" encoding="UTF-8"?>
<!-- Generator: visioncortex VTracer 0.6.4 -->
<svg version="1.1" xmlns="http://www.w3.org/2000/svg" width="512" height="512">
<path d="M0 0 C2.68 2.68 1.881 9.439 2 13 C1.864 18.013 1.443 23.006 1 28 C-2.3 28 -5.6 28 -9 28 C-9.797 24.5 -10.119 21.286 -10.098 17.699 C-10.094 16.723 -10.091 15.746 -10.088 14.74 C-10.08 13.733 -10.071 12.725 -10.062 11.688 C-10.058 10.661 -10.053 9.634 -10.049 8.576 C-10.037 6.051 -10.021 3.525 -10 1 C-6.747 -0.627 -3.608 -0.115 0 0 Z " fill="#282F35" transform="translate(282,209)"/>
<path d="M0 0 C0.33 0.99 0.66 1.98 1 3 C-2.63 3 -6.26 3 -10 3 C-10 2.34 -10 1.68 -10 1 C-6.785 -0.607 -3.564 -0.057 0 0 Z " fill="#1A1B1E" transform="translate(282,209)"/>
</svg>
