<?xml version="1.0" encoding="UTF-8"?>
<!-- Generator: visioncortex VTracer 0.6.4 -->
<svg version="1.1" xmlns="http://www.w3.org/2000/svg" width="512" height="512">
<path d="M0 0 C11.095 9.442 15.76 24.506 20.578 37.844 C21.027 39.05 21.475 40.257 21.938 41.5 C22.179 42.156 22.421 42.812 22.67 43.488 C23.339 45.195 24.131 46.853 24.938 48.5 C25.928 48.83 26.918 49.16 27.938 49.5 C28.57 51.461 28.57 51.461 29.062 53.875 C30.114 57.474 30.114 57.474 32.988 59.691 C35.345 60.462 35.345 60.462 37.684 60.965 C40.003 61.516 41.851 62.364 43.938 63.5 C41.757 74.81 39.306 84.743 29.969 92.164 C21.32 97.853 6.854 97.345 -3.062 96.5 C-8.781 94.843 -12.942 90.398 -16.062 85.5 C-26.564 65.441 -30.991 39.946 -24.371 17.934 C-21.711 10.955 -18.735 4.508 -13.062 -0.5 C-8.269 -2.098 -4.59 -2.248 0 0 Z M-10.625 23.312 C-14.613 26.891 -16.634 31.657 -17.431 36.948 C-17.561 39.458 -17.567 41.926 -17.5 44.438 C-17.486 45.315 -17.472 46.192 -17.458 47.096 C-17.237 54.85 -16.324 61.633 -11.812 68.125 C-9.199 70.78 -9.199 70.78 -5.5 71.188 C-1.979 70.793 -1.979 70.793 0.25 68.375 C3.767 62.383 4.296 57.037 4.25 50.25 C4.246 49.406 4.242 48.562 4.237 47.693 C4.08 39.003 2.732 31.317 -3.062 24.5 C-6.074 22.569 -7.205 22.228 -10.625 23.312 Z " fill="#262E37" transform="translate(236.0625,282.5)"/>
</svg>
