<?xml version="1.0" encoding="UTF-8"?>
<!-- Generator: visioncortex VTracer 0.6.4 -->
<svg version="1.1" xmlns="http://www.w3.org/2000/svg" width="512" height="512">
<path d="M0 0 C3.979 -0.029 7.958 -0.047 11.938 -0.062 C13.054 -0.071 14.171 -0.079 15.322 -0.088 C21.64 -0.106 27.738 0.157 34 1 C33.965 1.808 33.93 2.616 33.895 3.449 C33.854 5.052 33.854 5.052 33.812 6.688 C33.778 7.743 33.743 8.799 33.707 9.887 C34.035 13.372 35.081 15.125 37 18 C37 18.66 37 19.32 37 20 C39.475 20.99 39.475 20.99 42 22 C42 31.57 42 41.14 42 51 C35.663 51.048 29.336 51.058 23 51 C21.615 50.991 21.615 50.991 20.202 50.982 C17.487 50.954 14.776 50.888 12.062 50.812 C11.217 50.807 10.372 50.801 9.501 50.795 C5.716 50.656 3.604 50.434 0.48 48.191 C-1.803 43.268 -1.681 38.493 -1.75 33.125 C-1.777 32.008 -1.805 30.892 -1.833 29.741 C-1.907 26.494 -1.955 23.248 -2 20 C-2.039 18.398 -2.079 16.797 -2.121 15.195 C-2.217 9.48 -2.245 5.282 0 0 Z " fill="#1B1A24" transform="translate(230,184)"/>
</svg>
