<?xml version="1.0" encoding="UTF-8"?>
<!-- Generator: visioncortex VTracer 0.6.4 -->
<svg version="1.1" xmlns="http://www.w3.org/2000/svg" width="512" height="512">
<path d="M0 0 C6.939 3.785 10.172 9.225 14 16 C14.465 16.807 14.931 17.614 15.41 18.445 C20.864 28.552 24.203 40.366 24.062 51.875 C24.053 52.842 24.044 53.809 24.035 54.805 C24.024 55.529 24.012 56.254 24 57 C20.875 53.462 19.67 49.47 18.25 45.062 C14.723 34.624 10.318 22.367 1.125 15.625 C-3.024 14.405 -6.626 14.324 -10.531 16.246 C-19.803 22.833 -22.308 36.818 -24.25 47.312 C-24.508 48.874 -24.762 50.436 -25 52 C-25.99 52 -26.98 52 -28 52 C-28.76 35.94 -26.43 18.648 -16.359 5.469 C-11.605 0.332 -6.738 -1.814 0 0 Z " fill="#010204" transform="translate(234,267)"/>
</svg>
