<?xml version="1.0" encoding="UTF-8"?>
<!-- Generator: visioncortex VTracer 0.6.4 -->
<svg version="1.1" xmlns="http://www.w3.org/2000/svg" width="512" height="512">
<path d="M0 0 C0.049 4.93 0.086 9.859 0.11 14.789 C0.12 16.466 0.134 18.143 0.151 19.82 C0.175 22.23 0.186 24.64 0.195 27.051 C0.206 27.801 0.216 28.551 0.227 29.324 C0.227 33.103 0.151 34.774 -2 38 C-4.231 38.448 -4.231 38.448 -6.973 38.547 C-8.445 38.607 -8.445 38.607 -9.947 38.668 C-11.489 38.709 -11.489 38.709 -13.062 38.75 C-14.094 38.793 -15.126 38.835 -16.189 38.879 C-21.72 39.075 -21.72 39.075 -24 39 C-24.33 38.67 -24.66 38.34 -25 38 C-24.934 34.926 -24.806 31.881 -24.625 28.812 C-24.548 27.462 -24.548 27.462 -24.47 26.084 C-24.365 24.257 -24.258 22.429 -24.148 20.601 C-24.016 18.277 -23.908 15.954 -23.812 13.629 C-23.751 12.39 -23.689 11.151 -23.625 9.875 C-23.576 8.779 -23.527 7.684 -23.477 6.555 C-23.319 5.712 -23.162 4.869 -23 4 C-19.615 1.743 -16.536 1.079 -12.625 0.312 C-11.965 0.17 -11.305 0.028 -10.625 -0.119 C-6.722 -0.9 -3.844 -0.898 0 0 Z " fill="#232434" transform="translate(165,198)"/>
<path d="M0 0 C0 0.99 0 1.98 0 3 C-1.234 3.364 -1.234 3.364 -2.492 3.734 C-9.485 5.834 -16.279 8.148 -23 11 C-23.188 7.625 -23.188 7.625 -23 4 C-19.615 1.743 -16.536 1.079 -12.625 0.312 C-11.965 0.17 -11.305 0.028 -10.625 -0.119 C-6.783 -0.888 -3.779 -1.087 0 0 Z " fill="#03040C" transform="translate(165,198)"/>
<path d="M0 0 C-1.234 0.364 -1.234 0.364 -2.492 0.734 C-9.485 2.834 -16.279 5.148 -23 8 C-21.63 4.839 -21.011 4.007 -18 2 C-15.493 1.359 -13.035 0.803 -10.5 0.312 C-9.823 0.17 -9.146 0.028 -8.449 -0.119 C-5.15 -0.773 -3.245 -1.082 0 0 Z " fill="#0E0E17" transform="translate(165,201)"/>
<path d="M0 0 C1.134 0.021 2.269 0.041 3.438 0.062 C2.438 2.062 2.438 2.062 0.371 2.914 C-0.864 3.297 -0.864 3.297 -2.125 3.688 C-3.364 4.078 -3.364 4.078 -4.629 4.477 C-5.267 4.67 -5.905 4.863 -6.562 5.062 C-4.148 0.073 -4.148 0.073 0 0 Z " fill="#161724" transform="translate(148.5625,203.9375)"/>
</svg>
