<?xml version="1.0" encoding="UTF-8"?>
<!-- Generator: visioncortex VTracer 0.6.4 -->
<svg version="1.1" xmlns="http://www.w3.org/2000/svg" width="512" height="512">
<path d="M0 0 C2.938 0.188 2.938 0.188 3.938 1.188 C4.025 2.968 4.044 4.752 4.035 6.535 C4.032 7.615 4.029 8.694 4.025 9.807 C4.017 10.943 4.009 12.079 4 13.25 C3.995 14.39 3.991 15.53 3.986 16.705 C3.974 19.533 3.958 22.36 3.938 25.188 C1.298 25.188 -1.342 25.188 -4.062 25.188 C-4.288 21.397 -4.49 17.605 -4.688 13.812 C-4.752 12.732 -4.816 11.652 -4.883 10.539 C-4.934 9.508 -4.986 8.477 -5.039 7.414 C-5.091 6.461 -5.144 5.508 -5.198 4.526 C-4.977 0.706 -3.67 0.225 0 0 Z " fill="#282C2F" transform="translate(395.0625,212.8125)"/>
</svg>
