<?xml version="1.0" encoding="UTF-8"?>
<!-- Generator: visioncortex VTracer 0.6.4 -->
<svg version="1.1" xmlns="http://www.w3.org/2000/svg" width="512" height="512">
<path d="M0 0 C6.157 -0.031 6.157 -0.031 12.438 -0.062 C14.382 -0.076 14.382 -0.076 16.365 -0.09 C17.884 -0.094 17.884 -0.094 19.434 -0.098 C20.476 -0.103 21.518 -0.108 22.592 -0.114 C25 0 25 0 26 1 C26.29 5.238 26.314 9.482 26.35 13.728 C26.367 15.156 26.394 16.584 26.432 18.011 C26.487 20.068 26.509 22.122 26.523 24.18 C26.543 25.414 26.563 26.649 26.583 27.921 C26 31 26 31 23.658 32.904 C20.486 34.212 18.113 34.366 14.688 34.312 C13.619 34.309 12.55 34.305 11.449 34.301 C8 34 8 34 0 32 C0 21.44 0 10.88 0 0 Z " fill="#E89B04" transform="translate(273,277)"/>
</svg>
