<?xml version="1.0" encoding="UTF-8"?>
<!-- Generator: visioncortex VTracer 0.6.4 -->
<svg version="1.1" xmlns="http://www.w3.org/2000/svg" width="512" height="512">
<path d="M0 0 C2.5 0.125 2.5 0.125 3.5 1.125 C3.6 3.761 3.639 6.365 3.625 9 C3.629 9.733 3.633 10.467 3.637 11.223 C3.631 14.449 3.527 17.043 2.5 20.125 C0.52 19.795 -1.46 19.465 -3.5 19.125 C-3.527 16.146 -3.547 13.167 -3.562 10.188 C-3.571 9.337 -3.579 8.487 -3.588 7.611 C-3.591 6.802 -3.594 5.994 -3.598 5.16 C-3.603 4.411 -3.608 3.662 -3.614 2.891 C-3.43 0.042 -2.851 0.143 0 0 Z " fill="#252C32" transform="translate(363.5,222.875)"/>
</svg>
