<?xml version="1.0" encoding="UTF-8"?>
<!-- Generator: visioncortex VTracer 0.6.4 -->
<svg version="1.1" xmlns="http://www.w3.org/2000/svg" width="512" height="512">
<path d="M0 0 C12.852 16.325 12.282 37.315 10.079 57.026 C8.385 70.486 3.73 83.723 -6.875 92.812 C-11.099 94.502 -15.195 94.173 -19.688 93.938 C-20.017 92.947 -20.348 91.957 -20.688 90.938 C-21.348 90.938 -22.007 90.938 -22.688 90.938 C-33.739 79.383 -36.773 59.997 -36.816 44.563 C-36.45 37.082 -33.999 30.005 -31.688 22.938 C-31.212 21.386 -30.736 19.833 -30.262 18.281 C-25.133 2.102 -25.133 2.102 -18.688 -3.062 C-12.528 -5.678 -5.142 -3.946 0 0 Z M-14.688 23.938 C-20.641 32.654 -21.361 44.854 -20.062 55 C-18.909 61.095 -17.067 64.558 -12.688 68.938 C-10.362 69.691 -10.362 69.691 -7.688 68.938 C-1.767 64.445 0.259 58.038 1.312 50.938 C2.416 36.79 2.416 36.79 -3.152 24.219 C-7.725 20.194 -9.966 20.228 -14.688 23.938 Z " fill="#283038" transform="translate(285.6875,286.0625)"/>
</svg>
