<?xml version="1.0" encoding="UTF-8"?>
<!-- Generator: visioncortex VTracer 0.6.4 -->
<svg version="1.1" xmlns="http://www.w3.org/2000/svg" width="512" height="512">
<path d="M0 0 C1.328 0.331 2.656 0.661 3.984 0.99 C7.452 1.852 10.918 2.723 14.383 3.597 C19.93 4.993 25.48 6.375 31.03 7.758 C32.948 8.237 34.865 8.72 36.782 9.203 C42.77 10.704 48.746 12.123 54.813 13.266 C58.371 13.98 61.835 14.958 65.309 16.004 C65.993 16.191 66.678 16.379 67.383 16.572 C72.034 17.977 74.338 19.598 76.934 23.691 C83.909 36.721 82.489 56.718 83.566 71.051 C83.637 71.994 83.709 72.937 83.782 73.909 C83.942 76.842 83.959 79.755 83.934 82.691 C84.793 82.68 85.653 82.668 86.539 82.656 C92.701 82.609 98.843 82.652 104.996 83.004 C106.018 83.062 107.041 83.12 108.094 83.18 C111.304 83.758 113.3 84.79 115.934 86.691 C117.186 89.196 117.047 90.9 117.031 93.699 C117.028 94.685 117.025 95.671 117.021 96.688 C117.013 97.72 117.005 98.753 116.996 99.816 C116.992 100.857 116.987 101.897 116.982 102.969 C116.971 105.543 116.954 108.117 116.934 110.691 C114.624 110.691 112.314 110.691 109.934 110.691 C109.999 111.837 110.065 112.983 110.133 114.164 C110.375 118.4 110.61 122.636 110.843 126.872 C110.945 128.708 111.049 130.544 111.155 132.381 C111.306 135.014 111.45 137.648 111.594 140.281 C111.667 141.52 111.667 141.52 111.742 142.784 C111.846 144.752 111.895 146.722 111.934 148.691 C110.934 149.691 110.934 149.691 108.371 149.754 C107.567 149.733 106.762 149.713 105.934 149.691 C106.264 149.031 106.594 148.371 106.934 147.691 C107.156 134.928 105.273 117.364 95.934 107.691 C93.066 105.817 93.066 105.817 89.934 105.691 C83.382 108.726 81.494 114.273 78.934 120.691 C75.834 129.684 74.475 138.153 74.891 147.703 C74.932 150.557 74.536 152.917 73.934 155.691 C69.952 156.412 65.968 157.124 61.983 157.828 C60.631 158.068 59.279 158.31 57.927 158.555 C44.108 161.057 44.108 161.057 36.934 160.691 C36.869 160.043 36.804 159.394 36.738 158.726 C34.477 133.323 34.477 133.323 21.934 111.691 C17.259 108.35 13.534 107.899 7.934 108.691 C5.062 110.061 5.062 110.061 2.934 111.691 C2.274 111.691 1.614 111.691 0.934 111.691 C0.685 112.213 0.436 112.736 0.18 113.273 C-1.731 116.982 -3.898 120.55 -6.057 124.119 C-10.413 131.561 -12.482 139.621 -14.254 148.004 C-14.519 149.24 -14.519 149.24 -14.789 150.5 C-15.94 156.198 -16.375 161.522 -15.914 167.344 C-16.106 170.295 -17.247 171.429 -19.066 173.691 C-19.234 170.254 -19.4 166.816 -19.566 163.379 C-19.638 161.914 -19.638 161.914 -19.711 160.42 C-19.756 159.482 -19.801 158.544 -19.848 157.578 C-19.91 156.282 -19.91 156.282 -19.975 154.96 C-20.463 142.903 -20.066 130.761 -20.066 118.691 C-21.6 118.699 -21.6 118.699 -23.165 118.707 C-55.276 118.855 -87.365 118.377 -119.47 117.764 C-125.996 117.641 -132.521 117.522 -139.047 117.402 C-151.72 117.17 -164.393 116.932 -177.066 116.691 C-178.122 113.524 -178.038 112.082 -177.633 108.829 C-177.511 107.833 -177.39 106.836 -177.266 105.81 C-177.126 104.724 -176.987 103.638 -176.844 102.52 C-176.703 101.385 -176.563 100.251 -176.418 99.082 C-175.955 95.367 -175.48 91.654 -175.004 87.941 C-174.844 86.684 -174.684 85.426 -174.519 84.131 C-172.54 68.589 -170.533 53.048 -168.244 37.549 C-168.002 35.906 -167.765 34.262 -167.534 32.617 C-167.212 30.356 -166.871 28.098 -166.523 25.84 C-166.338 24.594 -166.152 23.348 -165.96 22.064 C-164.504 16.571 -161.366 12.196 -156.867 8.696 C-153.212 6.657 -149.234 6.456 -145.129 6.066 C-143.611 5.898 -143.611 5.898 -142.062 5.727 C-130.141 4.471 -118.17 3.622 -106.213 2.781 C-98.702 2.247 -91.23 1.638 -83.758 0.699 C-73.518 -0.58 -63.237 -1.205 -52.941 -1.871 C-50.06 -2.059 -47.179 -2.249 -44.299 -2.442 C-42.526 -2.56 -40.753 -2.676 -38.979 -2.789 C-35.482 -3.022 -32.117 -3.3 -28.661 -3.914 C-18.847 -4.992 -9.449 -2.401 0 0 Z M-65.427 18.163 C-66.269 18.213 -67.11 18.264 -67.976 18.316 C-75.707 18.784 -83.437 19.277 -91.166 19.779 C-96.356 20.116 -101.547 20.444 -106.739 20.751 C-111.763 21.048 -116.786 21.368 -121.808 21.704 C-123.721 21.828 -125.634 21.944 -127.548 22.052 C-130.226 22.204 -132.9 22.385 -135.576 22.573 C-136.76 22.63 -136.76 22.63 -137.968 22.689 C-141.913 22.997 -143.907 23.564 -147.032 26.058 C-149.542 29.307 -150.059 31.645 -150.691 35.691 C-150.854 36.709 -150.854 36.709 -151.02 37.747 C-151.255 39.24 -151.48 40.734 -151.697 42.229 C-152.098 44.905 -152.557 47.568 -153.02 50.234 C-153.329 52.116 -153.636 53.997 -153.941 55.879 C-154.098 56.775 -154.255 57.672 -154.417 58.596 C-154.546 59.446 -154.675 60.296 -154.809 61.172 C-154.931 61.924 -155.053 62.675 -155.179 63.45 C-155.016 66.701 -154.204 68.24 -152.066 70.691 C-148.791 71.403 -148.791 71.403 -144.93 71.215 C-144.198 71.211 -143.467 71.206 -142.713 71.202 C-140.268 71.181 -137.824 71.124 -135.379 71.066 C-133.659 71.044 -131.939 71.023 -130.22 71.004 C-125.516 70.944 -120.813 70.852 -116.109 70.753 C-111.89 70.668 -107.67 70.603 -103.451 70.536 C-98.072 70.451 -92.694 70.354 -87.316 70.254 C-86.284 70.235 -85.252 70.216 -84.188 70.196 C-81.215 70.138 -78.242 70.074 -75.27 70.008 C-74.4 69.991 -73.531 69.974 -72.635 69.957 C-70.11 69.897 -67.589 69.798 -65.066 69.691 C-64.097 69.669 -63.127 69.647 -62.127 69.624 C-56.312 69.414 -56.312 69.414 -51.431 66.543 C-49.842 63.222 -49.438 60.738 -49.238 57.062 C-49.161 55.779 -49.084 54.496 -49.004 53.174 C-48.941 51.826 -48.879 50.477 -48.816 49.129 C-48.739 47.821 -48.662 46.513 -48.582 45.166 C-48.242 39.081 -47.998 32.992 -47.879 26.898 C-47.85 25.485 -47.85 25.485 -47.82 24.042 C-47.879 21.407 -47.879 21.407 -50.316 18.941 C-55.06 16.785 -60.319 17.851 -65.427 18.163 Z M-8.066 20.691 C-10.947 24.764 -11.526 27.846 -11.797 32.793 C-11.837 33.47 -11.877 34.147 -11.919 34.845 C-12.043 37.002 -12.148 39.159 -12.254 41.316 C-12.335 42.742 -12.418 44.168 -12.502 45.594 C-12.732 49.625 -12.907 53.657 -13.066 57.691 C-13.117 58.815 -13.169 59.939 -13.221 61.097 C-13.249 62.084 -13.276 63.072 -13.305 64.09 C-13.332 64.94 -13.36 65.79 -13.388 66.666 C-13.282 67.334 -13.176 68.003 -13.066 68.691 C-9.367 71.158 -6.271 71.171 -1.969 71.395 C-1.179 71.441 -0.389 71.487 0.425 71.535 C2.094 71.63 3.762 71.72 5.431 71.807 C7.991 71.941 10.549 72.097 13.107 72.254 C14.728 72.344 16.348 72.432 17.969 72.52 C18.736 72.567 19.504 72.615 20.295 72.664 C22.173 72.753 24.055 72.732 25.934 72.691 C30.499 68.126 28.98 57.762 29.059 51.504 C28.984 43.227 28.413 34.953 27.934 26.691 C23.998 25.869 20.06 25.06 16.121 24.254 C15.021 24.024 13.921 23.794 12.787 23.557 C5.843 22.143 -0.994 21.16 -8.066 20.691 Z M43.934 32.691 C42.133 40.595 42.975 49.109 43.309 57.129 C43.352 58.394 43.396 59.659 43.441 60.963 C43.569 67.431 43.569 67.431 44.934 73.691 C47.45 74.95 49.347 74.9 52.16 75.008 C53.191 75.05 54.223 75.092 55.285 75.135 C56.365 75.174 57.446 75.213 58.559 75.254 C60.191 75.319 60.191 75.319 61.855 75.385 C64.548 75.491 67.241 75.593 69.934 75.691 C71.435 72.688 71.081 69.609 71.059 66.316 C71.054 65.576 71.049 64.836 71.044 64.074 C71.018 61.613 70.978 59.152 70.934 56.691 C70.921 55.797 70.908 54.902 70.896 53.98 C70.848 51.258 70.77 48.538 70.684 45.816 C70.67 44.955 70.656 44.093 70.641 43.206 C70.531 38.608 70.531 38.608 68.352 34.727 C65.14 33.352 61.917 32.616 58.496 32.004 C57.841 31.874 57.185 31.745 56.51 31.611 C49.675 29.936 49.675 29.936 43.934 32.691 Z M-15.066 83.691 C-16.183 87.04 -16.234 89.667 -16.254 93.191 C-16.268 94.336 -16.282 95.481 -16.297 96.66 C-16.302 99.869 -16.302 99.869 -14.066 102.691 C-11.243 103.171 -11.243 103.171 -8.066 103.066 C-6.994 103.074 -5.921 103.082 -4.816 103.09 C-3.455 102.893 -3.455 102.893 -2.066 102.691 C0.394 99 0.202 97.021 0.184 92.629 C0.189 91.38 0.194 90.131 0.199 88.844 C0.267 85.594 0.267 85.594 -2.066 83.691 C-5.195 83.448 -5.195 83.448 -8.691 83.566 C-10.474 83.593 -10.474 83.593 -12.293 83.621 C-13.208 83.644 -14.123 83.668 -15.066 83.691 Z M45.934 84.691 C45.934 88.981 45.934 93.271 45.934 97.691 C48.71 98.617 50.611 98.884 53.496 98.941 C54.281 98.967 55.066 98.993 55.875 99.02 C56.554 98.911 57.234 98.803 57.934 98.691 C59.932 95.694 60.209 95.058 60.184 91.691 C60.189 91.011 60.194 90.33 60.199 89.629 C60.033 87.367 60.033 87.367 57.934 84.691 C55.038 84.326 55.038 84.326 51.809 84.504 C48.9 84.597 48.9 84.597 45.934 84.691 Z " fill="#005BBA" transform="translate(264.06640625,159.30859375)"/>
<path d="M0 0 C2.438 0.375 2.438 0.375 5 1 C6.639 4.279 6.12 7.906 6.098 11.508 C6.096 12.348 6.095 13.189 6.093 14.055 C6.088 16.745 6.075 19.435 6.062 22.125 C6.057 23.947 6.053 25.768 6.049 27.59 C6.038 32.06 6.021 36.53 6 41 C5.01 41.495 5.01 41.495 4 42 C4.017 40.291 4.017 40.291 4.035 38.547 C4.098 29.693 4.025 20.848 3.688 12 C3.665 11.146 3.643 10.293 3.619 9.413 C3.584 8.617 3.548 7.82 3.512 7 C3.486 6.299 3.459 5.597 3.432 4.875 C2.885 2.5 1.827 1.556 0 0 Z " fill="#004297" transform="translate(330,193)"/>
<path d="M0 0 C2.475 0.495 2.475 0.495 5 1 C6.268 5.687 5.911 10.033 5.562 14.812 C5.51 15.601 5.458 16.389 5.404 17.201 C5.275 19.135 5.139 21.067 5 23 C4.67 23 4.34 23 4 23 C3.978 22.115 3.978 22.115 3.956 21.212 C3.881 18.536 3.785 15.862 3.688 13.188 C3.665 12.259 3.642 11.33 3.619 10.373 C3.584 9.48 3.548 8.588 3.512 7.668 C3.472 6.435 3.472 6.435 3.432 5.177 C2.915 2.574 2.018 1.661 0 0 Z " fill="#022E71" transform="translate(330,193)"/>
<path d="M0 0 C1.642 3.283 2.367 5.028 2.812 8.5 C2.922 9.253 3.032 10.006 3.145 10.781 C3 13 3 13 0 17 C0 11.39 0 5.78 0 0 Z " fill="#074580" transform="translate(245,316)"/>
<path d="M0 0 C2.64 0 5.28 0 8 0 C8 0.33 8 0.66 8 1 C5.36 1 2.72 1 0 1 C0 0.67 0 0.34 0 0 Z " fill="#242930" transform="translate(265,380)"/>
<path d="M0 0 C1.65 0 3.3 0 5 0 C5 0.33 5 0.66 5 1 C3.35 1 1.7 1 0 1 C0 0.67 0 0.34 0 0 Z " fill="#0E0E0E" transform="translate(162,339)"/>
<path d="M0 0 C1.485 0.99 1.485 0.99 3 2 C2.01 2 1.02 2 0 2 C0 1.34 0 0.68 0 0 Z " fill="#242931" transform="translate(348,353)"/>
<path d="M0 0 C4 1 4 1 4 1 Z " fill="#161819" transform="translate(136,337)"/>
<path d="M0 0 C0.33 0.99 0.66 1.98 1 3 C0.34 2.67 -0.32 2.34 -1 2 C-0.67 1.34 -0.34 0.68 0 0 Z " fill="#0C0E11" transform="translate(249,325)"/>
<path d="M0 0 C3 1 3 1 3 1 Z " fill="#0D0E0E" transform="translate(150,338)"/>
<path d="" fill="#4A4F54" transform="translate(0,0)"/>
<path d="" fill="#252B33" transform="translate(0,0)"/>
<path d="M0 0 C2 1 2 1 2 1 Z " fill="#3B4046" transform="translate(234,342)"/>
<path d="M0 0 C2 1 2 1 2 1 Z " fill="#333A40" transform="translate(124,336)"/>
<path d="" fill="#262D36" transform="translate(0,0)"/>
<path d="" fill="#262C34" transform="translate(0,0)"/>
<path d="" fill="#272D34" transform="translate(0,0)"/>
<path d="" fill="#272D34" transform="translate(0,0)"/>
<path d="" fill="#282F36" transform="translate(0,0)"/>
<path d="" fill="#262B33" transform="translate(0,0)"/>
<path d="" fill="#262C34" transform="translate(0,0)"/>
<path d="" fill="#262B34" transform="translate(0,0)"/>
<path d="" fill="#33383D" transform="translate(0,0)"/>
<path d="" fill="#3B4045" transform="translate(0,0)"/>
<path d="" fill="#262B34" transform="translate(0,0)"/>
<path d="" fill="#0D0E0E" transform="translate(0,0)"/>
<path d="" fill="#454A4F" transform="translate(0,0)"/>
<path d="" fill="#262B34" transform="translate(0,0)"/>
<path d="" fill="#383E44" transform="translate(0,0)"/>
<path d="" fill="#282F36" transform="translate(0,0)"/>
<path d="" fill="#262C34" transform="translate(0,0)"/>
<path d="" fill="#0C0E11" transform="translate(0,0)"/>
</svg>
