<?xml version="1.0" encoding="UTF-8"?>
<!-- Generator: visioncortex VTracer 0.6.4 -->
<svg version="1.1" xmlns="http://www.w3.org/2000/svg" width="512" height="512">
<path d="M0 0 C8.398 -0.195 8.398 -0.195 11 0 C13 2 13 2 13.227 3.879 C13.217 4.623 13.206 5.367 13.195 6.133 C13.189 6.938 13.182 7.744 13.176 8.574 C13.159 9.416 13.142 10.258 13.125 11.125 C13.116 11.974 13.107 12.824 13.098 13.699 C13.074 15.8 13.038 17.9 13 20 C9.812 21.594 6.371 21.102 2.875 21.062 C2.121 21.058 1.367 21.053 0.59 21.049 C-1.273 21.037 -3.137 21.019 -5 21 C-5 19.68 -5 18.36 -5 17 C-3.35 16.67 -1.7 16.34 0 16 C0 10.72 0 5.44 0 0 Z " fill="#8B8E92" transform="translate(375,292)"/>
</svg>
