<?xml version="1.0" encoding="UTF-8"?>
<!-- Generator: visioncortex VTracer 0.6.4 -->
<svg version="1.1" xmlns="http://www.w3.org/2000/svg" width="512" height="512">
<path d="M0 0 C7.624 6.752 9.588 19.356 10.188 29.023 C10.488 44.213 9.332 62.289 -0.535 74.512 C-2.903 76.917 -4.485 77.966 -7.875 78.188 C-12.048 76.602 -12.92 74.624 -14.84 70.711 C-21.809 54.426 -23.886 38.534 -19.312 21.438 C-18.946 19.953 -18.946 19.953 -18.572 18.439 C-16.702 11.303 -14.117 5.429 -9.125 -0.062 C-5.741 -1.555 -3.498 -0.999 0 0 Z M-6 19 C-6.639 20.031 -7.279 21.062 -7.938 22.125 C-8.297 22.705 -8.657 23.285 -9.027 23.883 C-12.733 31.948 -12.286 44.098 -9.562 52.375 C-8.372 55.751 -8.372 55.751 -7 57 C-4.585 57.417 -4.585 57.417 -2 57 C2.188 53.122 3.074 47.098 3.301 41.625 C3.315 40.083 3.319 38.542 3.312 37 C3.329 36.232 3.345 35.463 3.361 34.672 C3.366 29.371 2.467 25.706 0 21 C-0.66 20.34 -1.32 19.68 -2 19 C-3.32 19 -4.64 19 -6 19 Z " fill="#272E37" transform="translate(360,277)"/>
</svg>
