<?xml version="1.0" encoding="UTF-8"?>
<!-- Generator: visioncortex VTracer 0.6.4 -->
<svg version="1.1" xmlns="http://www.w3.org/2000/svg" width="512" height="512">
<path d="M0 0 C7.26 0 14.52 0 22 0 C22.495 15.345 22.495 15.345 23 31 C23.66 31.33 24.32 31.66 25 32 C21.793 33.604 18.279 33.423 14.75 33.625 C13.998 33.677 13.247 33.728 12.473 33.781 C11.734 33.825 10.995 33.869 10.234 33.914 C9.566 33.955 8.898 33.996 8.21 34.038 C5.452 33.991 2.721 33.453 0 33 C0 22.11 0 11.22 0 0 Z " fill="#F89F06" transform="translate(216,278)"/>
</svg>
