<?xml version="1.0" encoding="UTF-8"?>
<!-- Generator: visioncortex VTracer 0.6.4 -->
<svg version="1.1" xmlns="http://www.w3.org/2000/svg" width="512" height="512">
<path d="M0 0 C28.025 -0.103 56.042 -0.14 84.062 0.438 C85.065 0.457 86.068 0.477 87.101 0.497 C89.975 0.555 92.849 0.618 95.723 0.684 C96.935 0.709 96.935 0.709 98.172 0.734 C106.142 0.933 114.022 1.501 122 2 C122 12.89 122 23.78 122 35 C105.917 35 105.917 35 98.849 34.649 C98.042 34.611 97.235 34.574 96.404 34.535 C93.788 34.413 91.174 34.287 88.559 34.16 C86.701 34.073 84.843 33.985 82.985 33.898 C78.122 33.67 73.259 33.437 68.396 33.204 C63.509 32.97 58.62 32.74 53.732 32.51 C48.199 32.249 42.666 31.987 37.132 31.723 C36.289 31.683 35.445 31.643 34.576 31.601 C32.913 31.522 31.249 31.441 29.586 31.361 C25.102 31.143 20.617 30.94 16.132 30.752 C15.166 30.71 14.2 30.668 13.205 30.625 C11.339 30.544 9.472 30.467 7.606 30.394 C6.77 30.357 5.934 30.32 5.073 30.282 C4.333 30.252 3.594 30.221 2.832 30.19 C1 30 1 30 -1 29 C-1.029 25.667 -1.047 22.333 -1.062 19 C-1.071 18.065 -1.079 17.131 -1.088 16.168 C-1.091 15.246 -1.094 14.325 -1.098 13.375 C-1.103 12.537 -1.108 11.699 -1.114 10.836 C-0.967 7.181 -0.489 3.625 0 0 Z " fill="#FBFCFC" transform="translate(94,276)"/>
<path d="M0 0 C1.65 0 3.3 0 5 0 C5 0.33 5 0.66 5 1 C3.35 1 1.7 1 0 1 C0 0.67 0 0.34 0 0 Z " fill="#CE9644" transform="translate(217,311)"/>
<path d="M0 0 C2 1 2 1 2 1 Z " fill="#CD933C" transform="translate(239,310)"/>
<path d="" fill="#D19B41" transform="translate(0,0)"/>
<path d="" fill="#79A5D4" transform="translate(0,0)"/>
</svg>
