<?xml version="1.0" encoding="UTF-8"?>
<!-- Generator: visioncortex VTracer 0.6.4 -->
<svg version="1.1" xmlns="http://www.w3.org/2000/svg" width="512" height="512">
<path d="M0 0 C1.98 0 3.96 0 6 0 C7.005 3.015 7.103 5.042 7.062 8.188 C7.053 9.089 7.044 9.99 7.035 10.918 C7.024 11.605 7.012 12.292 7 13 C4.69 12.67 2.38 12.34 0 12 C-1.167 8.499 -1.134 5.673 -1 2 C-0.67 1.34 -0.34 0.68 0 0 Z " fill="#3B3B3D" transform="translate(316,160)"/>
<path d="M0 0 C4 1 4 1 4 1 Z " fill="#4D6D8C" transform="translate(212,157)"/>
<path d="M0 0 C2 1 2 1 2 1 Z " fill="#4E6E8D" transform="translate(200,158)"/>
<path d="" fill="#67686B" transform="translate(0,0)"/>
<path d="" fill="#5B5C5E" transform="translate(0,0)"/>
<path d="" fill="#626365" transform="translate(0,0)"/>
<path d="" fill="#5B5C5F" transform="translate(0,0)"/>
</svg>
