<?xml version="1.0" encoding="UTF-8"?>
<!-- Generator: visioncortex VTracer 0.6.4 -->
<svg version="1.1" xmlns="http://www.w3.org/2000/svg" width="512" height="512">
<path d="M0 0 C19.102 1.102 19.102 1.102 24 6 C24.258 8.769 24.398 11.445 24.449 14.219 C24.471 15.032 24.493 15.846 24.515 16.684 C24.559 18.406 24.598 20.127 24.633 21.849 C24.687 24.49 24.757 27.129 24.83 29.77 C24.871 31.44 24.91 33.111 24.949 34.781 C24.97 35.574 24.991 36.367 25.012 37.183 C25.116 42.768 25.116 42.768 24 45 C20.208 44.862 16.417 44.713 12.625 44.562 C11.545 44.523 10.465 44.484 9.352 44.443 C8.32 44.401 7.289 44.36 6.227 44.316 C5.273 44.28 4.32 44.243 3.338 44.205 C1 44 1 44 -1 43 C-2.365 38.959 -2.162 34.804 -2.168 30.586 C-2.171 29.775 -2.175 28.964 -2.178 28.129 C-2.183 26.419 -2.185 24.71 -2.185 23 C-2.187 20.377 -2.206 17.755 -2.225 15.133 C-2.228 13.471 -2.23 11.81 -2.23 10.148 C-2.238 9.362 -2.245 8.576 -2.252 7.765 C-2.229 2.229 -2.229 2.229 0 0 Z " fill="#201F2F" transform="translate(310,190)"/>
<path d="M0 0 C19.102 1.102 19.102 1.102 24 6 C24.125 9.125 24.125 9.125 24 12 C21.02 11.526 18.041 11.046 15.062 10.562 C14.212 10.428 13.362 10.293 12.486 10.154 C11.677 10.022 10.869 9.89 10.035 9.754 C9.286 9.633 8.537 9.513 7.766 9.389 C6 9 6 9 5 8 C2.672 7.632 0.338 7.298 -2 7 C-2.125 4.625 -2.125 4.625 -2 2 C-1.34 1.34 -0.68 0.68 0 0 Z " fill="#04040A" transform="translate(310,190)"/>
<path d="M0 0 C0.66 0.66 1.32 1.32 2 2 C5.606 3.019 9.313 3.591 13 4.25 C14.024 4.449 15.047 4.647 16.102 4.852 C17.079 5.029 18.056 5.207 19.062 5.391 C19.961 5.556 20.859 5.721 21.785 5.892 C22.516 5.927 23.247 5.963 24 6 C24.66 5.34 25.32 4.68 26 4 C26 5.98 26 7.96 26 10 C23.02 9.526 20.041 9.046 17.062 8.562 C16.212 8.428 15.362 8.293 14.486 8.154 C13.677 8.022 12.869 7.89 12.035 7.754 C11.286 7.633 10.537 7.513 9.766 7.389 C8 7 8 7 7 6 C4.672 5.632 2.338 5.298 0 5 C0 3.35 0 1.7 0 0 Z " fill="#0E0F1C" transform="translate(308,192)"/>
</svg>
