<?xml version="1.0" encoding="UTF-8"?>
<!-- Generator: visioncortex VTracer 0.6.4 -->
<svg version="1.1" xmlns="http://www.w3.org/2000/svg" width="512" height="512">
<path d="M0 0 C0.33 0 0.66 0 1 0 C1.061 0.759 1.121 1.519 1.184 2.301 C1.309 3.792 1.309 3.792 1.438 5.312 C1.519 6.299 1.6 7.285 1.684 8.301 C1.918 11.094 1.918 11.094 3 14 C1.559 16.699 1.559 16.699 -0.562 19.688 C-1.244 20.681 -1.926 21.675 -2.629 22.699 C-5 25 -5 25 -7.84 25.582 C-11.848 24.844 -15.09 23.972 -18 21 C-18.984 18.078 -18.981 15.313 -18.938 12.25 C-18.954 11.457 -18.97 10.664 -18.986 9.848 C-19.022 7.899 -19.015 5.949 -19 4 C-18.34 3.67 -17.68 3.34 -17 3 C-15.23 3.812 -15.23 3.812 -13.188 5 C-10.596 6.34 -9.202 6.991 -6.25 7.125 C-3.015 5.507 -1.818 3.051 0 0 Z " fill="#F69F07" transform="translate(239,412)"/>
</svg>
