<?xml version="1.0" encoding="UTF-8"?>
<!-- Generator: visioncortex VTracer 0.6.4 -->
<svg version="1.1" xmlns="http://www.w3.org/2000/svg" width="512" height="512">
<path d="M0 0 C0.66 0 1.32 0 2 0 C2.33 1.65 2.66 3.3 3 5 C3.66 5 4.32 5 5 5 C5 5.66 5 6.32 5 7 C5.734 7.121 6.468 7.241 7.224 7.365 C9.953 7.989 11.956 8.837 14.414 10.152 C15.26 10.6 16.105 11.048 16.977 11.51 C17.851 11.981 18.725 12.452 19.625 12.938 C21.325 13.843 23.026 14.747 24.727 15.652 C25.684 16.164 26.641 16.676 27.628 17.203 C42.174 24.956 56.814 32.517 71.5 40 C109.71 59.47 109.71 59.47 124.002 67.846 C127.927 70.082 131.361 72.02 136 72 C138.121 70.509 138.121 70.509 139.688 68.25 C140.248 67.533 140.809 66.817 141.387 66.078 C141.919 65.392 142.451 64.707 143 64 C143.983 62.983 144.977 61.977 146 61 C146.99 61.66 147.98 62.32 149 63 C150.712 72.008 148.809 78.859 144.02 86.477 C140.781 90.523 138.321 92.74 133.188 93.75 C126.308 93.39 120.343 89.513 114.418 86.301 C111.835 84.911 109.233 83.562 106.625 82.219 C96.355 76.924 86.171 71.487 76.044 65.923 C67.41 61.193 58.707 56.595 50 52 C40.142 46.794 30.291 41.579 20.5 36.25 C19.666 35.798 18.832 35.345 17.973 34.879 C13.793 32.593 9.647 30.25 5.531 27.852 C4.302 27.137 4.302 27.137 3.049 26.409 C0.076 24.365 -0.91 22.405 -2 19 C-2.211 18.37 -2.423 17.739 -2.641 17.09 C-4.033 12.458 -4.193 8.773 -3 4 C-1.562 1.562 -1.562 1.562 0 0 Z " fill="#939596" transform="translate(97,365)"/>
</svg>
