<?xml version="1.0" encoding="UTF-8"?>
<!-- Generator: visioncortex VTracer 0.6.4 -->
<svg version="1.1" xmlns="http://www.w3.org/2000/svg" width="512" height="512">
<path d="M0 0 C3.349 1.275 6.339 2.678 8 6 C8.869 17.083 2.47 23.723 -4 32 C-5.118 33.44 -6.235 34.88 -7.352 36.32 C-9.76 39.424 -12.174 42.524 -14.59 45.621 C-17.408 49.236 -20.209 52.863 -23 56.5 C-31.272 67.27 -39.573 78.019 -48.09 88.598 C-50.798 92.003 -53.44 95.458 -56.086 98.912 C-59.575 103.463 -63.118 107.971 -66.672 112.472 C-70.983 117.948 -75.209 123.49 -79.409 129.052 C-89.982 142.975 -89.982 142.975 -97 146 C-102.914 146.657 -107.722 145.809 -113 143 C-116.102 140.299 -116.726 137.187 -117.039 133.121 C-116.872 124.057 -110.06 117.992 -104.418 111.62 C-102.345 109.252 -100.359 106.817 -98.375 104.375 C-97.648 103.483 -96.921 102.591 -96.172 101.672 C-95.455 100.79 -94.738 99.908 -94 99 C-88.74 92.529 -83.418 86.119 -78.016 79.766 C-75.29 76.551 -72.618 73.304 -70 70 C-66.471 65.547 -62.817 61.211 -59.135 56.885 C-56.237 53.475 -53.383 50.036 -50.562 46.562 C-46.605 41.699 -42.535 36.941 -38.442 32.192 C-35.411 28.667 -32.43 25.11 -29.5 21.5 C-25.923 17.104 -22.295 12.756 -18.625 8.438 C-18.113 7.829 -17.6 7.221 -17.072 6.594 C-11.697 0.298 -8.083 -1.027 0 0 Z " fill="#717374" transform="translate(332,165)"/>
</svg>
