<?xml version="1.0" encoding="UTF-8"?>
<!-- Generator: visioncortex VTracer 0.6.4 -->
<svg version="1.1" xmlns="http://www.w3.org/2000/svg" width="512" height="512">
<path d="M0 0 C1.999 6.142 0.441 13.137 -2.402 18.785 C-3.836 20.997 -5.205 23.069 -7 25 C-7.66 25 -8.32 25 -9 25 C-8.468 14.847 -6.124 8.11 0 0 Z " fill="#DC9B17" transform="translate(383,201)"/>
<path d="M0 0 C1.165 3.496 0.807 5.334 0.188 8.938 C-0.07 10.498 -0.07 10.498 -0.332 12.09 C-0.932 14.703 -1.678 16.686 -3 19 C-3.66 19 -4.32 19 -5 19 C-4.225 4.225 -4.225 4.225 0 0 Z " fill="#CFDBE4" transform="translate(379,207)"/>
</svg>
