<?xml version="1.0" encoding="UTF-8"?>
<!-- Generator: visioncortex VTracer 0.6.4 -->
<svg version="1.1" xmlns="http://www.w3.org/2000/svg" width="512" height="512">
<path d="M0 0 C6.812 0.448 12.21 3.144 18.312 6.062 C19.999 6.855 19.999 6.855 21.72 7.663 C24.825 9.123 27.927 10.591 31.026 12.063 C36.527 14.674 42.035 17.267 47.542 19.862 C49.692 20.877 51.839 21.895 53.987 22.914 C61.23 26.343 68.499 29.688 75.848 32.887 C77.275 33.512 78.701 34.138 80.128 34.764 C82.803 35.937 85.487 37.085 88.178 38.22 C100.006 43.393 100.006 43.393 103.148 47.704 C105.226 53.303 104.339 59.521 103.938 65.375 C103.868 66.78 103.801 68.185 103.736 69.59 C103.221 79.779 103.221 79.779 102 81 C96.256 80.625 92.198 79.459 87.027 76.789 C86.073 76.304 86.073 76.304 85.1 75.808 C83.744 75.117 82.39 74.42 81.039 73.717 C78.173 72.228 75.293 70.764 72.414 69.299 C70.965 68.562 69.517 67.823 68.07 67.082 C62.303 64.137 56.483 61.321 50.625 58.562 C41.447 54.204 32.306 49.77 23.196 45.269 C21.663 44.513 20.127 43.761 18.59 43.012 C16.428 41.958 14.272 40.891 12.117 39.82 C11.472 39.509 10.828 39.198 10.163 38.878 C6.043 36.808 3.024 34.479 0 31 C-1.744 25.413 -1.147 19.065 -1.125 13.25 C-1.129 12.197 -1.133 11.144 -1.137 10.059 C-1.135 9.054 -1.134 8.05 -1.133 7.016 C-1.132 6.101 -1.131 5.186 -1.129 4.243 C-1 2 -1 2 0 0 Z " fill="#22222F" transform="translate(113,295)"/>
<path d="M0 0 C1.32 0 2.64 0 4 0 C3.518 0.795 3.518 0.795 3.026 1.606 C1.741 4.605 1.678 7.038 1.586 10.297 C1.547 11.502 1.509 12.707 1.469 13.949 C1.438 15.203 1.407 16.458 1.375 17.75 C1.336 19.02 1.298 20.289 1.258 21.598 C1.164 24.732 1.078 27.866 1 31 C-1.017 27.648 -1.246 25.094 -1.23 21.211 C-1.229 20.105 -1.227 18.999 -1.225 17.859 C-1.212 16.71 -1.2 15.56 -1.188 14.375 C-1.187 13.217 -1.186 12.06 -1.186 10.867 C-1.14 2.281 -1.14 2.281 0 0 Z " fill="#0E142B" transform="translate(113,295)"/>
</svg>
