<?xml version="1.0" encoding="UTF-8"?>
<!-- Generator: visioncortex VTracer 0.6.4 -->
<svg version="1.1" xmlns="http://www.w3.org/2000/svg" width="512" height="512">
<path d="M0 0 C2 -0.043 4 -0.041 6 0 C7 1 7 1 7.133 4.055 C7.13 5.315 7.128 6.576 7.125 7.875 C7.128 9.131 7.13 10.386 7.133 11.68 C7 15 7 15 6 18 C4.125 18.812 4.125 18.812 2 19 C1.01 18.34 0.02 17.68 -1 17 C-1.056 14.035 -0.957 11.311 -0.688 8.375 C-0.626 7.573 -0.565 6.771 -0.502 5.945 C-0.349 3.962 -0.176 1.981 0 0 Z " fill="#212A33" transform="translate(268,137)"/>
</svg>
