<?xml version="1.0" encoding="UTF-8"?>
<!-- Generator: visioncortex VTracer 0.6.4 -->
<svg version="1.1" xmlns="http://www.w3.org/2000/svg" width="512" height="512">
<path d="M0 0 C0.99 0 1.98 0 3 0 C4.03 11.422 0.263 20.89 -5.691 30.512 C-7.262 32.298 -8.831 33.069 -11 34 C-12 33 -12 33 -12.312 30.25 C-12.125 20.107 -7.209 7.209 0 0 Z " fill="#7C8187" transform="translate(356,257)"/>
<path d="M0 0 C0.99 0 1.98 0 3 0 C3 0.66 3 1.32 3 2 C1.469 3.289 1.469 3.289 -0.5 4.625 C-1.15 5.071 -1.799 5.517 -2.469 5.977 C-2.974 6.314 -3.479 6.652 -4 7 C-2.926 4.085 -2.222 2.222 0 0 Z " fill="#696E76" transform="translate(356,257)"/>
</svg>
