<?xml version="1.0" encoding="UTF-8"?>
<!-- Generator: visioncortex VTracer 0.6.4 -->
<svg version="1.1" xmlns="http://www.w3.org/2000/svg" width="512" height="512">
<path d="M0 0 C1.875 1.188 1.875 1.188 2.875 3.188 C3.009 6.861 3.042 9.686 1.875 13.188 C1.215 13.188 0.555 13.188 -0.125 13.188 C-0.785 11.868 -1.445 10.548 -2.125 9.188 C-5.375 9.466 -6.985 10.077 -9.562 12.125 C-12.4 15.516 -14.533 19.037 -16.695 22.883 C-18.003 24.991 -19.295 26.531 -21.125 28.188 C-20.513 23.615 -18.662 19.887 -16.5 15.875 C-16.145 15.213 -15.789 14.551 -15.423 13.869 C-6.41 -2.451 -6.41 -2.451 0 0 Z " fill="#010407" transform="translate(367.125,230.8125)"/>
</svg>
