<?xml version="1.0" encoding="UTF-8"?>
<!-- Generator: visioncortex VTracer 0.6.4 -->
<svg version="1.1" xmlns="http://www.w3.org/2000/svg" width="512" height="512">
<path d="M0 0 C4.074 0.21 7.084 1.035 10.917 2.403 C11.917 2.754 11.917 2.754 12.937 3.112 C14.377 3.618 15.816 4.129 17.252 4.644 C21.131 6.034 25.022 7.389 28.913 8.747 C29.722 9.031 30.531 9.314 31.365 9.606 C41.287 13.067 51.294 16.265 61.306 19.454 C84.526 26.849 84.526 26.849 86.877 29.2 C86.786 32.067 86.64 34.903 86.44 37.763 C86.388 38.569 86.336 39.375 86.282 40.206 C86.152 42.204 86.015 44.202 85.877 46.2 C88.187 46.2 90.497 46.2 92.877 46.2 C93.537 41.91 94.197 37.62 94.877 33.2 C99.877 32.2 99.877 32.2 101.897 33.028 C104.825 35.35 106.63 36.984 107.393 40.735 C107.442 43.617 107.237 46.341 106.877 49.2 C106.803 49.979 106.728 50.757 106.651 51.56 C105.929 56.294 104.263 59.266 101.377 63.075 C97.454 68.387 96.531 72.715 95.877 79.2 C95.696 80.767 95.512 82.333 95.327 83.899 C94.811 88.33 94.336 92.763 93.877 97.2 C92.392 97.695 92.392 97.695 90.877 98.2 C90.768 97.562 90.658 96.924 90.545 96.267 C90.308 95.027 90.308 95.027 90.065 93.763 C89.914 92.939 89.763 92.115 89.608 91.267 C89.367 90.585 89.126 89.903 88.877 89.2 C85.918 87.828 85.918 87.828 83.393 89.388 C70.731 98.51 64.849 119.679 59.94 133.7 C59.374 135.31 59.374 135.31 58.796 136.952 C57.08 142.006 55.689 146.859 54.874 152.138 C54.124 156.65 52.971 159.22 49.877 162.7 C44.238 169.408 39.448 176.648 34.627 183.95 C33.851 185.123 33.075 186.295 32.299 187.468 C31.549 188.602 30.799 189.737 30.049 190.872 C29.337 191.949 28.625 193.026 27.891 194.136 C26.605 196.093 25.329 198.057 24.067 200.03 C23.535 200.855 23.003 201.679 22.456 202.528 C21.773 203.602 21.773 203.602 21.078 204.697 C20.484 205.441 20.484 205.441 19.877 206.2 C19.217 206.2 18.557 206.2 17.877 206.2 C17.547 206.86 17.217 207.52 16.877 208.2 C16.547 205.23 16.217 202.26 15.877 199.2 C12.813 197.808 12.813 197.808 9.69 199.575 C-3.753 207.906 -10.441 224.27 -16.298 238.281 C-17.548 241.191 -18.936 244.034 -20.31 246.888 C-24.874 256.754 -27.442 267.075 -29.816 277.641 C-31.027 283.009 -31.027 283.009 -32.123 285.2 C-33.773 284.54 -35.423 283.88 -37.123 283.2 C-35.919 280.707 -34.668 278.519 -33.123 276.2 C-32.98 273.598 -32.935 271.109 -32.998 268.513 C-33.007 267.811 -33.016 267.109 -33.025 266.386 C-33.048 264.657 -33.084 262.929 -33.123 261.2 C-37.155 264.915 -39.545 269.11 -42.244 273.837 C-44.123 276.2 -44.123 276.2 -46.471 276.957 C-49.489 277.234 -50.754 276.813 -53.428 275.453 C-54.247 275.045 -55.066 274.636 -55.91 274.216 C-56.787 273.761 -57.664 273.306 -58.568 272.837 C-59.492 272.371 -60.417 271.905 -61.369 271.425 C-64.336 269.925 -67.291 268.407 -70.248 266.888 C-72.183 265.907 -74.119 264.927 -76.056 263.948 C-91.736 256.005 -107.283 247.809 -122.782 239.521 C-132.447 234.361 -142.319 229.583 -152.141 224.73 C-155.314 223.162 -158.485 221.589 -161.656 220.016 C-163.284 219.209 -164.914 218.405 -166.545 217.602 C-168.937 216.424 -171.325 215.239 -173.712 214.052 C-174.445 213.693 -175.177 213.335 -175.931 212.966 C-181.009 210.428 -181.009 210.428 -182.123 208.2 C-182.334 206.452 -182.492 204.698 -182.623 202.942 C-182.705 201.854 -182.787 200.766 -182.871 199.645 C-182.996 197.878 -182.996 197.878 -183.123 196.075 C-183.209 194.86 -183.296 193.644 -183.386 192.392 C-184.198 180.668 -184.819 168.949 -185.123 157.2 C-185.151 156.102 -185.18 155.005 -185.209 153.874 C-185.286 150.503 -185.334 147.134 -185.373 143.763 C-185.394 142.738 -185.415 141.714 -185.438 140.659 C-185.474 132.56 -184.304 125.252 -179.123 118.763 C-178.628 118.125 -178.133 117.487 -177.623 116.829 C-176.123 115.2 -176.123 115.2 -173.123 113.2 C-171.488 113.967 -169.854 114.736 -168.224 115.513 C-164.187 116.833 -160.178 116.242 -156.123 115.2 C-153.494 113.313 -152.417 111.737 -150.877 108.928 C-148.774 105.658 -146.234 103.032 -143.49 100.308 C-142.927 99.742 -142.364 99.175 -141.784 98.592 C-139.932 96.731 -138.072 94.878 -136.212 93.024 C-134.921 91.731 -133.63 90.438 -132.339 89.145 C-129.638 86.441 -126.933 83.741 -124.226 81.043 C-120.75 77.578 -117.283 74.104 -113.818 70.628 C-111.156 67.959 -108.49 65.295 -105.822 62.632 C-104.541 61.352 -103.262 60.071 -101.984 58.789 C-100.203 57.003 -98.415 55.223 -96.626 53.445 C-96.096 52.911 -95.565 52.376 -95.019 51.825 C-91.351 48.2 -91.351 48.2 -89.123 48.2 C-88.896 47.643 -88.669 47.086 -88.435 46.513 C-87.126 44.207 -85.63 42.657 -83.748 40.817 C-81.76 38.84 -79.838 36.807 -77.908 34.774 C-76.334 33.145 -74.76 31.516 -73.185 29.888 C-72.399 29.052 -71.614 28.216 -70.804 27.354 C-70.034 26.565 -69.264 25.775 -68.47 24.962 C-67.779 24.24 -67.089 23.517 -66.377 22.773 C-63.478 20.75 -61.585 21.067 -58.123 21.2 C-57.463 20.54 -56.803 19.88 -56.123 19.2 C-56.184 18.272 -56.246 17.344 -56.31 16.388 C-56.123 13.2 -56.123 13.2 -53.935 10.263 C-51.123 8.2 -51.123 8.2 -48.742 8.465 C-46.234 9.169 -43.832 9.969 -41.4 10.899 C-40.532 11.221 -39.664 11.543 -38.769 11.874 C-36.956 12.553 -35.146 13.24 -33.339 13.937 C-32.472 14.254 -31.606 14.572 -30.712 14.899 C-29.535 15.345 -29.535 15.345 -28.333 15.801 C-25.521 16.309 -24.473 15.764 -22.123 14.2 C-21.318 13.355 -20.514 12.509 -19.685 11.638 C-17.005 9.088 -15.732 8.51 -12.123 8.2 C-11.793 9.19 -11.463 10.18 -11.123 11.2 C-9.143 11.53 -7.163 11.86 -5.123 12.2 C-5.062 11.418 -5.001 10.635 -4.939 9.829 C-4.855 8.817 -4.771 7.805 -4.685 6.763 C-4.563 5.249 -4.563 5.249 -4.439 3.704 C-3.973 0.014 -3.814 0.245 0 0 Z M29.397 36.075 C26.642 39.524 23.763 42.861 20.877 46.2 C17.322 50.324 13.809 54.472 10.377 58.7 C6.945 62.928 3.432 67.075 -0.123 71.2 C-5.222 77.121 -10.202 83.129 -15.123 89.2 C-19.92 95.104 -24.757 100.968 -29.685 106.763 C-33.479 111.226 -37.189 115.741 -40.822 120.337 C-42.698 122.672 -44.598 124.982 -46.517 127.282 C-47.13 128.019 -47.743 128.756 -48.375 129.516 C-49.588 130.971 -50.804 132.424 -52.024 133.873 C-60.802 143.85 -60.802 143.85 -64.123 156.2 C-63.477 160.432 -62.827 162.514 -59.748 165.513 C-54.673 167.875 -49.634 168.475 -44.123 169.2 C-43.067 169.423 -42.011 169.646 -40.923 169.876 C-37.934 170.539 -37.934 170.539 -35.31 168.2 C-32.861 165.358 -32.861 165.358 -32.732 161.833 C-32.036 157.686 -30.951 156.177 -28.185 153.075 C-24.816 149.171 -21.56 145.241 -18.435 141.138 C-17.597 140.041 -16.758 138.945 -15.919 137.849 C-15.475 137.268 -15.031 136.688 -14.574 136.09 C-11.793 132.469 -8.989 128.866 -6.185 125.263 C-5.585 124.491 -4.984 123.72 -4.366 122.925 C-0.361 117.782 3.66 112.653 7.691 107.531 C16.282 96.609 24.798 85.63 33.252 74.603 C35.238 72.021 37.242 69.454 39.252 66.892 C44.83 59.776 50.386 52.649 55.69 45.325 C56.104 44.761 56.519 44.196 56.946 43.615 C60.618 38.474 61.442 34.524 60.877 28.2 C58.157 24.605 54.992 22.569 50.545 21.794 C39.713 21.385 35.724 28.142 29.397 36.075 Z M58.877 77.2 C59.877 79.2 59.877 79.2 59.877 79.2 Z M57.877 79.2 C52.386 85.356 47.595 92.203 42.69 98.825 C42.096 99.624 41.502 100.423 40.89 101.246 C31.086 114.562 28.333 124.426 28.877 141.2 C29.537 141.2 30.197 141.2 30.877 141.2 C32.195 139.771 32.195 139.771 33.495 137.86 C34.273 136.772 34.273 136.772 35.068 135.662 C35.902 134.474 35.902 134.474 36.752 133.263 C37.325 132.457 37.897 131.652 38.486 130.823 C39.685 129.134 40.881 127.443 42.074 125.75 C43.815 123.289 45.572 120.841 47.334 118.396 C48.412 116.893 49.488 115.391 50.565 113.888 C51.069 113.19 51.574 112.492 52.094 111.773 C59.267 101.682 59.118 91.283 58.877 79.2 C58.547 79.2 58.217 79.2 57.877 79.2 Z M41.877 133.2 C40.311 135.064 38.867 136.921 37.44 138.888 C36.266 140.471 36.266 140.471 35.069 142.087 C30.905 147.808 30.905 147.808 29.19 154.513 C29.087 155.73 28.984 156.946 28.877 158.2 C29.867 158.2 30.857 158.2 31.877 158.2 C33.302 156.743 33.302 156.743 34.542 154.771 C35.024 154.058 35.506 153.345 36.002 152.61 C36.497 151.856 36.992 151.102 37.502 150.325 C38.005 149.579 38.508 148.832 39.026 148.063 C42.662 142.638 44.002 139.929 43.877 133.2 C43.217 133.2 42.557 133.2 41.877 133.2 Z M12.877 139.2 C12.013 140.286 11.194 141.407 10.393 142.54 C9.877 143.265 9.36 143.989 8.828 144.736 C8.267 145.528 7.706 146.321 7.127 147.138 C2.615 153.459 -1.989 159.687 -6.748 165.825 C-11.065 171.425 -15.267 177.087 -19.31 182.888 C-19.768 183.535 -20.226 184.182 -20.697 184.849 C-21.331 185.771 -21.331 185.771 -21.978 186.712 C-22.346 187.243 -22.713 187.773 -23.092 188.32 C-25.536 192.779 -26.393 197.232 -26.755 202.255 C-26.881 203.918 -26.881 203.918 -27.009 205.614 C-27.088 206.756 -27.167 207.898 -27.248 209.075 C-27.334 210.241 -27.42 211.406 -27.509 212.606 C-27.721 215.471 -27.925 218.335 -28.123 221.2 C-24.86 220.113 -24.501 219.712 -22.662 217.017 C-22.197 216.346 -21.732 215.675 -21.253 214.983 C-20.756 214.25 -20.259 213.518 -19.748 212.763 C-18.669 211.202 -17.59 209.642 -16.509 208.083 C-15.673 206.871 -15.673 206.871 -14.819 205.635 C-12.121 201.763 -9.338 197.953 -6.56 194.138 C-2.3 188.257 1.921 182.351 6.065 176.388 C6.523 175.736 6.98 175.084 7.452 174.413 C13.487 165.664 14.056 157.52 13.94 147.2 C13.935 146.425 13.931 145.651 13.926 144.853 C13.915 142.968 13.897 141.084 13.877 139.2 C13.547 139.2 13.217 139.2 12.877 139.2 Z M-166.123 152.2 C-168.211 156.377 -167.307 161.861 -167.31 166.45 C-167.322 167.583 -167.335 168.716 -167.347 169.884 C-167.349 170.983 -167.351 172.083 -167.353 173.216 C-167.357 174.219 -167.361 175.222 -167.365 176.256 C-167.02 180.448 -166.532 183.959 -163.274 186.828 C-162.506 187.246 -161.738 187.664 -160.947 188.095 C-159.598 188.838 -159.598 188.838 -158.222 189.597 C-157.199 190.126 -156.176 190.655 -155.123 191.2 C-153.985 191.792 -152.848 192.385 -151.676 192.995 C-147.782 194.998 -143.86 196.945 -139.935 198.888 C-138.502 199.601 -137.068 200.314 -135.635 201.028 C-126.692 205.472 -117.713 209.837 -108.678 214.095 C-103.328 216.627 -98.033 219.249 -92.767 221.95 C-91.495 222.599 -90.224 223.248 -88.952 223.897 C-86.497 225.15 -84.052 226.418 -81.61 227.695 C-75.71 230.709 -70.812 233.12 -64.123 233.2 C-61.462 230.539 -62.464 223.482 -62.29 219.692 C-62.221 218.291 -62.138 216.89 -62.042 215.491 C-61.132 206.29 -61.132 206.29 -64.478 198.048 C-68.512 194.384 -73.399 192.35 -78.373 190.263 C-80.539 189.312 -82.704 188.359 -84.869 187.403 C-86.036 186.892 -87.204 186.381 -88.407 185.854 C-94.427 183.195 -100.358 180.346 -106.303 177.524 C-112.9 174.396 -119.512 171.3 -126.123 168.2 C-126.917 167.827 -127.712 167.454 -128.531 167.07 C-133.383 164.794 -138.24 162.531 -143.104 160.281 C-144.648 159.565 -146.19 158.846 -147.731 158.123 C-149.874 157.119 -152.023 156.127 -154.173 155.138 C-154.805 154.839 -155.437 154.539 -156.088 154.231 C-159.576 152.644 -162.285 151.859 -166.123 152.2 Z M-18.123 218.2 C-19.95 220.415 -21.574 222.586 -23.185 224.95 C-23.632 225.584 -24.078 226.219 -24.539 226.872 C-29.032 233.081 -29.032 233.081 -30.248 240.45 C-30.206 241.688 -30.165 242.925 -30.123 244.2 C-29.133 244.2 -28.143 244.2 -27.123 244.2 C-25.291 242.006 -23.671 239.86 -22.06 237.513 C-21.613 236.887 -21.167 236.261 -20.707 235.616 C-16.593 229.745 -14.835 225.531 -15.123 218.2 C-16.113 218.2 -17.103 218.2 -18.123 218.2 Z " fill="#005CBC" transform="translate(279.12255859375,142.7998046875)"/>
<path d="M0 0 C0.66 0 1.32 0 2 0 C2.209 5.862 1.842 11.555 1.188 17.375 C1.117 18.077 1.047 18.779 0.975 19.502 C0.499 23.439 -0.042 25.391 -3 28 C-2.693 24.083 -2.378 20.166 -2.062 16.25 C-1.975 15.139 -1.888 14.028 -1.799 12.883 C-1.712 11.813 -1.625 10.743 -1.535 9.641 C-1.457 8.656 -1.378 7.672 -1.297 6.657 C-1.039 4.347 -0.632 2.233 0 0 Z " fill="#00459C" transform="translate(339,218)"/>
<path d="M0 0 C0.66 0 1.32 0 2 0 C1.443 3.231 0.708 5.066 -2 7 C-4.688 7.188 -4.688 7.188 -7 7 C-7.33 6.34 -7.66 5.68 -8 5 C-7.237 4.732 -6.474 4.464 -5.688 4.188 C-3.095 3.042 -1.912 2.003 0 0 Z " fill="#4A5564" transform="translate(127,254)"/>
<path d="M0 0 C-0.33 2.31 -0.66 4.62 -1 7 C-3.475 6.01 -3.475 6.01 -6 5 C-4.873 1.619 -3.788 0 0 0 Z " fill="#1361AA" transform="translate(248,421)"/>
<path d="M0 0 C3 1 3 1 3 1 Z " fill="#C49E5B" transform="translate(230,437)"/>
<path d="" fill="#AA9F87" transform="translate(0,0)"/>
<path d="" fill="#B99C6B" transform="translate(0,0)"/>
<path d="" fill="#BD9B62" transform="translate(0,0)"/>
<path d="" fill="#BB9A64" transform="translate(0,0)"/>
<path d="" fill="#A89981" transform="translate(0,0)"/>
<path d="" fill="#BDBEBF" transform="translate(0,0)"/>
<path d="" fill="#B49A71" transform="translate(0,0)"/>
<path d="" fill="#A69A8A" transform="translate(0,0)"/>
<path d="" fill="#A19B95" transform="translate(0,0)"/>
<path d="" fill="#ADAFB0" transform="translate(0,0)"/>
<path d="" fill="#989389" transform="translate(0,0)"/>
<path d="" fill="#A4A6A8" transform="translate(0,0)"/>
<path d="" fill="#A2A5A7" transform="translate(0,0)"/>
<path d="" fill="#9D9FA2" transform="translate(0,0)"/>
<path d="" fill="#A8AAAC" transform="translate(0,0)"/>
<path d="" fill="#C3C4C5" transform="translate(0,0)"/>
<path d="" fill="#B3A48A" transform="translate(0,0)"/>
<path d="" fill="#A59F92" transform="translate(0,0)"/>
<path d="" fill="#B6A076" transform="translate(0,0)"/>
<path d="" fill="#999A9C" transform="translate(0,0)"/>
<path d="" fill="#012554" transform="translate(0,0)"/>
<path d="" fill="#0C407F" transform="translate(0,0)"/>
<path d="" fill="#15181B" transform="translate(0,0)"/>
</svg>
