<?xml version="1.0" encoding="UTF-8"?>
<!-- Generator: visioncortex VTracer 0.6.4 -->
<svg version="1.1" xmlns="http://www.w3.org/2000/svg" width="512" height="512">
<path d="M0 0 C3.653 2.348 3.653 2.348 5 5 C4.979 13.248 2.982 20.559 -2.438 26.812 C-4.786 28.818 -5.959 29.783 -9 30 C-9.33 29.67 -9.66 29.34 -10 29 C-9.91 26.643 -9.753 24.288 -9.562 21.938 C-9.461 20.647 -9.359 19.357 -9.254 18.027 C-9.17 17.028 -9.086 16.029 -9 15 C-8.34 15 -7.68 15 -7 15 C-6.732 14.257 -6.464 13.515 -6.188 12.75 C-5 10 -5 10 -3.5 8.062 C-1.653 5.523 -0.885 2.995 0 0 Z " fill="#8B8E93" transform="translate(383,211)"/>
</svg>
