<?xml version="1.0" encoding="UTF-8"?>
<!-- Generator: visioncortex VTracer 0.6.4 -->
<svg version="1.1" xmlns="http://www.w3.org/2000/svg" width="512" height="512">
<path d="M0 0 C2.339 0.287 4.674 0.619 7 1 C8.447 4.872 7.544 7.823 6.562 11.75 C6.275 12.92 5.988 14.091 5.691 15.297 C5.463 16.189 5.235 17.081 5 18 C0.25 19.125 0.25 19.125 -2 18 C-2.12 12.229 -1.917 6.706 -1 1 C-0.67 0.67 -0.34 0.34 0 0 Z " fill="#24303B" transform="translate(367,171)"/>
<path d="M0 0 C2.31 0.33 4.62 0.66 7 1 C7.33 1.99 7.66 2.98 8 4 C5.36 4 2.72 4 0 4 C0 2.68 0 1.36 0 0 Z " fill="#15181B" transform="translate(367,171)"/>
</svg>
