<?xml version="1.0" encoding="UTF-8"?>
<!-- Generator: visioncortex VTracer 0.6.4 -->
<svg version="1.1" xmlns="http://www.w3.org/2000/svg" width="512" height="512">
<path d="M0 0 C2.199 4.398 0.83 10.309 0 15 C-1.374 17.98 -2.699 19.587 -5 22 C-5.66 22 -6.32 22 -7 22 C-7.33 19.69 -7.66 17.38 -8 15 C-9.98 15 -11.96 15 -14 15 C-14.66 20.61 -15.32 26.22 -16 32 C-22.93 32 -29.86 32 -37 32 C-36.211 27.264 -35.442 24.265 -33.566 20.016 C-33.082 18.916 -32.598 17.816 -32.1 16.684 C-31.339 14.984 -31.339 14.984 -30.562 13.25 C-30.059 12.101 -29.556 10.953 -29.037 9.77 C-25.266 1.266 -25.266 1.266 -23 -1 C-15.516 -3.005 -7.216 -2.824 0 0 Z " fill="#737475" transform="translate(336,126)"/>
</svg>
