<?xml version="1.0" encoding="UTF-8"?>
<!-- Generator: visioncortex VTracer 0.6.4 -->
<svg version="1.1" xmlns="http://www.w3.org/2000/svg" width="512" height="512">
<path d="M0 0 C1.183 -0.01 2.365 -0.021 3.584 -0.031 C6.82 -0.054 10.054 -0.054 13.29 -0.042 C15.994 -0.035 18.698 -0.043 21.402 -0.052 C27.781 -0.072 34.16 -0.066 40.539 -0.044 C47.116 -0.022 53.691 -0.039 60.268 -0.077 C65.92 -0.108 71.571 -0.116 77.223 -0.105 C80.597 -0.099 83.97 -0.101 87.343 -0.124 C91.104 -0.144 94.864 -0.126 98.625 -0.098 C99.74 -0.111 100.855 -0.125 102.004 -0.139 C109.341 -0.029 109.341 -0.029 112.116 1.946 C115.048 5.304 115.989 8.284 116.238 12.663 C116.313 13.791 116.387 14.92 116.464 16.083 C116.544 17.855 116.544 17.855 116.625 19.663 C116.729 21.474 116.729 21.474 116.835 23.321 C117.022 26.768 117.174 30.214 117.312 33.663 C117.352 34.514 117.392 35.364 117.434 36.241 C117.904 46.858 117.904 46.858 116.117 49.289 C113.68 51.144 112.129 51.043 109.081 51.051 C107.998 51.06 106.914 51.07 105.797 51.081 C104.608 51.076 103.419 51.072 102.194 51.067 C100.941 51.074 99.689 51.081 98.399 51.088 C94.963 51.103 91.527 51.104 88.091 51.099 C85.223 51.096 82.356 51.102 79.488 51.108 C72.722 51.122 65.957 51.12 59.191 51.109 C52.21 51.097 45.23 51.111 38.249 51.138 C32.257 51.16 26.265 51.167 20.272 51.161 C16.693 51.158 13.113 51.16 9.534 51.177 C5.543 51.196 1.552 51.182 -2.439 51.165 C-4.22 51.179 -4.22 51.179 -6.037 51.194 C-7.123 51.184 -8.21 51.174 -9.329 51.164 C-10.273 51.164 -11.217 51.164 -12.189 51.163 C-15.45 50.51 -16.649 49.239 -18.688 46.663 C-19.513 41.721 -18.949 36.654 -18.688 31.663 C-18.644 30.619 -18.6 29.575 -18.554 28.499 C-18.4 25.01 -18.205 21.524 -18 18.038 C-17.947 16.899 -17.894 15.761 -17.839 14.588 C-17.765 13.507 -17.69 12.425 -17.613 11.311 C-17.556 10.344 -17.498 9.376 -17.439 8.379 C-14.958 -0.591 -7.795 -0.06 0 0 Z " fill="#22222E" transform="translate(206.6875,177.337158203125)"/>
<path d="M0 0 C1.535 -0.017 1.535 -0.017 3.101 -0.035 C4.223 -0.037 5.346 -0.039 6.502 -0.041 C7.684 -0.051 8.866 -0.061 10.085 -0.071 C13.328 -0.096 16.572 -0.111 19.816 -0.119 C21.843 -0.125 23.87 -0.134 25.897 -0.143 C32.241 -0.17 38.585 -0.189 44.929 -0.197 C52.249 -0.206 59.569 -0.241 66.89 -0.299 C72.55 -0.342 78.21 -0.362 83.871 -0.365 C87.251 -0.367 90.63 -0.379 94.01 -0.415 C97.782 -0.449 101.551 -0.445 105.322 -0.432 C106.44 -0.45 107.558 -0.469 108.71 -0.488 C116.075 -0.408 116.075 -0.408 118.856 1.575 C120.85 3.862 121.959 5.853 122.53 8.836 C122.472 9.601 122.414 10.367 122.354 11.156 C122.309 11.937 122.264 12.718 122.217 13.523 C122.159 14.103 122.101 14.683 122.041 15.281 C121.711 15.281 121.381 15.281 121.041 15.281 C121.009 13.328 120.976 11.375 120.944 9.422 C119.746 6.581 117.918 5.571 115.267 4.13 C110.869 2.453 106.311 2.736 101.662 2.779 C100.536 2.774 99.41 2.768 98.249 2.763 C94.541 2.75 90.832 2.767 87.123 2.785 C84.542 2.785 81.961 2.783 79.38 2.78 C73.977 2.779 68.575 2.791 63.172 2.814 C56.93 2.841 50.688 2.843 44.446 2.831 C38.431 2.82 32.416 2.826 26.401 2.84 C23.845 2.845 21.289 2.845 18.733 2.841 C15.166 2.839 11.6 2.855 8.033 2.877 C6.444 2.87 6.444 2.87 4.823 2.863 C3.366 2.878 3.366 2.878 1.879 2.893 C1.036 2.896 0.194 2.898 -0.674 2.901 C-3.455 3.364 -4.795 4.529 -6.959 6.281 C-7.619 6.281 -8.279 6.281 -8.959 6.281 C-8.646 4.406 -8.646 4.406 -7.959 2.281 C-4.702 0.109 -3.77 0.025 0 0 Z " fill="#09050F" transform="translate(199.95870971679688,177.7191162109375)"/>
<path d="M0 0 C1.47 -0.004 1.47 -0.004 2.97 -0.008 C4.044 -0.001 5.118 0.006 6.224 0.013 C7.356 0.013 8.488 0.013 9.654 0.013 C13.404 0.014 17.154 0.03 20.903 0.045 C23.5 0.049 26.096 0.052 28.693 0.054 C34.834 0.061 40.975 0.076 47.116 0.096 C54.107 0.119 61.099 0.13 68.09 0.14 C82.472 0.161 96.854 0.196 111.235 0.241 C111.235 0.571 111.235 0.901 111.235 1.241 C104.257 1.421 97.277 1.583 90.298 1.741 C89.217 1.766 88.136 1.791 87.022 1.817 C73.308 2.131 59.61 2.275 45.894 2.151 C43.662 2.131 41.431 2.115 39.199 2.099 C37.721 2.088 36.243 2.077 34.764 2.067 C33.672 2.059 33.672 2.059 32.558 2.051 C28.194 2.016 23.831 1.958 19.468 1.884 C17.386 1.852 15.305 1.832 13.223 1.817 C10.665 1.798 8.106 1.76 5.548 1.7 C-1.422 1.552 -1.422 1.552 -7.516 4.492 C-9.698 7.159 -10.546 8.305 -10.788 11.666 C-10.859 12.462 -10.93 13.258 -11.003 14.078 C-11.048 14.895 -11.093 15.712 -11.14 16.553 C-11.208 17.389 -11.276 18.225 -11.347 19.086 C-11.511 21.136 -11.641 23.188 -11.765 25.241 C-12.095 25.241 -12.425 25.241 -12.765 25.241 C-12.868 17.814 -12.763 10.605 -11.765 3.241 C-11.166 3.117 -10.568 2.993 -9.952 2.866 C-6.043 1.749 -4.247 -0.009 0 0 Z " fill="#151423" transform="translate(201.7645721435547,179.75949096679688)"/>
<path d="M0 0 C2.891 0.31 4.047 1.042 6.25 3 C8.624 7.069 8.361 10.401 8 15 C7.67 15 7.34 15 7 15 C6.938 13.113 6.938 13.113 6.875 11.188 C6.692 8.99 6.692 8.99 6 7 C3.082 4.914 3.082 4.914 0 4 C0 2.667 0 1.333 0 0 Z " fill="#0B0A19" transform="translate(314,178)"/>
</svg>
