<?xml version="1.0" encoding="UTF-8"?>
<!-- Generator: visioncortex VTracer 0.6.4 -->
<svg version="1.1" xmlns="http://www.w3.org/2000/svg" width="512" height="512">
<path d="M0 0 C15.84 0.495 15.84 0.495 32 1 C32.875 9.75 32.875 9.75 33.136 12.487 C33.251 13.569 33.251 13.569 33.367 14.672 C33.441 15.405 33.514 16.138 33.589 16.894 C34.039 19.2 34.938 20.916 36 23 C36.012 25.508 36.012 25.508 35.688 28.125 C35.588 28.994 35.489 29.863 35.387 30.758 C35 33 35 33 34 35 C29.925 35.124 25.851 35.214 21.775 35.275 C20.388 35.3 19.002 35.334 17.616 35.377 C15.624 35.438 13.63 35.464 11.637 35.488 C10.437 35.514 9.238 35.541 8.003 35.568 C5 35 5 35 3.131 32.656 C-1.147 22.607 0 10.511 0 0 Z " fill="#282F36" transform="translate(167,341)"/>
<path d="M0 0 C0.33 0 0.66 0 1 0 C1.121 1.253 1.242 2.506 1.367 3.797 C1.536 5.448 1.705 7.099 1.875 8.75 C1.954 9.575 2.032 10.4 2.113 11.25 C2.197 12.049 2.281 12.848 2.367 13.672 C2.441 14.405 2.514 15.138 2.589 15.894 C2.909 18.058 2.909 18.058 4.055 20.04 C5.56 23.163 4.743 25.718 4 29 C3.34 29.33 2.68 29.66 2 30 C0.032 19.897 -0.221 10.253 0 0 Z " fill="#14171A" transform="translate(198,342)"/>
</svg>
