<?xml version="1.0" encoding="UTF-8"?>
<!-- Generator: visioncortex VTracer 0.6.4 -->
<svg version="1.1" xmlns="http://www.w3.org/2000/svg" width="512" height="512">
<path d="M0 0 C0.66 0.33 1.32 0.66 2 1 C3.022 4.066 3.199 6.348 3.25 9.562 C3.276 10.533 3.302 11.504 3.328 12.504 C3.22 13.328 3.112 14.151 3 15 C-0.325 17.217 -2.037 17.771 -6 18 C-9.898 16.811 -12.3 15.764 -15.062 12.75 C-16.353 8.965 -15.367 6.67 -14 3 C-13.34 3 -12.68 3 -12 3 C-11.67 2.01 -11.34 1.02 -11 0 C-6.911 -1.363 -4.254 -0.675 0 0 Z " fill="#98999B" transform="translate(183,189)"/>
<path d="M0 0 C0.33 0 0.66 0 1 0 C1.081 1.791 1.139 3.583 1.188 5.375 C1.24 6.872 1.24 6.872 1.293 8.398 C1.196 9.257 1.1 10.115 1 11 C-2.325 13.217 -4.037 13.771 -8 14 C-11.967 12.79 -14.315 11.813 -17 8.625 C-18.157 5.588 -17.962 4.061 -17 1 C-16.67 1 -16.34 1 -16 1 C-15.711 1.969 -15.423 2.939 -15.125 3.938 C-14.358 7.107 -14.358 7.107 -12 8 C-9.667 8.042 -7.333 8.041 -5 8 C-4.01 8 -3.02 8 -2 8 C-0.032 6.032 -0.338 2.652 0 0 Z " fill="#7E8084" transform="translate(185,193)"/>
<path d="M0 0 C0.99 0.33 1.98 0.66 3 1 C2.34 1.66 1.68 2.32 1 3 C0.54 5.203 0.54 5.203 0.375 7.625 C0.3 8.442 0.225 9.26 0.148 10.102 C0.099 10.728 0.05 11.355 0 12 C-0.99 11.34 -1.98 10.68 -3 10 C-3.188 6.375 -3.188 6.375 -3 3 C-2.34 3 -1.68 3 -1 3 C-0.67 2.01 -0.34 1.02 0 0 Z " fill="#8F9091" transform="translate(172,189)"/>
<path d="M0 0 C0.33 0 0.66 0 1 0 C2 3 3 6 4 9 C2.062 8.25 2.062 8.25 0 7 C-1.238 4.047 -1.042 3.126 0 0 Z " fill="#7E7F81" transform="translate(168,194)"/>
</svg>
