<?xml version="1.0" encoding="UTF-8"?>
<!-- Generator: visioncortex VTracer 0.6.4 -->
<svg version="1.1" xmlns="http://www.w3.org/2000/svg" width="512" height="512">
<path d="M0 0 C1.018 -0.001 1.018 -0.001 2.056 -0.003 C3.482 -0.004 4.907 -0.002 6.333 0.002 C8.523 0.008 10.712 0.002 12.902 -0.004 C14.289 -0.003 15.676 -0.002 17.062 0 C18.324 0.001 19.586 0.002 20.886 0.003 C23.766 0.133 23.766 0.133 24.766 1.133 C25.415 8.044 24.697 14.828 23.516 21.633 C23.406 22.315 23.297 22.997 23.185 23.699 C22.352 28.094 21.276 30.376 17.766 33.133 C14.957 33.635 14.957 33.635 11.758 33.629 C10.607 33.63 9.456 33.63 8.27 33.631 C7.072 33.611 5.874 33.591 4.641 33.57 C2.833 33.581 2.833 33.581 0.988 33.592 C-5.643 33.543 -5.643 33.543 -8.234 33.133 C-13.754 24.853 -12.501 10.735 -12.234 1.133 C-8.108 0.142 -4.237 0.004 0 0 Z " fill="#22272D" transform="translate(319.234375,341.8671875)"/>
</svg>
