<?xml version="1.0" encoding="UTF-8"?>
<!-- Generator: visioncortex VTracer 0.6.4 -->
<svg version="1.1" xmlns="http://www.w3.org/2000/svg" width="512" height="512">
<path d="M0 0 C2.796 2.345 2.975 3.802 3.438 7.438 C2.821 12.454 0.452 14.548 -3 18 C-6.89 18.53 -8.786 18.109 -12.312 16.312 C-15 14 -15 14 -16 11.625 C-16 8.304 -15.38 6.023 -14 3 C-9.57 -1.144 -5.805 -1.347 0 0 Z " fill="#AFB1B2" transform="translate(339,188)"/>
<path d="M0 0 C0.66 0 1.32 0 2 0 C1.67 0.99 1.34 1.98 1 3 C0.34 3 -0.32 3 -1 3 C-0.34 6.3 0.32 9.6 1 13 C4.63 13 8.26 13 12 13 C11 15 11 15 9 17 C5.11 17.53 3.214 17.109 -0.312 15.312 C-3 13 -3 13 -4 10.625 C-4 6.332 -3.053 3.053 0 0 Z " fill="#9C9DA0" transform="translate(327,189)"/>
<path d="M0 0 C0.66 0 1.32 0 2 0 C2.66 1.65 3.32 3.3 4 5 C7.3 5.33 10.6 5.66 14 6 C13.67 6.99 13.34 7.98 13 9 C9.147 9.367 7.181 9.092 3.688 7.312 C1 5 1 5 0.125 2.25 C0.084 1.507 0.043 0.765 0 0 Z " fill="#7E8187" transform="translate(323,197)"/>
</svg>
