<?xml version="1.0" encoding="UTF-8"?>
<!-- Generator: visioncortex VTracer 0.6.4 -->
<svg version="1.1" xmlns="http://www.w3.org/2000/svg" width="512" height="512">
<path d="M0 0 C1.21 0.005 2.419 0.01 3.666 0.016 C4.841 0.018 6.016 0.021 7.227 0.023 C8.731 0.033 10.236 0.042 11.787 0.051 C16.551 0.072 21.316 0.092 26.224 0.114 C26.224 10.344 26.224 20.574 26.224 31.114 C16.654 31.444 7.084 31.774 -2.776 32.114 C-3.4 24.624 -3.937 17.4 -3.901 9.926 C-3.905 9.082 -3.908 8.239 -3.912 7.369 C-3.901 0.16 -3.901 0.16 0 0 Z " fill="#F7F8F7" transform="translate(308.775634765625,276.886474609375)"/>
<path d="M0 0 C1.32 0 2.64 0 4 0 C4 1.32 4 2.64 4 4 C3.34 4 2.68 4 2 4 C2.14 7.396 2.288 10.792 2.438 14.188 C2.477 15.147 2.516 16.107 2.557 17.096 C2.599 18.027 2.64 18.958 2.684 19.918 C2.739 21.198 2.739 21.198 2.795 22.505 C3.005 25.065 3.448 27.493 4 30 C5.98 30.33 7.96 30.66 10 31 C10 31.33 10 31.66 10 32 C6.7 32 3.4 32 0 32 C-0.77 24.586 -1.108 17.261 -1.125 9.812 C-1.13 8.963 -1.134 8.113 -1.139 7.237 C-1.124 1.124 -1.124 1.124 0 0 Z " fill="#E8AD2D" transform="translate(306,277)"/>
<path d="M0 0 C0.66 0 1.32 0 2 0 C2.33 1.65 2.66 3.3 3 5 C5.97 5.495 5.97 5.495 9 6 C9 6.33 9 6.66 9 7 C5.7 7 2.4 7 -1 7 C-0.67 4.69 -0.34 2.38 0 0 Z " fill="#D2C5AB" transform="translate(307,302)"/>
</svg>
