<?xml version="1.0" encoding="UTF-8"?>
<!-- Generator: visioncortex VTracer 0.6.4 -->
<svg version="1.1" xmlns="http://www.w3.org/2000/svg" width="512" height="512">
<path d="M0 0 C0.721 -0.012 1.441 -0.024 2.184 -0.037 C5.99 -0.048 8.9 0.052 12.125 2.188 C12.745 8.912 12.201 13.189 8.316 18.789 C7.923 19.251 7.53 19.712 7.125 20.188 C6.795 20.188 6.465 20.188 6.125 20.188 C6.125 17.877 6.125 15.567 6.125 13.188 C3.815 13.518 1.505 13.847 -0.875 14.188 C-1.205 18.808 -1.535 23.428 -1.875 28.188 C-7.485 28.188 -13.095 28.188 -18.875 28.188 C-18.424 21.25 -16.872 15.961 -13.938 9.688 C-13.577 8.878 -13.217 8.068 -12.846 7.234 C-9.669 0.262 -7.641 0.007 0 0 Z " fill="#737475" transform="translate(312.875,143.8125)"/>
</svg>
