<?xml version="1.0" encoding="UTF-8"?>
<!-- Generator: visioncortex VTracer 0.6.4 -->
<svg version="1.1" xmlns="http://www.w3.org/2000/svg" width="512" height="512">
<path d="M0 0 C1.279 -0.001 2.559 -0.003 3.877 -0.004 C4.546 -0.002 5.214 0 5.903 0.002 C7.931 0.008 9.959 0.003 11.986 -0.004 C13.911 -0.002 13.911 -0.002 15.875 0 C17.051 0.001 18.227 0.002 19.439 0.003 C22.297 0.119 24.859 0.475 27.637 1.133 C28.882 5.807 28.612 10.173 28.324 14.945 C28.289 15.714 28.253 16.483 28.217 17.275 C27.481 30.288 27.481 30.288 24.637 33.133 C22.746 33.233 20.851 33.264 18.957 33.266 C17.223 33.268 17.223 33.268 15.453 33.27 C14.235 33.266 13.017 33.262 11.762 33.258 C10.551 33.262 9.341 33.266 8.094 33.27 C6.355 33.268 6.355 33.268 4.582 33.266 C3.515 33.264 2.448 33.263 1.348 33.262 C-1.363 33.133 -1.363 33.133 -4.363 32.133 C-9.237 22.614 -8.494 11.483 -8.363 1.133 C-5.538 -0.28 -3.156 0.003 0 0 Z " fill="#252C34" transform="translate(176.36328125,341.8671875)"/>
<path d="M0 0 C1.32 0 2.64 0 4 0 C5.286 4.749 4.938 9.213 4.625 14.062 C4.581 14.865 4.537 15.667 4.492 16.494 C4.275 20.131 3.968 23.475 3 27 C2.34 26.67 1.68 26.34 1 26 C-0.293 17.452 -0.142 8.628 0 0 Z " fill="#0B0C0E" transform="translate(200,343)"/>
</svg>
