<?xml version="1.0" encoding="UTF-8"?>
<!-- Generator: visioncortex VTracer 0.6.4 -->
<svg version="1.1" xmlns="http://www.w3.org/2000/svg" width="512" height="512">
<path d="M0 0 C1.5 0.004 1.5 0.004 3.031 0.008 C4.032 0.005 5.032 0.003 6.062 0 C8.531 0.133 8.531 0.133 9.531 1.133 C9.63 3.131 9.661 5.132 9.656 7.133 C9.659 8.226 9.661 9.319 9.664 10.445 C9.531 13.133 9.531 13.133 8.531 14.133 C6.7 14.231 4.865 14.263 3.031 14.258 C2.031 14.26 1.031 14.263 0 14.266 C-2.469 14.133 -2.469 14.133 -3.469 13.133 C-3.567 11.135 -3.598 9.133 -3.594 7.133 C-3.596 6.04 -3.599 4.947 -3.602 3.82 C-3.422 0.184 -3.422 0.184 0 0 Z " fill="#00A6DA" transform="translate(325.46875,243.8671875)"/>
</svg>
