<?xml version="1.0" encoding="UTF-8"?>
<!-- Generator: visioncortex VTracer 0.6.4 -->
<svg version="1.1" xmlns="http://www.w3.org/2000/svg" width="512" height="512">
<path d="M0 0 C5.915 2.614 9.291 7.593 11.98 13.348 C20.451 35.384 17.47 59.845 8.668 81.383 C5.165 88.978 0.845 94.778 -7 98 C-10.625 98.562 -10.625 98.562 -14 98 C-18.853 94.418 -21.39 89.313 -24 84 C-24.561 82.873 -24.561 82.873 -25.133 81.723 C-30.16 70.531 -30.367 58.079 -30 46 C-31.98 46.495 -31.98 46.495 -34 47 C-33.614 44.219 -33.29 42.378 -31.562 40.125 C-29.794 37.981 -29.794 37.981 -29.105 34.828 C-25.632 22.799 -15.635 -2.95 0 0 Z M-8.832 28.082 C-14.694 37.707 -15.558 49.938 -13.457 60.809 C-12.206 65.017 -10.783 68.514 -7 71 C-4.043 71.833 -4.043 71.833 -1 71 C4.795 65.744 7.027 58.783 7.434 51.062 C7.451 49.375 7.452 47.687 7.438 46 C7.457 45.162 7.477 44.324 7.498 43.461 C7.493 36.582 5.999 29.999 1 25 C-3.214 24.345 -5.948 24.75 -8.832 28.082 Z " fill="#282F37" transform="translate(286,281)"/>
<path d="M0 0 C1.262 3.861 0.372 5.842 -1.164 9.562 C-2.763 14.224 -3.311 19.134 -4 24 C-4.33 23.01 -4.66 22.02 -5 21 C-6.32 21.33 -7.64 21.66 -9 22 C-8.614 19.219 -8.29 17.378 -6.562 15.125 C-4.473 12.283 -3.934 9.387 -3 6 C-2.044 3.978 -1.057 1.97 0 0 Z " fill="#191D22" transform="translate(261,306)"/>
<path d="" fill="#010000" transform="translate(0,0)"/>
<path d="" fill="#021F3E" transform="translate(0,0)"/>
</svg>
