<?xml version="1.0" encoding="UTF-8"?>
<!-- Generator: visioncortex VTracer 0.6.4 -->
<svg version="1.1" xmlns="http://www.w3.org/2000/svg" width="512" height="512">
<path d="M0 0 C3.086 2.733 4.082 4.97 5.188 8.938 C5.001 13.295 3.914 16.128 1 19.375 C-2.449 21.291 -4.863 21.868 -8.812 21.938 C-12.94 20.43 -15.738 18.868 -17.812 14.938 C-18.856 10.912 -19.055 8.638 -17.688 4.688 C-13.286 -1.767 -7.03 -2.656 0 0 Z " fill="#7C7D80" transform="translate(121.8125,189.0625)"/>
<path d="M0 0 C3.125 0.188 3.125 0.188 6.125 2.188 C6.488 4.281 6.488 4.281 6.438 6.688 C6.434 7.482 6.43 8.276 6.426 9.094 C6.125 11.188 6.125 11.188 4.125 13.188 C-2.337 12.726 -2.337 12.726 -4.875 10.188 C-4.887 8.059 -4.887 8.059 -4.562 5.625 C-4.463 4.819 -4.364 4.014 -4.262 3.184 C-3.651 0.03 -3.315 0.216 0 0 Z " fill="#969799" transform="translate(108.875,193.8125)"/>
</svg>
