<?xml version="1.0" encoding="UTF-8"?>
<!-- Generator: visioncortex VTracer 0.6.4 -->
<svg version="1.1" xmlns="http://www.w3.org/2000/svg" width="512" height="512">
<path d="M0 0 C1.454 0.031 1.454 0.031 2.938 0.062 C3.012 4.156 3.066 8.249 3.102 12.343 C3.117 13.736 3.138 15.129 3.164 16.521 C3.2 18.522 3.216 20.523 3.23 22.523 C3.254 24.33 3.254 24.33 3.278 26.173 C3.166 27.127 3.053 28.08 2.938 29.062 C-0.062 31.062 -0.062 31.062 -4.062 31.062 C-4.087 26.808 -4.105 22.554 -4.117 18.3 C-4.122 16.852 -4.129 15.404 -4.138 13.955 C-4.15 11.878 -4.156 9.8 -4.16 7.723 C-4.165 6.471 -4.171 5.219 -4.176 3.93 C-4.019 -0.037 -4 0.082 0 0 Z " fill="#EFEDE4" transform="translate(243.0625,276.9375)"/>
</svg>
