<?xml version="1.0" encoding="UTF-8"?>
<!-- Generator: visioncortex VTracer 0.6.4 -->
<svg version="1.1" xmlns="http://www.w3.org/2000/svg" width="512" height="512">
<path d="M0 0 C-0.046 0.568 -0.093 1.137 -0.141 1.723 C-0.509 9.6 2.096 13.87 7 20 C6.34 20.99 5.68 21.98 5 23 C4.633 25.613 4.633 25.613 4.586 28.543 C4.547 29.616 4.509 30.689 4.469 31.795 C4.422 33.474 4.422 33.474 4.375 35.188 C4.336 36.319 4.298 37.45 4.258 38.615 C4.163 41.41 4.078 44.205 4 47 C1.245 47.918 -0.662 48.186 -3.523 48.316 C-4.449 48.359 -5.374 48.401 -6.327 48.444 C-7.333 48.483 -8.339 48.522 -9.375 48.562 C-10.416 48.604 -11.457 48.645 -12.53 48.687 C-21.29 48.998 -30.048 49.139 -38.812 49.188 C-40.076 49.2 -41.339 49.213 -42.64 49.227 C-44.406 49.229 -44.406 49.229 -46.207 49.23 C-47.777 49.237 -47.777 49.237 -49.378 49.243 C-52 49 -52 49 -55 47 C-56.666 39.688 -55.3 32.815 -54.25 25.5 C-54.08 24.207 -53.91 22.914 -53.734 21.582 C-51.981 9.035 -51.981 9.035 -49 4 C-46.244 2.291 -43.949 1.71 -40.738 1.482 C-39.907 1.419 -39.076 1.355 -38.22 1.29 C-37.332 1.232 -36.443 1.173 -35.527 1.113 C-34.608 1.047 -33.688 0.981 -32.741 0.913 C-30.801 0.775 -28.86 0.642 -26.919 0.512 C-23.944 0.313 -20.971 0.098 -17.998 -0.119 C-16.112 -0.251 -14.226 -0.382 -12.34 -0.512 C-11.449 -0.576 -10.559 -0.641 -9.641 -0.707 C-8.399 -0.788 -8.399 -0.788 -7.133 -0.87 C-6.405 -0.919 -5.678 -0.969 -4.928 -1.02 C-3 -1 -3 -1 0 0 Z " fill="#1C1A24" transform="translate(224,187)"/>
</svg>
