<?xml version="1.0" encoding="UTF-8"?>
<!-- Generator: visioncortex VTracer 0.6.4 -->
<svg version="1.1" xmlns="http://www.w3.org/2000/svg" width="512" height="512">
<path d="M0 0 C0.778 0.172 1.557 0.345 2.359 0.522 C4.9 1.088 7.437 1.667 9.975 2.247 C11.751 2.646 13.527 3.045 15.303 3.443 C19.008 4.276 22.712 5.115 26.415 5.96 C31.166 7.043 35.921 8.111 40.676 9.174 C44.336 9.994 47.995 10.821 51.652 11.65 C53.406 12.047 55.16 12.442 56.914 12.834 C59.357 13.382 61.798 13.94 64.238 14.5 C64.965 14.661 65.692 14.822 66.44 14.988 C71.438 16.151 71.438 16.151 73.666 18.379 C69.371 20.527 63.832 20.097 59.104 20.442 C57.967 20.533 56.831 20.624 55.66 20.717 C40.267 21.86 26.197 21.635 11.058 18.499 C8.616 17.994 6.169 17.517 3.721 17.043 C2.161 16.733 0.601 16.42 -0.959 16.106 C-1.688 15.963 -2.417 15.82 -3.168 15.673 C-4.905 15.308 -6.623 14.852 -8.334 14.379 C-8.664 13.719 -8.994 13.059 -9.334 12.379 C-10.204 12.414 -10.204 12.414 -11.092 12.45 C-15.948 12.562 -19.763 12.255 -24.334 10.379 C-24.528 8.734 -24.714 7.088 -24.896 5.442 C-25.001 4.525 -25.105 3.609 -25.213 2.665 C-25.253 1.91 -25.293 1.156 -25.334 0.379 C-20.349 -4.606 -6.064 -1.406 0 0 Z " fill="#707273" transform="translate(205.333740234375,150.62060546875)"/>
</svg>
