<?xml version="1.0" encoding="UTF-8"?>
<!-- Generator: visioncortex VTracer 0.6.4 -->
<svg version="1.1" xmlns="http://www.w3.org/2000/svg" width="512" height="512">
<path d="M0 0 C0.04 0.629 0.079 1.257 0.12 1.905 C1.133 17.205 2.597 30.273 9.949 43.977 C11 46 11 46 12 49 C14 50.209 14 50.209 16 51 C16 51.33 16 51.66 16 52 C-8.118 50.875 -8.118 50.875 -13.664 45.59 C-19.227 38.97 -22.324 30.4 -24 22 C-23.602 19.109 -23.602 19.109 -23 17 C-22.18 16.899 -21.36 16.799 -20.516 16.695 C-17.088 16.097 -14.177 15.432 -11 14 C-9.308 11.5 -8.562 9.276 -7.723 6.387 C-6.415 2.068 -4.5 0 0 0 Z " fill="#252A31" transform="translate(256,327)"/>
</svg>
