<?xml version="1.0" encoding="UTF-8"?>
<!-- Generator: visioncortex VTracer 0.6.4 -->
<svg version="1.1" xmlns="http://www.w3.org/2000/svg" width="512" height="512">
<path d="M0 0 C3.31 -0.124 5.943 -0.128 8.832 1.617 C17.203 10.095 17.43 22.892 17.484 34.039 C17.356 47.794 16.389 65.197 6.047 75.539 C2.968 77.625 0.698 77.605 -2.953 77.539 C-10.362 64.566 -15.211 45.209 -12.266 30.164 C-11.842 28.618 -11.404 27.077 -10.953 25.539 C-10.492 23.352 -10.034 21.165 -9.578 18.977 C-5.519 1.523 -5.519 1.523 0 0 Z M1.922 21.102 C-2.279 26.563 -2.291 32.374 -2.266 38.977 C-2.282 39.797 -2.298 40.618 -2.314 41.463 C-2.319 46.889 -1.608 50.77 1.047 55.539 C3.624 56.591 3.624 56.591 6.047 56.539 C11.079 51.843 11.556 46.092 12.047 39.539 C12.097 29.479 12.097 29.479 8.047 20.539 C5.235 18.906 4.536 19.18 1.922 21.102 Z " fill="#293038" transform="translate(354.953125,276.4609375)"/>
<path d="M0 0 C1.32 0.33 2.64 0.66 4 1 C1.03 3.475 1.03 3.475 -2 6 C-2 3 -2 3 0 0 Z " fill="#20252C" transform="translate(353,277)"/>
</svg>
