<?xml version="1.0" encoding="UTF-8"?>
<!-- Generator: visioncortex VTracer 0.6.4 -->
<svg version="1.1" xmlns="http://www.w3.org/2000/svg" width="512" height="512">
<path d="M0 0 C8.951 7.033 11.31 17.836 12.688 28.625 C13.127 33.411 13.09 38.199 13 43 C12.01 43 11.02 43 10 43 C9.89 42.105 9.781 41.211 9.668 40.289 C8.164 25.131 8.164 25.131 0 13 C-3.068 12.526 -5.925 12.638 -9 13 C-13.077 21.393 -16.669 30.41 -17.625 39.75 C-17.811 41.359 -17.811 41.359 -18 43 C-18.99 43.495 -18.99 43.495 -20 44 C-20.971 30.001 -17.93 14.776 -10 3 C-6.633 -0.006 -4.541 -0.741 0 0 Z " fill="#010205" transform="translate(362,265)"/>
</svg>
