<?xml version="1.0" encoding="UTF-8"?>
<!-- Generator: visioncortex VTracer 0.6.4 -->
<svg version="1.1" xmlns="http://www.w3.org/2000/svg" width="512" height="512">
<path d="M0 0 C4.36 2.221 7.133 4.436 9 9 C9.532 13.788 9.498 15.985 7.375 20.312 C3.997 24.135 1.039 25.703 -4 26.438 C-8.655 25.759 -11.591 23.458 -14.812 20.125 C-16.948 16.303 -17.246 13.203 -16.375 8.938 C-12.919 1.553 -7.913 -1.061 0 0 Z " fill="#7D7E81" transform="translate(240,180)"/>
<path d="M0 0 C3.5 0.938 3.5 0.938 5.438 2.5 C7.052 6.203 6.89 8.905 6.5 12.938 C2.292 15.743 0.401 14.793 -4.5 13.938 C-5.16 13.607 -5.82 13.278 -6.5 12.938 C-6.581 11.334 -6.639 9.73 -6.688 8.125 C-6.722 7.232 -6.757 6.338 -6.793 5.418 C-6.5 2.938 -6.5 2.938 -5.207 1.109 C-3.5 -0.062 -3.5 -0.062 0 0 Z " fill="#AFB0B1" transform="translate(231.5,186.0625)"/>
<path d="M0 0 C0.33 0 0.66 0 1 0 C1.483 6.401 1.483 6.401 -0.562 8.938 C-3.934 10.407 -6.365 10.463 -10 10 C-11.715 7.973 -11.715 7.973 -13 6 C-12.313 6.084 -11.626 6.168 -10.918 6.254 C-9.566 6.407 -9.566 6.407 -8.188 6.562 C-7.294 6.667 -6.401 6.771 -5.48 6.879 C-2.866 7.157 -2.866 7.157 0 6 C0 4.02 0 2.04 0 0 Z " fill="#8A8B8F" transform="translate(238,193)"/>
<path d="M0 0 C-8.193 1.453 -8.193 1.453 -11.562 -0.438 C-12.037 -0.953 -12.511 -1.469 -13 -2 C-7.412 -3.143 -4.756 -3.171 0 0 Z " fill="#62656C" transform="translate(242,205)"/>
</svg>
