<?xml version="1.0" encoding="UTF-8"?>
<!-- Generator: visioncortex VTracer 0.6.4 -->
<svg version="1.1" xmlns="http://www.w3.org/2000/svg" width="512" height="512">
<path d="M0 0 C0.98 2.941 1.116 4.825 1.098 7.887 C1.094 8.825 1.091 9.762 1.088 10.729 C1.075 12.193 1.075 12.193 1.062 13.688 C1.058 14.676 1.053 15.664 1.049 16.682 C1.037 19.121 1.021 21.561 1 24 C-2.856 26.129 -6.107 26.272 -10.438 26.188 C-11.144 26.177 -11.85 26.167 -12.578 26.157 C-14.719 26.118 -16.859 26.059 -19 26 C-20.196 25.982 -21.392 25.964 -22.625 25.945 C-29.917 25.653 -34.999 24.202 -41 20 C-41 19.67 -41 19.34 -41 19 C-38.69 19 -36.38 19 -34 19 C-34 12.73 -34 6.46 -34 0 C-29.532 -1.489 -25.058 -1.457 -20.375 -1.688 C-19.415 -1.747 -18.454 -1.807 -17.465 -1.869 C-11.645 -2.157 -5.441 -2.421 0 0 Z " fill="#8D8F92" transform="translate(450,303)"/>
</svg>
