<?xml version="1.0" encoding="UTF-8"?>
<!-- Generator: visioncortex VTracer 0.6.4 -->
<svg version="1.1" xmlns="http://www.w3.org/2000/svg" width="512" height="512">
<path d="M0 0 C1.453 -0.01 1.453 -0.01 2.934 -0.019 C3.971 -0.02 5.008 -0.022 6.075 -0.023 C7.154 -0.026 8.233 -0.029 9.345 -0.033 C11.627 -0.038 13.909 -0.04 16.191 -0.04 C19.659 -0.042 23.126 -0.06 26.593 -0.079 C28.816 -0.082 31.04 -0.084 33.263 -0.085 C34.289 -0.092 35.316 -0.1 36.373 -0.107 C49.425 -0.066 49.425 -0.066 55.001 2.145 C58.534 5.862 58.439 9.398 58.4 14.305 C58.403 15.092 58.405 15.878 58.408 16.688 C58.41 18.346 58.405 20.005 58.392 21.663 C58.376 24.203 58.392 26.741 58.411 29.28 C58.409 30.893 58.406 32.505 58.4 34.118 C58.406 34.877 58.412 35.637 58.418 36.419 C58.348 41.628 58.348 41.628 56.861 43.844 C54.173 45.725 52.112 45.534 48.849 45.549 C47.581 45.562 46.313 45.575 45.006 45.588 C43.62 45.586 42.235 45.583 40.849 45.579 C39.428 45.583 38.007 45.589 36.586 45.595 C33.607 45.604 30.629 45.601 27.651 45.591 C23.836 45.58 20.023 45.6 16.208 45.629 C13.273 45.648 10.338 45.647 7.404 45.642 C5.997 45.641 4.591 45.647 3.185 45.66 C1.218 45.675 -0.75 45.661 -2.717 45.647 C-3.836 45.647 -4.955 45.647 -6.108 45.646 C-9.647 45.033 -10.79 43.914 -12.999 41.145 C-14.68 37.782 -14.39 33.976 -14.561 30.27 C-14.602 29.414 -14.642 28.558 -14.683 27.676 C-14.796 25.166 -14.898 22.656 -14.999 20.145 C-15.054 18.908 -15.11 17.67 -15.167 16.395 C-15.194 15.364 -15.221 14.333 -15.249 13.27 C-15.275 12.386 -15.3 11.502 -15.327 10.591 C-14.789 6.584 -12.809 3.955 -9.999 1.145 C-6.641 0.251 -3.464 0.016 0 0 Z " fill="#201F2E" transform="translate(234.998779296875,187.854736328125)"/>
<path d="M0 0 C1.616 -0.003 1.616 -0.003 3.265 -0.006 C5.542 -0.007 7.818 -0.003 10.094 0.005 C13.552 0.016 17.01 0.005 20.469 -0.008 C22.688 -0.006 24.906 -0.004 27.125 0 C28.148 -0.004 29.172 -0.008 30.226 -0.012 C46.656 0.093 46.656 0.093 50.828 4.266 C50.453 6.391 50.453 6.391 49.828 8.266 C49.828 7.606 49.828 6.946 49.828 6.266 C27.058 6.266 4.288 6.266 -19.172 6.266 C-17.172 2.266 -17.172 2.266 -14.745 1.032 C-9.803 -0.028 -5.041 -0.02 0 0 Z " fill="#050409" transform="translate(241.171875,187.734375)"/>
<path d="M0 0 C22.11 0 44.22 0 67 0 C67.495 1.98 67.495 1.98 68 4 C67.232 3.996 66.464 3.991 65.673 3.987 C58.434 3.946 51.195 3.916 43.956 3.896 C40.234 3.886 36.513 3.872 32.791 3.849 C29.199 3.827 25.607 3.815 22.015 3.81 C20.645 3.807 19.275 3.799 17.905 3.789 C15.985 3.774 14.065 3.773 12.146 3.773 C11.053 3.769 9.96 3.764 8.835 3.759 C5.991 4.001 4.366 4.438 2 6 C0.732 8.034 0.732 8.034 0 10 C-0.33 10 -0.66 10 -1 10 C-1.125 3.375 -1.125 3.375 0 0 Z " fill="#12121E" transform="translate(221,193)"/>
</svg>
