<?xml version="1.0" encoding="UTF-8"?>
<!-- Generator: visioncortex VTracer 0.6.4 -->
<svg version="1.1" xmlns="http://www.w3.org/2000/svg" width="512" height="512">
<path d="M0 0 C7.969 7.17 13.794 18.532 14.84 29.262 C14.962 31.954 14.938 34.564 14.84 37.262 C13.19 37.262 11.54 37.262 9.84 37.262 C9.766 38.981 9.766 38.981 9.691 40.734 C9.616 42.264 9.541 43.794 9.465 45.324 C9.434 46.076 9.403 46.829 9.371 47.604 C8.72 60.134 3.525 70.604 -5.598 79.188 C-15.819 87.461 -27.493 92.266 -40.773 91.016 C-52.654 88.928 -62.023 83.059 -70.16 74.262 C-70.985 73.395 -71.81 72.529 -72.66 71.637 C-79.821 62.849 -82.736 51.394 -82.16 40.262 C-81.83 39.272 -81.5 38.282 -81.16 37.262 C-84.13 38.252 -87.1 39.242 -90.16 40.262 C-91.458 27.287 -84.03 13.086 -76.098 3.137 C-54.348 -20.197 -23.748 -19.11 0 0 Z M-53.535 30.824 C-57.562 36.864 -58.798 42.643 -57.797 49.891 C-56.215 56.249 -53.403 60.346 -48.16 64.262 C-42.891 67.287 -38.118 68.166 -32.16 67.262 C-25.942 65.356 -21.733 61.621 -18.16 56.262 C-14.997 49.648 -15.338 42.879 -17.723 36.074 C-20.244 30.326 -23.905 26.799 -29.551 24.133 C-39.181 20.918 -46.854 23.616 -53.535 30.824 Z " fill="#283038" transform="translate(189.16015625,280.73828125)"/>
<path d="M0 0 C7.969 7.17 13.794 18.532 14.84 29.262 C14.962 31.954 14.938 34.564 14.84 37.262 C12.86 37.262 10.88 37.262 8.84 37.262 C8.53 35.344 8.53 35.344 8.215 33.387 C6.432 25.358 1.535 18.111 -4.16 12.262 C-5.15 12.262 -6.14 12.262 -7.16 12.262 C-8.15 10.777 -8.15 10.777 -9.16 9.262 C-11.46 7.956 -13.718 6.773 -16.098 5.637 C-16.731 5.325 -17.365 5.013 -18.018 4.691 C-27.802 -0.082 -39.094 -0.186 -49.727 1.992 C-62.334 6.642 -71.893 17.724 -78.16 29.262 C-78.679 30.77 -79.165 32.29 -79.598 33.824 C-81.16 37.262 -81.16 37.262 -83.332 38.414 C-85.6 39.178 -87.816 39.79 -90.16 40.262 C-91.458 27.287 -84.03 13.086 -76.098 3.137 C-54.348 -20.197 -23.748 -19.11 0 0 Z " fill="#010103" transform="translate(189.16015625,280.73828125)"/>
</svg>
