<?xml version="1.0" encoding="UTF-8"?>
<!-- Generator: visioncortex VTracer 0.6.4 -->
<svg version="1.1" xmlns="http://www.w3.org/2000/svg" width="512" height="512">
<path d="M0 0 C3.849 1.674 5.458 3.144 7 7 C7.327 10.809 7.096 14.527 4.766 17.66 C1.79 20.291 -1.026 21.898 -5 22 C-9.011 20.924 -11.285 19.103 -14 16 C-15.771 12.458 -15.029 8.728 -14 5 C-9.65 -0.199 -6.399 -0.813 0 0 Z " fill="#797A7D" transform="translate(412,191)"/>
<path d="M0 0 C0.33 0 0.66 0 1 0 C0.414 6.152 0.414 6.152 0 8 C-0.99 8.495 -0.99 8.495 -2 9 C-2.25 3.375 -2.25 3.375 0 0 Z " fill="#8E8F90" transform="translate(418,199)"/>
</svg>
