<?xml version="1.0" encoding="UTF-8"?>
<!-- Generator: visioncortex VTracer 0.6.4 -->
<svg version="1.1" xmlns="http://www.w3.org/2000/svg" width="512" height="512">
<path d="M0 0 C5.631 4.193 7.345 10.533 8.938 17.188 C9.255 20.317 9.318 23.418 9.312 26.562 C9.312 27.821 9.312 27.821 9.312 29.105 C9.181 36.193 8.095 42.03 2.938 47.188 C-0.375 47.688 -0.375 47.688 -4.062 47.188 C-9.667 42.348 -11.654 36.204 -12.247 28.922 C-12.388 26.322 -12.459 23.729 -12.5 21.125 C-12.522 20.286 -12.545 19.448 -12.568 18.583 C-12.545 12.433 -11.216 7.5 -8.062 2.188 C-5.003 -0.711 -4.084 -1.083 0 0 Z " fill="#82878E" transform="translate(231.0625,305.8125)"/>
</svg>
