<?xml version="1.0" encoding="UTF-8"?>
<!-- Generator: visioncortex VTracer 0.6.4 -->
<svg version="1.1" xmlns="http://www.w3.org/2000/svg" width="512" height="512">
<path d="M0 0 C0.664 3.387 1.093 6.316 0.625 9.75 C-1.948 13.312 -5.754 14.29 -10 15 C-12.086 14.605 -12.086 14.605 -14 14 C-15.998 13.654 -17.998 13.319 -20 13 C-20.195 13.778 -20.389 14.556 -20.59 15.357 C-22 18 -22 18 -24.879 19.314 C-26.702 19.793 -26.702 19.793 -28.562 20.281 C-29.222 20.461 -29.882 20.64 -30.561 20.825 C-32.703 21.403 -34.851 21.952 -37 22.5 C-38.465 22.889 -39.929 23.28 -41.393 23.674 C-44.277 24.446 -47.163 25.207 -50.052 25.96 C-55.714 27.442 -61.335 29.063 -66.959 30.68 C-69.752 31.463 -72.081 32 -75 32 C-75 31.34 -75 30.68 -75 30 C-76.98 30 -78.96 30 -81 30 C-81 30.66 -81 31.32 -81 32 C-86.75 32.125 -86.75 32.125 -89 31 C-89.054 29.542 -89.093 28.084 -89.125 26.625 C-89.16 25.407 -89.16 25.407 -89.195 24.164 C-89 22 -89 22 -87 20 C-85.01 19.253 -82.991 18.583 -80.961 17.953 C-80.343 17.759 -79.725 17.565 -79.088 17.366 C-77.043 16.726 -74.994 16.095 -72.945 15.465 C-71.523 15.022 -70.1 14.579 -68.678 14.135 C-64.93 12.968 -61.179 11.808 -57.428 10.65 C-54.37 9.704 -51.314 8.753 -48.259 7.802 C-44.613 6.667 -40.967 5.534 -37.32 4.402 C-36.625 4.187 -35.93 3.971 -35.214 3.749 C-33.242 3.137 -31.27 2.527 -29.297 1.918 C-28.175 1.571 -27.053 1.224 -25.897 0.866 C-17.33 -1.695 -8.789 -1.598 0 0 Z " fill="#727374" transform="translate(234,141)"/>
</svg>
