<?xml version="1.0" encoding="UTF-8"?>
<!-- Generator: visioncortex VTracer 0.6.4 -->
<svg version="1.1" xmlns="http://www.w3.org/2000/svg" width="512" height="512">
<path d="M0 0 C2.397 0.283 4.792 0.576 7.188 0.875 C7.861 0.954 8.535 1.032 9.229 1.113 C13.103 1.605 16.451 2.36 20 4 C20.848 13.795 19.11 26.09 13.5 34.375 C10.114 37.93 7.551 39.205 2.672 39.414 C1.873 39.453 1.073 39.491 0.25 39.531 C-0.988 39.578 -0.988 39.578 -2.25 39.625 C-3.09 39.664 -3.931 39.702 -4.797 39.742 C-6.864 39.836 -8.932 39.919 -11 40 C-9.976 37.912 -8.923 35.864 -7.772 33.842 C-4.186 27.31 -2.963 21.43 -2.25 14.062 C-2.028 12.032 -1.804 10.002 -1.578 7.973 C-1.49 7.088 -1.401 6.204 -1.31 5.293 C-1 3 -1 3 0 0 Z " fill="#23292F" transform="translate(170,314)"/>
</svg>
