<?xml version="1.0" encoding="UTF-8"?>
<!-- Generator: visioncortex VTracer 0.6.4 -->
<svg version="1.1" xmlns="http://www.w3.org/2000/svg" width="512" height="512">
<path d="M0 0 C2.686 3.439 2.273 7.522 2.23 11.688 C2.23 12.797 2.23 12.797 2.229 13.928 C2.226 15.488 2.218 17.048 2.206 18.608 C2.188 20.992 2.185 23.375 2.186 25.758 C2.181 27.276 2.175 28.794 2.168 30.312 C2.167 31.023 2.166 31.734 2.165 32.466 C2.101 39.167 2.101 39.167 1 42 C-2.901 43.951 -7.701 43.484 -12 43.688 C-13.024 43.747 -14.047 43.807 -15.102 43.869 C-16.079 43.916 -17.056 43.963 -18.062 44.012 C-19.41 44.081 -19.41 44.081 -20.785 44.151 C-23 44 -23 44 -25 42 C-25.175 39.131 -25.231 36.36 -25.195 33.492 C-25.192 32.652 -25.19 31.811 -25.187 30.945 C-25.176 28.255 -25.15 25.565 -25.125 22.875 C-25.115 21.053 -25.106 19.232 -25.098 17.41 C-25.076 12.94 -25.041 8.47 -25 4 C-20.92 1.8 -17.028 1.093 -12.5 0.312 C-11.741 0.17 -10.981 0.028 -10.199 -0.119 C-3.234 -1.345 -3.234 -1.345 0 0 Z " fill="#1F2030" transform="translate(203,191)"/>
<path d="M0 0 C1 1 1 1 1.062 4.062 C1.042 5.032 1.021 6.001 1 7 C-7.049 8.299 -14.838 9.339 -23 9 C-23.33 9.99 -23.66 10.98 -24 12 C-24.33 12 -24.66 12 -25 12 C-25 9.36 -25 6.72 -25 4 C-21.106 1.628 -16.922 1.075 -12.5 0.312 C-11.741 0.17 -10.981 0.028 -10.199 -0.119 C-6.483 -0.773 -3.598 -1.176 0 0 Z " fill="#04040A" transform="translate(203,191)"/>
<path d="M0 0 C0 1.32 0 2.64 0 4 C-8.049 5.299 -15.838 6.339 -24 6 C-23.67 5.34 -23.34 4.68 -23 4 C-15.59 1.557 -7.804 0 0 0 Z " fill="#0C0C15" transform="translate(204,194)"/>
<path d="M0 0 C0 0.99 0 1.98 0 3 C-8.91 3.99 -8.91 3.99 -18 5 C-17 3 -17 3 -13.812 1.875 C-10.352 1.081 -7.521 0.918 -4 1 C-2 0 -2 0 0 0 Z " fill="#14131F" transform="translate(204,195)"/>
</svg>
