<?xml version="1.0" encoding="UTF-8"?>
<!-- Generator: visioncortex VTracer 0.6.4 -->
<svg version="1.1" xmlns="http://www.w3.org/2000/svg" width="512" height="512">
<path d="M0 0 C0.699 -0.003 1.398 -0.007 2.119 -0.01 C4.441 -0.02 6.764 -0.022 9.086 -0.023 C10.694 -0.026 12.302 -0.029 13.91 -0.033 C17.286 -0.039 20.661 -0.041 24.036 -0.04 C28.369 -0.04 32.701 -0.054 37.033 -0.071 C40.356 -0.082 43.678 -0.084 47.001 -0.083 C48.599 -0.085 50.196 -0.089 51.794 -0.097 C54.025 -0.107 56.257 -0.104 58.488 -0.098 C60.396 -0.1 60.396 -0.1 62.342 -0.102 C65.309 0.145 65.309 0.145 67.309 2.145 C67.563 4.195 67.563 4.195 67.568 6.747 C67.574 7.701 67.58 8.656 67.587 9.639 C67.583 10.672 67.579 11.706 67.574 12.77 C67.576 13.828 67.578 14.886 67.58 15.976 C67.582 18.215 67.578 20.455 67.57 22.694 C67.559 26.131 67.569 29.568 67.582 33.005 C67.581 35.177 67.578 37.348 67.574 39.52 C67.579 40.554 67.583 41.587 67.587 42.652 C67.577 44.083 67.577 44.083 67.568 45.544 C67.566 46.386 67.564 47.228 67.563 48.096 C67.309 50.145 67.309 50.145 65.309 52.145 C59.202 53.185 53.061 53.424 46.879 53.68 C45.89 53.723 44.901 53.766 43.882 53.811 C41.792 53.9 39.703 53.989 37.614 54.075 C34.478 54.206 31.343 54.344 28.207 54.483 C16.233 54.998 4.294 55.273 -7.691 55.145 C-7.716 47.473 -7.734 39.801 -7.746 32.129 C-7.751 29.517 -7.758 26.904 -7.767 24.292 C-7.779 20.546 -7.784 16.801 -7.789 13.055 C-7.794 11.879 -7.799 10.703 -7.804 9.492 C-7.805 7.87 -7.805 7.87 -7.805 6.216 C-7.807 5.259 -7.809 4.302 -7.811 3.316 C-7.554 -1.338 -3.883 0.012 0 0 Z " fill="#000000" transform="translate(331.691162109375,253.854736328125)"/>
</svg>
