<?xml version="1.0" encoding="UTF-8"?>
<!-- Generator: visioncortex VTracer 0.6.4 -->
<svg version="1.1" xmlns="http://www.w3.org/2000/svg" width="512" height="512">
<path d="M0 0 C1.642 1.642 1.288 3.492 1.375 5.75 C1.33 9.64 1.17 10.755 -1.125 14.062 C-4.214 16.144 -6.313 16.743 -10 17 C-12.87 13.76 -14.774 11.406 -15 7 C-14.158 3.82 -13.095 3.062 -10.312 1.25 C-6.628 -0.14 -3.907 -0.306 0 0 Z " fill="#ACADAE" transform="translate(407,193)"/>
<path d="M0 0 C3.96 0.33 7.92 0.66 12 1 C8.705 4.295 7.535 4.811 3 5 C1.125 3.688 1.125 3.688 0 2 C0 1.34 0 0.68 0 0 Z " fill="#888B90" transform="translate(394,205)"/>
<path d="M0 0 C0.33 0.66 0.66 1.32 1 2 C0.01 3.485 0.01 3.485 -1 5 C-1.385 6.655 -1.728 8.322 -2 10 C-2.66 9.01 -3.32 8.02 -4 7 C-3.25 3.875 -3.25 3.875 -2 1 C-1.34 0.67 -0.68 0.34 0 0 Z " fill="#969799" transform="translate(396,195)"/>
</svg>
