<?xml version="1.0" encoding="UTF-8"?>
<!-- Generator: visioncortex VTracer 0.6.4 -->
<svg version="1.1" xmlns="http://www.w3.org/2000/svg" width="512" height="512">
<path d="M0 0 C4.951 3.095 8.117 7.499 11.676 12.074 C14.302 15.38 17.045 18.563 19.812 21.75 C23.822 26.382 27.69 31.091 31.438 35.938 C35.87 41.665 40.53 47.153 45.3 52.601 C49.215 57.076 53.011 61.632 56.754 66.254 C59.319 69.39 61.937 72.477 64.562 75.562 C68.474 80.163 72.296 84.821 76.051 89.551 C80.535 95.185 85.076 100.773 89.77 106.234 C107.113 126.419 107.113 126.419 106.938 136.625 C105.783 140.783 104.389 142.364 101 145 C96.514 147.094 91.891 147.953 87 147 C78.574 143.623 73.565 135.863 68.36 128.832 C66.277 126.026 64.136 123.265 62 120.5 C61.176 119.426 60.351 118.352 59.527 117.277 C55.067 111.48 50.527 105.745 46 100 C37.015 88.593 28.096 77.135 19.188 65.668 C17.397 63.362 15.605 61.056 13.812 58.75 C12.939 57.627 12.939 57.627 12.049 56.481 C8.463 51.872 4.863 47.275 1.25 42.688 C-2.347 38.114 -5.936 33.536 -9.5 28.938 C-10.294 27.915 -11.088 26.893 -11.906 25.84 C-16.524 19.577 -18.834 14.92 -18 7 C-13.357 1.03 -7.548 -1.39 0 0 Z " fill="#737576" transform="translate(190,164)"/>
</svg>
