<?xml version="1.0" encoding="UTF-8"?>
<!-- Generator: visioncortex VTracer 0.6.4 -->
<svg version="1.1" xmlns="http://www.w3.org/2000/svg" width="512" height="512">
<path d="M0 0 C3.887 1.296 5.109 3.626 7.312 6.875 C8.193 8.146 9.076 9.415 9.961 10.684 C10.441 11.373 10.922 12.063 11.417 12.773 C13.129 15.181 14.889 17.548 16.664 19.91 C17.289 20.744 17.914 21.577 18.557 22.436 C19.788 24.074 21.024 25.708 22.265 27.337 C29.013 36.361 31.194 44.158 31.062 55.375 C31.058 56.111 31.053 56.847 31.049 57.605 C31.037 59.404 31.019 61.202 31 63 C26.555 58.861 23.128 54.26 19.625 49.312 C19.052 48.509 18.479 47.705 17.889 46.877 C16.76 45.293 15.634 43.707 14.509 42.12 C13.267 40.374 12.005 38.642 10.738 36.914 C10.144 36.097 9.55 35.28 8.938 34.438 C8.452 33.776 7.966 33.115 7.465 32.434 C3.029 25.063 1.322 18.495 0.75 9.938 C0.673 8.977 0.595 8.016 0.516 7.025 C0.329 4.684 0.158 2.343 0 0 Z " fill="#242436" transform="translate(173,221)"/>
</svg>
