<?xml version="1.0" encoding="UTF-8"?>
<!-- Generator: visioncortex VTracer 0.6.4 -->
<svg version="1.1" xmlns="http://www.w3.org/2000/svg" width="512" height="512">
<path d="M0 0 C0.028 1.521 0.047 3.042 0.062 4.562 C0.074 5.409 0.086 6.256 0.098 7.129 C0.065 8.076 0.033 9.024 0 10 C-0.025 11.125 -0.05 12.25 -0.076 13.409 C-1 17 -1 17 -3.932 19.31 C-5.234 20.008 -6.551 20.68 -7.879 21.328 C-8.592 21.702 -9.304 22.075 -10.039 22.46 C-12.348 23.663 -14.673 24.831 -17 26 C-18.525 26.791 -20.048 27.585 -21.57 28.381 C-25.517 30.439 -29.479 32.467 -33.447 34.484 C-36.872 36.225 -40.292 37.973 -43.713 39.721 C-45.423 40.595 -47.133 41.468 -48.843 42.341 C-59.595 47.831 -70.304 53.402 -81 59 C-81.88 59.461 -82.761 59.922 -83.668 60.396 C-93.86 65.725 -93.86 65.725 -103.988 71.172 C-104.901 71.67 -104.901 71.67 -105.833 72.178 C-107.434 73.055 -109.032 73.937 -110.629 74.82 C-113 76 -113 76 -115 76 C-115.217 73.267 -115.375 70.55 -115.5 67.812 C-115.601 66.659 -115.601 66.659 -115.703 65.482 C-115.785 63.111 -115.698 61.271 -115 59 C-112.73 56.59 -109.969 55.397 -107 54 C-106.018 53.495 -105.035 52.991 -104.023 52.47 C-101.199 51.025 -98.363 49.61 -95.516 48.211 C-92.389 46.674 -89.269 45.122 -86.148 43.57 C-85.53 43.263 -84.912 42.956 -84.276 42.64 C-76.107 38.571 -68.05 34.297 -60 30 C-49.804 24.563 -39.572 19.23 -29.217 14.101 C-24.931 11.973 -20.654 9.829 -16.375 7.688 C-13.953 6.476 -11.531 5.265 -9.108 4.056 C-7.227 3.114 -5.352 2.161 -3.477 1.207 C-1 0 -1 0 0 0 Z " fill="#F9FAFA" transform="translate(405,357)"/>
<path d="" fill="#5A96CE" transform="translate(0,0)"/>
<path d="" fill="#4C8FD1" transform="translate(0,0)"/>
<path d="" fill="#D7AD44" transform="translate(0,0)"/>
</svg>
