<?xml version="1.0" encoding="UTF-8"?>
<!-- Generator: visioncortex VTracer 0.6.4 -->
<svg version="1.1" xmlns="http://www.w3.org/2000/svg" width="512" height="512">
<path d="M0 0 C2 2.5 2 2.5 4 5 C4.717 5.767 5.433 6.534 6.172 7.324 C8.482 10.705 8.885 13.837 9.25 17.812 C9.327 18.505 9.405 19.198 9.484 19.912 C9.671 21.606 9.838 23.303 10 25 C9.34 25 8.68 25 8 25 C1.245 17.355 -0.102 9.966 0 0 Z " fill="#E39C13" transform="translate(128,201)"/>
<path d="M0 0 C3.086 2.433 3.949 3.772 4.828 7.672 C4.986 9.029 5.127 10.389 5.25 11.75 C5.327 12.447 5.405 13.145 5.484 13.863 C5.672 15.574 5.838 17.287 6 19 C5.34 19 4.68 19 4 19 C1.562 15.343 1.328 12.067 0.875 7.812 C0.789 7.063 0.702 6.313 0.613 5.541 C0.402 3.695 0.2 1.848 0 0 Z " fill="#E2E7E8" transform="translate(132,207)"/>
<path d="M0 0 C0.33 0 0.66 0 1 0 C1.33 3.3 1.66 6.6 2 10 C1.34 10 0.68 10 0 10 C-0.66 9.01 -1.32 8.02 -2 7 C-1.67 6.01 -1.34 5.02 -1 4 C-0.658 2.669 -0.322 1.336 0 0 Z " fill="#B3C6D8" transform="translate(136,216)"/>
<path d="" fill="#BB8B1F" transform="translate(0,0)"/>
</svg>
