<?xml version="1.0" encoding="UTF-8"?>
<!-- Generator: visioncortex VTracer 0.6.4 -->
<svg version="1.1" xmlns="http://www.w3.org/2000/svg" width="512" height="512">
<path d="M0 0 C0.338 1.895 0.671 3.791 1 5.688 C1.186 6.743 1.371 7.799 1.562 8.887 C1.951 11.649 2.083 14.217 2 17 C0.35 17.66 -1.3 18.32 -3 19 C-6.062 16.508 -6.578 14.402 -7.188 10.562 C-7.346 9.615 -7.505 8.668 -7.668 7.691 C-8 5 -8 5 -8 1 C-5.108 0.174 -3.113 0 0 0 Z " fill="#252D36" transform="translate(145,171)"/>
<path d="M0 0 C0 0.66 0 1.32 0 2 C-3 4 -3 4 -5.188 3.625 C-5.786 3.419 -6.384 3.213 -7 3 C-7 2.34 -7 1.68 -7 1 C-4.509 0.313 -2.621 0 0 0 Z " fill="#1A1C1E" transform="translate(144,171)"/>
</svg>
