<?xml version="1.0" encoding="UTF-8"?>
<!-- Generator: visioncortex VTracer 0.6.4 -->
<svg version="1.1" xmlns="http://www.w3.org/2000/svg" width="512" height="512">
<path d="M0 0 C3.777 2.854 7.19 5.955 10.617 9.215 C11.247 9.806 11.877 10.397 12.525 11.006 C15.707 14.005 18.837 17.046 21.918 20.148 C24.179 22.423 26.466 24.595 28.93 26.652 C32.338 29.585 35.524 32.703 38.68 35.902 C42.391 39.665 46.198 43.23 50.219 46.66 C53.272 49.373 56.094 52.308 58.961 55.215 C60.974 57.2 63.034 59.063 65.18 60.902 C68.151 63.449 70.931 66.116 73.68 68.902 C76.408 71.668 79.165 74.315 82.117 76.84 C86.209 80.346 89.949 84.157 93.734 87.988 C95.865 90.092 98.034 92.078 100.305 94.027 C113.803 105.632 113.803 105.632 114.555 113.152 C114.414 117.853 112.981 121.63 110.18 125.402 C105.899 128.446 102.367 128.968 97.18 128.402 C94.242 127.027 94.242 127.027 92.18 125.402 C92.18 124.742 92.18 124.082 92.18 123.402 C91.52 123.402 90.86 123.402 90.18 123.402 C88.813 122.017 88.813 122.017 87.195 120.051 C82.704 114.774 77.837 109.916 72.934 105.023 C71.954 104.043 70.974 103.062 69.994 102.081 C67.953 100.038 65.91 97.997 63.865 95.957 C61.265 93.363 58.67 90.765 56.076 88.165 C54.057 86.142 52.036 84.122 50.014 82.103 C48.597 80.687 47.182 79.269 45.767 77.851 C41.253 73.353 36.683 68.996 31.848 64.844 C29.871 63.135 27.994 61.346 26.145 59.5 C25.48 58.837 24.816 58.174 24.131 57.49 C23.466 56.822 22.802 56.153 22.117 55.465 C21.115 54.468 21.115 54.468 20.092 53.451 C16.157 49.509 12.418 45.465 8.823 41.211 C7.06 39.27 5.181 37.593 3.18 35.902 C-0.203 33.032 -3.045 29.966 -5.887 26.566 C-8.157 24.026 -10.634 21.781 -13.133 19.465 C-16.957 15.675 -19.238 12.784 -19.906 7.379 C-19.77 4.256 -18.947 2.666 -16.82 0.402 C-11.74 -2.736 -5.13 -2.906 0 0 Z " fill="#717374" transform="translate(295.8203125,131.59765625)"/>
</svg>
