<?xml version="1.0" encoding="UTF-8"?>
<!-- Generator: visioncortex VTracer 0.6.4 -->
<svg version="1.1" xmlns="http://www.w3.org/2000/svg" width="512" height="512">
<path d="M0 0 C0 4.29 0 8.58 0 13 C1.98 13 3.96 13 6 13 C6.33 10.69 6.66 8.38 7 6 C11.625 8.312 14.573 11.627 17.938 15.453 C19.889 17.291 19.889 17.291 22.347 16.701 C24.82 16.048 27.128 15.276 29.504 14.336 C30.327 14.019 31.15 13.702 31.998 13.375 C33.714 12.706 35.427 12.031 37.139 11.352 C38.371 10.88 38.371 10.88 39.629 10.398 C40.372 10.106 41.115 9.814 41.881 9.513 C44.355 8.914 45.641 9.08 48 10 C50.618 12.618 51.918 14.082 52.25 17.812 C52.168 18.534 52.085 19.256 52 20 C52.592 20.159 53.183 20.317 53.793 20.48 C59.077 22.041 62.451 23.564 66 28 C66.33 28.99 66.66 29.98 67 31 C68.321 31.69 69.656 32.355 71 33 C72.456 34.475 72.456 34.475 73.922 36.289 C78.789 42.037 84.14 47.29 89.472 52.602 C91.264 54.389 93.05 56.18 94.836 57.973 C95.979 59.115 97.122 60.257 98.266 61.398 C98.797 61.932 99.328 62.465 99.876 63.014 C102.162 65.286 104.307 67.205 107 69 C107 69.66 107 70.32 107 71 C108.32 71.66 109.64 72.32 111 73 C111 73.66 111 74.32 111 75 C111.593 75.269 112.186 75.538 112.797 75.815 C115.006 77.003 116.473 78.208 118.252 79.962 C119.168 80.859 119.168 80.859 120.103 81.773 C121.075 82.742 121.075 82.742 122.066 83.73 C122.742 84.399 123.417 85.068 124.113 85.757 C125.538 87.172 126.961 88.59 128.382 90.011 C130.548 92.173 132.729 94.318 134.912 96.463 C136.298 97.843 137.683 99.224 139.066 100.605 C139.716 101.241 140.367 101.877 141.036 102.532 C144.945 106.481 147.044 109.809 149 115 C151.759 117.759 153.467 117.299 157.312 117.312 C159.008 117.338 159.008 117.338 160.738 117.363 C164.279 116.969 166.079 115.959 169 114 C169.66 114 170.32 114 171 114 C172.621 115.836 172.621 115.836 174.438 118.375 C175.034 119.187 175.631 119.999 176.246 120.836 C180.232 128.026 181.47 135.27 181.266 143.402 C181.254 144.291 181.242 145.18 181.231 146.095 C181.042 157.074 180.533 168.045 179.938 179.009 C179.747 182.616 179.583 186.225 179.418 189.834 C179.296 192.141 179.172 194.447 179.047 196.754 C179.002 197.827 178.957 198.899 178.911 200.005 C178.471 207.308 178.471 207.308 176.295 210.505 C173.661 212.221 171.037 213.749 168.23 215.172 C167.102 215.75 165.973 216.328 164.81 216.923 C163.602 217.532 162.395 218.141 161.188 218.75 C159.952 219.38 158.716 220.011 157.481 220.643 C155.65 221.58 153.819 222.516 151.987 223.449 C147.565 225.702 143.178 228.014 138.812 230.375 C132.129 233.957 125.364 237.356 118.571 240.725 C113.107 243.435 107.646 246.153 102.188 248.875 C101.576 249.18 100.965 249.484 100.336 249.798 C92.946 253.485 85.597 257.234 78.312 261.125 C70.787 265.115 63.2 268.977 55.562 272.75 C53.934 273.576 53.934 273.576 52.273 274.418 C51.256 274.915 50.239 275.411 49.191 275.922 C48.286 276.371 47.38 276.821 46.448 277.284 C44 278 44 278 41.832 277.298 C36.777 273.716 33.88 268.333 31 263 C30.34 263 29.68 263 29 263 C28.919 265.417 28.859 267.832 28.812 270.25 C28.787 270.932 28.762 271.614 28.736 272.316 C28.673 276.656 29.211 278.726 32 282 C31.188 284.75 31.188 284.75 30 287 C27.376 284.734 26.519 283.088 25.824 279.711 C25.64 278.861 25.455 278.011 25.265 277.135 C25.074 276.224 24.884 275.313 24.688 274.375 C18.843 248.478 7.905 219.421 -12 201 C-14.285 199.642 -15.468 199 -18.125 199 C-20.353 199.932 -20.353 199.932 -21.25 203.062 C-21.498 204.032 -21.745 205.001 -22 206 C-22.99 206 -23.98 206 -25 206 C-26.666 203.844 -28.118 201.736 -29.562 199.438 C-30.459 198.052 -31.357 196.667 -32.254 195.281 C-32.71 194.568 -33.167 193.856 -33.637 193.121 C-35.725 189.871 -37.859 186.652 -40 183.438 C-40.407 182.825 -40.814 182.213 -41.233 181.583 C-48.515 170.492 -48.515 170.492 -56.68 160.066 C-58.559 157.124 -59.029 153.999 -59.688 150.625 C-63.912 131.15 -72.431 101.745 -89 89 C-91.76 89.05 -91.76 89.05 -94 90 C-94.33 92.64 -94.66 95.28 -95 98 C-95.99 98 -96.98 98 -98 98 C-98.293 95.979 -98.584 93.958 -98.875 91.938 C-99.064 90.663 -99.254 89.388 -99.449 88.074 C-99.831 85.402 -100.104 82.778 -100.332 80.082 C-101.064 72.192 -102.438 67.35 -107.383 61.133 C-109.585 58.228 -110.341 55.561 -111 52 C-111.131 51.341 -111.263 50.683 -111.398 50.004 C-112.176 45.435 -112.078 42.156 -110 38 C-106.861 34.861 -104.411 33.504 -100 33 C-98.57 37.672 -97.596 42.131 -97 47 C-94.03 46.505 -94.03 46.505 -91 46 C-91.107 44.952 -91.214 43.904 -91.324 42.824 C-91.446 41.445 -91.567 40.066 -91.688 38.688 C-91.76 37.997 -91.833 37.307 -91.908 36.596 C-92.328 31.489 -92.328 31.489 -90.958 29.445 C-88.102 27.337 -84.936 26.384 -81.594 25.304 C-80.843 25.054 -80.091 24.803 -79.317 24.544 C-76.833 23.718 -74.344 22.904 -71.855 22.09 C-70.125 21.517 -68.395 20.943 -66.665 20.368 C-62.108 18.857 -57.547 17.356 -52.986 15.858 C-48.358 14.336 -43.733 12.803 -39.107 11.271 C-31.628 8.796 -24.147 6.327 -16.663 3.866 C-13.702 2.891 -10.753 1.91 -7.825 0.84 C-5 0 -5 0 0 0 Z M-63 26 C-65.487 29.731 -65.3 31.576 -65 36 C-63.739 40.897 -61.632 44.122 -58.5 48.062 C-54.167 53.528 -54.167 53.528 -53.094 56.559 C-51.815 59.413 -50.077 60.683 -47.646 62.575 C-44.557 65.249 -42.286 68.6 -39.875 71.875 C-38.732 73.4 -37.587 74.923 -36.441 76.445 C-35.868 77.209 -35.294 77.972 -34.704 78.759 C-32.134 82.139 -29.479 85.447 -26.812 88.75 C-22.786 93.75 -18.822 98.788 -14.92 103.887 C-9.597 110.843 -4.205 117.745 1.177 124.656 C2.982 126.977 4.785 129.301 6.586 131.625 C7.172 132.381 7.759 133.137 8.363 133.916 C9.532 135.422 10.698 136.93 11.863 138.44 C14.672 142.066 17.517 145.644 20.477 149.148 C21.304 150.14 21.304 150.14 22.148 151.152 C23.175 152.377 24.215 153.591 25.27 154.792 C28.551 158.726 29.753 161.998 30.454 167.08 C30.887 169.393 30.887 169.393 34 171 C42.436 170.629 50.43 169.247 57.375 164.312 C60.383 160.032 60.189 155.669 59.625 150.688 C57.87 145.539 53.848 141.572 50.337 137.539 C48.01 134.861 45.728 132.146 43.438 129.438 C42.731 128.606 42.731 128.606 42.011 127.758 C38.695 123.848 35.474 119.873 32.289 115.855 C29.248 112.062 26.156 108.313 23.062 104.562 C22.453 103.823 21.843 103.084 21.215 102.323 C20.021 100.875 18.826 99.428 17.632 97.98 C14.075 93.664 10.538 89.331 7 85 C4.751 82.251 2.501 79.502 0.25 76.754 C-1.255 74.912 -2.755 73.065 -4.25 71.215 C-7.854 66.766 -11.502 62.406 -15.375 58.188 C-19.469 53.701 -23.187 48.99 -26.9 44.19 C-30.431 39.654 -34.164 35.358 -38.059 31.129 C-39.75 29.274 -41.357 27.386 -42.938 25.438 C-45.677 22.199 -46.342 22.057 -50.625 21.688 C-55.34 21.739 -59.156 23.302 -63 26 Z M-64 79 C-63.777 82.315 -63.517 85.626 -63.25 88.938 C-63.188 89.864 -63.126 90.79 -63.062 91.744 C-62.21 101.872 -58.365 109.037 -52.438 117.125 C-51.659 118.205 -51.659 118.205 -50.866 119.307 C-49.789 120.797 -48.709 122.285 -47.625 123.771 C-46.02 125.973 -44.429 128.184 -42.84 130.398 C-41.852 131.766 -40.864 133.133 -39.875 134.5 C-39.414 135.141 -38.953 135.782 -38.478 136.442 C-36.196 139.725 -36.196 139.725 -33 142 C-32.549 121.571 -37.637 111.438 -50.215 95.227 C-53.914 90.459 -57.415 85.634 -60.73 80.59 C-61.359 79.803 -61.359 79.803 -62 79 C-62.66 79 -63.32 79 -64 79 Z M-47 134 C-48.461 139.202 -47.139 141.617 -44.672 146.219 C-41.78 151.03 -38.667 155.742 -35 160 C-34.34 160 -33.68 160 -33 160 C-31.433 156.082 -32.51 152.764 -34 149 C-35.47 146.404 -37.166 144.023 -38.938 141.625 C-39.602 140.683 -39.602 140.683 -40.279 139.723 C-42.945 135.98 -42.945 135.98 -47 134 Z M-18 140 C-19.799 143.599 -18.891 147.807 -18.688 151.75 C-18.652 152.645 -18.617 153.539 -18.58 154.461 C-17.573 174.842 0.919 193.34 12.692 209.233 C13.575 210.426 14.456 211.619 15.335 212.813 C16.595 214.524 17.859 216.231 19.125 217.938 C19.849 218.916 20.574 219.894 21.32 220.902 C21.875 221.595 22.429 222.287 23 223 C23.33 223 23.66 223 24 223 C23.889 219.499 23.759 216 23.625 212.5 C23.594 211.518 23.563 210.535 23.531 209.523 C23.105 198.855 20.89 190.653 14.438 181.938 C13.735 180.987 13.032 180.037 12.309 179.059 C9.47 175.298 6.599 171.565 3.715 167.84 C0.4 163.549 -2.801 159.184 -5.977 154.789 C-8.278 151.616 -10.599 148.459 -12.938 145.312 C-13.689 144.298 -14.441 143.284 -15.215 142.238 C-16.098 141.13 -16.098 141.13 -17 140 C-17.33 140 -17.66 140 -18 140 Z M149.891 155.754 C149.004 156.192 149.004 156.192 148.1 156.639 C146.819 157.273 145.54 157.911 144.263 158.552 C140.789 160.296 137.299 162.005 133.809 163.715 C133.084 164.071 132.359 164.427 131.612 164.793 C123.915 168.558 116.123 172.103 108.312 175.625 C106.939 176.246 105.566 176.868 104.193 177.49 C98.767 179.947 93.339 182.399 87.906 184.84 C84.63 186.313 81.359 187.797 78.091 189.288 C76.303 190.101 74.51 190.901 72.716 191.702 C63.881 195.624 63.881 195.624 58 203 C57.755 207.266 57.815 211.54 57.812 215.812 C57.8 217.002 57.788 218.191 57.775 219.416 C57.773 220.564 57.772 221.712 57.77 222.895 C57.765 223.945 57.761 224.995 57.757 226.077 C58.007 229.088 58.732 231.274 60 234 C66.201 233.51 70.845 231.447 76.375 228.688 C77.336 228.218 78.297 227.749 79.288 227.265 C81.535 226.167 83.78 225.064 86.023 223.958 C91.46 221.278 96.91 218.626 102.359 215.971 C106.824 213.795 111.287 211.617 115.749 209.434 C123.49 205.648 131.233 201.869 139.023 198.184 C140.181 197.635 141.338 197.086 142.53 196.521 C144.602 195.542 146.677 194.569 148.755 193.602 C157.566 189.618 157.566 189.618 163 182 C163.307 179.032 163.307 179.032 163.266 175.773 C163.268 174.577 163.271 173.381 163.273 172.148 C163.262 170.281 163.262 170.281 163.25 168.375 C163.258 167.122 163.265 165.869 163.273 164.578 C163.27 162.788 163.27 162.788 163.266 160.961 C163.262 159.318 163.262 159.318 163.259 157.642 C163.267 154.844 163.267 154.844 161 153 C156.622 152.42 153.768 153.809 149.891 155.754 Z M11 218 C10.077 228.157 15.38 234.468 21.352 242.25 C22.981 244.257 22.981 244.257 26 245 C26.747 236.977 24.8 232.902 20.188 226.438 C19.64 225.62 19.093 224.802 18.529 223.959 C16.422 220.852 16.422 220.852 14 218 C13.01 218 12.02 218 11 218 Z " fill="#005CBD" transform="translate(237,142)"/>
<path d="M0 0 C3.875 1.75 3.875 1.75 5 4 C4.34 4 3.68 4 3 4 C3.476 7.417 3.956 10.834 4.438 14.25 C4.572 15.218 4.707 16.186 4.846 17.184 C4.978 18.118 5.11 19.053 5.246 20.016 C5.367 20.874 5.487 21.733 5.611 22.618 C5.965 24.788 6.431 26.878 7 29 C6.01 28.67 5.02 28.34 4 28 C1.91 18.744 0.965 9.425 0 0 Z " fill="#014AA6" transform="translate(170,217)"/>
<path d="M0 0 C0.66 0.66 1.32 1.32 2 2 C1.34 2 0.68 2 0 2 C0 1.34 0 0.68 0 0 Z " fill="#979592" transform="translate(413,363)"/>
<path d="" fill="#8D8E8F" transform="translate(0,0)"/>
<path d="" fill="#010101" transform="translate(0,0)"/>
<path d="" fill="#15171B" transform="translate(0,0)"/>
</svg>
