<?xml version="1.0" encoding="UTF-8"?>
<!-- Generator: visioncortex VTracer 0.6.4 -->
<svg version="1.1" xmlns="http://www.w3.org/2000/svg" width="512" height="512">
<path d="M0 0 C4.651 1.529 6.626 5.295 9.188 9.188 C9.638 9.835 10.089 10.483 10.553 11.15 C13.382 15.397 14.772 18.774 15 24 C14.67 24.66 14.34 25.32 14 26 C10.732 24.911 10.389 24.521 8.59 21.797 C8.157 21.146 7.725 20.495 7.279 19.824 C6.837 19.14 6.394 18.455 5.938 17.75 C5.491 17.081 5.044 16.412 4.584 15.723 C-1.247 6.85 -1.247 6.85 -0.625 2.188 C-0.419 1.466 -0.213 0.744 0 0 Z " fill="#009AD5" transform="translate(190,276)"/>
</svg>
