<?xml version="1.0" encoding="UTF-8"?>
<!-- Generator: visioncortex VTracer 0.6.4 -->
<svg version="1.1" xmlns="http://www.w3.org/2000/svg" width="512" height="512">
<path d="M0 0 C3.658 2.04 5.669 3.504 8 7 C8.375 10.447 8.192 12.556 6.812 15.75 C4.733 18.332 3.142 19.066 0 20 C-0.66 19.34 -1.32 18.68 -2 18 C-3.423 18.093 -3.423 18.093 -4.875 18.188 C-8 18 -8 18 -10.375 16 C-12.438 12.191 -13.127 9.236 -12 5 C-8.349 0.827 -5.557 -1.042 0 0 Z " fill="#7B7B80" transform="translate(118,166)"/>
<path d="M0 0 C3.538 3.692 3.591 7.094 4 12 C2 10.5 2 10.5 0 8 C-0.358 5.241 -0.187 2.799 0 0 Z " fill="#97999B" transform="translate(106,171)"/>
<path d="M0 0 C1.32 0.66 2.64 1.32 4 2 C3.67 2.99 3.34 3.98 3 5 C1.02 5 -0.96 5 -3 5 C-3 4.01 -3 3.02 -3 2 C-2.01 1.34 -1.02 0.68 0 0 Z " fill="#5E6169" transform="translate(113,179)"/>
</svg>
