<?xml version="1.0" encoding="UTF-8"?>
<!-- Generator: visioncortex VTracer 0.6.4 -->
<svg version="1.1" xmlns="http://www.w3.org/2000/svg" width="512" height="512">
<path d="M0 0 C6.288 5.508 13.808 12.184 14.957 20.848 C15.494 33.848 12.553 50.707 3.668 60.633 C-7.166 70.952 -19.743 74.256 -34.363 74.434 C-46.458 73.882 -61.783 68.294 -70.363 59.434 C-77.194 51.103 -79.716 44.43 -79.551 33.746 C-79.536 32.409 -79.536 32.409 -79.52 31.045 C-79.483 28.508 -79.426 25.971 -79.363 23.434 C-79.345 22.311 -79.327 21.188 -79.309 20.031 C-78.834 10.296 -74.692 2.78 -67.594 -3.812 C-48.344 -18.949 -18.197 -14.687 0 0 Z M-52.078 9.234 C-54.473 13.333 -53.836 17.841 -53.363 22.434 C-51.528 27.939 -46.206 30.661 -41.363 33.434 C-35.029 35.545 -25.934 35.713 -19.637 33.457 C-16.111 31.304 -13.579 28.948 -11.363 25.434 C-10.343 21.088 -10.452 17.097 -12.617 13.145 C-17.533 7.054 -22.971 3.922 -30.734 3.059 C-38.628 2.787 -46.354 3.224 -52.078 9.234 Z " fill="#282E36" transform="translate(396.36328125,228.56640625)"/>
</svg>
