<?xml version="1.0" encoding="UTF-8"?>
<!-- Generator: visioncortex VTracer 0.6.4 -->
<svg version="1.1" xmlns="http://www.w3.org/2000/svg" width="512" height="512">
<path d="M0 0 C0.426 7.126 -1.133 13.096 -3.113 19.914 C-3.602 21.643 -3.602 21.643 -4.1 23.406 C-5.16 27.149 -6.235 30.887 -7.312 34.625 C-8.049 37.197 -8.783 39.77 -9.517 42.343 C-10.622 46.214 -11.729 50.084 -12.842 53.953 C-14.782 60.704 -16.691 67.462 -18.538 74.24 C-19.501 77.773 -20.479 81.303 -21.459 84.832 C-21.9 86.431 -22.333 88.032 -22.759 89.636 C-23.343 91.831 -23.953 94.017 -24.57 96.203 C-24.898 97.406 -25.225 98.609 -25.563 99.849 C-27.429 103.942 -29.336 105.426 -33 108 C-38.799 109.567 -45.17 109.364 -51 108 C-51.66 107.34 -52.32 106.68 -53 106 C-53 104.68 -53 103.36 -53 102 C-52.384 101.421 -51.769 100.842 -51.135 100.245 C-48.256 97.217 -47.691 94.04 -46.844 90.074 C-46.66 89.275 -46.476 88.475 -46.286 87.651 C-45.678 84.999 -45.089 82.344 -44.5 79.688 C-43.636 75.89 -42.76 72.095 -41.883 68.301 C-41.655 67.311 -41.428 66.322 -41.193 65.302 C-39.466 57.852 -37.606 50.443 -35.68 43.043 C-35.404 41.981 -35.128 40.919 -34.844 39.824 C-33.756 35.646 -32.665 31.469 -31.558 27.296 C-30.788 24.395 -30.03 21.491 -29.273 18.586 C-29.043 17.732 -28.812 16.879 -28.574 15.999 C-27.242 10.845 -26.778 6.325 -27 1 C-18.346 -1.769 -8.863 -2.086 0 0 Z " fill="#87898B" transform="translate(458,246)"/>
<path d="M0 0 C2.64 0 5.28 0 8 0 C8 0.33 8 0.66 8 1 C5.36 1 2.72 1 0 1 C0 0.67 0 0.34 0 0 Z " fill="#A39984" transform="translate(435,227)"/>
<path d="" fill="#5C7B9E" transform="translate(0,0)"/>
<path d="" fill="#798BA0" transform="translate(0,0)"/>
<path d="" fill="#A59B85" transform="translate(0,0)"/>
</svg>
