<?xml version="1.0" encoding="UTF-8"?>
<!-- Generator: visioncortex VTracer 0.6.4 -->
<svg version="1.1" xmlns="http://www.w3.org/2000/svg" width="512" height="512">
<path d="M0 0 C0.737 -0.005 1.474 -0.01 2.233 -0.015 C4.67 -0.029 7.106 -0.028 9.543 -0.026 C11.235 -0.03 12.928 -0.034 14.62 -0.039 C18.168 -0.047 21.715 -0.046 25.263 -0.041 C29.813 -0.035 34.362 -0.052 38.912 -0.075 C42.407 -0.09 45.902 -0.091 49.397 -0.088 C51.075 -0.088 52.752 -0.094 54.43 -0.104 C56.774 -0.116 59.117 -0.109 61.461 -0.098 C62.504 -0.109 62.504 -0.109 63.567 -0.121 C66.362 -0.09 68.282 -0.029 70.63 1.564 C74.109 6.974 72.654 13.668 71.543 19.587 C70.982 22.163 70.363 24.714 69.73 27.275 C69.474 28.357 69.217 29.44 68.953 30.556 C66.262 40.181 60.69 47.287 51.98 52.275 C50.576 52.966 49.16 53.637 47.73 54.275 C46.844 54.687 45.957 55.1 45.043 55.525 C32.16 59.703 19.431 57.084 7.48 51.525 C-1.318 46.88 -7.054 40.814 -10.27 31.275 C-11.627 24.108 -11.348 16.841 -11.02 9.587 C-10.981 8.544 -10.981 8.544 -10.941 7.479 C-10.816 5.513 -10.816 5.513 -10.27 2.275 C-6.689 -0.112 -4.133 -0.015 0 0 Z " fill="#191D21" transform="translate(320.26953125,326.725341796875)"/>
</svg>
