<?xml version="1.0" encoding="UTF-8"?>
<!-- Generator: visioncortex VTracer 0.6.4 -->
<svg version="1.1" xmlns="http://www.w3.org/2000/svg" width="512" height="512">
<path d="M0 0 C4.5 3.148 8.266 6.411 9.582 11.914 C9.818 16.151 9.457 19.39 6.852 22.82 C1.629 27.475 -2.976 28.923 -9.898 28.82 C-10.606 28.813 -11.313 28.807 -12.042 28.8 C-19.46 28.571 -23.487 26.644 -28.898 21.82 C-33.038 17.072 -33.528 14.185 -33.398 8.047 C-33.023 5.383 -33.023 5.383 -30.961 2.383 C-21.837 -3.829 -10.102 -5.41 0 0 Z " fill="#8C8E91" transform="translate(376.0234375,234.6171875)"/>
<path d="M0 0 C0.66 0.33 1.32 0.66 2 1 C-0.31 3.31 -2.62 5.62 -5 8 C-5 5 -5 5 -2.5 2.312 C-1.675 1.549 -0.85 0.786 0 0 Z " fill="#717377" transform="translate(349,234)"/>
</svg>
