<?xml version="1.0" encoding="UTF-8"?>
<!-- Generator: visioncortex VTracer 0.6.4 -->
<svg version="1.1" xmlns="http://www.w3.org/2000/svg" width="512" height="512">
<path d="M0 0 C1.173 0.003 2.345 0.005 3.554 0.008 C4.82 0.016 6.086 0.024 7.391 0.032 C8.735 0.037 10.079 0.041 11.423 0.045 C14.234 0.054 17.045 0.067 19.856 0.081 C23.857 0.101 27.858 0.114 31.859 0.124 C47.339 0.166 62.818 0.246 78.297 0.337 C86.037 0.383 93.776 0.422 101.516 0.448 C108.356 0.471 115.197 0.504 122.037 0.55 C125.633 0.574 129.23 0.593 132.826 0.599 C136.807 0.606 140.788 0.637 144.768 0.669 C146.536 0.667 146.536 0.667 148.34 0.665 C149.964 0.684 149.964 0.684 151.62 0.703 C152.557 0.708 153.495 0.712 154.46 0.717 C157.604 1.181 159.497 2.266 162.069 4.102 C163.804 6.746 164.069 7.886 164.069 11.102 C74.474 11.597 74.474 11.597 -16.931 12.102 C-15.931 5.102 -15.931 5.102 -13.681 2.727 C-9.234 0.099 -5.09 -0.022 0 0 Z " fill="#727477" transform="translate(229.93113708496094,139.8983612060547)"/>
</svg>
