<?xml version="1.0" encoding="UTF-8"?>
<!-- Generator: visioncortex VTracer 0.6.4 -->
<svg version="1.1" xmlns="http://www.w3.org/2000/svg" width="512" height="512">
<path d="M0 0 C1.736 -0.018 1.736 -0.018 3.508 -0.037 C5.163 -0.04 5.163 -0.04 6.852 -0.043 C7.863 -0.047 8.874 -0.051 9.917 -0.055 C12.375 0.188 12.375 0.188 14.375 2.188 C14.625 5.188 14.625 5.188 14.375 8.188 C12.375 10.188 12.375 10.188 9.502 10.43 C7.705 10.424 7.705 10.424 5.871 10.418 C4.574 10.416 3.276 10.414 1.939 10.412 C1.263 10.406 0.586 10.4 -0.111 10.393 C-2.183 10.375 -4.254 10.373 -6.326 10.373 C-16.485 10.328 -16.485 10.328 -17.625 9.188 C-17.86 3.658 -17.86 3.658 -16.625 1.188 C-11.422 -0.692 -5.446 0.003 0 0 Z " fill="#00A5D9" transform="translate(272.625,191.8125)"/>
</svg>
