<?xml version="1.0" encoding="UTF-8"?>
<!-- Generator: visioncortex VTracer 0.6.4 -->
<svg version="1.1" xmlns="http://www.w3.org/2000/svg" width="512" height="512">
<path d="M0 0 C0.727 -0.006 1.453 -0.012 2.202 -0.018 C4.614 -0.035 7.025 -0.03 9.437 -0.026 C11.176 -0.033 12.914 -0.041 14.653 -0.051 C19.36 -0.073 24.066 -0.076 28.773 -0.074 C32.709 -0.074 36.645 -0.083 40.582 -0.091 C49.872 -0.11 59.162 -0.113 68.452 -0.107 C78.02 -0.1 87.588 -0.123 97.156 -0.16 C105.385 -0.191 113.615 -0.202 121.844 -0.198 C126.753 -0.196 131.661 -0.201 136.57 -0.226 C141.188 -0.248 145.805 -0.246 150.424 -0.226 C152.112 -0.223 153.802 -0.228 155.49 -0.242 C172.941 -0.38 172.941 -0.38 180.348 5.394 C182.763 8.218 184.565 11.14 186.348 14.394 C186.837 15.228 187.325 16.061 187.829 16.919 C189.409 19.623 190.945 22.348 192.473 25.082 C193.025 26.067 193.578 27.052 194.147 28.067 C195.886 31.174 197.617 34.284 199.348 37.394 C199.931 38.437 200.514 39.48 201.115 40.555 C202.804 43.581 204.484 46.611 206.16 49.644 C206.682 50.579 207.203 51.513 207.741 52.475 C208.216 53.341 208.69 54.206 209.18 55.098 C209.6 55.857 210.02 56.617 210.452 57.399 C211.348 59.394 211.348 59.394 211.348 62.394 C204.088 62.394 196.828 62.394 189.348 62.394 C190.008 64.622 190.668 66.849 191.348 69.144 C192.536 73.154 193.348 76.198 193.348 80.394 C196.318 80.394 199.288 80.394 202.348 80.394 C203.668 85.014 204.988 89.634 206.348 94.394 C205.348 95.394 205.348 95.394 201.598 95.894 C198.953 95.871 197.781 95.777 195.777 94.008 C193.864 91.366 192.509 88.818 191.348 85.769 C190.006 82.583 187.805 80.79 185.348 78.394 C184.997 77.673 184.646 76.951 184.285 76.207 C183.045 73.809 181.762 73.568 179.348 72.394 C177.738 71.319 176.134 70.235 174.535 69.144 C156.871 57.863 136.812 54.868 116.279 58.846 C105.531 61.257 95.615 66.021 89.348 75.394 C88.818 76.17 88.288 76.946 87.742 77.746 C86.153 80.764 85.679 83.274 85.223 86.644 C84.436 92.307 84.436 92.307 83.348 93.394 C80.553 93.495 77.783 93.531 74.988 93.524 C73.674 93.526 73.674 93.526 72.333 93.529 C69.421 93.534 66.509 93.531 63.598 93.527 C61.584 93.528 59.57 93.529 57.556 93.53 C53.329 93.532 49.102 93.529 44.875 93.525 C39.444 93.519 34.013 93.522 28.582 93.528 C24.421 93.532 20.261 93.531 16.1 93.528 C14.097 93.528 12.094 93.528 10.09 93.531 C7.296 93.533 4.502 93.529 1.707 93.524 C0.452 93.527 0.452 93.527 -0.827 93.53 C-6.538 93.509 -6.538 93.509 -7.652 92.394 C-8.151 89.395 -8.553 86.388 -8.957 83.375 C-9.679 80.282 -10.667 78.808 -12.652 76.394 C-12.652 75.734 -12.652 75.074 -12.652 74.394 C-14.137 73.899 -14.137 73.899 -15.652 73.394 C-16.832 71.92 -18.011 70.444 -19.18 68.961 C-21.623 66.362 -24.492 65.006 -27.652 63.394 C-27.652 62.404 -27.652 61.414 -27.652 60.394 C-28.436 60.229 -29.22 60.064 -30.027 59.894 C-32.652 58.394 -32.652 58.394 -33.965 54.894 C-35.897 44.422 -33.737 36.479 -29.902 26.644 C-29.459 25.452 -29.015 24.26 -28.559 23.031 C-22.278 6.497 -22.278 6.497 -13.903 2.575 C-9.155 0.696 -5.165 0.015 0 0 Z M-2.652 14.394 C-3.785 21.066 -3.754 27.641 -3.652 34.394 C-0.229 36.469 2.46 36.657 6.43 36.685 C8.272 36.704 8.272 36.704 10.151 36.724 C11.487 36.727 12.824 36.729 14.16 36.73 C15.535 36.737 16.91 36.744 18.284 36.751 C21.163 36.762 24.041 36.766 26.919 36.765 C30.605 36.765 34.29 36.792 37.975 36.827 C40.813 36.849 43.651 36.853 46.489 36.852 C47.847 36.854 49.206 36.863 50.565 36.878 C52.465 36.898 54.365 36.89 56.266 36.88 C57.346 36.883 58.427 36.886 59.54 36.889 C63.048 36.271 64.226 35.213 66.348 32.394 C66.907 28.801 66.907 28.801 66.723 24.894 C66.703 22.93 66.703 22.93 66.684 20.926 C66.321 16.824 66.321 16.824 64.348 13.394 C60.797 10.895 58.368 10.018 54.042 10.006 C53.007 9.997 51.972 9.987 50.906 9.978 C49.243 9.987 49.243 9.987 47.547 9.996 C45.821 9.992 45.821 9.992 44.061 9.987 C41.629 9.985 39.198 9.991 36.766 10.003 C33.059 10.019 29.353 10.003 25.647 9.984 C23.28 9.986 20.913 9.99 18.547 9.996 C17.445 9.99 16.342 9.984 15.206 9.978 C5.593 9.971 5.593 9.971 -2.652 14.394 Z M92.348 12.394 C92.435 15.104 92.542 17.811 92.66 20.519 C92.683 21.28 92.705 22.041 92.729 22.824 C92.764 23.572 92.799 24.319 92.836 25.09 C92.862 25.771 92.888 26.451 92.915 27.153 C93.389 30.152 93.389 30.152 96.348 35.394 C121.428 35.394 146.508 35.394 172.348 35.394 C173.588 30.435 172.182 27.832 170.16 23.394 C169.855 22.683 169.55 21.971 169.236 21.238 C167.469 17.267 165.811 14.171 162.348 11.394 C159.156 10.331 156.751 10.218 153.395 10.141 C152.17 10.112 150.945 10.082 149.683 10.052 C148.345 10.025 147.006 9.998 145.668 9.973 C144.655 9.952 144.655 9.952 143.622 9.931 C140.051 9.857 136.479 9.79 132.907 9.727 C129.222 9.661 125.538 9.576 121.854 9.487 C119.017 9.422 116.179 9.371 113.341 9.323 C111.983 9.298 110.625 9.267 109.267 9.232 C107.365 9.183 105.462 9.156 103.559 9.13 C102.478 9.108 101.397 9.087 100.283 9.065 C96.947 9.439 95.07 10.482 92.348 12.394 Z M32.348 42.394 C30.981 45.127 31.219 47.376 31.348 50.394 C33.685 52.732 39.536 51.566 42.647 51.58 C43.665 51.58 43.665 51.58 44.703 51.58 C46.773 51.582 48.842 51.6 50.912 51.619 C52.21 51.621 53.507 51.623 54.844 51.625 C56.641 51.631 56.641 51.631 58.474 51.637 C61.478 51.695 61.478 51.695 63.348 49.394 C63.681 46.394 63.681 46.394 63.348 43.394 C61.526 41.15 61.526 41.15 58.889 41.151 C57.878 41.156 56.866 41.16 55.824 41.164 C54.169 41.167 54.169 41.167 52.48 41.17 C51.323 41.182 50.165 41.194 48.973 41.207 C47.823 41.208 46.673 41.208 45.488 41.209 C38.815 41.051 38.815 41.051 32.348 42.394 Z M154.348 42.394 C153.479 45.983 153.479 45.983 153.91 49.582 C156.01 52.23 158.109 52.526 161.348 53.394 C164.837 53.671 164.837 53.671 168.41 53.582 C169.597 53.575 170.785 53.569 172.008 53.562 C174.909 53.416 177.528 53.061 180.348 52.394 C180.798 47.798 180.798 47.798 179.169 43.682 C176.689 41.929 175.042 42.051 172.023 42.101 C170.995 42.111 169.967 42.121 168.908 42.131 C167.836 42.156 166.765 42.181 165.66 42.207 C164.577 42.22 163.493 42.234 162.377 42.248 C159.7 42.283 157.024 42.333 154.348 42.394 Z " fill="#0059B8" transform="translate(223.65231323242188,150.6055908203125)"/>
<path d="M0 0 C1.65 0 3.3 0 5 0 C5 0.33 5 0.66 5 1 C3.35 1 1.7 1 0 1 C0 0.67 0 0.34 0 0 Z " fill="#040D21" transform="translate(157,207)"/>
<path d="M0 0 C4 1 4 1 4 1 Z " fill="#002961" transform="translate(95,245)"/>
<path d="M0 0 C4 1 4 1 4 1 Z " fill="#021D44" transform="translate(173,207)"/>
<path d="" fill="#2870BE" transform="translate(0,0)"/>
<path d="" fill="#095DBC" transform="translate(0,0)"/>
<path d="M0 0 C3 1 3 1 3 1 Z " fill="#00438B" transform="translate(193,212)"/>
<path d="M0 0 C3 1 3 1 3 1 Z " fill="#002754" transform="translate(180,208)"/>
<path d="M0 0 C3 1 3 1 3 1 Z " fill="#011B3C" transform="translate(150,208)"/>
<path d="" fill="#1763B6" transform="translate(0,0)"/>
<path d="" fill="#2979C5" transform="translate(0,0)"/>
<path d="M0 0 C2 1 2 1 2 1 Z " fill="#004187" transform="translate(191,211)"/>
<path d="M0 0 C2 1 2 1 2 1 Z " fill="#002F65" transform="translate(139,211)"/>
<path d="M0 0 C2 1 2 1 2 1 Z " fill="#004A98" transform="translate(189,210)"/>
<path d="M0 0 C2 1 2 1 2 1 Z " fill="#00295D" transform="translate(142,210)"/>
<path d="M0 0 C2 1 2 1 2 1 Z " fill="#013067" transform="translate(185,209)"/>
<path d="M0 0 C2 1 2 1 2 1 Z " fill="#002655" transform="translate(145,209)"/>
<path d="" fill="#004C9A" transform="translate(0,0)"/>
<path d="" fill="#012D5F" transform="translate(0,0)"/>
<path d="" fill="#011A37" transform="translate(0,0)"/>
<path d="" fill="#02264E" transform="translate(0,0)"/>
<path d="" fill="#022C68" transform="translate(0,0)"/>
<path d="" fill="#01346F" transform="translate(0,0)"/>
<path d="" fill="#2E74C2" transform="translate(0,0)"/>
<path d="" fill="#003C83" transform="translate(0,0)"/>
<path d="" fill="#022F63" transform="translate(0,0)"/>
<path d="" fill="#015ABE" transform="translate(0,0)"/>
<path d="" fill="#004090" transform="translate(0,0)"/>
<path d="" fill="#01295B" transform="translate(0,0)"/>
<path d="" fill="#002A63" transform="translate(0,0)"/>
<path d="" fill="#013D85" transform="translate(0,0)"/>
<path d="" fill="#013470" transform="translate(0,0)"/>
</svg>
