<?xml version="1.0" encoding="UTF-8"?>
<!-- Generator: visioncortex VTracer 0.6.4 -->
<svg version="1.1" xmlns="http://www.w3.org/2000/svg" width="512" height="512">
<path d="M0 0 C1.3 1.814 1.3 1.814 0.993 4.365 C0.6 5.953 0.6 5.953 0.199 7.572 C-1.576 18.327 1.438 28.238 3.925 38.689 C4.426 40.878 4.925 43.067 5.422 45.257 C8.046 56.705 10.851 68.104 13.746 79.486 C14.024 80.582 14.302 81.678 14.588 82.808 C15.926 88.072 17.284 93.33 18.678 98.579 C19.172 100.483 19.666 102.387 20.16 104.291 C20.392 105.141 20.625 105.991 20.865 106.866 C22.244 112.248 22.469 116.354 21.3 121.814 C17.832 125.338 13.743 125.227 9.044 125.273 C7.717 125.263 7.717 125.263 6.363 125.252 C5.482 125.272 4.601 125.292 3.693 125.312 C-1.866 125.308 -5.527 124.847 -9.7 120.814 C-12.812 113.565 -14.777 105.909 -16.938 98.334 C-17.345 96.916 -17.752 95.498 -18.16 94.08 C-19.231 90.352 -20.298 86.623 -21.364 82.894 C-22.638 78.439 -23.917 73.986 -25.196 69.533 C-26.229 65.934 -27.259 62.335 -28.284 58.734 C-30.031 52.601 -31.79 46.473 -33.643 40.37 C-33.928 39.418 -34.213 38.466 -34.506 37.485 C-35.013 35.799 -35.529 34.116 -36.06 32.438 C-39.143 22.091 -37.836 12.717 -33.7 2.814 C-31.731 -0.392 -29.726 -1.868 -26.075 -2.998 C-5.904 -4.119 -5.904 -4.119 0 0 Z " fill="#8A8B8E" transform="translate(91.69970703125,230.185791015625)"/>
</svg>
