<?xml version="1.0" encoding="UTF-8"?>
<!-- Generator: visioncortex VTracer 0.6.4 -->
<svg version="1.1" xmlns="http://www.w3.org/2000/svg" width="512" height="512">
<path d="M0 0 C1.547 0.65 1.547 0.65 3.125 1.312 C7.764 4.035 12.062 7.334 16 11 C16 11.66 16 12.32 16 13 C16.66 13 17.32 13 18 13 C18.99 15.475 18.99 15.475 20 18 C20.66 18 21.32 18 22 18 C23.219 19.355 23.219 19.355 24.5 21.188 C24.923 21.779 25.346 22.371 25.781 22.98 C29.289 28.793 29.335 33.938 29.371 40.582 C29.38 41.628 29.389 42.674 29.398 43.751 C29.413 45.974 29.422 48.198 29.426 50.421 C29.437 53.735 29.486 57.048 29.537 60.361 C29.645 74.904 29.666 92.668 23 106 C22.822 107.413 22.681 108.831 22.562 110.25 C22.176 114.088 21.27 117.35 20 121 C19.835 122.217 19.67 123.434 19.5 124.688 C19 128 19 128 17 131 C14.066 131.328 14.066 131.328 10.562 131.25 C9.409 131.235 8.255 131.219 7.066 131.203 C4 131 4 131 1 130 C0.67 124.39 0.34 118.78 0 113 C-2.265 113.008 -2.265 113.008 -4.576 113.016 C-10.302 113.034 -16.027 113.046 -21.753 113.055 C-24.208 113.06 -26.663 113.067 -29.118 113.075 C-45.441 113.132 -61.698 112.845 -78 112 C-78 109 -78 109 -77 107 C-76.518 99.184 -77.178 91.307 -77.646 83.502 C-77.974 77.657 -78.011 71.853 -77.938 66 C-77.882 60.082 -78.156 54.611 -79.422 48.805 C-84.866 22.392 -84.866 22.392 -79 12 C-72.125 1.916 -60.668 -4.054 -48.938 -6.688 C-31.446 -9.715 -16.079 -7.446 0 0 Z M-66.242 13.773 C-71.983 21.045 -73.832 27.873 -74 37 C-74.03 37.757 -74.059 38.515 -74.09 39.295 C-74.19 41.905 -74.256 44.514 -74.312 47.125 C-74.343 47.96 -74.373 48.795 -74.404 49.656 C-74.482 58.408 -71.018 66.596 -65 73 C-52.778 83.592 -37.547 88.462 -21.562 87.938 C-8.737 86.795 1.482 81.871 10.312 72.562 C14.326 66.468 16.751 60.376 18.25 53.25 C18.416 52.465 18.582 51.68 18.754 50.871 C20.635 41.47 21.76 33.486 16.484 25.035 C7.599 12.853 -5.451 4.1 -20.438 1.375 C-37.35 -0.41 -54.095 0.643 -66.242 13.773 Z " fill="#000000" transform="translate(391,215)"/>
<path d="M0 0 C2 1 2 1 2 1 Z " fill="#040506" transform="translate(311,327)"/>
</svg>
