<?xml version="1.0" encoding="UTF-8"?>
<!-- Generator: visioncortex VTracer 0.6.4 -->
<svg version="1.1" xmlns="http://www.w3.org/2000/svg" width="512" height="512">
<path d="M0 0 C3.96 0 7.92 0 12 0 C12.723 2.622 13.428 5.246 14.125 7.875 C14.436 8.995 14.436 8.995 14.754 10.137 C15.259 12.07 15.639 14.035 16 16 C14 18 14 18 11.617 18.195 C10.712 18.172 9.807 18.149 8.875 18.125 C7.51 18.098 7.51 18.098 6.117 18.07 C5.419 18.047 4.72 18.024 4 18 C3.329 15.564 2.663 13.126 2 10.688 C1.714 9.652 1.714 9.652 1.422 8.596 C0.623 5.642 0 3.074 0 0 Z " fill="#F8F7F6" transform="translate(413,213)"/>
</svg>
