<?xml version="1.0" encoding="UTF-8"?>
<!-- Generator: visioncortex VTracer 0.6.4 -->
<svg version="1.1" xmlns="http://www.w3.org/2000/svg" width="512" height="512">
<path d="M0 0 C3.564 0.178 5.71 0.363 8.75 2.188 C10.694 5.613 10.821 8.322 10.75 12.188 C8.604 12.214 6.458 12.234 4.312 12.25 C3.118 12.262 1.923 12.273 0.691 12.285 C-2.25 12.188 -2.25 12.188 -3.25 11.188 C-3.509 9.528 -3.709 7.859 -3.875 6.188 C-3.97 5.28 -4.066 4.373 -4.164 3.438 C-4.192 2.695 -4.221 1.953 -4.25 1.188 C-3.25 0.188 -3.25 0.188 0 0 Z " fill="#E89A08" transform="translate(334.25,123.8125)"/>
</svg>
