<?xml version="1.0" encoding="UTF-8"?>
<!-- Generator: visioncortex VTracer 0.6.4 -->
<svg version="1.1" xmlns="http://www.w3.org/2000/svg" width="512" height="512">
<path d="M0 0 C3.204 0.075 6.408 0.154 9.612 0.256 C11.681 0.319 13.751 0.36 15.821 0.401 C17.118 0.441 18.415 0.481 19.752 0.522 C21.549 0.571 21.549 0.571 23.383 0.621 C24.331 0.769 25.279 0.917 26.256 1.069 C28.377 4.251 28.484 4.72 28.233 8.288 C28.181 9.128 28.129 9.968 28.076 10.833 C28.012 11.736 27.947 12.639 27.881 13.569 C27.768 15.486 27.659 17.402 27.553 19.319 C27.499 20.286 27.446 21.253 27.391 22.249 C26.708 36.529 27.462 50.81 28.256 65.069 C28.916 65.069 29.576 65.069 30.256 65.069 C31.514 68.843 31.44 72.388 31.444 76.319 C31.456 77.058 31.468 77.797 31.481 78.558 C31.494 83.439 30.865 87.452 29.256 92.069 C26.633 94.692 19.514 93.344 15.955 93.365 C13.896 93.382 11.838 93.426 9.78 93.47 C8.485 93.478 7.191 93.486 5.858 93.495 C4.068 93.517 4.068 93.517 2.243 93.539 C-0.744 93.069 -0.744 93.069 -2.587 91.266 C-12.966 71.565 -8.486 38.611 -6.869 17.257 C-6.791 16.207 -6.712 15.157 -6.632 14.075 C-6.547 13.098 -6.463 12.12 -6.377 11.112 C-6.303 10.257 -6.23 9.401 -6.155 8.519 C-4.747 0.12 -4.747 0.12 0 0 Z " fill="#242A32" transform="translate(171.743896484375,192.9306640625)"/>
<path d="M0 0 C0.33 0 0.66 0 1 0 C0.995 0.884 0.99 1.769 0.984 2.68 C0.868 25.257 0.868 25.257 1.642 47.817 C2.022 54.887 2.109 61.919 2 69 C1.34 69 0.68 69 0 69 C-0.966 61.725 -1.146 54.599 -1.133 47.266 C-1.134 45.471 -1.134 45.471 -1.136 43.641 C-1.136 41.126 -1.135 38.612 -1.13 36.097 C-1.125 32.248 -1.13 28.4 -1.137 24.551 C-1.136 22.102 -1.135 19.652 -1.133 17.203 C-1.135 16.054 -1.137 14.905 -1.139 13.721 C-1.136 12.65 -1.133 11.578 -1.129 10.474 C-1.129 9.535 -1.128 8.596 -1.127 7.629 C-1 4.993 -0.586 2.569 0 0 Z " fill="#121419" transform="translate(198,204)"/>
</svg>
