<?xml version="1.0" encoding="UTF-8"?>
<!-- Generator: visioncortex VTracer 0.6.4 -->
<svg version="1.1" xmlns="http://www.w3.org/2000/svg" width="512" height="512">
<path d="M0 0 C9.24 0 18.48 0 28 0 C28 8 28 8 27 12 C17.76 12 8.52 12 -1 12 C-0.67 8.04 -0.34 4.08 0 0 Z " fill="#F3F3F2" transform="translate(182,124)"/>
<path d="M0 0 C1.32 0 2.64 0 4 0 C4.073 4.398 4.074 7.704 3 12 C-6.24 12 -15.48 12 -25 12 C-25 11.67 -25 11.34 -25 11 C-16.09 11 -7.18 11 2 11 C2 8.03 2 5.06 2 2 C1.34 2 0.68 2 0 2 C0 1.34 0 0.68 0 0 Z " fill="#CECFCF" transform="translate(206,124)"/>
<path d="M0 0 C1.32 0 2.64 0 4 0 C4.25 7.5 4.25 7.5 2 12 C2 8.7 2 5.4 2 2 C1.34 2 0.68 2 0 2 C0 1.34 0 0.68 0 0 Z " fill="#E7C961" transform="translate(206,124)"/>
</svg>
