<?xml version="1.0" encoding="UTF-8"?>
<!-- Generator: visioncortex VTracer 0.6.4 -->
<svg version="1.1" xmlns="http://www.w3.org/2000/svg" width="512" height="512">
<path d="M0 0 C0.987 -0.001 1.975 -0.003 2.992 -0.004 C4.539 0.002 4.539 0.002 6.117 0.008 C7.125 0.004 8.133 0 9.172 -0.004 C27.326 0.02 27.326 0.02 32.992 5.133 C35.319 9.786 35.168 14.048 34.992 19.133 C34.488 18.979 33.984 18.826 33.465 18.668 C30.139 17.948 26.818 17.76 23.43 17.57 C22.332 17.507 22.332 17.507 21.213 17.442 C12.476 16.984 3.738 17.046 -5.008 17.133 C-6.391 13.299 -7.304 9.819 -7.633 5.758 C-7.708 4.884 -7.782 4.01 -7.859 3.109 C-7.908 2.457 -7.957 1.805 -8.008 1.133 C-5.045 0.145 -3.09 0.004 0 0 Z " fill="#0157B8" transform="translate(308.0078125,106.8671875)"/>
</svg>
