<?xml version="1.0" encoding="UTF-8"?>
<!-- Generator: visioncortex VTracer 0.6.4 -->
<svg version="1.1" xmlns="http://www.w3.org/2000/svg" width="512" height="512">
<path d="M0 0 C10.226 -0.103 20.447 -0.096 30.673 0.002 C32.83 0.022 34.986 0.04 37.143 0.058 C46.274 0.135 55.404 0.233 64.534 0.342 C67.74 0.379 70.946 0.413 74.151 0.444 C77.952 0.48 81.753 0.526 85.554 0.58 C86.978 0.599 88.403 0.614 89.828 0.626 C91.799 0.642 93.769 0.673 95.74 0.703 C96.853 0.717 97.967 0.73 99.114 0.744 C101.859 1.022 101.859 1.022 104.859 3.022 C105.546 6.147 105.546 6.147 105.859 9.022 C105.174 9.017 104.488 9.012 103.782 9.006 C100.641 8.985 97.5 8.973 94.359 8.96 C92.742 8.947 92.742 8.947 91.093 8.934 C85.245 8.917 79.64 9.131 73.859 10.022 C73.965 11.109 73.965 11.109 74.073 12.218 C74.863 21.177 75.013 30.065 74.989 39.054 C74.984 41.48 74.989 43.907 74.995 46.333 C74.995 47.895 74.993 49.457 74.991 51.018 C74.993 51.734 74.996 52.45 74.998 53.187 C74.979 57.227 74.806 61.086 73.859 65.022 C72.869 65.517 72.869 65.517 71.859 66.022 C71.834 70.006 71.816 73.989 71.804 77.973 C71.796 79.985 71.784 81.998 71.771 84.011 C71.768 85.293 71.764 86.576 71.761 87.897 C71.756 89.07 71.751 90.243 71.745 91.452 C71.868 95.325 72.378 99.178 72.859 103.022 C80.119 103.022 87.379 103.022 94.859 103.022 C94.176 113.169 93.298 123.278 92.296 133.397 C92.156 134.827 92.016 136.257 91.876 137.686 C91.539 141.132 91.199 144.577 90.859 148.022 C82.609 148.022 74.359 148.022 65.859 148.022 C65.87 150.894 65.882 153.766 65.894 156.725 C65.902 159.582 65.908 162.439 65.914 165.295 C65.919 167.244 65.925 169.193 65.934 171.142 C65.979 181.483 65.917 191.8 65.417 202.132 C65.378 202.956 65.339 203.78 65.299 204.629 C65.089 208.515 64.768 212.222 63.859 216.022 C63.529 216.022 63.199 216.022 62.859 216.022 C62.859 214.372 62.859 212.722 62.859 211.022 C18.804 211.517 18.804 211.517 -26.141 212.022 C-26.141 207.072 -26.141 202.122 -26.141 197.022 C-26.189 193.71 -26.245 190.4 -26.325 187.089 C-26.345 186.241 -26.365 185.393 -26.385 184.52 C-26.427 182.76 -26.47 181 -26.514 179.24 C-26.579 176.564 -26.639 173.888 -26.698 171.212 C-26.74 169.483 -26.782 167.755 -26.825 166.026 C-26.842 165.24 -26.858 164.453 -26.876 163.643 C-26.575 155.257 -26.575 155.257 -29.141 148.022 C-31.068 147.935 -32.998 147.915 -34.927 147.925 C-36.096 147.928 -37.266 147.931 -38.471 147.934 C-39.703 147.943 -40.935 147.951 -42.204 147.96 C-43.439 147.964 -44.675 147.969 -45.948 147.973 C-49.012 147.985 -52.077 148.002 -55.141 148.022 C-55.716 142.739 -56.285 137.456 -56.85 132.171 C-57.043 130.376 -57.237 128.581 -57.432 126.786 C-57.714 124.197 -57.991 121.608 -58.266 119.018 C-58.398 117.826 -58.398 117.826 -58.531 116.609 C-58.612 115.849 -58.692 115.089 -58.774 114.305 C-58.845 113.646 -58.916 112.986 -58.99 112.307 C-59.195 109.218 -59.141 106.117 -59.141 103.022 C-48.746 102.527 -48.746 102.527 -38.141 102.022 C-36.318 95.886 -36.318 95.886 -35.946 89.964 C-35.956 88.644 -35.956 88.644 -35.966 87.298 C-35.982 86.402 -35.999 85.507 -36.016 84.585 C-36.025 83.662 -36.034 82.74 -36.044 81.79 C-36.067 79.534 -36.1 77.278 -36.141 75.022 C-36.801 75.022 -37.461 75.022 -38.141 75.022 C-39.296 71.229 -39.485 67.394 -39.704 63.46 C-39.746 62.713 -39.787 61.966 -39.83 61.197 C-40.519 47.674 -40.239 34.21 -39.409 20.699 C-39.337 19.434 -39.337 19.434 -39.262 18.143 C-39.215 17.395 -39.168 16.647 -39.12 15.876 C-39.008 13.926 -39.008 13.926 -40.141 12.022 C-40.979 12.008 -41.817 11.993 -42.68 11.978 C-45.785 11.917 -48.89 11.843 -51.994 11.76 C-54 11.71 -56.006 11.676 -58.012 11.641 C-59.898 11.588 -59.898 11.588 -61.821 11.534 C-62.984 11.508 -64.146 11.482 -65.344 11.455 C-66.729 11.241 -66.729 11.241 -68.141 11.022 C-70.435 7.581 -70.404 6.054 -70.141 2.022 C-68.374 0.255 -65.83 0.851 -63.433 0.817 C-62.203 0.797 -60.973 0.777 -59.706 0.757 C-58.344 0.74 -56.981 0.723 -55.618 0.706 C-54.214 0.685 -52.81 0.664 -51.406 0.643 C-47.641 0.587 -43.876 0.537 -40.111 0.49 C-37.764 0.46 -35.416 0.428 -33.068 0.397 C-22.046 0.248 -11.023 0.115 0 0 Z " fill="#000000" transform="translate(238.141357421875,182.97773361206055)"/>
<path d="M0 0 C1.562 1.5 1.562 1.5 3 4 C2.968 6.774 2.504 9.253 2 12 C1.67 12 1.34 12 1 12 C0.018 7.947 -0.082 4.161 0 0 Z " fill="#131518" transform="translate(300,387)"/>
<path d="" fill="#868889" transform="translate(0,0)"/>
<path d="" fill="#33383C" transform="translate(0,0)"/>
<path d="" fill="#45494D" transform="translate(0,0)"/>
<path d="" fill="#101317" transform="translate(0,0)"/>
</svg>
