<?xml version="1.0" encoding="UTF-8"?>
<!-- Generator: visioncortex VTracer 0.6.4 -->
<svg version="1.1" xmlns="http://www.w3.org/2000/svg" width="512" height="512">
<path d="M0 0 C0.961 2.882 1.106 4.699 1.062 7.688 C1.053 8.496 1.044 9.304 1.035 10.137 C1.024 10.752 1.012 11.366 1 12 C-3.479 12.029 -7.958 12.047 -12.438 12.062 C-13.717 12.071 -14.996 12.079 -16.314 12.088 C-18.137 12.093 -18.137 12.093 -19.996 12.098 C-21.122 12.103 -22.248 12.108 -23.408 12.114 C-26 12 -26 12 -27 11 C-27.259 9.34 -27.459 7.671 -27.625 6 C-27.72 5.093 -27.816 4.185 -27.914 3.25 C-27.942 2.507 -27.971 1.765 -28 1 C-22.996 -4.004 -6.549 -0.459 0 0 Z " fill="#F6F7F6" transform="translate(330,124)"/>
<path d="M0 0 C0.99 0 1.98 0 3 0 C3 3.63 3 7.26 3 11 C11.25 11 19.5 11 28 11 C28 11.33 28 11.66 28 12 C23.521 12.029 19.042 12.047 14.562 12.062 C13.283 12.071 12.004 12.079 10.686 12.088 C8.863 12.093 8.863 12.093 7.004 12.098 C5.878 12.103 4.752 12.108 3.592 12.114 C1 12 1 12 0 11 C-0.259 9.34 -0.459 7.671 -0.625 6 C-0.72 5.093 -0.816 4.185 -0.914 3.25 C-0.942 2.507 -0.971 1.765 -1 1 C-0.67 0.67 -0.34 0.34 0 0 Z " fill="#E3E2DE" transform="translate(303,124)"/>
<path d="M0 0 C0.99 0 1.98 0 3 0 C2.67 3.96 2.34 7.92 2 12 C1.34 11.67 0.68 11.34 0 11 C-0.449 8.75 -0.449 8.75 -0.688 6 C-0.774 5.093 -0.86 4.185 -0.949 3.25 C-0.966 2.507 -0.983 1.765 -1 1 C-0.67 0.67 -0.34 0.34 0 0 Z " fill="#E9AD25" transform="translate(303,124)"/>
</svg>
