<?xml version="1.0" encoding="UTF-8"?>
<!-- Generator: visioncortex VTracer 0.6.4 -->
<svg version="1.1" xmlns="http://www.w3.org/2000/svg" width="512" height="512">
<path d="M0 0 C0.988 -0.016 1.976 -0.032 2.994 -0.049 C4.414 -0.05 4.414 -0.05 5.863 -0.051 C6.718 -0.054 7.573 -0.057 8.454 -0.06 C10.688 0.312 10.688 0.312 12.416 1.385 C14.302 4.244 14.525 7.188 14.855 10.52 C14.935 11.261 15.014 12.003 15.096 12.767 C15.996 22.123 16.023 31.503 16.003 40.894 C16 43.979 16.024 47.062 16.049 50.146 C16.082 60.36 15.682 70.385 14.355 80.52 C14.239 81.433 14.123 82.347 14.003 83.288 C12.71 92.134 12.71 92.134 9.688 95.312 C6.593 95.88 6.593 95.88 2.832 95.801 C1.84 95.79 1.84 95.79 0.827 95.779 C-1.283 95.751 -3.391 95.689 -5.5 95.625 C-6.932 95.6 -8.363 95.577 -9.795 95.557 C-13.302 95.502 -16.807 95.415 -20.312 95.312 C-22.784 87.683 -22.539 80.273 -22.438 72.312 C-22.427 70.952 -22.418 69.591 -22.41 68.23 C-22.387 64.924 -22.354 61.618 -22.312 58.312 C-20.827 57.817 -20.827 57.817 -19.312 57.312 C-19.312 39.162 -19.312 21.012 -19.312 2.312 C-12.308 0.561 -7.039 -0.023 0 0 Z " fill="#23282E" transform="translate(331.3125,190.6875)"/>
<path d="M0 0 C0.99 0.33 1.98 0.66 3 1 C2.01 1.66 1.02 2.32 0 3 C0.071 3.772 0.141 4.545 0.214 5.341 C1.165 17.279 1.152 29.201 1.13 41.171 C1.125 44.756 1.13 48.341 1.137 51.926 C1.136 54.237 1.135 56.548 1.133 58.859 C1.135 59.915 1.137 60.97 1.139 62.058 C1.094 76.449 1.094 76.449 0 82 C-0.99 82.495 -0.99 82.495 -2 83 C-1.979 81.928 -1.959 80.855 -1.938 79.75 C-1.837 76.256 -1.837 76.256 -2.562 74 C-3.357 70.367 -2.489 66.634 -1.434 63.108 C-0.899 60.51 -1.142 58.409 -1.434 55.77 C-2.364 45.098 -2.105 34.39 -2.062 23.688 C-2.057 21.482 -2.053 19.277 -2.049 17.072 C-2.038 11.715 -2.021 6.357 -2 1 C-1.34 0.67 -0.68 0.34 0 0 Z " fill="#131518" transform="translate(314,192)"/>
</svg>
