<?xml version="1.0" encoding="UTF-8"?>
<!-- Generator: visioncortex VTracer 0.6.4 -->
<svg version="1.1" xmlns="http://www.w3.org/2000/svg" width="512" height="512">
<path d="M0 0 C4.473 0.045 8.945 0.085 13.418 0.111 C17.854 0.137 22.289 0.177 26.724 0.227 C28.387 0.244 30.049 0.256 31.712 0.262 C34.015 0.272 36.318 0.3 38.622 0.332 C39.922 0.343 41.223 0.354 42.564 0.366 C48.226 0.964 53.574 2.234 57.334 6.764 C60.892 18.977 62.074 31.679 57.334 43.764 C54.008 47.19 51.538 48.225 46.76 48.304 C46.042 48.296 45.324 48.287 44.584 48.279 C43.811 48.286 43.038 48.293 42.241 48.3 C39.654 48.318 37.068 48.308 34.48 48.298 C32.624 48.305 30.768 48.314 28.911 48.324 C23.872 48.346 18.833 48.343 13.794 48.335 C9.589 48.329 5.384 48.337 1.179 48.344 C-8.738 48.361 -18.656 48.357 -28.573 48.341 C-38.811 48.324 -49.048 48.34 -59.286 48.372 C-68.073 48.399 -76.859 48.406 -85.646 48.397 C-90.895 48.392 -96.145 48.395 -101.394 48.415 C-106.328 48.433 -111.261 48.428 -116.195 48.403 C-118.008 48.398 -119.82 48.402 -121.633 48.414 C-124.104 48.43 -126.573 48.415 -129.044 48.392 C-129.764 48.404 -130.484 48.416 -131.226 48.428 C-134.93 48.359 -136.385 48.04 -139.073 45.407 C-143.906 37.39 -144.02 28.291 -143.041 19.264 C-142.96 18.511 -142.878 17.758 -142.795 16.982 C-142.062 11.508 -140.898 6.562 -136.416 2.952 C-129.528 -0.023 -121.641 0.555 -114.272 0.448 C-113.053 0.427 -111.834 0.406 -110.578 0.385 C-107.984 0.342 -105.391 0.301 -102.798 0.262 C-98.96 0.203 -95.123 0.138 -91.285 0.071 C-60.858 -0.435 -30.429 -0.309 0 0 Z " fill="#8A8B8E" transform="translate(297.66609287261963,135.23572635650635)"/>
</svg>
