<?xml version="1.0" encoding="UTF-8"?>
<!-- Generator: visioncortex VTracer 0.6.4 -->
<svg version="1.1" xmlns="http://www.w3.org/2000/svg" width="512" height="512">
<path d="M0 0 C10.393 7.323 16.127 18.175 18.898 30.297 C21.293 44.25 17.875 57.509 10.438 69.438 C7.655 73.013 4.666 76.262 1.438 79.438 C0.923 79.951 0.409 80.464 -0.121 80.992 C-7.766 87.966 -18.57 92.022 -28.883 91.754 C-44.947 89.857 -58.082 83.258 -68.688 70.977 C-74.556 63.03 -78.135 52.854 -77.25 42.938 C-76.151 38.942 -75.459 37.131 -72.188 34.625 C-68.838 31.858 -67.424 29.394 -65.562 25.438 C-63.353 22.336 -60.965 19.39 -58.562 16.438 C-58.1 15.838 -57.637 15.239 -57.16 14.621 C-50.974 6.893 -42.831 0.061 -33.562 -3.562 C-32.511 -3.975 -31.459 -4.387 -30.375 -4.812 C-19.273 -6.996 -9.66 -5.809 0 0 Z M-36.301 28.461 C-40.568 35.145 -40.244 42.805 -39.562 50.438 C-38.123 56.213 -34.712 60.005 -29.828 63.297 C-24.834 65.811 -20.288 66.213 -14.914 64.684 C-8.334 61.848 -4.774 57.766 -1.562 51.438 C0.637 44.838 0.778 35.223 -2.188 28.812 C-4.718 24.665 -8.209 21.614 -12.562 19.438 C-23.349 18.439 -29.185 20.234 -36.301 28.461 Z " fill="#282E36" transform="translate(235.5625,286.5625)"/>
<path d="M0 0 C0 3.95 -1.555 4.98 -4 8 C-4.33 8.887 -4.66 9.774 -5 10.688 C-6.224 13.518 -7.215 13.869 -10 15 C-10.66 15.66 -11.32 16.32 -12 17 C-11.39 13.421 -9.939 11.315 -7.688 8.5 C-6.796 7.371 -6.796 7.371 -5.887 6.219 C-4.023 4.027 -2.063 2.004 0 0 Z " fill="#13151A" transform="translate(181,299)"/>
</svg>
