<?xml version="1.0" encoding="UTF-8"?>
<!-- Generator: visioncortex VTracer 0.6.4 -->
<svg version="1.1" xmlns="http://www.w3.org/2000/svg" width="512" height="512">
<path d="M0 0 C2.869 2.511 3.787 4.331 4.938 7.938 C5.016 11.773 4.045 13.786 2 17 C-1.302 19.201 -3.068 19.769 -7 20 C-11.274 18.659 -12.661 17.58 -14.938 13.688 C-16.065 9.776 -16.279 7.838 -15 4 C-10.476 -1.4 -6.631 -1.711 0 0 Z " fill="#7B7C80" transform="translate(107,196)"/>
<path d="M0 0 C1.98 0.495 1.98 0.495 4 1 C4.33 3.97 4.66 6.94 5 10 C3.68 10 2.36 10 1 10 C-0.837 6.218 -1.158 4.054 0 0 Z " fill="#939596" transform="translate(92,201)"/>
</svg>
