<?xml version="1.0" encoding="UTF-8"?>
<!-- Generator: visioncortex VTracer 0.6.4 -->
<svg version="1.1" xmlns="http://www.w3.org/2000/svg" width="512" height="512">
<path d="M0 0 C1.454 0.031 1.454 0.031 2.938 0.062 C4.001 5.236 4.054 10.186 4 15.438 C3.995 16.269 3.991 17.1 3.986 17.957 C3.975 19.992 3.957 22.027 3.938 24.062 C1.298 24.062 -1.342 24.062 -4.062 24.062 C-4.091 20.25 -4.109 16.438 -4.125 12.625 C-4.133 11.536 -4.142 10.448 -4.15 9.326 C-4.154 8.292 -4.157 7.257 -4.16 6.191 C-4.165 5.233 -4.171 4.275 -4.176 3.287 C-3.998 -0.198 -3.564 0.073 0 0 Z " fill="#F8AB0F" transform="translate(426.0625,271.9375)"/>
</svg>
