<?xml version="1.0" encoding="UTF-8"?>
<!-- Generator: visioncortex VTracer 0.6.4 -->
<svg version="1.1" xmlns="http://www.w3.org/2000/svg" width="512" height="512">
<path d="M0 0 C1.657 1.657 1.171 3.607 1.188 5.875 C1.202 6.759 1.216 7.644 1.23 8.555 C1 11 1 11 -1 14 C-3.43 14.341 -3.43 14.341 -6.445 14.293 C-7.522 14.283 -8.598 14.274 -9.707 14.264 C-10.835 14.239 -11.963 14.213 -13.125 14.188 C-14.261 14.174 -15.396 14.16 -16.566 14.146 C-19.378 14.111 -22.189 14.062 -25 14 C-26.239 11.522 -26.167 9.763 -26.188 7 C-26.202 6.113 -26.216 5.226 -26.23 4.312 C-26 2 -26 2 -24 0 C-21.427 -0.339 -18.959 -0.562 -16.375 -0.688 C-15.291 -0.747 -15.291 -0.747 -14.185 -0.808 C-9.328 -1.037 -4.784 -0.976 0 0 Z " fill="#00A8DA" transform="translate(321,244)"/>
</svg>
