<?xml version="1.0" encoding="UTF-8"?>
<!-- Generator: visioncortex VTracer 0.6.4 -->
<svg version="1.1" xmlns="http://www.w3.org/2000/svg" width="512" height="512">
<path d="M0 0 C9.069 5.79 15.263 15.447 17.64 25.876 C18.261 29.544 18.34 33.161 18.312 36.875 C18.308 37.664 18.304 38.454 18.3 39.267 C18.184 45.251 17.403 50.472 15 56 C14.71 56.691 14.42 57.382 14.121 58.094 C9.342 68.492 2.37 75.315 -7.875 80.438 C-19.492 82.529 -32.395 80.662 -42.625 74.562 C-51.569 68.188 -56.112 60.58 -58.508 49.988 C-59.18 45.905 -59.206 42.129 -59 38 C-57.175 37.412 -57.175 37.412 -55.312 36.812 C-51.129 35.182 -48.691 33.737 -46 30 C-44.844 26.771 -43.889 23.518 -42.953 20.219 C-40.345 11.411 -35.404 3.277 -27.312 -1.5 C-18.938 -5.137 -8.148 -3.615 0 0 Z M-23.312 25.75 C-26.583 32.048 -28.26 38.951 -26.5 46.004 C-24.77 51.185 -22.082 56.459 -17 59 C-10.889 59.509 -7.862 59.089 -3 55 C2.486 49.209 3.425 43.496 3.246 35.75 C2.737 30.067 1.331 25.833 -3.062 22.062 C-10.655 16.731 -17.536 18.88 -23.312 25.75 Z " fill="#282F37" transform="translate(388,281)"/>
<path d="M0 0 C1.63 0.014 1.63 0.014 3.293 0.027 C4.124 0.039 4.956 0.051 5.812 0.062 C5.812 0.392 5.812 0.723 5.812 1.062 C2.183 1.062 -1.447 1.062 -5.188 1.062 C-5.188 1.723 -5.188 2.382 -5.188 3.062 C-7.498 3.392 -9.808 3.723 -12.188 4.062 C-8.494 0.017 -5.317 -0.057 0 0 Z " fill="#1A1F25" transform="translate(371.1875,277.9375)"/>
</svg>
