<?xml version="1.0" encoding="UTF-8"?>
<!-- Generator: visioncortex VTracer 0.6.4 -->
<svg version="1.1" xmlns="http://www.w3.org/2000/svg" width="512" height="512">
<path d="M0 0 C14.081 0.609 28.121 1.536 42.169 2.675 C45.485 2.941 48.802 3.196 52.119 3.451 C54.245 3.622 56.371 3.793 58.496 3.965 C59.479 4.039 60.463 4.113 61.476 4.189 C65.982 4.566 69.899 4.92 74 7 C74 9.31 74 11.62 74 14 C59.82 13.41 45.659 12.654 31.499 11.698 C28.512 11.497 25.524 11.301 22.537 11.105 C20.609 10.977 18.682 10.848 16.754 10.719 C15.875 10.661 14.996 10.604 14.09 10.545 C9.35 10.221 4.694 9.739 0 9 C0 6.03 0 3.06 0 0 Z " fill="#717374" transform="translate(268,159)"/>
</svg>
