<?xml version="1.0" encoding="UTF-8"?>
<!-- Generator: visioncortex VTracer 0.6.4 -->
<svg version="1.1" xmlns="http://www.w3.org/2000/svg" width="512" height="512">
<path d="M0 0 C5.746 4.058 10.568 9.415 15.094 14.773 C17.016 17.019 18.996 19.204 21.001 21.377 C21.959 22.418 22.912 23.464 23.858 24.516 C25.992 26.878 28.1 29.089 30.484 31.207 C34.725 35.14 36.422 38.022 36.743 43.926 C36.766 50.766 36.031 56.335 32 62 C27.753 66.119 23.152 67.606 17.625 69.312 C16.8 69.589 15.975 69.866 15.125 70.15 C10.069 71.743 6.26 72.423 1 71 C-10.929 64.034 -17.486 48.958 -21.039 36.297 C-23.03 27.403 -26.01 13.311 -21 5 C-18.285 3.453 -18.285 3.453 -15.062 2.25 C-14.002 1.843 -12.941 1.435 -11.848 1.016 C-7.253 -0.623 -4.794 -1.254 0 0 Z " fill="#1C2125" transform="translate(244,342)"/>
</svg>
