<?xml version="1.0" encoding="UTF-8"?>
<!-- Generator: visioncortex VTracer 0.6.4 -->
<svg version="1.1" xmlns="http://www.w3.org/2000/svg" width="512" height="512">
<path d="M0 0 C5.919 3.718 9.426 8.848 12.973 14.734 C15.399 18.642 18.021 22.379 20.688 26.125 C21.195 26.839 21.702 27.553 22.225 28.289 C23.276 29.767 24.328 31.244 25.38 32.721 C28.629 37.292 31.852 41.881 35.079 46.467 C35.549 47.134 36.019 47.801 36.504 48.488 C37.156 49.414 37.156 49.414 37.821 50.358 C38.795 51.714 39.812 53.04 40.84 54.355 C42 56 42 56 42 58 C42.846 57.567 43.691 57.134 44.562 56.688 C56.865 50.648 56.865 50.648 63 52 C69.046 56.147 73.033 61.453 76.812 67.625 C77.945 69.419 79.08 71.212 80.215 73.004 C81.125 74.452 81.125 74.452 82.054 75.93 C85.211 80.911 88.454 85.836 91.694 90.764 C92.886 92.579 94.075 94.395 95.264 96.212 C99.319 102.405 103.386 108.59 107.478 114.759 C109.529 117.852 111.576 120.948 113.623 124.044 C114.605 125.528 115.59 127.011 116.577 128.492 C122.792 137.821 128.67 147.247 133.982 157.123 C134.946 158.9 135.941 160.659 136.938 162.418 C142.215 172.155 144.614 182.068 147 192.812 C147.423 194.658 147.847 196.503 148.273 198.348 C149.544 203.892 150.777 209.445 152 215 C152.189 215.857 152.378 216.713 152.573 217.596 C159 246.724 159 246.724 159 251 C158.34 251.33 157.68 251.66 157 252 C157.195 253.212 157.195 253.212 157.395 254.449 C158.508 263.074 158.508 263.074 156.953 265.91 C155.563 267.25 155.563 267.25 153 269 C151.791 266.582 151.965 265.19 152.062 262.5 C152.137 252.042 148.83 241.988 146 232 C145.536 230.36 145.536 230.36 145.062 228.688 C143.248 222.76 141.005 218.108 137.375 213.09 C136.01 211.015 135.218 209.16 134.438 206.812 C133.062 202.695 130.869 200.237 128 197 C127.691 196.237 127.381 195.474 127.062 194.688 C126.038 192.624 126.038 192.624 122.875 192.25 C121.926 192.168 120.977 192.085 120 192 C119.67 193.32 119.34 194.64 119 196 C118.34 196 117.68 196 117 196 C116.814 197.702 116.814 197.702 116.625 199.438 C116.419 200.613 116.212 201.789 116 203 C115.34 203.33 114.68 203.66 114 204 C110.533 200.649 107.482 197.21 104.562 193.375 C104.145 192.827 103.727 192.279 103.297 191.715 C98.241 185.052 93.305 178.3 88.355 171.559 C84.831 166.761 81.261 161.999 77.672 157.25 C74.577 153.085 73.451 149.843 72.625 144.812 C67.387 115.138 67.387 115.138 52 90 C52 89.01 52 88.02 52 87 C51.34 87 50.68 87 50 87 C49.752 86.134 49.505 85.267 49.25 84.375 C46.554 77.097 41.169 69.729 34.5 65.562 C30.904 63.957 28.872 63.384 25 64 C22.136 66.213 21.472 68.189 20.812 71.688 C20.654 72.496 20.495 73.304 20.332 74.137 C20.222 74.752 20.113 75.366 20 76 C15.342 75.371 15.342 75.371 13.5 73.375 C13.005 72.921 12.51 72.468 12 72 C9.599 72.196 9.599 72.196 7 73 C5.001 73.339 3.001 73.674 1 74 C3.319 71.681 4.901 71.339 8 70.375 C12.369 68.679 12.369 68.679 14.625 64.5 C14.936 62.368 14.936 62.368 15 60 C15.081 58.509 15.081 58.509 15.164 56.988 C15.305 51.768 15.212 47.801 13 43 C13.66 43 14.32 43 15 43 C14.752 41.783 14.505 40.566 14.25 39.312 C14.041 38.286 14.041 38.286 13.828 37.238 C12.743 34.306 10.996 32.401 9 30 C6.93 26.905 4.915 23.778 2.902 20.645 C1.101 17.813 1.101 17.813 -2 16 C-7.981 16.271 -12.965 18.399 -18.375 20.75 C-19.174 21.085 -19.973 21.42 -20.797 21.766 C-25.786 23.897 -30.495 26.309 -35.174 29.056 C-37 30 -37 30 -39 30 C-39 26.7 -39 23.4 -39 20 C-42.499 20.581 -45.311 21.478 -48.46 23.098 C-49.313 23.532 -50.165 23.967 -51.043 24.415 C-51.954 24.888 -52.866 25.36 -53.805 25.848 C-54.761 26.338 -55.717 26.828 -56.702 27.333 C-59.763 28.904 -62.819 30.483 -65.875 32.062 C-67.893 33.099 -69.911 34.135 -71.93 35.17 C-81.684 40.181 -91.408 45.238 -101.043 50.474 C-103.657 51.823 -106.248 52.967 -109 54 C-109 53.34 -109 52.68 -109 52 C-111.475 52.495 -111.475 52.495 -114 53 C-112.625 51.5 -112.625 51.5 -111 50 C-110.34 50 -109.68 50 -109 50 C-109 49.34 -109 48.68 -109 48 C-108.327 47.841 -107.655 47.682 -106.962 47.519 C-100.005 45.765 -93.902 43.294 -87.531 40.027 C-86.571 39.545 -85.61 39.062 -84.621 38.565 C-81.576 37.032 -78.538 35.485 -75.5 33.938 C-73.495 32.927 -71.49 31.917 -69.484 30.908 C-58.652 25.446 -47.879 19.876 -37.16 14.195 C-7.075 -1.73 -7.075 -1.73 0 0 Z M71 75 C71.037 91.857 75.539 102.065 85.461 115.52 C89.165 120.552 92.57 125.779 96 131 C96.66 131.99 97.32 132.98 98 134 C98.66 134 99.32 134 100 134 C99.433 120.772 98.456 110.331 90.109 99.715 C88.048 97.061 86.266 94.356 84.5 91.5 C80.944 85.835 77.311 80.124 73 75 C72.34 75 71.68 75 71 75 Z M88 126 C88.321 132.954 90.38 136.931 94.438 142.5 C94.941 143.227 95.444 143.954 95.963 144.703 C97.874 147.437 97.874 147.437 100 150 C100.66 150 101.32 150 102 150 C103.062 141.961 99.666 137.345 95 131 C94.325 130.065 93.649 129.131 92.953 128.168 C92.309 127.453 91.664 126.737 91 126 C90.01 126 89.02 126 88 126 Z M111 133 C111.811 146.615 112.999 155.743 121 167 C121.801 168.141 122.602 169.281 123.402 170.422 C125.907 173.968 128.449 177.487 131 181 C131.405 181.559 131.81 182.118 132.228 182.694 C134.48 185.8 136.737 188.902 139 192 C141.588 183.644 137.389 171.969 133.742 164.384 C130.543 158.662 126.808 153.327 123 148 C122.02 146.581 121.042 145.16 120.066 143.738 C116.282 137.546 116.282 137.546 111 133 Z M136 194 C135.873 202.526 138.683 207.476 144 214 C144.99 213.67 145.98 213.34 147 213 C145.755 205.671 142.571 199.864 138 194 C137.34 194 136.68 194 136 194 Z " fill="#0258B6" transform="translate(232,97)"/>
<path d="M0 0 C0.99 0.495 0.99 0.495 2 1 C-2.046 4.37 -6.539 5.878 -11.418 7.719 C-12.27 8.142 -13.122 8.564 -14 9 C-14.33 9.99 -14.66 10.98 -15 12 C-17.582 12.914 -17.582 12.914 -20.812 13.625 C-21.871 13.865 -22.929 14.105 -24.02 14.352 C-25.495 14.673 -25.495 14.673 -27 15 C-28.335 15.328 -29.669 15.658 -31 16 C-31 17.32 -31 18.64 -31 20 C-31.82 20.11 -32.64 20.219 -33.484 20.332 C-34.562 20.491 -35.64 20.649 -36.75 20.812 C-37.817 20.963 -38.885 21.114 -39.984 21.27 C-43.103 22.025 -44.707 22.788 -47 25 C-47.33 25.99 -47.66 26.98 -48 28 C-48.75 28.086 -49.5 28.173 -50.273 28.262 C-58.222 29.353 -66.145 31.145 -72 37 C-75.125 37.125 -75.125 37.125 -78 37 C-74.44 34.019 -70.432 32.202 -66.238 30.297 C-65.081 29.764 -65.081 29.764 -63.901 29.221 C-61.373 28.059 -58.843 26.905 -56.312 25.75 C-54.565 24.948 -52.817 24.146 -51.07 23.344 C-45.717 20.888 -40.359 18.443 -35 16 C-34.159 15.616 -33.317 15.233 -32.451 14.838 C-25.614 11.722 -18.776 8.61 -11.933 5.509 C-11.274 5.21 -10.614 4.911 -9.935 4.603 C-8.169 3.803 -6.403 3.004 -4.637 2.205 C-3.081 1.494 -1.531 0.765 0 0 Z " fill="#070707" transform="translate(231,171)"/>
<path d="M0 0 C0.507 0.238 1.013 0.475 1.535 0.72 C-11.878 7.869 -25.413 14.749 -39.026 21.508 C-41.842 22.907 -44.654 24.312 -47.465 25.72 C-47.465 25.06 -47.465 24.4 -47.465 23.72 C-49.115 24.05 -50.765 24.38 -52.465 24.72 C-51.09 23.22 -51.09 23.22 -49.465 21.72 C-48.805 21.72 -48.145 21.72 -47.465 21.72 C-47.465 21.06 -47.465 20.4 -47.465 19.72 C-46.873 19.605 -46.282 19.49 -45.672 19.371 C-35.214 16.955 -26.12 11.691 -16.689 6.743 C-14.433 5.564 -12.17 4.399 -9.906 3.235 C-9.218 2.868 -8.529 2.5 -7.82 2.121 C-3.015 -0.343 -3.015 -0.343 0 0 Z " fill="#00408E" transform="translate(170.465087890625,125.2802734375)"/>
<path d="M0 0 C3.653 4.215 6.23 8.718 8.812 13.625 C9.248 14.452 9.684 15.278 10.133 16.13 C14.243 24.13 17.362 32.383 20.262 40.884 C21.008 43.022 21.808 45.133 22.621 47.246 C25.738 55.73 27 64.97 27 74 C23.821 70.513 23.3 67.348 22.562 62.75 C19.495 44.919 15.284 21.284 2 8 C2 7.01 2 6.02 2 5 C1.34 5 0.68 5 0 5 C0 3.35 0 1.7 0 0 Z " fill="#020C18" transform="translate(282,179)"/>
<path d="M0 0 C0.99 0.33 1.98 0.66 3 1 C2.34 1 1.68 1 1 1 C1 1.99 1 2.98 1 4 C0.42 4.182 -0.16 4.364 -0.758 4.551 C-2.379 5.072 -3.993 5.615 -5.602 6.176 C-7.548 6.845 -9.521 7.435 -11.5 8 C-14.236 9.76 -14.236 9.76 -14.586 12.637 C-14.851 15.437 -14.99 18.188 -15 21 C-18.966 21.249 -19.793 21.151 -23.188 18.688 C-26 16 -26 16 -28 13 C-27.223 12.642 -26.446 12.283 -25.645 11.914 C-22.764 10.586 -19.883 9.257 -17.001 7.928 C-15.754 7.353 -14.507 6.777 -13.259 6.202 C-11.467 5.376 -9.675 4.549 -7.883 3.723 C-6.804 3.225 -5.725 2.728 -4.614 2.215 C-3.067 1.496 -1.526 0.763 0 0 Z " fill="#05080C" transform="translate(127,219)"/>
<path d="M0 0 C4.725 0.096 7.188 0.739 10.625 4.062 C13.886 7.634 17.036 11.55 19 16 C18.67 16.66 18.34 17.32 18 18 C17.036 16.921 16.079 15.837 15.125 14.75 C14.324 13.845 14.324 13.845 13.508 12.922 C12 11 12 11 11 8.812 C10.67 8.214 10.34 7.616 10 7 C6.941 6.184 6.941 6.184 4 6 C3.67 7.32 3.34 8.64 3 10 C2.34 10 1.68 10 1 10 C0.876 11.134 0.752 12.269 0.625 13.438 C0.419 14.613 0.212 15.789 0 17 C-0.66 17.33 -1.32 17.66 -2 18 C-2.66 17.34 -3.32 16.68 -4 16 C-3.34 16 -2.68 16 -2 16 C-2.035 14.77 -2.035 14.77 -2.07 13.516 C-2.088 12.438 -2.106 11.36 -2.125 10.25 C-2.148 9.183 -2.171 8.115 -2.195 7.016 C-2.005 4.075 -1.527 2.476 0 0 Z " fill="#000913" transform="translate(348,283)"/>
<path d="M0 0 C6.569 5.889 7.733 12.62 9 21 C6.625 20.688 6.625 20.688 4 20 C1.862 16.793 1.466 14.884 0.875 11.125 C0.707 10.096 0.54 9.068 0.367 8.008 C0.036 5.297 -0.07 2.726 0 0 Z " fill="#F9F4EA" transform="translate(382,326)"/>
<path d="M0 0 C0.566 0.371 1.132 0.742 1.716 1.125 C-1.358 2.665 -4.445 4.178 -7.534 5.687 C-8.407 6.125 -9.28 6.562 -10.179 7.013 C-11.023 7.422 -11.867 7.832 -12.737 8.253 C-13.9 8.827 -13.9 8.827 -15.086 9.412 C-17.6 10.227 -18.831 10.007 -21.284 9.125 C-18.215 7.39 -15.127 5.692 -12.034 4 C-11.161 3.506 -10.289 3.012 -9.39 2.503 C-8.545 2.046 -7.701 1.588 -6.831 1.117 C-6.056 0.687 -5.281 0.258 -4.482 -0.185 C-2.284 -0.875 -2.284 -0.875 0 0 Z " fill="#004AA3" transform="translate(191.2841796875,114.87548828125)"/>
<path d="M0 0 C1.342 2.683 2.55 5.221 3.625 8 C3.885 8.66 4.146 9.32 4.414 10 C5 12 5 12 5 16 C3.35 16.99 1.7 17.98 0 19 C0 12.73 0 6.46 0 0 Z " fill="#040B14" transform="translate(384,347)"/>
<path d="M0 0 C0.413 0.454 0.825 0.908 1.25 1.375 C3.064 3.06 4.753 3.993 7 5 C6.01 5.495 6.01 5.495 5 6 C5.33 9.96 5.66 13.92 6 18 C2.883 14.883 2.366 13.672 1.312 9.562 C1.061 8.615 0.81 7.668 0.551 6.691 C0 4 0 4 0 0 Z " fill="#1D6BB5" transform="translate(384,343)"/>
<path d="M0 0 C-1 3 -1 3 -2.848 4.168 C-3.579 4.504 -4.309 4.841 -5.062 5.188 C-5.796 5.532 -6.529 5.876 -7.285 6.23 C-7.851 6.484 -8.417 6.738 -9 7 C-9 6.34 -9 5.68 -9 5 C-10.65 5.33 -12.3 5.66 -14 6 C-12.625 4.5 -12.625 4.5 -11 3 C-10.34 3 -9.68 3 -9 3 C-9 2.34 -9 1.68 -9 1 C-5.927 0.089 -3.199 -0.089 0 0 Z " fill="#3667A0" transform="translate(132,144)"/>
<path d="M0 0 C-1 3 -1 3 -4.379 4.824 C-5.769 5.456 -7.163 6.077 -8.562 6.688 C-9.273 7.008 -9.984 7.328 -10.717 7.658 C-12.474 8.448 -14.236 9.225 -16 10 C-16 9.01 -16 8.02 -16 7 C-13.711 5.828 -11.419 4.663 -9.125 3.5 C-8.474 3.166 -7.823 2.832 -7.152 2.488 C-2.227 0 -2.227 0 0 0 Z " fill="#00469B" transform="translate(148,136)"/>
<path d="M0 0 C2.147 1.902 3.716 3.431 5 6 C0.342 5.371 0.342 5.371 -1.5 3.375 C-1.995 2.921 -2.49 2.468 -3 2 C-5.401 2.196 -5.401 2.196 -8 3 C-9.999 3.339 -11.999 3.674 -14 4 C-11.978 1.978 -10.741 1.324 -8.125 0.312 C-7.447 0.041 -6.769 -0.231 -6.07 -0.512 C-3.634 -1.086 -2.33 -0.872 0 0 Z " fill="#061326" transform="translate(247,167)"/>
<path d="M0 0 C-0.566 0.266 -1.132 0.531 -1.715 0.805 C-2.448 1.158 -3.182 1.511 -3.938 1.875 C-5.034 2.397 -5.034 2.397 -6.152 2.93 C-8.163 3.868 -8.163 3.868 -9 6 C-11.649 6.594 -14.292 6.742 -17 7 C-14.118 4.727 -11.203 2.925 -7.938 1.25 C-7.08 0.801 -6.223 0.353 -5.34 -0.109 C-3 -1 -3 -1 0 0 Z " fill="#0B0B0B" transform="translate(153,209)"/>
<path d="M0 0 C0.99 0.495 0.99 0.495 2 1 C2.629 3.332 3.155 5.693 3.625 8.062 C3.885 9.353 4.146 10.643 4.414 11.973 C4.607 12.972 4.801 13.971 5 15 C4.01 14.67 3.02 14.34 2 14 C1.34 9.38 0.68 4.76 0 0 Z " fill="#FAAC0F" transform="translate(386,332)"/>
<path d="M0 0 C2.639 3.185 5.183 6.271 7 10 C6.688 12.312 6.688 12.312 6 14 C2 8.375 2 8.375 2 5 C1.34 5 0.68 5 0 5 C0 3.35 0 1.7 0 0 Z " fill="#010811" transform="translate(282,179)"/>
<path d="M0 0 C2.526 3.128 4.424 6.296 6 10 C5.67 10.99 5.34 11.98 5 13 C4.156 11.59 3.325 10.171 2.5 8.75 C2.036 7.961 1.572 7.172 1.094 6.359 C0 4 0 4 0 0 Z " fill="#00060E" transform="translate(367,301)"/>
<path d="M0 0 C1.32 0 2.64 0 4 0 C4 2.64 4 5.28 4 8 C0 3.375 0 3.375 0 0 Z " fill="#0B1832" transform="translate(277,155)"/>
<path d="M0 0 C0.667 1.333 1.333 2.667 2 4 C2.371 4.619 2.743 5.238 3.125 5.875 C4.269 8.654 4.135 11.026 4 14 C0.735 10.735 0.068 6.59 -0.125 2.062 C-0.084 1.382 -0.043 0.701 0 0 Z " fill="#001429" transform="translate(380,332)"/>
<path d="M0 0 C0.413 0.454 0.825 0.908 1.25 1.375 C3.064 3.06 4.753 3.993 7 5 C6.196 5.124 5.391 5.248 4.562 5.375 C3.294 5.684 3.294 5.684 2 6 C1.67 6.66 1.34 7.32 1 8 C0.67 5.36 0.34 2.72 0 0 Z " fill="#3770A3" transform="translate(384,343)"/>
<path d="M0 0 C-0.99 0.33 -1.98 0.66 -3 1 C-3.33 1.99 -3.66 2.98 -4 4 C-5.65 4 -7.3 4 -9 4 C-8 1 -8 1 -6.188 -0.25 C-3.661 -1.116 -2.478 -0.885 0 0 Z " fill="#030303" transform="translate(220,179)"/>
<path d="M0 0 C0.99 0.99 1.98 1.98 3 3 C2.688 6.688 2.688 6.688 2 10 C1.67 10 1.34 10 1 10 C0.67 6.7 0.34 3.4 0 0 Z " fill="#EAF2F9" transform="translate(382,326)"/>
<path d="M0 0 C1.648 2.967 2.443 5.656 3 9 C2.01 8.67 1.02 8.34 0 8 C-0.8 4.713 -1.097 3.29 0 0 Z " fill="#012A53" transform="translate(386,354)"/>
<path d="M0 0 C1.32 0.33 2.64 0.66 4 1 C2.68 1.33 1.36 1.66 0 2 C0 1.34 0 0.68 0 0 Z " fill="#020202" transform="translate(280,397)"/>
<path d="M0 0 C0.66 0.33 1.32 0.66 2 1 C0.68 1.33 -0.64 1.66 -2 2 C-1.34 1.34 -0.68 0.68 0 0 Z " fill="#0A0A0A" transform="translate(134,216)"/>
<path d="M0 0 C4 1 4 1 4 1 Z " fill="#0E0E0E" transform="translate(305,389)"/>
<path d="M0 0 C4 1 4 1 4 1 Z " fill="#181A1B" transform="translate(346,376)"/>
<path d="M0 0 C0.66 0 1.32 0 2 0 C1.67 0.99 1.34 1.98 1 3 C0.67 2.01 0.34 1.02 0 0 Z " fill="#6A6E52" transform="translate(117,165)"/>
<path d="M0 0 C0.33 0.99 0.66 1.98 1 3 C0.34 2.67 -0.32 2.34 -1 2 C-0.67 1.34 -0.34 0.68 0 0 Z " fill="#826123" transform="translate(192,135)"/>
<path d="M0 0 C3 1 3 1 3 1 Z " fill="#040405" transform="translate(293,393)"/>
<path d="M0 0 C3 1 3 1 3 1 Z " fill="#020202" transform="translate(317,385)"/>
<path d="M0 0 C3 1 3 1 3 1 Z " fill="#050505" transform="translate(330,381)"/>
<path d="M0 0 C0.66 0.66 1.32 1.32 2 2 C1.34 2 0.68 2 0 2 C0 1.34 0 0.68 0 0 Z " fill="#2B2819" transform="translate(117,172)"/>
<path d="" fill="#582E02" transform="translate(0,0)"/>
<path d="M0 0 C2 1 2 1 2 1 Z " fill="#080808" transform="translate(291,394)"/>
<path d="M0 0 C2 1 2 1 2 1 Z " fill="#060606" transform="translate(297,392)"/>
<path d="M0 0 C2 1 2 1 2 1 Z " fill="#050505" transform="translate(315,386)"/>
<path d="M0 0 C2 1 2 1 2 1 Z " fill="#101111" transform="translate(322,384)"/>
<path d="M0 0 C2 1 2 1 2 1 Z " fill="#0E0F0F" transform="translate(325,383)"/>
<path d="M0 0 C2 1 2 1 2 1 Z " fill="#0F0F0F" transform="translate(328,382)"/>
<path d="M0 0 C2 1 2 1 2 1 Z " fill="#161717" transform="translate(341,378)"/>
<path d="M0 0 C2 1 2 1 2 1 Z " fill="#020202" transform="translate(343,377)"/>
<path d="M0 0 C2 1 2 1 2 1 Z " fill="#0A0A0B" transform="translate(130,218)"/>
<path d="" fill="#34393E" transform="translate(0,0)"/>
<path d="" fill="#030304" transform="translate(0,0)"/>
<path d="" fill="#111111" transform="translate(0,0)"/>
<path d="" fill="#090A0A" transform="translate(0,0)"/>
<path d="" fill="#070708" transform="translate(0,0)"/>
<path d="" fill="#0E0E0F" transform="translate(0,0)"/>
<path d="" fill="#080909" transform="translate(0,0)"/>
<path d="" fill="#0F0F10" transform="translate(0,0)"/>
<path d="" fill="#0E0E0F" transform="translate(0,0)"/>
<path d="" fill="#52575B" transform="translate(0,0)"/>
<path d="" fill="#373D43" transform="translate(0,0)"/>
<path d="" fill="#31373E" transform="translate(0,0)"/>
<path d="" fill="#353B42" transform="translate(0,0)"/>
<path d="" fill="#31373E" transform="translate(0,0)"/>
<path d="" fill="#A7936A" transform="translate(0,0)"/>
<path d="" fill="#A4926D" transform="translate(0,0)"/>
<path d="" fill="#A79269" transform="translate(0,0)"/>
<path d="" fill="#A6A8AA" transform="translate(0,0)"/>
<path d="" fill="#A5A7A9" transform="translate(0,0)"/>
<path d="" fill="#A7A8AA" transform="translate(0,0)"/>
<path d="" fill="#A4A6A8" transform="translate(0,0)"/>
<path d="" fill="#A7A9AB" transform="translate(0,0)"/>
<path d="" fill="#155FAF" transform="translate(0,0)"/>
<path d="" fill="#AAACAE" transform="translate(0,0)"/>
<path d="" fill="#ABACAE" transform="translate(0,0)"/>
<path d="" fill="#A6A7A7" transform="translate(0,0)"/>
<path d="" fill="#202021" transform="translate(0,0)"/>
<path d="" fill="#202121" transform="translate(0,0)"/>
<path d="" fill="#232324" transform="translate(0,0)"/>
<path d="" fill="#2D75C5" transform="translate(0,0)"/>
<path d="" fill="#232424" transform="translate(0,0)"/>
<path d="" fill="#282929" transform="translate(0,0)"/>
<path d="" fill="#282929" transform="translate(0,0)"/>
<path d="" fill="#242425" transform="translate(0,0)"/>
<path d="" fill="#232424" transform="translate(0,0)"/>
<path d="" fill="#232324" transform="translate(0,0)"/>
<path d="" fill="#202021" transform="translate(0,0)"/>
<path d="" fill="#021938" transform="translate(0,0)"/>
<path d="" fill="#001E42" transform="translate(0,0)"/>
<path d="" fill="#00142E" transform="translate(0,0)"/>
<path d="" fill="#4B4C4D" transform="translate(0,0)"/>
<path d="" fill="#303031" transform="translate(0,0)"/>
<path d="" fill="#2D2E2E" transform="translate(0,0)"/>
<path d="" fill="#292A2B" transform="translate(0,0)"/>
<path d="" fill="#232324" transform="translate(0,0)"/>
<path d="" fill="#1D1D1E" transform="translate(0,0)"/>
<path d="" fill="#1A1A1B" transform="translate(0,0)"/>
<path d="" fill="#1C1D1D" transform="translate(0,0)"/>
<path d="" fill="#A6A7A8" transform="translate(0,0)"/>
<path d="" fill="#242425" transform="translate(0,0)"/>
<path d="" fill="#949698" transform="translate(0,0)"/>
<path d="" fill="#1D1E1E" transform="translate(0,0)"/>
<path d="" fill="#ADAFB0" transform="translate(0,0)"/>
<path d="" fill="#B5B4B2" transform="translate(0,0)"/>
<path d="" fill="#949699" transform="translate(0,0)"/>
<path d="" fill="#D1D3D3" transform="translate(0,0)"/>
<path d="" fill="#939598" transform="translate(0,0)"/>
<path d="" fill="#B1AC9F" transform="translate(0,0)"/>
<path d="" fill="#949699" transform="translate(0,0)"/>
<path d="" fill="#9B9280" transform="translate(0,0)"/>
<path d="" fill="#97989B" transform="translate(0,0)"/>
<path d="" fill="#97999B" transform="translate(0,0)"/>
<path d="" fill="#989A9C" transform="translate(0,0)"/>
<path d="" fill="#9C927E" transform="translate(0,0)"/>
<path d="" fill="#999A9D" transform="translate(0,0)"/>
<path d="" fill="#9FA0A1" transform="translate(0,0)"/>
<path d="" fill="#AB9365" transform="translate(0,0)"/>
<path d="" fill="#93918C" transform="translate(0,0)"/>
<path d="" fill="#92908E" transform="translate(0,0)"/>
</svg>
