<?xml version="1.0" encoding="UTF-8"?>
<!-- Generator: visioncortex VTracer 0.6.4 -->
<svg version="1.1" xmlns="http://www.w3.org/2000/svg" width="512" height="512">
<path d="M0 0 C4.962 4.464 8.366 9.749 12 15.312 C12.603 16.225 13.207 17.137 13.828 18.076 C15.016 19.877 16.195 21.683 17.367 23.494 C18.371 25.035 19.395 26.565 20.45 28.073 C24.029 33.335 25.519 38.57 26.875 44.75 C27.099 45.682 27.324 46.614 27.555 47.574 C29.273 55.06 29.273 55.06 28 59 C22.911 52.365 17.99 45.639 13.25 38.75 C12.803 38.102 12.356 37.453 11.895 36.785 C10.583 34.866 9.286 32.937 8 31 C7.539 30.307 7.079 29.615 6.604 28.901 C4.364 25.441 2.432 22.443 1.75 18.312 C1.613 17.486 1.477 16.66 1.336 15.809 C0.707 10.552 0.315 5.284 0 0 Z " fill="#252537" transform="translate(343,230)"/>
<path d="M0 0 C4.962 4.464 8.366 9.749 12 15.312 C12.603 16.225 13.207 17.137 13.828 18.076 C15.01 19.868 16.185 21.665 17.352 23.467 C18.41 25.094 19.487 26.71 20.586 28.31 C21.053 29.006 21.519 29.701 22 30.418 C22.413 31.018 22.825 31.617 23.25 32.235 C24.221 34.52 23.675 35.669 23 38 C22.374 37.036 21.749 36.072 21.104 35.078 C18.787 31.51 16.463 27.946 14.138 24.383 C13.131 22.839 12.126 21.294 11.123 19.747 C9.683 17.528 8.237 15.312 6.789 13.098 C6.34 12.403 5.891 11.708 5.428 10.992 C3.259 7.432 3.259 7.432 0 5 C0 3.35 0 1.7 0 0 Z " fill="#090A16" transform="translate(343,230)"/>
</svg>
