<?xml version="1.0" encoding="UTF-8"?>
<!-- Generator: visioncortex VTracer 0.6.4 -->
<svg version="1.1" xmlns="http://www.w3.org/2000/svg" width="512" height="512">
<path d="M0 0 C1 1 2 2 3 3 C5.599 4.19 5.599 4.19 8 5 C5.75 6.5 3.724 7.68 1.312 8.84 C0.614 9.181 -0.085 9.522 -0.805 9.873 C-2.267 10.582 -3.73 11.288 -5.195 11.99 C-5.894 12.332 -6.593 12.675 -7.312 13.027 C-7.948 13.334 -8.584 13.641 -9.238 13.957 C-11.2 15.118 -12.557 16.233 -14 18 C-14.337 20.625 -14.475 22.938 -14.438 25.562 C-14.43 26.313 -14.422 27.063 -14.415 27.836 C-13.746 51.352 -3.179 80.238 13.848 96.797 C15.524 98.292 17.17 99.699 19 101 C19.845 101.605 19.845 101.605 20.707 102.223 C27.878 104.654 36.125 100.391 42.75 97.812 C43.777 97.438 44.805 97.064 45.863 96.678 C50.235 94.988 53.37 93.652 56.656 90.254 C58.363 86.122 58.667 82.557 58.75 78.125 C58.78 77.341 58.809 76.558 58.84 75.75 C58.91 73.834 58.957 71.917 59 70 C61.397 72.397 61.262 73.224 61.625 76.5 C62.652 81.995 65.007 85.033 68.613 89.203 C71.289 92.339 73.709 95.6 76.125 98.938 C77.057 100.215 77.99 101.492 78.922 102.77 C80.543 104.996 82.162 107.223 83.779 109.451 C85.641 112.012 87.508 114.568 89.375 117.125 C90.249 118.333 90.249 118.333 91.141 119.566 C94.176 123.714 97.184 127.545 101 131 C101.33 131 101.66 131 102 131 C102.289 129.866 102.577 128.731 102.875 127.562 C103.432 125.799 103.432 125.799 104 124 C104.66 123.67 105.32 123.34 106 123 C106.33 122.01 106.66 121.02 107 120 C109.812 119.688 109.812 119.688 113 120 C114.886 122.389 116 123.919 116 127 C116.99 127.33 117.98 127.66 119 128 C122.273 131.273 122.567 134.5 123 139 C122.464 138.319 121.928 137.639 121.375 136.938 C120.591 135.968 119.808 134.999 119 134 C118.277 133.082 118.277 133.082 117.539 132.145 C117.031 131.519 116.523 130.894 116 130.25 C115.526 129.657 115.051 129.064 114.562 128.453 C112.719 126.738 111.476 126.333 109 126 C106.785 126.44 106.785 126.44 105 128 C104.794 128.973 104.587 129.946 104.375 130.949 C103 134 103 134 99.445 135.391 C98.011 135.704 96.57 135.989 95.125 136.25 C88.665 137.202 88.665 137.202 83 140 C81.424 144.976 82.237 149.708 83.062 154.75 C83.198 155.581 83.334 156.413 83.474 157.269 C86.564 174.78 93.308 192.714 104 207 C95.535 210.198 87.066 212.933 78.307 215.212 C73.658 216.444 69.426 218.091 65 220 C61.471 221.148 57.892 222.114 54.316 223.105 C50.825 224.097 47.499 225.16 44.184 226.645 C40.84 228.068 38.591 228.263 35 228 C34.67 228.66 34.34 229.32 34 230 C34.104 228.744 34.209 227.489 34.316 226.195 C35.038 216.657 35.038 216.657 32.242 207.758 C29.961 205.276 27.61 203.13 25 201 C23.778 199.805 22.568 198.598 21.375 197.375 C20.814 196.823 20.254 196.272 19.676 195.703 C15.913 191.879 12.46 187.752 9.027 183.633 C3.437 177.059 3.437 177.059 -4 173 C-8.445 173.089 -12.428 174.785 -16.547 176.332 C-17.479 176.68 -17.479 176.68 -18.429 177.035 C-20.249 177.726 -22.057 178.448 -23.863 179.172 C-27 180 -27 180 -28.961 179.272 C-31.206 177.871 -32.894 176.346 -34.759 174.468 C-35.839 173.387 -35.839 173.387 -36.942 172.285 C-37.709 171.508 -38.476 170.73 -39.266 169.93 C-40.059 169.133 -40.852 168.337 -41.67 167.517 C-44.201 164.974 -46.726 162.425 -49.25 159.875 C-50.966 158.149 -52.682 156.424 -54.398 154.699 C-58.604 150.471 -62.804 146.238 -67 142 C-66.202 141.213 -65.405 140.426 -64.583 139.615 C-59.304 134.27 -57.36 128.964 -56.688 121.562 C-57.155 116.235 -59.415 113.341 -63.438 109.938 C-64.706 108.978 -64.706 108.978 -66 108 C-67.678 106.345 -69.343 104.676 -71 103 C-71.851 102.172 -72.702 101.345 -73.578 100.492 C-82.644 91.612 -90.389 81.991 -97.859 71.727 C-102.146 66.235 -102.146 66.235 -108.062 62.875 C-113.008 63.032 -116.505 64.631 -120.977 66.652 C-124.909 68.405 -128.898 69.701 -133 71 C-133.476 67.228 -133.676 63.755 -133 60 C-129.776 56.113 -125.362 54.856 -120.5 54.188 C-118.767 54.095 -118.767 54.095 -117 54 C-117 53.01 -117 52.02 -117 51 C-111.605 47.915 -107.21 46.444 -101 46 C-100.67 45.01 -100.34 44.02 -100 43 C-95.454 39.885 -90.245 38.484 -85 37 C-83.305 36.049 -81.636 35.049 -80 34 C-73.737 30.607 -69.103 29.861 -62 30 C-61.918 29.402 -61.835 28.804 -61.75 28.188 C-60.762 25.305 -59.611 24.523 -57 23 C-53.015 21.815 -49.135 21.919 -45 22 C-45 20.68 -45 19.36 -45 18 C-39.751 14.823 -34.985 14.343 -29 14 C-28.974 13.403 -28.948 12.806 -28.922 12.191 C-28 10 -28 10 -25.016 8.402 C-23.766 7.899 -22.511 7.411 -21.25 6.938 C-16.943 5.253 -12.923 3.479 -9 1 C-5.606 -0.656 -3.56 -1.543 0 0 Z " fill="#000000" transform="translate(245,169)"/>
<path d="M0 0 C3.684 3.29 5.841 6.601 8 11 C7.67 11.99 7.34 12.98 7 14 C5.828 12.045 4.663 10.086 3.5 8.125 C2.85 7.034 2.201 5.944 1.531 4.82 C0 2 0 2 0 0 Z " fill="#020202" transform="translate(284,187)"/>
<path d="M0 0 C2.762 2.762 2.579 5.207 3 9 C0.875 5.812 0.498 3.735 0 0 Z " fill="#030202" transform="translate(298,215)"/>
<path d="M0 0 C0.99 0.495 0.99 0.495 2 1 C2.625 4.062 2.625 4.062 3 7 C0 3.375 0 3.375 0 0 Z " fill="#000001" transform="translate(373,316)"/>
<path d="M0 0 C0.33 0 0.66 0 1 0 C1 1.65 1 3.3 1 5 C0.67 5 0.34 5 0 5 C0 3.35 0 1.7 0 0 Z " fill="#020203" transform="translate(384,359)"/>
<path d="M0 0 C0.33 0 0.66 0 1 0 C1 1.65 1 3.3 1 5 C0.67 5 0.34 5 0 5 C0 3.35 0 1.7 0 0 Z " fill="#000001" transform="translate(383,346)"/>
<path d="M0 0 C0.33 0 0.66 0 1 0 C1 1.65 1 3.3 1 5 C0.67 5 0.34 5 0 5 C0 3.35 0 1.7 0 0 Z " fill="#030303" transform="translate(303,233)"/>
<path d="M0 0 C0.99 0.495 0.99 0.495 2 1 C1.67 1.99 1.34 2.98 1 4 C0.67 2.68 0.34 1.36 0 0 Z " fill="#020102" transform="translate(293,203)"/>
<path d="M0 0 C0.66 0 1.32 0 2 0 C1.67 0.99 1.34 1.98 1 3 C0.67 2.01 0.34 1.02 0 0 Z " fill="#020202" transform="translate(282,184)"/>
<path d="M0 0 C0.99 0.495 0.99 0.495 2 1 C1.67 1.66 1.34 2.32 1 3 C0.67 2.01 0.34 1.02 0 0 Z " fill="#010101" transform="translate(370,311)"/>
<path d="M0 0 C1 4 1 4 1 4 Z " fill="#030303" transform="translate(302,228)"/>
<path d="" fill="#000000" transform="translate(0,0)"/>
<path d="" fill="#000000" transform="translate(0,0)"/>
<path d="" fill="#030202" transform="translate(0,0)"/>
<path d="" fill="#020202" transform="translate(0,0)"/>
<path d="" fill="#000002" transform="translate(0,0)"/>
<path d="" fill="#000000" transform="translate(0,0)"/>
<path d="" fill="#000001" transform="translate(0,0)"/>
<path d="" fill="#020203" transform="translate(0,0)"/>
<path d="" fill="#030202" transform="translate(0,0)"/>
<path d="" fill="#020202" transform="translate(0,0)"/>
<path d="" fill="#030303" transform="translate(0,0)"/>
<path d="" fill="#363B40" transform="translate(0,0)"/>
<path d="" fill="#34393E" transform="translate(0,0)"/>
<path d="" fill="#31363B" transform="translate(0,0)"/>
<path d="" fill="#363B40" transform="translate(0,0)"/>
<path d="" fill="#2E3134" transform="translate(0,0)"/>
<path d="" fill="#393F44" transform="translate(0,0)"/>
<path d="" fill="#272D32" transform="translate(0,0)"/>
<path d="" fill="#2E353C" transform="translate(0,0)"/>
<path d="" fill="#4C5157" transform="translate(0,0)"/>
<path d="" fill="#000001" transform="translate(0,0)"/>
<path d="" fill="#000001" transform="translate(0,0)"/>
<path d="" fill="#000000" transform="translate(0,0)"/>
<path d="" fill="#020203" transform="translate(0,0)"/>
<path d="" fill="#010101" transform="translate(0,0)"/>
<path d="" fill="#030303" transform="translate(0,0)"/>
<path d="" fill="#050506" transform="translate(0,0)"/>
<path d="" fill="#0A0B0C" transform="translate(0,0)"/>
<path d="" fill="#050506" transform="translate(0,0)"/>
<path d="" fill="#101115" transform="translate(0,0)"/>
</svg>
