<?xml version="1.0" encoding="UTF-8"?>
<!-- Generator: visioncortex VTracer 0.6.4 -->
<svg version="1.1" xmlns="http://www.w3.org/2000/svg" width="512" height="512">
<path d="M0 0 C3.491 0.741 5.088 2.704 7.191 5.465 C8.918 8.917 8.693 12.69 8.191 16.465 C6.191 19.527 6.191 19.527 4.191 21.465 C0.396 20.926 -0.886 19.51 -3.184 16.527 C-6.088 13.021 -8.21 11.362 -12.809 10.465 C-10.718 2.798 -8.051 -0.332 0 0 Z " fill="#7B7C80" transform="translate(240.80859375,86.53515625)"/>
<path d="M0 0 C2.375 0.375 2.375 0.375 4.375 2.375 C4.962 5.992 4.533 7.153 2.375 10.188 C1.715 10.909 1.055 11.631 0.375 12.375 C-4.08 11.385 -4.08 11.385 -8.625 10.375 C-7.224 5.237 -5.77 0.824 0 0 Z " fill="#B1B2B3" transform="translate(236.625,86.625)"/>
<path d="M0 0 C0.66 0.33 1.32 0.66 2 1 C2.412 4.603 2.154 5.784 0 8.812 C-0.66 9.534 -1.32 10.256 -2 11 C-6.455 10.01 -6.455 10.01 -11 9 C-10.67 8.34 -10.34 7.68 -10 7 C-7.75 6.438 -7.75 6.438 -5 6 C-2.5 5.5 -2.5 5.5 0 5 C0 3.35 0 1.7 0 0 Z " fill="#A1A3A6" transform="translate(239,88)"/>
<path d="M0 0 C0.33 0 0.66 0 1 0 C1 1.65 1 3.3 1 5 C0.67 5 0.34 5 0 5 C0 3.35 0 1.7 0 0 Z M-1 7 C-1.99 8.485 -1.99 8.485 -3 10 C-4.65 9.67 -6.3 9.34 -8 9 C-6.266 5.532 -4.41 5.863 -1 7 Z " fill="#8B8F95" transform="translate(240,89)"/>
<path d="M0 0 C2.31 0.66 4.62 1.32 7 2 C7 3.98 7 5.96 7 8 C4.352 5.422 2.056 3.084 0 0 Z " fill="#5B6370" transform="translate(235,99)"/>
</svg>
