<?xml version="1.0" encoding="UTF-8"?>
<!-- Generator: visioncortex VTracer 0.6.4 -->
<svg version="1.1" xmlns="http://www.w3.org/2000/svg" width="512" height="512">
<path d="M0 0 C2.592 3.177 4.781 6.557 7 10 C7.513 10.664 8.026 11.328 8.555 12.012 C12.805 17.738 12.661 23.069 12 30 C11.939 30.794 11.879 31.588 11.816 32.406 C11.5 34.5 11.5 34.5 10 38 C7.354 39.5 4.77 40.759 2 42 C0.96 42.478 -0.08 42.956 -1.152 43.449 C-4.294 44.888 -7.441 46.317 -10.59 47.74 C-14.257 49.397 -17.922 51.06 -21.586 52.723 C-22.353 53.071 -23.12 53.419 -23.911 53.777 C-38.633 60.461 -53.317 67.229 -68 74 C-68.638 74.294 -69.277 74.589 -69.934 74.892 C-85.074 81.876 -100.171 88.949 -115.25 96.062 C-116.421 96.615 -116.421 96.615 -117.616 97.178 C-119.854 98.233 -122.091 99.29 -124.328 100.348 C-124.985 100.658 -125.643 100.967 -126.32 101.287 C-126.951 101.585 -127.581 101.884 -128.231 102.192 C-128.846 102.482 -129.46 102.773 -130.093 103.072 C-131.45 103.732 -132.795 104.415 -134.132 105.112 C-134.835 105.478 -135.537 105.844 -136.261 106.22 C-136.893 106.557 -137.526 106.894 -138.178 107.241 C-141.494 108.622 -143.647 108.078 -147 107 C-149.931 105.277 -152.445 103.236 -155 101 C-156.114 100.045 -156.114 100.045 -157.25 99.07 C-160.469 96.116 -162.675 93.89 -164.188 89.75 C-163.795 81.909 -162.183 74.098 -157 68 C-153.404 64.852 -149.799 62.756 -145.5 60.688 C-138.465 57.253 -131.506 53.685 -124.563 50.068 C-64.275 18.69 -64.275 18.69 -37.355 7.477 C-32.586 5.378 -27.953 3.023 -23.326 0.626 C-15.686 -3.295 -7.456 -5.394 0 0 Z " fill="#8A8C8E" transform="translate(236,127)"/>
</svg>
