<?xml version="1.0" encoding="UTF-8"?>
<!-- Generator: visioncortex VTracer 0.6.4 -->
<svg version="1.1" xmlns="http://www.w3.org/2000/svg" width="512" height="512">
<path d="M0 0 C-0.287 1.543 -0.58 3.084 -0.875 4.625 C-1.037 5.484 -1.2 6.342 -1.367 7.227 C-1.576 8.142 -1.785 9.057 -2 10 C-2.197 11.017 -2.394 12.034 -2.598 13.082 C-4.615 17.279 -7.421 18.248 -11.562 20.062 C-13.015 20.738 -14.467 21.415 -15.918 22.094 C-16.62 22.416 -17.321 22.738 -18.044 23.07 C-21.279 24.608 -24.335 26.434 -27.398 28.285 C-27.927 28.521 -28.455 28.757 -29 29 C-29.66 28.67 -30.32 28.34 -31 28 C-30.43 26.1 -29.844 24.205 -29.25 22.312 C-28.925 21.257 -28.6 20.201 -28.266 19.113 C-25.519 12.358 -21.234 9.615 -15.062 6.312 C-14.008 5.728 -14.008 5.728 -12.932 5.131 C-3.573 0 -3.573 0 0 0 Z " fill="#0056B7" transform="translate(123,149)"/>
</svg>
