<?xml version="1.0" encoding="UTF-8"?>
<!-- Generator: visioncortex VTracer 0.6.4 -->
<svg version="1.1" xmlns="http://www.w3.org/2000/svg" width="512" height="512">
<path d="M0 0 C9.9 0 19.8 0 30 0 C30 10.23 30 20.46 30 31 C25.236 31.021 20.471 31.041 15.562 31.062 C14.058 31.072 12.553 31.081 11.002 31.09 C9.827 31.093 8.652 31.095 7.441 31.098 C6.232 31.103 5.022 31.108 3.776 31.114 C1 31 1 31 0 30 C-0.088 27.781 -0.107 25.56 -0.098 23.34 C-0.095 22.124 -0.093 20.909 -0.09 19.656 C-0.081 18.099 -0.072 16.542 -0.062 14.938 C-0.042 10.008 -0.021 5.079 0 0 Z " fill="#F3F3F0" transform="translate(177,277)"/>
<path d="M0 0 C1.65 0 3.3 0 5 0 C5 8.58 5 17.16 5 26 C4.34 26 3.68 26 3 26 C2.98 25.355 2.96 24.709 2.94 24.044 C2.845 21.112 2.735 18.181 2.625 15.25 C2.594 14.234 2.563 13.218 2.531 12.172 C2.493 11.192 2.454 10.212 2.414 9.203 C2.383 8.302 2.351 7.402 2.319 6.474 C1.989 3.912 1.29 2.219 0 0 Z " fill="#F0D269" transform="translate(202,277)"/>
</svg>
