<?xml version="1.0" encoding="UTF-8"?>
<!-- Generator: visioncortex VTracer 0.6.4 -->
<svg version="1.1" xmlns="http://www.w3.org/2000/svg" width="512" height="512">
<path d="M0 0 C1.394 1.968 1.394 1.968 2.457 4.359 C3.042 5.663 3.042 5.663 3.639 6.992 C4.026 7.902 4.413 8.812 4.812 9.75 C5.423 11.092 5.423 11.092 6.045 12.461 C8.29 17.578 9 20.14 9 26 C3.39 26 -2.22 26 -8 26 C-8.66 21.38 -9.32 16.76 -10 12 C-11.65 12 -13.3 12 -15 12 C-15.33 13.98 -15.66 15.96 -16 18 C-21.374 11.91 -22.271 6.856 -22 -1 C-14.825 -2.551 -6.705 -3.393 0 0 Z " fill="#717273" transform="translate(209,146)"/>
</svg>
