<?xml version="1.0" encoding="UTF-8"?>
<!-- Generator: visioncortex VTracer 0.6.4 -->
<svg version="1.1" xmlns="http://www.w3.org/2000/svg" width="512" height="512">
<path d="M0 0 C1.018 -0.001 1.018 -0.001 2.056 -0.003 C3.482 -0.004 4.907 -0.002 6.333 0.002 C8.523 0.008 10.712 0.002 12.902 -0.004 C14.289 -0.003 15.676 -0.002 17.062 0 C18.324 0.001 19.586 0.002 20.886 0.003 C23.766 0.133 23.766 0.133 24.766 1.133 C25.417 8.062 24.68 14.821 23.453 21.633 C23.335 22.315 23.218 22.997 23.097 23.699 C22.343 27.575 21.583 30.333 18.766 33.133 C15.978 33.619 15.978 33.619 12.637 33.594 C11.437 33.59 10.238 33.586 9.002 33.582 C7.748 33.558 6.495 33.533 5.203 33.508 C3.317 33.506 3.317 33.506 1.393 33.504 C-7.954 33.413 -7.954 33.413 -10.234 31.133 C-10.716 28.694 -11.08 26.346 -11.359 23.883 C-11.444 23.176 -11.529 22.47 -11.617 21.742 C-12.38 14.86 -12.429 8.055 -12.234 1.133 C-8.108 0.142 -4.237 0.004 0 0 Z " fill="#22272D" transform="translate(319.234375,341.8671875)"/>
</svg>
