<?xml version="1.0" encoding="UTF-8"?>
<!-- Generator: visioncortex VTracer 0.6.4 -->
<svg version="1.1" xmlns="http://www.w3.org/2000/svg" width="512" height="512">
<path d="M0 0 C-0.49 6.374 -0.49 6.374 -2.672 9.055 C-5.323 11.27 -7.82 12.531 -11 13.875 C-12.031 14.326 -13.062 14.777 -14.125 15.242 C-17 16 -17 16 -19.375 15.133 C-19.911 14.759 -20.447 14.385 -21 14 C-19.521 7.47 -19.521 7.47 -17.23 5.406 C-14.895 3.934 -12.623 2.842 -10.062 1.812 C-9.228 1.468 -8.394 1.124 -7.535 0.77 C-4.886 -0.035 -2.751 -0.143 0 0 Z " fill="#00A3E7" transform="translate(412,246)"/>
</svg>
