<?xml version="1.0" encoding="UTF-8"?>
<!-- Generator: visioncortex VTracer 0.6.4 -->
<svg version="1.1" xmlns="http://www.w3.org/2000/svg" width="512" height="512">
<path d="M0 0 C3.78 1.26 3.967 2.273 5.758 5.738 C6.28 6.737 6.803 7.735 7.341 8.764 C7.888 9.832 8.436 10.9 9 12 C9.55 13.048 10.1 14.097 10.667 15.177 C14.265 22.034 17.807 28.92 21.353 35.805 C22.768 38.55 24.192 41.291 25.617 44.031 C26.329 45.416 27.04 46.802 27.75 48.188 C28.343 49.336 28.936 50.485 29.547 51.668 C32.323 58.035 33.255 64.101 33.625 71 C33.683 72.019 33.683 72.019 33.742 73.059 C33.835 74.705 33.918 76.353 34 78 C32.187 75.28 30.641 72.564 29.094 69.688 C28.519 68.62 27.945 67.553 27.353 66.454 C26.741 65.314 26.13 64.174 25.5 63 C24.869 61.825 24.237 60.65 23.606 59.476 C18.671 50.284 13.745 41.086 8.949 31.82 C8.12 30.23 7.261 28.654 6.398 27.082 C4.535 22.975 3.429 18.797 2.312 14.438 C2.088 13.6 1.863 12.763 1.631 11.9 C0.579 7.863 -0.319 4.211 0 0 Z " fill="#000204" transform="translate(82,295)"/>
</svg>
