<?xml version="1.0" encoding="UTF-8"?>
<!-- Generator: visioncortex VTracer 0.6.4 -->
<svg version="1.1" xmlns="http://www.w3.org/2000/svg" width="512" height="512">
<path d="M0 0 C2.552 2.14 3.861 3.475 4.723 6.734 C5.217 12.557 3.431 17.748 1 23 C-2.641 26.902 -7.82 27.797 -13 28 C-15 26 -15 26 -15.047 23.758 C-14.949 22.889 -14.851 22.02 -14.75 21.125 C-14.662 20.261 -14.575 19.398 -14.484 18.508 C-13.98 15.898 -13.516 14.185 -12 12 C-9.688 10.762 -9.688 10.762 -7 9.688 C-3.35 8.089 -3.35 8.089 -0.898 5.125 C-0.275 3.003 -0.275 3.003 0 0 Z " fill="#959799" transform="translate(427,263)"/>
</svg>
