<?xml version="1.0" encoding="UTF-8"?>
<!-- Generator: visioncortex VTracer 0.6.4 -->
<svg version="1.1" xmlns="http://www.w3.org/2000/svg" width="512" height="512">
<path d="M0 0 C1.275 4.633 0.855 8.74 0.312 13.438 C0.246 14.175 0.18 14.913 0.111 15.674 C0.029 16.399 -0.052 17.124 -0.137 17.871 C-0.206 18.52 -0.275 19.169 -0.346 19.838 C-1.494 23.635 -3.281 26.836 -6.626 29.101 C-8.59 30.12 -10.574 31.013 -12.609 31.879 C-13.355 32.212 -14.1 32.546 -14.869 32.889 C-17.239 33.943 -19.618 34.972 -22 36 C-23.53 36.674 -25.059 37.35 -26.588 38.027 C-30.369 39.694 -34.162 41.332 -37.961 42.957 C-40.293 43.956 -42.621 44.963 -44.949 45.971 C-46.45 46.615 -47.952 47.259 -49.453 47.902 C-50.483 48.349 -50.483 48.349 -51.533 48.805 C-54.984 50.272 -58.259 51.564 -62 52 C-63.894 50.106 -63.133 47.372 -63.137 44.855 C-63.133 44.037 -63.129 43.218 -63.125 42.375 C-63.129 41.58 -63.133 40.784 -63.137 39.965 C-63.116 27.236 -63.116 27.236 -59.637 23.383 C-55.12 20.097 -49.928 18.044 -44.812 15.875 C-43.732 15.41 -42.652 14.945 -41.538 14.466 C-38.031 12.964 -34.516 11.481 -31 10 C-29.752 9.469 -28.504 8.937 -27.257 8.405 C-23.574 6.836 -19.882 5.291 -16.188 3.75 C-14.454 3.015 -14.454 3.015 -12.685 2.265 C-11.607 1.822 -10.529 1.379 -9.418 0.922 C-8.467 0.526 -7.516 0.13 -6.536 -0.278 C-3.85 -1.043 -2.581 -0.963 0 0 Z " fill="#242233" transform="translate(326,248)"/>
</svg>
