<?xml version="1.0" encoding="UTF-8"?>
<!-- Generator: visioncortex VTracer 0.6.4 -->
<svg version="1.1" xmlns="http://www.w3.org/2000/svg" width="512" height="512">
<path d="M0 0 C0.99 0 1.98 0 3 0 C3.392 1.093 3.784 2.186 4.188 3.312 C5.817 7.677 7.738 11.879 9.719 16.094 C10.711 18.345 11.567 20.554 12.391 22.867 C13.937 27.052 15.995 30.786 18.25 34.625 C21.783 40.769 25.05 46.99 28.18 53.352 C33.144 63.385 38.48 73.263 44 83 C44.628 84.123 45.256 85.246 45.902 86.402 C47.897 89.958 49.942 93.481 52 97 C52.455 97.81 52.91 98.619 53.379 99.453 C54.62 101.608 54.62 101.608 57 104 C62.706 105.343 66.591 102.894 71.488 100.246 C74.934 98.537 78.242 97.766 82 97 C84.413 100.62 84.36 102.564 84.438 106.875 C84.497 108.696 84.497 108.696 84.559 110.555 C83.839 114.994 82.493 116.233 79 119 C72.525 123.043 65.758 126.796 57.965 126.734 C51.469 124.306 48.528 117.032 45.5 111.312 C44.985 110.355 44.47 109.397 43.94 108.411 C39.368 99.841 35.025 91.157 30.71 82.455 C27.608 76.2 24.459 69.98 21.188 63.812 C20.616 62.728 20.616 62.728 20.032 61.621 C18.058 57.879 16.077 54.142 14.078 50.414 C12.273 47.048 10.486 43.673 8.707 40.294 C7.999 38.957 7.286 37.623 6.567 36.292 C-5.44 14.048 -5.44 14.048 -3.212 4.692 C-2 2 -2 2 0 0 Z " fill="#8C8E90" transform="translate(76,297)"/>
</svg>
