<?xml version="1.0" encoding="UTF-8"?>
<!-- Generator: visioncortex VTracer 0.6.4 -->
<svg version="1.1" xmlns="http://www.w3.org/2000/svg" width="512" height="512">
<path d="M0 0 C4.128 5.356 5.437 9.254 5 16 C-0.843 32.64 -14.074 45.094 -29.621 52.887 C-39.641 57.419 -50.011 60.665 -61 58 C-65.407 55.715 -68.19 53.069 -71 49 C-71.681 48.092 -72.361 47.185 -73.062 46.25 C-74.181 42.374 -73.7 41.646 -71.875 38.188 C-69.489 34.163 -69.489 34.163 -66 33 C-64.833 31.083 -64.833 31.083 -64 29 C-63.67 28.34 -63.34 27.68 -63 27 C-62.34 27 -61.68 27 -61 27 C-60.58 26.111 -60.58 26.111 -60.152 25.203 C-56.081 17.42 -49.043 12.895 -42 8 C-41.171 7.366 -40.342 6.732 -39.488 6.078 C-28.518 -2.189 -12.696 -7.719 0 0 Z M-45 28 C-47.525 32.175 -47.839 36.23 -47 41 C-44.75 43.55 -43.172 43.918 -39.828 44.152 C-30.86 43.824 -23.106 39.586 -16.938 33.188 C-13.755 29.185 -12.029 25.158 -12 20 C-12.992 16.98 -12.992 16.98 -15 15 C-26.686 11.105 -37.895 19 -45 28 Z " fill="#282E36" transform="translate(250,350)"/>
<path d="M0 0 C0.33 0.66 0.66 1.32 1 2 C-2.097 8.423 -2.097 8.423 -5.25 10.438 C-6.116 10.716 -6.116 10.716 -7 11 C-6.25 8.125 -6.25 8.125 -5 5 C-2.938 3.812 -2.938 3.812 -1 3 C-0.67 2.01 -0.34 1.02 0 0 Z " fill="#191D22" transform="translate(185,380)"/>
</svg>
