<?xml version="1.0" encoding="UTF-8"?>
<!-- Generator: visioncortex VTracer 0.6.4 -->
<svg version="1.1" xmlns="http://www.w3.org/2000/svg" width="512" height="512">
<path d="M0 0 C3.935 2.195 6.371 3.777 8 8 C8.334 12.715 7.605 16.772 4.625 20.5 C1.008 23.945 -1.978 24.406 -6.934 24.352 C-11.273 23.613 -13.835 20.589 -16.375 17.125 C-17.735 12.5 -17.524 9.09 -15.438 4.75 C-11.069 -0.179 -6.348 -2.026 0 0 Z " fill="#7E8186" transform="translate(153,307)"/>
<path d="M0 0 C2.743 3.2 4.63 6.005 6 10 C2.839 8.63 2.007 8.011 0 5 C-0.125 2.312 -0.125 2.312 0 0 Z " fill="#AAADB0" transform="translate(137,319)"/>
</svg>
