<?xml version="1.0" encoding="UTF-8"?>
<!-- Generator: visioncortex VTracer 0.6.4 -->
<svg version="1.1" xmlns="http://www.w3.org/2000/svg" width="512" height="512">
<path d="M0 0 C1 1 1 1 1.053 2.87 C0.941 5.497 0.821 8.124 0.688 10.75 C0.652 11.657 0.617 12.565 0.58 13.5 C0.515 14.823 0.515 14.823 0.449 16.172 C0.411 16.977 0.374 17.783 0.335 18.612 C-0.065 21.467 -0.589 23.47 -2 26 C-4.557 27.71 -4.557 27.71 -7.879 29.262 C-8.49 29.551 -9.101 29.841 -9.73 30.139 C-11.811 31.114 -13.903 32.06 -16 33 C-17.14 33.516 -17.14 33.516 -18.304 34.043 C-23.297 36.295 -28.31 38.5 -33.334 40.681 C-35.961 41.823 -38.583 42.972 -41.205 44.123 C-42.896 44.86 -44.586 45.596 -46.277 46.332 C-47.437 46.841 -47.437 46.841 -48.62 47.361 C-53.026 49.265 -57.354 50.788 -62 52 C-62.33 51.67 -62.66 51.34 -63 51 C-62.91 46.983 -62.426 42.993 -62 39 C-61.888 37.841 -61.776 36.682 -61.66 35.488 C-61.525 34.358 -61.389 33.227 -61.25 32.062 C-61.131 31.022 -61.013 29.982 -60.891 28.91 C-59.592 24.668 -57.057 22.145 -53.164 19.978 C-51.005 18.983 -48.827 18.074 -46.621 17.188 C-45.409 16.683 -45.409 16.683 -44.173 16.169 C-41.599 15.101 -39.019 14.05 -36.438 13 C-34.731 12.295 -33.024 11.59 -31.318 10.883 C-28.034 9.523 -24.745 8.174 -21.453 6.832 C-18.716 5.714 -15.993 4.573 -13.286 3.387 C-12.234 2.929 -11.182 2.471 -10.098 2 C-9.217 1.608 -8.337 1.216 -7.43 0.812 C-4.792 -0.07 -2.764 -0.231 0 0 Z " fill="#252435" transform="translate(412,211)"/>
</svg>
