<?xml version="1.0" encoding="UTF-8"?>
<!-- Generator: visioncortex VTracer 0.6.4 -->
<svg version="1.1" xmlns="http://www.w3.org/2000/svg" width="512" height="512">
<path d="M0 0 C2.97 3.564 3.095 5.245 2.906 9.719 C2.168 13.862 1.517 16.257 -1.977 18.809 C-7.841 21.843 -13.622 24.511 -19.828 26.777 C-28.814 30.093 -37.72 33.598 -46.625 37.125 C-48.307 37.79 -49.989 38.455 -51.671 39.119 C-61.562 43.031 -71.441 46.974 -81.312 50.938 C-95.093 56.469 -108.919 61.88 -122.761 67.256 C-124.485 67.926 -126.209 68.596 -127.934 69.266 C-128.767 69.589 -129.6 69.913 -130.458 70.247 C-135.289 72.127 -140.105 74.039 -144.91 75.984 C-146.491 76.62 -146.491 76.62 -148.104 77.269 C-149.945 78.012 -151.783 78.763 -153.617 79.526 C-159.54 81.906 -165.584 83.781 -171.988 82.504 C-176.54 80.155 -178.894 77.786 -180.875 73.02 C-181.775 70.11 -182.035 68.012 -181.5 65 C-178.705 60.787 -176.183 59.041 -171.527 57.172 C-170.923 56.926 -170.318 56.68 -169.695 56.426 C-167.637 55.598 -165.57 54.797 -163.5 54 C-162.384 53.567 -162.384 53.567 -161.244 53.126 C-156.142 51.156 -151.024 49.228 -145.901 47.312 C-140.93 45.452 -135.963 43.581 -130.996 41.711 C-129.453 41.13 -129.453 41.13 -127.878 40.538 C-116.778 36.358 -105.7 32.121 -94.625 27.875 C-92.66 27.122 -90.695 26.37 -88.729 25.617 C-79.349 22.022 -69.974 18.413 -60.609 14.777 C-31.492 3.479 -31.492 3.479 -20.062 -0.5 C-19.277 -0.785 -18.491 -1.07 -17.681 -1.364 C-11.566 -3.414 -5.594 -3.801 0 0 Z " fill="#737476" transform="translate(420.5,156)"/>
</svg>
