<?xml version="1.0" encoding="UTF-8"?>
<!-- Generator: visioncortex VTracer 0.6.4 -->
<svg version="1.1" xmlns="http://www.w3.org/2000/svg" width="512" height="512">
<path d="M0 0 C2.25 2.25 2.25 2.25 3.25 4.062 C3.25 7.688 2.794 9.924 1.25 13.25 C-1.566 15.101 -4.6 16.094 -7.75 17.25 C-9.031 17.843 -10.311 18.44 -11.59 19.039 C-17.57 21.717 -23.788 23.681 -30.01 25.708 C-45.824 30.862 -61.546 36.271 -77.25 41.75 C-93.731 47.499 -110.238 53.15 -126.826 58.584 C-127.867 58.927 -127.867 58.927 -128.929 59.276 C-130.761 59.879 -132.595 60.479 -134.428 61.078 C-137.954 62.322 -141.325 63.754 -144.75 65.25 C-157.256 69.713 -157.256 69.713 -163.438 67.125 C-167.391 63.919 -168.553 60.656 -169.25 55.688 C-168.602 51.234 -167.141 50.133 -163.75 47.25 C-160.781 45.886 -160.781 45.886 -157.388 44.813 C-156.435 44.504 -156.435 44.504 -155.463 44.188 C-154.06 43.734 -152.656 43.288 -151.25 42.847 C-148.08 41.853 -144.921 40.825 -141.761 39.799 C-139.995 39.226 -138.228 38.655 -136.461 38.085 C-125.608 34.579 -114.819 30.886 -104.022 27.211 C-96.703 24.725 -89.378 22.26 -82.053 19.793 C-75.757 17.672 -69.465 15.543 -63.177 13.399 C-56.982 11.286 -50.78 9.194 -44.574 7.113 C-42.24 6.328 -39.909 5.535 -37.581 4.735 C-8.845 -5.124 -8.845 -5.124 0 0 Z " fill="#717274" transform="translate(351.75,99.75)"/>
</svg>
