<?xml version="1.0" encoding="UTF-8"?>
<!-- Generator: visioncortex VTracer 0.6.4 -->
<svg version="1.1" xmlns="http://www.w3.org/2000/svg" width="512" height="512">
<path d="M0 0 C3.856 1.285 4.641 2.905 7 6.188 C7.807 7.294 8.616 8.4 9.426 9.504 C9.848 10.082 10.27 10.659 10.706 11.254 C12.808 14.09 14.997 16.857 17.188 19.625 C26.393 31.288 35.505 43.024 44.539 54.82 C46.345 57.166 48.178 59.489 50.023 61.805 C50.53 62.442 51.036 63.079 51.558 63.735 C52.538 64.967 53.522 66.195 54.51 67.421 C61.986 76.816 59.266 91.046 58.188 102.438 C58.117 103.26 58.047 104.082 57.975 104.93 C57.73 107.246 57.73 107.246 57 111 C56.01 111.66 55.02 112.32 54 113 C47.514 104.527 41.223 95.969 35.25 87.125 C31.352 81.358 27.374 75.788 22.938 70.418 C19.713 66.394 16.78 62.162 13.805 57.953 C9.988 52.554 6.092 47.212 2.202 41.865 C1.67 41.131 1.138 40.397 0.59 39.641 C0.114 38.986 -0.362 38.332 -0.852 37.657 C-5.685 30.682 -2.903 18.877 -2.062 10.812 C-1.976 9.975 -1.889 9.137 -1.8 8.274 C-1.132 2.263 -1.132 2.263 0 0 Z " fill="#1C1B25" transform="translate(175,192)"/>
</svg>
