<?xml version="1.0" encoding="UTF-8"?>
<!-- Generator: visioncortex VTracer 0.6.4 -->
<svg version="1.1" xmlns="http://www.w3.org/2000/svg" width="512" height="512">
<path d="M0 0 C0.674 -0.005 1.348 -0.01 2.042 -0.015 C4.259 -0.029 6.475 -0.028 8.692 -0.026 C10.24 -0.03 11.787 -0.034 13.335 -0.039 C16.576 -0.047 19.816 -0.046 23.057 -0.041 C27.2 -0.035 31.344 -0.052 35.487 -0.075 C38.683 -0.09 41.879 -0.091 45.074 -0.088 C46.602 -0.088 48.129 -0.094 49.657 -0.104 C51.796 -0.116 53.935 -0.109 56.074 -0.098 C57.897 -0.099 57.897 -0.099 59.756 -0.1 C63.65 0.336 67.255 1.427 70.102 4.275 C70.612 12.137 70.316 20.497 69.102 28.275 C66.617 30.759 65.177 30.514 61.787 30.535 C60.678 30.526 60.678 30.526 59.547 30.518 C58.768 30.519 57.989 30.521 57.186 30.523 C54.605 30.527 52.023 30.516 49.442 30.505 C47.653 30.504 45.865 30.503 44.077 30.504 C40.326 30.502 36.576 30.494 32.826 30.48 C28.008 30.463 23.19 30.46 18.372 30.46 C14.679 30.46 10.986 30.455 7.293 30.447 C5.516 30.444 3.739 30.442 1.962 30.442 C-0.516 30.439 -2.994 30.431 -5.473 30.42 C-6.214 30.42 -6.955 30.421 -7.719 30.421 C-12.784 30.389 -12.784 30.389 -13.898 29.275 C-14.595 20.166 -13.272 11.251 -11.898 2.275 C-7.81 0.333 -4.506 0.017 0 0 Z " fill="#242434" transform="translate(335.898193359375,264.725341796875)"/>
</svg>
