<?xml version="1.0" encoding="UTF-8"?>
<!-- Generator: visioncortex VTracer 0.6.4 -->
<svg version="1.1" xmlns="http://www.w3.org/2000/svg" width="512" height="512">
<path d="M0 0 C0.66 0.33 1.32 0.66 2 1 C2.815 3.86 3.505 6.66 4.125 9.562 C4.307 10.349 4.489 11.136 4.676 11.947 C6.372 19.682 6.602 26.19 4.188 33.875 C3.851 34.986 3.515 36.097 3.168 37.242 C2 40 2 40 -1 42 C-3.88 42.248 -6.621 42.37 -9.5 42.375 C-10.272 42.399 -11.044 42.424 -11.84 42.449 C-17.427 42.478 -17.427 42.478 -20.047 40.293 C-21.194 37.533 -21.159 35.887 -20.75 32.938 C-20.642 32.08 -20.533 31.223 -20.422 30.34 C-20 28 -20 28 -19 25 C-17.411 24.961 -17.411 24.961 -15.789 24.922 C-14.401 24.866 -13.013 24.808 -11.625 24.75 C-10.926 24.736 -10.228 24.722 -9.508 24.707 C-7.223 24.64 -7.223 24.64 -4 24 C-2.096 21.187 -1.667 18.575 -1.367 15.234 C-1.283 14.345 -1.2 13.455 -1.113 12.539 C-0.995 11.158 -0.995 11.158 -0.875 9.75 C-0.789 8.814 -0.702 7.878 -0.613 6.914 C-0.402 4.61 -0.198 2.305 0 0 Z " fill="#959799" transform="translate(430,315)"/>
</svg>
