<?xml version="1.0" encoding="UTF-8"?>
<!-- Generator: visioncortex VTracer 0.6.4 -->
<svg version="1.1" xmlns="http://www.w3.org/2000/svg" width="512" height="512">
<path d="M0 0 C0.33 0 0.66 0 1 0 C1.025 0.651 1.05 1.301 1.076 1.972 C1.192 4.919 1.315 7.866 1.438 10.812 C1.477 11.837 1.516 12.861 1.557 13.916 C1.599 14.899 1.64 15.882 1.684 16.895 C1.739 18.253 1.739 18.253 1.795 19.64 C1.921 22.15 1.921 22.15 3 25 C3.99 25.66 4.98 26.32 6 27 C5.67 27.66 5.34 28.32 5 29 C4.608 34.776 4.903 38.905 8 44 C12.562 46.737 16.601 47.319 21.844 47.75 C24.724 48.084 27.303 48.963 30 50 C30.495 49.01 30.495 49.01 31 48 C86.11 48 141.22 48 198 48 C199.607 51.215 199.057 54.436 199 58 C202.3 58 205.6 58 209 58 C209 54.7 209 51.4 209 48 C213.95 47.67 218.9 47.34 224 47 C224.801 49.581 225.591 52.164 226.375 54.75 C226.597 55.46 226.818 56.171 227.047 56.902 C230.236 67.502 231.314 78.113 231.668 89.141 C231.712 90.348 231.756 91.555 231.801 92.798 C231.891 95.329 231.978 97.86 232.06 100.392 C232.188 104.254 232.33 108.115 232.475 111.977 C232.561 114.448 232.646 116.919 232.73 119.391 C232.794 121.11 232.794 121.11 232.86 122.863 C232.893 123.945 232.927 125.027 232.962 126.142 C232.993 127.082 233.025 128.023 233.058 128.993 C232.987 132.678 232.457 136.342 232 140 C224.41 140 216.82 140 209 140 C208.67 142.64 208.34 145.28 208 148 C207.428 150.703 206.715 153.329 206 156 C209.63 156 213.26 156 217 156 C215.68 156.33 214.36 156.66 213 157 C212.34 160.3 211.68 163.6 211 167 C208.03 167 205.06 167 202 167 C201.769 166.143 201.539 165.286 201.301 164.402 C198.621 155.006 196.55 148.996 188.125 143.75 C186.427 142.814 184.72 141.895 183 141 C181.928 140.423 180.855 139.845 179.75 139.25 C161.437 133.146 141.184 135.38 123.758 143.116 C120.368 144.821 117.521 147.071 114.699 149.582 C113 151 113 151 110 152 C109.34 153.65 108.68 155.3 108 157 C106.68 160.3 105.36 163.6 104 167 C77.6 167 51.2 167 24 167 C22.68 164.03 21.36 161.06 20 158 C12.845 147.142 0.358 140.165 -12.09 137.285 C-20.654 135.835 -29.335 135.423 -38 135 C-38 134.67 -38 134.34 -38 134 C-35.187 133.945 -32.376 133.906 -29.562 133.875 C-28.779 133.858 -27.996 133.841 -27.189 133.824 C-21.542 133.778 -16.456 134.553 -11 136 C-11.012 134.737 -11.023 133.473 -11.035 132.172 C-11.181 109.666 -10.411 87.492 -7.585 65.165 C-6.079 53.204 -5.008 41.233 -4.127 29.211 C-3.373 19.33 -1.875 9.724 0 0 Z M1 25 C2 28 2 28 2 28 Z M19 85 C18.692 88.763 18.722 92.539 18.688 96.312 C18.658 97.371 18.629 98.43 18.6 99.521 C18.591 100.542 18.583 101.562 18.574 102.613 C18.56 103.55 18.545 104.486 18.53 105.45 C19.16 108.868 20.278 109.868 23 112 C26.162 112.613 26.162 112.613 29.74 112.533 C30.744 112.546 30.744 112.546 31.767 112.56 C33.971 112.582 36.174 112.575 38.379 112.566 C39.913 112.572 41.447 112.578 42.981 112.585 C46.193 112.596 49.405 112.591 52.617 112.576 C56.736 112.559 60.853 112.583 64.971 112.618 C68.138 112.64 71.304 112.638 74.471 112.63 C75.989 112.629 77.508 112.636 79.027 112.651 C81.148 112.668 83.267 112.654 85.389 112.631 C87.199 112.63 87.199 112.63 89.047 112.628 C92.178 112.29 92.178 112.29 93.871 109.642 C95.975 104.717 96.193 99.744 96.312 94.438 C96.35 93.343 96.387 92.249 96.426 91.121 C95.901 87.271 94.771 85.684 92 83 C88.71 81.835 85.524 81.867 82.057 81.855 C80.26 81.845 80.26 81.845 78.426 81.835 C77.134 81.834 75.843 81.833 74.512 81.832 C73.167 81.829 71.821 81.825 70.476 81.822 C67.658 81.816 64.839 81.814 62.021 81.815 C58.423 81.815 54.826 81.801 51.228 81.784 C48.449 81.773 45.67 81.771 42.891 81.771 C40.925 81.77 38.958 81.759 36.991 81.748 C27.414 81.276 27.414 81.276 19 85 Z M126 84 C124.054 87.892 124.218 92.589 123.812 96.875 C123.705 97.882 123.597 98.889 123.486 99.926 C123.394 100.896 123.302 101.867 123.207 102.867 C123.119 103.755 123.031 104.643 122.941 105.558 C123.007 108.302 123.447 109.747 125 112 C128.558 113.186 131.405 113.134 135.162 113.145 C135.887 113.149 136.613 113.152 137.36 113.155 C139.76 113.165 142.159 113.167 144.559 113.168 C146.226 113.171 147.894 113.175 149.562 113.178 C153.058 113.184 156.554 113.186 160.05 113.185 C164.53 113.185 169.01 113.199 173.491 113.216 C176.935 113.227 180.379 113.229 183.824 113.229 C185.475 113.23 187.127 113.234 188.779 113.242 C191.089 113.252 193.399 113.249 195.709 113.243 C197.023 113.244 198.338 113.246 199.692 113.247 C202.776 113.017 204.551 112.864 207 111 C207.651 107.853 207.9 105.193 208 102 C208.026 101.36 208.052 100.72 208.078 100.061 C208.158 97.915 208.208 95.771 208.25 93.625 C208.282 92.572 208.282 92.572 208.315 91.498 C208.352 87.554 208.352 87.554 206.672 84.086 C202.931 81.656 199.445 81.868 195.114 81.855 C194.417 81.851 193.721 81.848 193.004 81.845 C190.702 81.835 188.4 81.833 186.098 81.832 C184.497 81.829 182.897 81.825 181.296 81.822 C177.942 81.816 174.587 81.814 171.232 81.815 C166.933 81.815 162.635 81.801 158.336 81.784 C155.031 81.773 151.725 81.771 148.42 81.771 C146.835 81.77 145.25 81.766 143.665 81.758 C141.449 81.748 139.232 81.751 137.016 81.757 C135.755 81.756 134.494 81.754 133.194 81.753 C130.17 81.987 128.481 82.305 126 84 Z M57 122 C56.79 126.141 56.79 126.141 58 130 C62.093 130.049 66.187 130.086 70.28 130.11 C71.673 130.12 73.066 130.134 74.459 130.151 C76.46 130.175 78.46 130.185 80.461 130.195 C81.665 130.206 82.87 130.216 84.111 130.227 C87.128 130.305 87.128 130.305 89 128 C89.25 124.458 89.25 124.458 89 121 C86.375 118.375 78.783 119.814 75.25 119.812 C73.459 119.794 73.459 119.794 71.633 119.775 C70.48 119.773 69.328 119.772 68.141 119.77 C67.084 119.765 66.027 119.761 64.938 119.757 C61.919 120.007 59.732 120.727 57 122 Z M180.758 123.383 C179.957 126.149 179.876 127.378 181 130 C183.476 132.476 190.109 131.186 193.438 131.188 C194.513 131.2 195.589 131.212 196.697 131.225 C197.724 131.227 198.751 131.228 199.809 131.23 C200.755 131.235 201.702 131.239 202.677 131.243 C205.194 131.226 205.194 131.226 207 129 C207.25 125.458 207.25 125.458 207 122 C204.499 119.499 197.982 120.669 194.625 120.625 C193.558 120.588 192.49 120.55 191.391 120.512 C185.404 120.19 185.404 120.19 180.758 123.383 Z " fill="#005BBB" transform="translate(198,183)"/>
<path d="M0 0 C0.33 0 0.66 0 1 0 C1.22 8.628 0.553 17.052 -0.375 25.625 C-0.501 26.902 -0.628 28.18 -0.758 29.496 C-0.887 30.707 -1.016 31.917 -1.148 33.164 C-1.264 34.262 -1.379 35.36 -1.498 36.491 C-1.663 37.319 -1.829 38.147 -2 39 C-2.99 39.495 -2.99 39.495 -4 40 C-4.21 31.163 -3.59 22.586 -2.562 13.812 C-2.428 12.587 -2.293 11.362 -2.154 10.1 C-1.134 1.134 -1.134 1.134 0 0 Z " fill="#074593" transform="translate(194,224)"/>
<path d="M0 0 C0.33 0 0.66 0 1 0 C1.029 3.646 1.047 7.292 1.062 10.938 C1.071 11.978 1.079 13.019 1.088 14.092 C1.091 15.081 1.094 16.071 1.098 17.09 C1.103 18.006 1.108 18.923 1.114 19.867 C1 22 1 22 0 23 C-0.4 25.689 -0.751 28.364 -1.062 31.062 C-1.153 31.821 -1.244 32.58 -1.338 33.361 C-1.562 35.24 -1.782 37.12 -2 39 C-2.33 39 -2.66 39 -3 39 C-3.364 25.62 -2.916 13.086 0 0 Z " fill="#07408D" transform="translate(198,183)"/>
<path d="M0 0 C0.33 0 0.66 0 1 0 C1 3.3 1 6.6 1 10 C-1.97 10 -4.94 10 -8 10 C-7.67 7.03 -7.34 4.06 -7 1 C-4.03 1.495 -4.03 1.495 -1 2 C-0.67 1.34 -0.34 0.68 0 0 Z " fill="#44454E" transform="translate(229,231)"/>
<path d="M0 0 C17.82 0 35.64 0 54 0 C54 0.33 54 0.66 54 1 C36.18 1 18.36 1 0 1 C0 0.67 0 0.34 0 0 Z " fill="#2666A7" transform="translate(362,205)"/>
<path d="M0 0 C15.18 0 30.36 0 46 0 C46 0.33 46 0.66 46 1 C30.82 1 15.64 1 0 1 C0 0.67 0 0.34 0 0 Z " fill="#2A67A6" transform="translate(274,205)"/>
<path d="M0 0 C15.18 0 30.36 0 46 0 C46 0.33 46 0.66 46 1 C30.82 1 15.64 1 0 1 C0 0.67 0 0.34 0 0 Z " fill="#2F65A1" transform="translate(210,205)"/>
<path d="M0 0 C0.66 0.33 1.32 0.66 2 1 C1.67 1.99 1.34 2.98 1 4 C0.658 5.331 0.322 6.664 0 8 C-0.33 8 -0.66 8 -1 8 C-1.042 5.667 -1.041 3.333 -1 1 C-0.67 0.67 -0.34 0.34 0 0 Z " fill="#0F5CAA" transform="translate(390,152)"/>
<path d="M0 0 C2.64 0 5.28 0 8 0 C7.34 0.66 6.68 1.32 6 2 C2.875 1.625 2.875 1.625 0 1 C0 0.67 0 0.34 0 0 Z " fill="#2168B3" transform="translate(101,338)"/>
<path d="M0 0 C2.31 0 4.62 0 7 0 C7 0.33 7 0.66 7 1 C4.69 1 2.38 1 0 1 C0 0.67 0 0.34 0 0 Z " fill="#2D67A4" transform="translate(321,205)"/>
<path d="M0 0 C0.33 0 0.66 0 1 0 C1 2.31 1 4.62 1 7 C0.67 7 0.34 7 0 7 C0 4.69 0 2.38 0 0 Z " fill="#1158A4" transform="translate(233,152)"/>
<path d="M0 0 C0.99 0 1.98 0 3 0 C2.67 1.32 2.34 2.64 2 4 C1.34 2.68 0.68 1.36 0 0 Z " fill="#055DBB" transform="translate(222,152)"/>
<path d="M0 0 C0.33 0 0.66 0 1 0 C1 1.98 1 3.96 1 6 C0.67 6 0.34 6 0 6 C0 4.02 0 2.04 0 0 Z " fill="#012853" transform="translate(121,342)"/>
<path d="M0 0 C1.98 0 3.96 0 6 0 C6 0.33 6 0.66 6 1 C4.02 1 2.04 1 0 1 C0 0.67 0 0.34 0 0 Z " fill="#01326B" transform="translate(154,318)"/>
<path d="M0 0 C1.98 0 3.96 0 6 0 C6 0.33 6 0.66 6 1 C4.02 1 2.04 1 0 1 C0 0.67 0 0.34 0 0 Z " fill="#35689E" transform="translate(258,205)"/>
<path d="M0 0 C1.65 0 3.3 0 5 0 C5 0.33 5 0.66 5 1 C3.35 1 1.7 1 0 1 C0 0.67 0 0.34 0 0 Z " fill="#2D67A3" transform="translate(330,205)"/>
<path d="M0 0 C1.65 0 3.3 0 5 0 C5 0.33 5 0.66 5 1 C3.35 1 1.7 1 0 1 C0 0.67 0 0.34 0 0 Z " fill="#1E62AA" transform="translate(226,160)"/>
<path d="M0 0 C4 1 4 1 4 1 Z " fill="#003068" transform="translate(150,319)"/>
<path d="M0 0 C1 4 1 4 1 4 Z " fill="#084DA0" transform="translate(127,200)"/>
<path d="M0 0 C3 1 3 1 3 1 Z " fill="#34689F" transform="translate(266,205)"/>
<path d="" fill="#053E8C" transform="translate(0,0)"/>
<path d="" fill="#2267B3" transform="translate(0,0)"/>
<path d="" fill="#00316E" transform="translate(0,0)"/>
<path d="" fill="#003572" transform="translate(0,0)"/>
<path d="M0 0 C2 1 2 1 2 1 Z " fill="#013069" transform="translate(131,328)"/>
<path d="" fill="#276FC0" transform="translate(0,0)"/>
<path d="M0 0 C2 1 2 1 2 1 Z " fill="#003D84" transform="translate(139,323)"/>
<path d="M0 0 C2 1 2 1 2 1 Z " fill="#003778" transform="translate(144,321)"/>
<path d="M0 0 C2 1 2 1 2 1 Z " fill="#003474" transform="translate(147,320)"/>
<path d="M0 0 C2 1 2 1 2 1 Z " fill="#0D4892" transform="translate(122,208)"/>
<path d="M0 0 C2 1 2 1 2 1 Z " fill="#2561A7" transform="translate(205,207)"/>
<path d="M0 0 C2 1 2 1 2 1 Z " fill="#2561A6" transform="translate(207,206)"/>
<path d="M0 0 C2 1 2 1 2 1 Z " fill="#386A9D" transform="translate(354,205)"/>
<path d="M0 0 C2 1 2 1 2 1 Z " fill="#3068A1" transform="translate(346,205)"/>
<path d="M0 0 C2 1 2 1 2 1 Z " fill="#3269A0" transform="translate(338,205)"/>
<path d="M0 0 C2 1 2 1 2 1 Z " fill="#38699C" transform="translate(270,205)"/>
<path d="" fill="#0452AF" transform="translate(0,0)"/>
<path d="" fill="#0058BC" transform="translate(0,0)"/>
<path d="M0 0 C2 1 2 1 2 1 Z " fill="#1762AA" transform="translate(382,160)"/>
<path d="" fill="#0057BE" transform="translate(0,0)"/>
<path d="" fill="#035DB6" transform="translate(0,0)"/>
<path d="M0 0 C2 1 2 1 2 1 Z " fill="#2F639D" transform="translate(216,151)"/>
<path d="" fill="#3771AC" transform="translate(0,0)"/>
<path d="" fill="#A08D61" transform="translate(0,0)"/>
<path d="" fill="#E4B25C" transform="translate(0,0)"/>
<path d="" fill="#012E64" transform="translate(0,0)"/>
<path d="" fill="#013D86" transform="translate(0,0)"/>
<path d="" fill="#003C82" transform="translate(0,0)"/>
<path d="" fill="#A49372" transform="translate(0,0)"/>
<path d="" fill="#013B7E" transform="translate(0,0)"/>
<path d="" fill="#023675" transform="translate(0,0)"/>
<path d="" fill="#023878" transform="translate(0,0)"/>
<path d="" fill="#999180" transform="translate(0,0)"/>
<path d="" fill="#012352" transform="translate(0,0)"/>
<path d="" fill="#003D87" transform="translate(0,0)"/>
<path d="" fill="#012658" transform="translate(0,0)"/>
<path d="" fill="#004AA1" transform="translate(0,0)"/>
<path d="" fill="#01397A" transform="translate(0,0)"/>
<path d="" fill="#8E8A83" transform="translate(0,0)"/>
<path d="" fill="#105DAD" transform="translate(0,0)"/>
<path d="" fill="#0B4D9B" transform="translate(0,0)"/>
<path d="" fill="#0A4D9C" transform="translate(0,0)"/>
<path d="" fill="#0B4892" transform="translate(0,0)"/>
<path d="" fill="#1C5DAC" transform="translate(0,0)"/>
<path d="" fill="#3A68A2" transform="translate(0,0)"/>
<path d="" fill="#2762AC" transform="translate(0,0)"/>
<path d="" fill="#1962B9" transform="translate(0,0)"/>
<path d="" fill="#2A63AA" transform="translate(0,0)"/>
<path d="" fill="#004DAC" transform="translate(0,0)"/>
<path d="" fill="#2060AE" transform="translate(0,0)"/>
<path d="" fill="#2762AB" transform="translate(0,0)"/>
<path d="" fill="#2D64A8" transform="translate(0,0)"/>
<path d="" fill="#004EAE" transform="translate(0,0)"/>
<path d="" fill="#00479E" transform="translate(0,0)"/>
<path d="" fill="#004CA7" transform="translate(0,0)"/>
<path d="" fill="#0B5BB8" transform="translate(0,0)"/>
<path d="" fill="#114381" transform="translate(0,0)"/>
<path d="" fill="#084EA4" transform="translate(0,0)"/>
<path d="" fill="#114483" transform="translate(0,0)"/>
<path d="" fill="#005CB8" transform="translate(0,0)"/>
<path d="" fill="#0255B7" transform="translate(0,0)"/>
<path d="" fill="#005DB9" transform="translate(0,0)"/>
<path d="" fill="#0059B2" transform="translate(0,0)"/>
<path d="" fill="#0059B3" transform="translate(0,0)"/>
<path d="" fill="#4B6187" transform="translate(0,0)"/>
<path d="" fill="#2F5D90" transform="translate(0,0)"/>
<path d="" fill="#0058BE" transform="translate(0,0)"/>
<path d="" fill="#0056BA" transform="translate(0,0)"/>
<path d="" fill="#0359B4" transform="translate(0,0)"/>
<path d="" fill="#0055B8" transform="translate(0,0)"/>
</svg>
