<?xml version="1.0" encoding="UTF-8"?>
<!-- Generator: visioncortex VTracer 0.6.4 -->
<svg version="1.1" xmlns="http://www.w3.org/2000/svg" width="512" height="512">
<path d="M0 0 C6.104 4.682 12.064 9.254 13.188 17.188 C11.207 16.197 9.228 15.207 7.188 14.188 C7.15 15.056 7.113 15.925 7.074 16.82 C6.636 24.51 6.121 29.752 1 35.75 C-10.235 45.487 -23.071 48.064 -37.728 47.367 C-50.523 46.267 -63.674 41.625 -72.441 31.953 C-77.478 25.468 -77.16 19.025 -76.812 11.188 C-77.242 12.4 -77.242 12.4 -77.68 13.637 C-78.24 14.899 -78.24 14.899 -78.812 16.188 C-80.938 17 -80.938 17 -82.812 17.188 C-82.812 17.848 -82.812 18.507 -82.812 19.188 C-83.472 19.188 -84.132 19.188 -84.812 19.188 C-85.378 13.758 -84.522 10.673 -81.426 6.172 C-62.708 -16.851 -22.765 -15.808 0 0 Z M-50.812 16.188 C-53.275 19.881 -53.603 22.901 -52.812 27.188 C-49.387 32.049 -44.461 34.636 -38.812 36.188 C-31.108 37.121 -24.203 36.923 -17.812 32.188 C-15.055 29.688 -14.851 28.487 -14.375 24.75 C-14.901 20.467 -15.658 19.105 -18.812 16.188 C-27.84 9.764 -41.757 9.849 -50.812 16.188 Z " fill="#282F37" transform="translate(206.8125,328.8125)"/>
<path d="M0 0 C6.104 4.682 12.064 9.254 13.188 17.188 C11.453 16.454 9.72 15.718 7.992 14.969 C6.688 14.404 5.377 13.854 4.062 13.312 C1.36 11.691 -0.588 9.412 -2.812 7.188 C-7.665 3.063 -12.685 2.108 -18.789 0.898 C-21.812 0.188 -21.812 0.188 -23.734 -0.883 C-26.886 -2.293 -30.049 -2.108 -33.438 -2.062 C-34.152 -2.056 -34.867 -2.05 -35.604 -2.044 C-41.199 -1.94 -46.401 -1.276 -51.812 0.188 C-53.073 0.479 -53.073 0.479 -54.359 0.777 C-61.244 2.54 -67.144 5.527 -71.41 11.379 C-71.873 11.976 -72.336 12.573 -72.812 13.188 C-73.472 13.188 -74.132 13.188 -74.812 13.188 C-75.472 12.527 -76.132 11.868 -76.812 11.188 C-77.06 11.992 -77.308 12.796 -77.562 13.625 C-78.812 16.188 -78.812 16.188 -80.938 17 C-81.556 17.062 -82.175 17.124 -82.812 17.188 C-82.812 17.848 -82.812 18.507 -82.812 19.188 C-83.472 19.188 -84.132 19.188 -84.812 19.188 C-85.378 13.758 -84.522 10.673 -81.426 6.172 C-62.708 -16.851 -22.765 -15.808 0 0 Z " fill="#030305" transform="translate(206.8125,328.8125)"/>
<path d="M0 0 C0.99 0.33 1.98 0.66 3 1 C2.506 1.41 2.013 1.82 1.504 2.242 C0.863 2.781 0.223 3.32 -0.438 3.875 C-1.076 4.409 -1.714 4.942 -2.371 5.492 C-4.108 6.922 -4.108 6.922 -5 9 C-5.66 9 -6.32 9 -7 9 C-7.33 8.01 -7.66 7.02 -8 6 C-6.739 4.967 -5.466 3.949 -4.188 2.938 C-3.48 2.369 -2.772 1.801 -2.043 1.215 C-1.369 0.814 -0.695 0.413 0 0 Z " fill="#101116" transform="translate(139,333)"/>
<path d="M0 0 C5.442 0.34 8.937 3.703 13 7 C12.01 7.33 11.02 7.66 10 8 C9.01 7.34 8.02 6.68 7 6 C7 5.34 7 4.68 7 4 C6.402 3.897 5.804 3.794 5.188 3.688 C2.718 2.911 1.677 1.929 0 0 Z " fill="#181B20" transform="translate(195,331)"/>
<path d="" fill="#011122" transform="translate(0,0)"/>
</svg>
