<?xml version="1.0" encoding="UTF-8"?>
<!-- Generator: visioncortex VTracer 0.6.4 -->
<svg version="1.1" xmlns="http://www.w3.org/2000/svg" width="512" height="512">
<path d="M0 0 C24.75 0 49.5 0 75 0 C75 0.33 75 0.66 75 1 C50.25 1 25.5 1 0 1 C0 0.67 0 0.34 0 0 Z " fill="#0E4182" transform="translate(326,295)"/>
<path d="M0 0 C4.29 0 8.58 0 13 0 C13 0.33 13 0.66 13 1 C8.71 1 4.42 1 0 1 C0 0.67 0 0.34 0 0 Z " fill="#092E60" transform="translate(273,265)"/>
<path d="M0 0 C3.96 0 7.92 0 12 0 C12 0.33 12 0.66 12 1 C8.04 1 4.08 1 0 1 C0 0.67 0 0.34 0 0 Z " fill="#092F61" transform="translate(225,265)"/>
<path d="M0 0 C0.33 0 0.66 0 1 0 C1 2.64 1 5.28 1 8 C0.67 8 0.34 8 0 8 C0 5.36 0 2.72 0 0 Z " fill="#053E87" transform="translate(293,276)"/>
<path d="M0 0 C0.33 0 0.66 0 1 0 C1 1.65 1 3.3 1 5 C0.67 5 0.34 5 0 5 C0 3.35 0 1.7 0 0 Z " fill="#07387D" transform="translate(405,280)"/>
<path d="" fill="#093A7B" transform="translate(0,0)"/>
<path d="" fill="#0E3D7A" transform="translate(0,0)"/>
<path d="" fill="#09295E" transform="translate(0,0)"/>
<path d="" fill="#0C3C7C" transform="translate(0,0)"/>
<path d="M0 0 C2 1 2 1 2 1 Z " fill="#092D5D" transform="translate(241,265)"/>
<path d="" fill="#0B3879" transform="translate(0,0)"/>
<path d="" fill="#074696" transform="translate(0,0)"/>
<path d="" fill="#073276" transform="translate(0,0)"/>
<path d="" fill="#0D3471" transform="translate(0,0)"/>
<path d="" fill="#0A3B7F" transform="translate(0,0)"/>
<path d="" fill="#0B4184" transform="translate(0,0)"/>
<path d="" fill="#0F3977" transform="translate(0,0)"/>
<path d="" fill="#093571" transform="translate(0,0)"/>
<path d="" fill="#04275A" transform="translate(0,0)"/>
<path d="" fill="#062B5F" transform="translate(0,0)"/>
<path d="" fill="#053673" transform="translate(0,0)"/>
<path d="" fill="#082854" transform="translate(0,0)"/>
<path d="" fill="#0A2C5C" transform="translate(0,0)"/>
</svg>
