<?xml version="1.0" encoding="UTF-8"?>
<!-- Generator: visioncortex VTracer 0.6.4 -->
<svg version="1.1" xmlns="http://www.w3.org/2000/svg" width="512" height="512">
<path d="M0 0 C1.601 0.102 1.601 0.102 3.234 0.207 C15.047 1.401 25.255 5.884 34 14 C37.861 19.622 39.625 25.244 40 32 C34.125 28.375 34.125 28.375 33 25 C32.34 24.67 31.68 24.34 31 24 C31.046 24.629 31.093 25.258 31.141 25.906 C31.452 33.297 30.321 38.24 25.375 43.84 C14.109 54.566 -0.893 58.525 -16.115 58.352 C-26.926 57.976 -37.961 55.352 -45.66 47.254 C-49.568 41.774 -50.267 35.56 -51 29 C-52.98 29.33 -54.96 29.66 -57 30 C-54.751 19.794 -50.69 14.86 -41.826 9.078 C-29.422 1.754 -14.245 -0.96 0 0 Z M-27 30 C-28.75 33.937 -29.271 36.012 -28.125 40.188 C-25.23 44.019 -22.63 45.726 -18 47 C-8.788 48.011 -1.944 47.258 5.375 41.438 C8.285 38.735 8.883 38.05 9.312 34.188 C8.918 30.167 7.875 28.799 5 26 C-4.02 19.293 -19.538 22.099 -27 30 Z " fill="#293038" transform="translate(360,318)"/>
<path d="M0 0 C1.601 0.102 1.601 0.102 3.234 0.207 C15.047 1.401 25.255 5.884 34 14 C37.861 19.622 39.625 25.244 40 32 C34.125 28.375 34.125 28.375 33 25 C32.402 24.897 31.804 24.794 31.188 24.688 C27.774 23.615 26.853 20.954 25 18 C19.663 11.687 10.588 8.715 2.539 7.685 C-13.172 6.601 -29.104 8.298 -42 18 C-44.253 20.179 -46.126 22.496 -48 25 C-50.625 27.938 -50.625 27.938 -53 30 C-54.32 30 -55.64 30 -57 30 C-54.751 19.794 -50.69 14.86 -41.826 9.078 C-29.422 1.754 -14.245 -0.96 0 0 Z " fill="#010102" transform="translate(360,318)"/>
</svg>
