<?xml version="1.0" encoding="UTF-8"?>
<!-- Generator: visioncortex VTracer 0.6.4 -->
<svg version="1.1" xmlns="http://www.w3.org/2000/svg" width="512" height="512">
<path d="M0 0 C2.281 0.005 4.562 -0 6.843 -0.006 C14.261 -0.012 21.675 0.101 29.087 0.451 C30.363 0.508 31.64 0.564 32.956 0.623 C36.349 1.151 37.845 1.684 40.216 4.13 C41.525 9.342 41.151 14.13 40.466 19.38 C40.391 20.087 40.316 20.793 40.239 21.521 C39.612 26.54 39.612 26.54 38.076 28.829 C35.299 30.772 33.045 30.504 29.68 30.503 C29.022 30.506 28.363 30.51 27.684 30.514 C25.507 30.522 23.33 30.508 21.153 30.494 C19.64 30.493 18.127 30.494 16.614 30.495 C13.443 30.495 10.272 30.485 7.101 30.467 C3.036 30.444 -1.03 30.443 -5.095 30.45 C-8.22 30.453 -11.344 30.447 -14.468 30.437 C-15.967 30.433 -17.466 30.432 -18.966 30.434 C-21.06 30.434 -23.155 30.421 -25.249 30.405 C-26.442 30.4 -27.634 30.396 -28.862 30.391 C-31.784 30.13 -31.784 30.13 -34.784 28.13 C-36.323 23.516 -36.01 18.901 -36.034 14.068 C-36.065 12.539 -36.065 12.539 -36.097 10.98 C-36.102 10.007 -36.107 9.035 -36.113 8.033 C-36.122 7.141 -36.131 6.248 -36.141 5.329 C-35.964 4.241 -35.964 4.241 -35.784 3.13 C-32.198 0.74 -29.387 0.69 -25.226 0.513 C-24.099 0.457 -24.099 0.457 -22.949 0.399 C-15.301 0.049 -7.655 -0.021 0 0 Z " fill="#232232" transform="translate(252.784423828125,264.86962890625)"/>
</svg>
