<?xml version="1.0" encoding="UTF-8"?>
<!-- Generator: visioncortex VTracer 0.6.4 -->
<svg version="1.1" xmlns="http://www.w3.org/2000/svg" width="512" height="512">
<path d="M0 0 C1.134 0.021 2.269 0.041 3.438 0.062 C3.993 3.019 4.532 5.977 5.062 8.938 C5.222 9.779 5.382 10.621 5.547 11.488 C5.689 12.294 5.83 13.1 5.977 13.93 C6.113 14.673 6.249 15.417 6.389 16.183 C6.405 16.803 6.421 17.424 6.438 18.062 C4.438 20.062 4.438 20.062 1.812 20.188 C1.029 20.146 0.245 20.105 -0.562 20.062 C-2.799 16.391 -3.236 12.561 -3.75 8.375 C-3.845 7.686 -3.939 6.997 -4.037 6.287 C-4.261 4.551 -4.417 2.807 -4.562 1.062 C-3.562 0.062 -3.562 0.062 0 0 Z " fill="#252F39" transform="translate(121.5625,187.9375)"/>
<path d="M0 0 C2.31 0 4.62 0 7 0 C6.67 1.65 6.34 3.3 6 5 C4.188 5.625 4.188 5.625 2 6 C1.01 5.34 0.02 4.68 -1 4 C-0.67 2.68 -0.34 1.36 0 0 Z " fill="#0F1114" transform="translate(118,188)"/>
<path d="M0 0 C2.64 0 5.28 0 8 0 C7.67 0.99 7.34 1.98 7 3 C5.125 3.812 5.125 3.812 3 4 C2.01 3.34 1.02 2.68 0 2 C0 1.34 0 0.68 0 0 Z " fill="#1C2023" transform="translate(117,190)"/>
</svg>
