<?xml version="1.0" encoding="UTF-8"?>
<!-- Generator: visioncortex VTracer 0.6.4 -->
<svg version="1.1" xmlns="http://www.w3.org/2000/svg" width="512" height="512">
<path d="M0 0 C1.152 0.002 2.305 0.004 3.492 0.006 C5.283 0.024 5.283 0.024 7.109 0.043 C8.923 0.044 8.923 0.044 10.773 0.045 C19.719 0.09 19.719 0.09 20.859 1.23 C21.047 4.668 21.047 4.668 20.859 8.23 C18.859 10.23 18.859 10.23 15.97 10.458 C14.766 10.447 13.561 10.437 12.32 10.426 C10.367 10.416 10.367 10.416 8.375 10.406 C6.995 10.39 5.615 10.373 4.234 10.355 C2.846 10.345 1.458 10.336 0.07 10.328 C-3.334 10.304 -6.737 10.272 -10.141 10.23 C-11.495 7.522 -11.206 5.221 -11.141 2.23 C-7.278 0.432 -4.247 -0.017 0 0 Z " fill="#00A5DA" transform="translate(266.140625,302.76953125)"/>
</svg>
