<?xml version="1.0" encoding="UTF-8"?>
<!-- Generator: visioncortex VTracer 0.6.4 -->
<svg version="1.1" xmlns="http://www.w3.org/2000/svg" width="512" height="512">
<path d="M0 0 C0.66 2.64 1.32 5.28 2 8 C5.465 7.505 5.465 7.505 9 7 C9.33 4.69 9.66 2.38 10 0 C32.11 0 54.22 0 77 0 C77 12.388 77 12.388 76.449 18.379 C76.391 19.024 76.332 19.669 76.272 20.334 C76.082 22.41 75.885 24.486 75.688 26.562 C75.551 28.046 75.415 29.53 75.28 31.014 C74.684 37.428 74.056 43.829 73.203 50.215 C70.164 73.025 69.76 96.023 69 119 C68.4 118.931 67.799 118.861 67.181 118.79 C66.384 118.699 65.587 118.608 64.766 118.515 C63.98 118.425 63.194 118.335 62.384 118.242 C44.837 116.461 26.295 118.512 12.125 129.938 C6.668 135.01 4.56 139.636 3.492 146.926 C3.33 147.61 3.167 148.295 3 149 C-0.215 150.607 -3.436 150.057 -7 150 C-9.15 144.753 -10.333 140.899 -9.26 135.18 C-8.935 132.458 -9.181 129.967 -9.461 127.242 C-9.559 126.258 -9.658 125.275 -9.759 124.261 C-9.878 123.142 -9.878 123.142 -10 122 C-10.777 122.005 -11.554 122.01 -12.355 122.016 C-15.862 122.037 -19.368 122.05 -22.875 122.062 C-24.098 122.071 -25.322 122.079 -26.582 122.088 C-27.749 122.091 -28.915 122.094 -30.117 122.098 C-31.735 122.106 -31.735 122.106 -33.386 122.114 C-36 122 -36 122 -38 121 C-39.07 118.262 -39.07 118.262 -40.125 114.688 C-40.478 113.536 -40.831 112.385 -41.195 111.199 C-43.358 101.841 -41.873 92.72 -39.562 83.562 C-39.168 81.929 -39.168 81.929 -38.766 80.262 C-38.021 77.188 -37.264 74.117 -36.504 71.046 C-35.592 67.343 -34.702 63.634 -33.809 59.926 C-31.911 52.057 -29.991 44.193 -28.062 36.332 C-27.386 33.579 -26.713 30.825 -26.043 28.071 C-25.221 24.692 -24.393 21.314 -23.562 17.938 C-23.328 16.969 -23.093 16.001 -22.852 15.003 C-22.634 14.124 -22.416 13.245 -22.191 12.34 C-22.008 11.591 -21.824 10.842 -21.635 10.07 C-20.236 5.511 -18.603 3.097 -14.285 0.75 C-9.671 -0.764 -4.792 -0.283 0 0 Z M-28 58 C-30.448 61.784 -30.272 65.513 -29.68 69.844 C-28.489 73.62 -26.285 74.897 -23 77 C-22.01 77.33 -21.02 77.66 -20 78 C-18.902 80.836 -18.902 80.836 -17.938 84.375 C-16.908 88.105 -16.155 90.768 -14 94 C-10.182 93.725 -10.182 93.725 -7 92 C-7.065 90.475 -7.204 88.954 -7.375 87.438 C-7.47 86.535 -7.566 85.633 -7.664 84.703 C-7.871 83.042 -8.108 81.383 -8.398 79.734 C-9.3 74.487 -9.3 74.487 -7.5 71.562 C-5.525 68.189 -5.704 65.958 -6.312 62.16 C-7.208 59.347 -8.628 57.503 -11.055 55.809 C-16.61 53.499 -23.474 53.899 -28 58 Z " fill="#0056BC" transform="translate(118,200)"/>
</svg>
