<?xml version="1.0" encoding="UTF-8"?>
<!-- Generator: visioncortex VTracer 0.6.4 -->
<svg version="1.1" xmlns="http://www.w3.org/2000/svg" width="512" height="512">
<path d="M0 0 C0.507 1.894 1.006 3.79 1.5 5.688 C1.778 6.743 2.057 7.799 2.344 8.887 C2.95 11.763 3.368 14.085 3 17 C0 19 0 19 -2.688 18.625 C-3.832 18.316 -3.832 18.316 -5 18 C-5.672 15.897 -6.337 13.793 -7 11.688 C-7.557 9.93 -7.557 9.93 -8.125 8.137 C-9 5 -9 5 -9 2 C-2.25 0 -2.25 0 0 0 Z " fill="#262F38" transform="translate(108,275)"/>
</svg>
