<?xml version="1.0" encoding="UTF-8"?>
<!-- Generator: visioncortex VTracer 0.6.4 -->
<svg version="1.1" xmlns="http://www.w3.org/2000/svg" width="512" height="512">
<path d="M0 0 C1.049 -0.026 2.099 -0.052 3.18 -0.078 C6.488 0.29 7.824 0.873 10.125 3.25 C10.87 7.247 11.135 9.652 8.938 13.129 C7.802 14.437 6.616 15.702 5.396 16.932 C3.076 19.3 0.87 21.745 -1.344 24.215 C-9.194 32.857 -17.519 41.044 -25.782 49.288 C-28.57 52.07 -31.353 54.858 -34.135 57.646 C-35.927 59.438 -37.719 61.229 -39.512 63.02 C-40.333 63.843 -41.154 64.666 -42 65.514 C-46.227 69.724 -50.531 73.768 -55.052 77.661 C-57.74 80.004 -60.295 82.471 -62.836 84.973 C-63.353 85.481 -63.869 85.99 -64.402 86.514 C-65.477 87.575 -66.55 88.638 -67.623 89.702 C-68.714 90.782 -69.81 91.857 -70.91 92.928 C-72.52 94.496 -74.117 96.076 -75.711 97.66 C-76.2 98.132 -76.69 98.604 -77.194 99.091 C-80.318 102.235 -81.781 104.967 -82.875 109.25 C-85.845 109.745 -85.845 109.745 -88.875 110.25 C-88.875 109.59 -88.875 108.93 -88.875 108.25 C-89.741 108.168 -90.607 108.085 -91.5 108 C-95.431 107.126 -97.735 105.748 -100.875 103.25 C-103.425 99.033 -104.006 95.048 -102.875 90.25 C-100.64 86.9 -97.846 84.324 -94.875 81.625 C-94.131 80.913 -93.387 80.202 -92.621 79.469 C-88.404 75.465 -84.043 71.638 -79.652 67.827 C-77.29 65.731 -75.077 63.512 -72.875 61.25 C-69.29 57.621 -65.612 54.209 -61.738 50.895 C-59.87 49.246 -58.12 47.527 -56.375 45.75 C-54.045 43.378 -51.654 41.159 -49.125 39 C-45.717 36.067 -42.531 32.949 -39.375 29.75 C-35.663 25.987 -31.857 22.419 -27.832 18.992 C-25.597 17.003 -23.526 14.892 -21.438 12.75 C-8.992 0.132 -8.992 0.132 0 0 Z " fill="#717273" transform="translate(274.875,82.75)"/>
<path d="M0 0 C0.33 0.99 0.66 1.98 1 3 C-0.25 4.5 -0.25 4.5 -2 6 C-3.32 6 -4.64 6 -6 6 C-6 5.34 -6 4.68 -6 4 C-6.99 3.67 -7.98 3.34 -9 3 C-8.434 2.867 -7.868 2.734 -7.285 2.598 C-6.185 2.333 -6.185 2.333 -5.062 2.062 C-4.332 1.888 -3.601 1.714 -2.848 1.535 C-1 1.161 -1 1.161 0 0 Z " fill="#404144" transform="translate(192,187)"/>
</svg>
