<?xml version="1.0" encoding="UTF-8"?>
<!-- Generator: visioncortex VTracer 0.6.4 -->
<svg version="1.1" xmlns="http://www.w3.org/2000/svg" width="512" height="512">
<path d="M0 0 C0.33 0 0.66 0 1 0 C0.78 4.014 0.405 8.001 0 12 C-0.092 13.218 -0.183 14.436 -0.277 15.691 C-1.835 28.45 -8.381 36.949 -16 47 C-17.142 48.55 -18.281 50.102 -19.418 51.656 C-27.434 62.544 -27.434 62.544 -31 66 C-31.203 60.319 -30.929 54.719 -30.375 49.062 C-30.259 47.775 -30.143 46.487 -30.023 45.16 C-28.412 36.318 -21.454 28.638 -16.188 21.625 C-15.579 20.809 -14.971 19.992 -14.345 19.151 C-13.132 17.523 -11.916 15.897 -10.699 14.272 C-9.166 12.222 -7.643 10.166 -6.125 8.105 C-5.313 7.008 -4.5 5.91 -3.688 4.812 C-2.99 3.87 -2.293 2.928 -1.574 1.957 C-1.055 1.311 -0.535 0.665 0 0 Z " fill="#242436" transform="translate(338,220)"/>
<path d="M0 0 C0.33 0 0.66 0 1 0 C0.67 3.96 0.34 7.92 0 12 C-0.33 12 -0.66 12 -1 12 C-1.33 10.02 -1.66 8.04 -2 6 C-2.99 6.495 -2.99 6.495 -4 7 C-2.796 4.506 -1.546 2.319 0 0 Z " fill="#0F2550" transform="translate(338,220)"/>
</svg>
