<?xml version="1.0" encoding="UTF-8"?>
<!-- Generator: visioncortex VTracer 0.6.4 -->
<svg version="1.1" xmlns="http://www.w3.org/2000/svg" width="512" height="512">
<path d="M0 0 C6.012 0.639 11.455 2.262 17.191 4.133 C18.663 4.605 18.663 4.605 20.165 5.087 C23.299 6.094 26.431 7.11 29.562 8.125 C31.609 8.784 33.655 9.443 35.701 10.102 C39.765 11.409 43.828 12.72 47.891 14.032 C57.251 17.052 66.625 20.026 76 23 C75.06 24.264 74.119 25.526 73.177 26.788 C72.652 27.492 72.128 28.195 71.588 28.919 C69.279 31.945 66.812 34.818 64.312 37.688 C63.261 38.905 62.211 40.122 61.16 41.34 C60.634 41.948 60.109 42.556 59.567 43.183 C53.962 49.682 48.388 56.207 43.062 62.938 C39.308 67.678 35.374 72.249 31.424 76.826 C27.874 80.95 24.443 85.149 21.078 89.426 C19.472 91.415 17.843 93.36 16.172 95.293 C15.678 95.866 15.185 96.439 14.676 97.029 C13.712 98.144 12.743 99.254 11.767 100.36 C8.478 104.168 5.344 108.026 4.75 113.16 C5.234 116.841 5.847 118.787 8.062 121.875 C11.626 124.453 14.659 125.497 19 126 C20.131 126.142 21.261 126.284 22.426 126.43 C26.191 126.338 26.191 126.338 28.738 123.395 C29.619 122.217 30.476 121.022 31.312 119.812 C31.78 119.178 32.247 118.544 32.729 117.891 C33.697 116.576 34.657 115.255 35.608 113.928 C37.673 111.068 39.837 108.287 42 105.5 C42.826 104.425 43.651 103.349 44.477 102.273 C50.425 94.542 56.474 86.89 62.587 79.288 C67.407 73.293 72.113 67.237 76.699 61.059 C79.831 56.895 83.053 52.805 86.283 48.719 C88.137 46.373 89.973 44.038 91.695 41.594 C92.126 41.068 92.556 40.542 93 40 C93.66 40 94.32 40 95 40 C95.402 39.165 95.402 39.165 95.812 38.312 C97.101 35.803 98.529 33.407 100 31 C104.742 31.593 108.993 33.435 113 36 C118.453 44.179 114.51 60.804 113.676 70.321 C113.517 72.193 113.37 74.066 113.237 75.94 C111.915 94.436 111.915 94.436 105.562 102.839 C103.424 105.798 102.948 108.466 102.625 112.062 C102.022 117.955 102.022 117.955 101 120 C101.66 120 102.32 120 103 120 C102.34 123.3 101.68 126.6 101 130 C100.34 130 99.68 130 99 130 C98.67 130.99 98.34 131.98 98 133 C97.34 133 96.68 133 96 133 C95.34 131.35 94.68 129.7 94 128 C92.35 128 90.7 128 89 128 C88.67 128.66 88.34 129.32 88 130 C87.34 130 86.68 130 86 130 C85.736 130.717 85.471 131.433 85.199 132.172 C83.967 135.078 82.483 137.574 80.812 140.25 C74.095 151.71 70.024 163.65 66.562 176.438 C64.466 184.076 62.548 190.101 56.961 195.945 C54.803 198.206 53.266 200.53 51.625 203.188 C48.401 208.388 45.047 213.486 41.635 218.564 C39.783 221.322 37.948 224.082 36.168 226.887 C35.659 227.687 35.15 228.488 34.625 229.312 C33.995 230.328 33.995 230.328 33.352 231.363 C31.771 233.278 30.271 234.048 28 235 C27.67 233.02 27.34 231.04 27 229 C24.243 228.061 22.833 227.661 20 228 C11.58 232.783 6.722 241.874 2 250 C1.331 251.132 0.662 252.264 -0.027 253.43 C-9.211 269.495 -15.216 287.089 -19.52 305.019 C-21.612 313.646 -21.612 313.646 -24.125 315.938 C-24.744 316.288 -25.363 316.639 -26 317 C-27.32 315.68 -28.64 314.36 -30 313 C-29.34 312.01 -28.68 311.02 -28 310 C-27.858 307.398 -27.812 304.909 -27.875 302.312 C-27.884 301.611 -27.893 300.909 -27.902 300.186 C-27.926 298.457 -27.962 296.728 -28 295 C-28.508 295.785 -29.016 296.57 -29.539 297.379 C-39.876 313.155 -39.876 313.155 -43.875 314.746 C-50.306 315.514 -56.561 311.886 -61.707 308.406 C-66.538 305.444 -71.827 303.295 -77 301 C-77.33 303.31 -77.66 305.62 -78 308 C-78.33 308 -78.66 308 -79 308 C-79.049 306.903 -79.098 305.806 -79.148 304.676 C-79.224 303.221 -79.299 301.767 -79.375 300.312 C-79.406 299.591 -79.437 298.87 -79.469 298.127 C-79.739 292.284 -79.739 292.284 -82 287 C-84.545 285.348 -86.917 284.006 -89.625 282.688 C-90.385 282.302 -91.145 281.917 -91.927 281.52 C-94.278 280.332 -96.638 279.165 -99 278 C-100.374 277.309 -101.748 276.616 -103.121 275.922 C-106.418 274.259 -109.724 272.614 -113.034 270.975 C-116.277 269.367 -119.513 267.745 -122.75 266.125 C-124.057 265.471 -125.365 264.818 -126.672 264.164 C-134.781 260.109 -142.891 256.055 -151 252 C-150.67 255.63 -150.34 259.26 -150 263 C-156.734 259.671 -156.734 259.671 -159.51 258.25 C-162.781 256.578 -165.983 255.007 -169.406 253.66 C-172.47 252.371 -174.602 251.312 -177 249 C-179.914 241.795 -181.551 232.509 -179 225 C-175.345 217.704 -168.705 208.177 -161.223 204.715 C-160.489 204.479 -159.756 204.243 -159 204 C-158.608 205.134 -158.216 206.269 -157.812 207.438 C-156.41 211.18 -156.41 211.18 -153.375 212 C-152.591 212 -151.808 212 -151 212 C-149.216 210.216 -149.876 207.82 -149.867 205.445 C-149.949 202.945 -149.949 202.945 -150.508 200.305 C-151.77 193.112 -151.77 193.112 -149.355 189.625 C-147.188 187.5 -147.188 187.5 -144.98 185.656 C-142.778 183.973 -142.778 183.973 -141 181 C-140.34 181 -139.68 181 -139 181 C-138.773 180.444 -138.546 179.889 -138.312 179.316 C-136.623 176.335 -134.465 174.313 -132 171.938 C-129.318 169.345 -127.072 167.108 -125 164 C-124.34 164 -123.68 164 -123 164 C-122.66 163.196 -122.66 163.196 -122.312 162.375 C-121 160 -121 160 -118.456 157.436 C-115.115 153.456 -115.32 149.664 -115.398 144.648 C-115.386 143.306 -115.386 143.306 -115.374 141.935 C-115.351 139.082 -115.361 136.229 -115.375 133.375 C-115.401 114.424 -114.935 97.704 -101.062 83.301 C-99 82 -99 82 -96.402 82.195 C-94 83 -94 83 -91.562 84.562 C-88.497 86.282 -86.46 86.241 -83 86 C-82.671 85.019 -82.343 84.038 -82.004 83.027 C-79.796 77.881 -75.908 74.4 -71.938 70.562 C-71.205 69.831 -70.472 69.099 -69.717 68.346 C-64.281 63 -64.281 63 -62 63 C-61.691 62.165 -61.691 62.165 -61.375 61.312 C-59.864 58.772 -58.061 57.235 -55.73 55.441 C-50.868 51.391 -46.577 46.552 -42.133 42.056 C-38.882 38.77 -35.626 35.491 -32.368 32.213 C-29.899 29.727 -27.432 27.239 -24.971 24.745 C-22.123 21.858 -19.263 18.984 -16.402 16.109 C-15.52 15.212 -14.638 14.314 -13.729 13.389 C-12.492 12.152 -12.492 12.152 -11.23 10.89 C-10.508 10.161 -9.786 9.432 -9.042 8.681 C-6.911 6.927 -5.611 6.634 -3 6 C-1.216 3.016 -1.216 3.016 0 0 Z M104 59 C102.496 60.905 101.116 62.811 99.75 64.812 C96.675 69.241 93.557 73.619 90.297 77.914 C89.668 78.747 89.039 79.58 88.392 80.438 C87.151 82.077 85.903 83.71 84.647 85.337 C79.453 92.244 77.849 98.676 76.875 107.125 C76.789 107.815 76.702 108.504 76.613 109.215 C76.178 112.829 75.901 116.36 76 120 C80.366 115.924 83.745 111.43 87.188 106.562 C87.75 105.773 88.313 104.983 88.894 104.169 C90.042 102.558 91.19 100.945 92.335 99.332 C93.887 97.159 95.456 95 97.035 92.848 C97.726 91.9 97.726 91.9 98.431 90.933 C99.288 89.758 100.15 88.585 101.016 87.416 C104.239 82.965 105.074 79.646 105.316 74.234 C105.358 73.345 105.4 72.455 105.443 71.539 C105.483 70.619 105.522 69.698 105.562 68.75 C105.606 67.814 105.649 66.878 105.693 65.914 C105.799 63.61 105.901 61.305 106 59 C105.34 59 104.68 59 104 59 Z M103 90 C101.215 92.177 101.215 92.177 99.438 94.875 C98.817 95.78 98.197 96.685 97.559 97.617 C94.915 101.659 94.91 104.159 95 109 C99.84 106.947 101.882 103.706 104 99 C104.641 95.994 104.922 93.069 105 90 C104.34 90 103.68 90 103 90 Z M64 114 C62.894 115.315 61.833 116.667 60.789 118.031 C60.126 118.897 59.463 119.763 58.78 120.655 C50.1 132.104 50.1 132.104 41.688 143.75 C41.251 144.355 40.814 144.96 40.364 145.584 C36.214 151.589 33.82 158.191 33.312 165.5 C33.248 166.414 33.184 167.328 33.117 168.27 C32.949 172.187 32.936 176.079 33 180 C37.529 175.839 40.791 171.17 44.188 166.062 C50.751 156.232 50.751 156.232 53.965 152.203 C60.612 143.81 62.956 136.546 64 126 C64.126 124.786 64.253 123.571 64.383 122.32 C64.637 119.547 64.847 116.781 65 114 C64.67 114 64.34 114 64 114 Z M-104 115 C-106.861 117.861 -106.465 120.84 -106.625 124.688 C-106.66 125.442 -106.695 126.196 -106.731 126.974 C-106.799 128.541 -106.861 130.108 -106.917 131.675 C-106.971 133.18 -107.032 134.684 -107.103 136.188 C-107.196 138.208 -107.255 140.229 -107.312 142.25 C-107.35 143.431 -107.387 144.612 -107.426 145.828 C-106.872 149.956 -105.99 151.058 -103 154 C-99.432 155.999 -95.699 157.554 -91.93 159.133 C-90.821 159.61 -89.712 160.088 -88.569 160.579 C-85.01 162.108 -81.443 163.616 -77.875 165.125 C-75.559 166.116 -73.244 167.108 -70.93 168.102 C-61.614 172.093 -52.28 176.04 -42.941 179.977 C-30.934 185.041 -18.969 190.146 -7.145 195.627 C-6.153 196.074 -5.162 196.52 -4.141 196.98 C-3.29 197.371 -2.44 197.762 -1.563 198.165 C1.456 199.149 3.843 199.283 7 199 C9.948 196.052 9.47 192.779 9.625 188.812 C9.661 188.011 9.697 187.21 9.733 186.384 C9.836 183.923 9.92 181.462 10 179 C10.029 178.262 10.057 177.525 10.087 176.765 C10.161 174.74 10.206 172.713 10.25 170.688 C10.276 169.516 10.302 168.344 10.328 167.137 C9.951 163.529 9.126 161.917 7 159 C4.691 157.439 4.691 157.439 1.832 156.297 C0.668 155.792 -0.497 155.288 -1.697 154.768 C-3.13 154.175 -4.564 153.586 -6 153 C-6.85 152.652 -7.699 152.304 -8.575 151.946 C-15.802 149.001 -23.056 146.123 -30.312 143.25 C-45.112 137.381 -59.873 131.438 -74.554 125.279 C-88.841 118.251 -88.841 118.251 -104 115 Z M60 151 C50.586 161.221 50.586 161.221 46.688 174.062 C46.791 175.032 46.894 176.001 47 177 C50.306 175.898 50.64 175.469 52.445 172.691 C52.882 172.027 53.319 171.362 53.77 170.678 C54.217 169.98 54.664 169.282 55.125 168.562 C55.58 167.868 56.035 167.174 56.504 166.459 C60.131 161.109 60.131 161.109 61.062 154.875 C61.042 153.596 61.021 152.317 61 151 C60.67 151 60.34 151 60 151 Z M-47.75 231.625 C-49.679 235.289 -50.264 238.87 -50 243 C-48.511 245.779 -47.212 247.788 -45 250 C-44.587 253.392 -44.227 256.782 -43.926 260.186 C-43.717 262.137 -43.366 264.072 -43 266 C-40.244 268.266 -40.244 268.266 -37.438 267.875 C-34.911 267.241 -34.911 267.241 -33.836 265.258 C-32.856 262.611 -32.961 260.8 -33.188 258 C-33.25 255.328 -33.25 255.328 -33 253 C-30.688 250.75 -30.688 250.75 -28 249 C-25.155 244.585 -24.347 241.223 -25 236 C-27.435 231.129 -29.877 228.844 -35 227 C-40.585 226.316 -43.699 227.863 -47.75 231.625 Z " fill="#0058BC" transform="translate(274,106)"/>
<path d="M0 0 C0.784 0.041 1.567 0.083 2.375 0.125 C3.757 2.89 3.47 5.171 3.438 8.25 C3.428 9.346 3.419 10.441 3.41 11.57 C3.399 12.413 3.387 13.256 3.375 14.125 C2.385 14.455 1.395 14.785 0.375 15.125 C-0.285 13.475 -0.945 11.825 -1.625 10.125 C-3.275 10.125 -4.925 10.125 -6.625 10.125 C-6.955 10.785 -7.285 11.445 -7.625 12.125 C-8.285 12.125 -8.945 12.125 -9.625 12.125 C-9.889 12.842 -10.154 13.558 -10.426 14.297 C-11.658 17.203 -13.142 19.699 -14.812 22.375 C-19.304 29.924 -22.441 37.957 -25.625 46.125 C-26.697 42.921 -26.612 41.316 -25.219 38.254 C-24.891 37.521 -24.562 36.788 -24.224 36.033 C-23.862 35.259 -23.499 34.485 -23.125 33.688 C-22.758 32.887 -22.39 32.087 -22.012 31.262 C-7.674 0.365 -7.674 0.365 0 0 Z " fill="#000205" transform="translate(369.625,223.875)"/>
<path d="M0 0 C0.33 0.66 0.66 1.32 1 2 C-0.271 4.252 -1.595 6.396 -3 8.562 C-8.075 16.645 -11.613 25.103 -15 34 C-16.089 30.763 -15.967 29.15 -14.559 26.059 C-14.225 25.315 -13.891 24.571 -13.547 23.804 C-13.181 23.023 -12.815 22.242 -12.438 21.438 C-12.071 20.638 -11.705 19.838 -11.328 19.014 C-3.284 1.642 -3.284 1.642 0 0 Z " fill="#000810" transform="translate(359,236)"/>
<path d="M0 0 C0.33 0.99 0.66 1.98 1 3 C0.01 4.485 0.01 4.485 -1 6 C-7.125 6.438 -7.125 6.438 -10 5 C-9.67 4.01 -9.34 3.02 -9 2 C-7.329 2.062 -7.329 2.062 -5.625 2.125 C-1.956 2.411 -1.956 2.411 0 0 Z " fill="#40495A" transform="translate(302,230)"/>
<path d="M0 0 C0.66 0 1.32 0 2 0 C1.34 3.3 0.68 6.6 0 10 C-0.33 10 -0.66 10 -1 10 C-1.125 2.25 -1.125 2.25 0 0 Z " fill="#0665C0" transform="translate(375,226)"/>
<path d="M0 0 C0.33 0 0.66 0 1 0 C1 2.31 1 4.62 1 7 C0.34 6.67 -0.32 6.34 -1 6 C-0.67 4.02 -0.34 2.04 0 0 Z " fill="#332913" transform="translate(196,415)"/>
<path d="" fill="#524A30" transform="translate(0,0)"/>
<path d="" fill="#685211" transform="translate(0,0)"/>
<path d="" fill="#93918B" transform="translate(0,0)"/>
<path d="" fill="#B1945D" transform="translate(0,0)"/>
<path d="" fill="#B99351" transform="translate(0,0)"/>
<path d="" fill="#AA9369" transform="translate(0,0)"/>
<path d="" fill="#AF905B" transform="translate(0,0)"/>
<path d="" fill="#AC8E5B" transform="translate(0,0)"/>
<path d="" fill="#ADADAE" transform="translate(0,0)"/>
<path d="" fill="#9B9383" transform="translate(0,0)"/>
<path d="" fill="#AB9268" transform="translate(0,0)"/>
<path d="" fill="#999B9E" transform="translate(0,0)"/>
<path d="" fill="#B2B4B6" transform="translate(0,0)"/>
<path d="" fill="#B3945D" transform="translate(0,0)"/>
<path d="" fill="#ABADAF" transform="translate(0,0)"/>
<path d="" fill="#A9ABAD" transform="translate(0,0)"/>
<path d="" fill="#AF9362" transform="translate(0,0)"/>
<path d="" fill="#A0A3A6" transform="translate(0,0)"/>
<path d="" fill="#929498" transform="translate(0,0)"/>
<path d="" fill="#9F9D93" transform="translate(0,0)"/>
<path d="" fill="#8C9196" transform="translate(0,0)"/>
<path d="" fill="#F5CC82" transform="translate(0,0)"/>
<path d="" fill="#4A4C4D" transform="translate(0,0)"/>
<path d="" fill="#19191A" transform="translate(0,0)"/>
<path d="" fill="#1E1F1F" transform="translate(0,0)"/>
<path d="" fill="#262728" transform="translate(0,0)"/>
<path d="" fill="#343536" transform="translate(0,0)"/>
<path d="" fill="#373839" transform="translate(0,0)"/>
<path d="" fill="#3A3B3C" transform="translate(0,0)"/>
<path d="" fill="#424344" transform="translate(0,0)"/>
<path d="" fill="#484A4B" transform="translate(0,0)"/>
<path d="" fill="#151515" transform="translate(0,0)"/>
<path d="" fill="#161717" transform="translate(0,0)"/>
<path d="" fill="#191A1A" transform="translate(0,0)"/>
<path d="" fill="#1F2020" transform="translate(0,0)"/>
<path d="" fill="#262627" transform="translate(0,0)"/>
<path d="" fill="#303132" transform="translate(0,0)"/>
<path d="" fill="#333435" transform="translate(0,0)"/>
<path d="" fill="#111112" transform="translate(0,0)"/>
<path d="" fill="#19191A" transform="translate(0,0)"/>
<path d="" fill="#1D1D1E" transform="translate(0,0)"/>
<path d="" fill="#222223" transform="translate(0,0)"/>
<path d="" fill="#191A1A" transform="translate(0,0)"/>
<path d="" fill="#1E1F20" transform="translate(0,0)"/>
<path d="" fill="#2D2D2E" transform="translate(0,0)"/>
<path d="" fill="#252627" transform="translate(0,0)"/>
<path d="" fill="#313233" transform="translate(0,0)"/>
<path d="" fill="#343637" transform="translate(0,0)"/>
<path d="" fill="#060602" transform="translate(0,0)"/>
<path d="" fill="#54544F" transform="translate(0,0)"/>
<path d="" fill="#B3B0A4" transform="translate(0,0)"/>
<path d="" fill="#8F9194" transform="translate(0,0)"/>
<path d="" fill="#5D5740" transform="translate(0,0)"/>
<path d="" fill="#B1B3B4" transform="translate(0,0)"/>
<path d="" fill="#B0B2B3" transform="translate(0,0)"/>
<path d="" fill="#ABADAF" transform="translate(0,0)"/>
<path d="" fill="#A3A5A7" transform="translate(0,0)"/>
<path d="" fill="#9A9DA0" transform="translate(0,0)"/>
<path d="" fill="#BA9148" transform="translate(0,0)"/>
<path d="" fill="#AC9160" transform="translate(0,0)"/>
<path d="" fill="#F0CF90" transform="translate(0,0)"/>
<path d="" fill="#A39270" transform="translate(0,0)"/>
<path d="" fill="#EEBF61" transform="translate(0,0)"/>
<path d="" fill="#10498B" transform="translate(0,0)"/>
<path d="" fill="#1E1F21" transform="translate(0,0)"/>
<path d="" fill="#15171B" transform="translate(0,0)"/>
</svg>
