<?xml version="1.0" encoding="UTF-8"?>
<!-- Generator: visioncortex VTracer 0.6.4 -->
<svg version="1.1" xmlns="http://www.w3.org/2000/svg" width="512" height="512">
<path d="M0 0 C0.33 0 0.66 0 1 0 C1.35 9.655 0.213 16.389 -6 24 C-6.66 24 -7.32 24 -8 24 C-7.289 14.698 -6.623 7.125 0 0 Z " fill="#EAF0F3" transform="translate(383,202)"/>
<path d="M0 0 C0.219 6.055 0.207 11.308 -2 17 C-3.574 18.691 -3.574 18.691 -5 20 C-4.913 17.415 -4.806 14.834 -4.688 12.25 C-4.665 11.52 -4.642 10.791 -4.619 10.039 C-4.117 0 -4.117 0 0 0 Z " fill="#F0AE2C" transform="translate(384,202)"/>
<path d="M0 0 C0.99 0 1.98 0 3 0 C3.25 6.625 3.25 6.625 1 10 C0.34 10 -0.32 10 -1 10 C-0.67 6.7 -0.34 3.4 0 0 Z " fill="#D6E4F0" transform="translate(376,216)"/>
<path d="M0 0 C0.33 0 0.66 0 1 0 C0.886 1.48 0.759 2.959 0.625 4.438 C0.521 5.673 0.521 5.673 0.414 6.934 C0.277 7.616 0.141 8.297 0 9 C-0.99 9.495 -0.99 9.495 -2 10 C-3.349 4.603 -3.349 4.603 -1.625 1.625 C-1.089 1.089 -0.553 0.553 0 0 Z " fill="#E6A821" transform="translate(383,202)"/>
</svg>
