<?xml version="1.0" encoding="UTF-8"?>
<!-- Generator: visioncortex VTracer 0.6.4 -->
<svg version="1.1" xmlns="http://www.w3.org/2000/svg" width="512" height="512">
<path d="M0 0 C1.397 6.085 2.447 11.745 2 18 C1.34 18.66 0.68 19.32 0 20 C-3.297 19.67 -4.623 19.377 -7 17 C-7.624 14.451 -8.159 11.953 -8.625 9.375 C-8.759 8.669 -8.893 7.962 -9.031 7.234 C-9.361 5.491 -9.681 3.746 -10 2 C-3.375 -1.125 -3.375 -1.125 0 0 Z " fill="#26313A" transform="translate(123,299)"/>
<path d="M0 0 C-0.875 4.875 -0.875 4.875 -2 6 C-4 6.041 -6 6.043 -8 6 C-8 4.68 -8 3.36 -8 2 C-2.25 0 -2.25 0 0 0 Z " fill="#1E2225" transform="translate(122,298)"/>
<path d="M0 0 C0.33 0.99 0.66 1.98 1 3 C0 4 0 4 -3.562 4.062 C-4.697 4.042 -5.831 4.021 -7 4 C-6 2 -6 2 -2.938 0.875 C-1.483 0.442 -1.483 0.442 0 0 Z " fill="#101316" transform="translate(120,298)"/>
</svg>
