<?xml version="1.0" encoding="UTF-8"?>
<!-- Generator: visioncortex VTracer 0.6.4 -->
<svg version="1.1" xmlns="http://www.w3.org/2000/svg" width="512" height="512">
<path d="M0 0 C2 3 2 3 2.652 4.91 C4.808 8.253 8.105 9.61 11.562 11.438 C12.581 11.991 12.581 11.991 13.619 12.557 C15.018 13.317 16.419 14.074 17.823 14.826 C20.059 16.032 22.278 17.264 24.496 18.504 C28.798 20.9 33.139 23.214 37.5 25.5 C38.705 26.133 38.705 26.133 39.934 26.78 C44.622 29.24 49.317 31.685 54.02 34.117 C56.117 35.203 58.215 36.289 60.312 37.375 C61.373 37.924 62.434 38.473 63.527 39.039 C70.409 42.614 77.217 46.304 84 50.062 C94.878 56.07 106.019 61.515 117.295 66.734 C119.038 67.55 120.768 68.392 122.482 69.266 C126.181 71.092 128.612 71.988 132.797 72.117 C136.987 70.656 138.018 68.909 140.25 65.125 C144.324 58.362 144.324 58.362 147 56 C148.996 57.027 148.996 57.027 151 59 C151.275 61.72 151.301 63.88 151.062 66.562 C151.007 67.28 150.951 67.997 150.894 68.736 C150.27 74.95 148.43 79.763 145 85 C144.594 85.678 144.188 86.356 143.77 87.055 C141.12 91.188 138.696 93.527 134 95 C128.03 94.652 123.767 93.293 118.539 90.484 C117.854 90.129 117.169 89.774 116.463 89.407 C114.302 88.283 112.151 87.142 110 86 C108.627 85.282 107.253 84.565 105.878 83.85 C101.7 81.669 97.537 79.461 93.375 77.25 C91.867 76.451 90.359 75.651 88.852 74.852 C80.032 70.17 71.245 65.433 62.495 60.623 C54.71 56.356 46.863 52.211 39.011 48.069 C34.626 45.754 30.246 43.43 25.865 41.107 C22.842 39.503 19.816 37.904 16.784 36.315 C14.224 34.974 11.673 33.615 9.125 32.25 C8.431 31.893 7.737 31.536 7.022 31.167 C1.594 28.217 -0.982 24.733 -3.117 19 C-5.677 8.867 -5.677 8.867 -3 4 C-1.375 1.625 -1.375 1.625 0 0 Z " fill="#8C8D90" transform="translate(98,364)"/>
</svg>
