<?xml version="1.0" encoding="UTF-8"?>
<!-- Generator: visioncortex VTracer 0.6.4 -->
<svg version="1.1" xmlns="http://www.w3.org/2000/svg" width="512" height="512">
<path d="M0 0 C4.634 2.268 4.634 2.268 6 5 C6.644 18.089 -1.541 26.369 -9.551 36.023 C-16.303 44.23 -22.766 52.674 -29.232 61.107 C-34.1 67.448 -39.052 73.722 -44 80 C-45.772 82.249 -47.542 84.499 -49.312 86.75 C-49.755 87.312 -50.197 87.874 -50.653 88.453 C-53.313 91.838 -55.958 95.233 -58.594 98.637 C-59.211 99.433 -59.828 100.229 -60.464 101.05 C-61.662 102.597 -62.859 104.146 -64.054 105.696 C-66.722 109.142 -69.414 112.568 -72.184 115.934 C-72.863 116.764 -72.863 116.764 -73.556 117.611 C-76.295 120.245 -79.271 120.967 -83 121 C-87.935 120.264 -91.787 119.065 -95.562 115.75 C-97.612 111.828 -98.706 108.53 -97.477 104.125 C-95.125 98.774 -91.305 94.789 -87.352 90.559 C-85.159 88.173 -83.129 85.732 -81.125 83.188 C-78.015 79.242 -74.818 75.387 -71.562 71.562 C-68.168 67.573 -64.806 63.563 -61.5 59.5 C-57.751 54.895 -53.929 50.358 -50.084 45.834 C-47.205 42.44 -44.368 39.017 -41.562 35.562 C-36.69 29.583 -31.672 23.735 -26.631 17.898 C-24.905 15.889 -23.194 13.867 -21.484 11.844 C-20.323 10.479 -19.162 9.114 -18 7.75 C-17.46 7.106 -16.92 6.462 -16.364 5.798 C-15.852 5.199 -15.34 4.601 -14.812 3.984 C-14.365 3.456 -13.918 2.927 -13.457 2.382 C-9.334 -1.528 -5.309 -1.306 0 0 Z " fill="#737476" transform="translate(376,112)"/>
</svg>
