<?xml version="1.0" encoding="UTF-8"?>
<!-- Generator: visioncortex VTracer 0.6.4 -->
<svg version="1.1" xmlns="http://www.w3.org/2000/svg" width="512" height="512">
<path d="M0 0 C2.605 1.289 5.209 2.581 7.812 3.875 C8.55 4.24 9.288 4.605 10.049 4.98 C10.761 5.335 11.473 5.689 12.207 6.055 C12.862 6.379 13.516 6.704 14.191 7.039 C18.826 9.502 18.826 9.502 19.949 12.715 C20.315 14.31 20.315 14.31 20.688 15.938 C20.939 16.998 21.19 18.059 21.449 19.152 C22 22 22 22 22 25 C15.218 24.033 8.079 20.67 3 16 C0.303 10.773 0 5.799 0 0 Z " fill="#EDEEEB" transform="translate(105,359)"/>
</svg>
