<?xml version="1.0" encoding="UTF-8"?>
<!-- Generator: visioncortex VTracer 0.6.4 -->
<svg version="1.1" xmlns="http://www.w3.org/2000/svg" width="512" height="512">
<path d="M0 0 C3.062 0.125 3.062 0.125 5.062 1.125 C5.089 4.083 5.109 7.042 5.125 10 C5.133 10.842 5.142 11.684 5.15 12.551 C5.154 13.356 5.157 14.162 5.16 14.992 C5.165 15.736 5.171 16.479 5.176 17.246 C5.062 19.125 5.062 19.125 4.062 21.125 C1.752 21.125 -0.558 21.125 -2.938 21.125 C-3.133 17.813 -3.318 14.5 -3.5 11.188 C-3.556 10.242 -3.612 9.296 -3.67 8.322 C-3.718 7.423 -3.767 6.524 -3.816 5.598 C-3.864 4.765 -3.911 3.932 -3.959 3.074 C-3.923 -0.145 -3.24 0.138 0 0 Z " fill="#272F36" transform="translate(101.9375,217.875)"/>
<path d="M0 0 C2.875 -0.125 2.875 -0.125 6 0 C6.66 0.66 7.32 1.32 8 2 C5.291 3.354 2.991 3.065 0 3 C0 2.01 0 1.02 0 0 Z " fill="#1C2023" transform="translate(99,218)"/>
</svg>
