<?xml version="1.0" encoding="UTF-8"?>
<!-- Generator: visioncortex VTracer 0.6.4 -->
<svg version="1.1" xmlns="http://www.w3.org/2000/svg" width="512" height="512">
<path d="M0 0 C10.393 7.323 16.127 18.175 18.898 30.297 C21.293 44.25 17.875 57.509 10.438 69.438 C7.655 73.013 4.666 76.262 1.438 79.438 C0.923 79.951 0.409 80.464 -0.121 80.992 C-7.766 87.966 -18.57 92.022 -28.883 91.754 C-44.947 89.857 -58.082 83.258 -68.688 70.977 C-74.556 63.03 -78.135 52.854 -77.25 42.938 C-76.151 38.942 -75.459 37.131 -72.188 34.625 C-68.838 31.858 -67.424 29.394 -65.562 25.438 C-63.362 22.328 -60.976 19.383 -58.562 16.438 C-58.015 15.753 -57.467 15.069 -56.902 14.363 C-42.475 -2.998 -20.808 -12.513 0 0 Z M-36.301 28.461 C-40.568 35.145 -40.244 42.805 -39.562 50.438 C-38.123 56.213 -34.712 60.005 -29.828 63.297 C-24.834 65.811 -20.288 66.213 -14.914 64.684 C-8.334 61.848 -4.774 57.766 -1.562 51.438 C0.637 44.838 0.778 35.223 -2.188 28.812 C-4.718 24.665 -8.209 21.614 -12.562 19.438 C-23.349 18.439 -29.185 20.234 -36.301 28.461 Z " fill="#282E36" transform="translate(235.5625,286.5625)"/>
<path d="M0 0 C0 3.732 -1.377 4.751 -3.77 7.445 C-5.186 9.077 -5.186 9.077 -6.062 11.75 C-7 14 -7 14 -9 15.188 C-9.66 15.456 -10.32 15.724 -11 16 C-11.66 16.66 -12.32 17.32 -13 18 C-11.756 10.784 -5.168 4.855 0 0 Z " fill="#13151A" transform="translate(182,298)"/>
<path d="M0 0 C0.33 0.99 0.66 1.98 1 3 C-1.452 6.772 -4.044 8.912 -8 11 C-8 8 -8 8 -6.504 6.465 C-5.863 5.961 -5.223 5.457 -4.562 4.938 C-1.841 2.833 -1.841 2.833 0 0 Z " fill="#111418" transform="translate(168,316)"/>
</svg>
