<?xml version="1.0" encoding="UTF-8"?>
<!-- Generator: visioncortex VTracer 0.6.4 -->
<svg version="1.1" xmlns="http://www.w3.org/2000/svg" width="512" height="512">
<path d="M0 0 C0.343 1.665 0.674 3.332 1 5 C1.205 6.042 1.205 6.042 1.414 7.105 C1.81 11.012 1.464 13.279 -0.691 16.629 C-7.168 24.187 -13.598 29.009 -23.592 29.94 C-27.537 30.038 -31.174 29.339 -35 28.438 C-35.785 28.256 -36.571 28.075 -37.38 27.888 C-46.284 25.663 -52.744 21.574 -58 14 C-60.174 9.727 -61.154 6.747 -61 2 C-17.579 -0.388 -17.579 -0.388 0 0 Z " fill="#191C20" transform="translate(328,319)"/>
</svg>
