<?xml version="1.0" encoding="UTF-8"?>
<!-- Generator: visioncortex VTracer 0.6.4 -->
<svg version="1.1" xmlns="http://www.w3.org/2000/svg" width="512" height="512">
<path d="M0 0 C1.061 0.028 2.122 0.055 3.215 0.083 C4.442 0.135 5.669 0.186 6.934 0.238 C8.388 0.289 9.842 0.339 11.296 0.389 C15.323 0.537 19.348 0.724 23.372 0.928 C25.05 1.01 26.729 1.087 28.407 1.157 C30.864 1.261 33.318 1.382 35.773 1.508 C36.892 1.55 36.892 1.55 38.034 1.593 C42.421 1.842 45.61 2.265 48.934 5.238 C51.542 11.79 51.306 18.41 51.304 25.364 C51.309 27.432 51.345 29.497 51.383 31.564 C51.389 33.528 51.389 33.528 51.395 35.531 C51.403 36.723 51.411 37.914 51.419 39.141 C50.934 42.238 50.934 42.238 49.409 44.641 C45.941 46.878 42.846 46.674 38.867 46.5 C37.242 46.463 35.617 46.425 33.992 46.388 C33.155 46.362 32.319 46.335 31.458 46.308 C28.227 46.219 24.998 46.211 21.766 46.205 C18.63 46.192 15.495 46.141 12.36 46.086 C10.757 46.062 9.155 46.048 7.552 46.043 C5.19 46.033 2.83 45.993 0.469 45.945 C-0.247 45.949 -0.962 45.953 -1.699 45.957 C-3.707 45.898 -3.707 45.898 -7.066 45.238 C-10.329 41.668 -10.433 38.391 -10.395 33.688 C-10.389 32.431 -10.384 31.175 -10.379 29.881 C-10.358 28.576 -10.338 27.271 -10.316 25.926 C-10.311 24.632 -10.306 23.339 -10.301 22.006 C-10.188 8.232 -10.188 8.232 -9.066 3.238 C-6.109 0.349 -4.067 -0.125 0 0 Z " fill="#242232" transform="translate(273.06640625,187.76171875)"/>
<path d="M0 0 C1.678 0.082 3.357 0.159 5.035 0.229 C7.491 0.333 9.946 0.454 12.401 0.58 C13.52 0.622 13.52 0.622 14.661 0.665 C19.049 0.914 22.089 1.55 25.561 4.31 C26.374 6.998 26.374 6.998 26.561 9.31 C25.441 8.84 24.321 8.369 23.167 7.885 C16.39 5.632 9.345 5.544 2.271 5.229 C-0.104 5.124 -2.477 5.001 -4.851 4.875 C-14.055 4.405 -23.221 4.201 -32.439 4.31 C-28.177 -5.126 -9.123 -0.461 0 0 Z " fill="#0D0C17" transform="translate(296.438720703125,188.689697265625)"/>
<path d="M0 0 C0 0.33 0 0.66 0 1 C-1.65 1 -3.3 1 -5 1 C-5 1.66 -5 2.32 -5 3 C-14.367 3.182 -23.659 2.613 -33 2 C-33 1.34 -33 0.68 -33 0 C-24.685 -4.158 -9.234 -0.541 0 0 Z " fill="#09070F" transform="translate(299,189)"/>
</svg>
