<?xml version="1.0" encoding="UTF-8"?>
<!-- Generator: visioncortex VTracer 0.6.4 -->
<svg version="1.1" xmlns="http://www.w3.org/2000/svg" width="512" height="512">
<path d="M0 0 C3.5 0.125 3.5 0.125 4.5 1.125 C4.587 3.052 4.607 4.982 4.598 6.91 C4.594 8.08 4.591 9.25 4.588 10.455 C4.58 11.687 4.571 12.918 4.562 14.188 C4.558 15.423 4.553 16.659 4.549 17.932 C4.537 20.996 4.521 24.061 4.5 27.125 C1.86 27.125 -0.78 27.125 -3.5 27.125 C-3.696 22.813 -3.88 18.5 -4.062 14.188 C-4.119 12.956 -4.175 11.724 -4.232 10.455 C-4.281 9.285 -4.329 8.115 -4.379 6.91 C-4.426 5.826 -4.473 4.742 -4.522 3.625 C-4.488 -0.292 -4.038 0.144 0 0 Z " fill="#2A2D30" transform="translate(147.5,210.875)"/>
</svg>
