<?xml version="1.0" encoding="UTF-8"?>
<!-- Generator: visioncortex VTracer 0.6.4 -->
<svg version="1.1" xmlns="http://www.w3.org/2000/svg" width="512" height="512">
<path d="M0 0 C7.856 3.457 14.353 8.816 18.938 16.062 C20.132 19.366 20.529 21.521 20 25 C18.625 27.375 18.625 27.375 16 29 C8.886 30.557 3.078 28.294 -3.152 24.926 C-8.018 21.636 -12.351 17.299 -15 12 C-15.203 9.941 -15.203 9.941 -15.25 7.562 C-15.289 6.389 -15.289 6.389 -15.328 5.191 C-14.923 2.483 -14.115 1.678 -12 0 C-8.207 -1.896 -4.017 -0.904 0 0 Z " fill="#83878E" transform="translate(290,365)"/>
</svg>
