<?xml version="1.0" encoding="UTF-8"?>
<!-- Generator: visioncortex VTracer 0.6.4 -->
<svg version="1.1" xmlns="http://www.w3.org/2000/svg" width="512" height="512">
<path d="M0 0 C15.801 8.897 29.765 22.226 37 39 C37.454 40.052 37.907 41.104 38.375 42.188 C39.219 45.987 39.103 48.237 38 52 C34.768 56.774 31.639 60.328 26 62 C11.075 62.92 -0.829 54.153 -11.508 44.805 C-17.104 39.512 -21.227 33.697 -25 27 C-25.362 26.372 -25.724 25.744 -26.098 25.098 C-28.57 20.211 -28.289 15.32 -28 10 C-28.99 11.485 -28.99 11.485 -30 13 C-32.625 13.188 -32.625 13.188 -35 13 C-35.492 7.096 -34.488 2.87 -31 -2 C-22.058 -9.153 -9.081 -4.513 0 0 Z M-23 2 C-22.67 2.66 -22.34 3.32 -22 4 C-21.67 3.34 -21.34 2.68 -21 2 C-21.66 2 -22.32 2 -23 2 Z M-12 21 C-13.521 25.26 -13.016 28.693 -11.27 32.848 C-7.259 39.647 -0.628 45.67 7 48 C10.547 48.407 12.797 48.601 16 47 C17.671 43.658 16.973 40.458 16 37 C14.269 33.779 14.269 33.779 12 31 C11.402 30.154 10.804 29.309 10.188 28.438 C5.513 23.228 0.935 20.605 -5.887 19.066 C-8.504 18.984 -9.836 19.55 -12 21 Z " fill="#272F37" transform="translate(142,276)"/>
<path d="M0 0 C15.424 8.684 30.443 22.255 37 39 C37.373 40.658 37.718 42.324 38 44 C35.509 43.027 34.247 42.434 32.902 40.074 C32.584 39.287 32.266 38.499 31.938 37.688 C25.94 24.955 15.061 14.17 2 9 C1.505 8.01 1.505 8.01 1 7 C-6.523 2.657 -14.495 2.245 -23 2 C-23.108 2.583 -23.217 3.165 -23.328 3.766 C-24.48 7.595 -27.01 10.403 -30 13 C-32.875 13.438 -32.875 13.438 -35 13 C-35.492 7.096 -34.488 2.87 -31 -2 C-22.058 -9.153 -9.081 -4.513 0 0 Z " fill="#020204" transform="translate(142,276)"/>
</svg>
