<?xml version="1.0" encoding="UTF-8"?>
<!-- Generator: visioncortex VTracer 0.6.4 -->
<svg version="1.1" xmlns="http://www.w3.org/2000/svg" width="512" height="512">
<path d="M0 0 C13.56 9.877 29.113 23.1 32.543 40.25 C32.646 41.096 32.749 41.941 32.855 42.812 C32.255 42.889 31.654 42.965 31.035 43.043 C28.101 44.079 27.522 45.464 25.98 48.125 C23.043 52.791 20.371 55.759 14.926 57.391 C1.792 60.067 -11.047 54.325 -22.145 47.812 C-25.697 45.359 -28.944 42.706 -32.145 39.812 C-32.852 39.186 -33.56 38.56 -34.289 37.914 C-40.885 31.734 -48.328 22.825 -49.41 13.531 C-49.38 9.185 -49.185 5.767 -47.145 1.812 C-47.701 2.142 -48.258 2.473 -48.832 2.812 C-51.447 3.943 -53.325 3.969 -56.145 3.812 C-56.632 -0.28 -56.344 -1.888 -54.02 -5.375 C-39.913 -20.597 -13.931 -9.691 0 0 Z M-30.145 14.812 C-31.915 18.353 -31.78 21.956 -31.145 25.812 C-27.528 33.193 -20.761 37.803 -13.77 41.688 C-9.122 43.13 -4.967 43.559 -0.145 42.812 C2.612 41.392 2.612 41.392 3.855 38.812 C4.662 34.869 3.841 32.343 1.918 28.938 C-3.566 20.896 -10.715 15.351 -20.145 12.812 C-24.127 12.37 -26.779 12.568 -30.145 14.812 Z " fill="#272E38" transform="translate(306.14453125,351.1875)"/>
<path d="M0 0 C13.56 9.877 29.113 23.1 32.543 40.25 C32.646 41.096 32.749 41.941 32.855 42.812 C30.668 42.375 30.668 42.375 27.855 40.812 C26.479 38.625 25.348 36.363 24.18 34.059 C22.874 31.844 21.745 30.619 19.73 29.062 C16.829 26.792 15.517 25.052 13.855 21.812 C13.464 21.049 13.072 20.286 12.668 19.5 C12.4 18.943 12.132 18.386 11.855 17.812 C11.195 17.812 10.535 17.812 9.855 17.812 C9.855 17.152 9.855 16.493 9.855 15.812 C9.287 15.56 8.719 15.307 8.133 15.047 C5.564 13.655 3.621 11.98 1.418 10.062 C-4.267 5.423 -10.394 2.59 -17.145 -0.188 C-17.933 -0.566 -18.722 -0.945 -19.535 -1.336 C-23.053 -2.484 -26.424 -2.478 -30.082 -2.438 C-30.772 -2.445 -31.463 -2.453 -32.174 -2.461 C-38.062 -2.439 -42.779 -1.269 -47.707 1.938 C-51.016 3.742 -52.488 4.256 -56.145 3.812 C-56.632 -0.28 -56.344 -1.888 -54.02 -5.375 C-39.913 -20.597 -13.931 -9.691 0 0 Z " fill="#020304" transform="translate(306.14453125,351.1875)"/>
</svg>
