<?xml version="1.0" encoding="UTF-8"?>
<!-- Generator: visioncortex VTracer 0.6.4 -->
<svg version="1.1" xmlns="http://www.w3.org/2000/svg" width="512" height="512">
<path d="M0 0 C3.407 2.148 5.778 4.113 7 8 C7.456 13.016 7.13 16.007 4 20 C1.057 23.203 -1.175 24.305 -5.438 24.562 C-10.444 24.354 -12.601 22.569 -16 19 C-17.88 15.241 -17.658 11.083 -17 7 C-12.957 -0.139 -7.991 -2.029 0 0 Z " fill="#797C81" transform="translate(369,307)"/>
<path d="M0 0 C0.33 0 0.66 0 1 0 C1.337 3.703 1.477 5.395 -0.875 8.375 C-3 10 -3 10 -5 10 C-3.667 6.41 -2.106 3.204 0 0 Z " fill="#8F949A" transform="translate(374,319)"/>
</svg>
