<?xml version="1.0" encoding="UTF-8"?>
<!-- Generator: visioncortex VTracer 0.6.4 -->
<svg version="1.1" xmlns="http://www.w3.org/2000/svg" width="512" height="512">
<path d="M0 0 C2.431 0.943 4.862 1.886 7.293 2.828 C9.133 3.546 9.133 3.546 11.011 4.278 C20.069 7.798 29.189 11.157 38.309 14.512 C61.082 22.89 83.714 31.62 106.318 40.443 C111.497 42.463 116.68 44.473 121.872 46.459 C123.9 47.236 125.926 48.015 127.951 48.796 C130.268 49.689 132.588 50.575 134.91 51.454 C146.389 55.903 146.389 55.903 148.812 60.75 C149.193 65.313 149.24 67.824 147.312 72 C144.247 75.372 141.305 77.727 136.812 78.75 C130.195 78.599 124.573 76.818 118.504 74.324 C117.125 73.774 117.125 73.774 115.717 73.212 C112.599 71.964 109.487 70.701 106.375 69.438 C104.129 68.535 101.882 67.635 99.635 66.735 C95.16 64.94 90.686 63.142 86.214 61.34 C74.699 56.697 63.17 52.09 51.641 47.484 C47.562 45.855 43.483 44.225 39.404 42.595 C38.39 42.19 37.375 41.784 36.33 41.367 C25.423 37.008 14.518 32.643 3.613 28.277 C2.726 27.922 1.838 27.567 0.923 27.2 C-0.369 26.683 -0.369 26.683 -1.687 26.155 C-2.518 25.822 -3.35 25.49 -4.206 25.147 C-5.792 24.512 -7.378 23.876 -8.964 23.241 C-12.118 21.977 -15.272 20.716 -18.43 19.464 C-19.315 19.113 -20.201 18.762 -21.113 18.401 C-21.825 18.12 -22.537 17.839 -23.27 17.55 C-31.209 14.239 -31.209 14.239 -33.625 10.562 C-34.43 6.538 -35.048 2.811 -34.188 -1.25 C-25.697 -12.606 -10.349 -4.083 0 0 Z " fill="#717374" transform="translate(123.1875,160.25)"/>
</svg>
