<?xml version="1.0" encoding="UTF-8"?>
<!-- Generator: visioncortex VTracer 0.6.4 -->
<svg version="1.1" xmlns="http://www.w3.org/2000/svg" width="512" height="512">
<path d="M0 0 C0.99 0 1.98 0 3 0 C5.505 15.737 5.505 15.737 6 22 C6.077 22.811 6.155 23.622 6.234 24.457 C6.84 35.402 0.084 42.39 -6.34 50.566 C-8.909 53.852 -11.345 57.219 -13.75 60.625 C-17.765 66.302 -21.865 71.91 -26 77.5 C-30.975 84.23 -35.887 90.998 -40.734 97.82 C-44.121 102.573 -47.557 107.288 -51 112 C-51.99 111.67 -52.98 111.34 -54 111 C-54.51 107.043 -55.006 103.084 -55.5 99.125 C-55.643 98.016 -55.786 96.908 -55.934 95.766 C-58.403 75.774 -58.403 75.774 -50.996 65.934 C-49.815 64.431 -48.629 62.932 -47.438 61.438 C-46.165 59.822 -44.893 58.206 -43.621 56.59 C-43 55.803 -42.378 55.017 -41.738 54.207 C-39.467 51.323 -37.231 48.414 -35 45.5 C-31.038 40.341 -27.055 35.198 -23.062 30.062 C-22.468 29.298 -21.874 28.534 -21.262 27.747 C-18.463 24.151 -15.658 20.561 -12.836 16.984 C-12.345 16.362 -11.854 15.739 -11.347 15.097 C-10.446 13.956 -9.543 12.816 -8.639 11.678 C-6.433 8.886 -4.363 6.056 -2.379 3.105 C-1.594 2.081 -0.809 1.056 0 0 Z " fill="#1C1B25" transform="translate(334,193)"/>
<path d="M0 0 C0.99 0 1.98 0 3 0 C4.141 3.422 4.098 6.087 4.062 9.688 C4.053 10.867 4.044 12.046 4.035 13.262 C4.024 14.165 4.012 15.069 4 16 C3.67 16 3.34 16 3 16 C2.67 12.37 2.34 8.74 2 5 C-0.77 5 -1.582 6.184 -3.625 8 C-4.572 8.835 -4.572 8.835 -5.539 9.688 C-6.021 10.121 -6.503 10.554 -7 11 C-5.691 8.274 -4.273 5.744 -2.562 3.25 C-2.151 2.636 -1.74 2.023 -1.316 1.391 C-0.882 0.932 -0.448 0.473 0 0 Z M-8 11 C-8 11.99 -8 12.98 -8 14 C-8.99 14.495 -8.99 14.495 -10 15 C-9.34 13.68 -8.68 12.36 -8 11 Z " fill="#10111E" transform="translate(334,193)"/>
</svg>
