<?xml version="1.0" encoding="UTF-8"?>
<!-- Generator: visioncortex VTracer 0.6.4 -->
<svg version="1.1" xmlns="http://www.w3.org/2000/svg" width="512" height="512">
<path d="M0 0 C4.754 0.532 8.664 1.475 13.035 3.406 C14.729 4.145 14.729 4.145 16.457 4.898 C17.647 5.427 18.837 5.955 20.062 6.5 C22.561 7.599 25.061 8.693 27.562 9.785 C28.187 10.059 28.812 10.333 29.456 10.615 C33.481 12.369 37.534 14.027 41.625 15.621 C42.632 16.016 43.638 16.41 44.676 16.816 C46.557 17.547 48.443 18.265 50.334 18.969 C53.918 20.371 56.433 21.363 59.016 24.266 C60.268 27.744 60.813 31.156 61.188 34.812 C61.269 35.486 61.351 36.16 61.436 36.854 C61.975 41.591 62.069 46.234 62 51 C56.71 50.465 52.356 49.118 47.512 46.902 C46.815 46.592 46.118 46.282 45.4 45.962 C43.158 44.962 40.923 43.95 38.688 42.938 C37.152 42.249 35.616 41.561 34.08 40.874 C31.074 39.529 28.07 38.179 25.068 36.826 C21.665 35.295 18.253 33.788 14.832 32.297 C13.991 31.93 13.151 31.562 12.284 31.184 C10.808 30.54 9.33 29.898 7.85 29.26 C5.131 28.063 3.122 27.122 1 25 C0.114 21.678 -0.12 18.564 -0.098 15.137 C-0.094 14.25 -0.091 13.364 -0.088 12.451 C-0.08 11.539 -0.071 10.627 -0.062 9.688 C-0.058 8.756 -0.053 7.825 -0.049 6.865 C-0.037 4.577 -0.021 2.288 0 0 Z " fill="#212233" transform="translate(100,211)"/>
</svg>
