<?xml version="1.0" encoding="UTF-8"?>
<!-- Generator: visioncortex VTracer 0.6.4 -->
<svg version="1.1" xmlns="http://www.w3.org/2000/svg" width="512" height="512">
<path d="M0 0 C6.164 1.761 11.772 4.222 17.5 7.062 C18.219 7.415 18.937 7.768 19.678 8.131 C24.876 10.753 24.876 10.753 26 13 C26.04 15 26.043 17 26 19 C19.766 19.744 15.131 17.169 9.688 14.5 C8.769 14.09 7.851 13.68 6.904 13.258 C0.458 10.113 0.458 10.113 -0.861 6.906 C-1.168 4.719 -1.168 4.719 -1 1 C-0.67 0.67 -0.34 0.34 0 0 Z " fill="#009BD2" transform="translate(192,285)"/>
</svg>
