<?xml version="1.0" encoding="UTF-8"?>
<!-- Generator: visioncortex VTracer 0.6.4 -->
<svg version="1.1" xmlns="http://www.w3.org/2000/svg" width="512" height="512">
<path d="M0 0 C3.341 0.483 6.284 1.401 9.388 2.702 C10.223 3.05 11.057 3.397 11.917 3.755 C12.807 4.131 13.697 4.507 14.613 4.895 C15.542 5.283 16.47 5.672 17.427 6.072 C19.388 6.895 21.349 7.719 23.309 8.546 C26.289 9.803 29.272 11.051 32.256 12.299 C34.167 13.101 36.078 13.904 37.988 14.707 C38.872 15.077 39.755 15.447 40.666 15.828 C56.658 22.588 56.658 22.588 60 27 C60.848 30.332 61.12 33.434 61.098 36.863 C61.094 37.75 61.091 38.636 61.088 39.549 C61.075 40.917 61.075 40.917 61.062 42.312 C61.058 43.244 61.053 44.175 61.049 45.135 C61.037 47.423 61.021 49.712 61 52 C57.235 53.255 56.333 52.563 52.758 51.008 C51.701 50.554 50.645 50.101 49.556 49.633 C48.424 49.136 47.292 48.638 46.125 48.125 C44.966 47.623 43.806 47.122 42.612 46.605 C40.227 45.573 37.844 44.538 35.463 43.5 C32.282 42.122 29.09 40.772 25.891 39.438 C24.956 39.045 24.021 38.653 23.058 38.25 C21.325 37.523 19.589 36.8 17.852 36.083 C4.454 30.411 4.454 30.411 1.818 26.04 C-1.213 18.483 -1.41 9.061 -1 1 C-0.67 0.67 -0.34 0.34 0 0 Z " fill="#1F1F2E" transform="translate(187,247)"/>
<path d="M0 0 C5.236 0.762 9.892 2.806 14.75 4.812 C16.063 5.328 16.063 5.328 17.402 5.854 C18.234 6.197 19.065 6.541 19.922 6.895 C20.681 7.202 21.44 7.51 22.222 7.827 C24 9 24 9 24.755 11.132 C24.836 11.748 24.917 12.365 25 13 C20.891 11.872 16.924 10.665 13 9 C13 8.34 13 7.68 13 7 C12.216 6.856 11.433 6.711 10.625 6.562 C8 6 8 6 6 5 C6 4.34 6 3.68 6 3 C4.68 3 3.36 3 2 3 C1.67 4.32 1.34 5.64 1 7 C0.34 7 -0.32 7 -1 7 C-1.043 5 -1.041 3 -1 1 C-0.67 0.67 -0.34 0.34 0 0 Z " fill="#10111E" transform="translate(187,247)"/>
<path d="M0 0 C2.31 0.66 4.62 1.32 7 2 C6.67 3.32 6.34 4.64 6 6 C3.562 5.25 3.562 5.25 1 4 C0.188 1.875 0.188 1.875 0 0 Z " fill="#121422" transform="translate(221,261)"/>
</svg>
