<?xml version="1.0" encoding="UTF-8"?>
<!-- Generator: visioncortex VTracer 0.6.4 -->
<svg version="1.1" xmlns="http://www.w3.org/2000/svg" width="512" height="512">
<path d="M0 0 C0.557 0.248 1.114 0.495 1.688 0.75 C2.688 6.5 2.688 6.5 2.688 8.75 C5.52 9.084 5.52 9.084 8.688 8.75 C10.886 6.802 10.886 6.802 12.688 4.75 C19.754 6.605 26.695 8.669 33.602 11.051 C34.977 11.52 34.977 11.52 36.379 11.999 C39.358 13.017 42.335 14.04 45.312 15.062 C47.402 15.778 49.491 16.492 51.58 17.207 C55.856 18.67 60.132 20.135 64.407 21.6 C70.308 23.622 76.214 25.631 82.121 27.637 C99.376 33.498 116.612 39.379 133.688 45.75 C133.688 48.39 133.688 51.03 133.688 53.75 C137.79 54.765 137.79 54.765 141.688 53.75 C142.34 51.725 142.34 51.725 142.688 49.75 C153.084 47.82 153.084 47.82 158 50.75 C164.898 55.895 168.737 61.375 170.688 69.75 C171.459 75.318 171.928 80.898 172.375 86.5 C172.505 88.007 172.636 89.513 172.768 91.02 C173.772 102.75 173.772 102.75 173.688 107.75 C174.516 107.849 175.345 107.949 176.199 108.051 C180.217 108.856 183.764 110.312 187.5 111.938 C193.378 114.43 199.276 116.734 205.312 118.812 C213.213 121.54 220.965 124.552 228.688 127.75 C229.33 127.993 229.973 128.236 230.636 128.487 C232.354 129.16 234.026 129.948 235.688 130.75 C236.845 134.223 236.756 137.111 236.688 140.75 C238.668 141.08 240.647 141.41 242.688 141.75 C243.348 139.44 244.007 137.13 244.688 134.75 C249.569 135.311 253.537 136.854 257.875 139.062 C258.798 139.506 258.798 139.506 259.74 139.959 C263.26 141.724 265.834 143.221 267.688 146.75 C268.906 153.646 267.526 160.588 265.938 167.312 C265.781 168.003 265.624 168.694 265.463 169.405 C264.675 172.455 263.937 174.491 261.734 176.777 C259.688 177.75 259.688 177.75 256.688 176.75 C256.408 177.474 256.129 178.198 255.842 178.945 C254.752 181.594 253.542 184.097 252.219 186.637 C251.735 187.567 251.251 188.497 250.752 189.455 C250.236 190.439 249.719 191.424 249.188 192.438 C248.656 193.453 248.125 194.469 247.578 195.515 C243.789 202.732 239.9 209.888 235.898 216.989 C234.82 218.905 233.752 220.827 232.688 222.75 C232.136 223.731 231.584 224.712 231.016 225.723 C229.369 229.477 228.666 233.099 228 237.125 C227.87 237.861 227.741 238.597 227.607 239.355 C227.292 241.152 226.989 242.951 226.688 244.75 C226.027 244.75 225.368 244.75 224.688 244.75 C223.8 246.378 223.8 246.378 222.895 248.039 C222.097 249.485 221.298 250.93 220.5 252.375 C220.113 253.088 219.725 253.801 219.326 254.535 C213.146 265.669 213.146 265.669 208.324 267.789 C204.703 267.735 201.771 266.543 198.5 265.125 C197.844 264.852 197.188 264.578 196.511 264.296 C191.114 262.016 185.88 259.466 180.688 256.75 C180.358 261.7 180.027 266.65 179.688 271.75 C180.678 272.41 181.668 273.07 182.688 273.75 C182.027 277.05 181.368 280.35 180.688 283.75 C176.528 285.136 174.546 283.803 170.711 281.973 C168.688 280.75 168.688 280.75 167.25 278.562 C166.935 276.986 166.635 275.406 166.391 273.816 C163.44 257.266 147.672 242.736 134.449 233.484 C121.836 225.481 107.414 219.051 92.164 222.285 C87.676 223.649 83.912 225.232 80.688 228.75 C79.329 232.375 79.329 232.375 78.688 235.75 C73.402 235.23 69.189 233.885 64.41 231.539 C63.73 231.215 63.049 230.89 62.348 230.556 C60.895 229.863 59.445 229.165 57.996 228.463 C55.73 227.365 53.458 226.279 51.185 225.195 C48.132 223.74 45.081 222.281 42.031 220.821 C35.983 217.931 29.904 215.111 23.812 212.312 C22.345 211.632 22.345 211.632 20.848 210.938 C19.952 210.527 19.056 210.115 18.133 209.691 C17.365 209.338 16.597 208.984 15.805 208.619 C13.715 207.682 13.715 207.682 11.483 207.311 C10.89 207.126 10.298 206.941 9.688 206.75 C8.52 203.828 8.52 203.828 7.5 200 C2.231 182.279 -11.77 169.061 -27.312 159.75 C-37.207 154.87 -46.902 151.54 -57.875 154.812 C-62.616 158.581 -63.607 163.961 -64.312 169.75 C-67.125 169.688 -67.125 169.688 -70.312 168.75 C-72.241 165.452 -73.494 163.169 -73 159.312 C-72.773 158.797 -72.546 158.281 -72.312 157.75 C-70.993 158.08 -69.672 158.41 -68.312 158.75 C-69.302 153.47 -70.293 148.19 -71.312 142.75 C-72.653 142.317 -73.994 141.884 -75.375 141.438 C-79.467 140.115 -83.366 138.455 -87.312 136.75 C-88.04 126.076 -88.596 115.406 -88.925 104.711 C-88.975 103.143 -89.031 101.575 -89.091 100.006 C-89.89 79.174 -89.89 79.174 -85.867 72.27 C-85.036 71.425 -85.036 71.425 -84.188 70.562 C-83.259 69.615 -83.259 69.615 -82.312 68.648 C-81.653 68.022 -80.993 67.395 -80.312 66.75 C-79.632 66.062 -78.951 65.373 -78.25 64.664 C-74.355 60.932 -74.355 60.932 -72.312 59.75 C-69.57 60.066 -69.57 60.066 -67.312 60.75 C-67.312 63.39 -67.312 66.03 -67.312 68.75 C-64.484 70.164 -62.439 70.069 -59.312 69.75 C-57.4 67.869 -57.4 67.869 -56.312 65.75 C-52.297 66.411 -48.812 67.649 -45.055 69.199 C-44.447 69.448 -43.839 69.697 -43.212 69.954 C-41.894 70.495 -40.577 71.037 -39.26 71.581 C-35.678 73.061 -32.091 74.525 -28.504 75.992 C-27.755 76.299 -27.005 76.606 -26.234 76.922 C-17.88 80.343 -9.506 83.71 -1.125 87.062 C-0.378 87.362 0.369 87.661 1.139 87.969 C10.227 91.604 19.335 95.174 28.498 98.619 C36.704 101.721 44.853 104.965 53.001 108.216 C54.62 108.861 56.239 109.506 57.858 110.15 C60.131 111.054 62.401 111.962 64.672 112.871 C65.366 113.147 66.059 113.422 66.774 113.706 C71.573 115.635 71.573 115.635 72.688 116.75 C72.829 119.753 72.73 122.742 72.688 125.75 C75.657 126.08 78.627 126.41 81.688 126.75 C83.837 123.197 83.837 123.197 83.688 120.75 C84.279 120.652 84.871 120.554 85.48 120.453 C91.352 119.342 95.281 117.958 99 113 C100.042 109.589 100.607 106.202 99.688 102.75 C95.614 97.748 91.075 95.935 85.121 93.711 C84.183 93.348 83.244 92.985 82.277 92.611 C79.231 91.437 76.178 90.281 73.125 89.125 C71.022 88.318 68.92 87.509 66.819 86.7 C62.666 85.101 58.512 83.509 54.355 81.922 C47.258 79.208 40.19 76.422 33.125 73.625 C16.407 67.046 -0.391 60.704 -17.246 54.483 C-27.63 50.645 -37.977 46.716 -48.312 42.75 C-48.312 39.75 -48.312 39.75 -46.293 37.586 C-45.371 36.774 -44.45 35.962 -43.5 35.125 C-43.004 34.685 -42.507 34.245 -41.996 33.791 C-37.787 30.087 -33.436 26.561 -29.074 23.039 C-25.23 19.853 -21.563 16.487 -17.887 13.109 C-14.97 10.436 -12.021 7.808 -9.023 5.227 C-7.515 3.925 -6.036 2.59 -4.562 1.25 C-2.312 -0.25 -2.312 -0.25 0 0 Z M162.688 74.75 C160.768 77.041 159.036 79.317 157.312 81.75 C156.235 83.231 155.154 84.71 154.07 86.188 C153.512 86.948 152.955 87.709 152.38 88.492 C149.753 91.997 146.976 95.373 144.188 98.75 C139.393 104.583 134.791 110.526 130.293 116.59 C125.789 122.651 121.158 128.609 116.494 134.548 C107.53 145.997 104.686 152.51 106.344 167.195 C106.619 169.423 106.9 171.649 107.188 173.875 C107.402 175.596 107.402 175.596 107.621 177.352 C107.971 180.152 108.327 182.951 108.688 185.75 C110.007 185.75 111.327 185.75 112.688 185.75 C114.373 183.819 115.727 182.002 117.125 179.875 C118.013 178.579 118.903 177.283 119.793 175.988 C120.498 174.951 120.498 174.951 121.216 173.893 C123.726 170.237 126.334 166.653 128.938 163.062 C129.482 162.309 130.027 161.555 130.588 160.778 C135.163 154.449 139.796 148.164 144.436 141.883 C150.11 134.196 155.719 126.462 161.286 118.697 C162.228 117.389 163.177 116.086 164.132 114.787 C170.596 105.946 168.829 97.218 167.75 86.812 C167.663 85.971 167.576 85.13 167.487 84.264 C167.119 80.904 166.761 77.972 165.688 74.75 C164.697 74.75 163.707 74.75 162.688 74.75 Z M-71.312 92.75 C-71.371 95.958 -71.406 99.166 -71.438 102.375 C-71.454 103.279 -71.471 104.182 -71.488 105.113 C-71.495 105.996 -71.501 106.879 -71.508 107.789 C-71.518 108.596 -71.529 109.402 -71.54 110.233 C-71.251 113.437 -70.682 115.823 -69.312 118.75 C-66.733 120.69 -66.733 120.69 -63.434 122.07 C-62.823 122.355 -62.212 122.64 -61.582 122.933 C-59.502 123.894 -57.408 124.822 -55.312 125.75 C-53.748 126.46 -52.185 127.17 -50.622 127.882 C-46.421 129.782 -42.204 131.642 -37.978 133.486 C-35.351 134.636 -32.729 135.798 -30.107 136.961 C-28.417 137.701 -26.726 138.441 -25.035 139.18 C-24.262 139.524 -23.489 139.869 -22.693 140.224 C-18.182 142.174 -14.211 143.291 -9.312 143.75 C-9.233 138.279 -9.465 132.992 -10.125 127.562 C-10.195 126.877 -10.266 126.192 -10.338 125.486 C-10.859 121.154 -11.64 118.2 -14.312 114.75 C-16.861 113.366 -19.203 112.272 -21.883 111.227 C-22.637 110.917 -23.392 110.608 -24.169 110.289 C-26.586 109.303 -29.011 108.339 -31.438 107.375 C-33.015 106.736 -34.592 106.095 -36.168 105.453 C-39.307 104.176 -42.451 102.911 -45.599 101.653 C-48.794 100.372 -51.973 99.057 -55.144 97.714 C-55.917 97.388 -56.69 97.062 -57.487 96.726 C-58.953 96.107 -60.416 95.482 -61.876 94.851 C-65.315 93.404 -67.516 92.75 -71.312 92.75 Z M-70.312 127.75 C-71.531 130.63 -71.329 131.706 -70.199 134.688 C-67.975 138.298 -66.239 139.333 -62.438 141.125 C-61.409 141.628 -60.38 142.13 -59.32 142.648 C-56.39 143.722 -54.395 143.989 -51.312 143.75 C-50.607 141.21 -50.134 139.381 -50.859 136.812 C-52.993 133.785 -55.928 132.547 -59.188 131 C-59.813 130.684 -60.438 130.368 -61.082 130.043 C-64.477 128.385 -66.461 127.75 -70.312 127.75 Z M15.688 128.75 C14.264 129.95 14.264 129.95 14.5 133.438 C14.662 146.293 14.662 146.293 19.688 157.75 C22.403 159.578 22.403 159.578 25.68 161.039 C26.591 161.474 26.591 161.474 27.521 161.918 C29.567 162.884 31.625 163.821 33.688 164.75 C34.426 165.083 35.165 165.416 35.926 165.759 C40.711 167.9 45.516 169.991 50.332 172.059 C52.846 173.139 55.357 174.228 57.867 175.316 C59.476 176.011 61.086 176.705 62.695 177.398 C63.44 177.721 64.185 178.044 64.952 178.377 C69.703 180.436 69.703 180.436 74.688 181.75 C75.347 181.42 76.007 181.09 76.688 180.75 C76.746 177.542 76.781 174.334 76.812 171.125 C76.829 170.221 76.846 169.318 76.863 168.387 C76.932 161.345 76.932 161.345 74.688 154.75 C69.959 150.174 64.998 147.876 58.941 145.43 C58.012 145.044 57.083 144.659 56.125 144.262 C53.171 143.04 50.211 141.832 47.25 140.625 C45.265 139.807 43.28 138.988 41.295 138.168 C36.844 136.33 32.389 134.502 27.929 132.683 C25.856 131.82 23.807 130.914 21.758 129.997 C18.776 128.562 18.776 128.562 15.688 128.75 Z M20.688 166.75 C19.845 170.119 19.385 172.486 20.688 175.75 C22.559 177.217 22.559 177.217 24.949 178.328 C25.821 178.766 26.693 179.205 27.592 179.656 C28.969 180.321 28.969 180.321 30.375 181 C31.274 181.459 32.173 181.918 33.1 182.391 C37.755 184.686 41.364 186.421 46.688 185.75 C47.107 181.528 47.107 181.528 45.305 177.844 C41.427 174.742 37.097 172.969 32.562 171 C31.643 170.589 30.724 170.178 29.777 169.754 C25.391 167.589 25.391 167.589 20.688 166.75 Z M182.375 192.812 C179.98 196.981 179.689 201.05 180.688 205.75 C181.705 206.904 181.705 206.904 182.742 208.082 C185.322 211.62 184.872 214.314 184.312 218.438 C184.013 220.891 183.811 223.275 183.688 225.75 C185.585 228.1 185.585 228.1 188.812 227.875 C189.761 227.834 190.71 227.793 191.688 227.75 C193.398 224.017 194.736 220.734 195.438 216.688 C196.39 212.413 198.667 210.586 202.129 208.074 C204.671 205.914 204.696 203.658 205 200.438 C204.623 195.991 203.59 194.111 200.688 190.75 C193.294 186.031 188.706 187.166 182.375 192.812 Z " fill="#0058BA" transform="translate(171.3125,118.25)"/>
<path d="M0 0 C2 1 2 1 2 1 Z " fill="#DD9B31" transform="translate(94,274)"/>
<path d="" fill="#0C0C0C" transform="translate(0,0)"/>
<path d="" fill="#AC8E5D" transform="translate(0,0)"/>
<path d="" fill="#C49C5A" transform="translate(0,0)"/>
<path d="" fill="#F8BC55" transform="translate(0,0)"/>
</svg>
