<?xml version="1.0" encoding="UTF-8"?>
<!-- Generator: visioncortex VTracer 0.6.4 -->
<svg version="1.1" xmlns="http://www.w3.org/2000/svg" width="512" height="512">
<path d="M0 0 C1.575 0.545 3.15 1.088 4.726 1.629 C8.065 2.777 11.401 3.934 14.735 5.096 C22.407 7.761 30.115 10.319 37.823 12.881 C40.452 13.755 43.081 14.632 45.71 15.509 C57.64 19.487 69.59 23.405 81.552 27.29 C84.281 28.177 87.01 29.067 89.739 29.956 C100.553 33.481 100.553 33.481 111.387 36.94 C113.333 37.556 115.276 38.178 117.219 38.803 C119.484 39.531 121.752 40.247 124.025 40.948 C129.515 42.728 133.406 44.143 136.875 48.875 C137.973 52.689 137.205 56.093 135.688 59.688 C133.515 62.31 132.056 63.603 128.875 64.875 C123.281 64.462 118.33 63.241 113.047 61.355 C112.314 61.101 111.581 60.847 110.825 60.585 C109.248 60.038 107.672 59.487 106.097 58.932 C101.817 57.426 97.529 55.946 93.242 54.461 C92.366 54.156 91.489 53.852 90.586 53.538 C83.037 50.918 75.459 48.391 67.87 45.887 C49.404 39.793 31.037 33.422 12.677 27.017 C3.288 23.747 -6.082 20.513 -15.608 17.663 C-19.12 16.563 -22.438 15.22 -25.812 13.75 C-26.971 13.252 -28.13 12.755 -29.324 12.242 C-32.125 10.875 -32.125 10.875 -34.125 8.875 C-35.067 5.035 -35.493 2.747 -33.938 -0.938 C-25.764 -10.802 -9.902 -3.529 0 0 Z " fill="#737476" transform="translate(192.125,103.125)"/>
</svg>
