<?xml version="1.0" encoding="UTF-8"?>
<!-- Generator: visioncortex VTracer 0.6.4 -->
<svg version="1.1" xmlns="http://www.w3.org/2000/svg" width="512" height="512">
<path d="M0 0 C1.125 -0.01 2.249 -0.019 3.408 -0.029 C4.619 -0.033 5.829 -0.038 7.076 -0.042 C8.948 -0.051 8.948 -0.051 10.857 -0.059 C13.496 -0.069 16.134 -0.076 18.773 -0.079 C22.147 -0.085 25.52 -0.109 28.894 -0.137 C32.121 -0.16 35.349 -0.162 38.576 -0.167 C39.785 -0.179 40.993 -0.192 42.238 -0.204 C43.366 -0.201 44.494 -0.198 45.656 -0.195 C46.646 -0.199 47.635 -0.203 48.655 -0.206 C52.997 0.376 56.717 2.683 59.393 6.161 C61.743 14.951 60.576 25.307 60.143 34.349 C60.096 35.353 60.05 36.357 60.002 37.392 C59.215 40.971 57.985 42.576 55.393 45.161 C52.388 45.783 52.388 45.783 48.836 45.776 C48.187 45.782 47.537 45.787 46.868 45.793 C44.729 45.805 42.591 45.781 40.451 45.755 C38.962 45.753 37.473 45.753 35.984 45.755 C32.866 45.753 29.748 45.735 26.63 45.703 C22.633 45.663 18.637 45.659 14.639 45.667 C11.565 45.67 8.492 45.658 5.418 45.64 C3.944 45.633 2.47 45.63 0.996 45.631 C-1.063 45.629 -3.121 45.608 -5.18 45.581 C-6.937 45.568 -6.937 45.568 -8.73 45.556 C-11.607 45.161 -11.607 45.161 -13.466 43.806 C-17.356 38.199 -15.696 29.236 -15.53 22.684 C-15.498 21.249 -15.477 19.813 -15.467 18.378 C-15.451 16.291 -15.404 14.208 -15.349 12.122 C-15.327 10.882 -15.305 9.643 -15.282 8.366 C-14.607 5.161 -14.607 5.161 -12.311 2.789 C-8.166 0.294 -4.797 0.033 0 0 Z " fill="#242232" transform="translate(232.607177734375,187.8388671875)"/>
<path d="M0 0 C1.125 -0.01 2.249 -0.019 3.408 -0.029 C4.619 -0.033 5.829 -0.038 7.076 -0.042 C8.948 -0.051 8.948 -0.051 10.857 -0.059 C13.496 -0.069 16.134 -0.076 18.773 -0.079 C22.147 -0.085 25.52 -0.109 28.894 -0.137 C32.121 -0.16 35.349 -0.162 38.576 -0.167 C39.785 -0.179 40.993 -0.192 42.238 -0.204 C43.366 -0.201 44.494 -0.198 45.656 -0.195 C46.646 -0.199 47.635 -0.203 48.655 -0.206 C52.591 0.322 55.146 2.172 58.205 4.599 C59.393 6.161 59.393 6.161 59.393 10.161 C58.403 9.831 57.413 9.501 56.393 9.161 C56.393 8.171 56.393 7.181 56.393 6.161 C52.735 5.321 49.346 5.03 45.596 5.016 C43.884 5.006 43.884 5.006 42.137 4.997 C40.301 4.995 40.301 4.995 38.428 4.993 C37.162 4.99 35.896 4.987 34.591 4.983 C31.916 4.978 29.24 4.975 26.565 4.976 C23.148 4.976 19.731 4.962 16.313 4.945 C13.039 4.931 9.765 4.932 6.49 4.931 C5.268 4.923 4.046 4.916 2.787 4.909 C1.643 4.912 0.498 4.915 -0.681 4.918 C-1.683 4.917 -2.685 4.915 -3.717 4.914 C-7.663 5.251 -11.075 6.395 -14.607 8.161 C-14.234 5.459 -13.823 4.362 -11.795 2.474 C-7.946 0.164 -4.434 0.031 0 0 Z " fill="#0B0A14" transform="translate(232.607177734375,187.8388671875)"/>
</svg>
