<?xml version="1.0" encoding="UTF-8"?>
<!-- Generator: visioncortex VTracer 0.6.4 -->
<svg version="1.1" xmlns="http://www.w3.org/2000/svg" width="512" height="512">
<path d="M0 0 C4.244 3.395 8.359 7.098 11.875 11.25 C11.875 11.91 11.875 12.57 11.875 13.25 C12.535 13.25 13.195 13.25 13.875 13.25 C15.531 14.973 15.531 14.973 17.375 17.312 C17.983 18.067 18.592 18.821 19.219 19.598 C21.194 22.76 22.009 25.629 22.875 29.25 C23.139 30.326 23.404 31.403 23.676 32.512 C25.735 46.297 18.407 56.383 10.746 67.277 C3.737 75.837 -7.156 82.476 -18.125 84.25 C-33.372 85.156 -44.153 82.369 -56.164 72.59 C-64.69 64.646 -69.781 54.301 -70.441 42.711 C-70.735 34.228 -70.954 26.554 -66.125 19.25 C-65.689 18.509 -65.254 17.768 -64.805 17.004 C-57.966 5.924 -47.941 -2.899 -35.156 -6.277 C-22.33 -8.277 -10.821 -7.617 0 0 Z M-40 23.062 C-44.388 29.644 -46.375 35.386 -45.125 43.25 C-42.459 50.897 -38.998 55.164 -31.875 59 C-25.244 61.21 -20.289 61.075 -13.875 58.188 C-8.24 55.046 -5.252 51.844 -3.316 45.672 C-1.712 38.539 -1.786 32.546 -5.32 26.055 C-8.657 21.113 -12.339 17.894 -18.125 16.25 C-26.234 14.992 -34.367 16.791 -40 23.062 Z " fill="#282F37" transform="translate(188.125,286.75)"/>
<path d="M0 0 C0.33 0 0.66 0 1 0 C1.251 2.374 1.476 4.747 1.688 7.125 C1.76 7.79 1.833 8.455 1.908 9.141 C2.31 13.965 1.495 16.883 -1 21 C-1.994 18.017 -2.025 16.792 -1.66 13.77 C-1.567 12.967 -1.473 12.165 -1.377 11.338 C-1.273 10.505 -1.169 9.671 -1.062 8.812 C-0.963 7.968 -0.863 7.123 -0.76 6.252 C-0.512 4.167 -0.257 2.084 0 0 Z " fill="#1C2027" transform="translate(210,316)"/>
</svg>
