<?xml version="1.0" encoding="UTF-8"?>
<!-- Generator: visioncortex VTracer 0.6.4 -->
<svg version="1.1" xmlns="http://www.w3.org/2000/svg" width="512" height="512">
<path d="M0 0 C3.96 0 7.92 0 12 0 C12.34 2.812 12.672 5.624 13 8.438 C13.095 9.221 13.191 10.004 13.289 10.811 C13.915 16.244 14.088 21.531 14 27 C9.71 27 5.42 27 1 27 C-0.331 24.338 -0.113 22.313 -0.098 19.336 C-0.094 18.214 -0.091 17.093 -0.088 15.938 C-0.08 14.762 -0.071 13.586 -0.062 12.375 C-0.058 11.192 -0.053 10.008 -0.049 8.789 C-0.037 5.859 -0.019 2.93 0 0 Z " fill="#FBA802" transform="translate(427,275)"/>
</svg>
