<?xml version="1.0" encoding="UTF-8"?>
<!-- Generator: visioncortex VTracer 0.6.4 -->
<svg version="1.1" xmlns="http://www.w3.org/2000/svg" width="512" height="512">
<path d="M0 0 C2.569 1.98 4.982 4.058 7.387 6.234 C8.11 6.853 8.833 7.472 9.578 8.109 C16.602 14.507 20.954 23.089 23.387 32.234 C23.861 47.193 20.119 59.709 9.949 70.922 C9.104 71.685 8.258 72.448 7.387 73.234 C6.898 73.715 6.41 74.196 5.906 74.691 C-3.563 83.576 -14.658 85.815 -27.203 85.578 C-36.682 85.089 -44.607 80.357 -51.613 74.234 C-52.206 73.757 -52.799 73.28 -53.41 72.789 C-61.533 65.637 -66.46 54.043 -67.261 43.417 C-68.092 29.852 -65.757 21.242 -57.613 10.234 C-56.747 8.935 -56.747 8.935 -55.863 7.609 C-42.046 -6.975 -17.049 -11.519 0 0 Z M-38.051 25.172 C-42.246 30.594 -42.96 37.967 -42.418 44.641 C-41.105 50.845 -38.121 55.425 -32.988 59.047 C-27.744 62.059 -22.404 62.89 -16.445 61.859 C-10.251 59.942 -5.584 55.825 -2.477 50.164 C0.138 43.562 0.149 36.524 -2.559 29.934 C-5.812 24.214 -10.308 20.336 -16.613 18.234 C-24.839 17.227 -32.059 19.325 -38.051 25.172 Z " fill="#293038" transform="translate(381.61328125,285.765625)"/>
<path d="M0 0 C-0.664 0.315 -1.328 0.629 -2.012 0.953 C-6.755 3.252 -11.074 5.42 -15 9 C-15.701 9.639 -16.402 10.279 -17.125 10.938 C-19.152 13.167 -20.481 15.396 -22 18 C-22.602 19.027 -23.204 20.055 -23.824 21.113 C-24.439 22.169 -25.054 23.225 -25.688 24.312 C-26.31 25.381 -26.933 26.45 -27.574 27.551 C-28.045 28.359 -28.515 29.167 -29 30 C-30.076 27.282 -30.085 26.217 -28.996 23.449 C-24.088 14.753 -12.131 -4.044 0 0 Z " fill="#181D23" transform="translate(346,283)"/>
<path d="M0 0 C0 3.722 -0.988 4.878 -3 8 C-3.897 9.437 -4.793 10.874 -5.688 12.312 C-6.458 13.542 -7.229 14.771 -8 16 C-8.89 13.554 -9.187 12.436 -8.145 10 C-5.69 6.315 -3.336 2.966 0 0 Z " fill="#1E2329" transform="translate(325,297)"/>
</svg>
