<?xml version="1.0" encoding="UTF-8"?>
<!-- Generator: visioncortex VTracer 0.6.4 -->
<svg version="1.1" xmlns="http://www.w3.org/2000/svg" width="512" height="512">
<path d="M0 0 C7.708 7.433 11.798 14.857 12.25 25.688 C12.918 29.77 13.665 30.758 17.082 33.223 C21.248 35.476 25.608 37.241 30 39 C31.474 39.621 32.947 40.245 34.418 40.871 C37.956 42.364 41.512 43.804 45.078 45.227 C47.816 46.328 50.532 47.477 53.25 48.625 C57.387 50.358 61.554 51.979 65.75 53.562 C69.341 54.925 72.793 56.329 76.188 58.125 C80.575 60.436 85.23 61.71 90 63 C89.918 61.824 89.835 60.649 89.75 59.438 C89.775 54.748 90.999 51.596 94 48 C100.485 42.177 106.054 41.71 114.613 41.777 C119.412 42.093 123.518 43.335 128 45 C128.732 45.228 129.464 45.456 130.219 45.691 C134.982 47.247 137.546 49.266 141 53 C142.392 53.835 142.392 53.835 143.812 54.688 C144.534 55.121 145.256 55.554 146 56 C146 56.66 146 57.32 146 58 C146.681 58.165 147.361 58.33 148.062 58.5 C154.992 62.038 159.231 69.573 163.422 75.898 C164.996 78.238 164.996 78.238 168 80 C170.138 83.753 171.75 87.696 172.562 91.938 C172.832 94.393 172.832 94.393 176 96 C176.688 99.625 176.688 99.625 177 103 C179.916 103.25 179.916 103.25 183 103 C183.99 101.515 183.99 101.515 185 100 C185.859 102.637 185.859 102.637 186 106 C184.123 108.303 182.498 109.943 180.25 111.812 C179.366 112.587 179.366 112.587 178.463 113.377 C176.661 114.942 174.837 116.476 173 118 C172.46 118.449 171.921 118.898 171.365 119.361 C169.041 121.285 166.703 123.187 164.34 125.062 C162.085 126.93 160.034 128.896 158 131 C157.34 130.67 156.68 130.34 156 130 C157.062 128.938 158.125 127.875 159.188 126.812 C159.824 126.172 160.461 125.531 161.117 124.871 C162.654 123.344 164.228 121.854 165.812 120.375 C170.598 115.179 170.813 108.987 170.566 102.184 C169.166 87.21 156.57 73.498 145.816 64.141 C137.19 57.584 127.568 51.757 116.5 51.625 C115.417 51.597 114.334 51.568 113.219 51.539 C105.764 52.607 101.25 58.642 96.438 63.938 C95.145 65.343 93.852 66.748 92.559 68.152 C91.951 68.816 91.344 69.48 90.719 70.164 C89.219 71.766 87.68 73.291 86.094 74.805 C83.172 77.869 83.069 79.792 83 84 C83.916 97.108 91.648 108.373 100 118 C100.614 118.813 101.227 119.627 101.859 120.465 C109.684 129.732 121.557 137.374 133.625 139 C140.363 139.337 145.598 137.716 151.062 133.812 C151.702 133.214 152.341 132.616 153 132 C153.66 132.33 154.32 132.66 155 133 C150.527 137.58 145.976 141.986 141.121 146.16 C138.775 148.195 136.483 150.283 134.188 152.375 C129.929 156.219 125.538 159.855 121.078 163.461 C116.689 167.082 112.406 170.822 108.126 174.571 C106.425 176.057 104.715 177.531 103 179 C102.256 179.642 101.512 180.284 100.746 180.945 C100.17 181.293 99.594 181.641 99 182 C98.01 181.67 97.02 181.34 96 181 C96.016 180.344 96.031 179.688 96.048 179.012 C96.11 176.05 96.149 173.088 96.188 170.125 C96.213 169.092 96.238 168.06 96.264 166.996 C96.273 166.01 96.283 165.024 96.293 164.008 C96.309 163.097 96.324 162.185 96.341 161.247 C96.228 160.505 96.116 159.764 96 159 C92.62 156.747 90.475 156.457 86.488 155.812 C76.944 154.082 68.177 150.552 59.188 147 C42.968 139.204 42.968 139.204 26 138 C23.901 139.198 23.901 139.198 22 140.75 C21.316 141.285 20.631 141.82 19.926 142.371 C17.791 144.131 17.791 144.131 15.188 146.812 C13 149 13 149 10 150 C7.604 149.314 5.351 148.556 3.027 147.676 C2.324 147.418 1.62 147.16 0.896 146.895 C-1.427 146.043 -3.745 145.178 -6.062 144.312 C-9.319 143.111 -12.578 141.915 -15.836 140.719 C-16.67 140.411 -17.504 140.104 -18.364 139.787 C-24.194 137.644 -30.045 135.567 -35.914 133.531 C-36.7 133.258 -37.487 132.984 -38.297 132.702 C-41.345 131.643 -44.394 130.584 -47.446 129.539 C-49.543 128.82 -51.637 128.092 -53.73 127.363 C-55.516 126.749 -55.516 126.749 -57.337 126.122 C-60 125 -60 125 -61 123 C-60.333 121.667 -59.667 120.333 -59 119 C-57.824 113.945 -56.595 106.81 -59 102 C-59.538 95.473 -58.91 88.926 -58.188 82.438 C-58.117 81.735 -58.047 81.032 -57.975 80.308 C-57.73 78.309 -57.73 78.309 -57 75 C-55.515 74.01 -55.515 74.01 -54 73 C-54 72.01 -54 71.02 -54 70 C-53.475 70.144 -52.951 70.289 -52.41 70.438 C-41.768 72.987 -27.998 74.25 -18 69 C-12.836 65.803 -9.573 60.809 -6 56 C-5.346 55.162 -4.693 54.324 -4.02 53.461 C5.379 41.217 5.379 41.217 9.562 26.75 C9.377 25.512 9.191 24.275 9 23 C8.879 22.166 8.758 21.332 8.633 20.473 C7.854 15.818 7.029 11.756 4 8 C3.01 7.67 2.02 7.34 1 7 C0.505 3.535 0.505 3.535 0 0 Z " fill="#000001" transform="translate(239,201)"/>
<path d="M0 0 C1.056 3.168 1.131 3.985 0 7 C-0.766 7.551 -0.766 7.551 -1.547 8.113 C-3.883 11.147 -3.174 14.534 -3 18.188 C-2.8 25.944 -3.653 32.949 -5.285 40.512 C-5.868 43.357 -6.208 45.988 -6.375 48.875 C-6.86 54 -8.957 58.866 -12 63 C-14.043 63.594 -14.043 63.594 -16 64 C-16.66 64.99 -17.32 65.98 -18 67 C-24.54 69.453 -29.336 68.775 -36 67 C-35.78 59.622 -32.031 54.262 -28.312 48.062 C-27.293 46.331 -26.274 44.6 -25.255 42.868 C-24.205 41.087 -23.149 39.309 -22.093 37.532 C-19.443 33.069 -16.84 28.58 -14.233 24.092 C-9.548 16.025 -4.818 7.988 0 0 Z " fill="#010102" transform="translate(111,225)"/>
<path d="M0 0 C0.66 0.66 1.32 1.32 2 2 C-4.088 2.197 -9.825 2.127 -15.812 0.938 C-25.77 -0.807 -35.969 0.349 -46 1 C-35.212 -10.778 -12.776 -5.378 0 0 Z " fill="#000103" transform="translate(206,175)"/>
<path d="M0 0 C0.33 0 0.66 0 1 0 C1 2.64 1 5.28 1 8 C-6.028 9.352 -12.023 8.407 -19 7 C-19 6.34 -19 5.68 -19 5 C-17.02 4.01 -15.04 3.02 -13 2 C-12.67 2.66 -12.34 3.32 -12 4 C-10.181 4.687 -10.181 4.687 -8.062 5.125 C-7.352 5.293 -6.642 5.46 -5.91 5.633 C-3.997 6.063 -3.997 6.063 -2 6 C-1.34 4.02 -0.68 2.04 0 0 Z " fill="#081325" transform="translate(151,184)"/>
<path d="M0 0 C6.535 6.302 11.746 13.407 12.109 22.844 C12.073 23.555 12.037 24.267 12 25 C11.34 25 10.68 25 10 25 C9.818 24.192 9.636 23.384 9.449 22.551 C9.072 20.948 9.072 20.948 8.688 19.312 C8.322 17.729 8.322 17.729 7.949 16.113 C6.993 12.979 5.929 10.644 4 8 C3.01 7.67 2.02 7.34 1 7 C0.67 4.69 0.34 2.38 0 0 Z " fill="#010C1B" transform="translate(239,201)"/>
<path d="M0 0 C1.056 3.168 1.131 3.985 0 7 C-1.312 8.5 -1.312 8.5 -3 10 C-3.722 10.722 -4.444 11.444 -5.188 12.188 C-6.085 13.085 -6.085 13.085 -7 14 C-5.54 8.69 -3.017 4.537 0 0 Z " fill="#0B0C0C" transform="translate(111,225)"/>
<path d="M0 0 C4.274 1.583 6.265 4.506 9 8 C7 9 7 9 5.062 8.5 C1.955 6.24 1.323 3.573 0 0 Z " fill="#010811" transform="translate(230,192)"/>
<path d="M0 0 C3.219 0.631 5.508 1.78 8.25 3.562 C8.956 4.018 9.663 4.473 10.391 4.941 C11.187 5.465 11.187 5.465 12 6 C10.68 6.33 9.36 6.66 8 7 C7.67 6.01 7.34 5.02 7 4 C6.216 3.897 5.433 3.794 4.625 3.688 C2 3 2 3 0 0 Z " fill="#01040A" transform="translate(208,177)"/>
<path d="M0 0 C0.66 0 1.32 0 2 0 C1.67 1.65 1.34 3.3 1 5 C0.34 5 -0.32 5 -1 5 C-2.625 6.458 -2.625 6.458 -4 8 C-4.66 7.67 -5.32 7.34 -6 7 C-5.049 5.827 -4.089 4.662 -3.125 3.5 C-2.591 2.85 -2.058 2.201 -1.508 1.531 C-0.761 0.773 -0.761 0.773 0 0 Z " fill="#00040C" transform="translate(158,176)"/>
<path d="M0 0 C2.335 2.257 4.187 4.281 6 7 C5.67 7.99 5.34 8.98 5 10 C4.67 9.34 4.34 8.68 4 8 C3.01 7.67 2.02 7.34 1 7 C0.67 4.69 0.34 2.38 0 0 Z " fill="#020408" transform="translate(239,201)"/>
<path d="M0 0 C0.33 0 0.66 0 1 0 C1 2.64 1 5.28 1 8 C-0.32 7.67 -1.64 7.34 -3 7 C-2.01 4.69 -1.02 2.38 0 0 Z " fill="#000307" transform="translate(151,184)"/>
<path d="M0 0 C3.356 0.599 5.378 1.846 8 4 C6.02 4 4.04 4 2 4 C1.34 2.68 0.68 1.36 0 0 Z " fill="#0155B6" transform="translate(399,248)"/>
<path d="M0 0 C3.795 1.491 5.61 3.757 8 7 C6.25 6.875 6.25 6.875 4 6 C1.75 2.938 1.75 2.938 0 0 Z " fill="#01050D" transform="translate(222,185)"/>
<path d="M0 0 C1.98 0.99 1.98 0.99 4 2 C3.01 3.485 3.01 3.485 2 5 C1.34 4.34 0.68 3.68 0 3 C0 2.01 0 1.02 0 0 Z " fill="#1E67B8" transform="translate(419,291)"/>
<path d="M0 0 C0.33 0.99 0.66 1.98 1 3 C-0.32 4.32 -1.64 5.64 -3 7 C-1.125 2.25 -1.125 2.25 0 0 Z " fill="#151616" transform="translate(119,211)"/>
<path d="M0 0 C2.475 0.495 2.475 0.495 5 1 C5 1.33 5 1.66 5 2 C3.35 2 1.7 2 0 2 C0 1.34 0 0.68 0 0 Z " fill="#0254B3" transform="translate(392,245)"/>
<path d="M0 0 C0.33 0.66 0.66 1.32 1 2 C0.01 2.99 -0.98 3.98 -2 5 C-1.34 3.35 -0.68 1.7 0 0 Z " fill="#141415" transform="translate(114,220)"/>
<path d="M0 0 C0.33 0.66 0.66 1.32 1 2 C0.01 2.99 -0.98 3.98 -2 5 C-1.34 3.35 -0.68 1.7 0 0 Z " fill="#111112" transform="translate(131,191)"/>
<path d="M0 0 C0.33 0 0.66 0 1 0 C1 1.98 1 3.96 1 6 C0.67 6 0.34 6 0 6 C0 4.02 0 2.04 0 0 Z " fill="#8C9490" transform="translate(142,170)"/>
<path d="M0 0 C0.33 0.99 0.66 1.98 1 3 C0.34 2.67 -0.32 2.34 -1 2 C-0.67 1.34 -0.34 0.68 0 0 Z " fill="#075BB7" transform="translate(432,277)"/>
<path d="M0 0 C0 3 0 3 0 3 Z " fill="#181818" transform="translate(121,208)"/>
<path d="M0 0 C0 3 0 3 0 3 Z " fill="#1E1E1F" transform="translate(125,201)"/>
<path d="" fill="#2E69AA" transform="translate(0,0)"/>
<path d="M0 0 C3 1 3 1 3 1 Z " fill="#AAA69B" transform="translate(425,292)"/>
<path d="" fill="#206CC0" transform="translate(0,0)"/>
<path d="M0 0 C2 1 2 1 2 1 Z " fill="#0F62C0" transform="translate(421,275)"/>
<path d="M0 0 C2 1 2 1 2 1 Z " fill="#075BBB" transform="translate(419,274)"/>
<path d="M0 0 C2 1 2 1 2 1 Z " fill="#0056B9" transform="translate(417,273)"/>
<path d="M0 0 C2 1 2 1 2 1 Z " fill="#0053B4" transform="translate(410,253)"/>
<path d="M0 0 C2 1 2 1 2 1 Z " fill="#0057BC" transform="translate(407,252)"/>
<path d="M0 0 C2 1 2 1 2 1 Z " fill="#0254B4" transform="translate(397,247)"/>
<path d="" fill="#151616" transform="translate(0,0)"/>
<path d="" fill="#121213" transform="translate(0,0)"/>
<path d="" fill="#1D1D1E" transform="translate(0,0)"/>
<path d="" fill="#181819" transform="translate(0,0)"/>
<path d="" fill="#252526" transform="translate(0,0)"/>
<path d="M0 0 C2 1 2 1 2 1 Z " fill="#010409" transform="translate(220,184)"/>
<path d="" fill="#4C79A4" transform="translate(0,0)"/>
<path d="" fill="#85888B" transform="translate(0,0)"/>
<path d="" fill="#020303" transform="translate(0,0)"/>
<path d="" fill="#0352AD" transform="translate(0,0)"/>
<path d="" fill="#3A6C97" transform="translate(0,0)"/>
<path d="" fill="#0058B9" transform="translate(0,0)"/>
<path d="" fill="#0057B9" transform="translate(0,0)"/>
<path d="" fill="#0056B8" transform="translate(0,0)"/>
<path d="" fill="#0055B7" transform="translate(0,0)"/>
<path d="" fill="#0056BA" transform="translate(0,0)"/>
<path d="" fill="#0054B5" transform="translate(0,0)"/>
<path d="" fill="#0052B4" transform="translate(0,0)"/>
<path d="" fill="#0050AD" transform="translate(0,0)"/>
<path d="" fill="#0051AE" transform="translate(0,0)"/>
<path d="" fill="#0052B0" transform="translate(0,0)"/>
<path d="" fill="#171717" transform="translate(0,0)"/>
<path d="" fill="#A2A4A5" transform="translate(0,0)"/>
<path d="" fill="#AAABAA" transform="translate(0,0)"/>
<path d="" fill="#CCC2AE" transform="translate(0,0)"/>
<path d="" fill="#BF9957" transform="translate(0,0)"/>
<path d="" fill="#356C99" transform="translate(0,0)"/>
<path d="" fill="#005AB5" transform="translate(0,0)"/>
</svg>
