<?xml version="1.0" encoding="UTF-8"?>
<!-- Generator: visioncortex VTracer 0.6.4 -->
<svg version="1.1" xmlns="http://www.w3.org/2000/svg" width="512" height="512">
<path d="M0 0 C4.253 0.357 7.425 1.596 11.182 3.47 C12.211 3.963 12.211 3.963 13.261 4.465 C15.479 5.53 17.688 6.613 19.897 7.697 C22.186 8.802 24.477 9.902 26.768 11.003 C28.292 11.735 29.815 12.47 31.337 13.205 C38.68 16.751 46.102 20.106 53.561 23.401 C54.373 23.764 55.185 24.127 56.022 24.501 C56.717 24.808 57.411 25.115 58.127 25.431 C59.834 26.322 59.834 26.322 61.834 28.322 C62.287 31.969 62.158 35.649 62.147 39.322 C62.163 40.345 62.179 41.369 62.196 42.423 C62.196 43.4 62.197 44.378 62.198 45.384 C62.2 46.283 62.203 47.181 62.207 48.107 C62.084 48.838 61.961 49.569 61.834 50.322 C60.844 50.982 59.854 51.642 58.834 52.322 C56.322 51.487 54.112 50.576 51.737 49.443 C51.031 49.12 50.325 48.796 49.598 48.463 C48.098 47.775 46.6 47.081 45.105 46.382 C42.916 45.36 40.72 44.359 38.518 43.365 C34.876 41.721 31.24 40.062 27.607 38.397 C24.667 37.05 21.725 35.707 18.784 34.364 C16.605 33.365 14.431 32.355 12.257 31.346 C9.188 29.926 6.097 28.572 2.986 27.247 C2.201 26.903 1.415 26.559 0.606 26.204 C-0.897 25.545 -2.408 24.904 -3.927 24.283 C-5.967 23.374 -5.967 23.374 -9.166 21.322 C-10.829 16.399 -9.786 13.298 -7.853 8.572 C-7.403 7.443 -6.954 6.313 -6.49 5.15 C-4.736 1.405 -4.19 0.426 0 0 Z " fill="#232333" transform="translate(177.165771484375,115.67822265625)"/>
<path d="M0 0 C5.561 -0.36 9.446 0.702 14.348 3.148 C15.377 3.641 15.377 3.641 16.427 4.144 C18.645 5.209 20.853 6.292 23.062 7.375 C25.352 8.48 27.643 9.581 29.934 10.681 C31.458 11.414 32.981 12.148 34.503 12.884 C41.846 16.429 49.268 19.785 56.727 23.08 C57.539 23.443 58.351 23.806 59.188 24.18 C59.882 24.486 60.577 24.793 61.293 25.109 C63 26 63 26 65 28 C65.125 30.625 65.125 30.625 65 33 C63.02 32.34 61.04 31.68 59 31 C59 30.34 59 29.68 59 29 C58.01 28.752 57.02 28.505 56 28.25 C52.462 27.243 49.393 25.753 46.141 24.059 C43.941 22.971 41.726 22.07 39.438 21.188 C32.474 18.459 25.754 15.202 19 12 C16.678 10.9 14.356 9.801 12.033 8.704 C10.537 7.997 9.041 7.288 7.547 6.577 C4.722 5.241 1.968 3.989 -1 3 C-0.67 2.01 -0.34 1.02 0 0 Z " fill="#05060F" transform="translate(174,116)"/>
<path d="M0 0 C0.99 0.66 1.98 1.32 3 2 C3.188 4.625 3.188 4.625 3 7 C1.02 6.34 -0.96 5.68 -3 5 C-2.01 4.67 -1.02 4.34 0 4 C0 2.68 0 1.36 0 0 Z " fill="#0B1022" transform="translate(236,142)"/>
</svg>
