<?xml version="1.0" encoding="UTF-8"?>
<!-- Generator: visioncortex VTracer 0.6.4 -->
<svg version="1.1" xmlns="http://www.w3.org/2000/svg" width="512" height="512">
<path d="M0 0 C8.94 3.61 8.94 3.61 11 6 C11.808 11.09 11.808 11.09 11 14 C8 16.5 8 16.5 5 18 C5.933 19.752 6.872 21.502 7.812 23.25 C8.335 24.225 8.857 25.199 9.395 26.203 C10.908 28.978 10.908 28.978 12.699 31.234 C14 33 14 33 14 35 C14.601 35.271 15.201 35.541 15.82 35.82 C17.976 36.987 19.195 38.122 20.875 39.875 C26.036 44.416 32.465 45.461 39 47 C39.955 47.296 40.91 47.593 41.895 47.898 C49.238 49.898 53.735 47.89 60.348 44.383 C63 43 63 43 65 43 C65.182 41.519 65.182 41.519 65.367 40.008 C65.535 38.726 65.702 37.445 65.875 36.125 C66.037 34.849 66.2 33.573 66.367 32.258 C67 29 67 29 69 27 C74.568 27.568 74.568 27.568 76 29 C76.168 30.785 76.168 30.785 76.188 33.062 C76.202 33.796 76.216 34.529 76.23 35.285 C75.627 42.393 73.676 47.282 69.438 52.875 C68.771 53.773 68.771 53.773 68.092 54.689 C54.797 72.374 54.797 72.374 43 74.555 C30.031 76.082 17.786 72.856 7.455 64.794 C-3.871 55.468 -11.097 45.553 -13.348 30.707 C-13.861 19.518 -6.757 9.99 -1 1 C-0.67 0.67 -0.34 0.34 0 0 Z " fill="#20252A" transform="translate(106,276)"/>
<path d="M0 0 C1.65 0 3.3 0 5 0 C5.33 0.99 5.66 1.98 6 3 C4.68 4.32 3.36 5.64 2 7 C2.66 8.114 3.32 9.228 4 10.375 C6 13.75 6 13.75 6 16 C2.225 14.742 1.893 13.375 0 10 C-0.66 9.34 -1.32 8.68 -2 8 C-1.688 6.125 -1.688 6.125 -1 4 C-0.814 3.257 -0.629 2.515 -0.438 1.75 C-0.293 1.173 -0.149 0.595 0 0 Z " fill="#0A0B0D" transform="translate(109,288)"/>
<path d="M0 0 C1.031 0.784 2.062 1.567 3.125 2.375 C6.281 4.644 9.218 5.985 13 7 C12.34 7.66 11.68 8.32 11 9 C4.176 7.809 4.176 7.809 1 5.625 C0 4 0 4 0 0 Z " fill="#0B0C0E" transform="translate(124,314)"/>
<path d="M0 0 C0.33 0 0.66 0 1 0 C1.323 4.634 0.864 7.287 -2 11 C-2.99 11.33 -3.98 11.66 -5 12 C-4.67 9.69 -4.34 7.38 -4 5 C-2.68 4.67 -1.36 4.34 0 4 C0 2.68 0 1.36 0 0 Z " fill="#171B1F" transform="translate(180,314)"/>
<path d="M0 0 C3.96 0.33 7.92 0.66 12 1 C12.33 1.99 12.66 2.98 13 4 C7.739 4.316 4.554 3.666 0 1 C0 0.67 0 0.34 0 0 Z " fill="#070809" transform="translate(146,324)"/>
<path d="M0 0 C2.688 0.312 2.688 0.312 5 1 C3.68 2.32 2.36 3.64 1 5 C-0.32 4.34 -1.64 3.68 -3 3 C-1.812 1.438 -1.812 1.438 0 0 Z " fill="#090B0C" transform="translate(165,321)"/>
</svg>
