<?xml version="1.0" encoding="UTF-8"?>
<!-- Generator: visioncortex VTracer 0.6.4 -->
<svg version="1.1" xmlns="http://www.w3.org/2000/svg" width="512" height="512">
<path d="M0 0 C0.619 0.317 1.239 0.634 1.877 0.961 C4.479 2.317 6.602 3.539 8.688 5.625 C9.193 11.489 8.604 16.435 5.688 21.625 C1.587 25.625 1.587 25.625 -1.312 25.625 C-1.586 26.351 -1.86 27.076 -2.142 27.823 C-3.27 30.523 -4.556 32.932 -6.043 35.449 C-6.591 36.382 -7.139 37.314 -7.703 38.275 C-8.296 39.278 -8.889 40.28 -9.5 41.312 C-10.775 43.483 -12.05 45.653 -13.324 47.824 C-13.983 48.946 -14.643 50.068 -15.322 51.224 C-18.513 56.675 -21.662 62.15 -24.812 67.625 C-29.705 76.119 -34.621 84.598 -39.562 93.062 C-40.134 94.045 -40.706 95.028 -41.296 96.041 C-44.035 100.745 -46.793 105.436 -49.598 110.102 C-50.11 110.962 -50.622 111.823 -51.149 112.709 C-52.099 114.304 -53.057 115.893 -54.026 117.476 C-56.664 121.931 -57.752 125.398 -58.312 130.625 C-60.313 132.625 -60.313 132.625 -63.25 133 C-69.905 132.791 -76.206 130.124 -81.562 126.312 C-83.949 122.647 -83.13 120.854 -82.312 116.625 C-78.978 102.948 -72 90.893 -65.312 78.625 C-64.823 77.724 -64.334 76.822 -63.83 75.894 C-61.404 71.425 -58.965 66.962 -56.52 62.504 C-53.192 56.424 -49.925 50.312 -46.661 44.198 C-34.752 21.899 -34.752 21.899 -29.353 12.448 C-28.357 10.703 -27.375 8.949 -26.395 7.195 C-21.798 -0.619 -21.798 -0.619 -17.812 -2.562 C-10.91 -4.165 -6.167 -3.339 0 0 Z " fill="#8A8C8E" transform="translate(133.3125,163.375)"/>
</svg>
