<?xml version="1.0" encoding="UTF-8"?>
<!-- Generator: visioncortex VTracer 0.6.4 -->
<svg version="1.1" xmlns="http://www.w3.org/2000/svg" width="512" height="512">
<path d="M0 0 C3.514 0.711 6.553 1.046 10.125 0.812 C15.581 0.645 20.073 3.061 24.562 6 C25.058 6.99 25.058 6.99 25.562 8 C27.202 8.65 27.202 8.65 28.875 9.312 C32.57 10.79 34.182 12.799 36.562 16 C37.88 16.697 39.212 17.37 40.562 18 C42.562 21 42.562 21 42.562 24 C44.542 24.66 46.523 25.32 48.562 26 C48.893 28.31 49.222 30.62 49.562 33 C50.177 33.095 50.792 33.191 51.426 33.289 C53.562 34 53.562 34 54.793 35.461 C58.412 42.699 59.794 51.103 57.562 59 C56.322 62.046 54.98 65.032 53.562 68 C52.468 64.551 52.619 61.593 52.812 58 C52.881 45.768 46.29 34.08 38.02 25.301 C25.427 13.418 10.243 5.574 -7.312 5.789 C-17.574 6.482 -26.029 11.087 -33 18.562 C-39.874 26.95 -46.221 35.384 -45.203 46.578 C-43.091 61.698 -32.967 75.383 -21.438 85 C-15.734 88.933 -9.968 92.593 -3.438 95 C-5.188 99.875 -5.188 99.875 -7.438 101 C-7.928 103.461 -8.286 105.825 -8.562 108.312 C-8.647 109.029 -8.732 109.745 -8.82 110.482 C-9.504 116.663 -9.649 122.784 -9.438 129 C-11.418 129 -13.397 129 -15.438 129 C-15.726 129.99 -16.015 130.98 -16.312 132 C-16.475 132.557 -16.637 133.114 -16.805 133.688 C-17.465 135.911 -17.465 135.911 -17.708 137.886 C-18.447 142.169 -18.975 143.629 -22.5 146.453 C-23.791 147.098 -25.106 147.695 -26.438 148.25 C-27.489 148.701 -27.489 148.701 -28.562 149.162 C-38.403 152.782 -47.812 149.189 -57.152 145.555 C-68.776 140.054 -75.21 130.377 -80.438 119 C-75.688 115 -75.688 115 -73.438 115 C-73.535 112.079 -73.618 109.766 -74.438 107 C-77.456 104.384 -80.401 102.432 -84.438 102 C-85.427 102.495 -85.427 102.495 -86.438 103 C-86.759 97.105 -86.085 91.775 -84.938 86 C-83.571 79.072 -83.183 72.498 -83.461 65.445 C-83.584 61.674 -83.598 60.241 -81.438 57 C-80.778 57 -80.118 57 -79.438 57 C-79.417 56.072 -79.396 55.144 -79.375 54.188 C-78.694 49.351 -76.002 45.873 -73.332 41.887 C-71.548 39.169 -69.971 36.427 -68.438 33.562 C-67.95 32.67 -67.463 31.778 -66.961 30.859 C-65.867 28.806 -64.814 26.73 -63.789 24.641 C-59.539 16.448 -59.539 16.448 -56.496 15.211 C-54.339 15.186 -52.534 15.501 -50.438 16 C-49.022 16.178 -47.605 16.345 -46.188 16.5 C-44.95 16.665 -43.713 16.83 -42.438 17 C-41.118 17 -39.798 17 -38.438 17 C-38.438 14.36 -38.438 11.72 -38.438 9 C-37.798 8.897 -37.159 8.794 -36.5 8.688 C-35.819 8.461 -35.139 8.234 -34.438 8 C-34.108 7.01 -33.778 6.02 -33.438 5 C-32.778 4.67 -32.118 4.34 -31.438 4 C-31.108 3.01 -30.778 2.02 -30.438 1 C-27.771 0.661 -25.105 0.328 -22.438 0 C-21.322 -0.143 -21.322 -0.143 -20.184 -0.289 C-13.328 -1.124 -6.808 -1.492 0 0 Z " fill="#000000" transform="translate(190.4375,175)"/>
<path d="M0 0 C1.98 0 3.96 0 6 0 C6 0.33 6 0.66 6 1 C4.02 1 2.04 1 0 1 C0 0.67 0 0.34 0 0 Z " fill="#0E0F11" transform="translate(195,273)"/>
<path d="M0 0 C0.99 0 1.98 0 3 0 C3 0.66 3 1.32 3 2 C2.01 1.67 1.02 1.34 0 1 C0 0.67 0 0.34 0 0 Z " fill="#060708" transform="translate(187,271)"/>
<path d="M0 0 C4 1 4 1 4 1 Z " fill="#101114" transform="translate(208,273)"/>
<path d="M0 0 C3 1 3 1 3 1 Z " fill="#0D0E10" transform="translate(191,272)"/>
<path d="" fill="#090B0E" transform="translate(0,0)"/>
<path d="" fill="#0A0C0E" transform="translate(0,0)"/>
<path d="M0 0 C2 1 2 1 2 1 Z " fill="#121517" transform="translate(214,272)"/>
<path d="M0 0 C2 1 2 1 2 1 Z " fill="#0F1113" transform="translate(217,271)"/>
<path d="M0 0 C2 1 2 1 2 1 Z " fill="#14161A" transform="translate(219,270)"/>
<path d="" fill="#0E1012" transform="translate(0,0)"/>
<path d="" fill="#0B0D10" transform="translate(0,0)"/>
<path d="" fill="#040506" transform="translate(0,0)"/>
<path d="" fill="#1B1F23" transform="translate(0,0)"/>
<path d="" fill="#111417" transform="translate(0,0)"/>
<path d="" fill="#0D0E11" transform="translate(0,0)"/>
<path d="" fill="#070809" transform="translate(0,0)"/>
<path d="" fill="#1E2328" transform="translate(0,0)"/>
<path d="" fill="#15191C" transform="translate(0,0)"/>
<path d="" fill="#0B0D0F" transform="translate(0,0)"/>
<path d="" fill="#1A1E22" transform="translate(0,0)"/>
<path d="" fill="#15181C" transform="translate(0,0)"/>
<path d="" fill="#0D0F11" transform="translate(0,0)"/>
<path d="" fill="#070809" transform="translate(0,0)"/>
<path d="" fill="#121518" transform="translate(0,0)"/>
<path d="" fill="#0A0B0D" transform="translate(0,0)"/>
<path d="" fill="#030405" transform="translate(0,0)"/>
<path d="" fill="#171B1F" transform="translate(0,0)"/>
<path d="" fill="#0D0F11" transform="translate(0,0)"/>
<path d="" fill="#040505" transform="translate(0,0)"/>
<path d="" fill="#0A0C0E" transform="translate(0,0)"/>
<path d="" fill="#060709" transform="translate(0,0)"/>
</svg>
