<?xml version="1.0" encoding="UTF-8"?>
<!-- Generator: visioncortex VTracer 0.6.4 -->
<svg version="1.1" xmlns="http://www.w3.org/2000/svg" width="512" height="512">
<path d="M0 0 C9.859 3.322 19.296 8.351 28.688 12.812 C30.275 13.564 31.863 14.316 33.451 15.067 C44.688 20.393 55.882 25.807 67.061 31.254 C77.539 36.358 88.075 41.316 98.659 46.197 C110.808 51.811 122.858 57.622 134.887 63.487 C137.606 64.809 140.332 66.115 143.062 67.414 C154.255 72.784 165.1 78.561 169.695 90.86 C170.395 92.994 171.048 95.136 171.684 97.289 C171.91 98.041 172.136 98.793 172.369 99.568 C173.304 102.708 174.231 105.846 175.071 109.013 C177.538 119.078 177.538 119.078 184.289 126.419 C187.439 128.023 190.707 129.202 194.058 130.316 C197.102 131.388 199.942 132.835 202.828 134.273 C203.894 134.788 204.96 135.302 206.059 135.832 C208.233 136.883 210.408 137.936 212.582 138.988 C213.633 139.495 214.683 140.001 215.766 140.523 C217.17 141.203 217.17 141.203 218.603 141.896 C221.061 143.081 221.061 143.081 224 144 C224 144.99 224 145.98 224 147 C225.114 147.083 226.228 147.165 227.375 147.25 C228.571 147.498 229.767 147.745 231 148 C231.325 148.666 231.65 149.333 231.984 150.02 C232.32 150.673 232.655 151.327 233 152 C235.095 152.237 237.193 152.46 239.297 152.609 C246.569 153.66 254.287 157.133 259.664 162.195 C263.287 167.09 264.18 173.047 264 179 C259.832 178.479 256.692 176.928 253.062 174.938 C250.732 173.878 248.518 173.42 246 173 C246.595 175.544 247.201 178.085 247.812 180.625 C248.061 181.694 248.061 181.694 248.314 182.785 C249.388 187.203 250.803 190.982 253 195 C254.865 198.823 255.176 200.885 254 205 C252.02 204.67 250.04 204.34 248 204 C247.732 202.886 247.464 201.773 247.188 200.625 C246.342 196.782 246.342 196.782 243 195 C242 192.375 242 192.375 241 189 C239.255 183.322 237.433 180.124 233 176 C231.978 174.684 230.979 173.349 230 172 C228.181 169.502 226.36 167.259 224.125 165.125 C223.424 164.424 222.723 163.722 222 163 C222 162.34 222 161.68 222 161 C220.35 160.34 218.7 159.68 217 159 C217 158.34 217 157.68 217 157 C216.278 156.752 215.556 156.505 214.812 156.25 C211.724 154.877 209.49 153.276 207 151 C207 150.34 207 149.68 207 149 C205.484 148.845 205.484 148.845 203.938 148.688 C199.893 147.981 196.725 146.687 193 145 C186.642 142.972 178.109 142.719 171.938 145.375 C170.968 145.911 169.999 146.447 169 147 C168.237 147.309 167.474 147.619 166.688 147.938 C164.456 149.343 164.022 150.572 163 153 C162.569 154.905 162.196 156.824 161.875 158.75 C161.624 160.227 161.624 160.227 161.367 161.734 C161.246 162.482 161.125 163.23 161 164 C154.784 163.459 149.71 161.437 144 159 C143.001 158.593 142.002 158.185 140.973 157.766 C136.594 155.977 132.257 154.19 128.062 152 C124.963 150.407 121.83 149.15 118.562 147.938 C111.545 145.293 104.682 142.318 97.812 139.312 C96.689 138.825 95.565 138.337 94.406 137.834 C93.351 137.369 92.295 136.904 91.207 136.426 C89.776 135.798 89.776 135.798 88.316 135.157 C86 134 86 134 84 132 C83.475 129.828 83.028 127.636 82.625 125.438 C78.936 107.797 67.596 94.145 52.941 83.852 C40.867 76.053 27.623 70.595 13.125 70.625 C11.944 70.626 11.944 70.626 10.74 70.628 C4.498 70.754 -0.515 71.917 -6 75 C-6.99 75.516 -7.98 76.031 -9 76.562 C-11.26 78.009 -11.26 78.009 -13 81 C-13.66 81 -14.32 81 -15 81 C-15.289 81.743 -15.577 82.485 -15.875 83.25 C-16.432 84.611 -16.432 84.611 -17 86 C-17.289 86.743 -17.577 87.485 -17.875 88.25 C-19 90 -19 90 -20.688 90.938 C-24.27 91.034 -26.788 89.544 -30 88 C-29.346 82.93 -27.145 78.58 -25 74 C-21.535 74.495 -21.535 74.495 -18 75 C-17.34 69.39 -16.68 63.78 -16 58 C-17.629 57.381 -19.259 56.762 -20.938 56.125 C-25.875 54.25 -25.875 54.25 -27 52 C-29.277 51.125 -29.277 51.125 -31.938 50.438 C-36.858 49.071 -36.858 49.071 -39 48 C-37.216 43.04 -34.669 38.537 -32.125 33.938 C-31.645 33.07 -31.166 32.203 -30.672 31.309 C-27.05 24.804 -23.35 18.348 -19.562 11.938 C-19.067 11.087 -18.572 10.237 -18.061 9.361 C-17.352 8.175 -17.352 8.175 -16.629 6.965 C-16.217 6.27 -15.805 5.575 -15.381 4.859 C-11.155 -0.83 -6.584 -0.852 0 0 Z M4.203 17.664 C2.895 20.203 1.754 22.7 0.75 25.375 C0.394 26.29 0.038 27.205 -0.328 28.148 C-1.182 31.772 -1.42 33.51 0 37 C2.926 39.156 6.177 40.498 9.5 41.938 C10.5 42.392 11.5 42.847 12.531 43.315 C14.767 44.329 17.008 45.333 19.253 46.329 C23.325 48.137 27.369 50.003 31.414 51.871 C34.317 53.207 37.221 54.542 40.125 55.875 C40.818 56.193 41.511 56.512 42.225 56.84 C51.045 60.882 59.893 64.64 69 68 C72.435 64.565 71.369 59.719 71.375 55.062 C71.412 53.54 71.412 53.54 71.449 51.986 C71.453 51.012 71.457 50.039 71.461 49.035 C71.469 48.142 71.477 47.249 71.486 46.328 C71.203 43.894 71.203 43.894 69.321 42.355 C66.731 40.843 64.125 39.536 61.398 38.285 C60.28 37.769 59.162 37.253 58.01 36.721 C56.811 36.174 55.611 35.627 54.375 35.062 C52.491 34.199 50.607 33.335 48.723 32.471 C47.429 31.878 46.136 31.285 44.841 30.693 C41.019 28.941 37.212 27.158 33.419 25.342 C31.642 24.49 29.862 23.645 28.083 22.801 C25.864 21.746 23.65 20.682 21.441 19.608 C12.73 15.013 12.73 15.013 4.203 17.664 Z M-6 43 C-7.456 45.312 -8 46.743 -8 49.5 C-6.574 53.066 -4.266 54.294 -1 56 C0.286 56.673 0.286 56.673 1.598 57.359 C6.863 59.938 11.108 62.003 17 61 C19.225 58.263 19.225 58.263 19 55.562 C17.22 51 12.733 49.356 8.492 47.297 C7.299 46.786 6.105 46.276 4.875 45.75 C3.676 45.229 2.477 44.708 1.242 44.172 C-2.052 42.773 -2.052 42.773 -6 43 Z M98 58 C95.442 61.837 95.877 63.758 96.188 68.312 C96.264 69.608 96.34 70.904 96.418 72.238 C97.117 76.756 97.822 80.366 101.645 83.234 C106.426 86.175 111.264 88.646 116.41 90.883 C117.181 91.224 117.952 91.565 118.747 91.916 C121.183 92.991 123.623 94.058 126.062 95.125 C127.701 95.847 129.34 96.57 130.979 97.293 C134.664 98.917 138.349 100.541 142.043 102.145 C143.355 102.718 144.662 103.3 145.965 103.892 C148.833 105.175 150.818 106 154 106 C153.462 92.265 153.462 92.265 148 80 C145.195 78.131 145.195 78.131 141.688 76.562 C141.024 76.245 140.36 75.928 139.677 75.602 C138.096 74.85 136.512 74.106 134.925 73.368 C132.082 72.039 129.251 70.688 126.42 69.333 C123.715 68.039 121.007 66.754 118.297 65.47 C116.935 64.825 115.573 64.177 114.212 63.527 C112.275 62.604 110.334 61.691 108.391 60.781 C107.257 60.246 106.123 59.71 104.954 59.158 C101.908 57.757 101.908 57.757 98 58 Z M101 90 C100.331 93.287 100.331 93.287 101 97 C103.277 99.35 106.076 100.592 109 102 C110.061 102.53 111.122 103.06 112.215 103.605 C117.502 106.155 122.135 108.26 128 109 C128.418 105.668 128.418 105.668 128 102 C124.123 98.161 119.385 96.028 114.5 93.75 C113.754 93.386 113.007 93.023 112.238 92.648 C108.373 90.829 105.377 89.479 101 90 Z " fill="#0058B4" transform="translate(168,100)"/>
<path d="M0 0 C2 0 2 0 4.062 1.875 C8.362 8.81 7.136 18.08 7 26 C6.67 26 6.34 26 6 26 C5.818 24.71 5.636 23.419 5.449 22.09 C5.196 20.372 4.942 18.655 4.688 16.938 C4.57 16.09 4.452 15.242 4.33 14.369 C3.54 9.122 2.315 4.78 0 0 Z " fill="#004094" transform="translate(316,180)"/>
</svg>
