<?xml version="1.0" encoding="UTF-8"?>
<!-- Generator: visioncortex VTracer 0.6.4 -->
<svg version="1.1" xmlns="http://www.w3.org/2000/svg" width="512" height="512">
<path d="M0 0 C4.488 0.573 8.06 1.739 12.148 3.66 C13.894 4.474 13.894 4.474 15.674 5.304 C16.908 5.89 18.142 6.476 19.375 7.062 C20.637 7.659 21.9 8.256 23.162 8.852 C25.646 10.027 28.128 11.208 30.608 12.392 C33.48 13.754 36.363 15.083 39.258 16.395 C40.672 17.054 42.086 17.714 43.5 18.375 C45.279 19.191 45.279 19.191 47.094 20.023 C51.878 23.277 53.54 27.017 54.828 32.57 C54.967 33.743 55.107 34.916 55.25 36.125 C55.4 37.303 55.549 38.481 55.703 39.695 C55.954 42.492 56.063 45.196 56 48 C50.672 47.415 46.46 45.609 41.672 43.359 C40.883 42.995 40.094 42.631 39.281 42.256 C36.767 41.094 34.259 39.922 31.75 38.75 C30.08 37.977 28.409 37.205 26.738 36.434 C22.82 34.621 18.91 32.79 15.007 30.945 C13.243 30.115 11.475 29.296 9.705 28.479 C8.818 28.058 7.93 27.637 7.016 27.203 C6.291 26.864 5.567 26.526 4.821 26.177 C1.569 24.076 0.207 21.621 -1 18 C-1.279 15.494 -1.508 13.013 -1.688 10.5 C-1.747 9.823 -1.807 9.146 -1.869 8.449 C-2.143 4.648 -2.179 3.269 0 0 Z " fill="#1F1F2F" transform="translate(266,158)"/>
<path d="M0 0 C4.488 0.573 8.06 1.739 12.148 3.66 C13.894 4.474 13.894 4.474 15.674 5.304 C16.908 5.89 18.142 6.476 19.375 7.062 C20.637 7.659 21.9 8.256 23.162 8.852 C25.646 10.027 28.128 11.208 30.608 12.392 C33.48 13.754 36.363 15.083 39.258 16.395 C40.672 17.054 42.086 17.714 43.5 18.375 C45.279 19.191 45.279 19.191 47.094 20.023 C50.905 22.615 52.081 24.833 54 29 C53.75 31.438 53.75 31.438 53 33 C53 32.01 53 31.02 53 30 C52.34 30 51.68 30 51 30 C50.398 29.392 49.796 28.784 49.177 28.157 C46.918 25.918 45.042 24.821 42.176 23.484 C41.237 23.042 40.299 22.599 39.332 22.142 C38.336 21.683 37.339 21.223 36.312 20.75 C35.288 20.271 34.264 19.791 33.209 19.297 C31.128 18.323 29.046 17.353 26.963 16.385 C24.292 15.137 21.636 13.864 18.984 12.574 C18.231 12.21 17.478 11.847 16.702 11.472 C15.326 10.807 13.952 10.137 12.581 9.462 C8.133 7.336 3.815 6.072 -1 5 C-0.67 3.35 -0.34 1.7 0 0 Z " fill="#050711" transform="translate(266,158)"/>
</svg>
