<?xml version="1.0" encoding="UTF-8"?>
<!-- Generator: visioncortex VTracer 0.6.4 -->
<svg version="1.1" xmlns="http://www.w3.org/2000/svg" width="512" height="512">
<path d="M0 0 C18.151 8.512 33.348 23.514 41.188 42.105 C43.1 49.065 43.478 57.5 40.75 64.312 C35.026 73.642 23.549 82.273 13.625 86.5 C2.119 88.285 -7.372 84.343 -16.729 77.865 C-32.078 66.528 -44.095 50.194 -47.102 31.098 C-46.921 25.687 -45.025 22.14 -41.328 18.254 C-40.312 17.367 -39.285 16.491 -38.25 15.625 C-34.616 12.459 -31.218 9.342 -28.125 5.625 C-20.29 -3.46 -11.106 -4.242 0 0 Z M-9.562 17.125 C-11.972 22.049 -11.347 25.653 -10.062 30.875 C-6.938 38.45 -0.152 45.246 6.957 49.219 C10.618 50.731 14.043 51.409 18 51.062 C21.245 49.983 21.245 49.983 23 47.062 C24.428 40.585 22.779 35.125 19.613 29.453 C15.259 23.001 9.595 17.357 2 15.062 C-2.681 14.25 -5.778 14.079 -9.562 17.125 Z " fill="#252C35" transform="translate(368,253.9375)"/>
</svg>
