<?xml version="1.0" encoding="UTF-8"?>
<!-- Generator: visioncortex VTracer 0.6.4 -->
<svg version="1.1" xmlns="http://www.w3.org/2000/svg" width="512" height="512">
<path d="M0 0 C10.287 -0.316 20.472 0.646 30.711 1.496 C32.611 1.651 34.512 1.805 36.412 1.96 C40.375 2.282 44.337 2.608 48.298 2.936 C53.372 3.356 58.446 3.769 63.52 4.18 C67.436 4.498 71.351 4.818 75.266 5.14 C77.138 5.293 79.009 5.446 80.881 5.598 C83.492 5.81 86.102 6.027 88.712 6.244 C89.481 6.306 90.25 6.368 91.042 6.431 C94.757 6.745 98.364 7.169 102 8 C103.125 13.75 103.125 13.75 102 16 C90.529 16.192 79.209 15.601 67.773 14.758 C65.968 14.628 64.163 14.498 62.358 14.369 C58.608 14.098 54.858 13.824 51.109 13.546 C46.309 13.192 41.509 12.85 36.708 12.511 C32.995 12.247 29.282 11.976 25.569 11.703 C23.798 11.574 22.027 11.447 20.256 11.323 C17.789 11.149 15.323 10.965 12.857 10.778 C12.132 10.729 11.406 10.68 10.659 10.63 C6.761 10.322 3.542 9.677 0 8 C0 5.36 0 2.72 0 0 Z " fill="#727476" transform="translate(166,151)"/>
</svg>
