<?xml version="1.0" encoding="UTF-8"?>
<!-- Generator: visioncortex VTracer 0.6.4 -->
<svg version="1.1" xmlns="http://www.w3.org/2000/svg" width="512" height="512">
<path d="M0 0 C0.133 1.071 0.266 2.142 0.402 3.246 C0.581 4.643 0.759 6.04 0.938 7.438 C1.025 8.145 1.112 8.852 1.201 9.58 C1.382 13.088 1.382 13.088 3 16 C6.046 16.378 9.077 16.695 12.133 16.969 C13.073 17.055 14.014 17.142 14.982 17.231 C24.612 18.095 34.253 18.73 43.903 19.319 C46.958 19.505 50.012 19.696 53.066 19.888 C61.459 20.415 69.852 20.933 78.246 21.434 C80.385 21.563 82.524 21.693 84.663 21.824 C87.153 21.976 89.643 22.124 92.134 22.266 C97.752 22.611 103.26 23.147 108.824 24 C115.916 25.068 122.981 25.491 130.134 25.833 C165.444 27.575 165.444 27.575 173 35 C176.853 40.172 178.35 46.009 179.48 52.277 C179.606 52.97 179.731 53.663 179.861 54.377 C181.274 62.31 182.456 70.278 183.625 78.25 C183.95 80.455 184.276 82.661 184.604 84.866 C184.896 86.834 185.186 88.802 185.475 90.771 C185.911 93.827 185.911 93.827 186.575 96.061 C187.17 98.778 187.001 101.302 186.879 104.078 C186.831 105.238 186.782 106.398 186.732 107.594 C186.676 108.8 186.62 110.007 186.562 111.25 C186.51 112.472 186.458 113.694 186.404 114.953 C186.275 117.969 186.14 120.985 186 124 C186.66 124.33 187.32 124.66 188 125 C187.443 125.389 186.886 125.779 186.312 126.18 C175.035 134.447 168.412 144.765 164 158 C163.799 160.164 163.637 162.331 163.5 164.5 C163.283 167.938 163.091 170.728 162 174 C154.858 175.658 147.967 176.386 140.648 176.633 C139.591 176.674 138.533 176.716 137.443 176.759 C135.216 176.845 132.989 176.927 130.762 177.005 C127.405 177.124 124.048 177.254 120.691 177.387 C109.122 177.83 97.578 178.137 86 178 C85.965 177.059 85.929 176.118 85.893 175.149 C85.315 161.658 81.897 150.085 74 139 C73.01 138.34 72.02 137.68 71 137 C71 136.34 71 135.68 71 135 C70.46 134.742 69.92 134.484 69.363 134.219 C65.515 132.234 61.862 129.912 58.168 127.656 C48.19 122.44 35.271 122.331 24.562 125.562 C18.719 127.823 13.901 131.146 9 135 C7.948 135.763 6.896 136.526 5.812 137.312 C-6.496 149.074 -12.224 165.935 -15.387 182.227 C-16 185 -16 185 -17 186 C-19.64 186.33 -22.28 186.66 -25 187 C-25.33 179.41 -25.66 171.82 -26 164 C-22.04 163.01 -22.04 163.01 -18 162 C-18 152.43 -18 142.86 -18 133 C-23.723 133.093 -23.723 133.093 -29.562 133.188 C-42.035 133.274 -54.384 132.552 -66.812 131.562 C-68.092 131.461 -68.092 131.461 -69.398 131.358 C-71.856 131.161 -74.313 130.959 -76.77 130.754 C-77.498 130.693 -78.226 130.633 -78.976 130.571 C-83.348 130.191 -87.664 129.658 -92 129 C-91.427 122.413 -90.565 115.954 -89.363 109.453 C-89.203 108.571 -89.043 107.689 -88.879 106.78 C-88.361 103.936 -87.838 101.093 -87.312 98.25 C-87.134 97.279 -86.955 96.308 -86.771 95.307 C-85.692 89.439 -84.602 83.573 -83.506 77.708 C-83.035 75.188 -82.568 72.666 -82.101 70.145 C-81.334 66.01 -80.545 61.88 -79.75 57.75 C-79.529 56.558 -79.307 55.366 -79.079 54.138 C-77.706 47.161 -76.333 40.412 -71.195 35.152 C-62.848 30.254 -53.581 27.772 -44.367 25.012 C-38.623 23.285 -32.893 21.51 -27.163 19.735 C-25.205 19.13 -23.244 18.531 -21.284 17.932 C-20.091 17.565 -18.897 17.198 -17.668 16.82 C-16.598 16.493 -15.529 16.166 -14.427 15.829 C-12.079 15.226 -12.079 15.226 -11 14 C-10.769 12.653 -10.588 11.296 -10.438 9.938 C-10.293 8.638 -10.149 7.339 -10 6 C-9.34 6 -8.68 6 -8 6 C-8 4.02 -8 2.04 -8 0 C-5.138 -1.431 -3.066 -0.6 0 0 Z M-53.603 42.068 C-55.62 42.624 -57.645 43.146 -59.672 43.668 C-60.961 44.019 -62.251 44.372 -63.539 44.727 C-65.29 45.2 -65.29 45.2 -67.077 45.682 C-70.674 47.304 -71.479 48.389 -73 52 C-73.655 54.629 -74.194 57.158 -74.641 59.82 C-74.838 60.931 -74.838 60.931 -75.039 62.064 C-75.312 63.622 -75.581 65.18 -75.845 66.739 C-76.25 69.127 -76.675 71.51 -77.102 73.895 C-77.366 75.411 -77.629 76.928 -77.891 78.445 C-78.018 79.158 -78.145 79.87 -78.275 80.605 C-78.818 83.868 -79.064 85.808 -78 89 C-68.986 88.604 -59.976 88.133 -51 87.188 C-49.701 87.057 -48.401 86.927 -47.062 86.793 C-44.003 86.35 -44.003 86.35 -42.903 84.47 C-41.619 80.958 -41.068 77.37 -40.492 73.691 C-40.297 72.486 -40.297 72.486 -40.097 71.256 C-39.824 69.559 -39.553 67.862 -39.286 66.165 C-38.877 63.574 -38.457 60.985 -38.035 58.396 C-37.77 56.745 -37.506 55.093 -37.242 53.441 C-37.117 52.67 -36.992 51.899 -36.863 51.105 C-36.28 47.371 -35.851 43.782 -36 40 C-42.14 38.251 -47.659 40.416 -53.603 42.068 Z M-3 45 C-3.703 47.741 -4.139 50.039 -4.398 52.812 C-4.483 53.544 -4.567 54.276 -4.653 55.031 C-4.826 56.569 -4.988 58.109 -5.141 59.649 C-5.375 61.996 -5.64 64.337 -5.91 66.68 C-6.075 68.182 -6.238 69.685 -6.398 71.188 C-6.475 71.881 -6.552 72.575 -6.632 73.29 C-7.028 77.385 -6.935 80.988 -6 85 C-2.979 88.021 4.608 87.164 8.682 87.253 C9.967 87.283 11.251 87.312 12.575 87.343 C13.959 87.37 15.343 87.396 16.727 87.422 C17.783 87.443 17.783 87.443 18.861 87.464 C22.582 87.537 26.303 87.604 30.024 87.667 C33.859 87.734 37.693 87.818 41.527 87.907 C44.487 87.972 47.446 88.024 50.406 88.071 C51.82 88.097 53.234 88.127 54.648 88.163 C56.624 88.211 58.6 88.238 60.577 88.265 C61.699 88.286 62.822 88.307 63.978 88.33 C67.417 87.955 69.271 87.099 72 85 C73.33 80.533 73.156 75.886 73.125 71.25 C73.12 70.16 73.12 70.16 73.115 69.049 C73.063 63.382 72.889 57.723 72.625 52.062 C72.594 51.287 72.563 50.512 72.532 49.714 C72.432 45.394 72.432 45.394 70 42 C65.368 40.955 60.675 40.717 55.945 40.465 C55.174 40.422 54.404 40.378 53.609 40.334 C45.179 39.868 36.745 39.467 28.31 39.101 C26.841 39.037 25.373 38.971 23.905 38.903 C19.916 38.719 15.93 38.589 11.938 38.5 C10.983 38.457 10.029 38.415 9.045 38.371 C8.173 38.362 7.301 38.353 6.402 38.344 C5.665 38.325 4.927 38.306 4.168 38.287 C0.671 39.437 -1.206 41.924 -3 45 Z M102.438 45.812 C97.529 53.282 99.955 64.825 100.312 73.438 C100.335 74.194 100.357 74.951 100.38 75.731 C100.613 80.472 101.421 83.88 104 88 C106.457 89.228 108.221 89.206 110.969 89.316 C112.003 89.359 113.038 89.401 114.104 89.444 C115.224 89.483 116.345 89.522 117.5 89.562 C118.647 89.604 119.793 89.645 120.975 89.687 C129.482 89.966 137.988 90.134 146.5 90.188 C147.621 90.2 148.742 90.213 149.896 90.227 C151.448 90.229 151.448 90.229 153.031 90.23 C153.945 90.235 154.858 90.239 155.799 90.243 C158.208 90.209 158.208 90.209 160 88 C160.295 85.462 160.295 85.462 160.23 82.504 C160.229 81.387 160.227 80.27 160.225 79.119 C160.212 77.945 160.2 76.772 160.188 75.562 C160.187 74.424 160.186 73.285 160.186 72.111 C160.823 59.692 160.823 59.692 157.188 48.375 C152.829 45.636 148.115 45.729 143.086 45.465 C142.316 45.422 141.547 45.379 140.754 45.335 C139.125 45.245 137.496 45.156 135.867 45.07 C133.404 44.939 130.942 44.801 128.48 44.662 C114.835 42.788 114.835 42.788 102.438 45.812 Z M-11 102 C-11.435 105.02 -11.435 105.02 -11.438 108.438 C-11.477 109.591 -11.517 110.745 -11.559 111.934 C-11.294 115.086 -11.294 115.086 -9.039 116.883 C-4.932 118.393 -1.281 118.476 3.062 118.438 C3.865 118.457 4.667 118.477 5.494 118.498 C10.357 118.497 10.357 118.497 14.496 116.098 C17.278 112.217 17.522 108.686 17 104 C16.359 102.654 15.695 101.319 15 100 C11.042 99.942 7.084 99.906 3.125 99.875 C1.997 99.858 0.869 99.841 -0.293 99.824 C-1.369 99.818 -2.446 99.811 -3.555 99.805 C-4.55 99.794 -5.545 99.784 -6.57 99.773 C-9.182 99.756 -9.182 99.756 -11 102 Z M105 100 C105 104.29 105 108.58 105 113 C110.425 113.904 115.295 114.183 120.75 114.188 C122.044 114.206 122.044 114.206 123.363 114.225 C124.187 114.227 125.011 114.228 125.859 114.23 C126.98 114.237 126.98 114.237 128.124 114.243 C130.245 114.162 130.245 114.162 132 112 C132.319 109.63 132.319 109.63 132.25 107 C132.255 106.113 132.26 105.226 132.266 104.312 C132.221 101.806 132.221 101.806 130 100 C127.84 99.614 127.84 99.614 125.352 99.551 C124.429 99.508 123.506 99.464 122.555 99.42 C121.588 99.384 120.621 99.349 119.625 99.312 C118.666 99.265 117.707 99.218 116.719 99.17 C112.453 98.989 109.189 98.953 105 100 Z " fill="#0059B6" transform="translate(165,144)"/>
<path d="M0 0 C0.66 5.28 1.32 10.56 2 16 C-2.62 16 -7.24 16 -12 16 C-11.34 12.7 -10.68 9.4 -10 6 C-9.34 6 -8.68 6 -8 6 C-8 4.02 -8 2.04 -8 0 C-6 -1 -6 -1 0 0 Z " fill="#48494C" transform="translate(165,144)"/>
<path d="M0 0 C1.03 0.001 1.03 0.001 2.08 0.002 C5.246 0.029 8.218 0.192 11.359 0.667 C15.739 1.263 20.068 1.498 24.48 1.688 C26.262 1.771 28.044 1.854 29.826 1.938 C32.611 2.064 35.396 2.188 38.18 2.312 C40.885 2.434 43.589 2.561 46.293 2.688 C47.125 2.723 47.958 2.758 48.815 2.795 C49.593 2.832 50.371 2.868 51.173 2.906 C51.853 2.937 52.534 2.967 53.235 2.998 C55.188 3.188 55.188 3.188 59.188 4.188 C59.188 11.118 59.188 18.048 59.188 25.188 C58.858 25.188 58.528 25.188 58.188 25.188 C57.692 16.278 57.692 16.278 57.188 7.188 C52.096 5.733 48.762 4.913 43.701 4.685 C42.461 4.625 41.22 4.565 39.942 4.504 C38.608 4.447 37.275 4.392 35.941 4.336 C34.561 4.272 33.181 4.208 31.801 4.143 C28.19 3.974 24.578 3.816 20.966 3.659 C17.272 3.498 13.578 3.327 9.885 3.156 C2.653 2.824 -4.58 2.502 -11.812 2.188 C-7.859 -0.011 -4.439 -0.078 0 0 Z " fill="#022C6A" transform="translate(178.8125,180.8125)"/>
<path d="M0 0 C1.32 0 2.64 0 4 0 C4 12.87 4 25.74 4 39 C3.67 39 3.34 39 3 39 C2.975 38.3 2.95 37.601 2.924 36.88 C2.807 33.649 2.685 30.418 2.562 27.188 C2.523 26.087 2.484 24.987 2.443 23.854 C2.32 11.756 2.32 11.756 0 0 Z " fill="#013987" transform="translate(322,192)"/>
<path d="M0 0 C2.97 0 5.94 0 9 0 C9 6.93 9 13.86 9 21 C8.67 21 8.34 21 8 21 C7.67 15.06 7.34 9.12 7 3 C4.69 2.34 2.38 1.68 0 1 C0 0.67 0 0.34 0 0 Z " fill="#06255A" transform="translate(229,185)"/>
<path d="M0 0 C3.3 0 6.6 0 10 0 C10 0.33 10 0.66 10 1 C6.7 1 3.4 1 0 1 C0 0.67 0 0.34 0 0 Z " fill="#4C5054" transform="translate(111,337)"/>
<path d="M0 0 C2.31 0 4.62 0 7 0 C7 0.33 7 0.66 7 1 C4.69 1.66 2.38 2.32 0 3 C0 2.01 0 1.02 0 0 Z " fill="#587199" transform="translate(413,295)"/>
<path d="M0 0 C0.33 0 0.66 0 1 0 C1 1.98 1 3.96 1 6 C0.67 6 0.34 6 0 6 C0 4.02 0 2.04 0 0 Z " fill="#3479C5" transform="translate(411,288)"/>
<path d="M0 0 C0.66 0.99 1.32 1.98 2 3 C1.01 2.67 0.02 2.34 -1 2 C-0.67 1.34 -0.34 0.68 0 0 Z " fill="#012650" transform="translate(405,311)"/>
<path d="M0 0 C4 1 4 1 4 1 Z " fill="#1D1D1E" transform="translate(131,336)"/>
<path d="M0 0 C4 1 4 1 4 1 Z " fill="#39608A" transform="translate(409,314)"/>
<path d="" fill="#0E1012" transform="translate(0,0)"/>
<path d="M0 0 C0.33 0.66 0.66 1.32 1 2 C0.34 1.67 -0.32 1.34 -1 1 C-0.67 0.67 -0.34 0.34 0 0 Z " fill="#2666AB" transform="translate(414,312)"/>
<path d="" fill="#003879" transform="translate(0,0)"/>
<path d="" fill="#0F1214" transform="translate(0,0)"/>
<path d="M0 0 C2 1 2 1 2 1 Z " fill="#0B0C0D" transform="translate(400,313)"/>
<path d="" fill="#025AB7" transform="translate(0,0)"/>
<path d="" fill="#003574" transform="translate(0,0)"/>
<path d="M0 0 C2 1 2 1 2 1 Z " fill="#003F87" transform="translate(354,267)"/>
<path d="M0 0 C2 1 2 1 2 1 Z " fill="#012555" transform="translate(361,265)"/>
<path d="M0 0 C2 1 2 1 2 1 Z " fill="#183F6E" transform="translate(403,241)"/>
<path d="" fill="#1B1F24" transform="translate(0,0)"/>
<path d="" fill="#090A0B" transform="translate(0,0)"/>
<path d="" fill="#0D0E10" transform="translate(0,0)"/>
<path d="" fill="#3D4349" transform="translate(0,0)"/>
<path d="" fill="#2B2C2D" transform="translate(0,0)"/>
<path d="" fill="#474849" transform="translate(0,0)"/>
<path d="" fill="#1C1C1D" transform="translate(0,0)"/>
<path d="" fill="#A4A3A2" transform="translate(0,0)"/>
<path d="" fill="#022858" transform="translate(0,0)"/>
<path d="" fill="#F6A60E" transform="translate(0,0)"/>
<path d="" fill="#012A57" transform="translate(0,0)"/>
<path d="" fill="#01244F" transform="translate(0,0)"/>
<path d="" fill="#002452" transform="translate(0,0)"/>
<path d="" fill="#002B5F" transform="translate(0,0)"/>
<path d="" fill="#003778" transform="translate(0,0)"/>
<path d="" fill="#002045" transform="translate(0,0)"/>
<path d="" fill="#004DA2" transform="translate(0,0)"/>
<path d="" fill="#003A7C" transform="translate(0,0)"/>
<path d="" fill="#00306D" transform="translate(0,0)"/>
<path d="" fill="#717B67" transform="translate(0,0)"/>
<path d="" fill="#01306B" transform="translate(0,0)"/>
<path d="" fill="#002D64" transform="translate(0,0)"/>
<path d="" fill="#03244F" transform="translate(0,0)"/>
<path d="" fill="#022757" transform="translate(0,0)"/>
<path d="" fill="#01336F" transform="translate(0,0)"/>
<path d="" fill="#012B5E" transform="translate(0,0)"/>
<path d="" fill="#032656" transform="translate(0,0)"/>
</svg>
