<?xml version="1.0" encoding="UTF-8"?>
<!-- Generator: visioncortex VTracer 0.6.4 -->
<svg version="1.1" xmlns="http://www.w3.org/2000/svg" width="512" height="512">
<path d="M0 0 C7.996 0.067 15.5 1.904 23.256 3.671 C38.707 7.171 53.403 9.516 69.316 9.23 C71.105 9.309 71.105 9.309 72.105 10.309 C72.386 14.26 72.337 18.224 72.355 22.184 C72.376 23.299 72.397 24.414 72.418 25.562 C72.426 27.165 72.426 27.165 72.434 28.801 C72.443 29.784 72.452 30.768 72.462 31.781 C72.105 34.309 72.105 34.309 70.747 36.114 C68.282 37.908 66.131 37.979 63.105 38.309 C62.443 38.406 61.78 38.504 61.097 38.605 C44.814 40.733 30.523 36.313 15.168 31.434 C14.138 31.107 13.108 30.781 12.047 30.445 C9.093 29.501 6.147 28.539 3.203 27.566 C2.3 27.27 1.397 26.974 0.466 26.669 C-0.358 26.389 -1.182 26.109 -2.031 25.821 C-2.756 25.577 -3.481 25.332 -4.227 25.081 C-5.895 24.309 -5.895 24.309 -6.895 22.309 C-7.203 15.309 -7.335 8.19 -5.895 1.309 C-4.224 -0.362 -2.303 0.059 0 0 Z " fill="#919394" transform="translate(67.89453125,298.69140625)"/>
</svg>
