<?xml version="1.0" encoding="UTF-8"?>
<!-- Generator: visioncortex VTracer 0.6.4 -->
<svg version="1.1" xmlns="http://www.w3.org/2000/svg" width="512" height="512">
<path d="M0 0 C1.213 0.046 2.426 0.092 3.675 0.14 C5.611 0.231 5.611 0.231 7.586 0.324 C9.551 0.408 9.551 0.408 11.555 0.493 C14.167 0.606 16.778 0.724 19.389 0.847 C22.397 0.986 25.404 1.102 28.414 1.203 C29.888 1.263 31.362 1.324 32.836 1.387 C34.688 1.46 34.688 1.46 36.578 1.535 C40.586 2.1 43.358 3.179 46.961 5.012 C50.636 12.362 49.144 23.554 49.148 31.574 C49.161 32.748 49.173 33.922 49.186 35.131 C49.187 36.248 49.189 37.365 49.191 38.516 C49.196 39.524 49.2 40.533 49.204 41.573 C48.961 44.012 48.961 44.012 46.961 46.012 C44.76 46.255 44.76 46.255 41.992 46.242 C40.958 46.241 39.924 46.24 38.858 46.239 C37.737 46.226 36.616 46.213 35.461 46.199 C34.313 46.19 33.165 46.181 31.982 46.171 C28.308 46.132 24.635 46.073 20.961 46.012 C19.125 45.991 19.125 45.991 17.251 45.969 C13.695 45.923 10.141 45.848 6.586 45.762 C5.482 45.748 4.378 45.734 3.24 45.719 C2.212 45.687 1.184 45.655 0.125 45.621 C-0.778 45.6 -1.681 45.579 -2.611 45.558 C-5.798 44.841 -7.007 43.522 -9.039 41.012 C-10.297 37.239 -10.405 33.575 -10.602 29.637 C-10.643 28.835 -10.684 28.033 -10.726 27.206 C-11.693 7.134 -11.693 7.134 -9.039 2.012 C-5.483 -0.359 -4.192 -0.177 0 0 Z " fill="#201F2F" transform="translate(276.0390625,187.98828125)"/>
<path d="M0 0 C1.814 0.079 1.814 0.079 3.666 0.16 C5.589 0.276 5.589 0.276 7.551 0.395 C9.509 0.491 9.509 0.491 11.506 0.59 C14.107 0.722 16.707 0.861 19.307 1.01 C22.309 1.176 25.308 1.306 28.312 1.406 C29.788 1.464 31.263 1.523 32.738 1.582 C34.591 1.656 34.591 1.656 36.48 1.73 C40.489 2.295 43.261 3.374 46.863 5.207 C48.066 7.612 47.964 9.157 47.926 11.832 C47.917 12.649 47.908 13.467 47.898 14.309 C47.887 14.935 47.875 15.562 47.863 16.207 C47.533 16.207 47.203 16.207 46.863 16.207 C46.203 13.897 45.543 11.587 44.863 9.207 C44.203 9.207 43.543 9.207 42.863 9.207 C42.863 9.537 42.863 9.867 42.863 10.207 C35.818 10.317 28.831 10.186 21.801 9.707 C15.194 9.27 8.61 9.096 1.988 9.082 C1.126 9.078 0.263 9.073 -0.625 9.068 C-1.834 9.071 -1.834 9.071 -3.066 9.074 C-4.137 9.076 -4.137 9.076 -5.23 9.078 C-7.36 9.142 -7.36 9.142 -10.137 10.207 C-10.623 4.859 -10.623 4.859 -8.505 2.017 C-5.432 -0.332 -3.83 -0.199 0 0 Z " fill="#04050C" transform="translate(276.13671875,187.79296875)"/>
<path d="M0 0 C1.152 0.318 2.304 0.635 3.49 0.963 C7.73 2.019 11.802 2.409 16.156 2.598 C16.903 2.637 17.649 2.676 18.419 2.716 C20.779 2.839 23.139 2.951 25.5 3.062 C27.861 3.179 30.221 3.298 32.581 3.419 C34.042 3.494 35.502 3.566 36.963 3.633 C41.682 3.868 46.316 4.368 51 5 C51.495 6.485 51.495 6.485 52 8 C44.954 8.11 37.968 7.979 30.938 7.5 C24.33 7.063 17.746 6.889 11.125 6.875 C10.263 6.87 9.4 6.866 8.511 6.861 C7.303 6.864 7.303 6.864 6.07 6.867 C4.999 6.869 4.999 6.869 3.907 6.871 C1.776 6.935 1.776 6.935 -1 8 C-1.125 2.25 -1.125 2.25 0 0 Z " fill="#0F0F1A" transform="translate(267,190)"/>
<path d="M0 0 C0.88 0.088 1.761 0.175 2.668 0.266 C3.376 0.425 4.083 0.585 4.812 0.75 C5.142 1.41 5.473 2.07 5.812 2.75 C4.565 2.841 4.565 2.841 3.293 2.934 C1.663 3.059 1.663 3.059 0 3.188 C-1.618 3.309 -1.618 3.309 -3.27 3.434 C-6.247 3.652 -6.247 3.652 -9.188 4.75 C-9.188 3.76 -9.188 2.77 -9.188 1.75 C-5.918 -0.231 -3.773 -0.424 0 0 Z " fill="#141420" transform="translate(275.1875,193.25)"/>
</svg>
