<?xml version="1.0" encoding="UTF-8"?>
<!-- Generator: visioncortex VTracer 0.6.4 -->
<svg version="1.1" xmlns="http://www.w3.org/2000/svg" width="512" height="512">
<path d="M0 0 C0.633 0.267 1.266 0.534 1.918 0.809 C10.184 4.914 15.073 12.969 19 21 C19.592 22.069 19.592 22.069 20.195 23.16 C25.967 34.925 23.859 50.961 20 63 C14.925 75.59 7.68 84.35 -4.691 90.293 C-14.308 94.263 -22.764 94.957 -32.875 92.312 C-33.572 92.131 -34.269 91.949 -34.987 91.762 C-45.811 88.809 -52.957 83.784 -61 76 C-62.361 74.855 -62.361 74.855 -63.75 73.688 C-70.079 66.127 -73.386 56.912 -74.25 47.188 C-73.939 44.463 -73.736 43.17 -72 41 C-70.718 40.593 -69.424 40.223 -68.125 39.875 C-65.391 38.962 -64.291 38.504 -62.832 35.977 C-62.213 34.264 -61.62 32.541 -61.047 30.812 C-59.161 25.745 -56.012 21.458 -53 17 C-52.442 16.118 -51.884 15.237 -51.309 14.328 C-46.166 6.454 -40.592 0.735 -31.375 -1.938 C-20.854 -4.098 -9.992 -4.22 0 0 Z M-33.438 31 C-37.412 38.63 -38.623 47.004 -36.348 55.41 C-33.679 61.355 -29.105 65.12 -23.625 68.438 C-18.246 69.59 -13.05 68.822 -8.188 66.25 C-2.624 62.323 1.205 57.249 2.477 50.453 C3.359 43.024 2.91 37.479 -0.75 30.812 C-4.415 26.231 -8.119 22.553 -14.164 21.691 C-22.72 21.243 -28.086 24.414 -33.438 31 Z " fill="#272F37" transform="translate(221,285)"/>
<path d="M0 0 C-7.394 4.642 -7.394 4.642 -10.75 6.625 C-12.944 7.966 -14.971 9.422 -17 11 C-15.531 7.383 -13.602 5.634 -10.5 3.312 C-9.706 2.711 -8.912 2.109 -8.094 1.488 C-4.854 -0.814 -3.775 -1.132 0 0 Z " fill="#181E24" transform="translate(190,285)"/>
</svg>
