<?xml version="1.0" encoding="UTF-8"?>
<!-- Generator: visioncortex VTracer 0.6.4 -->
<svg version="1.1" xmlns="http://www.w3.org/2000/svg" width="512" height="512">
<path d="M0 0 C-0.602 8.355 -1.764 16.592 -3.102 24.855 C-3.441 26.957 -3.768 29.062 -4.096 31.166 C-4.312 32.516 -4.529 33.865 -4.746 35.215 C-4.939 36.423 -5.131 37.63 -5.33 38.875 C-5.922 41.637 -6.41 43.678 -8 46 C-11.062 46.793 -11.062 46.793 -15 47.188 C-15.696 47.261 -16.392 47.334 -17.109 47.41 C-25.383 48.233 -33.695 48.635 -42 49 C-43.263 45.211 -42.573 42.274 -41.891 38.445 C-41.763 37.707 -41.636 36.968 -41.504 36.207 C-41.232 34.645 -40.956 33.083 -40.677 31.522 C-40.253 29.143 -39.849 26.761 -39.445 24.379 C-39.178 22.859 -38.91 21.34 -38.641 19.82 C-38.462 18.758 -38.462 18.758 -38.28 17.673 C-37.524 13.555 -36.709 10.239 -34 7 C-31.077 5.682 -31.077 5.682 -27.539 4.727 C-26.911 4.554 -26.284 4.381 -25.637 4.203 C-24.313 3.843 -22.987 3.492 -21.658 3.15 C-19.632 2.627 -17.617 2.072 -15.602 1.512 C-4.843 -1.379 -4.843 -1.379 0 0 Z " fill="#22222E" transform="translate(129,184)"/>
<path d="M0 0 C0 0.99 0 1.98 0 3 C-2.707 3.776 -5.415 4.547 -8.125 5.312 C-8.937 5.545 -9.748 5.777 -10.584 6.016 C-14.441 7.099 -18.252 8.1 -22.207 8.754 C-28.494 9.449 -28.494 9.449 -33.527 12.738 C-34.533 14.855 -34.533 14.855 -35 18 C-35.33 18 -35.66 18 -36 18 C-35.707 12.043 -35.707 12.043 -35 10 C-31.478 7.54 -28.096 6.281 -23.965 5.176 C-22.257 4.717 -22.257 4.717 -20.514 4.248 C-19.334 3.939 -18.153 3.631 -16.938 3.312 C-15.753 2.992 -14.569 2.672 -13.35 2.342 C-4.537 0 -4.537 0 0 0 Z " fill="#0E0B18" transform="translate(128,183)"/>
<path d="M0 0 C-0.33 0.66 -0.66 1.32 -1 2 C-2.423 2.34 -2.423 2.34 -3.875 2.688 C-7.298 4.125 -7.531 4.414 -8.875 7.625 C-9.246 8.739 -9.618 9.852 -10 11 C-10.33 11 -10.66 11 -11 11 C-10.86 8.145 -10.738 5.731 -10 3 C-6.779 0.137 -4.239 -0.363 0 0 Z " fill="#080819" transform="translate(103,190)"/>
</svg>
