<?xml version="1.0" encoding="UTF-8"?>
<!-- Generator: visioncortex VTracer 0.6.4 -->
<svg version="1.1" xmlns="http://www.w3.org/2000/svg" width="512" height="512">
<path d="M0 0 C5.547 2.876 9.567 7.58 11.98 13.305 C13.771 22.609 12.725 29.456 8.105 37.617 C4.429 42.267 0.835 45.066 -5.02 46.305 C-11.079 46.403 -15.292 45.28 -20.02 41.305 C-25.174 36.093 -27.306 31.383 -27.395 24.055 C-27.266 15.913 -24.855 9.14 -19.02 3.305 C-13.153 -1.036 -7.098 -2.444 0 0 Z " fill="#87898F" transform="translate(211.01953125,307.6953125)"/>
<path d="M0 0 C0.66 0.33 1.32 0.66 2 1 C-0.97 3.97 -3.94 6.94 -7 10 C-7 6.044 -5.595 4.891 -3 2 C-2.01 1.34 -1.02 0.68 0 0 Z " fill="#70747A" transform="translate(195,309)"/>
</svg>
