<?xml version="1.0" encoding="UTF-8"?>
<svg id="_图层_1" data-name="图层_1" xmlns="http://www.w3.org/2000/svg" version="1.1" viewBox="0 0 800 800">
  <!-- Generator: Adobe Illustrator 29.7.1, SVG Export Plug-In . SVG Version: 2.1.1 Build 8)  -->
  <defs>
    <style>
      .st0 {
        fill: #fff;
      }

      .st1 {
        fill: #0071ce;
      }

      .st2 {
        fill: #00b3e3;
      }

      .st3 {
        fill: #a4a9ad;
      }

      .st4 {
        fill: #333e48;
      }

      .st5 {
        fill: #ffb819;
      }
    </style>
  </defs>
  <g id="SVGRepo_iconCarrier">
    <path class="st3" d="M156.88,276.48c-6.25,0-11.33-5.08-11.33-11.33v-47.58c0-6.25,5.08-11.33,11.33-11.33s11.33,5.08,11.33,11.33v47.58c0,6.25-5.08,11.33-11.33,11.33Z"/>
    <path d="M156.88,206.17c-6.25,0-11.33,5.08-11.33,11.33v19.92h22.66v-19.92c0-6.25-5.08-11.33-11.33-11.33Z"/>
    <path class="st3" d="M466.8,276.48c-6.25,0-11.33-5.08-11.33-11.33v-47.58c0-6.25,5.08-11.33,11.33-11.33s11.33,5.08,11.33,11.33v47.58c0,6.25-5,11.33-11.33,11.33Z"/>
    <path d="M466.8,206.17c-6.25,0-11.33,5.08-11.33,11.33v19.92h22.66v-19.92c0-6.25-5-11.33-11.33-11.33Z"/>
    <path class="st3" d="M496.33,224.38H127.34c-6.25,0-11.33-5.08-11.33-11.33s5.08-11.33,11.33-11.33h368.98c6.25,0,11.33,5.08,11.33,11.33s-5.08,11.33-11.33,11.33Z"/>
    <path class="st4" d="M656.17,304.69h22.66v71.56h-22.66v-71.56Z"/>
    <path d="M656.25,304.69v22.81c3.59,1.25,7.34,1.87,11.33,1.87s7.81-.7,11.33-1.87v-22.81h-22.66Z"/>
    <path class="st3" d="M644.37,294.61c0,12.81,10.39,23.2,23.2,23.2s23.2-10.39,23.2-23.2-10.39-23.2-23.2-23.2-23.2,10.39-23.2,23.2Z"/>
    <path class="st1" d="M704.45,373.44h-162.97l-15.86-93.52c-2.42-14.3-16.25-26.02-30.78-26.02H139.84c-14.53,0-28.36,11.72-30.78,26.02l-36.56,215.55c-2.42,14.3,7.42,26.02,21.95,26.02h610c14.53,0,26.41-11.88,26.41-26.41v-95.31c0-14.45-11.88-26.33-26.41-26.33Z"/>
    <path class="st5" d="M676.72,441.64h54.14v36.72h-54.14v-36.72Z"/>
    <path class="st0" d="M685.31,478.36h-12.42c-2.89,0-5.31-2.34-5.31-5.23v-26.25c0-2.89,2.34-5.23,5.31-5.23h12.42v36.72Z"/>
    <path class="st5" d="M81.64,441.64l-6.25,36.72h47.11v-36.72h-40.86Z"/>
    <path class="st0" d="M113.98,478.36h12.42c2.89,0,5.23-2.34,5.23-5.23v-26.25c0-2.89-2.34-5.23-5.23-5.23h-12.42v36.72Z"/>
    <path d="M315.31,521.48c0-51.25-41.56-92.81-92.81-92.81s-92.81,41.56-92.81,92.81h185.63Z"/>
    <path class="st4" d="M146.33,521.48c0,42.07,34.1,76.17,76.17,76.17s76.17-34.1,76.17-76.17-34.1-76.17-76.17-76.17-76.17,34.1-76.17,76.17Z"/>
    <path class="st3" d="M183.91,521.48c0,21.31,17.28,38.59,38.59,38.59s38.59-17.28,38.59-38.59-17.28-38.59-38.59-38.59-38.59,17.28-38.59,38.59h0Z"/>
    <path d="M650.47,521.48c0-51.25-41.56-92.81-92.81-92.81s-92.81,41.56-92.81,92.81h185.62Z"/>
    <path class="st4" d="M481.48,521.48c0,42.07,34.1,76.17,76.17,76.17s76.17-34.1,76.17-76.17-34.1-76.17-76.17-76.17-76.17,34.1-76.17,76.17Z"/>
    <path class="st3" d="M519.06,521.48c-.01,21.31,17.26,38.6,38.57,38.61,21.31.01,38.6-17.26,38.61-38.57v-.04c.01-21.31-17.26-38.6-38.57-38.61-21.31-.01-38.6,17.26-38.61,38.57v.04Z"/>
    <path class="st3" d="M751.02,515.31c0,7.73-6.33,14.06-14.06,14.06h-31.64c-7.73,0-14.06-6.33-14.06-14.06v-22.81c0-7.73,6.33-14.06,14.06-14.06h31.64c7.73,0,14.06,6.33,14.06,14.06v22.81ZM108.83,515.31c0,7.73-6.33,14.06-14.06,14.06h-31.64c-7.73,0-14.06-6.33-14.06-14.06v-22.81c0-7.73,6.33-14.06,14.06-14.06h31.64c7.73,0,14.06,6.33,14.06,14.06v22.81Z"/>
    <path class="st4" d="M358.2,296.25c0-6.64,5.47-12.11,12.11-12.11h99.14c6.64,0,12.11,5.47,12.11,12.11v54.61c0,6.64-5.47,12.11-12.11,12.11h-99.22c-6.64,0-12.11-5.47-12.11-12.11v-54.61h.08ZM156.02,296.02c1.09-6.56,7.5-11.95,14.14-11.95h108.2c6.64,0,12.11,5.47,12.11,12.11v54.61c0,6.64-5.47,12.11-12.11,12.11h-121.56c-6.64,0-11.17-5.39-10.08-11.95l9.3-54.92h0Z"/>
    <path class="st2" d="M409.77,405.23h-41.02c-6.25,0-11.33-5.08-11.33-11.33s5.08-11.33,11.33-11.33h41.02c6.25,0,11.33,5.08,11.33,11.33s-5.08,11.33-11.33,11.33ZM189.14,405.23h-41.02c-6.25,0-11.33-5.08-11.33-11.33s5.08-11.33,11.33-11.33h41.02c6.25,0,11.33,5.08,11.33,11.33s-5.08,11.33-11.33,11.33Z"/>
  </g>
</svg>