<?xml version="1.0" encoding="UTF-8" standalone="no"?>
<!-- Uploaded to: SVG Repo, www.svgrepo.com, Generator: SVG Repo Mixer Tools -->

<svg
   width="800px"
   height="800px"
   viewBox="0 0 340 340"
   id="icons"
   version="1.1"
   sodipodi:docname="gate.svg"
   inkscape:version="1.4.2 (ebf0e940d0, 2025-05-08)"
   xmlns:inkscape="http://www.inkscape.org/namespaces/inkscape"
   xmlns:sodipodi="http://sodipodi.sourceforge.net/DTD/sodipodi-0.dtd"
   xmlns="http://www.w3.org/2000/svg"
   xmlns:svg="http://www.w3.org/2000/svg">
  <defs
     id="defs21" />
  <sodipodi:namedview
     id="namedview21"
     pagecolor="#ffffff"
     bordercolor="#000000"
     borderopacity="0.25"
     inkscape:showpageshadow="2"
     inkscape:pageopacity="0.0"
     inkscape:pagecheckerboard="0"
     inkscape:deskcolor="#d1d1d1"
     inkscape:zoom="1.44125"
     inkscape:cx="400"
     inkscape:cy="400"
     inkscape:window-width="2490"
     inkscape:window-height="1376"
     inkscape:window-x="70"
     inkscape:window-y="27"
     inkscape:window-maximized="1"
     inkscape:current-layer="icons" />
  <title
     id="title1" />
  <rect
     height="247.443"
     style="fill:#f74f73"
     width="32.578"
     x="64.786"
     y="65.348"
     id="rect1" />
  <path
     d="M99.926,312.791h-37.7a9.151,9.151,0,0,0-9.151,9.151V330h56v-8.058A9.151,9.151,0,0,0,99.926,312.791Z"
     style="fill:#373d4c"
     id="path1" />
  <rect
     height="247.443"
     style="fill:#f74f73"
     transform="translate(517.851 378.139) rotate(180)"
     width="32.578"
     x="242.637"
     y="65.348"
     id="rect2" />
  <path
     d="M240.074,312.791h37.7a9.151,9.151,0,0,1,9.151,9.151V330h-56v-8.058A9.151,9.151,0,0,1,240.074,312.791Z"
     style="fill:#373d4c"
     id="path2" />
  <rect
     height="64.48"
     style="fill:#c12140"
     width="32.578"
     x="64.786"
     y="123.242"
     id="rect3" />
  <rect
     height="64.48"
     style="fill:#c12140"
     width="32.578"
     x="242.637"
     y="123.242"
     id="rect4" />
  <path
     d="M171.582,201.317a4,4,0,0,1-4-4v-34.6a4,4,0,1,1,8,0v34.6A4,4,0,0,1,171.582,201.317Z"
     style="fill:#e2b088"
     id="path4" />
  <path
     d="M216.759,201.611a4,4,0,0,1-4-4v-34.6a4,4,0,0,1,8,0v34.6A4,4,0,0,1,216.759,201.611Z"
     style="fill:#e2b088"
     id="path5" />
  <path
     d="M123.911,201.611a4,4,0,0,1-4-4v-34.6a4,4,0,0,1,8,0v34.6A4,4,0,0,1,123.911,201.611Z"
     style="fill:#e2b088"
     id="path6" />
  <path
     d="M172.869,190.872l6.55,6.006a1.811,1.811,0,0,1,.025,2.646l-3.177,3.025a1.81,1.81,0,0,0,0,2.621l6.069,5.8a1.81,1.81,0,0,1,.146,2.461l-4.779,5.8a1.811,1.811,0,0,0,.211,2.519l5.468,4.747a1.811,1.811,0,0,1,.138,2.6l-12.086,12.992a1.811,1.811,0,0,1-2.595.057l-5.264-5.178a1.811,1.811,0,0,1-.094-2.481l4.648-5.33a1.811,1.811,0,0,0-.048-2.433l-5.317-5.632a1.811,1.811,0,0,1-.01-2.475l4.36-4.7a1.81,1.81,0,0,0-.076-2.54l-7.336-7.014a1.81,1.81,0,0,1-.038-2.58l10.694-10.848A1.81,1.81,0,0,1,172.869,190.872Z"
     style="fill:#e4e6f4"
     id="path7" />
  <path
     d="M218.046,191.166l6.55,6.007a1.811,1.811,0,0,1,.025,2.646l-3.177,3.024a1.81,1.81,0,0,0,0,2.621l6.069,5.8a1.81,1.81,0,0,1,.146,2.461l-4.779,5.8a1.811,1.811,0,0,0,.211,2.519l5.468,4.747a1.811,1.811,0,0,1,.138,2.6l-12.086,12.992a1.809,1.809,0,0,1-2.595.057l-5.264-5.178a1.811,1.811,0,0,1-.094-2.481l4.648-5.33a1.811,1.811,0,0,0-.048-2.433l-5.317-5.632a1.811,1.811,0,0,1-.01-2.475l4.36-4.7a1.81,1.81,0,0,0-.076-2.54l-7.336-7.014a1.81,1.81,0,0,1-.038-2.58l10.694-10.847A1.811,1.811,0,0,1,218.046,191.166Z"
     style="fill:#e4e6f4"
     id="path8" />
  <path
     d="M125.2,191.166l6.55,6.007a1.811,1.811,0,0,1,.025,2.646l-3.178,3.024a1.812,1.812,0,0,0,0,2.621l6.07,5.8a1.812,1.812,0,0,1,.146,2.461l-4.779,5.8a1.811,1.811,0,0,0,.21,2.519l5.468,4.747a1.811,1.811,0,0,1,.139,2.6l-12.086,12.992a1.81,1.81,0,0,1-2.6.057L115.9,237.26a1.811,1.811,0,0,1-.095-2.481l4.648-5.33a1.81,1.81,0,0,0-.048-2.433l-5.316-5.632a1.811,1.811,0,0,1-.01-2.475l4.359-4.7a1.81,1.81,0,0,0-.076-2.54l-7.336-7.014a1.812,1.812,0,0,1-.038-2.58l10.694-10.847A1.812,1.812,0,0,1,125.2,191.166Z"
     style="fill:#e4e6f4"
     id="path9" />
  <path
     d="M10,10s5,8.861,6.1,16.182c.011.073.023.146.034.218A16.824,16.824,0,0,0,32.815,40.457h274.37A16.824,16.824,0,0,0,323.864,26.4c.011-.072.023-.145.034-.218C325,18.861,330,10,330,10Z"
     style="fill:#373d4c"
     id="path10" />
  <path
     d="M39.242,40.457s4.09,7.242,4.987,13.224c.009.06.019.12.028.179A13.749,13.749,0,0,0,57.888,65.348H282.112A13.749,13.749,0,0,0,295.743,53.86c.009-.059.019-.119.028-.179.9-5.982,4.987-13.224,4.987-13.224Z"
     style="fill:#f74f73"
     id="path11" />
  <rect
     height="43.697"
     style="fill:#373d4c"
     width="36.565"
     x="151.718"
     y="65.348"
     id="rect11" />
  <path
     d="M277.742,153.6H62.258a9.408,9.408,0,0,0,0,18.816H277.742a9.408,9.408,0,0,0,0-18.816Z"
     style="fill:#f4dcc6"
     id="path12" />
  <rect
     height="14.721"
     style="fill:#c12140"
     width="32.578"
     x="242.637"
     y="65.348"
     id="rect20" />
  <rect
     height="14.721"
     style="fill:#c12140"
     width="32.578"
     x="64.786"
     y="65.348"
     id="rect21" />
  <path
     d="M170,109.045H33.344l5.425,18.082A12.175,12.175,0,0,0,50.431,135.8H289.569a12.175,12.175,0,0,0,11.662-8.677l5.425-18.082Z"
     style="fill:#f74f73"
     id="path21" />
</svg>
