<?xml version="1.0" encoding="iso-8859-1"?>
<!-- Uploaded to: SVG Repo, www.svgrepo.com, Generator: SVG Repo Mixer Tools -->
<svg version="1.1" id="Layer_1" xmlns="http://www.w3.org/2000/svg" xmlns:xlink="http://www.w3.org/1999/xlink" 
	 viewBox="0 0 512 512" xml:space="preserve">
<polygon style="fill:#FFBE00;" points="256,460.803 490.992,460.803 490.992,223.659 235.085,202.745 "/>
<polygon style="fill:#FFE074;" points="21.008,223.659 21.008,460.803 256,460.803 256,202.745 "/>
<polygon style="fill:#FC2B32;" points="425.759,51.197 256,51.197 235.085,137.428 256,223.659 490.992,223.659 512,223.659 
	512,204.259 "/>
<polygon style="fill:#FF5D65;" points="256,51.197 86.241,51.197 0,204.259 0,223.659 21.008,223.659 256,223.659 "/>
<g>
	<polygon style="fill:#0089D3;" points="176.828,415.2 176.828,357.906 129.002,357.906 108.087,386.553 129.002,415.2 	"/>
	<polygon style="fill:#0089D3;" points="177.25,269.264 129.002,269.264 108.087,297.911 129.002,326.559 177.25,326.559 	"/>
	<polygon style="fill:#0089D3;" points="304.037,415.2 304.037,357.906 256.211,357.906 235.296,386.553 256.211,415.2 	"/>
	<polygon style="fill:#0089D3;" points="304.037,269.264 255.789,269.264 234.874,297.911 255.789,326.559 304.037,326.559 	"/>
</g>
<g>
	<rect x="81.178" y="357.909" style="fill:#63C8EE;" width="47.826" height="57.294"/>
	<rect x="81.596" y="269.26" style="fill:#63C8EE;" width="47.407" height="57.295"/>
</g>
<g>
	<polygon style="fill:#0089D3;" points="430.824,415.2 430.824,357.906 382.998,357.906 362.083,386.553 382.998,415.2 	"/>
	<polygon style="fill:#0089D3;" points="430.824,269.264 382.575,269.264 361.66,297.911 382.575,326.559 430.824,326.559 	"/>
</g>
<g>
	<rect x="208.384" y="357.909" style="fill:#63C8EE;" width="47.826" height="57.294"/>
	<rect x="335.172" y="357.909" style="fill:#63C8EE;" width="47.826" height="57.294"/>
	<rect x="335.6" y="269.26" style="fill:#63C8EE;" width="47.407" height="57.295"/>
	<rect x="208.812" y="269.26" style="fill:#63C8EE;" width="47.407" height="57.295"/>
</g>
</svg>