<?xml version="1.0" encoding="iso-8859-1"?>
<!-- Uploaded to: SVG Repo, www.svgrepo.com, Generator: SVG Repo Mixer Tools -->
<svg version="1.1" id="Layer_1" xmlns="http://www.w3.org/2000/svg" xmlns:xlink="http://www.w3.org/1999/xlink" 
	 viewBox="0 0 512 512" xml:space="preserve">
<path style="fill:#FF6361;" d="M461.557,246.162h-83.11c-3.024,0-5.625-2.137-6.211-5.102l-17.717-89.495
	c-1.328-6.709-7.213-11.543-14.052-11.543H42.958c-7.569,0-13.833,5.89-14.299,13.445L15.861,361.445h480.284l-20.536-103.739
	C474.282,250.997,468.396,246.162,461.557,246.162z"/>
<path style="fill:#FFB547;" d="M484.581,303.028H459.73c-4.47,0-8.094,3.624-8.094,8.094v17.482c0,4.47,3.623,8.094,8.094,8.094
	h31.516L484.581,303.028z"/>
<path style="opacity:0.15;enable-background:new    ;" d="M277.733,332.096h-63.344c-3.244,0-6.187-1.902-7.52-4.858
	c-4.687-10.396-11.335-19.603-19.759-27.368c-1.695-1.562-2.658-3.761-2.658-6.066l-0.008-116.223
	c-0.001-4.556,3.692-8.249,8.248-8.25c4.556-0.001,8.249,3.692,8.25,8.248l0.008,112.697c7.534,7.458,13.774,15.947,18.614,25.322
	h58.17c4.557,0,8.249,3.693,8.249,8.249C285.982,328.402,282.288,332.096,277.733,332.096z"/>
<g>
	<path style="fill:#99DAEA;" d="M230.565,231.149h94.332c3.821,0,6.69-3.492,5.947-7.241l-8.548-43.186
		c-0.562-2.839-3.053-4.886-5.947-4.886h-85.784c-3.348,0-6.063,2.715-6.063,6.063v43.186
		C224.503,228.435,227.217,231.149,230.565,231.149z"/>
	<path style="fill:#99DAEA;" d="M154.818,231.149H68.074c-3.494,0-6.266-2.947-6.052-6.435l2.657-43.186
		c0.197-3.197,2.848-5.691,6.052-5.691h84.085c3.348,0,6.063,2.715,6.063,6.063v43.186
		C160.881,228.435,158.166,231.149,154.818,231.149z"/>
</g>
<g>
	<path style="fill:#333E48;" d="M85.891,264.133H62.753c-4.556,0-8.249-3.693-8.249-8.249c0-4.556,3.693-8.249,8.249-8.249h23.138
		c4.556,0,8.249,3.693,8.249,8.249C94.141,260.439,90.447,264.133,85.891,264.133z"/>
	<path style="fill:#333E48;" d="M251.633,264.133h-23.138c-4.556,0-8.249-3.693-8.249-8.249c0-4.556,3.693-8.249,8.249-8.249h23.138
		c4.556,0,8.249,3.693,8.249,8.249C259.883,260.439,256.189,264.133,251.633,264.133z"/>
	<path style="fill:#333E48;" d="M334.164,252.692h-31.18c-3.223,0-5.835-2.612-5.835-5.835v-15.09c0-3.223,2.612-5.835,5.835-5.835
		h31.18c3.223,0,5.835,2.612,5.835,5.835v15.09C340,250.079,337.386,252.692,334.164,252.692z"/>
	<path style="fill:#333E48;" d="M317.158,113.343H66.022c-4.556,0-8.249-3.693-8.249-8.249c0-4.556,3.693-8.249,8.249-8.249h251.135
		c4.557,0,8.249,3.693,8.249,8.249C325.406,109.65,321.714,113.343,317.158,113.343z"/>
	<rect x="77.641" y="105.094" style="fill:#333E48;" width="16.498" height="34.927"/>
	<rect x="289.04" y="105.094" style="fill:#333E48;" width="16.498" height="34.927"/>
</g>
<path style="opacity:0.15;enable-background:new    ;" d="M201.164,361.444c0-36.43-29.533-65.964-65.964-65.964
	s-65.964,29.533-65.964,65.964H201.164z"/>
<path style="opacity:0.15;enable-background:new    ;" d="M489.525,328.002H61.686c-9.085,0-16.289-7.661-15.731-16.729
	l10.539-171.251H42.958c-7.569,0-13.833,5.89-14.299,13.445L15.861,361.445h480.284L489.525,328.002z"/>
<circle style="fill:#333E48;" cx="135.198" cy="361.445" r="53.71"/>
<path style="opacity:0.15;enable-background:new    ;" d="M145.253,409.105c-29.663,0-53.71-24.047-53.71-53.71
	c0-17.433,8.312-32.919,21.182-42.731c-18.435,8.508-31.236,27.144-31.236,48.78c0,29.663,24.047,53.71,53.71,53.71
	c12.231,0,23.5-4.095,32.529-10.979C160.889,407.332,153.28,409.105,145.253,409.105z"/>
<circle style="fill:#D1D3D3;" cx="135.198" cy="361.445" r="23.241"/>
<path style="fill:#C3C6C8;" d="M49.516,374.094H7.637c-4.218,0-7.637-3.42-7.637-7.637v-22.123c0-4.218,3.42-7.637,7.637-7.637
	h41.879c4.217,0,7.637,3.418,7.637,7.637v22.123C57.152,370.674,53.733,374.094,49.516,374.094z"/>
<path style="opacity:0.15;enable-background:new    ;" d="M17.536,365.859c-4.218,0-7.637-3.42-7.637-7.637v-21.525H7.637
	c-4.217,0-7.637,3.42-7.637,7.637v22.123c0,4.217,3.42,7.637,7.637,7.637h41.879c4.217,0,7.637-3.42,7.637-7.637v-0.598H17.536z"/>
<path style="fill:#C3C6C8;" d="M452.913,374.094h51.451c4.218,0,7.637-3.42,7.637-7.637v-22.123c0-4.218-3.42-7.637-7.637-7.637
	h-51.451c-4.218,0-7.637,3.418-7.637,7.637v22.123C445.276,370.674,448.696,374.094,452.913,374.094z"/>
<g style="opacity:0.15;">
	<path d="M462.812,365.859c-4.218,0-7.637-3.42-7.637-7.637v-21.525h-2.262c-4.218,0-7.637,3.42-7.637,7.637v22.123
		c0,4.217,3.418,7.637,7.637,7.637h51.451c4.218,0,7.637-3.42,7.637-7.637v-0.598H462.812z"/>
</g>
<path style="opacity:0.15;enable-background:new    ;" d="M416.995,361.444c0-36.43-29.533-65.964-65.964-65.964
	s-65.964,29.533-65.964,65.964H416.995z"/>
<circle style="fill:#333E48;" cx="351.029" cy="361.445" r="53.71"/>
<circle style="fill:#D1D3D3;" cx="351.029" cy="361.445" r="23.241"/>
<path style="opacity:0.15;enable-background:new    ;" d="M361.085,409.105c-29.663,0-53.71-24.047-53.71-53.71
	c0-17.433,8.312-32.919,21.182-42.731c-18.435,8.508-31.236,27.144-31.236,48.78c0,29.663,24.047,53.71,53.71,53.71
	c12.231,0,23.5-4.095,32.529-10.979C376.721,407.332,369.112,409.105,361.085,409.105z"/>
</svg>