<?xml version="1.0" encoding="iso-8859-1"?>
<!-- Uploaded to: SVG Repo, www.svgrepo.com, Generator: SVG Repo Mixer Tools -->
<svg height="800px" width="800px" version="1.1" id="Layer_1" xmlns="http://www.w3.org/2000/svg" xmlns:xlink="http://www.w3.org/1999/xlink" 
	 viewBox="0 0 512 512" xml:space="preserve">
<path style="fill:#3E3B43;" d="M141.581,335.285h272.51v97.997v30.592c0,16.107-13.057,29.164-29.164,29.164H141.581V335.285z"/>
<path style="fill:#52A2E7;" d="M47.106,480.134C5.854,438.882,10.567,343.702,11.37,249.571c0.248-29.169-0.072-58.238,0.707-85.569
	c0,0,1.206-58.235,8.796-81.798c6.807-21.132,13.418-39.595,26.233-52.41V480.134z"/>
<path style="fill:#C6C3CB;" d="M321.389,67.207L457.062,85.94c25.422,4.04,44.135,25.96,44.135,51.701v236.716
	c0,25.741-18.713,47.662-44.135,51.701l-315.481,50.129V35.811l91.032,14.465L321.389,67.207z"/>
<path style="opacity:0.28;fill:#2F2D30;enable-background:new    ;" d="M457.062,85.94l-12.758-1.762v233.285
	c0,25.741-18.714,47.662-44.135,51.701l-258.588,41.09v65.934l315.481-50.129c25.422-4.04,44.135-25.96,44.135-51.701V137.642
	C501.197,111.902,482.484,89.98,457.062,85.94z"/>
<g>
	<path style="fill:#77757E;" d="M113.998,512H47.106V0h66.892c15.234,0,27.584,12.349,27.584,27.584v456.833
		C141.581,499.651,129.232,512,113.998,512z"/>
	<path style="fill:#77757E;" d="M199.485,343.078c-4.306,0-7.794-3.489-7.794-7.794V163.858c0-4.306,3.489-7.794,7.794-7.794
		s7.794,3.489,7.794,7.794v171.426C207.279,339.59,203.79,343.078,199.485,343.078z"/>
	<path style="fill:#77757E;" d="M238.39,343.078c-4.306,0-7.794-3.489-7.794-7.794V163.858c0-4.306,3.489-7.794,7.794-7.794
		s7.794,3.489,7.794,7.794v171.426C246.184,339.59,242.694,343.078,238.39,343.078z"/>
	<path style="fill:#77757E;" d="M277.294,343.078c-4.306,0-7.794-3.489-7.794-7.794V163.858c0-4.306,3.489-7.794,7.794-7.794
		s7.794,3.489,7.794,7.794v171.426C285.088,339.59,281.6,343.078,277.294,343.078z"/>
</g>
</svg>