<?xml version="1.0" encoding="iso-8859-1"?>
<!-- Uploaded to: SVG Repo, www.svgrepo.com, Generator: SVG Repo Mixer Tools -->
<svg height="800px" width="800px" version="1.1" id="Layer_1" xmlns="http://www.w3.org/2000/svg" xmlns:xlink="http://www.w3.org/1999/xlink" 
	 viewBox="0 0 511.999 511.999" xml:space="preserve">
<ellipse transform="matrix(0.0047 -1 1 0.0047 318.3964 570.5921)" style="fill:#F7DC4D;" cx="445.838" cy="125.348" rx="29.204" ry="23.492"/>
<path style="fill:#DE3205;" d="M446.935,85.047c0.013-2.88-1.297-5.606-3.554-7.397c-2.257-1.79-5.213-2.451-8.014-1.781
	c-21.372,5.11-37.307,24.287-37.414,47.238s15.647,42.279,36.969,47.588c2.796,0.696,5.758,0.07,8.031-1.701
	c2.274-1.77,3.609-4.486,3.622-7.369L446.935,85.047z"/>
<path style="fill:#9D2217;" d="M397.953,123.107c-0.108,22.953,15.647,42.277,36.969,47.588c2.796,0.696,5.758,0.07,8.031-1.701
	c2.275-1.77,3.609-4.486,3.622-7.369l0.179-38.289L397.953,123.107z"/>
<path style="fill:#DE3205;" d="M287.482,191.669c0.025-5.183-4.157-9.403-9.34-9.428l-136.025-0.639
	c-5.183-0.025-9.403,4.157-9.428,9.34l-0.254,54.208l100.585,0.472C262.958,245.763,287.341,221.608,287.482,191.669z"/>
<path style="fill:#9D2217;" d="M278.142,182.242l-68.013-0.32l-0.298,63.591l23.188,0.109c29.938,0.14,54.321-24.014,54.462-53.953
	C287.506,186.487,283.324,182.266,278.142,182.242z"/>
<circle style="fill:#57565C;" cx="442.101" cy="376.228" r="67.645"/>
<path style="fill:#2D2E30;" d="M442.416,308.583l-0.636,135.298c37.362,0.176,67.791-29.969,67.967-67.331
	C509.923,339.188,479.778,308.759,442.416,308.583z"/>
<circle style="fill:#AAAAAA;" cx="442.101" cy="376.228" r="29.527"/>
<circle style="fill:#57565C;" cx="123.26" cy="374.737" r="67.645"/>
<path style="fill:#2D2E30;" d="M123.575,307.086l-0.636,135.298c37.362,0.175,67.791-29.969,67.967-67.331
	C191.081,337.691,160.936,307.261,123.575,307.086z"/>
<circle style="fill:#AAAAAA;" cx="123.26" cy="374.737" r="29.192"/>
<g>
	<path style="fill:#E1E1E3;" d="M123.12,403.929c-16.124-0.076-29.133-13.208-29.058-29.331
		c0.076-16.124,13.208-29.133,29.331-29.058L123.12,403.929z"/>
	<path style="fill:#E1E1E3;" d="M441.629,405.425c-16.124-0.076-29.133-13.208-29.058-29.331
		c0.076-16.124,13.208-29.133,29.331-29.058L441.629,405.425z"/>
</g>
<path style="fill:#EDA637;" d="M500.742,312.504c9.132-9.975,13.026-23.673,10.504-36.96c-2.521-13.287-11.161-24.607-23.314-30.543
	c-35.182-17.186-62.013-47.773-74.464-84.896l-20.774-61.938c-2.364-7.025-9.082-12.037-16.882-11.865
	c-9.61,0.21-17.231,8.17-17.02,17.781l2.275,104.007c0.047,2.145-0.008,4.548-0.151,7.165
	c-2.666,48.767-33.636,89.586-76.424,106.837l0.038-8.035c0.209-44.325-35.554-80.425-79.879-80.633l-63.475-0.298
	C69.325,232.787,9.712,285.991,0.156,355.276c-0.657,4.766,0.776,9.582,3.929,13.214s7.723,5.721,12.533,5.743l267.623,1.257l0,0
	c37.412,0.176,73.413,0.345,101.643,0.478c35.949,0.169,70.369-14.872,94.645-41.387L500.742,312.504z"/>
<path style="fill:#3E3E42;" d="M369.736,120.516c-2.055-0.01-4.143-0.374-6.182-1.135l-44.289-16.518
	c-9.281-3.462-13.999-13.791-10.538-23.073c3.461-9.279,13.789-14.001,23.073-10.538l44.289,16.518
	c9.281,3.462,13.999,13.791,10.538,23.073C383.926,116.087,377.039,120.551,369.736,120.516z"/>
<path style="fill:#C27526;" d="M511.246,275.543c-2.521-13.287-11.161-24.607-23.314-30.543
	c-35.182-17.187-62.013-47.773-74.464-84.896l-20.774-61.936c-2.364-7.025-9.082-12.037-16.882-11.866
	c-9.61,0.21-17.231,8.17-17.02,17.781l2.275,104.007c0.047,2.145-0.008,4.548-0.15,7.165
	c-2.666,48.768-33.636,89.586-76.423,106.837c0,0,0-0.016,0-0.037c-0.204,0.09-0.408,0.177-0.614,0.262l-0.25,53.172l102.257,0.48
	c35.949,0.169,70.369-14.872,94.645-41.387l20.212-22.077C509.875,302.528,513.767,288.83,511.246,275.543z"/>
<path style="fill:#F7DC4D;" d="M141.582,233.127l-0.405-0.002C69.325,232.787,9.712,285.991,0.156,355.276
	c-0.657,4.766,0.776,9.582,3.929,13.214c3.155,3.632,7.723,5.721,12.533,5.743l124.298,0.584L141.582,233.127z"/>
<g>
	<path style="fill:#7E4F1F;" d="M200.668,298.749l-119.571-0.562c-6.934-0.033-12.529-5.679-12.495-12.614
		c0.033-6.934,5.68-12.529,12.614-12.495l119.571,0.562c6.934,0.033,12.529,5.679,12.495,12.614
		C213.25,293.187,207.602,298.782,200.668,298.749z"/>
	<path style="fill:#7E4F1F;" d="M175.33,343.059l-119.571-0.562c-6.934-0.033-12.529-5.679-12.495-12.614
		c0.034-6.935,5.68-12.529,12.614-12.495l119.571,0.562c6.934,0.033,12.529,5.679,12.495,12.614
		C187.911,337.499,182.264,343.091,175.33,343.059z"/>
</g>
<g>
	<path style="fill:#C27526;" d="M140.791,317.787l-84.916-0.399c-6.934-0.033-12.582,5.562-12.614,12.495
		c-0.033,6.934,5.563,12.582,12.495,12.614l84.916,0.399L140.791,317.787z"/>
	<path style="fill:#C27526;" d="M141.001,273.358l-59.785-0.28c-6.934-0.033-12.582,5.562-12.614,12.495
		c-0.033,6.934,5.563,12.582,12.495,12.614l59.785,0.28L141.001,273.358z"/>
</g>
</svg>