<?xml version="1.0" encoding="UTF-8"?>
<!-- Generator: visioncortex VTracer 0.6.4 -->
<svg version="1.1" xmlns="http://www.w3.org/2000/svg" width="512" height="512">
<path d="M0 0 C5.282 3.092 9.207 7.843 11.625 13.438 C13.062 19.5 13.113 25.669 10.625 31.438 C7.033 36.838 2.985 41.259 -3.379 43.07 C-10.625 44.403 -16.142 43.378 -22.375 39.438 C-27.074 35.209 -30.052 30.751 -30.676 24.352 C-30.711 14.491 -29.499 8.727 -22.375 1.438 C-16.146 -3.12 -6.952 -3.102 0 0 Z " fill="#84898F" transform="translate(357.375,304.5625)"/>
<path d="M0 0 C0.66 0.33 1.32 0.66 2 1 C-0.97 3.97 -3.94 6.94 -7 10 C-7 5.69 -4.833 4.103 -2 1 C-1.34 0.67 -0.68 0.34 0 0 Z " fill="#6C7278" transform="translate(337,305)"/>
</svg>
