<?xml version="1.0" encoding="UTF-8"?>
<!-- Generator: visioncortex VTracer 0.6.4 -->
<svg version="1.1" xmlns="http://www.w3.org/2000/svg" width="512" height="512">
<path d="M0 0 C7.969 7.17 13.794 18.532 14.84 29.262 C14.962 31.954 14.938 34.564 14.84 37.262 C13.19 37.262 11.54 37.262 9.84 37.262 C9.826 38.422 9.811 39.582 9.797 40.777 C9.397 56.637 5.352 68.254 -6.285 79.387 C-16.297 87.864 -27.815 91.968 -41.02 91.066 C-52.71 89.07 -62.196 82.871 -70.16 74.262 C-70.985 73.395 -71.81 72.529 -72.66 71.637 C-79.821 62.849 -82.736 51.394 -82.16 40.262 C-81.83 39.272 -81.5 38.282 -81.16 37.262 C-84.13 38.252 -87.1 39.242 -90.16 40.262 C-91.458 27.287 -84.03 13.086 -76.098 3.137 C-54.348 -20.197 -23.748 -19.11 0 0 Z M-53.473 30.512 C-57.854 37.652 -58.944 44.061 -57.16 52.262 C-54.956 58.875 -49.601 63.232 -43.723 66.699 C-37.292 68.111 -31.815 67.87 -26.016 64.594 C-20.96 60.964 -17.393 56.427 -16.16 50.262 C-15.301 43.309 -16.637 37.33 -20.16 31.262 C-24.158 26.667 -28.669 23.757 -34.773 22.891 C-43.051 22.687 -47.601 24.799 -53.473 30.512 Z " fill="#283038" transform="translate(189.16015625,280.73828125)"/>
<path d="M0 0 C7.969 7.17 13.794 18.532 14.84 29.262 C14.962 31.954 14.938 34.564 14.84 37.262 C12.86 37.262 10.88 37.262 8.84 37.262 C8.53 35.344 8.53 35.344 8.215 33.387 C6.432 25.358 1.535 18.111 -4.16 12.262 C-5.15 12.262 -6.14 12.262 -7.16 12.262 C-8.15 10.777 -8.15 10.777 -9.16 9.262 C-11.46 7.956 -13.718 6.773 -16.098 5.637 C-16.731 5.325 -17.365 5.013 -18.018 4.691 C-27.802 -0.082 -39.094 -0.186 -49.727 1.992 C-62.334 6.642 -71.893 17.724 -78.16 29.262 C-78.679 30.77 -79.165 32.29 -79.598 33.824 C-81.16 37.262 -81.16 37.262 -83.332 38.414 C-85.6 39.178 -87.816 39.79 -90.16 40.262 C-91.458 27.287 -84.03 13.086 -76.098 3.137 C-54.348 -20.197 -23.748 -19.11 0 0 Z " fill="#010103" transform="translate(189.16015625,280.73828125)"/>
</svg>
