<?xml version="1.0" encoding="UTF-8"?>
<!-- Generator: visioncortex VTracer 0.6.4 -->
<svg version="1.1" xmlns="http://www.w3.org/2000/svg" width="512" height="512">
<path d="M0 0 C1.675 0.286 3.344 0.618 5 1 C6.507 4.477 7.154 6.37 6.242 10.105 C5.791 11.123 5.34 12.14 4.875 13.188 C4.439 14.212 4.004 15.237 3.555 16.293 C1.953 19.082 0.588 20.19 -2 22 C-1.862 18.52 -1.713 15.041 -1.562 11.562 C-1.523 10.569 -1.484 9.576 -1.443 8.553 C-1.401 7.608 -1.36 6.664 -1.316 5.691 C-1.28 4.817 -1.243 3.942 -1.205 3.041 C-1 1 -1 1 0 0 Z " fill="#0B0C0E" transform="translate(199,317)"/>
<path d="M0 0 C2 3 2 3 1.68 5.27 C0.04 10.452 -1.603 14.727 -5 19 C-5.66 19.33 -6.32 19.66 -7 20 C-6.453 16.625 -5.945 14.918 -4 12 C-3.311 9.673 -2.645 7.339 -2 5 C-1.358 3.324 -0.701 1.652 0 0 Z " fill="#1C2228" transform="translate(204,319)"/>
<path d="M0 0 C0.33 0 0.66 0 1 0 C1 3.3 1 6.6 1 10 C1.66 10 2.32 10 3 10 C2.625 12.438 2.625 12.438 2 15 C1.01 15.495 1.01 15.495 0 16 C0 10.72 0 5.44 0 0 Z " fill="#111316" transform="translate(198,318)"/>
<path d="" fill="#20252B" transform="translate(0,0)"/>
</svg>
