<?xml version="1.0" encoding="UTF-8"?>
<!-- Generator: visioncortex VTracer 0.6.4 -->
<svg version="1.1" xmlns="http://www.w3.org/2000/svg" width="512" height="512">
<path d="M0 0 C1.582 0.007 3.164 0.019 4.746 0.035 C5.552 0.04 6.359 0.044 7.189 0.049 C9.188 0.061 11.186 0.079 13.184 0.098 C13.409 4.389 13.611 8.68 13.809 12.973 C13.873 14.196 13.938 15.419 14.004 16.68 C14.081 18.43 14.081 18.43 14.16 20.215 C14.213 21.294 14.265 22.372 14.319 23.484 C14.184 26.098 14.184 26.098 12.184 28.098 C9.25 28.328 9.25 28.328 5.746 28.285 C4.592 28.279 3.439 28.272 2.25 28.266 C-0.816 28.098 -0.816 28.098 -3.816 27.098 C-4.012 22.785 -4.197 18.473 -4.379 14.16 C-4.435 12.928 -4.491 11.697 -4.549 10.428 C-4.597 9.258 -4.646 8.088 -4.695 6.883 C-4.742 5.799 -4.79 4.715 -4.838 3.598 C-4.803 -0.468 -4.245 0.109 0 0 Z " fill="#E69902" transform="translate(427.81640625,273.90234375)"/>
</svg>
