<?xml version="1.0" encoding="UTF-8"?>
<!-- Generator: visioncortex VTracer 0.6.4 -->
<svg version="1.1" xmlns="http://www.w3.org/2000/svg" width="512" height="512">
<path d="M0 0 C1 1 1 1 1.114 3.592 C1.108 4.718 1.103 5.844 1.098 7.004 C1.094 8.219 1.091 9.434 1.088 10.686 C1.08 11.965 1.071 13.244 1.062 14.562 C1.058 15.846 1.053 17.129 1.049 18.451 C1.037 21.634 1.019 24.817 1 28 C-3.62 28 -8.24 28 -13 28 C-12.859 24.625 -12.712 21.25 -12.562 17.875 C-12.523 16.924 -12.484 15.972 -12.443 14.992 C-12.229 10.254 -11.934 5.664 -11 1 C-7.117 -0.294 -4.093 -0.132 0 0 Z " fill="#F59B03" transform="translate(84,274)"/>
</svg>
