<?xml version="1.0" encoding="UTF-8"?>
<!-- Generator: visioncortex VTracer 0.6.4 -->
<svg version="1.1" xmlns="http://www.w3.org/2000/svg" width="512" height="512">
<path d="M0 0 C0.86 -0.001 1.72 -0.003 2.605 -0.004 C3.957 0.002 3.957 0.002 5.336 0.008 C6.214 0.004 7.092 0 7.996 -0.004 C22.596 0.018 22.596 0.018 25.711 3.133 C25.977 5.445 25.977 5.445 25.961 8.133 C25.969 9.463 25.969 9.463 25.977 10.82 C25.711 13.133 25.711 13.133 23.711 15.133 C21.376 15.376 21.376 15.376 18.477 15.363 C17.427 15.361 16.378 15.359 15.297 15.357 C14.196 15.345 13.095 15.333 11.961 15.32 C10.876 15.32 9.79 15.319 8.672 15.318 C3.474 15.29 -1.117 14.995 -6.289 14.133 C-6.289 9.843 -6.289 5.553 -6.289 1.133 C-3.962 -0.031 -2.59 0.004 0 0 Z " fill="#009ED4" transform="translate(231.2890625,242.8671875)"/>
</svg>
