<?xml version="1.0" encoding="UTF-8"?>
<!-- Generator: visioncortex VTracer 0.6.4 -->
<svg version="1.1" xmlns="http://www.w3.org/2000/svg" width="512" height="512">
<path d="M0 0 C1.576 2.44 1.46 4.093 1.374 6.987 C1.346 8.057 1.319 9.127 1.29 10.229 C1.24 11.396 1.191 12.562 1.14 13.764 C1.095 14.988 1.051 16.213 1.005 17.474 C0.84 21.387 0.621 25.293 0.39 29.201 C0.359 29.87 0.328 30.539 0.296 31.229 C0.204 33.198 0.086 35.167 -0.032 37.135 C-0.095 38.289 -0.158 39.444 -0.223 40.633 C-1.033 44.611 -1.686 46.176 -4.86 48.764 C-8.516 49.568 -12.127 49.679 -15.86 49.764 C-16.706 49.8 -17.552 49.836 -18.423 49.873 C-20.97 49.972 -23.515 50.031 -26.063 50.08 C-27.009 50.101 -27.954 50.122 -28.928 50.144 C-31.989 50.21 -35.049 50.269 -38.11 50.326 C-39.681 50.356 -39.681 50.356 -41.284 50.386 C-46.686 50.484 -52.089 50.575 -57.493 50.66 C-61.617 50.725 -65.741 50.801 -69.865 50.887 C-74.45 50.983 -79.035 51.054 -83.621 51.105 C-85.316 51.128 -87.011 51.159 -88.706 51.199 C-91.046 51.252 -93.383 51.274 -95.724 51.287 C-97.036 51.307 -98.349 51.327 -99.701 51.347 C-102.86 50.764 -102.86 50.764 -104.85 48.713 C-106.142 44.94 -105.8 41.893 -105.165 38.049 C-105.057 37.316 -104.949 36.582 -104.837 35.827 C-104.605 34.28 -104.364 32.734 -104.115 31.19 C-103.738 28.84 -103.391 26.488 -103.048 24.133 C-102.818 22.626 -102.586 21.118 -102.353 19.612 C-102.249 18.915 -102.146 18.217 -102.04 17.499 C-101.317 13.122 -100.16 9.564 -97.86 5.764 C-94.137 3.281 -90.962 3.246 -86.629 2.97 C-85.789 2.91 -84.95 2.849 -84.085 2.787 C-81.306 2.59 -78.527 2.405 -75.747 2.221 C-73.815 2.087 -71.883 1.953 -69.951 1.819 C-65.899 1.538 -61.846 1.264 -57.793 0.995 C-52.604 0.649 -47.416 0.289 -42.228 -0.075 C-38.236 -0.354 -34.245 -0.626 -30.253 -0.896 C-28.34 -1.026 -26.427 -1.158 -24.515 -1.292 C-21.837 -1.478 -19.159 -1.656 -16.48 -1.831 C-15.299 -1.915 -15.299 -1.915 -14.095 -2.002 C-3.97 -2.638 -3.97 -2.638 0 0 Z " fill="#22222E" transform="translate(214.8603515625,179.236083984375)"/>
<path d="M0 0 C0.371 0.474 0.743 0.949 1.125 1.438 C0.795 2.428 0.465 3.417 0.125 4.438 C-1.109 3.95 -1.109 3.95 -2.367 3.453 C-6.319 2.309 -9.927 2.137 -14 2.188 C-14.781 2.192 -15.563 2.197 -16.368 2.201 C-23.048 2.302 -29.634 2.921 -36.27 3.653 C-44.614 4.564 -52.952 4.97 -61.335 5.324 C-63.955 5.441 -66.573 5.577 -69.191 5.719 C-70.5 5.789 -70.5 5.789 -71.836 5.86 C-73.548 5.952 -75.261 6.047 -76.973 6.144 C-81.48 6.383 -85.863 6.377 -90.375 6.125 C-93.725 6.013 -93.725 6.013 -96.418 7.77 C-97.736 9.579 -97.736 9.579 -98.875 12.438 C-99.688 10.75 -99.688 10.75 -99.875 8.438 C-97.129 4.831 -95.484 3.569 -91.011 2.602 C-89.481 2.479 -87.949 2.381 -86.416 2.303 C-85.577 2.242 -84.737 2.182 -83.872 2.119 C-81.104 1.924 -78.336 1.762 -75.566 1.602 C-73.637 1.474 -71.708 1.344 -69.779 1.212 C-65.739 0.941 -61.699 0.686 -57.657 0.442 C-52.483 0.13 -47.311 -0.209 -42.139 -0.557 C-37.199 -0.888 -32.258 -1.206 -27.316 -1.523 C-26.377 -1.585 -25.437 -1.646 -24.469 -1.71 C-21.801 -1.882 -19.132 -2.045 -16.463 -2.205 C-15.287 -2.282 -15.287 -2.282 -14.087 -2.362 C-3.556 -2.963 -3.556 -2.963 0 0 Z " fill="#110E1B" transform="translate(214.875,179.5625)"/>
<path d="M0 0 C5.499 -0.045 10.995 -0.027 16.494 0.025 C16.494 0.355 16.494 0.685 16.494 1.025 C12.354 1.788 8.348 2.192 4.143 2.35 C2.371 2.44 2.371 2.44 0.564 2.531 C-1.906 2.653 -4.378 2.754 -6.85 2.836 C-12.947 2.915 -12.947 2.915 -18.231 5.446 C-19.509 7.233 -19.509 7.233 -20.506 10.025 C-21.318 8.338 -21.318 8.338 -21.506 6.025 C-19.901 3.265 -19.262 2.454 -16.506 1.025 C-11.05 -0.031 -5.535 0.056 0 0 Z " fill="#080714" transform="translate(136.505859375,181.974609375)"/>
<path d="M0 0 C1.375 0.017 1.375 0.017 2.777 0.035 C3.696 0.044 4.616 0.053 5.562 0.062 C6.273 0.074 6.983 0.086 7.715 0.098 C7.715 0.428 7.715 0.758 7.715 1.098 C7.112 1.184 6.508 1.27 5.887 1.359 C4.688 1.57 4.688 1.57 3.465 1.785 C2.281 1.977 2.281 1.977 1.074 2.172 C-2.277 3.487 -3.384 5.047 -5.285 8.098 C-6.254 10.865 -6.847 13.661 -7.41 16.535 C-7.657 17.715 -7.657 17.715 -7.909 18.919 C-9.341 25.936 -10.417 32.989 -11.285 40.098 C-11.945 39.768 -12.605 39.438 -13.285 39.098 C-12.692 34.485 -12.07 29.878 -11.424 25.273 C-11.208 23.708 -10.999 22.141 -10.799 20.574 C-10.508 18.314 -10.19 16.06 -9.867 13.805 C-9.784 13.109 -9.7 12.413 -9.614 11.696 C-8.855 6.672 -7.123 4.339 -3.285 1.098 C-2.285 0.098 -2.285 0.098 0 0 Z " fill="#0D142D" transform="translate(122.28515625,184.90234375)"/>
<path d="M0 0 C0.557 0.712 0.557 0.712 1.125 1.438 C0.795 2.428 0.465 3.417 0.125 4.438 C-0.205 3.447 -0.535 2.458 -0.875 1.438 C-14.735 0.942 -14.735 0.942 -28.875 0.438 C-28.875 0.107 -28.875 -0.222 -28.875 -0.562 C-25.501 -0.93 -22.126 -1.279 -18.75 -1.625 C-17.323 -1.781 -17.323 -1.781 -15.867 -1.939 C-3.787 -3.156 -3.787 -3.156 0 0 Z " fill="#090713" transform="translate(214.875,179.5625)"/>
<path d="M0 0 C0 0.33 0 0.66 0 1 C-0.603 1.086 -1.207 1.173 -1.828 1.262 C-7.163 2.189 -7.163 2.189 -11.438 5.375 C-12.734 7.553 -13.971 9.685 -15 12 C-14.709 8.289 -14.205 5.42 -12.562 2.062 C-8.662 -1.077 -4.823 -0.414 0 0 Z " fill="#16131F" transform="translate(130,185)"/>
</svg>
