<?xml version="1.0" encoding="UTF-8"?>
<!-- Generator: visioncortex VTracer 0.6.4 -->
<svg version="1.1" xmlns="http://www.w3.org/2000/svg" width="512" height="512">
<path d="M0 0 C0.095 0.629 0.19 1.257 0.288 1.905 C2.127 13.836 4.008 24.94 9 36 C9.33 36.99 9.66 37.98 10 39 C7.624 39.082 5.251 39.141 2.875 39.188 C2.21 39.213 1.545 39.238 0.859 39.264 C-3.879 39.333 -7.002 38.531 -11 36 C-17.297 29.799 -19.588 18.338 -20.246 9.809 C-20.249 7.522 -20.193 5.278 -20 3 C-17.605 2.494 -15.209 1.995 -12.812 1.5 C-12.139 1.357 -11.465 1.214 -10.771 1.066 C-7.107 0.316 -3.731 -0.068 0 0 Z " fill="#232A32" transform="translate(338,315)"/>
</svg>
