<?xml version="1.0" encoding="UTF-8"?>
<!-- Generator: visioncortex VTracer 0.6.4 -->
<svg version="1.1" xmlns="http://www.w3.org/2000/svg" width="512" height="512">
<path d="M0 0 C9.625 -0.25 9.625 -0.25 13 2 C13.341 3.879 13.341 3.879 13.293 6.133 C13.283 6.938 13.274 7.744 13.264 8.574 C13.239 9.416 13.213 10.258 13.188 11.125 C13.167 12.399 13.167 12.399 13.146 13.699 C13.111 15.8 13.057 17.9 13 20 C9.812 21.594 6.371 21.102 2.875 21.062 C2.121 21.058 1.367 21.053 0.59 21.049 C-1.273 21.037 -3.137 21.019 -5 21 C-5 19.68 -5 18.36 -5 17 C-3.35 16.67 -1.7 16.34 0 16 C0 10.72 0 5.44 0 0 Z " fill="#8B8E93" transform="translate(375,292)"/>
</svg>
