<?xml version="1.0" encoding="UTF-8"?>
<!-- Generator: visioncortex VTracer 0.6.4 -->
<svg version="1.1" xmlns="http://www.w3.org/2000/svg" width="512" height="512">
<path d="M0 0 C19.102 1.102 19.102 1.102 24 6 C24.258 8.769 24.398 11.445 24.449 14.219 C24.471 15.032 24.493 15.846 24.515 16.684 C24.559 18.406 24.598 20.127 24.633 21.849 C24.687 24.49 24.757 27.129 24.83 29.77 C24.871 31.44 24.91 33.111 24.949 34.781 C24.97 35.574 24.991 36.367 25.012 37.183 C25.116 42.768 25.116 42.768 24 45 C20.208 44.862 16.417 44.713 12.625 44.562 C11.545 44.523 10.465 44.484 9.352 44.443 C8.32 44.401 7.289 44.36 6.227 44.316 C5.273 44.28 4.32 44.243 3.338 44.205 C1 44 1 44 -1 43 C-2.365 38.959 -2.162 34.804 -2.168 30.586 C-2.171 29.775 -2.175 28.964 -2.178 28.129 C-2.183 26.419 -2.185 24.71 -2.185 23 C-2.187 20.377 -2.206 17.755 -2.225 15.133 C-2.228 13.471 -2.23 11.81 -2.23 10.148 C-2.238 9.362 -2.245 8.576 -2.252 7.765 C-2.229 2.229 -2.229 2.229 0 0 Z " fill="#201F2F" transform="translate(310,190)"/>
<path d="M0 0 C19.102 1.102 19.102 1.102 24 6 C24.125 9.125 24.125 9.125 24 12 C20.416 11.356 16.833 10.71 13.25 10.062 C12.234 9.88 11.218 9.698 10.172 9.51 C9.192 9.333 8.212 9.155 7.203 8.973 C6.302 8.81 5.402 8.648 4.474 8.481 C2.291 8.057 0.15 7.564 -2 7 C-2.125 4.625 -2.125 4.625 -2 2 C-1.34 1.34 -0.68 0.68 0 0 Z " fill="#04040A" transform="translate(310,190)"/>
<path d="M0 0 C0.66 0.66 1.32 1.32 2 2 C5.606 3.019 9.313 3.591 13 4.25 C14.024 4.449 15.047 4.647 16.102 4.852 C17.079 5.029 18.056 5.207 19.062 5.391 C19.961 5.556 20.859 5.721 21.785 5.892 C22.516 5.927 23.247 5.963 24 6 C24.66 5.34 25.32 4.68 26 4 C26 5.98 26 7.96 26 10 C22.416 9.356 18.833 8.71 15.25 8.062 C14.234 7.88 13.218 7.698 12.172 7.51 C11.192 7.333 10.212 7.155 9.203 6.973 C7.852 6.729 7.852 6.729 6.474 6.481 C4.291 6.057 2.15 5.564 0 5 C0 3.35 0 1.7 0 0 Z " fill="#0F0F1C" transform="translate(308,192)"/>
</svg>
