<?xml version="1.0" encoding="UTF-8"?>
<!-- Generator: visioncortex VTracer 0.6.4 -->
<svg version="1.1" xmlns="http://www.w3.org/2000/svg" width="512" height="512">
<path d="M0 0 C0.66 0.33 1.32 0.66 2 1 C2.026 2.137 2.052 3.274 2.078 4.445 C2.41 14.595 3.618 23.362 7 33 C7.299 33.926 7.598 34.851 7.906 35.805 C9.868 41.37 12.53 45.244 16.609 49.504 C18 51 18 51 18 52 C-2.321 52.638 -2.321 52.638 -9.312 47 C-17.426 38.904 -21.046 29.116 -23 18 C-22.505 16.515 -22.505 16.515 -22 15 C-21.036 14.867 -20.072 14.734 -19.078 14.598 C-17.183 14.333 -17.183 14.333 -15.25 14.062 C-13.997 13.888 -12.744 13.714 -11.453 13.535 C-8.9 13.14 -6.481 12.696 -4 12 C-3.879 11.301 -3.758 10.603 -3.633 9.883 C-3.465 8.973 -3.298 8.063 -3.125 7.125 C-2.963 6.22 -2.8 5.315 -2.633 4.383 C-2 2 -2 2 0 0 Z " fill="#262C32" transform="translate(248,328)"/>
</svg>
