<?xml version="1.0" encoding="UTF-8"?>
<!-- Generator: visioncortex VTracer 0.6.4 -->
<svg version="1.1" xmlns="http://www.w3.org/2000/svg" width="512" height="512">
<path d="M0 0 C8.449 5.19 12.78 15.416 15.34 24.578 C17.252 33.632 18.293 43 18.117 52.258 C16.137 52.753 16.137 52.753 14.117 53.258 C13.875 52.002 13.632 50.747 13.383 49.453 C10.953 35.013 10.953 35.013 4.496 22.129 C3.117 20.258 3.117 20.258 3.117 18.258 C-3.229 15.913 -9.285 13.851 -15.883 16.258 C-22.153 21.831 -24.237 30.154 -26.633 37.883 C-27.018 39.084 -27.404 40.286 -27.801 41.523 C-28.516 43.755 -29.225 45.989 -29.925 48.225 C-30.241 49.226 -30.557 50.227 -30.883 51.258 C-31.191 52.314 -31.5 53.37 -31.817 54.458 C-32.847 57.164 -33.674 58.451 -35.883 60.258 C-36.15 52.595 -35.532 45.555 -33.883 38.07 C-33.556 36.579 -33.556 36.579 -33.223 35.057 C-30.474 23.408 -25.019 7.862 -14.633 0.82 C-9.897 -1.548 -4.964 -1.957 0 0 Z " fill="#010305" transform="translate(282.8828125,267.7421875)"/>
</svg>
