<?xml version="1.0" encoding="UTF-8"?>
<!-- Generator: visioncortex VTracer 0.6.4 -->
<svg version="1.1" xmlns="http://www.w3.org/2000/svg" width="512" height="512">
<path d="M0 0 C1.94 0.071 1.94 0.071 3.92 0.143 C4.95 0.178 4.95 0.178 6 0.214 C8.202 0.291 10.402 0.375 12.603 0.459 C14.092 0.512 15.581 0.565 17.07 0.617 C20.727 0.747 24.384 0.883 28.041 1.022 C28.091 1.582 28.141 2.141 28.193 2.718 C28.425 5.258 28.67 7.796 28.916 10.334 C28.994 11.215 29.073 12.096 29.154 13.004 C29.238 13.852 29.322 14.699 29.408 15.573 C29.481 16.353 29.555 17.133 29.63 17.937 C29.96 20.317 29.96 20.317 32.041 23.022 C32.052 25.432 32.052 25.432 31.728 28.084 C31.629 28.962 31.53 29.84 31.427 30.744 C31.041 33.022 31.041 33.022 30.041 35.022 C25.966 35.145 21.892 35.236 17.815 35.296 C16.429 35.322 15.043 35.356 13.657 35.399 C11.665 35.46 9.671 35.485 7.677 35.51 C6.478 35.536 5.279 35.562 4.043 35.589 C1.041 35.022 1.041 35.022 -0.828 32.68 C-4.861 23.199 -4.552 11.203 -3.959 1.022 C-2.959 0.022 -2.959 0.022 0 0 Z " fill="#282F36" transform="translate(170.959228515625,340.978271484375)"/>
<path d="M0 0 C0.33 0 0.66 0 1 0 C1.195 1.986 1.391 3.971 1.586 5.957 C1.927 8.3 1.927 8.3 4 11 C3.75 14.625 3.75 14.625 3 18 C2.34 18.33 1.68 18.66 1 19 C-0.266 15.133 -0.112 11.268 -0.062 7.25 C-0.058 6.553 -0.053 5.855 -0.049 5.137 C-0.037 3.424 -0.019 1.712 0 0 Z " fill="#131619" transform="translate(199,353)"/>
</svg>
