<?xml version="1.0" encoding="UTF-8"?>
<!-- Generator: visioncortex VTracer 0.6.4 -->
<svg version="1.1" xmlns="http://www.w3.org/2000/svg" width="512" height="512">
<path d="M0 0 C1.183 -0.01 2.365 -0.021 3.584 -0.031 C6.82 -0.054 10.054 -0.054 13.29 -0.042 C15.994 -0.035 18.698 -0.043 21.402 -0.052 C27.781 -0.072 34.16 -0.066 40.539 -0.044 C47.116 -0.022 53.691 -0.039 60.268 -0.077 C65.92 -0.108 71.571 -0.116 77.223 -0.105 C80.597 -0.099 83.97 -0.101 87.343 -0.124 C91.104 -0.144 94.864 -0.126 98.625 -0.098 C99.74 -0.111 100.855 -0.125 102.004 -0.139 C109.341 -0.029 109.341 -0.029 112.116 1.946 C115.048 5.304 115.989 8.284 116.238 12.663 C116.313 13.791 116.387 14.92 116.464 16.083 C116.544 17.855 116.544 17.855 116.625 19.663 C116.729 21.474 116.729 21.474 116.835 23.321 C117.022 26.768 117.174 30.214 117.312 33.663 C117.352 34.514 117.392 35.364 117.434 36.241 C117.904 46.858 117.904 46.858 116.117 49.289 C113.68 51.144 112.129 51.043 109.081 51.051 C107.998 51.06 106.914 51.07 105.797 51.081 C104.608 51.076 103.419 51.072 102.194 51.067 C100.941 51.074 99.689 51.081 98.399 51.088 C94.963 51.103 91.527 51.104 88.091 51.099 C85.223 51.096 82.356 51.102 79.488 51.108 C72.722 51.122 65.957 51.12 59.191 51.109 C52.21 51.097 45.23 51.111 38.249 51.138 C32.257 51.16 26.265 51.167 20.272 51.161 C16.693 51.158 13.113 51.16 9.534 51.177 C5.543 51.196 1.552 51.182 -2.439 51.165 C-4.22 51.179 -4.22 51.179 -6.037 51.194 C-7.123 51.184 -8.21 51.174 -9.329 51.164 C-10.273 51.164 -11.217 51.164 -12.189 51.163 C-15.45 50.51 -16.649 49.239 -18.688 46.663 C-19.513 41.721 -18.949 36.654 -18.688 31.663 C-18.644 30.619 -18.6 29.575 -18.554 28.499 C-18.4 25.01 -18.205 21.524 -18 18.038 C-17.947 16.899 -17.894 15.761 -17.839 14.588 C-17.765 13.507 -17.69 12.425 -17.613 11.311 C-17.556 10.344 -17.498 9.376 -17.439 8.379 C-14.958 -0.591 -7.795 -0.06 0 0 Z " fill="#22212D" transform="translate(206.6875,177.337158203125)"/>
<path d="M0 0 C1.535 -0.017 1.535 -0.017 3.101 -0.035 C4.223 -0.037 5.346 -0.039 6.502 -0.041 C7.684 -0.051 8.866 -0.061 10.085 -0.071 C13.328 -0.096 16.572 -0.111 19.816 -0.119 C21.843 -0.125 23.87 -0.134 25.897 -0.143 C32.241 -0.17 38.585 -0.189 44.929 -0.197 C52.249 -0.206 59.569 -0.241 66.89 -0.299 C72.55 -0.342 78.21 -0.362 83.871 -0.365 C87.251 -0.367 90.63 -0.379 94.01 -0.415 C97.782 -0.449 101.551 -0.445 105.322 -0.432 C106.44 -0.45 107.558 -0.469 108.71 -0.488 C116.075 -0.408 116.075 -0.408 118.856 1.575 C120.85 3.862 121.959 5.853 122.53 8.836 C122.472 9.601 122.414 10.367 122.354 11.156 C122.309 11.937 122.264 12.718 122.217 13.523 C122.159 14.103 122.101 14.683 122.041 15.281 C121.711 15.281 121.381 15.281 121.041 15.281 C121.009 13.328 120.976 11.375 120.944 9.422 C119.746 6.581 117.916 5.572 115.265 4.131 C110.878 2.454 106.333 2.728 101.693 2.763 C100.571 2.756 99.448 2.749 98.291 2.742 C94.592 2.725 90.893 2.736 87.194 2.75 C84.617 2.747 82.041 2.743 79.465 2.738 C74.07 2.732 68.676 2.74 63.282 2.759 C57.056 2.781 50.83 2.774 44.603 2.752 C38.599 2.732 32.595 2.734 26.591 2.746 C24.042 2.748 21.493 2.745 18.944 2.736 C15.383 2.726 11.822 2.741 8.26 2.763 C7.208 2.755 6.156 2.747 5.072 2.739 C-0.914 2.808 -4.361 3.345 -8.959 7.281 C-8.646 4.906 -8.646 4.906 -7.959 2.281 C-4.702 0.109 -3.77 0.025 0 0 Z " fill="#09050F" transform="translate(199.95870971679688,177.7191162109375)"/>
<path d="M0 0 C3.395 1.405 5.306 2.698 7 6 C7.245 9.017 7.174 11.98 7 15 C6.67 15 6.34 15 6 15 C5.938 13.113 5.938 13.113 5.875 11.188 C5.692 8.99 5.692 8.99 5 7 C2.082 4.914 2.082 4.914 -1 4 C-0.67 2.68 -0.34 1.36 0 0 Z " fill="#0B0A19" transform="translate(315,178)"/>
</svg>
