<?xml version="1.0" encoding="UTF-8"?>
<!-- Generator: visioncortex VTracer 0.6.4 -->
<svg version="1.1" xmlns="http://www.w3.org/2000/svg" width="512" height="512">
<path d="M0 0 C12.21 0 24.42 0 37 0 C37 17.378 37 17.378 35.625 24.312 C35.436 25.402 35.436 25.402 35.242 26.514 C34.272 31.728 34.272 31.728 32 34 C27.365 34.694 22.679 34.797 18 35 C16.702 35.077 15.404 35.155 14.066 35.234 C12.208 35.304 12.208 35.304 10.312 35.375 C9.174 35.424 8.036 35.473 6.863 35.523 C4 35 4 35 2.184 33.152 C0.459 28.56 0.125 24.055 -0.25 19.188 C-0.385 17.748 -0.385 17.748 -0.523 16.279 C-1.017 10.452 -0.751 6.005 0 0 Z " fill="#24292F" transform="translate(308,342)"/>
</svg>
