<?xml version="1.0" encoding="UTF-8"?>
<!-- Generator: visioncortex VTracer 0.6.4 -->
<svg version="1.1" xmlns="http://www.w3.org/2000/svg" width="512" height="512">
<path d="M0 0 C0.66 0 1.32 0 2 0 C3.299 1.699 4.51 3.465 5.688 5.25 C8.605 9.628 11.637 13.874 14.859 18.035 C15.531 18.907 16.203 19.779 16.896 20.677 C18.236 22.407 19.586 24.129 20.946 25.843 C24.759 30.792 27.193 34.778 28 41 C28.107 41.793 28.214 42.586 28.325 43.404 C28.632 45.933 28.887 48.463 29.125 51 C29.211 51.87 29.298 52.74 29.387 53.637 C29.596 55.757 29.799 57.879 30 60 C26.728 58.909 26.358 58.485 24.504 55.781 C24.033 55.104 23.563 54.427 23.078 53.73 C22.578 52.994 22.078 52.258 21.562 51.5 C20.494 49.951 19.425 48.403 18.355 46.855 C17.806 46.055 17.256 45.255 16.689 44.431 C15.024 42.034 13.326 39.664 11.613 37.301 C11.071 36.548 10.528 35.795 9.969 35.02 C8.929 33.58 7.884 32.143 6.834 30.711 C1.789 23.67 0.684 17.661 0.375 9.125 C0.336 8.246 0.298 7.367 0.258 6.461 C0.164 4.308 0.081 2.154 0 0 Z " fill="#222537" transform="translate(132,165)"/>
</svg>
