<?xml version="1.0" encoding="UTF-8"?>
<!-- Generator: visioncortex VTracer 0.6.4 -->
<svg version="1.1" xmlns="http://www.w3.org/2000/svg" width="512" height="512">
<path d="M0 0 C12.267 4.166 18.784 18.756 24.312 29.625 C33.111 47.522 40.795 66.218 43.312 86.125 C40.307 88.402 38.695 89.125 34.875 89.125 C24.288 86.153 18.39 73.935 13.236 64.972 C4.835 49.769 -1.614 32.383 -2.246 14.98 C-2.738 11.801 -3.351 11.167 -5.688 9.125 C-6.085 5.949 -6.187 3.985 -4.562 1.188 C-2.688 0.125 -2.688 0.125 0 0 Z M7.312 30.125 C5.964 43.533 11.044 54.433 18.406 65.367 C20.916 67.682 22.971 67.834 26.312 68.125 C27.693 55.243 20.813 42.216 13.312 32.125 C12.653 31.465 11.993 30.805 11.312 30.125 C9.993 30.125 8.673 30.125 7.312 30.125 Z " fill="#272E38" transform="translate(215.6875,332.875)"/>
<path d="M0 0 C12.799 4.347 19.666 20.204 25.284 31.595 C42.464 67.541 42.464 67.541 40.898 76.492 C40.705 77.031 40.512 77.57 40.312 78.125 C40.07 77.375 39.828 76.625 39.578 75.852 C37.389 69.165 35.007 62.623 32.312 56.125 C31.944 55.214 31.575 54.302 31.195 53.363 C23.035 30.308 23.035 30.308 7.312 13.125 C7.312 12.465 7.312 11.805 7.312 11.125 C2.229 11.012 2.229 11.012 -2.688 12.125 C-4.188 11 -4.188 11 -5.688 9.125 C-6.085 5.949 -6.187 3.985 -4.562 1.188 C-2.688 0.125 -2.688 0.125 0 0 Z " fill="#020304" transform="translate(215.6875,332.875)"/>
</svg>
