<?xml version="1.0" encoding="UTF-8"?>
<!-- Generator: visioncortex VTracer 0.6.4 -->
<svg version="1.1" xmlns="http://www.w3.org/2000/svg" width="512" height="512">
<path d="M0 0 C6.243 5.399 7.925 10.869 8.688 19 C8.803 20.666 8.911 22.332 9 24 C5.008 22.669 4.165 20.766 2.074 17.25 C-0.504 11.85 -0.122 5.866 0 0 Z " fill="#D4DFE7" transform="translate(128,202)"/>
<path d="M0 0 C3.92 4.037 4.635 7.365 4.75 12.812 C4.78 13.505 4.809 14.198 4.84 14.912 C4.91 16.607 4.957 18.304 5 20 C-0.343 13.823 -0.162 7.795 0 0 Z " fill="#EAA126" transform="translate(128,202)"/>
<path d="M0 0 C0.66 0 1.32 0 2 0 C3.619 2.572 4.044 3.677 3.625 6.75 C3.419 7.493 3.213 8.235 3 9 C2.34 8.67 1.68 8.34 1 8 C0.406 5.351 0.258 2.708 0 0 Z " fill="#E1EBF3" transform="translate(131,207)"/>
</svg>
