<?xml version="1.0" encoding="UTF-8"?>
<!-- Generator: visioncortex VTracer 0.6.4 -->
<svg version="1.1" xmlns="http://www.w3.org/2000/svg" width="512" height="512">
<path d="M0 0 C3 2 3 2 3.688 5.125 C3.791 6.074 3.894 7.022 4 8 C4.956 8.14 5.912 8.28 6.896 8.425 C12.775 10.127 16.526 14.935 20.66 19.207 C22.048 20.609 23.435 22.011 24.823 23.413 C26.757 25.373 28.678 27.344 30.601 29.315 C33.962 32.758 37.344 36.181 40.724 39.605 C42.519 41.427 44.31 43.252 46.096 45.081 C50.239 49.306 54.386 53.297 59 57 C60.017 58.113 61.004 59.254 61.938 60.438 C64.562 63.626 67.444 66.182 70.68 68.738 C71.115 69.155 71.551 69.571 72 70 C72 70.66 72 71.32 72 72 C72.585 72.251 73.17 72.503 73.773 72.762 C78.532 75.408 82.114 80.15 84.438 85 C84.623 85.66 84.809 86.32 85 87 C90.65 86.399 95.662 84.925 101 83 C110.709 91.378 115.722 101.283 117 114 C117.11 117.231 117.11 120.459 117.098 123.691 C117.097 124.568 117.097 125.445 117.096 126.348 C117.09 130.01 117.081 133.671 117.004 137.333 C116.428 149.983 116.428 149.983 122.102 160.789 C123.705 162.226 125.337 163.633 127 165 C128.266 166.321 129.514 167.66 130.738 169.02 C131.326 169.642 131.913 170.265 132.518 170.907 C133.76 172.226 134.995 173.549 136.226 174.878 C139.3 178.188 142.399 181.414 145.703 184.496 C153.846 192.266 153.846 192.266 154.293 197.297 C153.777 200.339 152.948 203.07 152 206 C151.769 208.688 151.769 208.688 152 211 C153.066 212.296 153.066 212.296 155.562 212.062 C156.769 212.032 156.769 212.032 158 212 C158.99 209.36 159.98 206.72 161 204 C161.66 204 162.32 204 163 204 C163 204.66 163 205.32 163 206 C163.536 206.206 164.072 206.413 164.625 206.625 C171.907 210.841 180.07 220.226 182.723 228.25 C183.394 234.904 181.924 244.497 178 250 C175.885 251.439 173.866 252.671 171.625 253.875 C171.007 254.217 170.39 254.559 169.753 254.912 C163.923 258.114 157.988 261.105 152 264 C152.33 260.7 152.66 257.4 153 254 C148.473 255.395 144.299 257.211 140.082 259.344 C139.431 259.669 138.781 259.995 138.11 260.33 C136.009 261.382 133.911 262.441 131.812 263.5 C130.362 264.228 128.912 264.957 127.462 265.685 C118.931 269.976 110.404 274.281 102.013 278.841 C98.81 280.576 95.669 282.184 92.262 283.48 C87.828 285.244 87.828 285.244 84 288 C83.527 290.967 83.527 290.967 83.625 294.25 C83.453 297.668 83.453 297.668 82 301 C76.253 305.177 69.281 307.473 62.675 309.945 C60.209 310.918 57.894 312.009 55.543 313.23 C51.52 315.24 48.378 316.421 44 315 C38.491 310.714 35.022 304.115 31.48 298.223 C30.192 295.889 30.192 295.889 28 295 C28.431 305.389 28.431 305.389 32 315 C30.02 315.66 28.04 316.32 26 317 C22.282 313.027 21.077 309.34 20.062 304.125 C14.996 280.859 4.557 246.987 -14.883 231.5 C-18.582 229.194 -20.51 229 -25 229 C-25 232.3 -25 235.6 -25 239 C-25.99 238.01 -26.98 237.02 -28 236 C-28 235.34 -28 234.68 -28 234 C-28.66 234 -29.32 234 -30 234 C-31.282 232.303 -32.474 230.538 -33.625 228.75 C-34.339 227.652 -35.053 226.553 -35.789 225.422 C-36.341 224.566 -36.341 224.566 -36.903 223.693 C-38.576 221.111 -40.289 218.557 -42 216 C-44.046 212.937 -46.085 209.87 -48.105 206.789 C-52.189 200.507 -52.189 200.507 -56.812 194.625 C-61.613 188.865 -62.953 182.559 -64.625 175.438 C-68.559 159.692 -74.784 145.455 -82.812 131.375 C-83.268 130.575 -83.724 129.775 -84.194 128.95 C-87.213 123.61 -87.213 123.61 -92 120 C-93.98 120.495 -93.98 120.495 -96 121 C-96.33 124.96 -96.66 128.92 -97 133 C-100.161 129.839 -100.388 129.444 -100.688 125.312 C-100.786 124.1 -100.786 124.1 -100.887 122.863 C-100.924 122.248 -100.961 121.634 -101 121 C-100.34 121 -99.68 121 -99 121 C-99.4 118.621 -99.819 116.248 -100.25 113.875 C-100.36 113.21 -100.469 112.545 -100.582 111.859 C-101.469 107.096 -103.117 103.979 -106 100 C-106.33 99.01 -106.66 98.02 -107 97 C-107.66 97 -108.32 97 -109 97 C-109.577 90.812 -110.146 84.623 -110.709 78.433 C-110.901 76.332 -111.095 74.232 -111.291 72.131 C-114.121 41.771 -114.121 41.771 -111.062 36.938 C-107.214 34.503 -103.38 33.174 -99 32 C-98.553 32.592 -98.105 33.183 -97.645 33.793 C-97.04 34.583 -96.435 35.373 -95.812 36.188 C-95.221 36.965 -94.629 37.742 -94.02 38.543 C-92.009 41.072 -92.009 41.072 -89.543 43.441 C-86.93 46.07 -84.735 48.795 -82.5 51.75 C-82.077 52.306 -81.654 52.862 -81.218 53.434 C-79.808 55.287 -78.404 57.143 -77 59 C-70.034 68.197 -62.998 77.309 -55.687 86.235 C-50.655 92.388 -45.799 98.663 -41 105 C-40.415 105.737 -39.83 106.475 -39.227 107.234 C-38 109 -38 109 -38 111 C-37.34 111 -36.68 111 -36 111 C-33.738 113.419 -31.846 116.154 -29.875 118.812 C-29.03 119.919 -29.03 119.919 -28.168 121.049 C-27.636 121.761 -27.103 122.473 -26.555 123.207 C-25.82 124.189 -25.82 124.189 -25.07 125.191 C-24 127 -24 127 -24 130 C-23.031 129.567 -22.061 129.134 -21.062 128.688 C-17.45 127.128 -13.773 125.909 -10.016 124.746 C-7.734 123.99 -7.734 123.99 -5 122 C-3.483 117.449 -3.318 113.622 -5.195 109.156 C-7.172 105.698 -9.505 102.786 -12.125 99.812 C-13.121 98.659 -14.115 97.506 -15.109 96.352 C-15.601 95.783 -16.093 95.215 -16.6 94.63 C-20.154 90.493 -23.563 86.234 -27 82 C-28.044 80.715 -29.089 79.43 -30.133 78.145 C-30.683 77.467 -31.234 76.789 -31.802 76.091 C-32.934 74.696 -34.067 73.302 -35.2 71.907 C-35.752 71.229 -36.303 70.551 -36.871 69.852 C-37.407 69.192 -37.943 68.532 -38.496 67.853 C-39.802 66.244 -41.106 64.634 -42.41 63.023 C-46.533 57.95 -50.735 52.954 -55 48 C-68.546 32.254 -68.546 32.254 -74 24 C-69.376 22.497 -64.751 20.997 -60.125 19.5 C-59.078 19.161 -59.078 19.161 -58.011 18.816 C-47.345 15.366 -36.651 12.024 -25.92 8.782 C-18.843 6.625 -11.862 4.279 -4.983 1.55 C-3.098 0.836 -3.098 0.836 0 0 Z M-104 60 C-103.886 63.042 -103.759 66.083 -103.625 69.125 C-103.594 69.981 -103.563 70.837 -103.531 71.719 C-103.125 80.523 -100.647 85.966 -95.5 93 C-94.969 93.738 -94.438 94.476 -93.891 95.237 C-92.799 96.754 -91.704 98.27 -90.606 99.783 C-88.632 102.509 -86.681 105.251 -84.73 107.994 C-82.829 110.669 -80.919 113.338 -79 116 C-78.455 116.788 -77.909 117.575 -77.348 118.387 C-76.903 118.919 -76.458 119.451 -76 120 C-75.34 120 -74.68 120 -74 120 C-74.816 105.498 -75.573 93.741 -85.512 82.707 C-88.357 79.444 -90.863 75.915 -93.438 72.438 C-93.945 71.77 -94.453 71.102 -94.976 70.414 C-97.06 67.671 -98.989 65.019 -100.723 62.035 C-101.144 61.364 -101.566 60.692 -102 60 C-102.66 60 -103.32 60 -104 60 Z M-103 91 C-102.762 98.505 -100.887 103.25 -96 109 C-95.01 109.66 -94.02 110.32 -93 111 C-92.383 103.6 -94.903 98.961 -99.125 93 C-99.744 92.34 -100.363 91.68 -101 91 C-101.66 91 -102.32 91 -103 91 Z M-63 115 C-62.46 120.275 -61.888 125.543 -61.26 130.808 C-61.054 132.549 -60.859 134.292 -60.668 136.035 C-59.618 143.128 -56.108 148.263 -52 154 C-51.265 155.039 -51.265 155.039 -50.514 156.099 C-44.53 164.538 -38.485 172.935 -32 181 C-30.515 176.545 -31.266 172.441 -31.688 167.812 C-31.787 166.431 -31.787 166.431 -31.889 165.021 C-32.823 154.654 -37.392 148.082 -43.562 139.938 C-44.808 138.274 -46.052 136.61 -47.297 134.945 C-48.226 133.708 -48.226 133.708 -49.174 132.446 C-50.91 130.12 -52.624 127.78 -54.328 125.43 C-54.834 124.732 -55.34 124.035 -55.861 123.317 C-56.813 122.002 -57.763 120.686 -58.711 119.369 C-59.783 117.895 -60.888 116.444 -62 115 C-62.33 115 -62.66 115 -63 115 Z M96.867 117.922 C95.23 118.579 95.23 118.579 93.56 119.25 C91.736 119.993 91.736 119.993 89.875 120.75 C88.573 121.276 87.271 121.801 85.969 122.326 C81.309 124.208 76.655 126.104 72 128 C71.068 128.379 70.136 128.759 69.175 129.15 C59.747 132.989 50.319 136.828 40.901 140.691 C31.964 144.355 23.028 148.015 14.027 151.52 C12.754 152.02 11.481 152.52 10.208 153.021 C7.994 153.888 5.774 154.742 3.548 155.578 C-2.172 157.831 -5.738 159.685 -9 165 C-9.674 167.438 -9.674 167.438 -9.438 170 C-9.392 171.018 -9.347 172.037 -9.301 173.086 C-9.202 174.378 -9.102 175.669 -9 177 C-8.939 177.881 -8.877 178.762 -8.814 179.669 C-8.602 182.656 -8.368 185.64 -8.125 188.625 C-8.047 189.61 -7.969 190.595 -7.888 191.609 C-7.804 192.535 -7.72 193.46 -7.633 194.414 C-7.559 195.249 -7.486 196.084 -7.411 196.944 C-7.155 199.215 -7.155 199.215 -5 201 C0.231 200.687 4.621 198.617 9.324 196.492 C10.131 196.135 10.937 195.777 11.768 195.409 C13.505 194.639 15.24 193.865 16.974 193.089 C21.596 191.021 26.229 188.975 30.859 186.926 C32.268 186.301 32.268 186.301 33.705 185.664 C41.868 182.047 50.059 178.5 58.268 174.99 C60.426 174.067 62.583 173.142 64.74 172.217 C71.4 169.363 78.073 166.548 84.777 163.801 C86.583 163.055 86.583 163.055 88.426 162.295 C90.646 161.381 92.87 160.477 95.099 159.586 C100.449 157.38 104.29 155.486 108 151 C108.33 150.67 108.66 150.34 109 150 C109.029 148.311 108.987 146.621 108.914 144.934 C108.87 143.89 108.826 142.847 108.781 141.771 C108.73 140.671 108.678 139.571 108.625 138.438 C108.581 137.364 108.537 136.291 108.492 135.186 C108.764 124.833 108.764 124.833 105 116 C101.704 116 99.91 116.692 96.867 117.922 Z M-59 153 C-59.581 159.864 -58.22 163.343 -54.25 168.875 C-53.807 169.538 -53.363 170.2 -52.906 170.883 C-50.536 174.312 -48.898 176.304 -45 178 C-45.3 170.571 -47.06 166.372 -51.438 160.438 C-51.941 159.715 -52.444 158.992 -52.963 158.248 C-54.873 155.536 -54.873 155.536 -57 153 C-57.66 153 -58.32 153 -59 153 Z M28.625 233.688 C26.654 237.705 26.133 240.612 27 245 C28.823 248.579 29.982 250.514 33.633 252.258 C34.414 252.833 35.195 253.408 36 254 C36.418 257.066 36.418 257.066 36.188 260.562 C36.061 262.706 35.986 264.853 36 267 C36.66 267.66 37.32 268.32 38 269 C41.597 268.677 41.597 268.677 45 268 C46.187 264.44 46.097 261.562 46.062 257.812 C46.053 256.54 46.044 255.268 46.035 253.957 C46.024 252.981 46.012 252.005 46 251 C46.99 250.67 47.98 250.34 49 250 C52.029 245.673 52.446 242.25 51.625 237.188 C50.5 233.251 49.197 231.664 46 229 C38.936 226.697 33.583 228.078 28.625 233.688 Z " fill="#0058BB" transform="translate(236,105)"/>
<path d="M0 0 C1.485 0.99 1.485 0.99 3 2 C3 2.99 3 3.98 3 5 C5.31 4.01 7.62 3.02 10 2 C10.33 2.99 10.66 3.98 11 5 C7.767 7.155 6.748 7.469 3 7 C1.188 5.75 1.188 5.75 0 4 C0 2.68 0 1.36 0 0 Z " fill="#424B58" transform="translate(209,230)"/>
<path d="M0 0 C1 4 1 4 1 4 Z " fill="#3B2C01" transform="translate(316,413)"/>
<path d="M0 0 C0.66 0.33 1.32 0.66 2 1 C1.01 1 0.02 1 -1 1 C-0.67 0.67 -0.34 0.34 0 0 Z " fill="#858179" transform="translate(385,384)"/>
<path d="M0 0 C0.33 0.66 0.66 1.32 1 2 C0.34 1.67 -0.32 1.34 -1 1 C-0.67 0.67 -0.34 0.34 0 0 Z " fill="#3E3E3A" transform="translate(316,420)"/>
<path d="M0 0 C2 1 2 1 2 1 Z " fill="#BC9247" transform="translate(281,436)"/>
<path d="M0 0 C2 1 2 1 2 1 Z " fill="#A9ABAD" transform="translate(395,379)"/>
<path d="" fill="#D2A453" transform="translate(0,0)"/>
<path d="" fill="#624500" transform="translate(0,0)"/>
<path d="" fill="#9C927F" transform="translate(0,0)"/>
<path d="" fill="#B39454" transform="translate(0,0)"/>
<path d="" fill="#B7944E" transform="translate(0,0)"/>
<path d="" fill="#B08F55" transform="translate(0,0)"/>
<path d="" fill="#9B9489" transform="translate(0,0)"/>
<path d="" fill="#B5B8B9" transform="translate(0,0)"/>
<path d="" fill="#ABADAF" transform="translate(0,0)"/>
<path d="" fill="#A5A7A9" transform="translate(0,0)"/>
<path d="" fill="#A09172" transform="translate(0,0)"/>
<path d="" fill="#A0A2A4" transform="translate(0,0)"/>
<path d="" fill="#9D8E73" transform="translate(0,0)"/>
<path d="" fill="#919393" transform="translate(0,0)"/>
<path d="" fill="#8E9095" transform="translate(0,0)"/>
<path d="" fill="#161617" transform="translate(0,0)"/>
<path d="" fill="#1D1D1E" transform="translate(0,0)"/>
<path d="" fill="#1F2021" transform="translate(0,0)"/>
<path d="" fill="#353637" transform="translate(0,0)"/>
<path d="" fill="#1C1C1D" transform="translate(0,0)"/>
<path d="" fill="#1E1F20" transform="translate(0,0)"/>
<path d="" fill="#262727" transform="translate(0,0)"/>
<path d="" fill="#373839" transform="translate(0,0)"/>
<path d="" fill="#202121" transform="translate(0,0)"/>
<path d="" fill="#1D1E1E" transform="translate(0,0)"/>
<path d="" fill="#232424" transform="translate(0,0)"/>
<path d="" fill="#272829" transform="translate(0,0)"/>
<path d="" fill="#262728" transform="translate(0,0)"/>
<path d="" fill="#313233" transform="translate(0,0)"/>
<path d="" fill="#373839" transform="translate(0,0)"/>
<path d="" fill="#000000" transform="translate(0,0)"/>
<path d="" fill="#939698" transform="translate(0,0)"/>
<path d="" fill="#BABCBE" transform="translate(0,0)"/>
<path d="" fill="#453102" transform="translate(0,0)"/>
<path d="" fill="#AAACAE" transform="translate(0,0)"/>
<path d="" fill="#483203" transform="translate(0,0)"/>
<path d="" fill="#A2A19F" transform="translate(0,0)"/>
<path d="" fill="#A99169" transform="translate(0,0)"/>
<path d="" fill="#B2955D" transform="translate(0,0)"/>
<path d="" fill="#F5D8A3" transform="translate(0,0)"/>
<path d="" fill="#8E8F91" transform="translate(0,0)"/>
<path d="" fill="#F7D28E" transform="translate(0,0)"/>
<path d="" fill="#14161A" transform="translate(0,0)"/>
<path d="" fill="#131419" transform="translate(0,0)"/>
<path d="" fill="#010102" transform="translate(0,0)"/>
</svg>
