<?xml version="1.0" encoding="UTF-8"?>
<!-- Generator: visioncortex VTracer 0.6.4 -->
<svg version="1.1" xmlns="http://www.w3.org/2000/svg" width="512" height="512">
<path d="M0 0 C1.61 5.616 0.054 10.631 -2 16 C-4.562 18.438 -4.562 18.438 -8 20 C-8.828 20.44 -9.655 20.879 -10.508 21.332 C-17.44 25 -17.44 25 -21 25 C-20.715 23.27 -20.422 21.541 -20.125 19.812 C-19.963 18.85 -19.8 17.887 -19.633 16.895 C-19.424 15.939 -19.215 14.984 -19 14 C-18.825 13.154 -18.649 12.309 -18.469 11.438 C-16.115 7.532 -12.385 6.144 -8.375 4.188 C-7.573 3.781 -6.771 3.374 -5.945 2.955 C-3.97 1.956 -1.989 0.972 0 0 Z " fill="#F2F1EA" transform="translate(406,359)"/>
</svg>
