<?xml version="1.0" encoding="UTF-8"?>
<!-- Generator: visioncortex VTracer 0.6.4 -->
<svg version="1.1" xmlns="http://www.w3.org/2000/svg" width="512" height="512">
<path d="M0 0 C3.044 1.853 4.596 3.303 6.375 6.375 C7.447 10.876 6.715 13.835 4.312 17.75 C1.549 20.439 -0.223 21.259 -4 22 C-7.909 21.865 -10.174 21.625 -13.312 19.25 C-16.09 15.546 -17.021 13.181 -16.938 8.5 C-15.818 4.32 -14.332 2.697 -11 0 C-7.144 -1.285 -3.879 -0.977 0 0 Z " fill="#818283" transform="translate(404,278)"/>
<path d="M0 0 C1.32 0 2.64 0 4 0 C2.744 3.872 1.66 6.068 -2 8 C-5.25 8.188 -5.25 8.188 -8 8 C-7.312 6.125 -7.312 6.125 -6 4 C-4.356 3.278 -2.689 2.606 -1 2 C-0.67 1.34 -0.34 0.68 0 0 Z " fill="#B1B2B4" transform="translate(406,291)"/>
<path d="M0 0 C-1.79 0.977 -3.581 1.953 -5.371 2.93 C-7.166 3.914 -7.166 3.914 -8 6 C-7.34 6.33 -6.68 6.66 -6 7 C-7.65 7 -9.3 7 -11 7 C-11.33 5.68 -11.66 4.36 -12 3 C-10.379 2.303 -8.753 1.618 -7.125 0.938 C-6.22 0.555 -5.315 0.172 -4.383 -0.223 C-2 -1 -2 -1 0 0 Z " fill="#97989A" transform="translate(406,293)"/>
</svg>
