<?xml version="1.0" encoding="UTF-8"?>
<!-- Generator: visioncortex VTracer 0.6.4 -->
<svg version="1.1" xmlns="http://www.w3.org/2000/svg" width="512" height="512">
<path d="M0 0 C4.951 1.584 7.722 4.982 10.152 9.461 C10.802 10.759 11.438 12.064 12.062 13.375 C12.405 14.082 12.747 14.789 13.099 15.517 C18.844 27.55 22.975 39.378 26.122 52.321 C26.355 53.272 26.588 54.223 26.828 55.203 C27.031 56.056 27.234 56.908 27.442 57.786 C28.088 60.253 28.088 60.253 30.125 63 C30.125 63.99 30.125 64.98 30.125 66 C26.311 67.853 24.189 68.244 20.125 67 C14.814 62.558 11.262 56.394 8.125 50.312 C7.703 49.504 7.282 48.695 6.848 47.862 C0.459 35.17 -7.329 17.543 -5.875 3 C-4.22 0.057 -3.375 0 0 0 Z M1.125 18 C0.312 28.569 4.512 40.706 11.125 49 C13.72 49.871 13.72 49.871 16.125 50 C16.938 39.431 12.738 27.294 6.125 19 C3.53 18.129 3.53 18.129 1.125 18 Z " fill="#242C33" transform="translate(147.875,234)"/>
</svg>
