<?xml version="1.0" encoding="UTF-8"?>
<!-- Generator: visioncortex VTracer 0.6.4 -->
<svg version="1.1" xmlns="http://www.w3.org/2000/svg" width="512" height="512">
<path d="M0 0 C0.027 2.104 0.046 4.208 0.062 6.312 C0.074 7.484 0.086 8.656 0.098 9.863 C0 13 0 13 -1 16 C-4.375 16.625 -4.375 16.625 -8 17 C-10 15 -10 15 -10.195 11.961 C-10.172 10.778 -10.149 9.594 -10.125 8.375 C-10.107 7.186 -10.089 5.998 -10.07 4.773 C-10.047 3.858 -10.024 2.943 -10 2 C-8.709 1.664 -7.417 1.331 -6.125 1 C-5.406 0.814 -4.686 0.629 -3.945 0.438 C-2 0 -2 0 0 0 Z " fill="#27313A" transform="translate(282,357)"/>
</svg>
