<?xml version="1.0" encoding="UTF-8"?>
<!-- Generator: visioncortex VTracer 0.6.4 -->
<svg version="1.1" xmlns="http://www.w3.org/2000/svg" width="512" height="512">
<path d="M0 0 C6.27 0 12.54 0 19 0 C20.216 10.337 20.092 20.609 20 31 C16.854 31.029 13.708 31.047 10.562 31.062 C9.665 31.071 8.767 31.079 7.842 31.088 C6.561 31.093 6.561 31.093 5.254 31.098 C4.463 31.103 3.672 31.108 2.858 31.114 C1 31 1 31 0 30 C-0.088 27.781 -0.107 25.56 -0.098 23.34 C-0.096 22.675 -0.095 22.011 -0.093 21.326 C-0.088 19.197 -0.075 17.067 -0.062 14.938 C-0.057 13.497 -0.053 12.056 -0.049 10.615 C-0.039 7.077 -0.019 3.538 0 0 Z " fill="#FBAA06" transform="translate(376,277)"/>
</svg>
