<?xml version="1.0" encoding="UTF-8"?>
<!-- Generator: visioncortex VTracer 0.6.4 -->
<svg version="1.1" xmlns="http://www.w3.org/2000/svg" width="512" height="512">
<path d="M0 0 C1.865 0.245 1.865 0.245 4.316 0.77 C5.674 1.059 5.674 1.059 7.059 1.354 C8.03 1.567 9 1.78 10 2 C10.967 2.204 11.933 2.408 12.929 2.619 C15.942 3.27 18.939 3.974 21.938 4.688 C22.964 4.906 23.991 5.124 25.049 5.35 C26.523 5.708 26.523 5.708 28.027 6.074 C28.912 6.276 29.796 6.478 30.707 6.686 C34.08 8.619 34.908 11.45 36 15 C36.601 17.341 37.135 19.7 37.605 22.07 C37.799 23.036 37.799 23.036 37.996 24.022 C38.264 25.371 38.529 26.721 38.79 28.071 C39.188 30.129 39.6 32.183 40.014 34.238 C42.175 45.18 42.175 45.18 42 50 C32.819 49.624 23.633 49.23 14.5 48.188 C13.314 48.057 12.128 47.927 10.906 47.793 C7.376 46.83 6.841 46.095 5 43 C4.216 39.982 4.216 39.982 3.648 36.469 C3.331 34.539 3.331 34.539 3.008 32.57 C2.904 31.9 2.8 31.23 2.692 30.54 C2.38 28.532 2.051 26.528 1.719 24.523 C-0.872 8.438 -0.872 8.438 -1 1 C-0.67 0.67 -0.34 0.34 0 0 Z " fill="#22222E" transform="translate(384,183)"/>
<path d="M0 0 C7.345 1.425 14.658 2.956 21.938 4.688 C22.964 4.906 23.991 5.124 25.049 5.35 C32.277 7.108 32.277 7.108 34.349 9.665 C35.865 13.058 36.335 16.319 36 20 C34 17 34 17 33.227 14.441 C32.202 11.79 32.202 11.79 29.523 10.777 C28.484 10.5 27.445 10.223 26.375 9.938 C25.219 9.62 24.062 9.303 22.871 8.977 C21.594 8.654 20.316 8.332 19 8 C17.574 7.633 16.148 7.266 14.723 6.898 C10.822 5.904 6.912 4.948 3 4 C1.666 3.668 0.333 3.336 -1 3 C-0.67 2.01 -0.34 1.02 0 0 Z " fill="#0E0B18" transform="translate(384,183)"/>
</svg>
