<?xml version="1.0" encoding="UTF-8"?>
<!-- Generator: visioncortex VTracer 0.6.4 -->
<svg version="1.1" xmlns="http://www.w3.org/2000/svg" width="512" height="512">
<path d="M0 0 C1.056 0.014 2.113 0.027 3.201 0.041 C5.78 0.076 8.359 0.125 10.938 0.188 C10.938 0.848 10.938 1.507 10.938 2.188 C11.515 2.311 12.092 2.435 12.688 2.562 C14.961 3.194 16.863 4.076 18.938 5.188 C18.938 5.848 18.938 6.507 18.938 7.188 C20.02 7.528 20.02 7.528 21.125 7.875 C30.392 12.2 34.974 23.362 38.938 32.188 C38.938 32.847 38.938 33.507 38.938 34.188 C39.597 34.188 40.257 34.188 40.938 34.188 C42.267 36.173 43.377 38.243 44.523 40.34 C46.209 42.542 47.241 42.826 49.938 43.188 C52.484 52.298 50.737 60.669 46.938 69.188 C45.208 72.145 43.228 74.647 40.938 77.188 C40.363 77.854 39.788 78.52 39.195 79.207 C29.133 90.125 14.723 96.493 -0.051 97.285 C-12.227 96.89 -22.22 91.564 -30.992 83.418 C-42.158 71.388 -45.145 55.446 -45.191 39.595 C-44.684 30.085 -39.722 21.596 -34.062 14.188 C-33.464 13.301 -32.866 12.414 -32.25 11.5 C-23.204 1.937 -12.7 -0.312 0 0 Z M-21.934 34.504 C-25.634 40.022 -24.803 48.778 -24.062 55.188 C-22.076 61.671 -17.663 66.471 -12.062 70.188 C-6.295 72.11 -0.183 72.208 5.312 69.562 C10.506 64.864 14.47 60.381 15.273 53.172 C15.376 44.654 14.777 38.256 8.773 31.895 C3.686 27.213 0.296 24.782 -6.879 24.914 C-13.487 25.742 -17.847 29.504 -21.934 34.504 Z " fill="#293038" transform="translate(313.0625,281.8125)"/>
<path d="M0 0 C4.29 0 8.58 0 13 0 C13 0.66 13 1.32 13 2 C13.639 2.124 14.279 2.248 14.938 2.375 C15.958 2.684 15.958 2.684 17 3 C17.33 3.66 17.66 4.32 18 5 C9.09 3.02 9.09 3.02 0 1 C0 0.67 0 0.34 0 0 Z " fill="#1A1F25" transform="translate(311,282)"/>
<path d="M0 0 C3.465 1.485 3.465 1.485 7 3 C6.67 4.32 6.34 5.64 6 7 C1.2 4.538 1.2 4.538 0.188 1.812 C0.126 1.214 0.064 0.616 0 0 Z " fill="#12161A" transform="translate(356,322)"/>
</svg>
