<?xml version="1.0" encoding="UTF-8"?>
<!-- Generator: visioncortex VTracer 0.6.4 -->
<svg version="1.1" xmlns="http://www.w3.org/2000/svg" width="512" height="512">
<path d="M0 0 C1.17 2.34 1.166 3.834 1.188 6.438 C1.202 7.22 1.216 8.002 1.23 8.809 C1 11 1 11 -1 14 C-7.251 15.204 -13.395 15.061 -19.732 14.873 C-20.795 14.857 -20.795 14.857 -21.879 14.84 C-22.504 14.823 -23.128 14.806 -23.772 14.789 C-26.149 14.932 -26.149 14.932 -28.882 15.942 C-34.186 17.48 -39.627 17.725 -45.111 18.145 C-46.315 18.243 -47.519 18.341 -48.76 18.441 C-52.047 18.707 -55.334 18.966 -58.622 19.222 C-62.075 19.492 -65.528 19.77 -68.981 20.047 C-74.782 20.511 -80.583 20.969 -86.385 21.423 C-93.07 21.947 -99.755 22.479 -106.44 23.015 C-112.893 23.533 -119.347 24.046 -125.801 24.556 C-128.537 24.772 -131.272 24.99 -134.007 25.209 C-137.838 25.515 -141.67 25.815 -145.501 26.114 C-146.623 26.204 -147.745 26.295 -148.901 26.388 C-167.004 27.781 -167.004 27.781 -175 25 C-175 25.99 -175 26.98 -175 28 C-176.417 28.027 -177.833 28.047 -179.25 28.062 C-180.433 28.08 -180.433 28.08 -181.641 28.098 C-183.939 28.003 -185.831 27.763 -188 27 C-189.203 24.595 -189.101 23.05 -189.062 20.375 C-189.053 19.558 -189.044 18.74 -189.035 17.898 C-189.024 17.272 -189.012 16.645 -189 16 C-184.152 14.486 -179.665 13.62 -174.58 13.166 C-173.867 13.1 -173.154 13.034 -172.42 12.967 C-170.053 12.75 -167.685 12.543 -165.316 12.336 C-163.616 12.182 -161.915 12.027 -160.214 11.872 C-156.569 11.54 -152.923 11.211 -149.278 10.886 C-139.578 10.02 -129.881 9.131 -120.184 8.242 C-119.19 8.151 -118.196 8.06 -117.172 7.967 C-102.37 6.612 -87.575 5.187 -72.785 3.695 C-71.4 3.556 -71.4 3.556 -69.986 3.413 C-61.096 2.517 -52.207 1.612 -43.319 0.698 C-40.062 0.364 -36.804 0.033 -33.546 -0.298 C-31.333 -0.524 -29.12 -0.754 -26.907 -0.985 C-8.948 -2.826 -8.948 -2.826 0 0 Z " fill="#757576" transform="translate(374,130)"/>
</svg>
