<?xml version="1.0" encoding="UTF-8"?>
<!-- Generator: visioncortex VTracer 0.6.4 -->
<svg version="1.1" xmlns="http://www.w3.org/2000/svg" width="512" height="512">
<path d="M0 0 C1.576 0.061 1.576 0.061 3.184 0.124 C4.951 0.188 4.951 0.188 6.754 0.254 C8.03 0.307 9.306 0.359 10.621 0.413 C11.919 0.462 13.216 0.512 14.553 0.563 C17.247 0.666 19.94 0.772 22.633 0.88 C26.388 1.028 30.143 1.164 33.898 1.295 C36.118 1.376 38.339 1.457 40.559 1.538 C41.587 1.573 42.615 1.608 43.674 1.645 C48.404 1.826 52.967 2.093 57.621 3.038 C52.993 14.116 48.035 21.521 36.684 26.288 C27.732 29.573 18.256 32.151 9.059 28.475 C3.823 25.917 -0.288 22.129 -4.379 18.038 C-4.314 15.19 -4.187 12.378 -4.004 9.538 C-3.96 8.74 -3.916 7.942 -3.871 7.12 C-3.439 0.054 -3.439 0.054 0 0 Z " fill="#111317" transform="translate(196.37890625,318.96240234375)"/>
</svg>
