<?xml version="1.0" encoding="UTF-8"?>
<!-- Generator: visioncortex VTracer 0.6.4 -->
<svg version="1.1" xmlns="http://www.w3.org/2000/svg" width="512" height="512">
<path d="M0 0 C3.459 6.275 3.956 12.768 4.688 19.812 C4.817 20.937 4.947 22.062 5.08 23.221 C6.669 37.686 6.669 37.686 6 43 C3.28 45.72 1.579 45.38 -2.228 45.599 C-4.127 45.709 -4.127 45.709 -6.064 45.821 C-12.159 46.098 -18.251 46.292 -24.352 46.422 C-25.654 46.45 -26.956 46.478 -28.298 46.506 C-31.023 46.563 -33.747 46.616 -36.471 46.667 C-39.957 46.734 -43.442 46.819 -46.928 46.907 C-50.277 46.988 -53.627 47.047 -56.977 47.109 C-58.224 47.144 -59.472 47.178 -60.758 47.213 C-62.492 47.239 -62.492 47.239 -64.26 47.265 C-65.275 47.286 -66.29 47.307 -67.335 47.33 C-70.47 46.942 -71.812 46.263 -74 44 C-74.405 40.912 -74.561 38.187 -74.531 35.098 C-74.535 34.224 -74.539 33.349 -74.543 32.449 C-74.546 30.6 -74.538 28.752 -74.521 26.904 C-74.5 24.076 -74.521 21.251 -74.547 18.424 C-74.544 16.628 -74.539 14.831 -74.531 13.035 C-74.539 12.19 -74.547 11.345 -74.556 10.475 C-74.543 9.684 -74.531 8.893 -74.518 8.078 C-74.514 7.386 -74.511 6.693 -74.508 5.979 C-73.755 3.043 -72.365 1.844 -70 0 C-67.536 -0.595 -67.536 -0.595 -64.748 -0.729 C-63.699 -0.789 -62.65 -0.849 -61.57 -0.911 C-59.876 -0.978 -59.876 -0.978 -58.148 -1.047 C-56.979 -1.108 -55.81 -1.169 -54.605 -1.232 C-50.863 -1.422 -47.119 -1.586 -43.375 -1.75 C-40.876 -1.875 -38.378 -2.001 -35.879 -2.129 C-4.855 -3.671 -4.855 -3.671 0 0 Z " fill="#252434" transform="translate(348,185)"/>
<path d="M0 0 C0.495 0.99 0.495 0.99 1 2 C-0.176 2.05 -1.352 2.1 -2.563 2.152 C-26.064 3.159 -49.539 4.267 -73 6 C-72.625 3.562 -72.625 3.562 -72 1 C-69.543 -0.229 -67.721 -0.237 -64.975 -0.389 C-63.926 -0.449 -62.877 -0.509 -61.797 -0.571 C-60.657 -0.631 -59.518 -0.692 -58.344 -0.754 C-57.172 -0.819 -56 -0.884 -54.792 -0.951 C-52.304 -1.089 -49.816 -1.224 -47.327 -1.357 C-43.543 -1.56 -39.76 -1.771 -35.977 -1.982 C-33.557 -2.115 -31.138 -2.247 -28.719 -2.379 C-27.595 -2.441 -26.472 -2.504 -25.315 -2.568 C-5.431 -3.621 -5.431 -3.621 0 0 Z " fill="#0C0A14" transform="translate(348,185)"/>
</svg>
