<?xml version="1.0" encoding="UTF-8"?>
<!-- Generator: visioncortex VTracer 0.6.4 -->
<svg version="1.1" xmlns="http://www.w3.org/2000/svg" width="512" height="512">
<path d="M0 0 C2.938 2.172 5.439 4.403 7.875 7.125 C7.875 7.785 7.875 8.445 7.875 9.125 C8.535 9.125 9.195 9.125 9.875 9.125 C11.02 10.654 11.02 10.654 12.258 12.773 C12.703 13.531 13.147 14.289 13.605 15.07 C14.066 15.872 14.526 16.674 15 17.5 C15.468 18.294 15.936 19.088 16.418 19.906 C19.875 25.853 19.875 25.853 19.875 28.125 C21.195 28.785 22.515 29.445 23.875 30.125 C23.875 32.105 23.875 34.085 23.875 36.125 C25.009 36.269 26.144 36.414 27.312 36.562 C30.875 37.125 30.875 37.125 31.875 38.125 C32.437 49.296 28.795 57.833 21.984 66.543 C12.99 76.286 0.662 79.473 -12.222 80.252 C-21.19 80.446 -27.912 77.069 -34.316 70.961 C-34.913 70.355 -35.51 69.749 -36.125 69.125 C-36.67 68.602 -37.216 68.078 -37.777 67.539 C-44.837 60.174 -47.709 50.006 -49.125 40.125 C-49.294 39.276 -49.463 38.426 -49.637 37.551 C-51.261 27.346 -47.399 18.138 -41.812 9.688 C-30.822 -4.776 -16.198 -9.719 0 0 Z M-29.125 23.125 C-32.927 29.479 -33.165 36.689 -31.504 43.773 C-29.651 49.257 -27.229 52.943 -22.332 56.113 C-18.448 57.894 -15.253 58.324 -11.125 57.125 C-6.968 54.622 -3.989 51.673 -1.625 47.438 C-0.158 37.72 -0.46 29.563 -6.062 21.25 C-9.343 17.87 -12.256 16.802 -16.938 16.625 C-22.601 16.759 -25.701 18.674 -29.125 23.125 Z " fill="#282E36" transform="translate(161.125,282.875)"/>
<path d="M0 0 C0.66 0 1.32 0 2 0 C3.508 2.117 3.508 2.117 5.125 4.875 C5.664 5.78 6.203 6.685 6.758 7.617 C8 10 8 10 8 12 C4.339 10.78 4.077 9.874 2.312 6.562 C1.876 5.759 1.439 4.956 0.988 4.129 C0 2 0 2 0 0 Z " fill="#181C21" transform="translate(169,292)"/>
<path d="" fill="#030C17" transform="translate(0,0)"/>
<path d="" fill="#030E1D" transform="translate(0,0)"/>
</svg>
