<?xml version="1.0" encoding="UTF-8"?>
<!-- Generator: visioncortex VTracer 0.6.4 -->
<svg version="1.1" xmlns="http://www.w3.org/2000/svg" width="512" height="512">
<path d="M0 0 C2.31 0 4.62 0 7 0 C6.885 2.209 6.758 4.417 6.625 6.625 C6.555 7.855 6.486 9.085 6.414 10.352 C6.019 13.837 5.237 16.73 4 20 C2.02 19.67 0.04 19.34 -2 19 C-3.294 14.519 -2.613 11.185 -1.562 6.688 C-1.131 4.806 -1.131 4.806 -0.691 2.887 C-0.463 1.934 -0.235 0.981 0 0 Z " fill="#242D35" transform="translate(387,188)"/>
<path d="M0 0 C2.31 0 4.62 0 7 0 C7 0.99 7 1.98 7 3 C4.69 3 2.38 3 0 3 C0 2.01 0 1.02 0 0 Z " fill="#131518" transform="translate(387,188)"/>
</svg>
