<?xml version="1.0" encoding="UTF-8"?>
<!-- Generator: visioncortex VTracer 0.6.4 -->
<svg version="1.1" xmlns="http://www.w3.org/2000/svg" width="512" height="512">
<path d="M0 0 C1.263 -0.006 1.263 -0.006 2.552 -0.012 C5.366 -0.022 8.18 -0.018 10.994 -0.014 C13.015 -0.018 15.036 -0.023 17.056 -0.029 C22.54 -0.043 28.023 -0.043 33.506 -0.041 C38.084 -0.04 42.662 -0.045 47.24 -0.049 C58.038 -0.061 68.836 -0.061 79.634 -0.055 C90.776 -0.049 101.917 -0.061 113.058 -0.083 C122.625 -0.1 132.191 -0.106 141.757 -0.103 C147.47 -0.101 153.184 -0.104 158.897 -0.118 C164.268 -0.13 169.639 -0.128 175.011 -0.115 C176.982 -0.113 178.953 -0.116 180.924 -0.124 C183.615 -0.134 186.306 -0.126 188.997 -0.114 C189.777 -0.121 190.557 -0.128 191.36 -0.136 C197.162 -0.078 201.353 1.116 205.498 5.261 C206.234 10.493 206.114 14.984 203.811 19.761 C200.36 23.492 197.539 25.385 192.427 25.659 C190.786 25.686 189.146 25.696 187.505 25.693 C186.148 25.708 186.148 25.708 184.763 25.724 C181.741 25.754 178.72 25.763 175.698 25.772 C173.544 25.789 171.391 25.808 169.238 25.827 C163.428 25.875 157.617 25.905 151.806 25.931 C146.982 25.954 142.157 25.988 137.333 26.022 C121.388 26.133 105.443 26.203 89.498 26.261 C87.213 26.269 84.928 26.278 82.643 26.287 C69.23 26.337 55.816 26.37 42.402 26.383 C39.572 26.386 36.742 26.39 33.911 26.394 C29.479 26.4 25.046 26.4 20.614 26.395 C19.012 26.394 17.409 26.395 15.807 26.397 C-7.013 26.424 -7.013 26.424 -13.502 24.261 C-13.502 23.601 -13.502 22.941 -13.502 22.261 C-14.162 22.261 -14.822 22.261 -15.502 22.261 C-17.924 16.609 -19.221 12.422 -18.502 6.261 C-14.203 -0.021 -6.994 -0.034 0 0 Z " fill="#717374" transform="translate(103.501708984375,205.7393035888672)"/>
</svg>
