<?xml version="1.0" encoding="UTF-8"?>
<!-- Generator: visioncortex VTracer 0.6.4 -->
<svg version="1.1" xmlns="http://www.w3.org/2000/svg" width="512" height="512">
<path d="M0 0 C0.738 -0.005 1.477 -0.011 2.238 -0.016 C4.68 -0.029 7.121 -0.02 9.562 -0.01 C11.257 -0.012 12.952 -0.015 14.647 -0.019 C18.199 -0.023 21.75 -0.017 25.302 -0.003 C29.861 0.014 34.419 0.004 38.978 -0.014 C42.477 -0.024 45.977 -0.021 49.476 -0.013 C51.157 -0.011 52.839 -0.014 54.52 -0.021 C56.866 -0.028 59.212 -0.017 61.559 0 C62.607 -0.009 62.607 -0.009 63.676 -0.018 C65.609 0.007 65.609 0.007 68.715 0.388 C73.74 7.926 71.82 19.628 71.715 28.388 C60.807 33.842 40.642 30.539 28.745 30.519 C25.062 30.513 21.379 30.519 17.695 30.525 C15.334 30.524 12.974 30.523 10.613 30.521 C8.975 30.524 8.975 30.524 7.305 30.527 C-7.191 30.483 -7.191 30.483 -10.285 27.388 C-10.742 23.428 -10.609 19.434 -10.598 15.451 C-10.614 14.34 -10.63 13.23 -10.647 12.085 C-10.647 11.021 -10.648 9.957 -10.649 8.861 C-10.652 7.884 -10.655 6.907 -10.658 5.9 C-10.285 3.388 -10.285 3.388 -9.217 1.755 C-6.321 -0.294 -3.42 -0.03 0 0 Z " fill="#212333" transform="translate(117.285400390625,265.61181640625)"/>
<path d="M0 0 C0.995 0.002 0.995 0.002 2.009 0.004 C4.129 0.01 6.248 0.022 8.367 0.035 C9.803 0.04 11.24 0.045 12.676 0.049 C16.198 0.06 19.72 0.077 23.242 0.098 C23.242 0.428 23.242 0.758 23.242 1.098 C22.415 1.117 21.588 1.137 20.735 1.158 C16.987 1.253 13.24 1.363 9.492 1.473 C8.19 1.504 6.888 1.535 5.547 1.566 C4.296 1.605 3.046 1.644 1.758 1.684 C0.606 1.715 -0.546 1.746 -1.733 1.779 C-4.643 2.086 -6.375 2.426 -8.758 4.098 C-9.088 5.088 -9.418 6.078 -9.758 7.098 C-9.383 4.16 -9.383 4.16 -8.758 1.098 C-5.836 -0.363 -3.259 -0.014 0 0 Z " fill="#10111C" transform="translate(116.7578125,265.90234375)"/>
<path d="M0 0 C2.97 0 5.94 0 9 0 C7.515 1.485 7.515 1.485 6 3 C4.02 2.34 2.04 1.68 0 1 C0 0.67 0 0.34 0 0 Z " fill="#14141F" transform="translate(144,266)"/>
</svg>
