<?xml version="1.0" encoding="UTF-8"?>
<!-- Generator: visioncortex VTracer 0.6.4 -->
<svg version="1.1" xmlns="http://www.w3.org/2000/svg" width="512" height="512">
<path d="M0 0 C1.011 -0.021 2.023 -0.041 3.064 -0.062 C4.04 -0.068 5.015 -0.073 6.02 -0.078 C6.914 -0.087 7.808 -0.097 8.73 -0.106 C11.637 0.315 13.01 1.329 15.188 3.25 C14.932 5.593 14.595 7.928 14.188 10.25 C10.426 12.131 5.889 11.478 1.75 11.5 C0.299 11.531 0.299 11.531 -1.182 11.562 C-2.575 11.57 -2.575 11.57 -3.996 11.578 C-5.273 11.592 -5.273 11.592 -6.576 11.606 C-8.812 11.25 -8.812 11.25 -10.598 9.956 C-12.57 7.186 -12.055 4.529 -11.812 1.25 C-9.398 -1.164 -3.241 0.016 0 0 Z " fill="#00A5DF" transform="translate(118.8125,303.75)"/>
</svg>
