<?xml version="1.0" encoding="UTF-8"?>
<!-- Generator: visioncortex VTracer 0.6.4 -->
<svg version="1.1" xmlns="http://www.w3.org/2000/svg" width="512" height="512">
<path d="M0 0 C1.305 -0.009 2.61 -0.019 3.954 -0.028 C5.376 -0.018 6.797 -0.007 8.219 0.006 C9.681 0.005 11.143 0.004 12.605 0.001 C15.668 -0 18.73 0.012 21.792 0.035 C25.711 0.064 29.629 0.061 33.547 0.048 C36.566 0.041 39.585 0.049 42.604 0.061 C44.048 0.066 45.493 0.066 46.937 0.062 C48.96 0.059 50.982 0.078 53.004 0.098 C54.728 0.106 54.728 0.106 56.487 0.114 C59.914 0.545 61.824 1.431 64.567 3.502 C65.166 5.599 65.166 5.599 65.125 7.994 C65.118 8.864 65.111 9.734 65.104 10.631 C65.054 11.99 65.054 11.99 65.004 13.377 C64.995 14.724 64.995 14.724 64.987 16.099 C64.814 25.462 64.814 25.462 62.567 28.502 C55.925 30.703 49.643 30.779 42.692 30.732 C41.006 30.731 41.006 30.731 39.286 30.731 C36.919 30.728 34.552 30.72 32.186 30.708 C28.578 30.689 24.971 30.687 21.364 30.687 C19.056 30.682 16.749 30.677 14.442 30.67 C13.371 30.669 12.3 30.667 11.196 30.666 C-4.177 30.57 -4.177 30.57 -7.359 27.865 C-8.75 24.806 -9.198 22.023 -9.621 18.689 C-9.779 17.507 -9.938 16.325 -10.101 15.107 C-11.007 5.273 -11.007 5.273 -8.817 2.327 C-5.708 -0.054 -3.892 0.001 0 0 Z " fill="#1E1F2E" transform="translate(229.433349609375,265.498291015625)"/>
<path d="M0 0 C0.966 -0.001 0.966 -0.001 1.952 -0.002 C4.074 0.001 6.194 0.032 8.315 0.063 C9.789 0.071 11.263 0.077 12.737 0.081 C16.611 0.096 20.484 0.135 24.357 0.179 C28.312 0.22 32.267 0.239 36.222 0.259 C43.977 0.302 51.732 0.37 59.487 0.454 C59.157 1.114 58.827 1.774 58.487 2.454 C57.523 2.449 56.559 2.444 55.566 2.438 C52.001 2.42 48.435 2.409 44.87 2.399 C43.325 2.394 41.78 2.387 40.235 2.379 C38.018 2.367 35.802 2.361 33.585 2.356 C32.89 2.351 32.195 2.346 31.48 2.341 C29.815 2.341 28.151 2.392 26.487 2.454 C26.157 2.784 25.827 3.114 25.487 3.454 C23.23 3.493 20.971 3.466 18.714 3.411 C17.318 3.389 15.922 3.367 14.526 3.347 C12.318 3.31 10.111 3.267 7.903 3.207 C5.778 3.153 3.653 3.124 1.526 3.099 C0.25 3.071 -1.027 3.044 -2.342 3.016 C-5.575 3.136 -5.575 3.136 -7.378 5.336 C-9.004 8.366 -9.004 8.366 -10.513 11.454 C-11 5.122 -11 5.122 -8.904 2.248 C-5.764 -0.108 -3.904 -0.03 0 0 Z " fill="#0D0E19" transform="translate(229.5126953125,265.5458984375)"/>
</svg>
