<?xml version="1.0" encoding="UTF-8"?>
<!-- Generator: visioncortex VTracer 0.6.4 -->
<svg version="1.1" xmlns="http://www.w3.org/2000/svg" width="512" height="512">
<path d="M0 0 C15.584 -0.514 32.429 3.546 44.945 13.117 C48.644 16.678 51.949 20.338 53.945 25.117 C53.945 26.107 53.945 27.097 53.945 28.117 C51.777 27.611 49.946 27.117 47.945 26.117 C47.998 27.529 47.998 27.529 48.051 28.969 C48.078 30.214 48.105 31.459 48.133 32.742 C48.185 34.587 48.185 34.587 48.238 36.469 C47.83 41.549 46.04 44.757 42.883 48.68 C31.313 58.28 17.38 59.326 2.945 58.117 C-9.778 56.362 -21.541 51.038 -29.75 41.012 C-32.187 37.472 -33.301 34.662 -33.68 30.367 C-33.754 29.568 -33.829 28.769 -33.906 27.945 C-33.955 27.342 -34.004 26.739 -34.055 26.117 C-34.715 27.437 -35.375 28.757 -36.055 30.117 C-37.705 30.117 -39.355 30.117 -41.055 30.117 C-41.871 23.91 -39.57 19.084 -36.055 14.117 C-26.25 4.497 -13.364 0.762 0 0 Z M-9.43 28.43 C-11.467 31.799 -11.83 33.242 -11.055 37.117 C-8.523 41.312 -5.073 44.988 -0.375 46.684 C7.681 48.189 15.808 48.402 22.945 44.117 C25.361 41.949 26.782 40.479 27.176 37.191 C26.965 33.043 26.221 31.413 23.32 28.305 C22.219 27.54 21.094 26.809 19.945 26.117 C18.955 25.519 17.965 24.921 16.945 24.305 C8.213 20.886 -2.65 21.828 -9.43 28.43 Z " fill="#272F37" transform="translate(154.0546875,317.8828125)"/>
<path d="M0 0 C15.584 -0.514 32.429 3.546 44.945 13.117 C48.644 16.678 51.949 20.338 53.945 25.117 C53.945 26.107 53.945 27.097 53.945 28.117 C50.984 27.504 49.565 26.863 46.945 25.117 C46.494 24.326 46.043 23.534 45.578 22.719 C41.099 15.583 31.734 12.288 23.945 10.117 C23.945 9.457 23.945 8.797 23.945 8.117 C22.946 8.129 21.947 8.14 20.918 8.152 C19.628 8.161 18.337 8.17 17.008 8.18 C15.72 8.191 14.432 8.203 13.105 8.215 C9.945 8.117 9.945 8.117 8.945 7.117 C-0.451 6.216 -8.265 7.952 -17.055 11.117 C-18.159 11.452 -19.264 11.788 -20.402 12.133 C-21.278 12.458 -22.153 12.783 -23.055 13.117 C-23.409 14.445 -23.74 15.779 -24.055 17.117 C-26.022 18.498 -28.023 19.832 -30.055 21.117 C-30.715 22.107 -31.375 23.097 -32.055 24.117 C-32.715 24.117 -33.375 24.117 -34.055 24.117 C-34.715 26.097 -35.375 28.077 -36.055 30.117 C-37.705 30.117 -39.355 30.117 -41.055 30.117 C-41.871 23.91 -39.57 19.084 -36.055 14.117 C-26.25 4.497 -13.364 0.762 0 0 Z " fill="#020204" transform="translate(154.0546875,317.8828125)"/>
<path d="M0 0 C4.29 0 8.58 0 13 0 C13.33 0.66 13.66 1.32 14 2 C10.879 3.003 9.117 2.917 6 2 C4.002 1.654 2.002 1.319 0 1 C0 0.67 0 0.34 0 0 Z " fill="#191E24" transform="translate(150,324)"/>
</svg>
