<?xml version="1.0" encoding="UTF-8"?>
<!-- Generator: visioncortex VTracer 0.6.4 -->
<svg version="1.1" xmlns="http://www.w3.org/2000/svg" width="512" height="512">
<path d="M0 0 C9.16 8.479 9.16 8.479 11 14 C11.04 16.333 11.044 18.667 11 21 C9.02 19.68 7.04 18.36 5 17 C4.902 17.652 4.804 18.305 4.703 18.977 C2.979 29.053 -1.754 35.049 -10 41 C-19.668 46.104 -29.502 48.389 -40.375 48.312 C-41.205 48.308 -42.035 48.303 -42.89 48.298 C-54.823 48.07 -66.259 44.492 -75 36 C-79.458 30.096 -79.472 25.257 -79 18 C-81.31 18.33 -83.62 18.66 -86 19 C-85.865 13.585 -83.695 10.798 -80.133 7.012 C-58.225 -13.652 -25.144 -15.556 0 0 Z M-56.5 19.875 C-58.197 23.41 -58.723 25.144 -58 29 C-55.196 33.166 -52.918 35.798 -48 37 C-39.887 38.469 -33.002 38.19 -25.688 34.188 C-21.92 31.121 -19.32 28.918 -18.5 24 C-19.139 20.166 -20.183 18.673 -23 16 C-28.038 13.419 -32.244 12.477 -37.938 12.562 C-38.64 12.57 -39.342 12.578 -40.065 12.585 C-47.447 12.82 -51.691 14.345 -56.5 19.875 Z " fill="#272E38" transform="translate(378,328)"/>
<path d="M0 0 C9.16 8.479 9.16 8.479 11 14 C11.04 16.333 11.044 18.667 11 21 C10.312 20.493 10.312 20.493 9.609 19.977 C8.996 19.531 8.382 19.085 7.75 18.625 C7.147 18.184 6.543 17.743 5.922 17.289 C4.034 15.95 4.034 15.95 1.93 15.043 C-0.266 13.856 -1.173 12.696 -2.625 10.688 C-8.934 3.002 -19.489 0.146 -29 -1 C-31.678 -1.09 -34.323 -1.14 -37 -1.125 C-38.009 -1.131 -38.009 -1.131 -39.039 -1.137 C-47.592 -1.12 -54.271 0.584 -62 4 C-62.74 4.322 -63.48 4.645 -64.242 4.977 C-68.68 7.037 -71.604 9.404 -75 13 C-75.66 13 -76.32 13 -77 13 C-77.186 13.619 -77.371 14.238 -77.562 14.875 C-79.714 18.056 -82.375 18.195 -86 19 C-85.865 13.585 -83.695 10.798 -80.133 7.012 C-58.225 -13.652 -25.144 -15.556 0 0 Z " fill="#020304" transform="translate(378,328)"/>
<path d="M0 0 C8.273 3.987 8.273 3.987 9.812 8.25 C9.874 8.827 9.936 9.405 10 10 C6.548 8.574 4.899 6.903 2.75 3.875 C1.969 2.788 1.969 2.788 1.172 1.68 C0.785 1.125 0.398 0.571 0 0 Z " fill="#11151A" transform="translate(372,334)"/>
</svg>
