<?xml version="1.0" encoding="UTF-8"?>
<!-- Generator: visioncortex VTracer 0.6.4 -->
<svg version="1.1" xmlns="http://www.w3.org/2000/svg" width="512" height="512">
<path d="M0 0 C2.97 0.99 5.94 1.98 9 3 C6.797 15.067 6.797 15.067 5 18 C2.562 18.938 2.562 18.938 0 19 C-0.99 18.34 -1.98 17.68 -3 17 C-2.221 5.478 -2.221 5.478 0 0 Z " fill="#25313D" transform="translate(404,275)"/>
<path d="M0 0 C1.98 0.66 3.96 1.32 6 2 C6 2.99 6 3.98 6 5 C3.562 4.188 3.562 4.188 1 3 C0.67 2.01 0.34 1.02 0 0 Z " fill="#1C1E20" transform="translate(404,275)"/>
</svg>
