<?xml version="1.0" encoding="UTF-8"?>
<!-- Generator: visioncortex VTracer 0.6.4 -->
<svg version="1.1" xmlns="http://www.w3.org/2000/svg" width="512" height="512">
<path d="M0 0 C0.33 0 0.66 0 1 0 C1.086 0.651 1.171 1.301 1.26 1.972 C1.649 4.919 2.043 7.866 2.438 10.812 C2.572 11.837 2.707 12.861 2.846 13.916 C2.978 14.899 3.11 15.882 3.246 16.895 C3.427 18.253 3.427 18.253 3.611 19.64 C3.96 22.142 3.96 22.142 5 25 C5.269 27.914 5.494 30.816 5.684 33.734 C5.808 35.525 5.932 37.315 6.057 39.105 C6.247 41.909 6.435 44.712 6.622 47.516 C7.465 60.365 7.465 60.365 8.969 73.148 C10.615 84.659 11.232 96.284 12.062 107.875 C12.323 111.462 12.584 115.049 12.847 118.636 C13.01 120.852 13.17 123.068 13.328 125.284 C13.759 131.209 14.303 137.1 15 143 C17.64 143.33 20.28 143.66 23 144 C23 144.33 23 144.66 23 145 C22.175 145.124 21.35 145.248 20.5 145.375 C6.18 147.932 -7.242 153.859 -17 165 C-19.206 168.56 -19.789 171.76 -21 176 C-48.06 176 -75.12 176 -103 176 C-104.32 172.37 -105.64 168.74 -107 165 C-113.806 154.636 -126.661 149.214 -138.484 146.453 C-142.652 145.702 -146.771 145.221 -151 145 C-151.715 144.959 -152.431 144.918 -153.168 144.875 C-166.611 144.483 -180.678 147.607 -191.312 156.203 C-196.269 161.481 -198.398 167.926 -199 175 C-200 176 -200 176 -202.066 176.098 C-204.378 176.065 -206.689 176.033 -209 176 C-210.485 171.545 -210.485 171.545 -212 167 C-208 165 -208 165 -204 165 C-204.99 159.72 -205.98 154.44 -207 149 C-214.59 149 -222.18 149 -230 149 C-230.764 141.071 -231.111 133.36 -230.871 125.402 C-230.842 124.337 -230.812 123.271 -230.782 122.173 C-230.68 118.761 -230.561 115.349 -230.438 111.938 C-230.397 110.779 -230.356 109.621 -230.315 108.427 C-228.877 69.754 -228.877 69.754 -222 56 C-217.05 56.33 -212.1 56.66 -207 57 C-207 60.3 -207 63.6 -207 67 C-203.7 67 -200.4 67 -197 67 C-197 64.03 -197 61.06 -197 58 C-192.332 57.253 -187.856 56.873 -183.131 56.866 C-182.477 56.864 -181.822 56.862 -181.148 56.859 C-178.975 56.853 -176.802 56.854 -174.629 56.855 C-173.063 56.852 -171.497 56.848 -169.931 56.845 C-165.691 56.836 -161.452 56.833 -157.212 56.833 C-154.561 56.832 -151.91 56.83 -149.259 56.827 C-140.005 56.818 -130.751 56.814 -121.497 56.815 C-112.879 56.815 -104.262 56.805 -95.644 56.789 C-88.236 56.776 -80.827 56.771 -73.419 56.771 C-68.999 56.771 -64.578 56.769 -60.158 56.758 C-56.001 56.748 -51.844 56.748 -47.688 56.755 C-46.165 56.757 -44.643 56.754 -43.12 56.748 C-41.036 56.74 -38.953 56.745 -36.869 56.753 C-35.122 56.752 -35.122 56.752 -33.341 56.751 C-29.603 57.03 -26.56 57.859 -23 59 C-22.67 58.34 -22.34 57.68 -22 57 C-18.744 56.428 -15.487 56.104 -12.199 55.758 C-8.555 54.895 -7.272 53.925 -5 51 C-3.997 47.992 -3.697 45.462 -3.438 42.312 C-3.354 41.319 -3.27 40.325 -3.184 39.301 C-3.123 38.542 -3.062 37.782 -3 37 C-2.67 37 -2.34 37 -2 37 C-1.34 24.79 -0.68 12.58 0 0 Z M-203.932 93.367 C-205.494 95.755 -205.372 97.639 -205.363 100.473 C-205.363 101.537 -205.362 102.601 -205.361 103.697 C-205.345 104.808 -205.329 105.918 -205.312 107.062 C-205.316 108.177 -205.319 109.291 -205.322 110.439 C-205.695 116.286 -205.695 116.286 -203 121 C-196.763 122.335 -190.455 122.145 -184.102 122.133 C-182.953 122.134 -181.805 122.135 -180.622 122.136 C-178.193 122.136 -175.764 122.135 -173.334 122.13 C-169.672 122.125 -166.01 122.13 -162.348 122.137 C-142.211 123.58 -142.211 123.58 -123 120 C-121.935 105.389 -121.935 105.389 -126 92 C-128.467 91.697 -130.686 91.59 -133.156 91.612 C-133.893 91.607 -134.629 91.601 -135.389 91.596 C-137.831 91.583 -140.273 91.591 -142.715 91.602 C-144.409 91.6 -146.103 91.597 -147.797 91.593 C-151.35 91.588 -154.903 91.595 -158.457 91.609 C-163.015 91.626 -167.572 91.616 -172.13 91.598 C-175.629 91.587 -179.128 91.591 -182.627 91.599 C-184.308 91.601 -185.989 91.598 -187.669 91.591 C-190.018 91.584 -192.366 91.595 -194.715 91.612 C-195.76 91.603 -195.76 91.603 -196.826 91.593 C-199.681 91.631 -201.563 91.691 -203.932 93.367 Z M-93 96 C-93.342 99.471 -93.342 99.471 -92.875 103.25 C-92.814 103.917 -92.752 104.585 -92.689 105.272 C-92.077 113.846 -92.077 113.846 -88 121 C-81.403 122.198 -74.814 122.161 -68.125 122.168 C-67.001 122.171 -65.877 122.175 -64.719 122.178 C-62.353 122.183 -59.986 122.185 -57.619 122.185 C-54.012 122.187 -50.404 122.206 -46.797 122.225 C-44.49 122.228 -42.182 122.23 -39.875 122.23 C-38.804 122.238 -37.733 122.245 -36.629 122.252 C-30.746 122.234 -25.605 121.858 -20 120 C-16.944 115.865 -17.595 109.847 -17.562 104.875 C-17.513 103.516 -17.513 103.516 -17.463 102.129 C-17.456 101.259 -17.449 100.389 -17.441 99.492 C-17.428 98.702 -17.414 97.911 -17.401 97.097 C-17.832 94.792 -17.832 94.792 -20.127 93.394 C-23.515 91.75 -25.807 91.614 -29.563 91.596 C-30.871 91.583 -32.179 91.571 -33.527 91.558 C-34.946 91.56 -36.366 91.563 -37.785 91.566 C-39.248 91.562 -40.711 91.557 -42.174 91.551 C-45.235 91.542 -48.295 91.544 -51.356 91.554 C-55.276 91.565 -59.195 91.545 -63.115 91.516 C-66.133 91.498 -69.152 91.498 -72.171 91.504 C-73.616 91.504 -75.062 91.498 -76.507 91.485 C-78.527 91.47 -80.547 91.484 -82.567 91.498 C-83.715 91.498 -84.864 91.499 -86.047 91.499 C-89.649 92.11 -90.847 93.089 -93 96 Z M-205 131 C-205.502 135.607 -205.502 135.607 -203.783 139.702 C-201.472 141.384 -200.062 141.387 -197.219 141.398 C-196.294 141.402 -195.37 141.406 -194.418 141.41 C-193.455 141.399 -192.492 141.387 -191.5 141.375 C-190.056 141.392 -190.056 141.392 -188.582 141.41 C-187.658 141.406 -186.734 141.402 -185.781 141.398 C-184.514 141.393 -184.514 141.393 -183.221 141.388 C-180.519 140.916 -179.633 140.169 -178 138 C-177.417 135.5 -177.417 135.5 -178 133 C-180.988 130.132 -183.086 129.629 -187.168 129.672 C-188.143 129.677 -189.118 129.682 -190.123 129.688 C-191.134 129.708 -192.146 129.729 -193.188 129.75 C-194.722 129.758 -194.722 129.758 -196.287 129.766 C-200.988 129.382 -200.988 129.382 -205 131 Z M-86 130 C-86.81 132.915 -87.218 134.461 -86.062 137.312 C-85.712 137.869 -85.361 138.426 -85 139 C-80.888 139.025 -76.777 139.043 -72.665 139.055 C-71.265 139.06 -69.865 139.067 -68.466 139.075 C-66.458 139.088 -64.449 139.093 -62.441 139.098 C-61.232 139.103 -60.022 139.108 -58.776 139.114 C-56.092 139.318 -56.092 139.318 -55 138 C-54.833 134.5 -54.833 134.5 -55 131 C-56.103 129.671 -56.103 129.671 -58.867 129.886 C-60.119 129.892 -61.371 129.897 -62.66 129.902 C-63.325 129.904 -63.989 129.905 -64.674 129.907 C-66.803 129.912 -68.933 129.925 -71.062 129.938 C-72.503 129.943 -73.944 129.947 -75.385 129.951 C-78.923 129.962 -82.462 129.979 -86 130 Z " fill="#0059B6" transform="translate(312,174)"/>
<path d="M0 0 C3.052 -0.262 4.945 -0.022 7.812 1.125 C10 3 10 3 10.312 6.188 C10.158 7.58 10.158 7.58 10 9 C6.7 9 3.4 9 0 9 C0 6.03 0 3.06 0 0 Z " fill="#40454C" transform="translate(282,232)"/>
<path d="M0 0 C0.33 0 0.66 0 1 0 C1.061 0.71 1.121 1.421 1.184 2.152 C1.267 3.071 1.351 3.991 1.438 4.938 C1.519 5.854 1.6 6.771 1.684 7.715 C1.76 9.962 1.76 9.962 3 11 C3.087 12.489 3.107 13.981 3.098 15.473 C3.094 16.372 3.091 17.271 3.088 18.197 C3.08 19.143 3.071 20.088 3.062 21.062 C3.058 22.012 3.053 22.961 3.049 23.939 C3.037 26.293 3.021 28.646 3 31 C2.67 31 2.34 31 2 31 C0.466 20.579 -0.273 10.539 0 0 Z " fill="#0B3B7D" transform="translate(315,201)"/>
<path d="M0 0 C0.33 0 0.66 0 1 0 C3.044 8.778 3.218 17.039 3 26 C2.67 26 2.34 26 2 26 C0.396 17.25 -0.262 8.893 0 0 Z " fill="#094188" transform="translate(318,235)"/>
<path d="M0 0 C4.62 0 9.24 0 14 0 C14 0.33 14 0.66 14 1 C9.38 1 4.76 1 0 1 C0 0.67 0 0.34 0 0 Z " fill="#004390" transform="translate(336,317)"/>
<path d="M0 0 C0.33 0 0.66 0 1 0 C1.33 1.98 1.66 3.96 2 6 C1.34 6 0.68 6 0 6 C0 4.02 0 2.04 0 0 Z " fill="#013777" transform="translate(389,344)"/>
<path d="M0 0 C2.31 0 4.62 0 7 0 C7 0.33 7 0.66 7 1 C4.69 1 2.38 1 0 1 C0 0.67 0 0.34 0 0 Z " fill="#1D5FAC" transform="translate(292,151)"/>
<path d="M0 0 C1.65 0 3.3 0 5 0 C5 0.33 5 0.66 5 1 C3.35 1 1.7 1 0 1 C0 0.67 0 0.34 0 0 Z " fill="#013470" transform="translate(351,318)"/>
<path d="M0 0 C4 1 4 1 4 1 Z " fill="#01326C" transform="translate(356,319)"/>
<path d="M0 0 C1 4 1 4 1 4 Z " fill="#0452AE" transform="translate(392,202)"/>
<path d="M0 0 C1 4 1 4 1 4 Z " fill="#1256A2" transform="translate(278,152)"/>
<path d="M0 0 C3 1 3 1 3 1 Z " fill="#AB8F59" transform="translate(420,338)"/>
<path d="M0 0 C3 1 3 1 3 1 Z " fill="#A88C60" transform="translate(415,338)"/>
<path d="M0 0 C0.66 0 1.32 0 2 0 C1.67 0.66 1.34 1.32 1 2 C0.67 1.34 0.34 0.68 0 0 Z " fill="#00295A" transform="translate(383,333)"/>
<path d="" fill="#005EBB" transform="translate(0,0)"/>
<path d="" fill="#004EB6" transform="translate(0,0)"/>
<path d="" fill="#035ABA" transform="translate(0,0)"/>
<path d="M0 0 C3 1 3 1 3 1 Z " fill="#3065A0" transform="translate(288,151)"/>
<path d="" fill="#002857" transform="translate(0,0)"/>
<path d="M0 0 C2 1 2 1 2 1 Z " fill="#E79617" transform="translate(97,339)"/>
<path d="M0 0 C2 1 2 1 2 1 Z " fill="#4374A8" transform="translate(404,338)"/>
<path d="" fill="#A5926B" transform="translate(0,0)"/>
<path d="M0 0 C2 1 2 1 2 1 Z " fill="#014492" transform="translate(369,323)"/>
<path d="" fill="#908A7C" transform="translate(0,0)"/>
<path d="M0 0 C2 1 2 1 2 1 Z " fill="#00295A" transform="translate(366,322)"/>
<path d="M0 0 C2 1 2 1 2 1 Z " fill="#00387A" transform="translate(364,321)"/>
<path d="M0 0 C2 1 2 1 2 1 Z " fill="#003778" transform="translate(361,320)"/>
<path d="" fill="#064EA4" transform="translate(0,0)"/>
<path d="" fill="#005DBA" transform="translate(0,0)"/>
<path d="" fill="#0B57AC" transform="translate(0,0)"/>
<path d="" fill="#2566AE" transform="translate(0,0)"/>
<path d="" fill="#012F62" transform="translate(0,0)"/>
<path d="" fill="#013677" transform="translate(0,0)"/>
<path d="" fill="#B29559" transform="translate(0,0)"/>
<path d="" fill="#002656" transform="translate(0,0)"/>
<path d="" fill="#011630" transform="translate(0,0)"/>
<path d="" fill="#001B3C" transform="translate(0,0)"/>
<path d="" fill="#002C5E" transform="translate(0,0)"/>
<path d="" fill="#00418A" transform="translate(0,0)"/>
<path d="" fill="#002855" transform="translate(0,0)"/>
<path d="" fill="#003E84" transform="translate(0,0)"/>
<path d="" fill="#002B5C" transform="translate(0,0)"/>
<path d="" fill="#01316C" transform="translate(0,0)"/>
<path d="" fill="#4582C7" transform="translate(0,0)"/>
<path d="" fill="#2160A0" transform="translate(0,0)"/>
<path d="" fill="#0051AE" transform="translate(0,0)"/>
<path d="" fill="#094DA0" transform="translate(0,0)"/>
<path d="" fill="#0C4B95" transform="translate(0,0)"/>
<path d="" fill="#3C608C" transform="translate(0,0)"/>
<path d="" fill="#1C5DAC" transform="translate(0,0)"/>
<path d="" fill="#0A59B8" transform="translate(0,0)"/>
<path d="" fill="#3666A2" transform="translate(0,0)"/>
<path d="" fill="#4272AB" transform="translate(0,0)"/>
<path d="" fill="#004DAB" transform="translate(0,0)"/>
<path d="" fill="#2C63A7" transform="translate(0,0)"/>
<path d="" fill="#2A62A8" transform="translate(0,0)"/>
<path d="" fill="#115AB4" transform="translate(0,0)"/>
<path d="" fill="#1D5EAE" transform="translate(0,0)"/>
<path d="" fill="#0049A3" transform="translate(0,0)"/>
<path d="" fill="#0658B9" transform="translate(0,0)"/>
<path d="" fill="#0E5BB5" transform="translate(0,0)"/>
<path d="" fill="#0859B9" transform="translate(0,0)"/>
<path d="" fill="#084692" transform="translate(0,0)"/>
<path d="" fill="#195DAD" transform="translate(0,0)"/>
<path d="" fill="#0054B8" transform="translate(0,0)"/>
<path d="" fill="#0056BA" transform="translate(0,0)"/>
<path d="" fill="#0058C0" transform="translate(0,0)"/>
<path d="" fill="#005BB6" transform="translate(0,0)"/>
<path d="" fill="#005AB5" transform="translate(0,0)"/>
<path d="" fill="#005CB8" transform="translate(0,0)"/>
<path d="" fill="#005EBC" transform="translate(0,0)"/>
<path d="" fill="#005DBA" transform="translate(0,0)"/>
<path d="" fill="#0059B2" transform="translate(0,0)"/>
<path d="" fill="#005DBC" transform="translate(0,0)"/>
<path d="" fill="#0058BF" transform="translate(0,0)"/>
<path d="" fill="#005EBE" transform="translate(0,0)"/>
<path d="" fill="#2862A4" transform="translate(0,0)"/>
<path d="" fill="#0057C0" transform="translate(0,0)"/>
<path d="" fill="#1D589F" transform="translate(0,0)"/>
<path d="" fill="#0057C0" transform="translate(0,0)"/>
<path d="" fill="#005EBF" transform="translate(0,0)"/>
<path d="" fill="#0058C0" transform="translate(0,0)"/>
<path d="" fill="#0058C0" transform="translate(0,0)"/>
</svg>
