<?xml version="1.0" encoding="UTF-8"?>
<!-- Generator: visioncortex VTracer 0.6.4 -->
<svg version="1.1" xmlns="http://www.w3.org/2000/svg" width="512" height="512">
<path d="M0 0 C0.74 -0.005 1.48 -0.009 2.242 -0.014 C4.711 -0.026 7.18 -0.025 9.649 -0.023 C11.423 -0.029 13.197 -0.036 14.972 -0.043 C19.784 -0.061 24.595 -0.066 29.407 -0.067 C32.414 -0.069 35.421 -0.073 38.428 -0.078 C48.919 -0.097 59.411 -0.105 69.902 -0.103 C79.68 -0.102 89.458 -0.123 99.237 -0.155 C107.635 -0.181 116.033 -0.192 124.432 -0.19 C129.447 -0.19 134.461 -0.195 139.476 -0.217 C144.191 -0.236 148.905 -0.236 153.62 -0.222 C155.349 -0.219 157.079 -0.224 158.808 -0.236 C161.171 -0.252 163.532 -0.242 165.895 -0.227 C166.577 -0.237 167.26 -0.248 167.964 -0.258 C172.872 -0.188 175.65 1.231 179.447 4.267 C181.116 6.586 181.474 7.676 181.346 10.521 C181.087 11.664 181.087 11.664 180.822 12.83 C180.665 13.594 180.508 14.359 180.346 15.146 C179.158 17.95 178.08 18.724 175.447 20.267 C172.912 20.666 170.617 20.868 168.068 20.944 C166.853 20.994 166.853 20.994 165.613 21.044 C150.831 21.556 136.02 21.432 121.231 21.435 C118.506 21.435 115.78 21.438 113.055 21.44 C103.529 21.449 94.002 21.454 84.476 21.453 C75.619 21.452 66.763 21.463 57.906 21.478 C50.268 21.492 42.631 21.497 34.993 21.496 C30.445 21.496 25.897 21.499 21.349 21.509 C17.084 21.519 12.819 21.519 8.554 21.512 C6.993 21.511 5.432 21.513 3.87 21.519 C1.735 21.527 -0.401 21.522 -2.537 21.515 C-3.73 21.515 -4.923 21.516 -6.152 21.516 C-9.898 21.242 -13.036 20.591 -16.553 19.267 C-18.647 14.73 -19.038 11.043 -17.553 6.267 C-13.156 0.406 -6.88 -0.031 0 0 Z " fill="#737576" transform="translate(122.5526123046875,130.73257446289063)"/>
</svg>
