<?xml version="1.0" encoding="UTF-8"?>
<!-- Generator: visioncortex VTracer 0.6.4 -->
<svg version="1.1" xmlns="http://www.w3.org/2000/svg" width="512" height="512">
<path d="M0 0 C1.275 -0.003 2.55 -0.006 3.863 -0.01 C5.266 -0.008 6.668 -0.006 8.071 -0.003 C9.499 -0.004 10.928 -0.005 12.357 -0.006 C15.355 -0.008 18.354 -0.006 21.353 -0.001 C25.201 0.005 29.049 0.001 32.897 -0.005 C35.849 -0.008 38.801 -0.007 41.753 -0.004 C43.172 -0.004 44.591 -0.005 46.01 -0.007 C47.992 -0.009 49.975 -0.005 51.957 0 C53.087 0.001 54.216 0.002 55.38 0.002 C58.043 0.129 58.043 0.129 60.043 1.129 C60.774 3.443 61.445 5.778 62.043 8.129 C63.693 8.129 65.343 8.129 67.043 8.129 C68.033 5.819 69.023 3.509 70.043 1.129 C71.939 1.075 73.835 1.036 75.731 1.004 C76.786 0.981 77.842 0.958 78.93 0.934 C82.23 1.141 84.185 1.47 87.043 3.129 C91.526 8.497 92.683 14.494 94.25 21.2 C94.539 22.39 94.827 23.58 95.124 24.807 C96.046 28.62 96.951 32.437 97.856 36.254 C98.749 39.975 99.646 43.696 100.543 47.416 C101.141 49.902 101.735 52.388 102.325 54.876 C103.831 61.199 105.389 67.501 107.052 73.785 C107.377 75.027 107.702 76.27 108.037 77.55 C108.652 79.887 109.278 82.221 109.92 84.551 C112.641 94.968 113.148 104.981 110.168 115.379 C109.82 116.643 109.472 117.906 109.114 119.208 C108.043 122.129 108.043 122.129 106.043 123.129 C104.011 123.215 101.976 123.237 99.942 123.227 C98.73 123.224 97.518 123.221 96.27 123.217 C94.999 123.209 93.728 123.201 92.418 123.192 C91.139 123.187 89.861 123.183 88.543 123.178 C85.377 123.166 82.21 123.148 79.043 123.129 C78.713 128.079 78.383 133.029 78.043 138.129 C78.703 138.459 79.363 138.789 80.043 139.129 C79.736 140.943 79.422 142.755 79.106 144.567 C78.932 145.576 78.758 146.586 78.578 147.625 C78.043 150.129 78.043 150.129 77.043 151.129 C75.357 151.201 73.668 151.213 71.981 151.192 C71.062 151.183 70.143 151.174 69.196 151.165 C68.485 151.153 67.775 151.141 67.043 151.129 C66.775 150.304 66.507 149.479 66.231 148.629 C65.127 145.378 63.948 142.17 62.727 138.961 C62.131 137.363 61.583 135.748 61.043 134.129 C59.735 133.414 58.397 132.755 57.043 132.129 C55.597 131.036 54.161 129.931 52.731 128.817 C41.283 120.669 27.937 118.96 14.231 119.129 C12.141 119.155 10.051 119.176 7.961 119.192 C7.041 119.203 6.121 119.215 5.173 119.227 C3.043 119.129 3.043 119.129 2.043 118.129 C1.844 116.715 1.706 115.291 1.594 113.867 C1.521 112.957 1.447 112.047 1.371 111.11 C1.295 110.112 1.219 109.114 1.141 108.086 C1.017 106.535 1.017 106.535 0.89 104.953 C0.625 101.616 0.365 98.279 0.106 94.942 C-0.235 90.615 -0.578 86.288 -0.922 81.961 C-1.007 80.889 -1.091 79.817 -1.179 78.713 C-2.315 64.485 -3.636 50.273 -5.019 36.067 C-7.489 10.205 -7.489 10.205 -6.957 1.129 C-5.156 -0.671 -2.427 0.002 0 0 Z M78.731 59.129 C76.349 63.364 76.348 67.361 77.043 72.129 C77.703 73.119 78.363 74.109 79.043 75.129 C78.801 78.09 78.801 78.09 78.168 81.504 C77.022 87.285 77.022 87.285 77.043 93.129 C79.79 95.331 79.79 95.331 82.543 95.254 C85.458 94.27 85.458 94.27 86.731 90.504 C87.622 87.776 88.255 85.136 88.856 82.317 C90.043 79.129 90.043 79.129 92.981 77.379 C93.991 76.967 95.002 76.554 96.043 76.129 C98.792 73.931 99.522 72.289 99.918 68.817 C100.246 64.433 99.78 61.721 97.043 58.129 C90.226 54.411 84.745 53.928 78.731 59.129 Z " fill="#0055BB" transform="translate(323.956787109375,198.87060546875)"/>
</svg>
