<?xml version="1.0" encoding="UTF-8"?>
<!-- Generator: visioncortex VTracer 0.6.4 -->
<svg version="1.1" xmlns="http://www.w3.org/2000/svg" width="512" height="512">
<path d="M0 0 C0.33 0 0.66 0 1 0 C1.083 0.931 1.083 0.931 1.168 1.88 C1.421 4.691 1.679 7.502 1.938 10.312 C2.025 11.289 2.112 12.265 2.201 13.271 C2.288 14.209 2.375 15.147 2.465 16.113 C2.543 16.977 2.622 17.841 2.703 18.732 C2.948 21.161 2.948 21.161 4 24 C6.833 25.416 9.475 25.346 12.625 25.562 C13.814 25.646 15.002 25.73 16.227 25.816 C17.599 25.907 17.599 25.907 19 26 C22.559 34.438 22.559 34.438 21.25 39 C20 42 20 42 19 43 C13.035 44.318 6.674 44.518 1 42 C-3.623 37.136 -4.851 29.816 -5.105 23.297 C-4.592 15.32 -2.217 7.641 0 0 Z " fill="#939596" transform="translate(81,314)"/>
</svg>
