<?xml version="1.0" encoding="UTF-8"?>
<!-- Generator: visioncortex VTracer 0.6.4 -->
<svg version="1.1" xmlns="http://www.w3.org/2000/svg" width="512" height="512">
<path d="M0 0 C4.011 2.831 5.783 4.23 6.75 9.062 C5.935 13.678 3.666 16.204 0.188 19.25 C-7.159 23.488 -15.615 24.165 -23.766 22.055 C-27.656 20.525 -30.914 18.047 -32.812 14.25 C-33.235 10.534 -32.943 8.521 -31.312 5.125 C-23.958 -3.333 -10.074 -4.71 0 0 Z " fill="#83888E" transform="translate(352.8125,342.75)"/>
<path d="M0 0 C0.66 0.33 1.32 0.66 2 1 C-0.31 3.31 -2.62 5.62 -5 8 C-5.33 7.34 -5.66 6.68 -6 6 C-4 4 -2 2 0 0 Z " fill="#6F747B" transform="translate(327,343)"/>
</svg>
