<?xml version="1.0" encoding="UTF-8"?>
<!-- Generator: visioncortex VTracer 0.6.4 -->
<svg version="1.1" xmlns="http://www.w3.org/2000/svg" width="512" height="512">
<path d="M0 0 C4.633 6.95 4.598 15.001 3 23 C1.395 28.051 -0.156 32.385 -5 35 C-7.698 35.269 -10.125 35.375 -12.812 35.312 C-13.842 35.317 -13.842 35.317 -14.893 35.322 C-19.536 35.274 -23.608 34.648 -28 33 C-30.489 29.266 -30.407 26.319 -30 22 C-29.125 18.562 -29.125 18.562 -28 16 C-24.285 14.142 -19.498 15.012 -15.385 15.127 C-9.397 15.287 -9.397 15.287 -4 13 C-2.526 9.934 -2.526 9.934 -1.688 6.375 C-1.361 5.186 -1.035 3.998 -0.699 2.773 C-0.468 1.858 -0.238 0.943 0 0 Z " fill="#8D8F92" transform="translate(432,323)"/>
</svg>
